<svg viewBox="0 0 320 320" xmlns="http://www.w3.org/2000/svg" shape-rendering="crispEdges"><rect width="100%" height="100%" fill="#d5d7e1" /><rect width="140" height="10" x="90" y="210" fill="#ae3208" /><rect width="140" height="10" x="90" y="220" fill="#ae3208" /><rect width="140" height="10" x="90" y="230" fill="#ae3208" /><rect width="140" height="10" x="90" y="240" fill="#ae3208" /><rect width="20" height="10" x="90" y="250" fill="#ae3208" /><rect width="110" height="10" x="120" y="250" fill="#ae3208" /><rect width="20" height="10" x="90" y="260" fill="#ae3208" /><rect width="110" height="10" x="120" y="260" fill="#ae3208" /><rect width="20" height="10" x="90" y="270" fill="#ae3208" /><rect width="110" height="10" x="120" y="270" fill="#ae3208" /><rect width="20" height="10" x="90" y="280" fill="#ae3208" /><rect width="110" height="10" x="120" y="280" fill="#ae3208" /><rect width="20" height="10" x="90" y="290" fill="#ae3208" /><rect width="110" height="10" x="120" y="290" fill="#ae3208" /><rect width="20" height="10" x="90" y="300" fill="#ae3208" /><rect width="110" height="10" x="120" y="300" fill="#ae3208" /><rect width="20" height="10" x="90" y="310" fill="#ae3208" /><rect width="110" height="10" x="120" y="310" fill="#ae3208" /><rect width="20" height="10" x="160" y="250" fill="#f8d689" /><rect width="10" height="10" x="150" y="260" fill="#f8d689" /><rect width="10" height="10" x="160" y="260" fill="#f9f5cb" /><rect width="10" height="10" x="170" y="260" fill="#f8d689" /><rect width="10" height="10" x="180" y="260" fill="#9f4b27" /><rect width="10" height="10" x="140" y="270" fill="#f9f5cb" /><rect width="10" height="10" x="150" y="270" fill="#f8d689" /><rect width="20" height="10" x="160" y="270" fill="#9f4b27" /><rect width="10" height="10" x="180" y="270" fill="#f8d689" /><rect width="30" height="10" x="110" y="30" fill="#fccf25" /><rect width="10" height="10" x="100" y="40" fill="#e9ba12" /><rect width="40" height="10" x="110" y="40" fill="#fccf25" /><rect width="10" height="10" x="90" y="50" fill="#e9ba12" /><rect width="30" height="10" x="100" y="50" fill="#fccf25" /><rect width="10" height="10" x="130" y="50" fill="#fff671" /><rect width="40" height="10" x="140" y="50" fill="#fccf25" /><rect width="10" height="10" x="90" y="60" fill="#e9ba12" /><rect width="60" height="10" x="100" y="60" fill="#fccf25" /><rect width="10" height="10" x="160" y="60" fill="#fff671" /><rect width="20" height="10" x="170" y="60" fill="#fccf25" /><rect width="10" height="10" x="90" y="70" fill="#e9ba12" /><rect width="80" height="10" x="100" y="70" fill="#fccf25" /><rect width="10" height="10" x="100" y="80" fill="#ffe939" /><rect width="10" height="10" x="110" y="80" fill="#e9ba12" /><rect width="30" height="10" x="120" y="80" fill="#fccf25" /><rect width="10" height="10" x="190" y="80" fill="#b8ced2" /><rect width="10" height="10" x="200" y="80" fill="#ffc925" /><rect width="10" height="10" x="110" y="90" fill="#ffe939" /><rect width="20" height="10" x="120" y="90" fill="#d29607" /><rect width="10" height="10" x="190" y="90" fill="#caeff9" /><rect width="10" height="10" x="200" y="90" fill="#ffef16" /><rect width="10" height="10" x="190" y="100" fill="#b8ced2" /><rect width="10" height="10" x="200" y="100" fill="#ffc925" /><rect width="10" height="10" x="190" y="110" fill="#b8ced2" /><rect width="10" height="10" x="200" y="110" fill="#ffc925" /><rect width="10" height="10" x="190" y="120" fill="#b8ced2" /><rect width="10" height="10" x="200" y="120" fill="#ffc925" /><rect width="10" height="10" x="190" y="130" fill="#b8ced2" /><rect width="10" height="10" x="200" y="130" fill="#ffc925" /><rect width="10" height="10" x="190" y="140" fill="#b8ced2" /><rect width="10" height="10" x="200" y="140" fill="#ffc925" /><rect width="10" height="10" x="190" y="150" fill="#b8ced2" /><rect width="10" height="10" x="200" y="150" fill="#ffc925" /><rect width="10" height="10" x="190" y="160" fill="#b8ced2" /><rect width="10" height="10" x="200" y="160" fill="#ffc925" /><rect width="40" height="10" x="140" y="170" fill="#b8ced2" /><rect width="10" height="10" x="180" y="170" fill="#caeff9" /><rect width="10" height="10" x="190" y="170" fill="#b8ced2" /><rect width="10" height="10" x="200" y="170" fill="#ffef16" /><rect width="40" height="10" x="120" y="180" fill="#caeff9" /><rect width="50" height="10" x="170" y="180" fill="#f86100" /><rect width="10" height="10" x="110" y="190" fill="#caeff9" /><rect width="30" height="10" x="120" y="190" fill="#ffffff" /><rect width="10" height="10" x="180" y="190" fill="#f86100" /><rect width="10" height="10" x="190" y="190" fill="#fff671" /><rect width="10" height="10" x="200" y="190" fill="#f86100" /><rect width="20" height="10" x="210" y="190" fill="#fff671" /><rect width="30" height="10" x="100" y="200" fill="#ffffff" /><rect width="10" height="10" x="130" y="200" fill="#caeff9" /><rect width="60" height="10" x="160" y="200" fill="#f86100" /><rect width="60" height="10" x="100" y="110" fill="#f3322c" /><rect width="60" height="10" x="170" y="110" fill="#f3322c" /><rect width="10" height="10" x="100" y="120" fill="#f3322c" /><rect width="20" height="10" x="110" y="120" fill="#ffffff" /><rect width="20" height="10" x="130" y="120" fill="#000000" /><rect width="10" height="10" x="150" y="120" fill="#f3322c" /><rect width="10" height="10" x="170" y="120" fill="#f3322c" /><rect width="20" height="10" x="180" y="120" fill="#ffffff" /><rect width="20" height="10" x="200" y="120" fill="#000000" /><rect width="10" height="10" x="220" y="120" fill="#f3322c" /><rect width="40" height="10" x="70" y="130" fill="#f3322c" /><rect width="20" height="10" x="110" y="130" fill="#ffffff" /><rect width="20" height="10" x="130" y="130" fill="#000000" /><rect width="30" height="10" x="150" y="130" fill="#f3322c" /><rect width="20" height="10" x="180" y="130" fill="#ffffff" /><rect width="20" height="10" x="200" y="130" fill="#000000" /><rect width="10" height="10" x="220" y="130" fill="#f3322c" /><rect width="10" height="10" x="70" y="140" fill="#f3322c" /><rect width="10" height="10" x="100" y="140" fill="#f3322c" /><rect width="20" height="10" x="110" y="140" fill="#ffffff" /><rect width="20" height="10" x="130" y="140" fill="#000000" /><rect width="10" height="10" x="150" y="140" fill="#f3322c" /><rect width="10" height="10" x="170" y="140" fill="#f3322c" /><rect width="20" height="10" x="180" y="140" fill="#ffffff" /><rect width="20" height="10" x="200" y="140" fill="#000000" /><rect width="10" height="10" x="220" y="140" fill="#f3322c" /><rect width="10" height="10" x="70" y="150" fill="#f3322c" /><rect width="10" height="10" x="100" y="150" fill="#f3322c" /><rect width="20" height="10" x="110" y="150" fill="#ffffff" /><rect width="20" height="10" x="130" y="150" fill="#000000" /><rect width="10" height="10" x="150" y="150" fill="#f3322c" /><rect width="10" height="10" x="170" y="150" fill="#f3322c" /><rect width="20" height="10" x="180" y="150" fill="#ffffff" /><rect width="20" height="10" x="200" y="150" fill="#000000" /><rect width="10" height="10" x="220" y="150" fill="#f3322c" /><rect width="60" height="10" x="100" y="160" fill="#f3322c" /><rect width="60" height="10" x="170" y="160" fill="#f3322c" /></svg>