<svg viewBox="0 0 320 320" xmlns="http://www.w3.org/2000/svg" shape-rendering="crispEdges"><rect width="100%" height="100%" fill="#d5d7e1" /><rect width="140" height="10" x="90" y="210" fill="#d22209" /><rect width="140" height="10" x="90" y="220" fill="#d22209" /><rect width="140" height="10" x="90" y="230" fill="#d22209" /><rect width="140" height="10" x="90" y="240" fill="#d22209" /><rect width="20" height="10" x="90" y="250" fill="#d22209" /><rect width="110" height="10" x="120" y="250" fill="#d22209" /><rect width="20" height="10" x="90" y="260" fill="#d22209" /><rect width="110" height="10" x="120" y="260" fill="#d22209" /><rect width="20" height="10" x="90" y="270" fill="#d22209" /><rect width="110" height="10" x="120" y="270" fill="#d22209" /><rect width="20" height="10" x="90" y="280" fill="#d22209" /><rect width="110" height="10" x="120" y="280" fill="#d22209" /><rect width="20" height="10" x="90" y="290" fill="#d22209" /><rect width="110" height="10" x="120" y="290" fill="#d22209" /><rect width="20" height="10" x="90" y="300" fill="#d22209" /><rect width="110" height="10" x="120" y="300" fill="#d22209" /><rect width="20" height="10" x="90" y="310" fill="#d22209" /><rect width="110" height="10" x="120" y="310" fill="#d22209" /><rect width="20" height="10" x="150" y="240" fill="#ff638d" /><rect width="10" height="10" x="170" y="240" fill="#1929f4" /><rect width="10" height="10" x="180" y="240" fill="#ffffff" /><rect width="20" height="10" x="160" y="250" fill="#000000" /><rect width="20" height="10" x="160" y="260" fill="#feb9d5" /><rect width="20" height="10" x="160" y="270" fill="#feb9d5" /><rect width="10" height="10" x="180" y="20" fill="#962236" /><rect width="30" height="10" x="190" y="20" fill="#0b5027" /><rect width="40" height="10" x="220" y="20" fill="#962236" /><rect width="30" height="10" x="180" y="30" fill="#bd2d24" /><rect width="30" height="10" x="210" y="30" fill="#0b5027" /><rect width="20" height="10" x="240" y="30" fill="#bd2d24" /><rect width="30" height="10" x="180" y="40" fill="#0b5027" /><rect width="20" height="10" x="220" y="40" fill="#0b5027" /><rect width="30" height="10" x="180" y="50" fill="#0b5027" /><rect width="10" height="10" x="230" y="50" fill="#0b5027" /><rect width="70" height="10" x="110" y="60" fill="#bd2d24" /><rect width="30" height="10" x="180" y="60" fill="#0b5027" /><rect width="10" height="10" x="210" y="60" fill="#bd2d24" /><rect width="20" height="10" x="90" y="70" fill="#bd2d24" /><rect width="70" height="10" x="110" y="70" fill="#000000" /><rect width="30" height="10" x="180" y="70" fill="#0b5027" /><rect width="10" height="10" x="210" y="70" fill="#000000" /><rect width="20" height="10" x="220" y="70" fill="#bd2d24" /><rect width="10" height="10" x="80" y="80" fill="#bd2d24" /><rect width="90" height="10" x="90" y="80" fill="#000000" /><rect width="20" height="10" x="180" y="80" fill="#0b5027" /><rect width="40" height="10" x="200" y="80" fill="#000000" /><rect width="10" height="10" x="240" y="80" fill="#bd2d24" /><rect width="10" height="10" x="70" y="90" fill="#bd2d24" /><rect width="40" height="10" x="80" y="90" fill="#000000" /><rect width="60" height="10" x="120" y="90" fill="#d19a54" /><rect width="10" height="10" x="180" y="90" fill="#0b5027" /><rect width="20" height="10" x="190" y="90" fill="#d19a54" /><rect width="40" height="10" x="210" y="90" fill="#000000" /><rect width="10" height="10" x="250" y="90" fill="#bd2d24" /><rect width="10" height="10" x="70" y="100" fill="#bd2d24" /><rect width="20" height="10" x="80" y="100" fill="#000000" /><rect width="20" height="10" x="100" y="100" fill="#f9f6d1" /><rect width="110" height="10" x="120" y="100" fill="#d19a54" /><rect width="20" height="10" x="230" y="100" fill="#000000" /><rect width="10" height="10" x="250" y="100" fill="#bd2d24" /><rect width="10" height="10" x="70" y="110" fill="#bd2d24" /><rect width="10" height="10" x="80" y="110" fill="#000000" /><rect width="40" height="10" x="90" y="110" fill="#f9f6d1" /><rect width="50" height="10" x="130" y="110" fill="#d19a54" /><rect width="10" height="10" x="180" y="110" fill="#0b5027" /><rect width="50" height="10" x="190" y="110" fill="#d19a54" /><rect width="10" height="10" x="240" y="110" fill="#000000" /><rect width="10" height="10" x="250" y="110" fill="#bd2d24" /><rect width="10" height="10" x="70" y="120" fill="#bd2d24" /><rect width="70" height="10" x="80" y="120" fill="#d19a54" /><rect width="40" height="10" x="150" y="120" fill="#0b5027" /><rect width="60" height="10" x="190" y="120" fill="#d19a54" /><rect width="10" height="10" x="250" y="120" fill="#bd2d24" /><rect width="10" height="10" x="70" y="130" fill="#bd2d24" /><rect width="50" height="10" x="80" y="130" fill="#d19a54" /><rect width="50" height="10" x="130" y="130" fill="#0b5027" /><rect width="70" height="10" x="180" y="130" fill="#d19a54" /><rect width="10" height="10" x="250" y="130" fill="#bd2d24" /><rect width="10" height="10" x="70" y="140" fill="#bd2d24" /><rect width="60" height="10" x="80" y="140" fill="#d19a54" /><rect width="30" height="10" x="140" y="140" fill="#0b5027" /><rect width="30" height="10" x="170" y="140" fill="#d19a54" /><rect width="20" height="10" x="200" y="140" fill="#f9f6d1" /><rect width="30" height="10" x="220" y="140" fill="#d19a54" /><rect width="10" height="10" x="250" y="140" fill="#bd2d24" /><rect width="10" height="10" x="70" y="150" fill="#bd2d24" /><rect width="110" height="10" x="80" y="150" fill="#d19a54" /><rect width="40" height="10" x="190" y="150" fill="#f9f6d1" /><rect width="20" height="10" x="230" y="150" fill="#d19a54" /><rect width="10" height="10" x="250" y="150" fill="#bd2d24" /><rect width="10" height="10" x="70" y="160" fill="#bd2d24" /><rect width="170" height="10" x="80" y="160" fill="#d19a54" /><rect width="10" height="10" x="250" y="160" fill="#bd2d24" /><rect width="20" height="10" x="70" y="170" fill="#bd2d24" /><rect width="150" height="10" x="90" y="170" fill="#d19a54" /><rect width="20" height="10" x="240" y="170" fill="#bd2d24" /><rect width="30" height="10" x="70" y="180" fill="#bd2d24" /><rect width="10" height="10" x="100" y="180" fill="#d19a54" /><rect width="50" height="10" x="110" y="180" fill="#0b5027" /><rect width="70" height="10" x="160" y="180" fill="#d19a54" /><rect width="30" height="10" x="230" y="180" fill="#bd2d24" /><rect width="170" height="10" x="80" y="190" fill="#bd2d24" /><rect width="150" height="10" x="90" y="200" fill="#bd2d24" /><rect width="110" height="10" x="110" y="210" fill="#bd2d24" /><rect width="60" height="10" x="100" y="110" fill="#000000" /><rect width="60" height="10" x="170" y="110" fill="#000000" /><rect width="10" height="10" x="100" y="120" fill="#000000" /><rect width="20" height="10" x="110" y="120" fill="#ffffff" /><rect width="20" height="10" x="130" y="120" fill="#ff0e0e" /><rect width="10" height="10" x="150" y="120" fill="#000000" /><rect width="10" height="10" x="170" y="120" fill="#000000" /><rect width="20" height="10" x="180" y="120" fill="#ffffff" /><rect width="20" height="10" x="200" y="120" fill="#ff0e0e" /><rect width="10" height="10" x="220" y="120" fill="#000000" /><rect width="40" height="10" x="70" y="130" fill="#000000" /><rect width="20" height="10" x="110" y="130" fill="#ffffff" /><rect width="20" height="10" x="130" y="130" fill="#ff0e0e" /><rect width="30" height="10" x="150" y="130" fill="#000000" /><rect width="20" height="10" x="180" y="130" fill="#ffffff" /><rect width="20" height="10" x="200" y="130" fill="#ff0e0e" /><rect width="10" height="10" x="220" y="130" fill="#000000" /><rect width="10" height="10" x="70" y="140" fill="#000000" /><rect width="10" height="10" x="100" y="140" fill="#000000" /><rect width="20" height="10" x="110" y="140" fill="#ffffff" /><rect width="20" height="10" x="130" y="140" fill="#ff0e0e" /><rect width="10" height="10" x="150" y="140" fill="#000000" /><rect width="10" height="10" x="170" y="140" fill="#000000" /><rect width="20" height="10" x="180" y="140" fill="#ffffff" /><rect width="20" height="10" x="200" y="140" fill="#ff0e0e" /><rect width="10" height="10" x="220" y="140" fill="#000000" /><rect width="10" height="10" x="70" y="150" fill="#000000" /><rect width="10" height="10" x="100" y="150" fill="#000000" /><rect width="20" height="10" x="110" y="150" fill="#ffffff" /><rect width="20" height="10" x="130" y="150" fill="#ff0e0e" /><rect width="10" height="10" x="150" y="150" fill="#000000" /><rect width="10" height="10" x="170" y="150" fill="#000000" /><rect width="20" height="10" x="180" y="150" fill="#ffffff" /><rect width="20" height="10" x="200" y="150" fill="#ff0e0e" /><rect width="10" height="10" x="220" y="150" fill="#000000" /><rect width="60" height="10" x="100" y="160" fill="#000000" /><rect width="60" height="10" x="170" y="160" fill="#000000" /></svg>