<svg viewBox="0 0 320 320" xmlns="http://www.w3.org/2000/svg" shape-rendering="crispEdges"><rect width="100%" height="100%" fill="#d5d7e1" /><rect width="140" height="10" x="90" y="210" fill="#ae3208" /><rect width="140" height="10" x="90" y="220" fill="#ae3208" /><rect width="140" height="10" x="90" y="230" fill="#ae3208" /><rect width="140" height="10" x="90" y="240" fill="#ae3208" /><rect width="20" height="10" x="90" y="250" fill="#ae3208" /><rect width="110" height="10" x="120" y="250" fill="#ae3208" /><rect width="20" height="10" x="90" y="260" fill="#ae3208" /><rect width="110" height="10" x="120" y="260" fill="#ae3208" /><rect width="20" height="10" x="90" y="270" fill="#ae3208" /><rect width="110" height="10" x="120" y="270" fill="#ae3208" /><rect width="20" height="10" x="90" y="280" fill="#ae3208" /><rect width="110" height="10" x="120" y="280" fill="#ae3208" /><rect width="20" height="10" x="90" y="290" fill="#ae3208" /><rect width="110" height="10" x="120" y="290" fill="#ae3208" /><rect width="20" height="10" x="90" y="300" fill="#ae3208" /><rect width="110" height="10" x="120" y="300" fill="#ae3208" /><rect width="20" height="10" x="90" y="310" fill="#ae3208" /><rect width="110" height="10" x="120" y="310" fill="#ae3208" /><rect width="30" height="10" x="160" y="240" fill="#1e3445" /><rect width="30" height="10" x="160" y="250" fill="#adc8cc" /><rect width="10" height="10" x="150" y="260" fill="#b8ced2" /><rect width="10" height="10" x="160" y="260" fill="#ffd067" /><rect width="10" height="10" x="170" y="260" fill="#b8ced2" /><rect width="30" height="10" x="150" y="270" fill="#1e3445" /><rect width="80" height="10" x="120" y="40" fill="#4d271b" /><rect width="20" height="10" x="100" y="50" fill="#4d271b" /><rect width="80" height="10" x="120" y="50" fill="#ae3208" /><rect width="20" height="10" x="200" y="50" fill="#4d271b" /><rect width="10" height="10" x="90" y="60" fill="#4d271b" /><rect width="20" height="10" x="100" y="60" fill="#ae3208" /><rect width="10" height="10" x="120" y="60" fill="#abaaa8" /><rect width="70" height="10" x="130" y="60" fill="#807f7e" /><rect width="20" height="10" x="200" y="60" fill="#ae3208" /><rect width="10" height="10" x="220" y="60" fill="#4d271b" /><rect width="10" height="10" x="80" y="70" fill="#4d271b" /><rect width="10" height="10" x="90" y="70" fill="#ae3208" /><rect width="30" height="10" x="100" y="70" fill="#807f7e" /><rect width="10" height="10" x="130" y="70" fill="#abaaa8" /><rect width="10" height="10" x="140" y="70" fill="#000000" /><rect width="10" height="10" x="150" y="70" fill="#abaaa8" /><rect width="10" height="10" x="160" y="70" fill="#f20422" /><rect width="10" height="10" x="170" y="70" fill="#abaaa8" /><rect width="10" height="10" x="180" y="70" fill="#00a556" /><rect width="10" height="10" x="190" y="70" fill="#abaaa8" /><rect width="20" height="10" x="200" y="70" fill="#807f7e" /><rect width="10" height="10" x="220" y="70" fill="#ae3208" /><rect width="10" height="10" x="230" y="70" fill="#4d271b" /><rect width="10" height="10" x="80" y="80" fill="#4d271b" /><rect width="10" height="10" x="90" y="80" fill="#807f7e" /><rect width="30" height="10" x="100" y="80" fill="#abaaa8" /><rect width="20" height="10" x="130" y="80" fill="#807f7e" /><rect width="10" height="10" x="150" y="80" fill="#000000" /><rect width="20" height="10" x="160" y="80" fill="#f20422" /><rect width="10" height="10" x="180" y="80" fill="#a3efd0" /><rect width="10" height="10" x="190" y="80" fill="#018146" /><rect width="20" height="10" x="200" y="80" fill="#abaaa8" /><rect width="10" height="10" x="220" y="80" fill="#807f7e" /><rect width="10" height="10" x="230" y="80" fill="#4d271b" /><rect width="10" height="10" x="80" y="90" fill="#ae3208" /><rect width="10" height="10" x="90" y="90" fill="#4d271b" /><rect width="30" height="10" x="100" y="90" fill="#807f7e" /><rect width="10" height="10" x="130" y="90" fill="#abaaa8" /><rect width="10" height="10" x="140" y="90" fill="#000000" /><rect width="10" height="10" x="150" y="90" fill="#abaaa8" /><rect width="10" height="10" x="160" y="90" fill="#000000" /><rect width="10" height="10" x="170" y="90" fill="#018146" /><rect width="10" height="10" x="180" y="90" fill="#00a556" /><rect width="10" height="10" x="190" y="90" fill="#abaaa8" /><rect width="20" height="10" x="200" y="90" fill="#807f7e" /><rect width="10" height="10" x="220" y="90" fill="#4d271b" /><rect width="10" height="10" x="230" y="90" fill="#ae3208" /><rect width="10" height="10" x="80" y="100" fill="#ae3208" /><rect width="10" height="10" x="90" y="100" fill="#e2c8c0" /><rect width="20" height="10" x="100" y="100" fill="#4d271b" /><rect width="80" height="10" x="120" y="100" fill="#807f7e" /><rect width="20" height="10" x="200" y="100" fill="#4d271b" /><rect width="20" height="10" x="220" y="100" fill="#ae3208" /><rect width="10" height="10" x="80" y="110" fill="#ae3208" /><rect width="20" height="10" x="90" y="110" fill="#e2c8c0" /><rect width="10" height="10" x="110" y="110" fill="#d32a09" /><rect width="80" height="10" x="120" y="110" fill="#4d271b" /><rect width="20" height="10" x="200" y="110" fill="#d32a09" /><rect width="20" height="10" x="220" y="110" fill="#ae3208" /><rect width="10" height="10" x="80" y="120" fill="#903707" /><rect width="20" height="10" x="90" y="120" fill="#e2c8c0" /><rect width="50" height="10" x="110" y="120" fill="#d32a09" /><rect width="40" height="10" x="160" y="120" fill="#f82905" /><rect width="20" height="10" x="200" y="120" fill="#d32a09" /><rect width="10" height="10" x="220" y="120" fill="#ae3208" /><rect width="10" height="10" x="230" y="120" fill="#903707" /><rect width="10" height="10" x="80" y="130" fill="#ae3208" /><rect width="10" height="10" x="90" y="130" fill="#4d271b" /><rect width="10" height="10" x="100" y="130" fill="#e2c8c0" /><rect width="10" height="10" x="110" y="130" fill="#ae3208" /><rect width="40" height="10" x="120" y="130" fill="#d32a09" /><rect width="40" height="10" x="160" y="130" fill="#f82905" /><rect width="10" height="10" x="200" y="130" fill="#d32a09" /><rect width="10" height="10" x="210" y="130" fill="#ae3208" /><rect width="10" height="10" x="220" y="130" fill="#4d271b" /><rect width="10" height="10" x="230" y="130" fill="#ae3208" /><rect width="10" height="10" x="80" y="140" fill="#ae3208" /><rect width="10" height="10" x="90" y="140" fill="#e2c8c0" /><rect width="20" height="10" x="100" y="140" fill="#4d271b" /><rect width="40" height="10" x="120" y="140" fill="#ae3208" /><rect width="40" height="10" x="160" y="140" fill="#d32a09" /><rect width="20" height="10" x="200" y="140" fill="#4d271b" /><rect width="20" height="10" x="220" y="140" fill="#ae3208" /><rect width="10" height="10" x="80" y="150" fill="#ae3208" /><rect width="20" height="10" x="90" y="150" fill="#e2c8c0" /><rect width="10" height="10" x="110" y="150" fill="#d32a09" /><rect width="80" height="10" x="120" y="150" fill="#4d271b" /><rect width="20" height="10" x="200" y="150" fill="#d32a09" /><rect width="20" height="10" x="220" y="150" fill="#ae3208" /><rect width="10" height="10" x="80" y="160" fill="#903707" /><rect width="20" height="10" x="90" y="160" fill="#e2c8c0" /><rect width="50" height="10" x="110" y="160" fill="#d32a09" /><rect width="40" height="10" x="160" y="160" fill="#f82905" /><rect width="20" height="10" x="200" y="160" fill="#d32a09" /><rect width="10" height="10" x="220" y="160" fill="#ae3208" /><rect width="10" height="10" x="230" y="160" fill="#903707" /><rect width="10" height="10" x="80" y="170" fill="#ae3208" /><rect width="10" height="10" x="90" y="170" fill="#4d271b" /><rect width="10" height="10" x="100" y="170" fill="#e2c8c0" /><rect width="10" height="10" x="110" y="170" fill="#ae3208" /><rect width="40" height="10" x="120" y="170" fill="#d32a09" /><rect width="40" height="10" x="160" y="170" fill="#f82905" /><rect width="10" height="10" x="200" y="170" fill="#d32a09" /><rect width="10" height="10" x="210" y="170" fill="#ae3208" /><rect width="10" height="10" x="220" y="170" fill="#4d271b" /><rect width="10" height="10" x="230" y="170" fill="#ae3208" /><rect width="10" height="10" x="80" y="180" fill="#ae3208" /><rect width="10" height="10" x="90" y="180" fill="#e2c8c0" /><rect width="20" height="10" x="100" y="180" fill="#4d271b" /><rect width="40" height="10" x="120" y="180" fill="#ae3208" /><rect width="40" height="10" x="160" y="180" fill="#d32a09" /><rect width="20" height="10" x="200" y="180" fill="#4d271b" /><rect width="20" height="10" x="220" y="180" fill="#ae3208" /><rect width="10" height="10" x="80" y="190" fill="#ae3208" /><rect width="20" height="10" x="90" y="190" fill="#e2c8c0" /><rect width="10" height="10" x="110" y="190" fill="#d32a09" /><rect width="80" height="10" x="120" y="190" fill="#4d271b" /><rect width="20" height="10" x="200" y="190" fill="#d32a09" /><rect width="20" height="10" x="220" y="190" fill="#ae3208" /><rect width="10" height="10" x="90" y="200" fill="#ae3208" /><rect width="10" height="10" x="100" y="200" fill="#e2c8c0" /><rect width="50" height="10" x="110" y="200" fill="#d32a09" /><rect width="40" height="10" x="160" y="200" fill="#f82905" /><rect width="20" height="10" x="200" y="200" fill="#d32a09" /><rect width="10" height="10" x="220" y="200" fill="#ae3208" /><rect width="20" height="10" x="100" y="210" fill="#ae3208" /><rect width="40" height="10" x="120" y="210" fill="#d32a09" /><rect width="40" height="10" x="160" y="210" fill="#f82905" /><rect width="10" height="10" x="200" y="210" fill="#d32a09" /><rect width="10" height="10" x="210" y="210" fill="#ae3208" /><rect width="40" height="10" x="120" y="220" fill="#ae3208" /><rect width="40" height="10" x="160" y="220" fill="#d32a09" /><rect width="60" height="10" x="100" y="110" fill="#d19a54" /><rect width="60" height="10" x="170" y="110" fill="#d19a54" /><rect width="10" height="10" x="100" y="120" fill="#d19a54" /><rect width="20" height="10" x="110" y="120" fill="#ffffff" /><rect width="20" height="10" x="130" y="120" fill="#000000" /><rect width="10" height="10" x="150" y="120" fill="#d19a54" /><rect width="10" height="10" x="170" y="120" fill="#d19a54" /><rect width="20" height="10" x="180" y="120" fill="#ffffff" /><rect width="20" height="10" x="200" y="120" fill="#000000" /><rect width="10" height="10" x="220" y="120" fill="#d19a54" /><rect width="40" height="10" x="70" y="130" fill="#d19a54" /><rect width="20" height="10" x="110" y="130" fill="#ffffff" /><rect width="20" height="10" x="130" y="130" fill="#000000" /><rect width="30" height="10" x="150" y="130" fill="#d19a54" /><rect width="20" height="10" x="180" y="130" fill="#ffffff" /><rect width="20" height="10" x="200" y="130" fill="#000000" /><rect width="10" height="10" x="220" y="130" fill="#d19a54" /><rect width="10" height="10" x="70" y="140" fill="#d19a54" /><rect width="10" height="10" x="100" y="140" fill="#d19a54" /><rect width="20" height="10" x="110" y="140" fill="#ffffff" /><rect width="20" height="10" x="130" y="140" fill="#000000" /><rect width="10" height="10" x="150" y="140" fill="#d19a54" /><rect width="10" height="10" x="170" y="140" fill="#d19a54" /><rect width="20" height="10" x="180" y="140" fill="#ffffff" /><rect width="20" height="10" x="200" y="140" fill="#000000" /><rect width="10" height="10" x="220" y="140" fill="#d19a54" /><rect width="10" height="10" x="70" y="150" fill="#d19a54" /><rect width="10" height="10" x="100" y="150" fill="#d19a54" /><rect width="20" height="10" x="110" y="150" fill="#ffffff" /><rect width="20" height="10" x="130" y="150" fill="#000000" /><rect width="10" height="10" x="150" y="150" fill="#d19a54" /><rect width="10" height="10" x="170" y="150" fill="#d19a54" /><rect width="20" height="10" x="180" y="150" fill="#ffffff" /><rect width="20" height="10" x="200" y="150" fill="#000000" /><rect width="10" height="10" x="220" y="150" fill="#d19a54" /><rect width="60" height="10" x="100" y="160" fill="#d19a54" /><rect width="60" height="10" x="170" y="160" fill="#d19a54" /></svg>