<svg viewBox="0 0 320 320" xmlns="http://www.w3.org/2000/svg" shape-rendering="crispEdges"><rect width="100%" height="100%" fill="#d5d7e1" /><rect width="140" height="10" x="90" y="210" fill="#5a65fa" /><rect width="140" height="10" x="90" y="220" fill="#5a65fa" /><rect width="140" height="10" x="90" y="230" fill="#5a65fa" /><rect width="140" height="10" x="90" y="240" fill="#5a65fa" /><rect width="20" height="10" x="90" y="250" fill="#5a65fa" /><rect width="110" height="10" x="120" y="250" fill="#5a65fa" /><rect width="20" height="10" x="90" y="260" fill="#5a65fa" /><rect width="110" height="10" x="120" y="260" fill="#5a65fa" /><rect width="20" height="10" x="90" y="270" fill="#5a65fa" /><rect width="110" height="10" x="120" y="270" fill="#5a65fa" /><rect width="20" height="10" x="90" y="280" fill="#5a65fa" /><rect width="110" height="10" x="120" y="280" fill="#5a65fa" /><rect width="20" height="10" x="90" y="290" fill="#5a65fa" /><rect width="110" height="10" x="120" y="290" fill="#5a65fa" /><rect width="20" height="10" x="90" y="300" fill="#5a65fa" /><rect width="110" height="10" x="120" y="300" fill="#5a65fa" /><rect width="20" height="10" x="90" y="310" fill="#5a65fa" /><rect width="110" height="10" x="120" y="310" fill="#5a65fa" /><rect width="10" height="10" x="160" y="240" fill="#f5fcff" /><rect width="10" height="10" x="170" y="240" fill="#caeff9" /><rect width="10" height="10" x="150" y="250" fill="#f5fcff" /><rect width="10" height="10" x="160" y="250" fill="#caeff9" /><rect width="10" height="10" x="170" y="250" fill="#9cb4b8" /><rect width="10" height="10" x="180" y="250" fill="#76858b" /><rect width="10" height="10" x="140" y="260" fill="#f5fcff" /><rect width="10" height="10" x="150" y="260" fill="#caeff9" /><rect width="10" height="10" x="160" y="260" fill="#adc8cc" /><rect width="20" height="10" x="170" y="260" fill="#76858b" /><rect width="10" height="10" x="140" y="270" fill="#adc8cc" /><rect width="30" height="10" x="150" y="270" fill="#76858b" /><rect width="30" height="10" x="150" y="10" fill="#f3322c" /><rect width="30" height="10" x="130" y="20" fill="#d9391f" /><rect width="10" height="10" x="160" y="20" fill="#f3322c" /><rect width="30" height="10" x="170" y="20" fill="#d9391f" /><rect width="110" height="10" x="110" y="30" fill="#d9391f" /><rect width="130" height="10" x="100" y="40" fill="#d9391f" /><rect width="20" height="10" x="90" y="50" fill="#d9391f" /><rect width="40" height="10" x="110" y="50" fill="#ffffff" /><rect width="30" height="10" x="150" y="50" fill="#d9391f" /><rect width="40" height="10" x="180" y="50" fill="#ffffff" /><rect width="20" height="10" x="220" y="50" fill="#d9391f" /><rect width="20" height="10" x="90" y="60" fill="#d9391f" /><rect width="30" height="10" x="110" y="60" fill="#000000" /><rect width="10" height="10" x="140" y="60" fill="#ffffff" /><rect width="30" height="10" x="150" y="60" fill="#d9391f" /><rect width="10" height="10" x="180" y="60" fill="#ffffff" /><rect width="30" height="10" x="190" y="60" fill="#000000" /><rect width="20" height="10" x="220" y="60" fill="#d9391f" /><rect width="30" height="10" x="80" y="70" fill="#d9391f" /><rect width="40" height="10" x="110" y="70" fill="#ffffff" /><rect width="30" height="10" x="150" y="70" fill="#d9391f" /><rect width="40" height="10" x="180" y="70" fill="#ffffff" /><rect width="30" height="10" x="220" y="70" fill="#d9391f" /><rect width="170" height="10" x="80" y="80" fill="#d9391f" /><rect width="40" height="10" x="20" y="90" fill="#f3322c" /><rect width="10" height="10" x="80" y="90" fill="#e4a499" /><rect width="20" height="10" x="90" y="90" fill="#d9391f" /><rect width="110" height="10" x="110" y="90" fill="#ff0e0e" /><rect width="20" height="10" x="220" y="90" fill="#d9391f" /><rect width="10" height="10" x="240" y="90" fill="#e4a499" /><rect width="40" height="10" x="270" y="90" fill="#f3322c" /><rect width="50" height="10" x="30" y="100" fill="#f3322c" /><rect width="20" height="10" x="80" y="100" fill="#e4a499" /><rect width="10" height="10" x="100" y="100" fill="#ff0e0e" /><rect width="10" height="10" x="110" y="100" fill="#ffffff" /><rect width="90" height="10" x="120" y="100" fill="#343235" /><rect width="10" height="10" x="210" y="100" fill="#ffffff" /><rect width="10" height="10" x="220" y="100" fill="#ff0e0e" /><rect width="20" height="10" x="230" y="100" fill="#e4a499" /><rect width="50" height="10" x="250" y="100" fill="#f3322c" /><rect width="40" height="10" x="40" y="110" fill="#f3322c" /><rect width="10" height="10" x="80" y="110" fill="#e4a499" /><rect width="10" height="10" x="90" y="110" fill="#ff0e0e" /><rect width="10" height="10" x="100" y="110" fill="#ffffff" /><rect width="110" height="10" x="110" y="110" fill="#343235" /><rect width="10" height="10" x="220" y="110" fill="#ffffff" /><rect width="10" height="10" x="230" y="110" fill="#ff0e0e" /><rect width="10" height="10" x="240" y="110" fill="#e4a499" /><rect width="40" height="10" x="250" y="110" fill="#f3322c" /><rect width="20" height="10" x="60" y="120" fill="#f3322c" /><rect width="10" height="10" x="80" y="120" fill="#e4a499" /><rect width="10" height="10" x="90" y="120" fill="#ff0e0e" /><rect width="130" height="10" x="100" y="120" fill="#343235" /><rect width="10" height="10" x="230" y="120" fill="#ff0e0e" /><rect width="10" height="10" x="240" y="120" fill="#e4a499" /><rect width="20" height="10" x="250" y="120" fill="#f3322c" /><rect width="10" height="10" x="80" y="130" fill="#e4a499" /><rect width="10" height="10" x="90" y="130" fill="#ffffff" /><rect width="130" height="10" x="100" y="130" fill="#343235" /><rect width="10" height="10" x="230" y="130" fill="#ffffff" /><rect width="10" height="10" x="240" y="130" fill="#e4a499" /><rect width="10" height="10" x="80" y="140" fill="#e4a499" /><rect width="10" height="10" x="90" y="140" fill="#ffffff" /><rect width="130" height="10" x="100" y="140" fill="#343235" /><rect width="10" height="10" x="230" y="140" fill="#ffffff" /><rect width="10" height="10" x="240" y="140" fill="#e4a499" /><rect width="10" height="10" x="80" y="150" fill="#e4a499" /><rect width="10" height="10" x="90" y="150" fill="#ffffff" /><rect width="130" height="10" x="100" y="150" fill="#343235" /><rect width="10" height="10" x="230" y="150" fill="#ffffff" /><rect width="10" height="10" x="240" y="150" fill="#e4a499" /><rect width="10" height="10" x="80" y="160" fill="#ffffff" /><rect width="10" height="10" x="90" y="160" fill="#ff0e0e" /><rect width="130" height="10" x="100" y="160" fill="#343235" /><rect width="10" height="10" x="230" y="160" fill="#ff0e0e" /><rect width="10" height="10" x="240" y="160" fill="#ffffff" /><rect width="10" height="10" x="80" y="170" fill="#ffffff" /><rect width="10" height="10" x="90" y="170" fill="#ff0e0e" /><rect width="130" height="10" x="100" y="170" fill="#343235" /><rect width="10" height="10" x="230" y="170" fill="#ff0e0e" /><rect width="10" height="10" x="240" y="170" fill="#ffffff" /><rect width="10" height="10" x="80" y="180" fill="#ffffff" /><rect width="10" height="10" x="90" y="180" fill="#ff0e0e" /><rect width="10" height="10" x="100" y="180" fill="#ffffff" /><rect width="110" height="10" x="110" y="180" fill="#343235" /><rect width="10" height="10" x="220" y="180" fill="#ffffff" /><rect width="10" height="10" x="230" y="180" fill="#ff0e0e" /><rect width="10" height="10" x="240" y="180" fill="#ffffff" /><rect width="20" height="10" x="90" y="190" fill="#ff0e0e" /><rect width="10" height="10" x="110" y="190" fill="#ffffff" /><rect width="90" height="10" x="120" y="190" fill="#343235" /><rect width="10" height="10" x="210" y="190" fill="#ffffff" /><rect width="20" height="10" x="220" y="190" fill="#ff0e0e" /><rect width="10" height="10" x="90" y="200" fill="#ffffff" /><rect width="20" height="10" x="100" y="200" fill="#ff0e0e" /><rect width="90" height="10" x="120" y="200" fill="#ffffff" /><rect width="20" height="10" x="210" y="200" fill="#ff0e0e" /><rect width="10" height="10" x="230" y="200" fill="#ffffff" /><rect width="10" height="10" x="100" y="210" fill="#ffffff" /><rect width="110" height="10" x="110" y="210" fill="#ff0e0e" /><rect width="10" height="10" x="220" y="210" fill="#ffffff" /><rect width="60" height="10" x="100" y="110" fill="#fe500c" /><rect width="60" height="10" x="170" y="110" fill="#fe500c" /><rect width="10" height="10" x="100" y="120" fill="#fe500c" /><rect width="20" height="10" x="110" y="120" fill="#ffffff" /><rect width="20" height="10" x="130" y="120" fill="#000000" /><rect width="10" height="10" x="150" y="120" fill="#fe500c" /><rect width="10" height="10" x="170" y="120" fill="#fe500c" /><rect width="20" height="10" x="180" y="120" fill="#ffffff" /><rect width="20" height="10" x="200" y="120" fill="#000000" /><rect width="10" height="10" x="220" y="120" fill="#fe500c" /><rect width="40" height="10" x="70" y="130" fill="#fe500c" /><rect width="20" height="10" x="110" y="130" fill="#ffffff" /><rect width="20" height="10" x="130" y="130" fill="#000000" /><rect width="30" height="10" x="150" y="130" fill="#fe500c" /><rect width="20" height="10" x="180" y="130" fill="#ffffff" /><rect width="20" height="10" x="200" y="130" fill="#000000" /><rect width="10" height="10" x="220" y="130" fill="#fe500c" /><rect width="10" height="10" x="70" y="140" fill="#fe500c" /><rect width="10" height="10" x="100" y="140" fill="#fe500c" /><rect width="20" height="10" x="110" y="140" fill="#ffffff" /><rect width="20" height="10" x="130" y="140" fill="#000000" /><rect width="10" height="10" x="150" y="140" fill="#fe500c" /><rect width="10" height="10" x="170" y="140" fill="#fe500c" /><rect width="20" height="10" x="180" y="140" fill="#ffffff" /><rect width="20" height="10" x="200" y="140" fill="#000000" /><rect width="10" height="10" x="220" y="140" fill="#fe500c" /><rect width="10" height="10" x="70" y="150" fill="#fe500c" /><rect width="10" height="10" x="100" y="150" fill="#fe500c" /><rect width="20" height="10" x="110" y="150" fill="#ffffff" /><rect width="20" height="10" x="130" y="150" fill="#000000" /><rect width="10" height="10" x="150" y="150" fill="#fe500c" /><rect width="10" height="10" x="170" y="150" fill="#fe500c" /><rect width="20" height="10" x="180" y="150" fill="#ffffff" /><rect width="20" height="10" x="200" y="150" fill="#000000" /><rect width="10" height="10" x="220" y="150" fill="#fe500c" /><rect width="60" height="10" x="100" y="160" fill="#fe500c" /><rect width="60" height="10" x="170" y="160" fill="#fe500c" /></svg>