<svg viewBox="0 0 320 320" xmlns="http://www.w3.org/2000/svg" shape-rendering="crispEdges"><rect width="100%" height="100%" fill="#d5d7e1" /><rect width="140" height="10" x="90" y="210" fill="#d26451" /><rect width="140" height="10" x="90" y="220" fill="#d26451" /><rect width="140" height="10" x="90" y="230" fill="#d26451" /><rect width="140" height="10" x="90" y="240" fill="#d26451" /><rect width="20" height="10" x="90" y="250" fill="#d26451" /><rect width="110" height="10" x="120" y="250" fill="#d26451" /><rect width="20" height="10" x="90" y="260" fill="#d26451" /><rect width="110" height="10" x="120" y="260" fill="#d26451" /><rect width="20" height="10" x="90" y="270" fill="#d26451" /><rect width="110" height="10" x="120" y="270" fill="#d26451" /><rect width="20" height="10" x="90" y="280" fill="#d26451" /><rect width="110" height="10" x="120" y="280" fill="#d26451" /><rect width="20" height="10" x="90" y="290" fill="#d26451" /><rect width="110" height="10" x="120" y="290" fill="#d26451" /><rect width="20" height="10" x="90" y="300" fill="#d26451" /><rect width="110" height="10" x="120" y="300" fill="#d26451" /><rect width="20" height="10" x="90" y="310" fill="#d26451" /><rect width="110" height="10" x="120" y="310" fill="#d26451" /><rect width="10" height="10" x="110" y="230" fill="#fe500c" /><rect width="10" height="10" x="130" y="230" fill="#fe500c" /><rect width="10" height="10" x="120" y="240" fill="#fd8b5b" /><rect width="10" height="10" x="130" y="240" fill="#fe500c" /><rect width="10" height="10" x="140" y="240" fill="#000000" /><rect width="10" height="10" x="150" y="240" fill="#fd8b5b" /><rect width="10" height="10" x="170" y="240" fill="#fe500c" /><rect width="10" height="10" x="130" y="250" fill="#fd8b5b" /><rect width="10" height="10" x="140" y="250" fill="#fff0ee" /><rect width="10" height="10" x="150" y="250" fill="#f9e8dd" /><rect width="10" height="10" x="160" y="250" fill="#fe500c" /><rect width="10" height="10" x="170" y="250" fill="#f9e8dd" /><rect width="10" height="10" x="180" y="250" fill="#fe500c" /><rect width="10" height="10" x="190" y="250" fill="#f9e8dd" /><rect width="20" height="10" x="140" y="260" fill="#fff0ee" /><rect width="10" height="10" x="160" y="260" fill="#fd8b5b" /><rect width="10" height="10" x="170" y="260" fill="#fff0ee" /><rect width="10" height="10" x="180" y="260" fill="#fd8b5b" /><rect width="10" height="10" x="190" y="260" fill="#fff0ee" /><rect width="10" height="10" x="200" y="260" fill="#fe500c" /><rect width="20" height="10" x="130" y="270" fill="#fd8b5b" /><rect width="10" height="10" x="150" y="270" fill="#fff0ee" /><rect width="10" height="10" x="160" y="270" fill="#fd8b5b" /><rect width="10" height="10" x="170" y="270" fill="#fff0ee" /><rect width="10" height="10" x="200" y="270" fill="#fe500c" /><rect width="10" height="10" x="210" y="270" fill="#f9e8dd" /><rect width="10" height="10" x="120" y="280" fill="#fd8b5b" /><rect width="10" height="10" x="150" y="280" fill="#fd8b5b" /><rect width="10" height="10" x="210" y="280" fill="#fff0ee" /><rect width="10" height="10" x="120" y="290" fill="#fd8b5b" /><rect width="10" height="10" x="140" y="290" fill="#fd8b5b" /><rect width="20" height="10" x="180" y="290" fill="#fe500c" /><rect width="10" height="10" x="200" y="290" fill="#fff0ee" /><rect width="10" height="10" x="210" y="290" fill="#fe500c" /><rect width="10" height="10" x="140" y="300" fill="#fd8b5b" /><rect width="10" height="10" x="200" y="300" fill="#fe500c" /><rect width="50" height="10" x="110" y="40" fill="#c4da53" /><rect width="10" height="10" x="160" y="40" fill="#535a15" /><rect width="40" height="10" x="170" y="40" fill="#c4da53" /><rect width="60" height="10" x="90" y="50" fill="#c4da53" /><rect width="10" height="10" x="150" y="50" fill="#909b0e" /><rect width="10" height="10" x="160" y="50" fill="#535a15" /><rect width="10" height="10" x="170" y="50" fill="#909b0e" /><rect width="50" height="10" x="180" y="50" fill="#c4da53" /><rect width="20" height="10" x="80" y="60" fill="#c4da53" /><rect width="10" height="10" x="100" y="60" fill="#abf131" /><rect width="130" height="10" x="110" y="60" fill="#c4da53" /><rect width="10" height="10" x="80" y="70" fill="#c4da53" /><rect width="10" height="10" x="90" y="70" fill="#abf131" /><rect width="140" height="10" x="100" y="70" fill="#c4da53" /><rect width="180" height="10" x="70" y="80" fill="#c4da53" /><rect width="10" height="10" x="70" y="90" fill="#c4da53" /><rect width="10" height="10" x="80" y="90" fill="#abf131" /><rect width="160" height="10" x="90" y="90" fill="#c4da53" /><rect width="20" height="10" x="60" y="100" fill="#c4da53" /><rect width="10" height="10" x="80" y="100" fill="#abf131" /><rect width="170" height="10" x="90" y="100" fill="#c4da53" /><rect width="20" height="10" x="60" y="110" fill="#c4da53" /><rect width="10" height="10" x="80" y="110" fill="#abf131" /><rect width="170" height="10" x="90" y="110" fill="#c4da53" /><rect width="200" height="10" x="60" y="120" fill="#c4da53" /><rect width="200" height="10" x="60" y="130" fill="#c4da53" /><rect width="200" height="10" x="60" y="140" fill="#c4da53" /><rect width="200" height="10" x="60" y="150" fill="#c4da53" /><rect width="180" height="10" x="70" y="160" fill="#c4da53" /><rect width="180" height="10" x="70" y="170" fill="#c4da53" /><rect width="60" height="10" x="80" y="180" fill="#c4da53" /><rect width="20" height="10" x="140" y="180" fill="#b19e00" /><rect width="80" height="10" x="160" y="180" fill="#c4da53" /><rect width="160" height="10" x="80" y="190" fill="#c4da53" /><rect width="140" height="10" x="90" y="200" fill="#c4da53" /><rect width="60" height="10" x="100" y="110" fill="#5648ed" /><rect width="60" height="10" x="170" y="110" fill="#5648ed" /><rect width="10" height="10" x="100" y="120" fill="#5648ed" /><rect width="20" height="10" x="110" y="120" fill="#ffffff" /><rect width="20" height="10" x="130" y="120" fill="#000000" /><rect width="10" height="10" x="150" y="120" fill="#5648ed" /><rect width="10" height="10" x="170" y="120" fill="#5648ed" /><rect width="20" height="10" x="180" y="120" fill="#ffffff" /><rect width="20" height="10" x="200" y="120" fill="#000000" /><rect width="10" height="10" x="220" y="120" fill="#5648ed" /><rect width="40" height="10" x="70" y="130" fill="#5648ed" /><rect width="20" height="10" x="110" y="130" fill="#ffffff" /><rect width="20" height="10" x="130" y="130" fill="#000000" /><rect width="30" height="10" x="150" y="130" fill="#5648ed" /><rect width="20" height="10" x="180" y="130" fill="#ffffff" /><rect width="20" height="10" x="200" y="130" fill="#000000" /><rect width="10" height="10" x="220" y="130" fill="#5648ed" /><rect width="10" height="10" x="70" y="140" fill="#5648ed" /><rect width="10" height="10" x="100" y="140" fill="#5648ed" /><rect width="20" height="10" x="110" y="140" fill="#ffffff" /><rect width="20" height="10" x="130" y="140" fill="#000000" /><rect width="10" height="10" x="150" y="140" fill="#5648ed" /><rect width="10" height="10" x="170" y="140" fill="#5648ed" /><rect width="20" height="10" x="180" y="140" fill="#ffffff" /><rect width="20" height="10" x="200" y="140" fill="#000000" /><rect width="10" height="10" x="220" y="140" fill="#5648ed" /><rect width="10" height="10" x="70" y="150" fill="#5648ed" /><rect width="10" height="10" x="100" y="150" fill="#5648ed" /><rect width="20" height="10" x="110" y="150" fill="#ffffff" /><rect width="20" height="10" x="130" y="150" fill="#000000" /><rect width="10" height="10" x="150" y="150" fill="#5648ed" /><rect width="10" height="10" x="170" y="150" fill="#5648ed" /><rect width="20" height="10" x="180" y="150" fill="#ffffff" /><rect width="20" height="10" x="200" y="150" fill="#000000" /><rect width="10" height="10" x="220" y="150" fill="#5648ed" /><rect width="60" height="10" x="100" y="160" fill="#5648ed" /><rect width="60" height="10" x="170" y="160" fill="#5648ed" /></svg>