<svg viewBox="0 0 320 320" xmlns="http://www.w3.org/2000/svg" shape-rendering="crispEdges"><rect width="100%" height="100%" fill="#d5d7e1" /><rect width="140" height="10" x="90" y="210" fill="#343235" /><rect width="140" height="10" x="90" y="220" fill="#343235" /><rect width="140" height="10" x="90" y="230" fill="#343235" /><rect width="140" height="10" x="90" y="240" fill="#343235" /><rect width="20" height="10" x="90" y="250" fill="#343235" /><rect width="110" height="10" x="120" y="250" fill="#343235" /><rect width="20" height="10" x="90" y="260" fill="#343235" /><rect width="110" height="10" x="120" y="260" fill="#343235" /><rect width="20" height="10" x="90" y="270" fill="#343235" /><rect width="110" height="10" x="120" y="270" fill="#343235" /><rect width="20" height="10" x="90" y="280" fill="#343235" /><rect width="110" height="10" x="120" y="280" fill="#343235" /><rect width="20" height="10" x="90" y="290" fill="#343235" /><rect width="110" height="10" x="120" y="290" fill="#343235" /><rect width="20" height="10" x="90" y="300" fill="#343235" /><rect width="110" height="10" x="120" y="300" fill="#343235" /><rect width="20" height="10" x="90" y="310" fill="#343235" /><rect width="110" height="10" x="120" y="310" fill="#343235" /><rect width="10" height="10" x="90" y="250" fill="#0079fc" /><rect width="10" height="10" x="100" y="250" fill="#caa26a" /><rect width="10" height="10" x="110" y="250" fill="#d8dadf" /><rect width="30" height="10" x="120" y="250" fill="#caa26a" /><rect width="80" height="10" x="150" y="250" fill="#0079fc" /><rect width="20" height="10" x="90" y="260" fill="#a38654" /><rect width="10" height="10" x="110" y="260" fill="#d8dadf" /><rect width="30" height="10" x="120" y="260" fill="#a38654" /><rect width="20" height="10" x="150" y="260" fill="#caa26a" /><rect width="60" height="10" x="170" y="260" fill="#0079fc" /><rect width="20" height="10" x="90" y="270" fill="#caa26a" /><rect width="10" height="10" x="110" y="270" fill="#d8dadf" /><rect width="30" height="10" x="120" y="270" fill="#caa26a" /><rect width="20" height="10" x="150" y="270" fill="#a38654" /><rect width="30" height="10" x="170" y="270" fill="#caa26a" /><rect width="30" height="10" x="200" y="270" fill="#0079fc" /><rect width="20" height="10" x="90" y="280" fill="#a38654" /><rect width="10" height="10" x="110" y="280" fill="#d8dadf" /><rect width="30" height="10" x="120" y="280" fill="#a38654" /><rect width="20" height="10" x="150" y="280" fill="#caa26a" /><rect width="30" height="10" x="170" y="280" fill="#a38654" /><rect width="30" height="10" x="200" y="280" fill="#caa26a" /><rect width="20" height="10" x="90" y="290" fill="#caa26a" /><rect width="10" height="10" x="110" y="290" fill="#d8dadf" /><rect width="30" height="10" x="120" y="290" fill="#caa26a" /><rect width="20" height="10" x="150" y="290" fill="#a38654" /><rect width="30" height="10" x="170" y="290" fill="#caa26a" /><rect width="30" height="10" x="200" y="290" fill="#a38654" /><rect width="20" height="10" x="90" y="300" fill="#a38654" /><rect width="10" height="10" x="110" y="300" fill="#d8dadf" /><rect width="30" height="10" x="120" y="300" fill="#a38654" /><rect width="20" height="10" x="150" y="300" fill="#caa26a" /><rect width="30" height="10" x="170" y="300" fill="#a38654" /><rect width="30" height="10" x="200" y="300" fill="#caa26a" /><rect width="20" height="10" x="90" y="310" fill="#caa26a" /><rect width="10" height="10" x="110" y="310" fill="#d8dadf" /><rect width="30" height="10" x="120" y="310" fill="#caa26a" /><rect width="20" height="10" x="150" y="310" fill="#a38654" /><rect width="30" height="10" x="170" y="310" fill="#caa26a" /><rect width="30" height="10" x="200" y="310" fill="#a38654" /><rect width="50" height="10" x="110" y="40" fill="#c4da53" /><rect width="10" height="10" x="160" y="40" fill="#535a15" /><rect width="40" height="10" x="170" y="40" fill="#c4da53" /><rect width="60" height="10" x="90" y="50" fill="#c4da53" /><rect width="10" height="10" x="150" y="50" fill="#909b0e" /><rect width="10" height="10" x="160" y="50" fill="#535a15" /><rect width="10" height="10" x="170" y="50" fill="#909b0e" /><rect width="50" height="10" x="180" y="50" fill="#c4da53" /><rect width="20" height="10" x="80" y="60" fill="#c4da53" /><rect width="10" height="10" x="100" y="60" fill="#abf131" /><rect width="130" height="10" x="110" y="60" fill="#c4da53" /><rect width="10" height="10" x="80" y="70" fill="#c4da53" /><rect width="10" height="10" x="90" y="70" fill="#abf131" /><rect width="140" height="10" x="100" y="70" fill="#c4da53" /><rect width="180" height="10" x="70" y="80" fill="#c4da53" /><rect width="10" height="10" x="70" y="90" fill="#c4da53" /><rect width="10" height="10" x="80" y="90" fill="#abf131" /><rect width="160" height="10" x="90" y="90" fill="#c4da53" /><rect width="20" height="10" x="60" y="100" fill="#c4da53" /><rect width="10" height="10" x="80" y="100" fill="#abf131" /><rect width="170" height="10" x="90" y="100" fill="#c4da53" /><rect width="20" height="10" x="60" y="110" fill="#c4da53" /><rect width="10" height="10" x="80" y="110" fill="#abf131" /><rect width="170" height="10" x="90" y="110" fill="#c4da53" /><rect width="200" height="10" x="60" y="120" fill="#c4da53" /><rect width="200" height="10" x="60" y="130" fill="#c4da53" /><rect width="200" height="10" x="60" y="140" fill="#c4da53" /><rect width="200" height="10" x="60" y="150" fill="#c4da53" /><rect width="180" height="10" x="70" y="160" fill="#c4da53" /><rect width="180" height="10" x="70" y="170" fill="#c4da53" /><rect width="60" height="10" x="80" y="180" fill="#c4da53" /><rect width="20" height="10" x="140" y="180" fill="#b19e00" /><rect width="80" height="10" x="160" y="180" fill="#c4da53" /><rect width="160" height="10" x="80" y="190" fill="#c4da53" /><rect width="140" height="10" x="90" y="200" fill="#c4da53" /><rect width="60" height="10" x="100" y="110" fill="#000000" /><rect width="60" height="10" x="170" y="110" fill="#000000" /><rect width="30" height="10" x="100" y="120" fill="#000000" /><rect width="10" height="10" x="130" y="120" fill="#ff0e0e" /><rect width="20" height="10" x="140" y="120" fill="#000000" /><rect width="30" height="10" x="170" y="120" fill="#000000" /><rect width="10" height="10" x="200" y="120" fill="#ff0e0e" /><rect width="20" height="10" x="210" y="120" fill="#000000" /><rect width="160" height="10" x="70" y="130" fill="#000000" /><rect width="10" height="10" x="70" y="140" fill="#000000" /><rect width="10" height="10" x="100" y="140" fill="#000000" /><rect width="10" height="10" x="110" y="140" fill="#0adc4d" /><rect width="20" height="10" x="120" y="140" fill="#000000" /><rect width="10" height="10" x="140" y="140" fill="#1929f4" /><rect width="10" height="10" x="150" y="140" fill="#000000" /><rect width="10" height="10" x="170" y="140" fill="#000000" /><rect width="10" height="10" x="180" y="140" fill="#0adc4d" /><rect width="20" height="10" x="190" y="140" fill="#000000" /><rect width="10" height="10" x="210" y="140" fill="#1929f4" /><rect width="10" height="10" x="220" y="140" fill="#000000" /><rect width="10" height="10" x="70" y="150" fill="#000000" /><rect width="60" height="10" x="100" y="150" fill="#000000" /><rect width="60" height="10" x="170" y="150" fill="#000000" /><rect width="60" height="10" x="100" y="160" fill="#000000" /><rect width="60" height="10" x="170" y="160" fill="#000000" /></svg>