<svg viewBox="0 0 320 320" xmlns="http://www.w3.org/2000/svg" shape-rendering="crispEdges"><rect width="100%" height="100%" fill="#e1d7d5" /><rect width="140" height="10" x="90" y="210" fill="#5648ed" /><rect width="140" height="10" x="90" y="220" fill="#5648ed" /><rect width="140" height="10" x="90" y="230" fill="#5648ed" /><rect width="140" height="10" x="90" y="240" fill="#5648ed" /><rect width="20" height="10" x="90" y="250" fill="#5648ed" /><rect width="110" height="10" x="120" y="250" fill="#5648ed" /><rect width="20" height="10" x="90" y="260" fill="#5648ed" /><rect width="110" height="10" x="120" y="260" fill="#5648ed" /><rect width="20" height="10" x="90" y="270" fill="#5648ed" /><rect width="110" height="10" x="120" y="270" fill="#5648ed" /><rect width="20" height="10" x="90" y="280" fill="#5648ed" /><rect width="110" height="10" x="120" y="280" fill="#5648ed" /><rect width="20" height="10" x="90" y="290" fill="#5648ed" /><rect width="110" height="10" x="120" y="290" fill="#5648ed" /><rect width="20" height="10" x="90" y="300" fill="#5648ed" /><rect width="110" height="10" x="120" y="300" fill="#5648ed" /><rect width="20" height="10" x="90" y="310" fill="#5648ed" /><rect width="110" height="10" x="120" y="310" fill="#5648ed" /><rect width="10" height="10" x="130" y="250" fill="#f98f30" /><rect width="10" height="10" x="150" y="250" fill="#f98f30" /><rect width="10" height="10" x="170" y="250" fill="#f98f30" /><rect width="10" height="10" x="190" y="250" fill="#f98f30" /><rect width="10" height="10" x="210" y="250" fill="#f98f30" /><rect width="10" height="10" x="140" y="260" fill="#f98f30" /><rect width="10" height="10" x="160" y="260" fill="#5a423f" /><rect width="10" height="10" x="170" y="260" fill="#f98f30" /><rect width="10" height="10" x="180" y="260" fill="#5a423f" /><rect width="10" height="10" x="200" y="260" fill="#f98f30" /><rect width="50" height="10" x="150" y="270" fill="#f98f30" /><rect width="10" height="10" x="140" y="280" fill="#f98f30" /><rect width="30" height="10" x="160" y="280" fill="#f98f30" /><rect width="10" height="10" x="200" y="280" fill="#f98f30" /><rect width="10" height="10" x="160" y="10" fill="#fffdf2" /><rect width="20" height="10" x="150" y="20" fill="#ec5b43" /><rect width="10" height="10" x="170" y="20" fill="#e8705b" /><rect width="20" height="10" x="130" y="30" fill="#ec5b43" /><rect width="10" height="10" x="150" y="30" fill="#e8705b" /><rect width="10" height="10" x="160" y="30" fill="#f9f6d1" /><rect width="10" height="10" x="170" y="30" fill="#e8705b" /><rect width="10" height="10" x="180" y="30" fill="#ec5b43" /><rect width="10" height="10" x="190" y="30" fill="#e8705b" /><rect width="20" height="10" x="130" y="40" fill="#e8705b" /><rect width="30" height="10" x="150" y="40" fill="#ffffff" /><rect width="20" height="10" x="180" y="40" fill="#e8705b" /><rect width="10" height="10" x="140" y="50" fill="#f9f6d1" /><rect width="10" height="10" x="150" y="50" fill="#ffffff" /><rect width="10" height="10" x="160" y="50" fill="#5a6b7b" /><rect width="10" height="10" x="170" y="50" fill="#ffffff" /><rect width="10" height="10" x="180" y="50" fill="#f9f6d1" /><rect width="10" height="10" x="140" y="60" fill="#f9f5cb" /><rect width="10" height="10" x="150" y="60" fill="#5a6b7b" /><rect width="20" height="10" x="160" y="60" fill="#ffffff" /><rect width="10" height="10" x="180" y="60" fill="#f9f5cb" /><rect width="20" height="10" x="140" y="70" fill="#f9f6d1" /><rect width="10" height="10" x="160" y="70" fill="#e8705b" /><rect width="20" height="10" x="170" y="70" fill="#f9f6d1" /><rect width="10" height="10" x="140" y="80" fill="#ec5b43" /><rect width="10" height="10" x="150" y="80" fill="#e8705b" /><rect width="10" height="10" x="160" y="80" fill="#fffdf2" /><rect width="10" height="10" x="170" y="80" fill="#ec5b43" /><rect width="10" height="10" x="180" y="80" fill="#e8705b" /><rect width="10" height="10" x="60" y="90" fill="#e8705b" /><rect width="20" height="10" x="70" y="90" fill="#ec5b43" /><rect width="20" height="10" x="90" y="90" fill="#e8705b" /><rect width="30" height="10" x="110" y="90" fill="#ec5b43" /><rect width="20" height="10" x="140" y="90" fill="#fffdf2" /><rect width="10" height="10" x="160" y="90" fill="#f9f5cb" /><rect width="20" height="10" x="170" y="90" fill="#fffdf2" /><rect width="20" height="10" x="190" y="90" fill="#e8705b" /><rect width="10" height="10" x="210" y="90" fill="#ec5b43" /><rect width="30" height="10" x="220" y="90" fill="#e8705b" /><rect width="20" height="10" x="250" y="90" fill="#ec5b43" /><rect width="20" height="10" x="60" y="100" fill="#ec5b43" /><rect width="10" height="10" x="80" y="100" fill="#e8705b" /><rect width="20" height="10" x="90" y="100" fill="#ec5b43" /><rect width="20" height="10" x="110" y="100" fill="#e8705b" /><rect width="10" height="10" x="130" y="100" fill="#fffdf2" /><rect width="10" height="10" x="140" y="100" fill="#f9f6d1" /><rect width="30" height="10" x="150" y="100" fill="#ae6c0a" /><rect width="10" height="10" x="180" y="100" fill="#f9f6d1" /><rect width="10" height="10" x="190" y="100" fill="#fffdf2" /><rect width="10" height="10" x="200" y="100" fill="#ec5b43" /><rect width="20" height="10" x="210" y="100" fill="#e8705b" /><rect width="20" height="10" x="230" y="100" fill="#ec5b43" /><rect width="20" height="10" x="250" y="100" fill="#e8705b" /><rect width="20" height="10" x="60" y="110" fill="#e8705b" /><rect width="20" height="10" x="80" y="110" fill="#ec5b43" /><rect width="10" height="10" x="100" y="110" fill="#e8705b" /><rect width="10" height="10" x="110" y="110" fill="#fffdf2" /><rect width="90" height="10" x="120" y="110" fill="#f9f5cb" /><rect width="10" height="10" x="210" y="110" fill="#fffdf2" /><rect width="10" height="10" x="220" y="110" fill="#e8705b" /><rect width="10" height="10" x="230" y="110" fill="#ec5b43" /><rect width="10" height="10" x="240" y="110" fill="#e8705b" /><rect width="20" height="10" x="250" y="110" fill="#ec5b43" /><rect width="10" height="10" x="60" y="120" fill="#e8705b" /><rect width="10" height="10" x="70" y="120" fill="#ec5b43" /><rect width="20" height="10" x="80" y="120" fill="#e8705b" /><rect width="10" height="10" x="100" y="120" fill="#fffdf2" /><rect width="110" height="10" x="110" y="120" fill="#f9f6d1" /><rect width="10" height="10" x="220" y="120" fill="#fffdf2" /><rect width="10" height="10" x="230" y="120" fill="#e8705b" /><rect width="20" height="10" x="240" y="120" fill="#ec5b43" /><rect width="10" height="10" x="260" y="120" fill="#e8705b" /><rect width="40" height="10" x="60" y="130" fill="#fffdf2" /><rect width="130" height="10" x="100" y="130" fill="#f9f5cb" /><rect width="40" height="10" x="230" y="130" fill="#fffdf2" /><rect width="10" height="10" x="70" y="140" fill="#f9f6d1" /><rect width="10" height="10" x="80" y="140" fill="#adc8cc" /><rect width="30" height="10" x="90" y="140" fill="#f9f6d1" /><rect width="10" height="10" x="120" y="140" fill="#adc8cc" /><rect width="30" height="10" x="130" y="140" fill="#f9f6d1" /><rect width="10" height="10" x="160" y="140" fill="#adc8cc" /><rect width="30" height="10" x="170" y="140" fill="#f9f6d1" /><rect width="10" height="10" x="200" y="140" fill="#adc8cc" /><rect width="30" height="10" x="210" y="140" fill="#f9f6d1" /><rect width="10" height="10" x="240" y="140" fill="#adc8cc" /><rect width="10" height="10" x="250" y="140" fill="#f9f6d1" /><rect width="10" height="10" x="70" y="150" fill="#f9f5cb" /><rect width="10" height="10" x="80" y="150" fill="#adc8cc" /><rect width="30" height="10" x="90" y="150" fill="#f9f5cb" /><rect width="10" height="10" x="120" y="150" fill="#adc8cc" /><rect width="30" height="10" x="130" y="150" fill="#f9f5cb" /><rect width="10" height="10" x="160" y="150" fill="#fffdf2" /><rect width="30" height="10" x="170" y="150" fill="#f9f5cb" /><rect width="10" height="10" x="200" y="150" fill="#adc8cc" /><rect width="30" height="10" x="210" y="150" fill="#f9f5cb" /><rect width="10" height="10" x="240" y="150" fill="#adc8cc" /><rect width="10" height="10" x="250" y="150" fill="#f9f5cb" /><rect width="80" height="10" x="70" y="160" fill="#fffdf2" /><rect width="10" height="10" x="150" y="160" fill="#e8705b" /><rect width="10" height="10" x="160" y="160" fill="#ec5b43" /><rect width="10" height="10" x="170" y="160" fill="#e8705b" /><rect width="80" height="10" x="180" y="160" fill="#fffdf2" /><rect width="30" height="10" x="70" y="170" fill="#f9f5cb" /><rect width="10" height="10" x="100" y="170" fill="#fffdf2" /><rect width="30" height="10" x="110" y="170" fill="#f9f5cb" /><rect width="20" height="10" x="140" y="170" fill="#ec5b43" /><rect width="30" height="10" x="160" y="170" fill="#e8705b" /><rect width="30" height="10" x="190" y="170" fill="#f9f5cb" /><rect width="10" height="10" x="220" y="170" fill="#fffdf2" /><rect width="30" height="10" x="230" y="170" fill="#f9f5cb" /><rect width="10" height="10" x="70" y="180" fill="#f9f6d1" /><rect width="10" height="10" x="80" y="180" fill="#adc8cc" /><rect width="10" height="10" x="90" y="180" fill="#f9f6d1" /><rect width="10" height="10" x="100" y="180" fill="#fffdf2" /><rect width="10" height="10" x="110" y="180" fill="#f9f6d1" /><rect width="10" height="10" x="120" y="180" fill="#adc8cc" /><rect width="20" height="10" x="130" y="180" fill="#f9f6d1" /><rect width="30" height="10" x="150" y="180" fill="#fffdf2" /><rect width="20" height="10" x="180" y="180" fill="#f9f6d1" /><rect width="10" height="10" x="200" y="180" fill="#adc8cc" /><rect width="10" height="10" x="210" y="180" fill="#f9f6d1" /><rect width="10" height="10" x="220" y="180" fill="#fffdf2" /><rect width="10" height="10" x="230" y="180" fill="#f9f6d1" /><rect width="10" height="10" x="240" y="180" fill="#adc8cc" /><rect width="10" height="10" x="250" y="180" fill="#f9f6d1" /><rect width="10" height="10" x="70" y="190" fill="#f9f5cb" /><rect width="10" height="10" x="80" y="190" fill="#adc8cc" /><rect width="10" height="10" x="90" y="190" fill="#f9f5cb" /><rect width="10" height="10" x="100" y="190" fill="#fffdf2" /><rect width="10" height="10" x="110" y="190" fill="#f9f5cb" /><rect width="10" height="10" x="120" y="190" fill="#adc8cc" /><rect width="20" height="10" x="130" y="190" fill="#f9f5cb" /><rect width="30" height="10" x="150" y="190" fill="#5a6b7b" /><rect width="20" height="10" x="180" y="190" fill="#f9f5cb" /><rect width="10" height="10" x="200" y="190" fill="#adc8cc" /><rect width="10" height="10" x="210" y="190" fill="#f9f5cb" /><rect width="10" height="10" x="220" y="190" fill="#fffdf2" /><rect width="10" height="10" x="230" y="190" fill="#f9f5cb" /><rect width="10" height="10" x="240" y="190" fill="#adc8cc" /><rect width="10" height="10" x="250" y="190" fill="#f9f5cb" /><rect width="30" height="10" x="70" y="200" fill="#f9f6d1" /><rect width="10" height="10" x="100" y="200" fill="#fffdf2" /><rect width="40" height="10" x="110" y="200" fill="#f9f6d1" /><rect width="30" height="10" x="150" y="200" fill="#fffdf2" /><rect width="40" height="10" x="180" y="200" fill="#f9f6d1" /><rect width="10" height="10" x="220" y="200" fill="#fffdf2" /><rect width="30" height="10" x="230" y="200" fill="#f9f6d1" /><rect width="60" height="10" x="100" y="110" fill="#e8705b" /><rect width="60" height="10" x="170" y="110" fill="#e8705b" /><rect width="10" height="10" x="100" y="120" fill="#e8705b" /><rect width="20" height="10" x="110" y="120" fill="#ffffff" /><rect width="20" height="10" x="130" y="120" fill="#000000" /><rect width="10" height="10" x="150" y="120" fill="#e8705b" /><rect width="10" height="10" x="170" y="120" fill="#e8705b" /><rect width="20" height="10" x="180" y="120" fill="#ffffff" /><rect width="20" height="10" x="200" y="120" fill="#000000" /><rect width="10" height="10" x="220" y="120" fill="#e8705b" /><rect width="40" height="10" x="70" y="130" fill="#e8705b" /><rect width="20" height="10" x="110" y="130" fill="#ffffff" /><rect width="20" height="10" x="130" y="130" fill="#000000" /><rect width="30" height="10" x="150" y="130" fill="#e8705b" /><rect width="20" height="10" x="180" y="130" fill="#ffffff" /><rect width="20" height="10" x="200" y="130" fill="#000000" /><rect width="10" height="10" x="220" y="130" fill="#e8705b" /><rect width="10" height="10" x="70" y="140" fill="#e8705b" /><rect width="10" height="10" x="100" y="140" fill="#e8705b" /><rect width="20" height="10" x="110" y="140" fill="#ffffff" /><rect width="20" height="10" x="130" y="140" fill="#000000" /><rect width="10" height="10" x="150" y="140" fill="#e8705b" /><rect width="10" height="10" x="170" y="140" fill="#e8705b" /><rect width="20" height="10" x="180" y="140" fill="#ffffff" /><rect width="20" height="10" x="200" y="140" fill="#000000" /><rect width="10" height="10" x="220" y="140" fill="#e8705b" /><rect width="10" height="10" x="70" y="150" fill="#e8705b" /><rect width="10" height="10" x="100" y="150" fill="#e8705b" /><rect width="20" height="10" x="110" y="150" fill="#ffffff" /><rect width="20" height="10" x="130" y="150" fill="#000000" /><rect width="10" height="10" x="150" y="150" fill="#e8705b" /><rect width="10" height="10" x="170" y="150" fill="#e8705b" /><rect width="20" height="10" x="180" y="150" fill="#ffffff" /><rect width="20" height="10" x="200" y="150" fill="#000000" /><rect width="10" height="10" x="220" y="150" fill="#e8705b" /><rect width="60" height="10" x="100" y="160" fill="#e8705b" /><rect width="60" height="10" x="170" y="160" fill="#e8705b" /></svg>