<svg viewBox="0 0 320 320" xmlns="http://www.w3.org/2000/svg" shape-rendering="crispEdges"><rect width="100%" height="100%" fill="#d5d7e1" /><rect width="140" height="10" x="90" y="210" fill="#5648ed" /><rect width="140" height="10" x="90" y="220" fill="#5648ed" /><rect width="140" height="10" x="90" y="230" fill="#5648ed" /><rect width="140" height="10" x="90" y="240" fill="#5648ed" /><rect width="20" height="10" x="90" y="250" fill="#5648ed" /><rect width="110" height="10" x="120" y="250" fill="#5648ed" /><rect width="20" height="10" x="90" y="260" fill="#5648ed" /><rect width="110" height="10" x="120" y="260" fill="#5648ed" /><rect width="20" height="10" x="90" y="270" fill="#5648ed" /><rect width="110" height="10" x="120" y="270" fill="#5648ed" /><rect width="20" height="10" x="90" y="280" fill="#5648ed" /><rect width="110" height="10" x="120" y="280" fill="#5648ed" /><rect width="20" height="10" x="90" y="290" fill="#5648ed" /><rect width="110" height="10" x="120" y="290" fill="#5648ed" /><rect width="20" height="10" x="90" y="300" fill="#5648ed" /><rect width="110" height="10" x="120" y="300" fill="#5648ed" /><rect width="20" height="10" x="90" y="310" fill="#5648ed" /><rect width="110" height="10" x="120" y="310" fill="#5648ed" /><rect width="10" height="10" x="170" y="240" fill="#feb9d5" /><rect width="30" height="10" x="160" y="250" fill="#feb9d5" /><rect width="50" height="10" x="150" y="260" fill="#feb9d5" /><rect width="10" height="10" x="140" y="270" fill="#34ac80" /><rect width="20" height="10" x="150" y="270" fill="#feb9d5" /><rect width="10" height="10" x="170" y="270" fill="#d596a6" /><rect width="20" height="10" x="180" y="270" fill="#feb9d5" /><rect width="10" height="10" x="200" y="270" fill="#34ac80" /><rect width="10" height="10" x="150" y="280" fill="#34ac80" /><rect width="10" height="10" x="160" y="280" fill="#feb9d5" /><rect width="10" height="10" x="170" y="280" fill="#d596a6" /><rect width="10" height="10" x="180" y="280" fill="#feb9d5" /><rect width="10" height="10" x="190" y="280" fill="#34ac80" /><rect width="10" height="10" x="160" y="40" fill="#feb9d5" /><rect width="70" height="10" x="130" y="50" fill="#feb9d5" /><rect width="130" height="10" x="100" y="60" fill="#feb9d5" /><rect width="150" height="10" x="90" y="70" fill="#feb9d5" /><rect width="20" height="10" x="80" y="80" fill="#feb9d5" /><rect width="10" height="10" x="100" y="80" fill="#fff0be" /><rect width="140" height="10" x="110" y="80" fill="#feb9d5" /><rect width="10" height="10" x="80" y="90" fill="#feb9d5" /><rect width="10" height="10" x="90" y="90" fill="#fff0be" /><rect width="60" height="10" x="100" y="90" fill="#feb9d5" /><rect width="10" height="10" x="160" y="90" fill="#d596a6" /><rect width="80" height="10" x="170" y="90" fill="#feb9d5" /><rect width="10" height="10" x="70" y="100" fill="#feb9d5" /><rect width="10" height="10" x="80" y="100" fill="#fff0be" /><rect width="70" height="10" x="90" y="100" fill="#feb9d5" /><rect width="10" height="10" x="160" y="100" fill="#d596a6" /><rect width="90" height="10" x="170" y="100" fill="#feb9d5" /><rect width="10" height="10" x="70" y="110" fill="#feb9d5" /><rect width="10" height="10" x="80" y="110" fill="#fff0be" /><rect width="70" height="10" x="90" y="110" fill="#feb9d5" /><rect width="10" height="10" x="160" y="110" fill="#d596a6" /><rect width="90" height="10" x="170" y="110" fill="#feb9d5" /><rect width="10" height="10" x="70" y="120" fill="#feb9d5" /><rect width="10" height="10" x="80" y="120" fill="#fff0be" /><rect width="70" height="10" x="90" y="120" fill="#feb9d5" /><rect width="10" height="10" x="160" y="120" fill="#d596a6" /><rect width="90" height="10" x="170" y="120" fill="#feb9d5" /><rect width="90" height="10" x="70" y="130" fill="#feb9d5" /><rect width="10" height="10" x="160" y="130" fill="#d596a6" /><rect width="90" height="10" x="170" y="130" fill="#feb9d5" /><rect width="90" height="10" x="70" y="140" fill="#feb9d5" /><rect width="10" height="10" x="160" y="140" fill="#d596a6" /><rect width="90" height="10" x="170" y="140" fill="#feb9d5" /><rect width="90" height="10" x="70" y="150" fill="#feb9d5" /><rect width="10" height="10" x="160" y="150" fill="#d596a6" /><rect width="90" height="10" x="170" y="150" fill="#feb9d5" /><rect width="20" height="10" x="50" y="160" fill="#c4da53" /><rect width="90" height="10" x="70" y="160" fill="#feb9d5" /><rect width="10" height="10" x="160" y="160" fill="#d596a6" /><rect width="90" height="10" x="170" y="160" fill="#feb9d5" /><rect width="20" height="10" x="260" y="160" fill="#c4da53" /><rect width="40" height="10" x="30" y="170" fill="#c4da53" /><rect width="90" height="10" x="70" y="170" fill="#feb9d5" /><rect width="10" height="10" x="160" y="170" fill="#d596a6" /><rect width="90" height="10" x="170" y="170" fill="#feb9d5" /><rect width="40" height="10" x="260" y="170" fill="#c4da53" /><rect width="30" height="10" x="40" y="180" fill="#c4da53" /><rect width="90" height="10" x="70" y="180" fill="#feb9d5" /><rect width="10" height="10" x="160" y="180" fill="#d18687" /><rect width="90" height="10" x="170" y="180" fill="#feb9d5" /><rect width="30" height="10" x="260" y="180" fill="#c4da53" /><rect width="30" height="10" x="50" y="190" fill="#c4da53" /><rect width="50" height="10" x="80" y="190" fill="#feb9d5" /><rect width="30" height="10" x="130" y="190" fill="#d18687" /><rect width="90" height="10" x="160" y="190" fill="#feb9d5" /><rect width="20" height="10" x="250" y="190" fill="#c4da53" /><rect width="20" height="10" x="70" y="200" fill="#c4da53" /><rect width="150" height="10" x="90" y="200" fill="#feb9d5" /><rect width="20" height="10" x="240" y="200" fill="#c4da53" /><rect width="20" height="10" x="90" y="210" fill="#c4da53" /><rect width="110" height="10" x="110" y="210" fill="#feb9d5" /><rect width="20" height="10" x="220" y="210" fill="#c4da53" /><rect width="60" height="10" x="100" y="110" fill="#4bea69" /><rect width="60" height="10" x="170" y="110" fill="#4bea69" /><rect width="10" height="10" x="100" y="120" fill="#4bea69" /><rect width="20" height="10" x="110" y="120" fill="#ffffff" /><rect width="20" height="10" x="130" y="120" fill="#000000" /><rect width="10" height="10" x="150" y="120" fill="#4bea69" /><rect width="10" height="10" x="170" y="120" fill="#4bea69" /><rect width="20" height="10" x="180" y="120" fill="#ffffff" /><rect width="20" height="10" x="200" y="120" fill="#000000" /><rect width="10" height="10" x="220" y="120" fill="#4bea69" /><rect width="40" height="10" x="70" y="130" fill="#4bea69" /><rect width="20" height="10" x="110" y="130" fill="#ffffff" /><rect width="20" height="10" x="130" y="130" fill="#000000" /><rect width="30" height="10" x="150" y="130" fill="#4bea69" /><rect width="20" height="10" x="180" y="130" fill="#ffffff" /><rect width="20" height="10" x="200" y="130" fill="#000000" /><rect width="10" height="10" x="220" y="130" fill="#4bea69" /><rect width="10" height="10" x="70" y="140" fill="#4bea69" /><rect width="10" height="10" x="100" y="140" fill="#4bea69" /><rect width="20" height="10" x="110" y="140" fill="#ffffff" /><rect width="20" height="10" x="130" y="140" fill="#000000" /><rect width="10" height="10" x="150" y="140" fill="#4bea69" /><rect width="10" height="10" x="170" y="140" fill="#4bea69" /><rect width="20" height="10" x="180" y="140" fill="#ffffff" /><rect width="20" height="10" x="200" y="140" fill="#000000" /><rect width="10" height="10" x="220" y="140" fill="#4bea69" /><rect width="10" height="10" x="70" y="150" fill="#4bea69" /><rect width="10" height="10" x="100" y="150" fill="#4bea69" /><rect width="20" height="10" x="110" y="150" fill="#ffffff" /><rect width="20" height="10" x="130" y="150" fill="#000000" /><rect width="10" height="10" x="150" y="150" fill="#4bea69" /><rect width="10" height="10" x="170" y="150" fill="#4bea69" /><rect width="20" height="10" x="180" y="150" fill="#ffffff" /><rect width="20" height="10" x="200" y="150" fill="#000000" /><rect width="10" height="10" x="220" y="150" fill="#4bea69" /><rect width="60" height="10" x="100" y="160" fill="#4bea69" /><rect width="60" height="10" x="170" y="160" fill="#4bea69" /></svg>