<svg viewBox="0 0 320 320" xmlns="http://www.w3.org/2000/svg" shape-rendering="crispEdges"><rect width="100%" height="100%" fill="#d5d7e1" /><rect width="140" height="10" x="90" y="210" fill="#fffdf2" /><rect width="140" height="10" x="90" y="220" fill="#fffdf2" /><rect width="140" height="10" x="90" y="230" fill="#fffdf2" /><rect width="140" height="10" x="90" y="240" fill="#fffdf2" /><rect width="20" height="10" x="90" y="250" fill="#fffdf2" /><rect width="110" height="10" x="120" y="250" fill="#fffdf2" /><rect width="20" height="10" x="90" y="260" fill="#fffdf2" /><rect width="110" height="10" x="120" y="260" fill="#fffdf2" /><rect width="20" height="10" x="90" y="270" fill="#fffdf2" /><rect width="110" height="10" x="120" y="270" fill="#fffdf2" /><rect width="20" height="10" x="90" y="280" fill="#fffdf2" /><rect width="110" height="10" x="120" y="280" fill="#fffdf2" /><rect width="20" height="10" x="90" y="290" fill="#fffdf2" /><rect width="110" height="10" x="120" y="290" fill="#fffdf2" /><rect width="20" height="10" x="90" y="300" fill="#fffdf2" /><rect width="110" height="10" x="120" y="300" fill="#fffdf2" /><rect width="20" height="10" x="90" y="310" fill="#fffdf2" /><rect width="110" height="10" x="120" y="310" fill="#fffdf2" /><rect width="20" height="10" x="160" y="240" fill="#fff0be" /><rect width="10" height="10" x="150" y="250" fill="#fff0be" /><rect width="30" height="10" x="160" y="250" fill="#f8ce47" /><rect width="40" height="10" x="150" y="260" fill="#f8ce47" /><rect width="20" height="10" x="160" y="270" fill="#f8ce47" /><rect width="100" height="10" x="90" y="60" fill="#1e3445" /><rect width="40" height="10" x="190" y="60" fill="#db8323" /><rect width="10" height="10" x="230" y="60" fill="#1e3445" /><rect width="70" height="10" x="90" y="70" fill="#ae6c0a" /><rect width="10" height="10" x="160" y="70" fill="#4b4949" /><rect width="20" height="10" x="170" y="70" fill="#ae6c0a" /><rect width="40" height="10" x="190" y="70" fill="#db8323" /><rect width="10" height="10" x="230" y="70" fill="#ae6c0a" /><rect width="70" height="10" x="90" y="80" fill="#1e3445" /><rect width="10" height="10" x="160" y="80" fill="#ae6c0a" /><rect width="70" height="10" x="170" y="80" fill="#1e3445" /><rect width="10" height="10" x="90" y="90" fill="#1e3445" /><rect width="50" height="10" x="100" y="90" fill="#4b4949" /><rect width="10" height="10" x="150" y="90" fill="#1e3445" /><rect width="10" height="10" x="160" y="90" fill="#ae6c0a" /><rect width="10" height="10" x="170" y="90" fill="#1e3445" /><rect width="50" height="10" x="180" y="90" fill="#4b4949" /><rect width="10" height="10" x="230" y="90" fill="#1e3445" /><rect width="70" height="10" x="90" y="100" fill="#1e3445" /><rect width="10" height="10" x="160" y="100" fill="#ae6c0a" /><rect width="70" height="10" x="170" y="100" fill="#1e3445" /><rect width="70" height="10" x="90" y="110" fill="#1e3445" /><rect width="10" height="10" x="160" y="110" fill="#ae6c0a" /><rect width="70" height="10" x="170" y="110" fill="#1e3445" /><rect width="70" height="10" x="90" y="120" fill="#1e3445" /><rect width="10" height="10" x="160" y="120" fill="#ae6c0a" /><rect width="70" height="10" x="170" y="120" fill="#1e3445" /><rect width="70" height="10" x="90" y="130" fill="#1e3445" /><rect width="10" height="10" x="160" y="130" fill="#ae6c0a" /><rect width="70" height="10" x="170" y="130" fill="#1e3445" /><rect width="70" height="10" x="90" y="140" fill="#1e3445" /><rect width="70" height="10" x="170" y="140" fill="#1e3445" /><rect width="70" height="10" x="90" y="150" fill="#1e3445" /><rect width="70" height="10" x="170" y="150" fill="#1e3445" /><rect width="70" height="10" x="90" y="160" fill="#1e3445" /><rect width="70" height="10" x="170" y="160" fill="#1e3445" /><rect width="70" height="10" x="90" y="170" fill="#1e3445" /><rect width="70" height="10" x="170" y="170" fill="#1e3445" /><rect width="70" height="10" x="90" y="180" fill="#1e3445" /><rect width="70" height="10" x="170" y="180" fill="#1e3445" /><rect width="70" height="10" x="90" y="190" fill="#ae6c0a" /><rect width="70" height="10" x="170" y="190" fill="#ae6c0a" /><rect width="70" height="10" x="90" y="200" fill="#b8ced2" /><rect width="50" height="10" x="170" y="200" fill="#b8ced2" /><rect width="10" height="10" x="220" y="200" fill="#c5030e" /><rect width="10" height="10" x="230" y="200" fill="#1e3445" /><rect width="70" height="10" x="90" y="210" fill="#b8ced2" /><rect width="50" height="10" x="170" y="210" fill="#b8ced2" /><rect width="10" height="10" x="220" y="210" fill="#ffffff" /><rect width="10" height="10" x="230" y="210" fill="#1e3445" /><rect width="60" height="10" x="100" y="110" fill="#4bea69" /><rect width="60" height="10" x="170" y="110" fill="#4bea69" /><rect width="10" height="10" x="100" y="120" fill="#4bea69" /><rect width="20" height="10" x="110" y="120" fill="#ffffff" /><rect width="20" height="10" x="130" y="120" fill="#000000" /><rect width="10" height="10" x="150" y="120" fill="#4bea69" /><rect width="10" height="10" x="170" y="120" fill="#4bea69" /><rect width="20" height="10" x="180" y="120" fill="#ffffff" /><rect width="20" height="10" x="200" y="120" fill="#000000" /><rect width="10" height="10" x="220" y="120" fill="#4bea69" /><rect width="40" height="10" x="70" y="130" fill="#4bea69" /><rect width="20" height="10" x="110" y="130" fill="#ffffff" /><rect width="20" height="10" x="130" y="130" fill="#000000" /><rect width="30" height="10" x="150" y="130" fill="#4bea69" /><rect width="20" height="10" x="180" y="130" fill="#ffffff" /><rect width="20" height="10" x="200" y="130" fill="#000000" /><rect width="10" height="10" x="220" y="130" fill="#4bea69" /><rect width="10" height="10" x="70" y="140" fill="#4bea69" /><rect width="10" height="10" x="100" y="140" fill="#4bea69" /><rect width="20" height="10" x="110" y="140" fill="#ffffff" /><rect width="20" height="10" x="130" y="140" fill="#000000" /><rect width="10" height="10" x="150" y="140" fill="#4bea69" /><rect width="10" height="10" x="170" y="140" fill="#4bea69" /><rect width="20" height="10" x="180" y="140" fill="#ffffff" /><rect width="20" height="10" x="200" y="140" fill="#000000" /><rect width="10" height="10" x="220" y="140" fill="#4bea69" /><rect width="10" height="10" x="70" y="150" fill="#4bea69" /><rect width="10" height="10" x="100" y="150" fill="#4bea69" /><rect width="20" height="10" x="110" y="150" fill="#ffffff" /><rect width="20" height="10" x="130" y="150" fill="#000000" /><rect width="10" height="10" x="150" y="150" fill="#4bea69" /><rect width="10" height="10" x="170" y="150" fill="#4bea69" /><rect width="20" height="10" x="180" y="150" fill="#ffffff" /><rect width="20" height="10" x="200" y="150" fill="#000000" /><rect width="10" height="10" x="220" y="150" fill="#4bea69" /><rect width="60" height="10" x="100" y="160" fill="#4bea69" /><rect width="60" height="10" x="170" y="160" fill="#4bea69" /></svg>