<svg viewBox="0 0 320 320" xmlns="http://www.w3.org/2000/svg" shape-rendering="crispEdges"><rect width="100%" height="100%" fill="#e1d7d5" /><rect width="140" height="10" x="90" y="210" fill="#9f21a0" /><rect width="140" height="10" x="90" y="220" fill="#9f21a0" /><rect width="140" height="10" x="90" y="230" fill="#9f21a0" /><rect width="140" height="10" x="90" y="240" fill="#9f21a0" /><rect width="20" height="10" x="90" y="250" fill="#9f21a0" /><rect width="110" height="10" x="120" y="250" fill="#9f21a0" /><rect width="20" height="10" x="90" y="260" fill="#9f21a0" /><rect width="110" height="10" x="120" y="260" fill="#9f21a0" /><rect width="20" height="10" x="90" y="270" fill="#9f21a0" /><rect width="110" height="10" x="120" y="270" fill="#9f21a0" /><rect width="20" height="10" x="90" y="280" fill="#9f21a0" /><rect width="110" height="10" x="120" y="280" fill="#9f21a0" /><rect width="20" height="10" x="90" y="290" fill="#9f21a0" /><rect width="110" height="10" x="120" y="290" fill="#9f21a0" /><rect width="20" height="10" x="90" y="300" fill="#9f21a0" /><rect width="110" height="10" x="120" y="300" fill="#9f21a0" /><rect width="20" height="10" x="90" y="310" fill="#9f21a0" /><rect width="110" height="10" x="120" y="310" fill="#9f21a0" /><rect width="30" height="10" x="150" y="240" fill="#fff0ee" /><rect width="10" height="10" x="140" y="250" fill="#f9f5e9" /><rect width="10" height="10" x="150" y="250" fill="#552d1d" /><rect width="20" height="10" x="160" y="250" fill="#6b3f39" /><rect width="10" height="10" x="180" y="250" fill="#f9f5e9" /><rect width="10" height="10" x="140" y="260" fill="#f9f5e9" /><rect width="10" height="10" x="150" y="260" fill="#fff671" /><rect width="10" height="10" x="160" y="260" fill="#fff449" /><rect width="10" height="10" x="170" y="260" fill="#fff671" /><rect width="10" height="10" x="180" y="260" fill="#f9f5e9" /><rect width="30" height="10" x="150" y="270" fill="#f9f5e9" /><rect width="220" height="10" x="50" y="70" fill="#235476" /><rect width="10" height="10" x="50" y="80" fill="#fff671" /><rect width="10" height="10" x="60" y="80" fill="#c4da53" /><rect width="10" height="10" x="70" y="80" fill="#fff671" /><rect width="10" height="10" x="80" y="80" fill="#c4da53" /><rect width="10" height="10" x="90" y="80" fill="#fff671" /><rect width="10" height="10" x="100" y="80" fill="#c4da53" /><rect width="10" height="10" x="110" y="80" fill="#fff671" /><rect width="10" height="10" x="120" y="80" fill="#c4da53" /><rect width="10" height="10" x="130" y="80" fill="#fff671" /><rect width="10" height="10" x="140" y="80" fill="#c4da53" /><rect width="10" height="10" x="150" y="80" fill="#fff671" /><rect width="10" height="10" x="160" y="80" fill="#c4da53" /><rect width="10" height="10" x="170" y="80" fill="#fff671" /><rect width="10" height="10" x="180" y="80" fill="#c4da53" /><rect width="10" height="10" x="190" y="80" fill="#fff671" /><rect width="10" height="10" x="200" y="80" fill="#c4da53" /><rect width="10" height="10" x="210" y="80" fill="#fff671" /><rect width="10" height="10" x="220" y="80" fill="#c4da53" /><rect width="10" height="10" x="230" y="80" fill="#fff671" /><rect width="10" height="10" x="240" y="80" fill="#c4da53" /><rect width="10" height="10" x="250" y="80" fill="#fff671" /><rect width="10" height="10" x="260" y="80" fill="#c4da53" /><rect width="10" height="10" x="50" y="90" fill="#fff671" /><rect width="10" height="10" x="60" y="90" fill="#c4da53" /><rect width="10" height="10" x="70" y="90" fill="#fff671" /><rect width="10" height="10" x="80" y="90" fill="#c4da53" /><rect width="10" height="10" x="90" y="90" fill="#fff671" /><rect width="10" height="10" x="100" y="90" fill="#c4da53" /><rect width="10" height="10" x="110" y="90" fill="#fff671" /><rect width="10" height="10" x="120" y="90" fill="#c4da53" /><rect width="10" height="10" x="130" y="90" fill="#fff671" /><rect width="10" height="10" x="140" y="90" fill="#c4da53" /><rect width="10" height="10" x="150" y="90" fill="#fff671" /><rect width="10" height="10" x="160" y="90" fill="#c4da53" /><rect width="10" height="10" x="170" y="90" fill="#fff671" /><rect width="10" height="10" x="180" y="90" fill="#c4da53" /><rect width="10" height="10" x="190" y="90" fill="#fff671" /><rect width="10" height="10" x="200" y="90" fill="#c4da53" /><rect width="10" height="10" x="210" y="90" fill="#fff671" /><rect width="10" height="10" x="220" y="90" fill="#c4da53" /><rect width="10" height="10" x="230" y="90" fill="#fff671" /><rect width="10" height="10" x="240" y="90" fill="#c4da53" /><rect width="10" height="10" x="250" y="90" fill="#fff671" /><rect width="10" height="10" x="260" y="90" fill="#c4da53" /><rect width="10" height="10" x="50" y="100" fill="#c4da53" /><rect width="10" height="10" x="60" y="100" fill="#fff671" /><rect width="10" height="10" x="70" y="100" fill="#c4da53" /><rect width="10" height="10" x="80" y="100" fill="#fff671" /><rect width="10" height="10" x="90" y="100" fill="#c4da53" /><rect width="10" height="10" x="100" y="100" fill="#fff671" /><rect width="10" height="10" x="110" y="100" fill="#c4da53" /><rect width="10" height="10" x="120" y="100" fill="#fff671" /><rect width="10" height="10" x="130" y="100" fill="#c4da53" /><rect width="10" height="10" x="140" y="100" fill="#fff671" /><rect width="10" height="10" x="150" y="100" fill="#c4da53" /><rect width="10" height="10" x="160" y="100" fill="#fff671" /><rect width="10" height="10" x="170" y="100" fill="#c4da53" /><rect width="10" height="10" x="180" y="100" fill="#fff671" /><rect width="10" height="10" x="190" y="100" fill="#c4da53" /><rect width="10" height="10" x="200" y="100" fill="#fff671" /><rect width="10" height="10" x="210" y="100" fill="#c4da53" /><rect width="10" height="10" x="220" y="100" fill="#fff671" /><rect width="10" height="10" x="230" y="100" fill="#c4da53" /><rect width="10" height="10" x="240" y="100" fill="#fff671" /><rect width="10" height="10" x="250" y="100" fill="#c4da53" /><rect width="10" height="10" x="260" y="100" fill="#fff671" /><rect width="10" height="10" x="50" y="110" fill="#c4da53" /><rect width="10" height="10" x="60" y="110" fill="#fff671" /><rect width="10" height="10" x="70" y="110" fill="#c4da53" /><rect width="10" height="10" x="80" y="110" fill="#fff671" /><rect width="10" height="10" x="90" y="110" fill="#c4da53" /><rect width="10" height="10" x="100" y="110" fill="#fff671" /><rect width="10" height="10" x="110" y="110" fill="#c4da53" /><rect width="10" height="10" x="120" y="110" fill="#fff671" /><rect width="10" height="10" x="130" y="110" fill="#c4da53" /><rect width="10" height="10" x="140" y="110" fill="#fff671" /><rect width="10" height="10" x="150" y="110" fill="#c4da53" /><rect width="10" height="10" x="160" y="110" fill="#fff671" /><rect width="10" height="10" x="170" y="110" fill="#c4da53" /><rect width="10" height="10" x="180" y="110" fill="#fff671" /><rect width="10" height="10" x="190" y="110" fill="#c4da53" /><rect width="10" height="10" x="200" y="110" fill="#fff671" /><rect width="10" height="10" x="210" y="110" fill="#c4da53" /><rect width="10" height="10" x="220" y="110" fill="#fff671" /><rect width="10" height="10" x="230" y="110" fill="#c4da53" /><rect width="10" height="10" x="240" y="110" fill="#fff671" /><rect width="10" height="10" x="250" y="110" fill="#c4da53" /><rect width="10" height="10" x="260" y="110" fill="#fff671" /><rect width="10" height="10" x="50" y="120" fill="#fff671" /><rect width="10" height="10" x="60" y="120" fill="#c4da53" /><rect width="10" height="10" x="70" y="120" fill="#fff671" /><rect width="10" height="10" x="80" y="120" fill="#c4da53" /><rect width="10" height="10" x="90" y="120" fill="#fff671" /><rect width="10" height="10" x="100" y="120" fill="#c4da53" /><rect width="10" height="10" x="110" y="120" fill="#fff671" /><rect width="10" height="10" x="120" y="120" fill="#c4da53" /><rect width="10" height="10" x="130" y="120" fill="#fff671" /><rect width="10" height="10" x="140" y="120" fill="#c4da53" /><rect width="10" height="10" x="150" y="120" fill="#fff671" /><rect width="10" height="10" x="160" y="120" fill="#c4da53" /><rect width="10" height="10" x="170" y="120" fill="#fff671" /><rect width="10" height="10" x="180" y="120" fill="#c4da53" /><rect width="10" height="10" x="190" y="120" fill="#fff671" /><rect width="10" height="10" x="200" y="120" fill="#c4da53" /><rect width="10" height="10" x="210" y="120" fill="#fff671" /><rect width="10" height="10" x="220" y="120" fill="#c4da53" /><rect width="10" height="10" x="230" y="120" fill="#fff671" /><rect width="10" height="10" x="240" y="120" fill="#c4da53" /><rect width="10" height="10" x="250" y="120" fill="#fff671" /><rect width="10" height="10" x="260" y="120" fill="#c4da53" /><rect width="10" height="10" x="50" y="130" fill="#fff671" /><rect width="10" height="10" x="60" y="130" fill="#c4da53" /><rect width="10" height="10" x="70" y="130" fill="#fff671" /><rect width="10" height="10" x="80" y="130" fill="#c4da53" /><rect width="10" height="10" x="90" y="130" fill="#fff671" /><rect width="10" height="10" x="100" y="130" fill="#c4da53" /><rect width="10" height="10" x="110" y="130" fill="#fff671" /><rect width="10" height="10" x="120" y="130" fill="#c4da53" /><rect width="10" height="10" x="130" y="130" fill="#fff671" /><rect width="10" height="10" x="140" y="130" fill="#c4da53" /><rect width="10" height="10" x="150" y="130" fill="#fff671" /><rect width="10" height="10" x="160" y="130" fill="#c4da53" /><rect width="10" height="10" x="170" y="130" fill="#fff671" /><rect width="10" height="10" x="180" y="130" fill="#c4da53" /><rect width="10" height="10" x="190" y="130" fill="#fff671" /><rect width="10" height="10" x="200" y="130" fill="#c4da53" /><rect width="10" height="10" x="210" y="130" fill="#fff671" /><rect width="10" height="10" x="220" y="130" fill="#c4da53" /><rect width="10" height="10" x="230" y="130" fill="#fff671" /><rect width="10" height="10" x="240" y="130" fill="#c4da53" /><rect width="10" height="10" x="250" y="130" fill="#fff671" /><rect width="10" height="10" x="260" y="130" fill="#c4da53" /><rect width="10" height="10" x="50" y="140" fill="#c4da53" /><rect width="10" height="10" x="60" y="140" fill="#fff671" /><rect width="10" height="10" x="70" y="140" fill="#c4da53" /><rect width="10" height="10" x="80" y="140" fill="#fff671" /><rect width="10" height="10" x="90" y="140" fill="#c4da53" /><rect width="10" height="10" x="100" y="140" fill="#fff671" /><rect width="10" height="10" x="110" y="140" fill="#c4da53" /><rect width="10" height="10" x="120" y="140" fill="#fff671" /><rect width="10" height="10" x="130" y="140" fill="#c4da53" /><rect width="10" height="10" x="140" y="140" fill="#fff671" /><rect width="10" height="10" x="150" y="140" fill="#c4da53" /><rect width="10" height="10" x="160" y="140" fill="#fff671" /><rect width="10" height="10" x="170" y="140" fill="#c4da53" /><rect width="10" height="10" x="180" y="140" fill="#fff671" /><rect width="10" height="10" x="190" y="140" fill="#c4da53" /><rect width="10" height="10" x="200" y="140" fill="#fff671" /><rect width="10" height="10" x="210" y="140" fill="#c4da53" /><rect width="10" height="10" x="220" y="140" fill="#fff671" /><rect width="10" height="10" x="230" y="140" fill="#c4da53" /><rect width="10" height="10" x="240" y="140" fill="#fff671" /><rect width="10" height="10" x="250" y="140" fill="#c4da53" /><rect width="10" height="10" x="260" y="140" fill="#fff671" /><rect width="10" height="10" x="50" y="150" fill="#c4da53" /><rect width="10" height="10" x="60" y="150" fill="#fff671" /><rect width="10" height="10" x="70" y="150" fill="#c4da53" /><rect width="10" height="10" x="80" y="150" fill="#fff671" /><rect width="10" height="10" x="90" y="150" fill="#c4da53" /><rect width="10" height="10" x="100" y="150" fill="#fff671" /><rect width="10" height="10" x="110" y="150" fill="#c4da53" /><rect width="10" height="10" x="120" y="150" fill="#fff671" /><rect width="10" height="10" x="130" y="150" fill="#c4da53" /><rect width="10" height="10" x="140" y="150" fill="#fff671" /><rect width="10" height="10" x="150" y="150" fill="#c4da53" /><rect width="10" height="10" x="160" y="150" fill="#fff671" /><rect width="10" height="10" x="170" y="150" fill="#c4da53" /><rect width="10" height="10" x="180" y="150" fill="#fff671" /><rect width="10" height="10" x="190" y="150" fill="#c4da53" /><rect width="10" height="10" x="200" y="150" fill="#fff671" /><rect width="10" height="10" x="210" y="150" fill="#c4da53" /><rect width="10" height="10" x="220" y="150" fill="#fff671" /><rect width="10" height="10" x="230" y="150" fill="#c4da53" /><rect width="10" height="10" x="240" y="150" fill="#fff671" /><rect width="10" height="10" x="250" y="150" fill="#c4da53" /><rect width="10" height="10" x="260" y="150" fill="#fff671" /><rect width="10" height="10" x="50" y="160" fill="#fff671" /><rect width="10" height="10" x="60" y="160" fill="#c4da53" /><rect width="10" height="10" x="70" y="160" fill="#fff671" /><rect width="10" height="10" x="80" y="160" fill="#c4da53" /><rect width="10" height="10" x="90" y="160" fill="#fff671" /><rect width="10" height="10" x="100" y="160" fill="#c4da53" /><rect width="10" height="10" x="110" y="160" fill="#fff671" /><rect width="10" height="10" x="120" y="160" fill="#c4da53" /><rect width="10" height="10" x="130" y="160" fill="#fff671" /><rect width="10" height="10" x="140" y="160" fill="#c4da53" /><rect width="10" height="10" x="150" y="160" fill="#fff671" /><rect width="10" height="10" x="160" y="160" fill="#c4da53" /><rect width="10" height="10" x="170" y="160" fill="#fff671" /><rect width="10" height="10" x="180" y="160" fill="#c4da53" /><rect width="10" height="10" x="190" y="160" fill="#fff671" /><rect width="10" height="10" x="200" y="160" fill="#c4da53" /><rect width="10" height="10" x="210" y="160" fill="#fff671" /><rect width="10" height="10" x="220" y="160" fill="#c4da53" /><rect width="10" height="10" x="230" y="160" fill="#fff671" /><rect width="10" height="10" x="240" y="160" fill="#c4da53" /><rect width="10" height="10" x="250" y="160" fill="#fff671" /><rect width="10" height="10" x="260" y="160" fill="#c4da53" /><rect width="10" height="10" x="50" y="170" fill="#fff671" /><rect width="10" height="10" x="60" y="170" fill="#c4da53" /><rect width="10" height="10" x="70" y="170" fill="#fff671" /><rect width="10" height="10" x="80" y="170" fill="#c4da53" /><rect width="10" height="10" x="90" y="170" fill="#fff671" /><rect width="10" height="10" x="100" y="170" fill="#c4da53" /><rect width="10" height="10" x="110" y="170" fill="#fff671" /><rect width="10" height="10" x="120" y="170" fill="#c4da53" /><rect width="10" height="10" x="130" y="170" fill="#fff671" /><rect width="10" height="10" x="140" y="170" fill="#c4da53" /><rect width="10" height="10" x="150" y="170" fill="#fff671" /><rect width="10" height="10" x="160" y="170" fill="#c4da53" /><rect width="10" height="10" x="170" y="170" fill="#fff671" /><rect width="10" height="10" x="180" y="170" fill="#c4da53" /><rect width="10" height="10" x="190" y="170" fill="#fff671" /><rect width="10" height="10" x="200" y="170" fill="#c4da53" /><rect width="10" height="10" x="210" y="170" fill="#fff671" /><rect width="10" height="10" x="220" y="170" fill="#c4da53" /><rect width="10" height="10" x="230" y="170" fill="#fff671" /><rect width="10" height="10" x="240" y="170" fill="#c4da53" /><rect width="10" height="10" x="250" y="170" fill="#fff671" /><rect width="10" height="10" x="260" y="170" fill="#c4da53" /><rect width="10" height="10" x="50" y="180" fill="#c4da53" /><rect width="10" height="10" x="60" y="180" fill="#fff671" /><rect width="10" height="10" x="70" y="180" fill="#c4da53" /><rect width="10" height="10" x="80" y="180" fill="#fff671" /><rect width="10" height="10" x="90" y="180" fill="#c4da53" /><rect width="10" height="10" x="100" y="180" fill="#fff671" /><rect width="10" height="10" x="110" y="180" fill="#c4da53" /><rect width="10" height="10" x="120" y="180" fill="#fff671" /><rect width="10" height="10" x="130" y="180" fill="#c4da53" /><rect width="10" height="10" x="140" y="180" fill="#fff671" /><rect width="10" height="10" x="150" y="180" fill="#c4da53" /><rect width="10" height="10" x="160" y="180" fill="#fff671" /><rect width="10" height="10" x="170" y="180" fill="#c4da53" /><rect width="10" height="10" x="180" y="180" fill="#fff671" /><rect width="10" height="10" x="190" y="180" fill="#c4da53" /><rect width="10" height="10" x="200" y="180" fill="#fff671" /><rect width="10" height="10" x="210" y="180" fill="#c4da53" /><rect width="10" height="10" x="220" y="180" fill="#fff671" /><rect width="10" height="10" x="230" y="180" fill="#c4da53" /><rect width="10" height="10" x="240" y="180" fill="#fff671" /><rect width="10" height="10" x="250" y="180" fill="#c4da53" /><rect width="10" height="10" x="260" y="180" fill="#fff671" /><rect width="10" height="10" x="50" y="190" fill="#c4da53" /><rect width="10" height="10" x="60" y="190" fill="#fff671" /><rect width="10" height="10" x="70" y="190" fill="#c4da53" /><rect width="10" height="10" x="80" y="190" fill="#fff671" /><rect width="10" height="10" x="90" y="190" fill="#c4da53" /><rect width="10" height="10" x="100" y="190" fill="#fff671" /><rect width="10" height="10" x="110" y="190" fill="#c4da53" /><rect width="10" height="10" x="120" y="190" fill="#fff671" /><rect width="10" height="10" x="130" y="190" fill="#c4da53" /><rect width="10" height="10" x="140" y="190" fill="#fff671" /><rect width="10" height="10" x="150" y="190" fill="#c4da53" /><rect width="10" height="10" x="160" y="190" fill="#fff671" /><rect width="10" height="10" x="170" y="190" fill="#c4da53" /><rect width="10" height="10" x="180" y="190" fill="#fff671" /><rect width="10" height="10" x="190" y="190" fill="#c4da53" /><rect width="10" height="10" x="200" y="190" fill="#fff671" /><rect width="10" height="10" x="210" y="190" fill="#c4da53" /><rect width="10" height="10" x="220" y="190" fill="#fff671" /><rect width="10" height="10" x="230" y="190" fill="#c4da53" /><rect width="10" height="10" x="240" y="190" fill="#fff671" /><rect width="10" height="10" x="250" y="190" fill="#c4da53" /><rect width="10" height="10" x="260" y="190" fill="#fff671" /><rect width="220" height="10" x="50" y="200" fill="#235476" /><rect width="60" height="10" x="100" y="110" fill="#ffef16" /><rect width="60" height="10" x="170" y="110" fill="#ffef16" /><rect width="10" height="10" x="100" y="120" fill="#ffef16" /><rect width="20" height="10" x="110" y="120" fill="#ffffff" /><rect width="20" height="10" x="130" y="120" fill="#000000" /><rect width="10" height="10" x="150" y="120" fill="#ffef16" /><rect width="10" height="10" x="170" y="120" fill="#ffef16" /><rect width="20" height="10" x="180" y="120" fill="#ffffff" /><rect width="20" height="10" x="200" y="120" fill="#000000" /><rect width="10" height="10" x="220" y="120" fill="#ffef16" /><rect width="40" height="10" x="70" y="130" fill="#ffef16" /><rect width="20" height="10" x="110" y="130" fill="#ffffff" /><rect width="20" height="10" x="130" y="130" fill="#000000" /><rect width="30" height="10" x="150" y="130" fill="#ffef16" /><rect width="20" height="10" x="180" y="130" fill="#ffffff" /><rect width="20" height="10" x="200" y="130" fill="#000000" /><rect width="10" height="10" x="220" y="130" fill="#ffef16" /><rect width="10" height="10" x="70" y="140" fill="#ffef16" /><rect width="10" height="10" x="100" y="140" fill="#ffef16" /><rect width="20" height="10" x="110" y="140" fill="#ffffff" /><rect width="20" height="10" x="130" y="140" fill="#000000" /><rect width="10" height="10" x="150" y="140" fill="#ffef16" /><rect width="10" height="10" x="170" y="140" fill="#ffef16" /><rect width="20" height="10" x="180" y="140" fill="#ffffff" /><rect width="20" height="10" x="200" y="140" fill="#000000" /><rect width="10" height="10" x="220" y="140" fill="#ffef16" /><rect width="10" height="10" x="70" y="150" fill="#ffef16" /><rect width="10" height="10" x="100" y="150" fill="#ffef16" /><rect width="20" height="10" x="110" y="150" fill="#ffffff" /><rect width="20" height="10" x="130" y="150" fill="#000000" /><rect width="10" height="10" x="150" y="150" fill="#ffef16" /><rect width="10" height="10" x="170" y="150" fill="#ffef16" /><rect width="20" height="10" x="180" y="150" fill="#ffffff" /><rect width="20" height="10" x="200" y="150" fill="#000000" /><rect width="10" height="10" x="220" y="150" fill="#ffef16" /><rect width="60" height="10" x="100" y="160" fill="#ffef16" /><rect width="60" height="10" x="170" y="160" fill="#ffef16" /></svg>