<svg viewBox="0 0 320 320" xmlns="http://www.w3.org/2000/svg" shape-rendering="crispEdges"><rect width="100%" height="100%" fill="#d5d7e1" /><rect width="140" height="10" x="90" y="210" fill="#d26451" /><rect width="140" height="10" x="90" y="220" fill="#d26451" /><rect width="140" height="10" x="90" y="230" fill="#d26451" /><rect width="140" height="10" x="90" y="240" fill="#d26451" /><rect width="20" height="10" x="90" y="250" fill="#d26451" /><rect width="110" height="10" x="120" y="250" fill="#d26451" /><rect width="20" height="10" x="90" y="260" fill="#d26451" /><rect width="110" height="10" x="120" y="260" fill="#d26451" /><rect width="20" height="10" x="90" y="270" fill="#d26451" /><rect width="110" height="10" x="120" y="270" fill="#d26451" /><rect width="20" height="10" x="90" y="280" fill="#d26451" /><rect width="110" height="10" x="120" y="280" fill="#d26451" /><rect width="20" height="10" x="90" y="290" fill="#d26451" /><rect width="110" height="10" x="120" y="290" fill="#d26451" /><rect width="20" height="10" x="90" y="300" fill="#d26451" /><rect width="110" height="10" x="120" y="300" fill="#d26451" /><rect width="20" height="10" x="90" y="310" fill="#d26451" /><rect width="110" height="10" x="120" y="310" fill="#d26451" /><rect width="10" height="10" x="140" y="250" fill="#abf131" /><rect width="10" height="10" x="150" y="250" fill="#3f9323" /><rect width="10" height="10" x="160" y="250" fill="#8dd122" /><rect width="10" height="10" x="170" y="250" fill="#3f9323" /><rect width="10" height="10" x="180" y="250" fill="#abf131" /><rect width="10" height="10" x="100" y="20" fill="#b8ced2" /><rect width="10" height="10" x="90" y="30" fill="#b8ced2" /><rect width="10" height="10" x="100" y="30" fill="#ffffff" /><rect width="10" height="10" x="110" y="30" fill="#b8ced2" /><rect width="50" height="10" x="80" y="40" fill="#b8ced2" /><rect width="50" height="10" x="80" y="50" fill="#1f1d29" /><rect width="20" height="10" x="60" y="60" fill="#9cb4b8" /><rect width="20" height="10" x="80" y="60" fill="#caeff9" /><rect width="10" height="10" x="100" y="60" fill="#b8ced2" /><rect width="20" height="10" x="110" y="60" fill="#caeff9" /><rect width="20" height="10" x="130" y="60" fill="#9cb4b8" /><rect width="20" height="10" x="60" y="70" fill="#9cb4b8" /><rect width="20" height="10" x="80" y="70" fill="#b8ced2" /><rect width="10" height="10" x="100" y="70" fill="#ffffff" /><rect width="20" height="10" x="110" y="70" fill="#b8ced2" /><rect width="20" height="10" x="130" y="70" fill="#9cb4b8" /><rect width="20" height="10" x="50" y="80" fill="#9cb4b8" /><rect width="20" height="10" x="70" y="80" fill="#b8ced2" /><rect width="30" height="10" x="90" y="80" fill="#000000" /><rect width="20" height="10" x="120" y="80" fill="#b8ced2" /><rect width="20" height="10" x="140" y="80" fill="#9cb4b8" /><rect width="50" height="10" x="50" y="90" fill="#ffffff" /><rect width="10" height="10" x="100" y="90" fill="#b8ced2" /><rect width="50" height="10" x="110" y="90" fill="#ffffff" /><rect width="10" height="10" x="240" y="90" fill="#b8ced2" /><rect width="10" height="10" x="50" y="100" fill="#1f1d29" /><rect width="20" height="10" x="60" y="100" fill="#000000" /><rect width="10" height="10" x="80" y="100" fill="#1f1d29" /><rect width="10" height="10" x="90" y="100" fill="#b8ced2" /><rect width="10" height="10" x="100" y="100" fill="#ffffff" /><rect width="10" height="10" x="110" y="100" fill="#b8ced2" /><rect width="10" height="10" x="120" y="100" fill="#1f1d29" /><rect width="20" height="10" x="130" y="100" fill="#000000" /><rect width="10" height="10" x="150" y="100" fill="#1f1d29" /><rect width="10" height="10" x="230" y="100" fill="#b8ced2" /><rect width="10" height="10" x="240" y="100" fill="#ffffff" /><rect width="10" height="10" x="250" y="100" fill="#b8ced2" /><rect width="10" height="10" x="40" y="110" fill="#9cb4b8" /><rect width="30" height="10" x="50" y="110" fill="#adc8cc" /><rect width="10" height="10" x="80" y="110" fill="#b8ced2" /><rect width="30" height="10" x="90" y="110" fill="#000000" /><rect width="10" height="10" x="120" y="110" fill="#b8ced2" /><rect width="30" height="10" x="130" y="110" fill="#adc8cc" /><rect width="10" height="10" x="160" y="110" fill="#9cb4b8" /><rect width="30" height="10" x="230" y="110" fill="#caeff9" /><rect width="10" height="10" x="40" y="120" fill="#9cb4b8" /><rect width="20" height="10" x="50" y="120" fill="#1f1d29" /><rect width="10" height="10" x="70" y="120" fill="#b8ced2" /><rect width="10" height="10" x="80" y="120" fill="#ffffff" /><rect width="30" height="10" x="90" y="120" fill="#1f1d29" /><rect width="10" height="10" x="120" y="120" fill="#ffffff" /><rect width="10" height="10" x="130" y="120" fill="#b8ced2" /><rect width="20" height="10" x="140" y="120" fill="#1f1d29" /><rect width="10" height="10" x="160" y="120" fill="#9cb4b8" /><rect width="30" height="10" x="170" y="120" fill="#b8ced2" /><rect width="30" height="10" x="200" y="120" fill="#9cb4b8" /><rect width="10" height="10" x="230" y="120" fill="#1e3445" /><rect width="10" height="10" x="240" y="120" fill="#000000" /><rect width="10" height="10" x="250" y="120" fill="#1e3445" /><rect width="20" height="10" x="20" y="130" fill="#9cb4b8" /><rect width="10" height="10" x="40" y="130" fill="#b8ced2" /><rect width="120" height="10" x="50" y="130" fill="#adc8cc" /><rect width="20" height="10" x="170" y="130" fill="#9cb4b8" /><rect width="30" height="10" x="190" y="130" fill="#b8ced2" /><rect width="10" height="10" x="220" y="130" fill="#9cb4b8" /><rect width="30" height="10" x="230" y="130" fill="#adc8cc" /><rect width="10" height="10" x="260" y="130" fill="#9cb4b8" /><rect width="10" height="10" x="30" y="140" fill="#b8ced2" /><rect width="10" height="10" x="40" y="140" fill="#ffffff" /><rect width="10" height="10" x="50" y="140" fill="#b8ced2" /><rect width="120" height="10" x="60" y="140" fill="#ffffff" /><rect width="20" height="10" x="180" y="140" fill="#adc8cc" /><rect width="20" height="10" x="200" y="140" fill="#ffffff" /><rect width="10" height="10" x="220" y="140" fill="#9cb4b8" /><rect width="10" height="10" x="230" y="140" fill="#1e3445" /><rect width="10" height="10" x="240" y="140" fill="#b8ced2" /><rect width="10" height="10" x="250" y="140" fill="#1e3445" /><rect width="20" height="10" x="260" y="140" fill="#9cb4b8" /><rect width="30" height="10" x="30" y="150" fill="#1e3445" /><rect width="10" height="10" x="60" y="150" fill="#1f1d29" /><rect width="60" height="10" x="70" y="150" fill="#000000" /><rect width="10" height="10" x="130" y="150" fill="#1f1d29" /><rect width="20" height="10" x="140" y="150" fill="#000000" /><rect width="20" height="10" x="160" y="150" fill="#1f1d29" /><rect width="20" height="10" x="180" y="150" fill="#1e3445" /><rect width="10" height="10" x="200" y="150" fill="#000000" /><rect width="10" height="10" x="210" y="150" fill="#1e3445" /><rect width="10" height="10" x="220" y="150" fill="#b8ced2" /><rect width="30" height="10" x="230" y="150" fill="#ffffff" /><rect width="10" height="10" x="260" y="150" fill="#b8ced2" /><rect width="10" height="10" x="270" y="150" fill="#ffffff" /><rect width="30" height="10" x="30" y="160" fill="#1e3445" /><rect width="120" height="10" x="60" y="160" fill="#1f1d29" /><rect width="40" height="10" x="180" y="160" fill="#1e3445" /><rect width="50" height="10" x="220" y="160" fill="#000000" /><rect width="10" height="10" x="270" y="160" fill="#1e3445" /><rect width="50" height="10" x="20" y="170" fill="#b8ced2" /><rect width="10" height="10" x="70" y="170" fill="#000000" /><rect width="10" height="10" x="80" y="170" fill="#ffffff" /><rect width="10" height="10" x="90" y="170" fill="#000000" /><rect width="10" height="10" x="100" y="170" fill="#ffffff" /><rect width="10" height="10" x="110" y="170" fill="#000000" /><rect width="10" height="10" x="120" y="170" fill="#ffffff" /><rect width="10" height="10" x="130" y="170" fill="#000000" /><rect width="10" height="10" x="140" y="170" fill="#ffffff" /><rect width="10" height="10" x="150" y="170" fill="#000000" /><rect width="10" height="10" x="160" y="170" fill="#ffffff" /><rect width="10" height="10" x="170" y="170" fill="#000000" /><rect width="100" height="10" x="180" y="170" fill="#1e3445" /><rect width="50" height="10" x="20" y="180" fill="#ffffff" /><rect width="10" height="10" x="70" y="180" fill="#d7d3cd" /><rect width="20" height="10" x="80" y="180" fill="#cfc9b8" /><rect width="60" height="10" x="100" y="180" fill="#d7d3cd" /><rect width="10" height="10" x="160" y="180" fill="#cfc9b8" /><rect width="20" height="10" x="170" y="180" fill="#dcd8d3" /><rect width="10" height="10" x="190" y="180" fill="#d4cfc0" /><rect width="10" height="10" x="200" y="180" fill="#cfc9b8" /><rect width="30" height="10" x="210" y="180" fill="#1f1d29" /><rect width="10" height="10" x="240" y="180" fill="#dcd8d3" /><rect width="10" height="10" x="250" y="180" fill="#d4cfc0" /><rect width="20" height="10" x="260" y="180" fill="#dcd8d3" /><rect width="20" height="10" x="20" y="190" fill="#1f1d29" /><rect width="30" height="10" x="40" y="190" fill="#1e3445" /><rect width="10" height="10" x="70" y="190" fill="#cfc9b8" /><rect width="20" height="10" x="80" y="190" fill="#d7d3cd" /><rect width="10" height="10" x="100" y="190" fill="#cfc9b8" /><rect width="10" height="10" x="110" y="190" fill="#d7d3cd" /><rect width="20" height="10" x="120" y="190" fill="#cfc9b8" /><rect width="10" height="10" x="140" y="190" fill="#d7d3cd" /><rect width="10" height="10" x="150" y="190" fill="#cfc9b8" /><rect width="20" height="10" x="160" y="190" fill="#d7d3cd" /><rect width="10" height="10" x="180" y="190" fill="#d4cfc0" /><rect width="10" height="10" x="190" y="190" fill="#dcd8d3" /><rect width="10" height="10" x="200" y="190" fill="#d7d3cd" /><rect width="30" height="10" x="210" y="190" fill="#1f1d29" /><rect width="10" height="10" x="240" y="190" fill="#d4cfc0" /><rect width="20" height="10" x="250" y="190" fill="#dcd8d3" /><rect width="10" height="10" x="270" y="190" fill="#d4cfc0" /><rect width="10" height="10" x="280" y="190" fill="#dcd8d3" /><rect width="20" height="10" x="20" y="200" fill="#1f1d29" /><rect width="30" height="10" x="40" y="200" fill="#1e3445" /><rect width="10" height="10" x="70" y="200" fill="#d7d3cd" /><rect width="10" height="10" x="80" y="200" fill="#cfc9b8" /><rect width="80" height="10" x="90" y="200" fill="#d7d3cd" /><rect width="10" height="10" x="170" y="200" fill="#cfc9b8" /><rect width="10" height="10" x="180" y="200" fill="#d7d3cd" /><rect width="10" height="10" x="190" y="200" fill="#dcd8d3" /><rect width="20" height="10" x="200" y="200" fill="#cfc9b8" /><rect width="20" height="10" x="220" y="200" fill="#1f1d29" /><rect width="10" height="10" x="240" y="200" fill="#dcd8d3" /><rect width="20" height="10" x="250" y="200" fill="#d4cfc0" /><rect width="20" height="10" x="270" y="200" fill="#dcd8d3" /><rect width="20" height="10" x="20" y="210" fill="#cfc9b8" /><rect width="10" height="10" x="40" y="210" fill="#dcd8d3" /><rect width="10" height="10" x="50" y="210" fill="#d4cfc0" /><rect width="10" height="10" x="60" y="210" fill="#dcd8d3" /><rect width="10" height="10" x="70" y="210" fill="#cfc9b8" /><rect width="10" height="10" x="80" y="210" fill="#d7d3cd" /><rect width="20" height="10" x="90" y="210" fill="#cfc9b8" /><rect width="10" height="10" x="110" y="210" fill="#d7d3cd" /><rect width="10" height="10" x="120" y="210" fill="#cfc9b8" /><rect width="10" height="10" x="130" y="210" fill="#d7d3cd" /><rect width="20" height="10" x="140" y="210" fill="#cfc9b8" /><rect width="20" height="10" x="160" y="210" fill="#d7d3cd" /><rect width="10" height="10" x="180" y="210" fill="#cfc9b8" /><rect width="20" height="10" x="190" y="210" fill="#d7d3cd" /><rect width="10" height="10" x="210" y="210" fill="#cfc9b8" /><rect width="10" height="10" x="220" y="210" fill="#d7d3cd" /><rect width="10" height="10" x="230" y="210" fill="#1f1d29" /><rect width="10" height="10" x="240" y="210" fill="#d4cfc0" /><rect width="20" height="10" x="250" y="210" fill="#dcd8d3" /><rect width="20" height="10" x="270" y="210" fill="#d4cfc0" /><rect width="60" height="10" x="100" y="110" fill="#d7d3cd" /><rect width="60" height="10" x="170" y="110" fill="#d7d3cd" /><rect width="10" height="10" x="100" y="120" fill="#d7d3cd" /><rect width="20" height="10" x="110" y="120" fill="#fdf8ff" /><rect width="20" height="10" x="130" y="120" fill="#000000" /><rect width="10" height="10" x="150" y="120" fill="#d7d3cd" /><rect width="10" height="10" x="170" y="120" fill="#d7d3cd" /><rect width="20" height="10" x="180" y="120" fill="#fdf8ff" /><rect width="20" height="10" x="200" y="120" fill="#000000" /><rect width="10" height="10" x="220" y="120" fill="#d7d3cd" /><rect width="40" height="10" x="70" y="130" fill="#d7d3cd" /><rect width="20" height="10" x="110" y="130" fill="#fdf8ff" /><rect width="20" height="10" x="130" y="130" fill="#000000" /><rect width="30" height="10" x="150" y="130" fill="#d7d3cd" /><rect width="20" height="10" x="180" y="130" fill="#fdf8ff" /><rect width="20" height="10" x="200" y="130" fill="#000000" /><rect width="10" height="10" x="220" y="130" fill="#d7d3cd" /><rect width="10" height="10" x="70" y="140" fill="#d7d3cd" /><rect width="10" height="10" x="100" y="140" fill="#d7d3cd" /><rect width="20" height="10" x="110" y="140" fill="#fdf8ff" /><rect width="20" height="10" x="130" y="140" fill="#000000" /><rect width="10" height="10" x="150" y="140" fill="#d7d3cd" /><rect width="10" height="10" x="170" y="140" fill="#d7d3cd" /><rect width="20" height="10" x="180" y="140" fill="#fdf8ff" /><rect width="20" height="10" x="200" y="140" fill="#000000" /><rect width="10" height="10" x="220" y="140" fill="#d7d3cd" /><rect width="10" height="10" x="70" y="150" fill="#d7d3cd" /><rect width="10" height="10" x="100" y="150" fill="#d7d3cd" /><rect width="20" height="10" x="110" y="150" fill="#fdf8ff" /><rect width="20" height="10" x="130" y="150" fill="#000000" /><rect width="10" height="10" x="150" y="150" fill="#d7d3cd" /><rect width="10" height="10" x="170" y="150" fill="#d7d3cd" /><rect width="20" height="10" x="180" y="150" fill="#fdf8ff" /><rect width="20" height="10" x="200" y="150" fill="#000000" /><rect width="10" height="10" x="220" y="150" fill="#d7d3cd" /><rect width="60" height="10" x="100" y="160" fill="#d7d3cd" /><rect width="60" height="10" x="170" y="160" fill="#d7d3cd" /></svg>