<svg viewBox="0 0 320 320" xmlns="http://www.w3.org/2000/svg" shape-rendering="crispEdges"><rect width="100%" height="100%" fill="#d5d7e1" /><rect width="140" height="10" x="90" y="210" fill="#fffdf2" /><rect width="140" height="10" x="90" y="220" fill="#fffdf2" /><rect width="140" height="10" x="90" y="230" fill="#fffdf2" /><rect width="140" height="10" x="90" y="240" fill="#fffdf2" /><rect width="20" height="10" x="90" y="250" fill="#fffdf2" /><rect width="110" height="10" x="120" y="250" fill="#fffdf2" /><rect width="20" height="10" x="90" y="260" fill="#fffdf2" /><rect width="110" height="10" x="120" y="260" fill="#fffdf2" /><rect width="20" height="10" x="90" y="270" fill="#fffdf2" /><rect width="110" height="10" x="120" y="270" fill="#fffdf2" /><rect width="20" height="10" x="90" y="280" fill="#fffdf2" /><rect width="110" height="10" x="120" y="280" fill="#fffdf2" /><rect width="20" height="10" x="90" y="290" fill="#fffdf2" /><rect width="110" height="10" x="120" y="290" fill="#fffdf2" /><rect width="20" height="10" x="90" y="300" fill="#fffdf2" /><rect width="110" height="10" x="120" y="300" fill="#fffdf2" /><rect width="20" height="10" x="90" y="310" fill="#fffdf2" /><rect width="110" height="10" x="120" y="310" fill="#fffdf2" /><rect width="20" height="10" x="160" y="220" fill="#ffffff" /><rect width="10" height="10" x="140" y="230" fill="#ffffff" /><rect width="10" height="10" x="150" y="230" fill="#b8ced2" /><rect width="20" height="10" x="210" y="230" fill="#ffffff" /><rect width="40" height="10" x="120" y="240" fill="#5d6061" /><rect width="10" height="10" x="100" y="250" fill="#5d6061" /><rect width="60" height="10" x="120" y="250" fill="#5d6061" /><rect width="10" height="10" x="90" y="260" fill="#5d6061" /><rect width="10" height="10" x="100" y="260" fill="#018146" /><rect width="80" height="10" x="120" y="260" fill="#018146" /><rect width="10" height="10" x="200" y="260" fill="#5d6061" /><rect width="10" height="10" x="210" y="260" fill="#018146" /><rect width="10" height="10" x="220" y="260" fill="#5d6061" /><rect width="20" height="10" x="90" y="270" fill="#027ee6" /><rect width="110" height="10" x="120" y="270" fill="#027ee6" /><rect width="20" height="10" x="90" y="280" fill="#769ca9" /><rect width="50" height="10" x="120" y="280" fill="#769ca9" /><rect width="60" height="10" x="170" y="280" fill="#027ee6" /><rect width="10" height="10" x="90" y="290" fill="#ff82ad" /><rect width="10" height="10" x="100" y="290" fill="#068940" /><rect width="10" height="10" x="120" y="290" fill="#068940" /><rect width="10" height="10" x="130" y="290" fill="#d8dadf" /><rect width="30" height="10" x="140" y="290" fill="#ff82ad" /><rect width="40" height="10" x="170" y="290" fill="#769ca9" /><rect width="20" height="10" x="210" y="290" fill="#027ee6" /><rect width="20" height="10" x="90" y="300" fill="#d8dadf" /><rect width="20" height="10" x="120" y="300" fill="#068940" /><rect width="40" height="10" x="140" y="300" fill="#ff82ad" /><rect width="30" height="10" x="180" y="300" fill="#feb9d5" /><rect width="20" height="10" x="210" y="300" fill="#769ca9" /><rect width="20" height="10" x="90" y="310" fill="#d8dadf" /><rect width="10" height="10" x="120" y="310" fill="#d8dadf" /><rect width="30" height="10" x="130" y="310" fill="#068940" /><rect width="10" height="10" x="160" y="310" fill="#ff82ad" /><rect width="10" height="10" x="170" y="310" fill="#068940" /><rect width="30" height="10" x="180" y="310" fill="#feb9d5" /><rect width="20" height="10" x="210" y="310" fill="#d8dadf" /><rect width="30" height="10" x="100" y="10" fill="#068940" /><rect width="10" height="10" x="130" y="20" fill="#068940" /><rect width="20" height="10" x="140" y="20" fill="#f20422" /><rect width="20" height="10" x="130" y="30" fill="#f20422" /><rect width="10" height="10" x="150" y="30" fill="#ffffff" /><rect width="10" height="10" x="160" y="30" fill="#f20422" /><rect width="10" height="10" x="80" y="40" fill="#8dd122" /><rect width="10" height="10" x="120" y="40" fill="#ffffff" /><rect width="40" height="10" x="130" y="40" fill="#f20422" /><rect width="20" height="10" x="170" y="40" fill="#ffffff" /><rect width="10" height="10" x="210" y="40" fill="#8dd122" /><rect width="20" height="10" x="80" y="50" fill="#8dd122" /><rect width="40" height="10" x="100" y="50" fill="#ffffff" /><rect width="20" height="10" x="140" y="50" fill="#f20422" /><rect width="50" height="10" x="160" y="50" fill="#ffffff" /><rect width="10" height="10" x="210" y="50" fill="#8dd122" /><rect width="10" height="10" x="80" y="60" fill="#8dd122" /><rect width="20" height="10" x="90" y="60" fill="#ffffff" /><rect width="10" height="10" x="110" y="60" fill="#fbc800" /><rect width="60" height="10" x="120" y="60" fill="#ffffff" /><rect width="10" height="10" x="180" y="60" fill="#410d66" /><rect width="30" height="10" x="190" y="60" fill="#ffffff" /><rect width="10" height="10" x="80" y="70" fill="#ffffff" /><rect width="20" height="10" x="90" y="70" fill="#fbc800" /><rect width="30" height="10" x="110" y="70" fill="#ffffff" /><rect width="10" height="10" x="140" y="70" fill="#410d66" /><rect width="60" height="10" x="150" y="70" fill="#ffffff" /><rect width="20" height="10" x="210" y="70" fill="#f71248" /><rect width="20" height="10" x="70" y="80" fill="#ffffff" /><rect width="20" height="10" x="90" y="80" fill="#fbc800" /><rect width="100" height="10" x="110" y="80" fill="#ffffff" /><rect width="20" height="10" x="210" y="80" fill="#f71248" /><rect width="10" height="10" x="230" y="80" fill="#ffffff" /><rect width="30" height="10" x="70" y="90" fill="#ffffff" /><rect width="20" height="10" x="100" y="90" fill="#fbc800" /><rect width="20" height="10" x="120" y="90" fill="#ffffff" /><rect width="10" height="10" x="140" y="90" fill="#f20422" /><rect width="90" height="10" x="150" y="90" fill="#ffffff" /><rect width="10" height="10" x="60" y="100" fill="#ffffff" /><rect width="20" height="10" x="70" y="100" fill="#0adc4d" /><rect width="40" height="10" x="90" y="100" fill="#ffffff" /><rect width="10" height="10" x="130" y="100" fill="#f20422" /><rect width="10" height="10" x="140" y="100" fill="#fee3f3" /><rect width="10" height="10" x="150" y="100" fill="#f20422" /><rect width="20" height="10" x="160" y="100" fill="#ffffff" /><rect width="20" height="10" x="180" y="100" fill="#fdf008" /><rect width="50" height="10" x="200" y="100" fill="#ffffff" /><rect width="10" height="10" x="60" y="110" fill="#ffffff" /><rect width="20" height="10" x="70" y="110" fill="#0adc4d" /><rect width="150" height="10" x="90" y="110" fill="#ffffff" /><rect width="180" height="10" x="70" y="120" fill="#ffffff" /><rect width="190" height="10" x="60" y="130" fill="#ffffff" /><rect width="10" height="10" x="60" y="140" fill="#caeff9" /><rect width="170" height="10" x="70" y="140" fill="#ffffff" /><rect width="10" height="10" x="240" y="140" fill="#caeff9" /><rect width="10" height="10" x="60" y="150" fill="#caeff9" /><rect width="10" height="10" x="70" y="150" fill="#eff2fa" /><rect width="150" height="10" x="80" y="150" fill="#caeff9" /><rect width="10" height="10" x="230" y="150" fill="#eff2fa" /><rect width="10" height="10" x="240" y="150" fill="#caeff9" /><rect width="10" height="10" x="60" y="160" fill="#caeff9" /><rect width="170" height="10" x="70" y="160" fill="#eff2fa" /><rect width="10" height="10" x="240" y="160" fill="#caeff9" /><rect width="10" height="10" x="70" y="170" fill="#caeff9" /><rect width="150" height="10" x="80" y="170" fill="#eff2fa" /><rect width="10" height="10" x="230" y="170" fill="#caeff9" /><rect width="10" height="10" x="80" y="180" fill="#caeff9" /><rect width="40" height="10" x="90" y="180" fill="#eff2fa" /><rect width="40" height="10" x="130" y="180" fill="#ffffff" /><rect width="50" height="10" x="170" y="180" fill="#eff2fa" /><rect width="10" height="10" x="220" y="180" fill="#caeff9" /><rect width="20" height="10" x="90" y="190" fill="#caeff9" /><rect width="90" height="10" x="110" y="190" fill="#eff2fa" /><rect width="20" height="10" x="200" y="190" fill="#caeff9" /><rect width="90" height="10" x="110" y="200" fill="#caeff9" /><rect width="60" height="10" x="100" y="110" fill="#5648ed" /><rect width="60" height="10" x="170" y="110" fill="#5648ed" /><rect width="10" height="10" x="100" y="120" fill="#5648ed" /><rect width="20" height="10" x="110" y="120" fill="#ffffff" /><rect width="20" height="10" x="130" y="120" fill="#000000" /><rect width="10" height="10" x="150" y="120" fill="#5648ed" /><rect width="10" height="10" x="170" y="120" fill="#5648ed" /><rect width="20" height="10" x="180" y="120" fill="#ffffff" /><rect width="20" height="10" x="200" y="120" fill="#000000" /><rect width="10" height="10" x="220" y="120" fill="#5648ed" /><rect width="40" height="10" x="70" y="130" fill="#5648ed" /><rect width="20" height="10" x="110" y="130" fill="#ffffff" /><rect width="20" height="10" x="130" y="130" fill="#000000" /><rect width="30" height="10" x="150" y="130" fill="#5648ed" /><rect width="20" height="10" x="180" y="130" fill="#ffffff" /><rect width="20" height="10" x="200" y="130" fill="#000000" /><rect width="10" height="10" x="220" y="130" fill="#5648ed" /><rect width="10" height="10" x="70" y="140" fill="#5648ed" /><rect width="10" height="10" x="100" y="140" fill="#5648ed" /><rect width="20" height="10" x="110" y="140" fill="#ffffff" /><rect width="20" height="10" x="130" y="140" fill="#000000" /><rect width="10" height="10" x="150" y="140" fill="#5648ed" /><rect width="10" height="10" x="170" y="140" fill="#5648ed" /><rect width="20" height="10" x="180" y="140" fill="#ffffff" /><rect width="20" height="10" x="200" y="140" fill="#000000" /><rect width="10" height="10" x="220" y="140" fill="#5648ed" /><rect width="10" height="10" x="70" y="150" fill="#5648ed" /><rect width="10" height="10" x="100" y="150" fill="#5648ed" /><rect width="20" height="10" x="110" y="150" fill="#ffffff" /><rect width="20" height="10" x="130" y="150" fill="#000000" /><rect width="10" height="10" x="150" y="150" fill="#5648ed" /><rect width="10" height="10" x="170" y="150" fill="#5648ed" /><rect width="20" height="10" x="180" y="150" fill="#ffffff" /><rect width="20" height="10" x="200" y="150" fill="#000000" /><rect width="10" height="10" x="220" y="150" fill="#5648ed" /><rect width="60" height="10" x="100" y="160" fill="#5648ed" /><rect width="60" height="10" x="170" y="160" fill="#5648ed" /></svg>