<svg viewBox="0 0 320 320" xmlns="http://www.w3.org/2000/svg" shape-rendering="crispEdges"><rect width="100%" height="100%" fill="#e1d7d5" /><rect width="140" height="10" x="90" y="210" fill="#fd8b5b" /><rect width="140" height="10" x="90" y="220" fill="#fd8b5b" /><rect width="140" height="10" x="90" y="230" fill="#fd8b5b" /><rect width="140" height="10" x="90" y="240" fill="#fd8b5b" /><rect width="20" height="10" x="90" y="250" fill="#fd8b5b" /><rect width="110" height="10" x="120" y="250" fill="#fd8b5b" /><rect width="20" height="10" x="90" y="260" fill="#fd8b5b" /><rect width="110" height="10" x="120" y="260" fill="#fd8b5b" /><rect width="20" height="10" x="90" y="270" fill="#fd8b5b" /><rect width="110" height="10" x="120" y="270" fill="#fd8b5b" /><rect width="20" height="10" x="90" y="280" fill="#fd8b5b" /><rect width="110" height="10" x="120" y="280" fill="#fd8b5b" /><rect width="20" height="10" x="90" y="290" fill="#fd8b5b" /><rect width="110" height="10" x="120" y="290" fill="#fd8b5b" /><rect width="20" height="10" x="90" y="300" fill="#fd8b5b" /><rect width="110" height="10" x="120" y="300" fill="#fd8b5b" /><rect width="20" height="10" x="90" y="310" fill="#fd8b5b" /><rect width="110" height="10" x="120" y="310" fill="#fd8b5b" /><rect width="20" height="10" x="140" y="210" fill="#b2958d" /><rect width="10" height="10" x="160" y="210" fill="#d6c3be" /><rect width="10" height="10" x="170" y="210" fill="#b2958d" /><rect width="10" height="10" x="180" y="210" fill="#d6c3be" /><rect width="10" height="10" x="200" y="210" fill="#d6c3be" /><rect width="10" height="10" x="140" y="220" fill="#d6c3be" /><rect width="10" height="10" x="150" y="220" fill="#b2958d" /><rect width="10" height="10" x="160" y="220" fill="#d6c3be" /><rect width="10" height="10" x="170" y="220" fill="#b2958d" /><rect width="10" height="10" x="180" y="220" fill="#d6c3be" /><rect width="10" height="10" x="200" y="220" fill="#d6c3be" /><rect width="10" height="10" x="140" y="230" fill="#d6c3be" /><rect width="10" height="10" x="150" y="230" fill="#b2958d" /><rect width="10" height="10" x="160" y="230" fill="#d6c3be" /><rect width="10" height="10" x="170" y="230" fill="#b2958d" /><rect width="10" height="10" x="180" y="230" fill="#d6c3be" /><rect width="10" height="10" x="200" y="230" fill="#b2958d" /><rect width="10" height="10" x="140" y="240" fill="#d6c3be" /><rect width="10" height="10" x="150" y="240" fill="#b2958d" /><rect width="10" height="10" x="160" y="240" fill="#d6c3be" /><rect width="20" height="10" x="170" y="240" fill="#b2958d" /><rect width="10" height="10" x="190" y="240" fill="#d6c3be" /><rect width="10" height="10" x="140" y="250" fill="#d6c3be" /><rect width="10" height="10" x="150" y="250" fill="#b2958d" /><rect width="20" height="10" x="160" y="250" fill="#d6c3be" /><rect width="10" height="10" x="180" y="250" fill="#b2958d" /><rect width="10" height="10" x="140" y="260" fill="#b2958d" /><rect width="10" height="10" x="150" y="260" fill="#d6c3be" /><rect width="10" height="10" x="160" y="260" fill="#b2958d" /><rect width="20" height="10" x="170" y="260" fill="#d6c3be" /><rect width="10" height="10" x="140" y="270" fill="#b2958d" /><rect width="10" height="10" x="150" y="270" fill="#d6c3be" /><rect width="10" height="10" x="160" y="270" fill="#b2958d" /><rect width="20" height="10" x="170" y="270" fill="#d6c3be" /><rect width="10" height="10" x="140" y="280" fill="#d6c3be" /><rect width="10" height="10" x="150" y="280" fill="#b2958d" /><rect width="10" height="10" x="160" y="280" fill="#d6c3be" /><rect width="10" height="10" x="170" y="280" fill="#b2958d" /><rect width="10" height="10" x="180" y="280" fill="#d6c3be" /><rect width="10" height="10" x="130" y="290" fill="#b2958d" /><rect width="10" height="10" x="150" y="290" fill="#b2958d" /><rect width="10" height="10" x="170" y="290" fill="#d6c3be" /><rect width="10" height="10" x="190" y="290" fill="#d6c3be" /><rect width="10" height="10" x="120" y="20" fill="#0b5027" /><rect width="10" height="10" x="130" y="20" fill="#018146" /><rect width="10" height="10" x="150" y="20" fill="#0b5027" /><rect width="20" height="10" x="110" y="30" fill="#0b5027" /><rect width="10" height="10" x="130" y="30" fill="#018146" /><rect width="20" height="10" x="140" y="30" fill="#0b5027" /><rect width="10" height="10" x="160" y="30" fill="#018146" /><rect width="10" height="10" x="170" y="30" fill="#0b5027" /><rect width="10" height="10" x="120" y="40" fill="#018146" /><rect width="10" height="10" x="130" y="40" fill="#c4da53" /><rect width="10" height="10" x="140" y="40" fill="#80a72d" /><rect width="10" height="10" x="150" y="40" fill="#018146" /><rect width="10" height="10" x="160" y="40" fill="#80a72d" /><rect width="20" height="10" x="170" y="40" fill="#0b5027" /><rect width="20" height="10" x="110" y="50" fill="#0b5027" /><rect width="10" height="10" x="130" y="50" fill="#c4da53" /><rect width="10" height="10" x="140" y="50" fill="#80a72d" /><rect width="10" height="10" x="150" y="50" fill="#c4da53" /><rect width="10" height="10" x="160" y="50" fill="#80a72d" /><rect width="10" height="10" x="170" y="50" fill="#c4da53" /><rect width="10" height="10" x="120" y="60" fill="#0b5027" /><rect width="10" height="10" x="130" y="60" fill="#c4da53" /><rect width="10" height="10" x="140" y="60" fill="#80a72d" /><rect width="10" height="10" x="150" y="60" fill="#c4da53" /><rect width="10" height="10" x="160" y="60" fill="#80a72d" /><rect width="10" height="10" x="170" y="60" fill="#c4da53" /><rect width="10" height="10" x="180" y="60" fill="#0b5027" /><rect width="10" height="10" x="130" y="70" fill="#c4da53" /><rect width="10" height="10" x="140" y="70" fill="#80a72d" /><rect width="10" height="10" x="150" y="70" fill="#c4da53" /><rect width="10" height="10" x="160" y="70" fill="#80a72d" /><rect width="10" height="10" x="170" y="70" fill="#c4da53" /><rect width="160" height="10" x="80" y="80" fill="#ffffff" /><rect width="180" height="10" x="70" y="90" fill="#ffffff" /><rect width="200" height="10" x="60" y="100" fill="#ffffff" /><rect width="200" height="10" x="60" y="110" fill="#ffffff" /><rect width="200" height="10" x="60" y="120" fill="#ffffff" /><rect width="200" height="10" x="60" y="130" fill="#ffffff" /><rect width="200" height="10" x="60" y="140" fill="#ffffff" /><rect width="200" height="10" x="60" y="150" fill="#ffffff" /><rect width="200" height="10" x="60" y="160" fill="#ffffff" /><rect width="180" height="10" x="70" y="170" fill="#ffffff" /><rect width="90" height="10" x="80" y="180" fill="#ffffff" /><rect width="20" height="10" x="170" y="180" fill="#e9ba12" /><rect width="50" height="10" x="190" y="180" fill="#ffffff" /><rect width="140" height="10" x="90" y="190" fill="#ffffff" /><rect width="80" height="10" x="120" y="200" fill="#ffffff" /><rect width="20" height="10" x="150" y="210" fill="#ffffff" /><rect width="60" height="10" x="100" y="110" fill="#000000" /><rect width="60" height="10" x="170" y="110" fill="#000000" /><rect width="30" height="10" x="100" y="120" fill="#000000" /><rect width="10" height="10" x="130" y="120" fill="#ff0e0e" /><rect width="20" height="10" x="140" y="120" fill="#000000" /><rect width="30" height="10" x="170" y="120" fill="#000000" /><rect width="10" height="10" x="200" y="120" fill="#ff0e0e" /><rect width="20" height="10" x="210" y="120" fill="#000000" /><rect width="160" height="10" x="70" y="130" fill="#000000" /><rect width="10" height="10" x="70" y="140" fill="#000000" /><rect width="10" height="10" x="100" y="140" fill="#000000" /><rect width="10" height="10" x="110" y="140" fill="#0adc4d" /><rect width="20" height="10" x="120" y="140" fill="#000000" /><rect width="10" height="10" x="140" y="140" fill="#1929f4" /><rect width="10" height="10" x="150" y="140" fill="#000000" /><rect width="10" height="10" x="170" y="140" fill="#000000" /><rect width="10" height="10" x="180" y="140" fill="#0adc4d" /><rect width="20" height="10" x="190" y="140" fill="#000000" /><rect width="10" height="10" x="210" y="140" fill="#1929f4" /><rect width="10" height="10" x="220" y="140" fill="#000000" /><rect width="10" height="10" x="70" y="150" fill="#000000" /><rect width="60" height="10" x="100" y="150" fill="#000000" /><rect width="60" height="10" x="170" y="150" fill="#000000" /><rect width="60" height="10" x="100" y="160" fill="#000000" /><rect width="60" height="10" x="170" y="160" fill="#000000" /></svg>