<svg viewBox="0 0 320 320" xmlns="http://www.w3.org/2000/svg" shape-rendering="crispEdges"><rect width="100%" height="100%" fill="#e1d7d5" /><rect width="140" height="10" x="90" y="210" fill="#4bea69" /><rect width="140" height="10" x="90" y="220" fill="#4bea69" /><rect width="140" height="10" x="90" y="230" fill="#4bea69" /><rect width="140" height="10" x="90" y="240" fill="#4bea69" /><rect width="20" height="10" x="90" y="250" fill="#4bea69" /><rect width="110" height="10" x="120" y="250" fill="#4bea69" /><rect width="20" height="10" x="90" y="260" fill="#4bea69" /><rect width="110" height="10" x="120" y="260" fill="#4bea69" /><rect width="20" height="10" x="90" y="270" fill="#4bea69" /><rect width="110" height="10" x="120" y="270" fill="#4bea69" /><rect width="20" height="10" x="90" y="280" fill="#4bea69" /><rect width="110" height="10" x="120" y="280" fill="#4bea69" /><rect width="20" height="10" x="90" y="290" fill="#4bea69" /><rect width="110" height="10" x="120" y="290" fill="#4bea69" /><rect width="20" height="10" x="90" y="300" fill="#4bea69" /><rect width="110" height="10" x="120" y="300" fill="#4bea69" /><rect width="20" height="10" x="90" y="310" fill="#4bea69" /><rect width="110" height="10" x="120" y="310" fill="#4bea69" /><rect width="10" height="10" x="130" y="230" fill="#f3322c" /><rect width="20" height="10" x="150" y="230" fill="#f3322c" /><rect width="20" height="10" x="140" y="240" fill="#f3322c" /><rect width="10" height="10" x="170" y="240" fill="#f3322c" /><rect width="10" height="10" x="130" y="250" fill="#f3322c" /><rect width="20" height="10" x="150" y="250" fill="#f3322c" /><rect width="10" height="10" x="180" y="250" fill="#ffef16" /><rect width="20" height="10" x="200" y="250" fill="#ffef16" /><rect width="20" height="10" x="190" y="260" fill="#ffef16" /><rect width="10" height="10" x="220" y="260" fill="#ffef16" /><rect width="10" height="10" x="130" y="270" fill="#42ffb0" /><rect width="20" height="10" x="150" y="270" fill="#42ffb0" /><rect width="10" height="10" x="180" y="270" fill="#ffef16" /><rect width="20" height="10" x="200" y="270" fill="#ffef16" /><rect width="20" height="10" x="140" y="280" fill="#42ffb0" /><rect width="10" height="10" x="170" y="280" fill="#42ffb0" /><rect width="10" height="10" x="130" y="290" fill="#42ffb0" /><rect width="20" height="10" x="150" y="290" fill="#42ffb0" /><rect width="10" height="10" x="80" y="50" fill="#049d43" /><rect width="10" height="10" x="240" y="50" fill="#049d43" /><rect width="20" height="10" x="80" y="60" fill="#fbc311" /><rect width="20" height="10" x="230" y="60" fill="#fbc311" /><rect width="10" height="10" x="80" y="70" fill="#ec5b43" /><rect width="10" height="10" x="90" y="70" fill="#d31e14" /><rect width="10" height="10" x="100" y="70" fill="#ec5b43" /><rect width="10" height="10" x="110" y="70" fill="#d31e14" /><rect width="10" height="10" x="120" y="70" fill="#ec5b43" /><rect width="10" height="10" x="130" y="70" fill="#d31e14" /><rect width="10" height="10" x="140" y="70" fill="#ec5b43" /><rect width="10" height="10" x="150" y="70" fill="#d31e14" /><rect width="10" height="10" x="160" y="70" fill="#ec5b43" /><rect width="10" height="10" x="170" y="70" fill="#d31e14" /><rect width="10" height="10" x="180" y="70" fill="#ec5b43" /><rect width="10" height="10" x="190" y="70" fill="#d31e14" /><rect width="10" height="10" x="200" y="70" fill="#ec5b43" /><rect width="10" height="10" x="210" y="70" fill="#d31e14" /><rect width="10" height="10" x="220" y="70" fill="#ec5b43" /><rect width="10" height="10" x="230" y="70" fill="#d31e14" /><rect width="10" height="10" x="240" y="70" fill="#ec5b43" /><rect width="10" height="10" x="80" y="80" fill="#ec5b43" /><rect width="10" height="10" x="90" y="80" fill="#d31e14" /><rect width="10" height="10" x="100" y="80" fill="#ec5b43" /><rect width="10" height="10" x="110" y="80" fill="#d31e14" /><rect width="10" height="10" x="120" y="80" fill="#ec5b43" /><rect width="10" height="10" x="130" y="80" fill="#d31e14" /><rect width="10" height="10" x="140" y="80" fill="#ec5b43" /><rect width="10" height="10" x="150" y="80" fill="#d31e14" /><rect width="10" height="10" x="160" y="80" fill="#ec5b43" /><rect width="10" height="10" x="170" y="80" fill="#d31e14" /><rect width="10" height="10" x="180" y="80" fill="#ec5b43" /><rect width="10" height="10" x="190" y="80" fill="#d31e14" /><rect width="10" height="10" x="200" y="80" fill="#ec5b43" /><rect width="10" height="10" x="210" y="80" fill="#d31e14" /><rect width="10" height="10" x="220" y="80" fill="#ec5b43" /><rect width="10" height="10" x="230" y="80" fill="#d31e14" /><rect width="10" height="10" x="240" y="80" fill="#ec5b43" /><rect width="10" height="10" x="70" y="90" fill="#d31e14" /><rect width="10" height="10" x="80" y="90" fill="#049d43" /><rect width="10" height="10" x="90" y="90" fill="#d31e14" /><rect width="10" height="10" x="100" y="90" fill="#ec5b43" /><rect width="10" height="10" x="110" y="90" fill="#d31e14" /><rect width="10" height="10" x="120" y="90" fill="#ec5b43" /><rect width="10" height="10" x="130" y="90" fill="#d31e14" /><rect width="10" height="10" x="140" y="90" fill="#ec5b43" /><rect width="10" height="10" x="150" y="90" fill="#d31e14" /><rect width="10" height="10" x="160" y="90" fill="#ec5b43" /><rect width="10" height="10" x="170" y="90" fill="#d31e14" /><rect width="10" height="10" x="180" y="90" fill="#ec5b43" /><rect width="10" height="10" x="190" y="90" fill="#d31e14" /><rect width="10" height="10" x="200" y="90" fill="#ec5b43" /><rect width="10" height="10" x="210" y="90" fill="#d31e14" /><rect width="10" height="10" x="220" y="90" fill="#ec5b43" /><rect width="10" height="10" x="230" y="90" fill="#d31e14" /><rect width="10" height="10" x="240" y="90" fill="#049d43" /><rect width="10" height="10" x="250" y="90" fill="#d31e14" /><rect width="10" height="10" x="50" y="100" fill="#d31e14" /><rect width="10" height="10" x="60" y="100" fill="#ec5b43" /><rect width="10" height="10" x="70" y="100" fill="#d31e14" /><rect width="10" height="10" x="80" y="100" fill="#ec5b43" /><rect width="10" height="10" x="90" y="100" fill="#d31e14" /><rect width="10" height="10" x="100" y="100" fill="#ec5b43" /><rect width="10" height="10" x="110" y="100" fill="#d31e14" /><rect width="10" height="10" x="120" y="100" fill="#ec5b43" /><rect width="10" height="10" x="130" y="100" fill="#d31e14" /><rect width="10" height="10" x="140" y="100" fill="#ec5b43" /><rect width="10" height="10" x="150" y="100" fill="#d31e14" /><rect width="10" height="10" x="160" y="100" fill="#fbc311" /><rect width="10" height="10" x="170" y="100" fill="#d31e14" /><rect width="10" height="10" x="180" y="100" fill="#ec5b43" /><rect width="10" height="10" x="190" y="100" fill="#d31e14" /><rect width="10" height="10" x="200" y="100" fill="#ec5b43" /><rect width="10" height="10" x="210" y="100" fill="#d31e14" /><rect width="10" height="10" x="220" y="100" fill="#ec5b43" /><rect width="10" height="10" x="230" y="100" fill="#d31e14" /><rect width="10" height="10" x="240" y="100" fill="#ec5b43" /><rect width="10" height="10" x="250" y="100" fill="#d31e14" /><rect width="10" height="10" x="260" y="100" fill="#ec5b43" /><rect width="10" height="10" x="270" y="100" fill="#d31e14" /><rect width="80" height="10" x="70" y="110" fill="#bd2d24" /><rect width="30" height="10" x="150" y="110" fill="#00499c" /><rect width="80" height="10" x="180" y="110" fill="#bd2d24" /><rect width="10" height="10" x="50" y="120" fill="#d31e14" /><rect width="10" height="10" x="60" y="120" fill="#ec5b43" /><rect width="10" height="10" x="70" y="120" fill="#d31e14" /><rect width="10" height="10" x="80" y="120" fill="#ec5b43" /><rect width="10" height="10" x="90" y="120" fill="#d31e14" /><rect width="10" height="10" x="100" y="120" fill="#ec5b43" /><rect width="10" height="10" x="110" y="120" fill="#d31e14" /><rect width="10" height="10" x="120" y="120" fill="#ec5b43" /><rect width="20" height="10" x="130" y="120" fill="#c5030e" /><rect width="10" height="10" x="150" y="120" fill="#fccf25" /><rect width="10" height="10" x="160" y="120" fill="#d31e14" /><rect width="10" height="10" x="170" y="120" fill="#fccf25" /><rect width="20" height="10" x="180" y="120" fill="#c5030e" /><rect width="10" height="10" x="200" y="120" fill="#ec5b43" /><rect width="10" height="10" x="210" y="120" fill="#d31e14" /><rect width="10" height="10" x="220" y="120" fill="#ec5b43" /><rect width="10" height="10" x="230" y="120" fill="#d31e14" /><rect width="10" height="10" x="240" y="120" fill="#ec5b43" /><rect width="10" height="10" x="250" y="120" fill="#d31e14" /><rect width="10" height="10" x="260" y="120" fill="#ec5b43" /><rect width="10" height="10" x="270" y="120" fill="#d31e14" /><rect width="10" height="10" x="30" y="130" fill="#d31e14" /><rect width="10" height="10" x="40" y="130" fill="#ec5b43" /><rect width="10" height="10" x="50" y="130" fill="#d31e14" /><rect width="10" height="10" x="60" y="130" fill="#ec5b43" /><rect width="10" height="10" x="70" y="130" fill="#d31e14" /><rect width="10" height="10" x="80" y="130" fill="#ec5b43" /><rect width="10" height="10" x="90" y="130" fill="#d31e14" /><rect width="10" height="10" x="100" y="130" fill="#ec5b43" /><rect width="10" height="10" x="110" y="130" fill="#d31e14" /><rect width="10" height="10" x="120" y="130" fill="#c5030e" /><rect width="20" height="10" x="130" y="130" fill="#fccf25" /><rect width="30" height="10" x="150" y="130" fill="#1e3445" /><rect width="20" height="10" x="180" y="130" fill="#fccf25" /><rect width="10" height="10" x="200" y="130" fill="#c5030e" /><rect width="10" height="10" x="210" y="130" fill="#d31e14" /><rect width="10" height="10" x="220" y="130" fill="#ec5b43" /><rect width="10" height="10" x="230" y="130" fill="#d31e14" /><rect width="10" height="10" x="240" y="130" fill="#ec5b43" /><rect width="10" height="10" x="250" y="130" fill="#d31e14" /><rect width="10" height="10" x="260" y="130" fill="#ec5b43" /><rect width="10" height="10" x="270" y="130" fill="#d31e14" /><rect width="10" height="10" x="280" y="130" fill="#ec5b43" /><rect width="10" height="10" x="290" y="130" fill="#d31e14" /><rect width="40" height="10" x="50" y="140" fill="#bd2d24" /><rect width="10" height="10" x="90" y="140" fill="#d31e14" /><rect width="10" height="10" x="100" y="140" fill="#ec5b43" /><rect width="10" height="10" x="110" y="140" fill="#c5030e" /><rect width="10" height="10" x="120" y="140" fill="#fccf25" /><rect width="10" height="10" x="130" y="140" fill="#049d43" /><rect width="20" height="10" x="140" y="140" fill="#1e3445" /><rect width="10" height="10" x="160" y="140" fill="#049d43" /><rect width="20" height="10" x="170" y="140" fill="#1e3445" /><rect width="10" height="10" x="190" y="140" fill="#049d43" /><rect width="10" height="10" x="200" y="140" fill="#fccf25" /><rect width="10" height="10" x="210" y="140" fill="#c5030e" /><rect width="10" height="10" x="220" y="140" fill="#ec5b43" /><rect width="10" height="10" x="230" y="140" fill="#d31e14" /><rect width="40" height="10" x="240" y="140" fill="#bd2d24" /><rect width="10" height="10" x="50" y="150" fill="#bd2d24" /><rect width="10" height="10" x="60" y="150" fill="#d32a09" /><rect width="10" height="10" x="70" y="150" fill="#bd2d24" /><rect width="10" height="10" x="80" y="150" fill="#d32a09" /><rect width="10" height="10" x="90" y="150" fill="#bd2d24" /><rect width="10" height="10" x="100" y="150" fill="#d32a09" /><rect width="10" height="10" x="110" y="150" fill="#bd2d24" /><rect width="90" height="10" x="120" y="150" fill="#c5030e" /><rect width="10" height="10" x="210" y="150" fill="#bd2d24" /><rect width="10" height="10" x="220" y="150" fill="#d32a09" /><rect width="10" height="10" x="230" y="150" fill="#bd2d24" /><rect width="10" height="10" x="240" y="150" fill="#d32a09" /><rect width="10" height="10" x="250" y="150" fill="#bd2d24" /><rect width="10" height="10" x="260" y="150" fill="#d32a09" /><rect width="10" height="10" x="270" y="150" fill="#bd2d24" /><rect width="70" height="10" x="50" y="160" fill="#bd2d24" /><rect width="10" height="10" x="120" y="160" fill="#c5030e" /><rect width="10" height="10" x="130" y="160" fill="#ffffff" /><rect width="10" height="10" x="140" y="160" fill="#fccf25" /><rect width="30" height="10" x="150" y="160" fill="#d31e14" /><rect width="10" height="10" x="180" y="160" fill="#fccf25" /><rect width="10" height="10" x="190" y="160" fill="#ffffff" /><rect width="10" height="10" x="200" y="160" fill="#c5030e" /><rect width="70" height="10" x="210" y="160" fill="#bd2d24" /><rect width="10" height="10" x="50" y="170" fill="#bd2d24" /><rect width="10" height="10" x="60" y="170" fill="#ffffff" /><rect width="50" height="10" x="70" y="170" fill="#bd2d24" /><rect width="10" height="10" x="120" y="170" fill="#c5030e" /><rect width="10" height="10" x="130" y="170" fill="#ffffff" /><rect width="10" height="10" x="140" y="170" fill="#c5030e" /><rect width="30" height="10" x="150" y="170" fill="#ffffff" /><rect width="10" height="10" x="180" y="170" fill="#c5030e" /><rect width="10" height="10" x="190" y="170" fill="#ffffff" /><rect width="10" height="10" x="200" y="170" fill="#c5030e" /><rect width="20" height="10" x="210" y="170" fill="#bd2d24" /><rect width="20" height="10" x="230" y="170" fill="#ffffff" /><rect width="10" height="10" x="250" y="170" fill="#bd2d24" /><rect width="10" height="10" x="260" y="170" fill="#ffffff" /><rect width="10" height="10" x="270" y="170" fill="#bd2d24" /><rect width="10" height="10" x="50" y="180" fill="#bd2d24" /><rect width="10" height="10" x="60" y="180" fill="#ffffff" /><rect width="40" height="10" x="70" y="180" fill="#bd2d24" /><rect width="10" height="10" x="110" y="180" fill="#807f7e" /><rect width="10" height="10" x="120" y="180" fill="#c5030e" /><rect width="10" height="10" x="130" y="180" fill="#d31e14" /><rect width="10" height="10" x="140" y="180" fill="#fccf25" /><rect width="30" height="10" x="150" y="180" fill="#d31e14" /><rect width="10" height="10" x="180" y="180" fill="#fccf25" /><rect width="10" height="10" x="190" y="180" fill="#d31e14" /><rect width="10" height="10" x="200" y="180" fill="#c5030e" /><rect width="10" height="10" x="210" y="180" fill="#807f7e" /><rect width="10" height="10" x="220" y="180" fill="#bd2d24" /><rect width="20" height="10" x="230" y="180" fill="#ffffff" /><rect width="10" height="10" x="250" y="180" fill="#bd2d24" /><rect width="10" height="10" x="260" y="180" fill="#ffffff" /><rect width="10" height="10" x="270" y="180" fill="#bd2d24" /><rect width="70" height="10" x="40" y="190" fill="#7e5243" /><rect width="10" height="10" x="110" y="190" fill="#807f7e" /><rect width="10" height="10" x="120" y="190" fill="#c5030e" /><rect width="10" height="10" x="130" y="190" fill="#d31e14" /><rect width="10" height="10" x="140" y="190" fill="#c5030e" /><rect width="30" height="10" x="150" y="190" fill="#d31e14" /><rect width="10" height="10" x="180" y="190" fill="#c5030e" /><rect width="10" height="10" x="190" y="190" fill="#d31e14" /><rect width="10" height="10" x="200" y="190" fill="#c5030e" /><rect width="10" height="10" x="210" y="190" fill="#807f7e" /><rect width="70" height="10" x="220" y="190" fill="#7e5243" /><rect width="10" height="10" x="30" y="200" fill="#7e5243" /><rect width="70" height="10" x="40" y="200" fill="#cbc1bc" /><rect width="10" height="10" x="110" y="200" fill="#aaa6a4" /><rect width="90" height="10" x="120" y="200" fill="#d7d3cd" /><rect width="10" height="10" x="210" y="200" fill="#aaa6a4" /><rect width="70" height="10" x="220" y="200" fill="#cbc1bc" /><rect width="10" height="10" x="290" y="200" fill="#7e5243" /><rect width="60" height="10" x="100" y="110" fill="#000000" /><rect width="60" height="10" x="170" y="110" fill="#000000" /><rect width="30" height="10" x="100" y="120" fill="#000000" /><rect width="10" height="10" x="130" y="120" fill="#ff0e0e" /><rect width="20" height="10" x="140" y="120" fill="#000000" /><rect width="30" height="10" x="170" y="120" fill="#000000" /><rect width="10" height="10" x="200" y="120" fill="#ff0e0e" /><rect width="20" height="10" x="210" y="120" fill="#000000" /><rect width="160" height="10" x="70" y="130" fill="#000000" /><rect width="10" height="10" x="70" y="140" fill="#000000" /><rect width="10" height="10" x="100" y="140" fill="#000000" /><rect width="10" height="10" x="110" y="140" fill="#0adc4d" /><rect width="20" height="10" x="120" y="140" fill="#000000" /><rect width="10" height="10" x="140" y="140" fill="#1929f4" /><rect width="10" height="10" x="150" y="140" fill="#000000" /><rect width="10" height="10" x="170" y="140" fill="#000000" /><rect width="10" height="10" x="180" y="140" fill="#0adc4d" /><rect width="20" height="10" x="190" y="140" fill="#000000" /><rect width="10" height="10" x="210" y="140" fill="#1929f4" /><rect width="10" height="10" x="220" y="140" fill="#000000" /><rect width="10" height="10" x="70" y="150" fill="#000000" /><rect width="60" height="10" x="100" y="150" fill="#000000" /><rect width="60" height="10" x="170" y="150" fill="#000000" /><rect width="60" height="10" x="100" y="160" fill="#000000" /><rect width="60" height="10" x="170" y="160" fill="#000000" /></svg>