<svg viewBox="0 0 320 320" xmlns="http://www.w3.org/2000/svg" shape-rendering="crispEdges"><rect width="100%" height="100%" fill="#e1d7d5" /><rect width="140" height="10" x="90" y="210" fill="#fe500c" /><rect width="140" height="10" x="90" y="220" fill="#fe500c" /><rect width="140" height="10" x="90" y="230" fill="#fe500c" /><rect width="140" height="10" x="90" y="240" fill="#fe500c" /><rect width="20" height="10" x="90" y="250" fill="#fe500c" /><rect width="110" height="10" x="120" y="250" fill="#fe500c" /><rect width="20" height="10" x="90" y="260" fill="#fe500c" /><rect width="110" height="10" x="120" y="260" fill="#fe500c" /><rect width="20" height="10" x="90" y="270" fill="#fe500c" /><rect width="110" height="10" x="120" y="270" fill="#fe500c" /><rect width="20" height="10" x="90" y="280" fill="#fe500c" /><rect width="110" height="10" x="120" y="280" fill="#fe500c" /><rect width="20" height="10" x="90" y="290" fill="#fe500c" /><rect width="110" height="10" x="120" y="290" fill="#fe500c" /><rect width="20" height="10" x="90" y="300" fill="#fe500c" /><rect width="110" height="10" x="120" y="300" fill="#fe500c" /><rect width="20" height="10" x="90" y="310" fill="#fe500c" /><rect width="110" height="10" x="120" y="310" fill="#fe500c" /><rect width="10" height="10" x="100" y="270" fill="#ae6c0a" /><rect width="20" height="10" x="130" y="270" fill="#ae6c0a" /><rect width="20" height="10" x="160" y="270" fill="#ae6c0a" /><rect width="20" height="10" x="190" y="270" fill="#ae6c0a" /><rect width="10" height="10" x="220" y="270" fill="#ae6c0a" /><rect width="10" height="10" x="90" y="280" fill="#ae6c0a" /><rect width="10" height="10" x="120" y="280" fill="#ae6c0a" /><rect width="10" height="10" x="150" y="280" fill="#ae6c0a" /><rect width="10" height="10" x="180" y="280" fill="#ae6c0a" /><rect width="10" height="10" x="210" y="280" fill="#ae6c0a" /><rect width="10" height="10" x="90" y="290" fill="#f8ddb0" /><rect width="10" height="10" x="100" y="290" fill="#87e4d9" /><rect width="10" height="10" x="120" y="290" fill="#f8ddb0" /><rect width="20" height="10" x="130" y="290" fill="#87e4d9" /><rect width="10" height="10" x="150" y="290" fill="#f8ddb0" /><rect width="20" height="10" x="160" y="290" fill="#87e4d9" /><rect width="10" height="10" x="180" y="290" fill="#f8ddb0" /><rect width="20" height="10" x="190" y="290" fill="#87e4d9" /><rect width="10" height="10" x="210" y="290" fill="#f8ddb0" /><rect width="10" height="10" x="220" y="290" fill="#87e4d9" /><rect width="20" height="10" x="90" y="300" fill="#87e4d9" /><rect width="110" height="10" x="120" y="300" fill="#87e4d9" /><rect width="20" height="10" x="90" y="310" fill="#87e4d9" /><rect width="110" height="10" x="120" y="310" fill="#87e4d9" /><rect width="10" height="10" x="70" y="50" fill="#caeff9" /><rect width="20" height="10" x="50" y="60" fill="#caeff9" /><rect width="10" height="10" x="140" y="60" fill="#e11833" /><rect width="10" height="10" x="180" y="60" fill="#e11833" /><rect width="10" height="10" x="270" y="60" fill="#caeff9" /><rect width="10" height="10" x="40" y="70" fill="#caeff9" /><rect width="10" height="10" x="140" y="70" fill="#e11833" /><rect width="10" height="10" x="180" y="70" fill="#e11833" /><rect width="10" height="10" x="280" y="70" fill="#caeff9" /><rect width="10" height="10" x="40" y="80" fill="#caeff9" /><rect width="10" height="10" x="130" y="80" fill="#fdf008" /><rect width="10" height="10" x="140" y="80" fill="#ffffff" /><rect width="10" height="10" x="150" y="80" fill="#fdf008" /><rect width="10" height="10" x="170" y="80" fill="#fdf008" /><rect width="10" height="10" x="180" y="80" fill="#ffffff" /><rect width="10" height="10" x="190" y="80" fill="#fdf008" /><rect width="30" height="10" x="250" y="80" fill="#caeff9" /><rect width="30" height="10" x="50" y="90" fill="#caeff9" /><rect width="10" height="10" x="120" y="90" fill="#049d43" /><rect width="10" height="10" x="130" y="90" fill="#000000" /><rect width="10" height="10" x="140" y="90" fill="#049d43" /><rect width="10" height="10" x="150" y="90" fill="#000000" /><rect width="10" height="10" x="160" y="90" fill="#049d43" /><rect width="10" height="10" x="170" y="90" fill="#000000" /><rect width="10" height="10" x="180" y="90" fill="#049d43" /><rect width="10" height="10" x="190" y="90" fill="#000000" /><rect width="10" height="10" x="200" y="90" fill="#049d43" /><rect width="10" height="10" x="80" y="100" fill="#caeff9" /><rect width="10" height="10" x="110" y="100" fill="#d26451" /><rect width="10" height="10" x="120" y="100" fill="#000000" /><rect width="10" height="10" x="130" y="100" fill="#d26451" /><rect width="10" height="10" x="140" y="100" fill="#000000" /><rect width="10" height="10" x="150" y="100" fill="#d26451" /><rect width="10" height="10" x="160" y="100" fill="#000000" /><rect width="10" height="10" x="170" y="100" fill="#d26451" /><rect width="10" height="10" x="180" y="100" fill="#000000" /><rect width="10" height="10" x="190" y="100" fill="#d26451" /><rect width="10" height="10" x="200" y="100" fill="#000000" /><rect width="10" height="10" x="210" y="100" fill="#d26451" /><rect width="10" height="10" x="240" y="100" fill="#caeff9" /><rect width="10" height="10" x="80" y="110" fill="#caeff9" /><rect width="130" height="10" x="100" y="110" fill="#d26451" /><rect width="20" height="10" x="260" y="110" fill="#caeff9" /><rect width="30" height="10" x="50" y="120" fill="#caeff9" /><rect width="10" height="10" x="90" y="120" fill="#f8ce47" /><rect width="10" height="10" x="100" y="120" fill="#ffb913" /><rect width="10" height="10" x="110" y="120" fill="#f8ce47" /><rect width="10" height="10" x="120" y="120" fill="#ffb913" /><rect width="10" height="10" x="130" y="120" fill="#f8ce47" /><rect width="10" height="10" x="140" y="120" fill="#ffb913" /><rect width="30" height="10" x="150" y="120" fill="#f8ce47" /><rect width="10" height="10" x="180" y="120" fill="#ffb913" /><rect width="10" height="10" x="190" y="120" fill="#f8ce47" /><rect width="10" height="10" x="200" y="120" fill="#ffb913" /><rect width="10" height="10" x="210" y="120" fill="#f8ce47" /><rect width="10" height="10" x="220" y="120" fill="#ffb913" /><rect width="10" height="10" x="230" y="120" fill="#f8ce47" /><rect width="10" height="10" x="280" y="120" fill="#caeff9" /><rect width="10" height="10" x="40" y="130" fill="#caeff9" /><rect width="10" height="10" x="90" y="130" fill="#f8ce47" /><rect width="10" height="10" x="100" y="130" fill="#ffb913" /><rect width="10" height="10" x="110" y="130" fill="#f8ce47" /><rect width="10" height="10" x="120" y="130" fill="#ffb913" /><rect width="10" height="10" x="130" y="130" fill="#f8ce47" /><rect width="10" height="10" x="140" y="130" fill="#ffb913" /><rect width="30" height="10" x="150" y="130" fill="#f8ce47" /><rect width="10" height="10" x="180" y="130" fill="#ffb913" /><rect width="10" height="10" x="190" y="130" fill="#f8ce47" /><rect width="10" height="10" x="200" y="130" fill="#ffb913" /><rect width="10" height="10" x="210" y="130" fill="#f8ce47" /><rect width="10" height="10" x="220" y="130" fill="#ffb913" /><rect width="10" height="10" x="230" y="130" fill="#f8ce47" /><rect width="10" height="10" x="290" y="130" fill="#caeff9" /><rect width="10" height="10" x="40" y="140" fill="#caeff9" /><rect width="150" height="10" x="90" y="140" fill="#767c0e" /><rect width="20" height="10" x="270" y="140" fill="#caeff9" /><rect width="10" height="10" x="50" y="150" fill="#caeff9" /><rect width="150" height="10" x="90" y="150" fill="#767c0e" /><rect width="10" height="10" x="260" y="150" fill="#caeff9" /><rect width="10" height="10" x="60" y="160" fill="#caeff9" /><rect width="170" height="10" x="80" y="160" fill="#767c0e" /><rect width="10" height="10" x="260" y="160" fill="#caeff9" /><rect width="20" height="10" x="80" y="170" fill="#767c0e" /><rect width="130" height="10" x="100" y="170" fill="#000000" /><rect width="20" height="10" x="230" y="170" fill="#767c0e" /><rect width="10" height="10" x="270" y="170" fill="#caeff9" /><rect width="10" height="10" x="70" y="180" fill="#4b4949" /><rect width="20" height="10" x="80" y="180" fill="#000000" /><rect width="130" height="10" x="100" y="180" fill="#4b4949" /><rect width="20" height="10" x="230" y="180" fill="#000000" /><rect width="10" height="10" x="250" y="180" fill="#4b4949" /><rect width="40" height="10" x="60" y="190" fill="#4b4949" /><rect width="30" height="10" x="230" y="190" fill="#4b4949" /><rect width="10" height="10" x="260" y="190" fill="#000000" /><rect width="10" height="10" x="290" y="190" fill="#4b4949" /><rect width="20" height="10" x="60" y="200" fill="#4b4949" /><rect width="20" height="10" x="250" y="200" fill="#4b4949" /><rect width="20" height="10" x="270" y="200" fill="#000000" /><rect width="10" height="10" x="290" y="200" fill="#4b4949" /><rect width="10" height="10" x="60" y="210" fill="#4b4949" /><rect width="30" height="10" x="260" y="210" fill="#4b4949" /><rect width="60" height="10" x="100" y="110" fill="#9cb4b8" /><rect width="60" height="10" x="170" y="110" fill="#9cb4b8" /><rect width="10" height="10" x="100" y="120" fill="#9cb4b8" /><rect width="20" height="10" x="110" y="120" fill="#ffffff" /><rect width="20" height="10" x="130" y="120" fill="#000000" /><rect width="10" height="10" x="150" y="120" fill="#9cb4b8" /><rect width="10" height="10" x="170" y="120" fill="#9cb4b8" /><rect width="20" height="10" x="180" y="120" fill="#ffffff" /><rect width="20" height="10" x="200" y="120" fill="#000000" /><rect width="10" height="10" x="220" y="120" fill="#9cb4b8" /><rect width="40" height="10" x="70" y="130" fill="#9cb4b8" /><rect width="20" height="10" x="110" y="130" fill="#ffffff" /><rect width="20" height="10" x="130" y="130" fill="#000000" /><rect width="30" height="10" x="150" y="130" fill="#9cb4b8" /><rect width="20" height="10" x="180" y="130" fill="#ffffff" /><rect width="20" height="10" x="200" y="130" fill="#000000" /><rect width="10" height="10" x="220" y="130" fill="#9cb4b8" /><rect width="10" height="10" x="70" y="140" fill="#9cb4b8" /><rect width="10" height="10" x="100" y="140" fill="#9cb4b8" /><rect width="20" height="10" x="110" y="140" fill="#ffffff" /><rect width="20" height="10" x="130" y="140" fill="#000000" /><rect width="10" height="10" x="150" y="140" fill="#9cb4b8" /><rect width="10" height="10" x="170" y="140" fill="#9cb4b8" /><rect width="20" height="10" x="180" y="140" fill="#ffffff" /><rect width="20" height="10" x="200" y="140" fill="#000000" /><rect width="10" height="10" x="220" y="140" fill="#9cb4b8" /><rect width="10" height="10" x="70" y="150" fill="#9cb4b8" /><rect width="10" height="10" x="100" y="150" fill="#9cb4b8" /><rect width="20" height="10" x="110" y="150" fill="#ffffff" /><rect width="20" height="10" x="130" y="150" fill="#000000" /><rect width="10" height="10" x="150" y="150" fill="#9cb4b8" /><rect width="10" height="10" x="170" y="150" fill="#9cb4b8" /><rect width="20" height="10" x="180" y="150" fill="#ffffff" /><rect width="20" height="10" x="200" y="150" fill="#000000" /><rect width="10" height="10" x="220" y="150" fill="#9cb4b8" /><rect width="60" height="10" x="100" y="160" fill="#9cb4b8" /><rect width="60" height="10" x="170" y="160" fill="#9cb4b8" /></svg>