<svg viewBox="0 0 320 320" xmlns="http://www.w3.org/2000/svg" shape-rendering="crispEdges"><rect width="100%" height="100%" fill="#e1d7d5" /><rect width="140" height="10" x="90" y="210" fill="#068940" /><rect width="140" height="10" x="90" y="220" fill="#068940" /><rect width="140" height="10" x="90" y="230" fill="#068940" /><rect width="140" height="10" x="90" y="240" fill="#068940" /><rect width="20" height="10" x="90" y="250" fill="#068940" /><rect width="110" height="10" x="120" y="250" fill="#068940" /><rect width="20" height="10" x="90" y="260" fill="#068940" /><rect width="110" height="10" x="120" y="260" fill="#068940" /><rect width="20" height="10" x="90" y="270" fill="#068940" /><rect width="110" height="10" x="120" y="270" fill="#068940" /><rect width="20" height="10" x="90" y="280" fill="#068940" /><rect width="110" height="10" x="120" y="280" fill="#068940" /><rect width="20" height="10" x="90" y="290" fill="#068940" /><rect width="110" height="10" x="120" y="290" fill="#068940" /><rect width="20" height="10" x="90" y="300" fill="#068940" /><rect width="110" height="10" x="120" y="300" fill="#068940" /><rect width="20" height="10" x="90" y="310" fill="#068940" /><rect width="110" height="10" x="120" y="310" fill="#068940" /><rect width="10" height="10" x="140" y="240" fill="#caeff9" /><rect width="10" height="10" x="150" y="240" fill="#5fd4fb" /><rect width="10" height="10" x="160" y="240" fill="#caeff9" /><rect width="10" height="10" x="120" y="250" fill="#caeff9" /><rect width="10" height="10" x="150" y="250" fill="#71bde4" /><rect width="10" height="10" x="120" y="260" fill="#caeff9" /><rect width="10" height="10" x="130" y="260" fill="#71bde4" /><rect width="40" height="10" x="140" y="260" fill="#caeff9" /><rect width="10" height="10" x="180" y="260" fill="#ffffff" /><rect width="10" height="10" x="120" y="270" fill="#caeff9" /><rect width="30" height="10" x="140" y="270" fill="#caeff9" /><rect width="10" height="10" x="180" y="270" fill="#caeff9" /><rect width="10" height="10" x="180" y="280" fill="#f78a18" /><rect width="10" height="10" x="180" y="290" fill="#f78a18" /><rect width="10" height="10" x="180" y="300" fill="#f78a18" /><rect width="10" height="10" x="180" y="310" fill="#f78a18" /><rect width="10" height="10" x="160" y="30" fill="#4b4949" /><rect width="50" height="10" x="140" y="40" fill="#4b4949" /><rect width="10" height="10" x="130" y="50" fill="#5d6061" /><rect width="10" height="10" x="140" y="50" fill="#a19c9a" /><rect width="10" height="10" x="150" y="50" fill="#5d6061" /><rect width="10" height="10" x="160" y="50" fill="#a19c9a" /><rect width="10" height="10" x="170" y="50" fill="#5d6061" /><rect width="10" height="10" x="180" y="50" fill="#a19c9a" /><rect width="10" height="10" x="190" y="50" fill="#5d6061" /><rect width="10" height="10" x="120" y="60" fill="#a19c9a" /><rect width="70" height="10" x="130" y="60" fill="#d19a54" /><rect width="10" height="10" x="200" y="60" fill="#a19c9a" /><rect width="10" height="10" x="70" y="70" fill="#5d6061" /><rect width="10" height="10" x="110" y="70" fill="#5d6061" /><rect width="10" height="10" x="120" y="70" fill="#d19a54" /><rect width="10" height="10" x="130" y="70" fill="#9f4b27" /><rect width="50" height="10" x="140" y="70" fill="#d19a54" /><rect width="10" height="10" x="190" y="70" fill="#9f4b27" /><rect width="10" height="10" x="200" y="70" fill="#d19a54" /><rect width="10" height="10" x="210" y="70" fill="#5d6061" /><rect width="10" height="10" x="250" y="70" fill="#5d6061" /><rect width="10" height="10" x="80" y="80" fill="#a19c9a" /><rect width="10" height="10" x="90" y="80" fill="#5d6061" /><rect width="10" height="10" x="100" y="80" fill="#a19c9a" /><rect width="10" height="10" x="110" y="80" fill="#d19a54" /><rect width="40" height="10" x="120" y="80" fill="#9f4b27" /><rect width="10" height="10" x="160" y="80" fill="#d19a54" /><rect width="40" height="10" x="170" y="80" fill="#9f4b27" /><rect width="10" height="10" x="210" y="80" fill="#d19a54" /><rect width="10" height="10" x="220" y="80" fill="#a19c9a" /><rect width="10" height="10" x="230" y="80" fill="#5d6061" /><rect width="10" height="10" x="240" y="80" fill="#a19c9a" /><rect width="30" height="10" x="80" y="90" fill="#d19a54" /><rect width="30" height="10" x="110" y="90" fill="#9f4b27" /><rect width="50" height="10" x="140" y="90" fill="#87e4d9" /><rect width="30" height="10" x="190" y="90" fill="#9f4b27" /><rect width="30" height="10" x="220" y="90" fill="#d19a54" /><rect width="30" height="10" x="110" y="100" fill="#9f4b27" /><rect width="10" height="10" x="140" y="100" fill="#87e4d9" /><rect width="20" height="10" x="150" y="100" fill="#e9ba12" /><rect width="10" height="10" x="170" y="100" fill="#ffc110" /><rect width="10" height="10" x="180" y="100" fill="#87e4d9" /><rect width="30" height="10" x="190" y="100" fill="#9f4b27" /><rect width="30" height="10" x="110" y="110" fill="#9f4b27" /><rect width="50" height="10" x="140" y="110" fill="#87e4d9" /><rect width="30" height="10" x="190" y="110" fill="#9f4b27" /><rect width="110" height="10" x="110" y="120" fill="#9f4b27" /><rect width="110" height="10" x="110" y="130" fill="#87e4d9" /><rect width="10" height="10" x="50" y="140" fill="#87e4d9" /><rect width="150" height="10" x="90" y="140" fill="#87e4d9" /><rect width="10" height="10" x="270" y="140" fill="#87e4d9" /><rect width="210" height="10" x="60" y="150" fill="#87e4d9" /><rect width="190" height="10" x="70" y="160" fill="#8bc0c5" /><rect width="150" height="10" x="90" y="170" fill="#ffffff" /><rect width="10" height="10" x="70" y="180" fill="#fff0be" /><rect width="40" height="10" x="90" y="180" fill="#9f4b27" /><rect width="10" height="10" x="130" y="180" fill="#fff0be" /><rect width="20" height="10" x="140" y="180" fill="#9f4b27" /><rect width="10" height="10" x="160" y="180" fill="#fff0be" /><rect width="20" height="10" x="170" y="180" fill="#9f4b27" /><rect width="10" height="10" x="190" y="180" fill="#fff0be" /><rect width="40" height="10" x="200" y="180" fill="#9f4b27" /><rect width="10" height="10" x="250" y="180" fill="#fff0be" /><rect width="10" height="10" x="70" y="190" fill="#4b4949" /><rect width="10" height="10" x="90" y="190" fill="#9f4b27" /><rect width="30" height="10" x="100" y="190" fill="#caeff9" /><rect width="10" height="10" x="130" y="190" fill="#fff0be" /><rect width="10" height="10" x="140" y="190" fill="#9f4b27" /><rect width="30" height="10" x="150" y="190" fill="#552e05" /><rect width="10" height="10" x="180" y="190" fill="#9f4b27" /><rect width="10" height="10" x="190" y="190" fill="#fff0be" /><rect width="30" height="10" x="200" y="190" fill="#caeff9" /><rect width="10" height="10" x="230" y="190" fill="#9f4b27" /><rect width="10" height="10" x="250" y="190" fill="#4b4949" /><rect width="10" height="10" x="70" y="200" fill="#4b4949" /><rect width="10" height="10" x="90" y="200" fill="#9f4b27" /><rect width="30" height="10" x="100" y="200" fill="#caeff9" /><rect width="20" height="10" x="130" y="200" fill="#9f4b27" /><rect width="30" height="10" x="150" y="200" fill="#552e05" /><rect width="20" height="10" x="180" y="200" fill="#9f4b27" /><rect width="30" height="10" x="200" y="200" fill="#a19c9a" /><rect width="10" height="10" x="230" y="200" fill="#9f4b27" /><rect width="10" height="10" x="250" y="200" fill="#4b4949" /><rect width="60" height="10" x="100" y="110" fill="#ff638d" /><rect width="60" height="10" x="170" y="110" fill="#ff638d" /><rect width="10" height="10" x="100" y="120" fill="#ff638d" /><rect width="20" height="10" x="110" y="120" fill="#ffffff" /><rect width="20" height="10" x="130" y="120" fill="#000000" /><rect width="10" height="10" x="150" y="120" fill="#ff638d" /><rect width="10" height="10" x="170" y="120" fill="#ff638d" /><rect width="20" height="10" x="180" y="120" fill="#ffffff" /><rect width="20" height="10" x="200" y="120" fill="#000000" /><rect width="10" height="10" x="220" y="120" fill="#ff638d" /><rect width="40" height="10" x="70" y="130" fill="#ff638d" /><rect width="20" height="10" x="110" y="130" fill="#ffffff" /><rect width="20" height="10" x="130" y="130" fill="#000000" /><rect width="30" height="10" x="150" y="130" fill="#ff638d" /><rect width="20" height="10" x="180" y="130" fill="#ffffff" /><rect width="20" height="10" x="200" y="130" fill="#000000" /><rect width="10" height="10" x="220" y="130" fill="#ff638d" /><rect width="40" height="10" x="70" y="140" fill="#ff638d" /><rect width="20" height="10" x="110" y="140" fill="#ffffff" /><rect width="20" height="10" x="130" y="140" fill="#000000" /><rect width="30" height="10" x="150" y="140" fill="#ff638d" /><rect width="20" height="10" x="180" y="140" fill="#ffffff" /><rect width="20" height="10" x="200" y="140" fill="#000000" /><rect width="10" height="10" x="220" y="140" fill="#ff638d" /><rect width="10" height="10" x="70" y="150" fill="#ff638d" /><rect width="10" height="10" x="100" y="150" fill="#ff638d" /><rect width="20" height="10" x="110" y="150" fill="#ffffff" /><rect width="20" height="10" x="130" y="150" fill="#000000" /><rect width="10" height="10" x="150" y="150" fill="#ff638d" /><rect width="10" height="10" x="170" y="150" fill="#ff638d" /><rect width="20" height="10" x="180" y="150" fill="#ffffff" /><rect width="20" height="10" x="200" y="150" fill="#000000" /><rect width="10" height="10" x="220" y="150" fill="#ff638d" /><rect width="60" height="10" x="100" y="160" fill="#ff638d" /><rect width="60" height="10" x="170" y="160" fill="#ff638d" /></svg>