<svg viewBox="0 0 320 320" xmlns="http://www.w3.org/2000/svg" shape-rendering="crispEdges"><rect width="100%" height="100%" fill="#d5d7e1" /><rect width="140" height="10" x="90" y="210" fill="#4bea69" /><rect width="140" height="10" x="90" y="220" fill="#4bea69" /><rect width="140" height="10" x="90" y="230" fill="#4bea69" /><rect width="140" height="10" x="90" y="240" fill="#4bea69" /><rect width="20" height="10" x="90" y="250" fill="#4bea69" /><rect width="110" height="10" x="120" y="250" fill="#4bea69" /><rect width="20" height="10" x="90" y="260" fill="#4bea69" /><rect width="110" height="10" x="120" y="260" fill="#4bea69" /><rect width="20" height="10" x="90" y="270" fill="#4bea69" /><rect width="110" height="10" x="120" y="270" fill="#4bea69" /><rect width="20" height="10" x="90" y="280" fill="#4bea69" /><rect width="110" height="10" x="120" y="280" fill="#4bea69" /><rect width="20" height="10" x="90" y="290" fill="#4bea69" /><rect width="110" height="10" x="120" y="290" fill="#4bea69" /><rect width="20" height="10" x="90" y="300" fill="#4bea69" /><rect width="110" height="10" x="120" y="300" fill="#4bea69" /><rect width="20" height="10" x="90" y="310" fill="#4bea69" /><rect width="110" height="10" x="120" y="310" fill="#4bea69" /><rect width="10" height="10" x="130" y="210" fill="#c5b9a1" /><rect width="10" height="10" x="190" y="210" fill="#c5b9a1" /><rect width="10" height="10" x="140" y="220" fill="#c5b9a1" /><rect width="10" height="10" x="180" y="220" fill="#c5b9a1" /><rect width="10" height="10" x="140" y="230" fill="#eff2fa" /><rect width="10" height="10" x="150" y="230" fill="#c5b9a1" /><rect width="10" height="10" x="160" y="230" fill="#4bea69" /><rect width="10" height="10" x="170" y="230" fill="#c5b9a1" /><rect width="10" height="10" x="180" y="230" fill="#ffffff" /><rect width="10" height="10" x="130" y="240" fill="#ffffff" /><rect width="10" height="10" x="150" y="240" fill="#018146" /><rect width="10" height="10" x="160" y="240" fill="#c5b9a1" /><rect width="10" height="10" x="170" y="240" fill="#42ffb0" /><rect width="10" height="10" x="190" y="240" fill="#eff2fa" /><rect width="10" height="10" x="160" y="250" fill="#009c59" /><rect width="20" height="10" x="90" y="300" fill="#ffffff" /><rect width="80" height="10" x="120" y="20" fill="#b87b11" /><rect width="20" height="10" x="120" y="30" fill="#b87b11" /><rect width="20" height="10" x="140" y="30" fill="#552e05" /><rect width="10" height="10" x="160" y="30" fill="#b87b11" /><rect width="20" height="10" x="170" y="30" fill="#552e05" /><rect width="10" height="10" x="190" y="30" fill="#b87b11" /><rect width="10" height="10" x="120" y="40" fill="#552e05" /><rect width="30" height="10" x="130" y="40" fill="#b87b11" /><rect width="10" height="10" x="160" y="40" fill="#ae6c0a" /><rect width="20" height="10" x="170" y="40" fill="#b87b11" /><rect width="10" height="10" x="190" y="40" fill="#552e05" /><rect width="20" height="10" x="140" y="50" fill="#b87b11" /><rect width="10" height="10" x="160" y="50" fill="#552e05" /><rect width="10" height="10" x="170" y="50" fill="#b87b11" /><rect width="10" height="10" x="130" y="60" fill="#b87b11" /><rect width="40" height="10" x="140" y="60" fill="#ae6c0a" /><rect width="10" height="10" x="180" y="60" fill="#b87b11" /><rect width="30" height="10" x="130" y="70" fill="#b87b11" /><rect width="10" height="10" x="160" y="70" fill="#ae6c0a" /><rect width="20" height="10" x="170" y="70" fill="#b87b11" /><rect width="10" height="10" x="90" y="80" fill="#ae6c0a" /><rect width="10" height="10" x="100" y="80" fill="#b87b11" /><rect width="10" height="10" x="110" y="80" fill="#ae6c0a" /><rect width="10" height="10" x="120" y="80" fill="#b87b11" /><rect width="10" height="10" x="130" y="80" fill="#ae6c0a" /><rect width="40" height="10" x="140" y="80" fill="#b87b11" /><rect width="10" height="10" x="180" y="80" fill="#ae6c0a" /><rect width="10" height="10" x="190" y="80" fill="#b87b11" /><rect width="10" height="10" x="200" y="80" fill="#ae6c0a" /><rect width="10" height="10" x="210" y="80" fill="#b87b11" /><rect width="10" height="10" x="220" y="80" fill="#ae6c0a" /><rect width="60" height="10" x="80" y="90" fill="#b87b11" /><rect width="10" height="10" x="140" y="90" fill="#ae6c0a" /><rect width="10" height="10" x="150" y="90" fill="#b87b11" /><rect width="10" height="10" x="160" y="90" fill="#ae6c0a" /><rect width="20" height="10" x="170" y="90" fill="#b87b11" /><rect width="10" height="10" x="190" y="90" fill="#ae6c0a" /><rect width="40" height="10" x="200" y="90" fill="#b87b11" /><rect width="10" height="10" x="80" y="100" fill="#ae6c0a" /><rect width="10" height="10" x="90" y="100" fill="#b87b11" /><rect width="10" height="10" x="100" y="100" fill="#ae6c0a" /><rect width="10" height="10" x="110" y="100" fill="#b87b11" /><rect width="10" height="10" x="120" y="100" fill="#ae6c0a" /><rect width="10" height="10" x="130" y="100" fill="#d08b11" /><rect width="40" height="10" x="140" y="100" fill="#b87b11" /><rect width="10" height="10" x="180" y="100" fill="#ae6c0a" /><rect width="10" height="10" x="190" y="100" fill="#d08b11" /><rect width="10" height="10" x="200" y="100" fill="#b87b11" /><rect width="10" height="10" x="210" y="100" fill="#ae6c0a" /><rect width="10" height="10" x="220" y="100" fill="#b87b11" /><rect width="10" height="10" x="230" y="100" fill="#ae6c0a" /><rect width="60" height="10" x="80" y="110" fill="#b87b11" /><rect width="10" height="10" x="140" y="110" fill="#ae6c0a" /><rect width="10" height="10" x="150" y="110" fill="#b87b11" /><rect width="10" height="10" x="160" y="110" fill="#ae6c0a" /><rect width="70" height="10" x="170" y="110" fill="#b87b11" /><rect width="10" height="10" x="80" y="120" fill="#ae6c0a" /><rect width="90" height="10" x="90" y="120" fill="#b87b11" /><rect width="10" height="10" x="180" y="120" fill="#ae6c0a" /><rect width="40" height="10" x="190" y="120" fill="#b87b11" /><rect width="10" height="10" x="230" y="120" fill="#ae6c0a" /><rect width="10" height="10" x="90" y="130" fill="#b87b11" /><rect width="10" height="10" x="100" y="130" fill="#ae6c0a" /><rect width="10" height="10" x="110" y="130" fill="#b87b11" /><rect width="10" height="10" x="120" y="130" fill="#ae6c0a" /><rect width="10" height="10" x="130" y="130" fill="#b87b11" /><rect width="10" height="10" x="140" y="130" fill="#ae6c0a" /><rect width="10" height="10" x="150" y="130" fill="#b87b11" /><rect width="10" height="10" x="160" y="130" fill="#ae6c0a" /><rect width="20" height="10" x="170" y="130" fill="#b87b11" /><rect width="10" height="10" x="190" y="130" fill="#ae6c0a" /><rect width="10" height="10" x="200" y="130" fill="#b87b11" /><rect width="10" height="10" x="210" y="130" fill="#ae6c0a" /><rect width="10" height="10" x="220" y="130" fill="#b87b11" /><rect width="10" height="10" x="130" y="140" fill="#b87b11" /><rect width="10" height="10" x="140" y="140" fill="#ae6c0a" /><rect width="30" height="10" x="150" y="140" fill="#b87b11" /><rect width="10" height="10" x="180" y="140" fill="#ae6c0a" /><rect width="10" height="10" x="130" y="150" fill="#ae6c0a" /><rect width="20" height="10" x="140" y="150" fill="#b87b11" /><rect width="10" height="10" x="160" y="150" fill="#d08b11" /><rect width="10" height="10" x="170" y="150" fill="#b87b11" /><rect width="10" height="10" x="180" y="150" fill="#ae6c0a" /><rect width="10" height="10" x="130" y="160" fill="#b87b11" /><rect width="10" height="10" x="140" y="160" fill="#ae6c0a" /><rect width="10" height="10" x="150" y="160" fill="#b87b11" /><rect width="10" height="10" x="160" y="160" fill="#ae6c0a" /><rect width="20" height="10" x="170" y="160" fill="#b87b11" /><rect width="60" height="10" x="130" y="170" fill="#ae6c0a" /><rect width="60" height="10" x="130" y="180" fill="#b87b11" /><rect width="10" height="10" x="130" y="190" fill="#ae6c0a" /><rect width="40" height="10" x="140" y="190" fill="#b87b11" /><rect width="10" height="10" x="180" y="190" fill="#ae6c0a" /><rect width="10" height="10" x="140" y="200" fill="#b87b11" /><rect width="20" height="10" x="150" y="200" fill="#ae6c0a" /><rect width="10" height="10" x="170" y="200" fill="#b87b11" /><rect width="60" height="10" x="100" y="110" fill="#068940" /><rect width="60" height="10" x="170" y="110" fill="#257ced" /><rect width="10" height="10" x="100" y="120" fill="#068940" /><rect width="20" height="10" x="110" y="120" fill="#ffffff" /><rect width="20" height="10" x="130" y="120" fill="#000000" /><rect width="10" height="10" x="150" y="120" fill="#068940" /><rect width="10" height="10" x="170" y="120" fill="#257ced" /><rect width="20" height="10" x="180" y="120" fill="#ffffff" /><rect width="20" height="10" x="200" y="120" fill="#000000" /><rect width="10" height="10" x="220" y="120" fill="#257ced" /><rect width="30" height="10" x="70" y="130" fill="#254efb" /><rect width="10" height="10" x="100" y="130" fill="#068940" /><rect width="20" height="10" x="110" y="130" fill="#ffffff" /><rect width="20" height="10" x="130" y="130" fill="#000000" /><rect width="10" height="10" x="150" y="130" fill="#068940" /><rect width="10" height="10" x="160" y="130" fill="#254efb" /><rect width="10" height="10" x="170" y="130" fill="#257ced" /><rect width="20" height="10" x="180" y="130" fill="#ffffff" /><rect width="20" height="10" x="200" y="130" fill="#000000" /><rect width="10" height="10" x="220" y="130" fill="#257ced" /><rect width="10" height="10" x="70" y="140" fill="#257ced" /><rect width="10" height="10" x="100" y="140" fill="#068940" /><rect width="20" height="10" x="110" y="140" fill="#ffffff" /><rect width="20" height="10" x="130" y="140" fill="#000000" /><rect width="10" height="10" x="150" y="140" fill="#068940" /><rect width="10" height="10" x="170" y="140" fill="#257ced" /><rect width="20" height="10" x="180" y="140" fill="#ffffff" /><rect width="20" height="10" x="200" y="140" fill="#000000" /><rect width="10" height="10" x="220" y="140" fill="#257ced" /><rect width="10" height="10" x="70" y="150" fill="#257ced" /><rect width="10" height="10" x="100" y="150" fill="#068940" /><rect width="20" height="10" x="110" y="150" fill="#ffffff" /><rect width="20" height="10" x="130" y="150" fill="#000000" /><rect width="10" height="10" x="150" y="150" fill="#068940" /><rect width="10" height="10" x="170" y="150" fill="#257ced" /><rect width="20" height="10" x="180" y="150" fill="#ffffff" /><rect width="20" height="10" x="200" y="150" fill="#000000" /><rect width="10" height="10" x="220" y="150" fill="#257ced" /><rect width="60" height="10" x="100" y="160" fill="#068940" /><rect width="60" height="10" x="170" y="160" fill="#257ced" /></svg>