<svg viewBox="0 0 320 320" xmlns="http://www.w3.org/2000/svg" shape-rendering="crispEdges"><rect width="100%" height="100%" fill="#e1d7d5" /><rect width="140" height="10" x="90" y="210" fill="#d26451" /><rect width="140" height="10" x="90" y="220" fill="#d26451" /><rect width="140" height="10" x="90" y="230" fill="#d26451" /><rect width="140" height="10" x="90" y="240" fill="#d26451" /><rect width="20" height="10" x="90" y="250" fill="#d26451" /><rect width="110" height="10" x="120" y="250" fill="#d26451" /><rect width="20" height="10" x="90" y="260" fill="#d26451" /><rect width="110" height="10" x="120" y="260" fill="#d26451" /><rect width="20" height="10" x="90" y="270" fill="#d26451" /><rect width="110" height="10" x="120" y="270" fill="#d26451" /><rect width="20" height="10" x="90" y="280" fill="#d26451" /><rect width="110" height="10" x="120" y="280" fill="#d26451" /><rect width="20" height="10" x="90" y="290" fill="#d26451" /><rect width="110" height="10" x="120" y="290" fill="#d26451" /><rect width="20" height="10" x="90" y="300" fill="#d26451" /><rect width="110" height="10" x="120" y="300" fill="#d26451" /><rect width="20" height="10" x="90" y="310" fill="#d26451" /><rect width="110" height="10" x="120" y="310" fill="#d26451" /><rect width="30" height="10" x="90" y="230" fill="#7d635e" /><rect width="30" height="10" x="130" y="230" fill="#7d635e" /><rect width="30" height="10" x="170" y="230" fill="#7d635e" /><rect width="20" height="10" x="210" y="230" fill="#7d635e" /><rect width="10" height="10" x="100" y="240" fill="#f9e8dd" /><rect width="10" height="10" x="140" y="240" fill="#f9e8dd" /><rect width="10" height="10" x="180" y="240" fill="#f9e8dd" /><rect width="10" height="10" x="220" y="240" fill="#f9e8dd" /><rect width="10" height="10" x="90" y="260" fill="#7d635e" /><rect width="20" height="10" x="120" y="260" fill="#7d635e" /><rect width="30" height="10" x="150" y="260" fill="#7d635e" /><rect width="30" height="10" x="190" y="260" fill="#7d635e" /><rect width="10" height="10" x="120" y="270" fill="#f9e8dd" /><rect width="10" height="10" x="160" y="270" fill="#f9e8dd" /><rect width="10" height="10" x="200" y="270" fill="#f9e8dd" /><rect width="20" height="10" x="90" y="290" fill="#7d635e" /><rect width="30" height="10" x="130" y="290" fill="#7d635e" /><rect width="30" height="10" x="170" y="290" fill="#7d635e" /><rect width="20" height="10" x="210" y="290" fill="#7d635e" /><rect width="10" height="10" x="100" y="300" fill="#f9e8dd" /><rect width="10" height="10" x="140" y="300" fill="#f9e8dd" /><rect width="10" height="10" x="180" y="300" fill="#f9e8dd" /><rect width="10" height="10" x="220" y="300" fill="#f9e8dd" /><rect width="10" height="10" x="80" y="30" fill="#552d1d" /><rect width="10" height="10" x="220" y="30" fill="#552d1d" /><rect width="150" height="10" x="80" y="40" fill="#552d1d" /><rect width="170" height="10" x="70" y="50" fill="#552d1d" /><rect width="190" height="10" x="60" y="60" fill="#552d1d" /><rect width="20" height="10" x="70" y="70" fill="#f83001" /><rect width="10" height="10" x="90" y="70" fill="#f82905" /><rect width="20" height="10" x="100" y="70" fill="#f83001" /><rect width="10" height="10" x="120" y="70" fill="#f82905" /><rect width="20" height="10" x="130" y="70" fill="#f83001" /><rect width="10" height="10" x="150" y="70" fill="#f82905" /><rect width="20" height="10" x="160" y="70" fill="#f83001" /><rect width="10" height="10" x="180" y="70" fill="#f82905" /><rect width="20" height="10" x="190" y="70" fill="#f83001" /><rect width="10" height="10" x="210" y="70" fill="#f82905" /><rect width="20" height="10" x="220" y="70" fill="#f83001" /><rect width="10" height="10" x="80" y="80" fill="#f83001" /><rect width="10" height="10" x="90" y="80" fill="#f82905" /><rect width="20" height="10" x="100" y="80" fill="#ffffff" /><rect width="10" height="10" x="120" y="80" fill="#f82905" /><rect width="20" height="10" x="130" y="80" fill="#ffffff" /><rect width="10" height="10" x="150" y="80" fill="#f82905" /><rect width="20" height="10" x="160" y="80" fill="#ffffff" /><rect width="10" height="10" x="180" y="80" fill="#f82905" /><rect width="20" height="10" x="190" y="80" fill="#ffffff" /><rect width="10" height="10" x="210" y="80" fill="#f82905" /><rect width="10" height="10" x="220" y="80" fill="#f83001" /><rect width="60" height="10" x="30" y="90" fill="#552d1d" /><rect width="10" height="10" x="90" y="90" fill="#ffe939" /><rect width="20" height="10" x="100" y="90" fill="#f83001" /><rect width="10" height="10" x="120" y="90" fill="#ffe939" /><rect width="50" height="10" x="130" y="90" fill="#f83001" /><rect width="10" height="10" x="180" y="90" fill="#ffe939" /><rect width="20" height="10" x="190" y="90" fill="#f83001" /><rect width="10" height="10" x="210" y="90" fill="#ffe939" /><rect width="60" height="10" x="220" y="90" fill="#552d1d" /><rect width="60" height="10" x="30" y="100" fill="#552d1d" /><rect width="10" height="10" x="90" y="100" fill="#f83001" /><rect width="20" height="10" x="100" y="100" fill="#ffffff" /><rect width="10" height="10" x="120" y="100" fill="#f83001" /><rect width="10" height="10" x="130" y="100" fill="#ffffff" /><rect width="30" height="10" x="140" y="100" fill="#f83001" /><rect width="10" height="10" x="170" y="100" fill="#ffffff" /><rect width="10" height="10" x="180" y="100" fill="#f83001" /><rect width="20" height="10" x="190" y="100" fill="#ffffff" /><rect width="10" height="10" x="210" y="100" fill="#f83001" /><rect width="60" height="10" x="220" y="100" fill="#552d1d" /><rect width="60" height="10" x="30" y="110" fill="#552d1d" /><rect width="10" height="10" x="90" y="110" fill="#f83001" /><rect width="20" height="10" x="100" y="110" fill="#ffffff" /><rect width="10" height="10" x="120" y="110" fill="#f83001" /><rect width="10" height="10" x="130" y="110" fill="#ffffff" /><rect width="30" height="10" x="140" y="110" fill="#f83001" /><rect width="10" height="10" x="170" y="110" fill="#ffffff" /><rect width="10" height="10" x="180" y="110" fill="#f83001" /><rect width="20" height="10" x="190" y="110" fill="#ffffff" /><rect width="10" height="10" x="210" y="110" fill="#f83001" /><rect width="60" height="10" x="220" y="110" fill="#552d1d" /><rect width="40" height="10" x="30" y="120" fill="#552d1d" /><rect width="20" height="10" x="70" y="120" fill="#f83001" /><rect width="10" height="10" x="90" y="120" fill="#f82905" /><rect width="20" height="10" x="100" y="120" fill="#f83001" /><rect width="10" height="10" x="120" y="120" fill="#f82905" /><rect width="20" height="10" x="130" y="120" fill="#f83001" /><rect width="10" height="10" x="150" y="120" fill="#f82905" /><rect width="20" height="10" x="160" y="120" fill="#f83001" /><rect width="10" height="10" x="180" y="120" fill="#f82905" /><rect width="20" height="10" x="190" y="120" fill="#f83001" /><rect width="10" height="10" x="210" y="120" fill="#f82905" /><rect width="20" height="10" x="220" y="120" fill="#f83001" /><rect width="40" height="10" x="240" y="120" fill="#552d1d" /><rect width="60" height="10" x="20" y="130" fill="#552d1d" /><rect width="10" height="10" x="80" y="130" fill="#f83001" /><rect width="10" height="10" x="90" y="130" fill="#f82905" /><rect width="20" height="10" x="100" y="130" fill="#f83001" /><rect width="10" height="10" x="120" y="130" fill="#f82905" /><rect width="20" height="10" x="130" y="130" fill="#f83001" /><rect width="10" height="10" x="150" y="130" fill="#f82905" /><rect width="20" height="10" x="160" y="130" fill="#f83001" /><rect width="10" height="10" x="180" y="130" fill="#f82905" /><rect width="20" height="10" x="190" y="130" fill="#f83001" /><rect width="10" height="10" x="210" y="130" fill="#f82905" /><rect width="10" height="10" x="220" y="130" fill="#f83001" /><rect width="60" height="10" x="230" y="130" fill="#552d1d" /><rect width="70" height="10" x="20" y="140" fill="#552d1d" /><rect width="10" height="10" x="90" y="140" fill="#f83001" /><rect width="20" height="10" x="100" y="140" fill="#ffffff" /><rect width="10" height="10" x="120" y="140" fill="#f83001" /><rect width="20" height="10" x="130" y="140" fill="#ffffff" /><rect width="10" height="10" x="150" y="140" fill="#f83001" /><rect width="20" height="10" x="160" y="140" fill="#ffffff" /><rect width="10" height="10" x="180" y="140" fill="#f83001" /><rect width="20" height="10" x="190" y="140" fill="#ffffff" /><rect width="10" height="10" x="210" y="140" fill="#f83001" /><rect width="70" height="10" x="220" y="140" fill="#552d1d" /><rect width="70" height="10" x="10" y="150" fill="#552d1d" /><rect width="10" height="10" x="80" y="150" fill="#ffffff" /><rect width="10" height="10" x="90" y="150" fill="#ffe939" /><rect width="20" height="10" x="100" y="150" fill="#f83001" /><rect width="10" height="10" x="120" y="150" fill="#ffe939" /><rect width="50" height="10" x="130" y="150" fill="#f83001" /><rect width="10" height="10" x="180" y="150" fill="#ffe939" /><rect width="20" height="10" x="190" y="150" fill="#f83001" /><rect width="10" height="10" x="210" y="150" fill="#ffe939" /><rect width="10" height="10" x="220" y="150" fill="#ffffff" /><rect width="70" height="10" x="230" y="150" fill="#552d1d" /><rect width="10" height="10" x="30" y="160" fill="#ffffff" /><rect width="10" height="10" x="40" y="160" fill="#f83001" /><rect width="10" height="10" x="50" y="160" fill="#018146" /><rect width="10" height="10" x="60" y="160" fill="#068940" /><rect width="10" height="10" x="70" y="160" fill="#018146" /><rect width="10" height="10" x="80" y="160" fill="#068940" /><rect width="10" height="10" x="90" y="160" fill="#f83001" /><rect width="10" height="10" x="100" y="160" fill="#018146" /><rect width="10" height="10" x="110" y="160" fill="#068940" /><rect width="10" height="10" x="120" y="160" fill="#f83001" /><rect width="10" height="10" x="130" y="160" fill="#018146" /><rect width="10" height="10" x="140" y="160" fill="#068940" /><rect width="10" height="10" x="150" y="160" fill="#f83001" /><rect width="10" height="10" x="160" y="160" fill="#018146" /><rect width="10" height="10" x="170" y="160" fill="#068940" /><rect width="10" height="10" x="180" y="160" fill="#f83001" /><rect width="10" height="10" x="190" y="160" fill="#018146" /><rect width="10" height="10" x="200" y="160" fill="#068940" /><rect width="10" height="10" x="210" y="160" fill="#f83001" /><rect width="10" height="10" x="220" y="160" fill="#018146" /><rect width="10" height="10" x="230" y="160" fill="#068940" /><rect width="10" height="10" x="240" y="160" fill="#018146" /><rect width="10" height="10" x="250" y="160" fill="#068940" /><rect width="10" height="10" x="260" y="160" fill="#f83001" /><rect width="10" height="10" x="270" y="160" fill="#ffffff" /><rect width="10" height="10" x="30" y="170" fill="#343235" /><rect width="10" height="10" x="40" y="170" fill="#f83001" /><rect width="10" height="10" x="50" y="170" fill="#018146" /><rect width="10" height="10" x="60" y="170" fill="#068940" /><rect width="10" height="10" x="70" y="170" fill="#018146" /><rect width="10" height="10" x="80" y="170" fill="#068940" /><rect width="10" height="10" x="90" y="170" fill="#f83001" /><rect width="10" height="10" x="100" y="170" fill="#018146" /><rect width="10" height="10" x="110" y="170" fill="#068940" /><rect width="10" height="10" x="120" y="170" fill="#f83001" /><rect width="10" height="10" x="130" y="170" fill="#018146" /><rect width="10" height="10" x="140" y="170" fill="#068940" /><rect width="10" height="10" x="150" y="170" fill="#f83001" /><rect width="10" height="10" x="160" y="170" fill="#018146" /><rect width="10" height="10" x="170" y="170" fill="#068940" /><rect width="10" height="10" x="180" y="170" fill="#f83001" /><rect width="10" height="10" x="190" y="170" fill="#018146" /><rect width="10" height="10" x="200" y="170" fill="#068940" /><rect width="10" height="10" x="210" y="170" fill="#f83001" /><rect width="10" height="10" x="220" y="170" fill="#018146" /><rect width="10" height="10" x="230" y="170" fill="#068940" /><rect width="10" height="10" x="240" y="170" fill="#018146" /><rect width="10" height="10" x="250" y="170" fill="#068940" /><rect width="10" height="10" x="260" y="170" fill="#f83001" /><rect width="10" height="10" x="270" y="170" fill="#343235" /><rect width="10" height="10" x="30" y="180" fill="#ffffff" /><rect width="10" height="10" x="40" y="180" fill="#f83001" /><rect width="10" height="10" x="50" y="180" fill="#018146" /><rect width="10" height="10" x="60" y="180" fill="#068940" /><rect width="10" height="10" x="70" y="180" fill="#018146" /><rect width="10" height="10" x="80" y="180" fill="#068940" /><rect width="10" height="10" x="90" y="180" fill="#f83001" /><rect width="10" height="10" x="100" y="180" fill="#018146" /><rect width="10" height="10" x="110" y="180" fill="#068940" /><rect width="10" height="10" x="120" y="180" fill="#f83001" /><rect width="10" height="10" x="130" y="180" fill="#018146" /><rect width="10" height="10" x="140" y="180" fill="#068940" /><rect width="10" height="10" x="150" y="180" fill="#f83001" /><rect width="10" height="10" x="160" y="180" fill="#018146" /><rect width="10" height="10" x="170" y="180" fill="#068940" /><rect width="10" height="10" x="180" y="180" fill="#f83001" /><rect width="10" height="10" x="190" y="180" fill="#018146" /><rect width="10" height="10" x="200" y="180" fill="#068940" /><rect width="10" height="10" x="210" y="180" fill="#f83001" /><rect width="10" height="10" x="220" y="180" fill="#018146" /><rect width="10" height="10" x="230" y="180" fill="#068940" /><rect width="10" height="10" x="240" y="180" fill="#018146" /><rect width="10" height="10" x="250" y="180" fill="#068940" /><rect width="10" height="10" x="260" y="180" fill="#f83001" /><rect width="10" height="10" x="270" y="180" fill="#ffffff" /><rect width="10" height="10" x="30" y="190" fill="#ffffff" /><rect width="10" height="10" x="40" y="190" fill="#ffe939" /><rect width="40" height="10" x="50" y="190" fill="#ffffff" /><rect width="10" height="10" x="90" y="190" fill="#ffe939" /><rect width="20" height="10" x="100" y="190" fill="#f83001" /><rect width="10" height="10" x="120" y="190" fill="#ffe939" /><rect width="10" height="10" x="130" y="190" fill="#018146" /><rect width="10" height="10" x="140" y="190" fill="#068940" /><rect width="10" height="10" x="150" y="190" fill="#f83001" /><rect width="10" height="10" x="160" y="190" fill="#018146" /><rect width="10" height="10" x="170" y="190" fill="#068940" /><rect width="10" height="10" x="180" y="190" fill="#ffe939" /><rect width="20" height="10" x="190" y="190" fill="#f83001" /><rect width="10" height="10" x="210" y="190" fill="#ffe939" /><rect width="40" height="10" x="220" y="190" fill="#ffffff" /><rect width="10" height="10" x="260" y="190" fill="#ffe939" /><rect width="10" height="10" x="270" y="190" fill="#ffffff" /><rect width="130" height="10" x="20" y="200" fill="#f83001" /><rect width="10" height="10" x="150" y="200" fill="#ffe939" /><rect width="130" height="10" x="160" y="200" fill="#f83001" /><rect width="50" height="10" x="40" y="210" fill="#f83001" /><rect width="10" height="10" x="90" y="210" fill="#ffe939" /><rect width="20" height="10" x="100" y="210" fill="#f83001" /><rect width="10" height="10" x="120" y="210" fill="#ffe939" /><rect width="50" height="10" x="130" y="210" fill="#f83001" /><rect width="10" height="10" x="180" y="210" fill="#ffe939" /><rect width="20" height="10" x="190" y="210" fill="#f83001" /><rect width="10" height="10" x="210" y="210" fill="#ffe939" /><rect width="50" height="10" x="220" y="210" fill="#f83001" /><rect width="60" height="10" x="100" y="110" fill="#068940" /><rect width="60" height="10" x="170" y="110" fill="#257ced" /><rect width="10" height="10" x="100" y="120" fill="#068940" /><rect width="20" height="10" x="110" y="120" fill="#ffffff" /><rect width="20" height="10" x="130" y="120" fill="#000000" /><rect width="10" height="10" x="150" y="120" fill="#068940" /><rect width="10" height="10" x="170" y="120" fill="#257ced" /><rect width="20" height="10" x="180" y="120" fill="#ffffff" /><rect width="20" height="10" x="200" y="120" fill="#000000" /><rect width="10" height="10" x="220" y="120" fill="#257ced" /><rect width="30" height="10" x="70" y="130" fill="#254efb" /><rect width="10" height="10" x="100" y="130" fill="#068940" /><rect width="20" height="10" x="110" y="130" fill="#ffffff" /><rect width="20" height="10" x="130" y="130" fill="#000000" /><rect width="10" height="10" x="150" y="130" fill="#068940" /><rect width="10" height="10" x="160" y="130" fill="#254efb" /><rect width="10" height="10" x="170" y="130" fill="#257ced" /><rect width="20" height="10" x="180" y="130" fill="#ffffff" /><rect width="20" height="10" x="200" y="130" fill="#000000" /><rect width="10" height="10" x="220" y="130" fill="#257ced" /><rect width="10" height="10" x="70" y="140" fill="#257ced" /><rect width="10" height="10" x="100" y="140" fill="#068940" /><rect width="20" height="10" x="110" y="140" fill="#ffffff" /><rect width="20" height="10" x="130" y="140" fill="#000000" /><rect width="10" height="10" x="150" y="140" fill="#068940" /><rect width="10" height="10" x="170" y="140" fill="#257ced" /><rect width="20" height="10" x="180" y="140" fill="#ffffff" /><rect width="20" height="10" x="200" y="140" fill="#000000" /><rect width="10" height="10" x="220" y="140" fill="#257ced" /><rect width="10" height="10" x="70" y="150" fill="#257ced" /><rect width="10" height="10" x="100" y="150" fill="#068940" /><rect width="20" height="10" x="110" y="150" fill="#ffffff" /><rect width="20" height="10" x="130" y="150" fill="#000000" /><rect width="10" height="10" x="150" y="150" fill="#068940" /><rect width="10" height="10" x="170" y="150" fill="#257ced" /><rect width="20" height="10" x="180" y="150" fill="#ffffff" /><rect width="20" height="10" x="200" y="150" fill="#000000" /><rect width="10" height="10" x="220" y="150" fill="#257ced" /><rect width="60" height="10" x="100" y="160" fill="#068940" /><rect width="60" height="10" x="170" y="160" fill="#257ced" /></svg>