<svg viewBox="0 0 320 320" xmlns="http://www.w3.org/2000/svg" shape-rendering="crispEdges"><rect width="100%" height="100%" fill="#e1d7d5" /><rect width="140" height="10" x="90" y="210" fill="#1f1d29" /><rect width="140" height="10" x="90" y="220" fill="#1f1d29" /><rect width="140" height="10" x="90" y="230" fill="#1f1d29" /><rect width="140" height="10" x="90" y="240" fill="#1f1d29" /><rect width="20" height="10" x="90" y="250" fill="#1f1d29" /><rect width="110" height="10" x="120" y="250" fill="#1f1d29" /><rect width="20" height="10" x="90" y="260" fill="#1f1d29" /><rect width="110" height="10" x="120" y="260" fill="#1f1d29" /><rect width="20" height="10" x="90" y="270" fill="#1f1d29" /><rect width="110" height="10" x="120" y="270" fill="#1f1d29" /><rect width="20" height="10" x="90" y="280" fill="#1f1d29" /><rect width="110" height="10" x="120" y="280" fill="#1f1d29" /><rect width="20" height="10" x="90" y="290" fill="#1f1d29" /><rect width="110" height="10" x="120" y="290" fill="#1f1d29" /><rect width="20" height="10" x="90" y="300" fill="#1f1d29" /><rect width="110" height="10" x="120" y="300" fill="#1f1d29" /><rect width="20" height="10" x="90" y="310" fill="#1f1d29" /><rect width="110" height="10" x="120" y="310" fill="#1f1d29" /><rect width="10" height="10" x="180" y="240" fill="#1f1d29" /><rect width="20" height="10" x="150" y="250" fill="#fee3f3" /><rect width="10" height="10" x="170" y="250" fill="#1f1d29" /><rect width="10" height="10" x="180" y="250" fill="#fee3f3" /><rect width="10" height="10" x="140" y="260" fill="#fee3f3" /><rect width="60" height="10" x="130" y="40" fill="#d32a09" /><rect width="100" height="10" x="110" y="50" fill="#d32a09" /><rect width="140" height="10" x="90" y="60" fill="#d32a09" /><rect width="50" height="10" x="80" y="70" fill="#d32a09" /><rect width="60" height="10" x="130" y="70" fill="#4d271b" /><rect width="50" height="10" x="190" y="70" fill="#d32a09" /><rect width="40" height="10" x="70" y="80" fill="#d32a09" /><rect width="30" height="10" x="110" y="80" fill="#4d271b" /><rect width="20" height="10" x="140" y="80" fill="#eeb78c" /><rect width="50" height="10" x="160" y="80" fill="#4d271b" /><rect width="40" height="10" x="210" y="80" fill="#d32a09" /><rect width="30" height="10" x="60" y="90" fill="#d32a09" /><rect width="30" height="10" x="90" y="90" fill="#4d271b" /><rect width="10" height="10" x="120" y="90" fill="#f8ddb0" /><rect width="30" height="10" x="130" y="90" fill="#eeb78c" /><rect width="30" height="10" x="160" y="90" fill="#fbc800" /><rect width="40" height="10" x="190" y="90" fill="#4d271b" /><rect width="30" height="10" x="230" y="90" fill="#d32a09" /><rect width="20" height="10" x="60" y="100" fill="#d32a09" /><rect width="20" height="10" x="80" y="100" fill="#4d271b" /><rect width="10" height="10" x="100" y="100" fill="#f8ddb0" /><rect width="30" height="10" x="110" y="100" fill="#eeb78c" /><rect width="20" height="10" x="140" y="100" fill="#ffffff" /><rect width="20" height="10" x="160" y="100" fill="#c4da53" /><rect width="10" height="10" x="180" y="100" fill="#ffffff" /><rect width="30" height="10" x="190" y="100" fill="#fbc800" /><rect width="20" height="10" x="220" y="100" fill="#4d271b" /><rect width="20" height="10" x="240" y="100" fill="#d32a09" /><rect width="30" height="10" x="50" y="110" fill="#d32a09" /><rect width="20" height="10" x="80" y="110" fill="#4d271b" /><rect width="10" height="10" x="100" y="110" fill="#f8ddb0" /><rect width="20" height="10" x="110" y="110" fill="#eeb78c" /><rect width="70" height="10" x="130" y="110" fill="#ffffff" /><rect width="30" height="10" x="200" y="110" fill="#fbc800" /><rect width="10" height="10" x="230" y="110" fill="#4d271b" /><rect width="30" height="10" x="240" y="110" fill="#d32a09" /><rect width="20" height="10" x="50" y="120" fill="#d32a09" /><rect width="20" height="10" x="70" y="120" fill="#4d271b" /><rect width="10" height="10" x="90" y="120" fill="#f8ddb0" /><rect width="30" height="10" x="100" y="120" fill="#eeb78c" /><rect width="80" height="10" x="130" y="120" fill="#c4da53" /><rect width="20" height="10" x="210" y="120" fill="#fbc800" /><rect width="20" height="10" x="230" y="120" fill="#4d271b" /><rect width="20" height="10" x="250" y="120" fill="#d32a09" /><rect width="20" height="10" x="50" y="130" fill="#d32a09" /><rect width="20" height="10" x="70" y="130" fill="#4d271b" /><rect width="10" height="10" x="90" y="130" fill="#f8ddb0" /><rect width="20" height="10" x="100" y="130" fill="#eeb78c" /><rect width="90" height="10" x="120" y="130" fill="#c4da53" /><rect width="30" height="10" x="210" y="130" fill="#fbc800" /><rect width="10" height="10" x="240" y="130" fill="#4d271b" /><rect width="20" height="10" x="250" y="130" fill="#d32a09" /><rect width="20" height="10" x="50" y="140" fill="#d32a09" /><rect width="20" height="10" x="70" y="140" fill="#4d271b" /><rect width="30" height="10" x="90" y="140" fill="#eeb78c" /><rect width="80" height="10" x="120" y="140" fill="#ffffff" /><rect width="40" height="10" x="200" y="140" fill="#fbc800" /><rect width="10" height="10" x="240" y="140" fill="#4d271b" /><rect width="20" height="10" x="250" y="140" fill="#d32a09" /><rect width="30" height="10" x="50" y="150" fill="#d32a09" /><rect width="10" height="10" x="80" y="150" fill="#4d271b" /><rect width="40" height="10" x="90" y="150" fill="#eeb78c" /><rect width="60" height="10" x="130" y="150" fill="#c4da53" /><rect width="40" height="10" x="190" y="150" fill="#fbc800" /><rect width="10" height="10" x="230" y="150" fill="#4d271b" /><rect width="30" height="10" x="240" y="150" fill="#d32a09" /><rect width="20" height="10" x="60" y="160" fill="#d32a09" /><rect width="20" height="10" x="80" y="160" fill="#4d271b" /><rect width="40" height="10" x="100" y="160" fill="#eeb78c" /><rect width="40" height="10" x="140" y="160" fill="#ffffff" /><rect width="40" height="10" x="180" y="160" fill="#fbc800" /><rect width="20" height="10" x="220" y="160" fill="#4d271b" /><rect width="20" height="10" x="240" y="160" fill="#d32a09" /><rect width="30" height="10" x="60" y="170" fill="#d32a09" /><rect width="10" height="10" x="90" y="170" fill="#4d271b" /><rect width="10" height="10" x="100" y="170" fill="#f8ddb0" /><rect width="50" height="10" x="110" y="170" fill="#eeb78c" /><rect width="70" height="10" x="160" y="170" fill="#4d271b" /><rect width="30" height="10" x="230" y="170" fill="#d32a09" /><rect width="30" height="10" x="70" y="180" fill="#d32a09" /><rect width="10" height="10" x="100" y="180" fill="#4d271b" /><rect width="10" height="10" x="110" y="180" fill="#f8ddb0" /><rect width="30" height="10" x="120" y="180" fill="#eeb78c" /><rect width="20" height="10" x="150" y="180" fill="#4d271b" /><rect width="30" height="10" x="170" y="180" fill="#fbc800" /><rect width="20" height="10" x="200" y="180" fill="#4d271b" /><rect width="30" height="10" x="220" y="180" fill="#d32a09" /><rect width="30" height="10" x="80" y="190" fill="#d32a09" /><rect width="40" height="10" x="110" y="190" fill="#4d271b" /><rect width="30" height="10" x="150" y="190" fill="#fbc800" /><rect width="30" height="10" x="180" y="190" fill="#4d271b" /><rect width="30" height="10" x="210" y="190" fill="#d32a09" /><rect width="40" height="10" x="90" y="200" fill="#d32a09" /><rect width="60" height="10" x="130" y="200" fill="#4d271b" /><rect width="40" height="10" x="190" y="200" fill="#d32a09" /><rect width="100" height="10" x="110" y="210" fill="#d32a09" /><rect width="60" height="10" x="100" y="110" fill="#ff638d" /><rect width="60" height="10" x="170" y="110" fill="#ff638d" /><rect width="10" height="10" x="100" y="120" fill="#ff638d" /><rect width="20" height="10" x="110" y="120" fill="#ffffff" /><rect width="20" height="10" x="130" y="120" fill="#000000" /><rect width="10" height="10" x="150" y="120" fill="#ff638d" /><rect width="10" height="10" x="170" y="120" fill="#ff638d" /><rect width="20" height="10" x="180" y="120" fill="#ffffff" /><rect width="20" height="10" x="200" y="120" fill="#000000" /><rect width="10" height="10" x="220" y="120" fill="#ff638d" /><rect width="40" height="10" x="70" y="130" fill="#ff638d" /><rect width="20" height="10" x="110" y="130" fill="#ffffff" /><rect width="20" height="10" x="130" y="130" fill="#000000" /><rect width="30" height="10" x="150" y="130" fill="#ff638d" /><rect width="20" height="10" x="180" y="130" fill="#ffffff" /><rect width="20" height="10" x="200" y="130" fill="#000000" /><rect width="10" height="10" x="220" y="130" fill="#ff638d" /><rect width="40" height="10" x="70" y="140" fill="#ff638d" /><rect width="20" height="10" x="110" y="140" fill="#ffffff" /><rect width="20" height="10" x="130" y="140" fill="#000000" /><rect width="30" height="10" x="150" y="140" fill="#ff638d" /><rect width="20" height="10" x="180" y="140" fill="#ffffff" /><rect width="20" height="10" x="200" y="140" fill="#000000" /><rect width="10" height="10" x="220" y="140" fill="#ff638d" /><rect width="10" height="10" x="70" y="150" fill="#ff638d" /><rect width="10" height="10" x="100" y="150" fill="#ff638d" /><rect width="20" height="10" x="110" y="150" fill="#ffffff" /><rect width="20" height="10" x="130" y="150" fill="#000000" /><rect width="10" height="10" x="150" y="150" fill="#ff638d" /><rect width="10" height="10" x="170" y="150" fill="#ff638d" /><rect width="20" height="10" x="180" y="150" fill="#ffffff" /><rect width="20" height="10" x="200" y="150" fill="#000000" /><rect width="10" height="10" x="220" y="150" fill="#ff638d" /><rect width="60" height="10" x="100" y="160" fill="#ff638d" /><rect width="60" height="10" x="170" y="160" fill="#ff638d" /></svg>