<svg viewBox="0 0 320 320" xmlns="http://www.w3.org/2000/svg" shape-rendering="crispEdges"><rect width="100%" height="100%" fill="#e1d7d5" /><rect width="140" height="10" x="90" y="210" fill="#5a65fa" /><rect width="140" height="10" x="90" y="220" fill="#5a65fa" /><rect width="140" height="10" x="90" y="230" fill="#5a65fa" /><rect width="140" height="10" x="90" y="240" fill="#5a65fa" /><rect width="20" height="10" x="90" y="250" fill="#5a65fa" /><rect width="110" height="10" x="120" y="250" fill="#5a65fa" /><rect width="20" height="10" x="90" y="260" fill="#5a65fa" /><rect width="110" height="10" x="120" y="260" fill="#5a65fa" /><rect width="20" height="10" x="90" y="270" fill="#5a65fa" /><rect width="110" height="10" x="120" y="270" fill="#5a65fa" /><rect width="20" height="10" x="90" y="280" fill="#5a65fa" /><rect width="110" height="10" x="120" y="280" fill="#5a65fa" /><rect width="20" height="10" x="90" y="290" fill="#5a65fa" /><rect width="110" height="10" x="120" y="290" fill="#5a65fa" /><rect width="20" height="10" x="90" y="300" fill="#5a65fa" /><rect width="110" height="10" x="120" y="300" fill="#5a65fa" /><rect width="20" height="10" x="90" y="310" fill="#5a65fa" /><rect width="110" height="10" x="120" y="310" fill="#5a65fa" /><rect width="30" height="10" x="200" y="230" fill="#909b0e" /><rect width="30" height="10" x="200" y="240" fill="#3f9323" /><rect width="70" height="10" x="160" y="250" fill="#909b0e" /><rect width="70" height="10" x="160" y="260" fill="#3f9323" /><rect width="80" height="10" x="120" y="270" fill="#909b0e" /><rect width="80" height="10" x="120" y="280" fill="#3f9323" /><rect width="40" height="10" x="120" y="290" fill="#909b0e" /><rect width="40" height="10" x="120" y="300" fill="#3f9323" /><rect width="20" height="10" x="220" y="30" fill="#769ca9" /><rect width="40" height="10" x="70" y="40" fill="#000000" /><rect width="10" height="10" x="220" y="40" fill="#5a6b7b" /><rect width="20" height="10" x="230" y="40" fill="#769ca9" /><rect width="20" height="10" x="60" y="50" fill="#000000" /><rect width="10" height="10" x="80" y="50" fill="#395ed1" /><rect width="10" height="10" x="90" y="50" fill="#ffffff" /><rect width="20" height="10" x="100" y="50" fill="#000000" /><rect width="20" height="10" x="210" y="50" fill="#000000" /><rect width="10" height="10" x="230" y="50" fill="#5a6b7b" /><rect width="20" height="10" x="240" y="50" fill="#769ca9" /><rect width="10" height="10" x="50" y="60" fill="#9eb5e1" /><rect width="20" height="10" x="60" y="60" fill="#000000" /><rect width="20" height="10" x="80" y="60" fill="#ffffff" /><rect width="30" height="10" x="100" y="60" fill="#000000" /><rect width="30" height="10" x="200" y="60" fill="#000000" /><rect width="20" height="10" x="230" y="60" fill="#5a6b7b" /><rect width="10" height="10" x="250" y="60" fill="#769ca9" /><rect width="10" height="10" x="50" y="70" fill="#5a6b7b" /><rect width="10" height="10" x="60" y="70" fill="#9eb5e1" /><rect width="60" height="10" x="70" y="70" fill="#000000" /><rect width="30" height="10" x="190" y="70" fill="#000000" /><rect width="10" height="10" x="50" y="80" fill="#9eb5e1" /><rect width="10" height="10" x="60" y="80" fill="#5a6b7b" /><rect width="10" height="10" x="70" y="80" fill="#9eb5e1" /><rect width="20" height="10" x="80" y="80" fill="#000000" /><rect width="20" height="10" x="100" y="80" fill="#769ca9" /><rect width="10" height="10" x="120" y="80" fill="#000000" /><rect width="30" height="10" x="180" y="80" fill="#000000" /><rect width="10" height="10" x="60" y="90" fill="#9eb5e1" /><rect width="30" height="10" x="70" y="90" fill="#000000" /><rect width="20" height="10" x="100" y="90" fill="#5a6b7b" /><rect width="10" height="10" x="120" y="90" fill="#000000" /><rect width="50" height="10" x="180" y="90" fill="#000000" /><rect width="60" height="10" x="70" y="100" fill="#000000" /><rect width="60" height="10" x="180" y="100" fill="#000000" /><rect width="50" height="10" x="80" y="110" fill="#000000" /><rect width="60" height="10" x="190" y="110" fill="#000000" /><rect width="50" height="10" x="80" y="120" fill="#000000" /><rect width="50" height="10" x="210" y="120" fill="#000000" /><rect width="50" height="10" x="80" y="130" fill="#000000" /><rect width="40" height="10" x="220" y="130" fill="#000000" /><rect width="50" height="10" x="80" y="140" fill="#000000" /><rect width="40" height="10" x="220" y="140" fill="#000000" /><rect width="60" height="10" x="80" y="150" fill="#000000" /><rect width="40" height="10" x="210" y="150" fill="#000000" /><rect width="170" height="10" x="80" y="160" fill="#000000" /><rect width="150" height="10" x="90" y="170" fill="#000000" /><rect width="150" height="10" x="90" y="180" fill="#000000" /><rect width="130" height="10" x="100" y="190" fill="#000000" /><rect width="100" height="10" x="110" y="200" fill="#000000" /><rect width="60" height="10" x="100" y="110" fill="#000000" /><rect width="60" height="10" x="170" y="110" fill="#000000" /><rect width="30" height="10" x="100" y="120" fill="#000000" /><rect width="10" height="10" x="130" y="120" fill="#ff0e0e" /><rect width="20" height="10" x="140" y="120" fill="#000000" /><rect width="30" height="10" x="170" y="120" fill="#000000" /><rect width="10" height="10" x="200" y="120" fill="#ff0e0e" /><rect width="20" height="10" x="210" y="120" fill="#000000" /><rect width="160" height="10" x="70" y="130" fill="#000000" /><rect width="10" height="10" x="70" y="140" fill="#000000" /><rect width="10" height="10" x="100" y="140" fill="#000000" /><rect width="10" height="10" x="110" y="140" fill="#0adc4d" /><rect width="20" height="10" x="120" y="140" fill="#000000" /><rect width="10" height="10" x="140" y="140" fill="#1929f4" /><rect width="10" height="10" x="150" y="140" fill="#000000" /><rect width="10" height="10" x="170" y="140" fill="#000000" /><rect width="10" height="10" x="180" y="140" fill="#0adc4d" /><rect width="20" height="10" x="190" y="140" fill="#000000" /><rect width="10" height="10" x="210" y="140" fill="#1929f4" /><rect width="10" height="10" x="220" y="140" fill="#000000" /><rect width="10" height="10" x="70" y="150" fill="#000000" /><rect width="60" height="10" x="100" y="150" fill="#000000" /><rect width="60" height="10" x="170" y="150" fill="#000000" /><rect width="60" height="10" x="100" y="160" fill="#000000" /><rect width="60" height="10" x="170" y="160" fill="#000000" /></svg>