<svg viewBox="0 0 320 320" xmlns="http://www.w3.org/2000/svg" shape-rendering="crispEdges"><rect width="100%" height="100%" fill="#e1d7d5" /><rect width="140" height="10" x="90" y="210" fill="#34ac80" /><rect width="140" height="10" x="90" y="220" fill="#34ac80" /><rect width="140" height="10" x="90" y="230" fill="#34ac80" /><rect width="140" height="10" x="90" y="240" fill="#34ac80" /><rect width="20" height="10" x="90" y="250" fill="#34ac80" /><rect width="110" height="10" x="120" y="250" fill="#34ac80" /><rect width="20" height="10" x="90" y="260" fill="#34ac80" /><rect width="110" height="10" x="120" y="260" fill="#34ac80" /><rect width="20" height="10" x="90" y="270" fill="#34ac80" /><rect width="110" height="10" x="120" y="270" fill="#34ac80" /><rect width="20" height="10" x="90" y="280" fill="#34ac80" /><rect width="110" height="10" x="120" y="280" fill="#34ac80" /><rect width="20" height="10" x="90" y="290" fill="#34ac80" /><rect width="110" height="10" x="120" y="290" fill="#34ac80" /><rect width="20" height="10" x="90" y="300" fill="#34ac80" /><rect width="110" height="10" x="120" y="300" fill="#34ac80" /><rect width="20" height="10" x="90" y="310" fill="#34ac80" /><rect width="110" height="10" x="120" y="310" fill="#34ac80" /><rect width="10" height="10" x="150" y="240" fill="#8dd122" /><rect width="10" height="10" x="160" y="240" fill="#ffffff" /><rect width="10" height="10" x="170" y="240" fill="#8dd122" /><rect width="10" height="10" x="140" y="250" fill="#ffffff" /><rect width="30" height="10" x="150" y="250" fill="#2b2834" /><rect width="10" height="10" x="180" y="250" fill="#ffffff" /><rect width="10" height="10" x="140" y="260" fill="#8dd122" /><rect width="30" height="10" x="150" y="260" fill="#2b2834" /><rect width="10" height="10" x="180" y="260" fill="#8dd122" /><rect width="10" height="10" x="140" y="270" fill="#ffffff" /><rect width="10" height="10" x="160" y="270" fill="#2b2834" /><rect width="10" height="10" x="180" y="270" fill="#ffffff" /><rect width="10" height="10" x="150" y="280" fill="#8dd122" /><rect width="10" height="10" x="160" y="280" fill="#ffffff" /><rect width="10" height="10" x="170" y="280" fill="#8dd122" /><rect width="10" height="10" x="160" y="10" fill="#552e05" /><rect width="10" height="10" x="160" y="30" fill="#552e05" /><rect width="10" height="10" x="160" y="40" fill="#552e05" /><rect width="30" height="10" x="120" y="50" fill="#343235" /><rect width="30" height="10" x="150" y="50" fill="#552e05" /><rect width="30" height="10" x="180" y="50" fill="#343235" /><rect width="10" height="10" x="110" y="60" fill="#343235" /><rect width="10" height="10" x="120" y="60" fill="#fffdf2" /><rect width="10" height="10" x="130" y="60" fill="#343235" /><rect width="10" height="10" x="140" y="60" fill="#552e05" /><rect width="10" height="10" x="150" y="60" fill="#343235" /><rect width="10" height="10" x="160" y="60" fill="#fffdf2" /><rect width="10" height="10" x="170" y="60" fill="#343235" /><rect width="10" height="10" x="180" y="60" fill="#552e05" /><rect width="10" height="10" x="190" y="60" fill="#343235" /><rect width="10" height="10" x="200" y="60" fill="#fffdf2" /><rect width="10" height="10" x="210" y="60" fill="#343235" /><rect width="30" height="10" x="110" y="70" fill="#343235" /><rect width="10" height="10" x="140" y="70" fill="#552e05" /><rect width="30" height="10" x="150" y="70" fill="#343235" /><rect width="10" height="10" x="180" y="70" fill="#552e05" /><rect width="30" height="10" x="190" y="70" fill="#343235" /><rect width="10" height="10" x="60" y="80" fill="#552e05" /><rect width="110" height="10" x="110" y="80" fill="#f83001" /><rect width="10" height="10" x="260" y="80" fill="#552e05" /><rect width="10" height="10" x="110" y="90" fill="#f83001" /><rect width="20" height="10" x="120" y="90" fill="#fffdf2" /><rect width="10" height="10" x="140" y="90" fill="#f83001" /><rect width="30" height="10" x="150" y="90" fill="#fffdf2" /><rect width="10" height="10" x="180" y="90" fill="#f83001" /><rect width="20" height="10" x="190" y="90" fill="#fffdf2" /><rect width="10" height="10" x="210" y="90" fill="#f83001" /><rect width="10" height="10" x="60" y="100" fill="#552e05" /><rect width="40" height="10" x="100" y="100" fill="#343235" /><rect width="10" height="10" x="140" y="100" fill="#552e05" /><rect width="30" height="10" x="150" y="100" fill="#343235" /><rect width="10" height="10" x="180" y="100" fill="#552e05" /><rect width="40" height="10" x="190" y="100" fill="#343235" /><rect width="10" height="10" x="260" y="100" fill="#552e05" /><rect width="30" height="10" x="50" y="110" fill="#552e05" /><rect width="10" height="10" x="90" y="110" fill="#343235" /><rect width="10" height="10" x="100" y="110" fill="#fffdf2" /><rect width="20" height="10" x="110" y="110" fill="#343235" /><rect width="10" height="10" x="130" y="110" fill="#552e05" /><rect width="10" height="10" x="140" y="110" fill="#343235" /><rect width="10" height="10" x="150" y="110" fill="#f83001" /><rect width="10" height="10" x="160" y="110" fill="#fffdf2" /><rect width="10" height="10" x="170" y="110" fill="#f83001" /><rect width="10" height="10" x="180" y="110" fill="#343235" /><rect width="10" height="10" x="190" y="110" fill="#552e05" /><rect width="20" height="10" x="200" y="110" fill="#343235" /><rect width="10" height="10" x="220" y="110" fill="#fffdf2" /><rect width="10" height="10" x="230" y="110" fill="#343235" /><rect width="30" height="10" x="250" y="110" fill="#552e05" /><rect width="30" height="10" x="50" y="120" fill="#f83001" /><rect width="30" height="10" x="80" y="120" fill="#343235" /><rect width="10" height="10" x="110" y="120" fill="#6e3206" /><rect width="10" height="10" x="120" y="120" fill="#552e05" /><rect width="20" height="10" x="130" y="120" fill="#343235" /><rect width="30" height="10" x="150" y="120" fill="#f83001" /><rect width="20" height="10" x="180" y="120" fill="#343235" /><rect width="10" height="10" x="200" y="120" fill="#552e05" /><rect width="10" height="10" x="210" y="120" fill="#6e3206" /><rect width="30" height="10" x="220" y="120" fill="#343235" /><rect width="30" height="10" x="250" y="120" fill="#f83001" /><rect width="10" height="10" x="50" y="130" fill="#fffdf2" /><rect width="20" height="10" x="60" y="130" fill="#f83001" /><rect width="10" height="10" x="80" y="130" fill="#fffdf2" /><rect width="10" height="10" x="90" y="130" fill="#f83001" /><rect width="10" height="10" x="100" y="130" fill="#fffdf2" /><rect width="10" height="10" x="110" y="130" fill="#ffffff" /><rect width="10" height="10" x="120" y="130" fill="#f83001" /><rect width="10" height="10" x="130" y="130" fill="#fffdf2" /><rect width="10" height="10" x="140" y="130" fill="#f83001" /><rect width="30" height="10" x="150" y="130" fill="#fffdf2" /><rect width="10" height="10" x="180" y="130" fill="#f83001" /><rect width="10" height="10" x="190" y="130" fill="#fffdf2" /><rect width="10" height="10" x="200" y="130" fill="#f83001" /><rect width="10" height="10" x="210" y="130" fill="#ffffff" /><rect width="10" height="10" x="220" y="130" fill="#fffdf2" /><rect width="10" height="10" x="230" y="130" fill="#f83001" /><rect width="10" height="10" x="240" y="130" fill="#fffdf2" /><rect width="20" height="10" x="250" y="130" fill="#f83001" /><rect width="10" height="10" x="270" y="130" fill="#fffdf2" /><rect width="10" height="10" x="50" y="140" fill="#fffdf2" /><rect width="20" height="10" x="60" y="140" fill="#f83001" /><rect width="10" height="10" x="80" y="140" fill="#fffdf2" /><rect width="10" height="10" x="90" y="140" fill="#f83001" /><rect width="10" height="10" x="100" y="140" fill="#fffdf2" /><rect width="10" height="10" x="110" y="140" fill="#ffffff" /><rect width="10" height="10" x="120" y="140" fill="#f83001" /><rect width="10" height="10" x="130" y="140" fill="#fffdf2" /><rect width="10" height="10" x="140" y="140" fill="#f83001" /><rect width="30" height="10" x="150" y="140" fill="#fffdf2" /><rect width="10" height="10" x="180" y="140" fill="#f83001" /><rect width="10" height="10" x="190" y="140" fill="#fffdf2" /><rect width="10" height="10" x="200" y="140" fill="#f83001" /><rect width="10" height="10" x="210" y="140" fill="#ffffff" /><rect width="10" height="10" x="220" y="140" fill="#fffdf2" /><rect width="10" height="10" x="230" y="140" fill="#f83001" /><rect width="10" height="10" x="240" y="140" fill="#fffdf2" /><rect width="20" height="10" x="250" y="140" fill="#f83001" /><rect width="10" height="10" x="270" y="140" fill="#fffdf2" /><rect width="60" height="10" x="50" y="150" fill="#f83001" /><rect width="10" height="10" x="110" y="150" fill="#ffffff" /><rect width="90" height="10" x="120" y="150" fill="#f83001" /><rect width="10" height="10" x="210" y="150" fill="#ffffff" /><rect width="60" height="10" x="220" y="150" fill="#f83001" /><rect width="10" height="10" x="50" y="160" fill="#fffdf2" /><rect width="20" height="10" x="60" y="160" fill="#f83001" /><rect width="10" height="10" x="80" y="160" fill="#fffdf2" /><rect width="10" height="10" x="90" y="160" fill="#f83001" /><rect width="10" height="10" x="100" y="160" fill="#fffdf2" /><rect width="20" height="10" x="110" y="160" fill="#f83001" /><rect width="10" height="10" x="130" y="160" fill="#fffdf2" /><rect width="10" height="10" x="140" y="160" fill="#f83001" /><rect width="30" height="10" x="150" y="160" fill="#fffdf2" /><rect width="10" height="10" x="180" y="160" fill="#f83001" /><rect width="10" height="10" x="190" y="160" fill="#fffdf2" /><rect width="20" height="10" x="200" y="160" fill="#f83001" /><rect width="10" height="10" x="220" y="160" fill="#fffdf2" /><rect width="10" height="10" x="230" y="160" fill="#f83001" /><rect width="10" height="10" x="240" y="160" fill="#fffdf2" /><rect width="20" height="10" x="250" y="160" fill="#f83001" /><rect width="10" height="10" x="270" y="160" fill="#fffdf2" /><rect width="10" height="10" x="50" y="170" fill="#fffdf2" /><rect width="20" height="10" x="60" y="170" fill="#f83001" /><rect width="10" height="10" x="80" y="170" fill="#fffdf2" /><rect width="10" height="10" x="90" y="170" fill="#f83001" /><rect width="10" height="10" x="100" y="170" fill="#fffdf2" /><rect width="20" height="10" x="110" y="170" fill="#f83001" /><rect width="10" height="10" x="130" y="170" fill="#fffdf2" /><rect width="10" height="10" x="140" y="170" fill="#f83001" /><rect width="30" height="10" x="150" y="170" fill="#fffdf2" /><rect width="10" height="10" x="180" y="170" fill="#f83001" /><rect width="10" height="10" x="190" y="170" fill="#fffdf2" /><rect width="20" height="10" x="200" y="170" fill="#f83001" /><rect width="10" height="10" x="220" y="170" fill="#fffdf2" /><rect width="10" height="10" x="230" y="170" fill="#f83001" /><rect width="10" height="10" x="240" y="170" fill="#fffdf2" /><rect width="20" height="10" x="250" y="170" fill="#f83001" /><rect width="10" height="10" x="270" y="170" fill="#fffdf2" /><rect width="230" height="10" x="50" y="180" fill="#343235" /><rect width="10" height="10" x="50" y="190" fill="#fffdf2" /><rect width="20" height="10" x="60" y="190" fill="#f83001" /><rect width="20" height="10" x="80" y="190" fill="#abaaa8" /><rect width="10" height="10" x="100" y="190" fill="#fffdf2" /><rect width="40" height="10" x="110" y="190" fill="#f83001" /><rect width="30" height="10" x="150" y="190" fill="#abaaa8" /><rect width="10" height="10" x="180" y="190" fill="#f83001" /><rect width="10" height="10" x="190" y="190" fill="#fffdf2" /><rect width="20" height="10" x="200" y="190" fill="#f83001" /><rect width="10" height="10" x="220" y="190" fill="#fffdf2" /><rect width="20" height="10" x="230" y="190" fill="#abaaa8" /><rect width="20" height="10" x="250" y="190" fill="#f83001" /><rect width="10" height="10" x="270" y="190" fill="#fffdf2" /><rect width="10" height="10" x="50" y="200" fill="#fffdf2" /><rect width="20" height="10" x="60" y="200" fill="#f83001" /><rect width="20" height="10" x="80" y="200" fill="#abaaa8" /><rect width="10" height="10" x="100" y="200" fill="#fffdf2" /><rect width="40" height="10" x="110" y="200" fill="#f83001" /><rect width="30" height="10" x="150" y="200" fill="#abaaa8" /><rect width="10" height="10" x="180" y="200" fill="#f83001" /><rect width="10" height="10" x="190" y="200" fill="#fffdf2" /><rect width="20" height="10" x="200" y="200" fill="#f83001" /><rect width="10" height="10" x="220" y="200" fill="#fffdf2" /><rect width="20" height="10" x="230" y="200" fill="#abaaa8" /><rect width="20" height="10" x="250" y="200" fill="#f83001" /><rect width="10" height="10" x="270" y="200" fill="#fffdf2" /><rect width="60" height="10" x="100" y="110" fill="#b9185c" /><rect width="60" height="10" x="170" y="110" fill="#b9185c" /><rect width="10" height="10" x="100" y="120" fill="#b9185c" /><rect width="20" height="10" x="110" y="120" fill="#ffffff" /><rect width="20" height="10" x="130" y="120" fill="#000000" /><rect width="10" height="10" x="150" y="120" fill="#b9185c" /><rect width="10" height="10" x="170" y="120" fill="#b9185c" /><rect width="20" height="10" x="180" y="120" fill="#ffffff" /><rect width="20" height="10" x="200" y="120" fill="#000000" /><rect width="10" height="10" x="220" y="120" fill="#b9185c" /><rect width="40" height="10" x="70" y="130" fill="#b9185c" /><rect width="20" height="10" x="110" y="130" fill="#ffffff" /><rect width="20" height="10" x="130" y="130" fill="#000000" /><rect width="30" height="10" x="150" y="130" fill="#b9185c" /><rect width="20" height="10" x="180" y="130" fill="#ffffff" /><rect width="20" height="10" x="200" y="130" fill="#000000" /><rect width="10" height="10" x="220" y="130" fill="#b9185c" /><rect width="10" height="10" x="70" y="140" fill="#b9185c" /><rect width="10" height="10" x="100" y="140" fill="#b9185c" /><rect width="20" height="10" x="110" y="140" fill="#ffffff" /><rect width="20" height="10" x="130" y="140" fill="#000000" /><rect width="10" height="10" x="150" y="140" fill="#b9185c" /><rect width="10" height="10" x="170" y="140" fill="#b9185c" /><rect width="20" height="10" x="180" y="140" fill="#ffffff" /><rect width="20" height="10" x="200" y="140" fill="#000000" /><rect width="10" height="10" x="220" y="140" fill="#b9185c" /><rect width="10" height="10" x="70" y="150" fill="#b9185c" /><rect width="10" height="10" x="100" y="150" fill="#b9185c" /><rect width="20" height="10" x="110" y="150" fill="#ffffff" /><rect width="20" height="10" x="130" y="150" fill="#000000" /><rect width="10" height="10" x="150" y="150" fill="#b9185c" /><rect width="10" height="10" x="170" y="150" fill="#b9185c" /><rect width="20" height="10" x="180" y="150" fill="#ffffff" /><rect width="20" height="10" x="200" y="150" fill="#000000" /><rect width="10" height="10" x="220" y="150" fill="#b9185c" /><rect width="60" height="10" x="100" y="160" fill="#b9185c" /><rect width="60" height="10" x="170" y="160" fill="#b9185c" /></svg>