<svg viewBox="0 0 320 320" xmlns="http://www.w3.org/2000/svg" shape-rendering="crispEdges"><rect width="100%" height="100%" fill="#d5d7e1" /><rect width="140" height="10" x="90" y="210" fill="#cfc2ab" /><rect width="140" height="10" x="90" y="220" fill="#cfc2ab" /><rect width="140" height="10" x="90" y="230" fill="#cfc2ab" /><rect width="140" height="10" x="90" y="240" fill="#cfc2ab" /><rect width="20" height="10" x="90" y="250" fill="#cfc2ab" /><rect width="110" height="10" x="120" y="250" fill="#cfc2ab" /><rect width="20" height="10" x="90" y="260" fill="#cfc2ab" /><rect width="110" height="10" x="120" y="260" fill="#cfc2ab" /><rect width="20" height="10" x="90" y="270" fill="#cfc2ab" /><rect width="110" height="10" x="120" y="270" fill="#cfc2ab" /><rect width="20" height="10" x="90" y="280" fill="#cfc2ab" /><rect width="110" height="10" x="120" y="280" fill="#cfc2ab" /><rect width="20" height="10" x="90" y="290" fill="#cfc2ab" /><rect width="110" height="10" x="120" y="290" fill="#cfc2ab" /><rect width="20" height="10" x="90" y="300" fill="#cfc2ab" /><rect width="110" height="10" x="120" y="300" fill="#cfc2ab" /><rect width="20" height="10" x="90" y="310" fill="#cfc2ab" /><rect width="110" height="10" x="120" y="310" fill="#cfc2ab" /><rect width="10" height="10" x="150" y="240" fill="#009c59" /><rect width="20" height="10" x="160" y="240" fill="#ffffff" /><rect width="30" height="10" x="150" y="250" fill="#fff006" /><rect width="10" height="10" x="150" y="260" fill="#fff006" /><rect width="10" height="10" x="160" y="260" fill="#009c59" /><rect width="10" height="10" x="170" y="260" fill="#fff006" /><rect width="10" height="10" x="150" y="270" fill="#ffffff" /><rect width="10" height="10" x="160" y="270" fill="#fff006" /><rect width="10" height="10" x="170" y="270" fill="#ffffff" /><rect width="30" height="10" x="150" y="280" fill="#009c59" /><rect width="10" height="10" x="80" y="30" fill="#fff006" /><rect width="10" height="10" x="240" y="30" fill="#fff006" /><rect width="30" height="10" x="90" y="40" fill="#fff006" /><rect width="20" height="10" x="120" y="40" fill="#fff671" /><rect width="10" height="10" x="140" y="40" fill="#fff006" /><rect width="10" height="10" x="150" y="40" fill="#fff671" /><rect width="80" height="10" x="160" y="40" fill="#fff006" /><rect width="10" height="10" x="90" y="50" fill="#4a5358" /><rect width="10" height="10" x="100" y="50" fill="#5a6b7b" /><rect width="10" height="10" x="110" y="50" fill="#4a5358" /><rect width="10" height="10" x="120" y="50" fill="#505a5c" /><rect width="10" height="10" x="130" y="50" fill="#4a5358" /><rect width="10" height="10" x="140" y="50" fill="#505a5c" /><rect width="10" height="10" x="150" y="50" fill="#4a5358" /><rect width="10" height="10" x="160" y="50" fill="#505a5c" /><rect width="10" height="10" x="170" y="50" fill="#4a5358" /><rect width="10" height="10" x="180" y="50" fill="#505a5c" /><rect width="10" height="10" x="190" y="50" fill="#4a5358" /><rect width="10" height="10" x="200" y="50" fill="#505a5c" /><rect width="10" height="10" x="210" y="50" fill="#4a5358" /><rect width="10" height="10" x="220" y="50" fill="#5a6b7b" /><rect width="10" height="10" x="230" y="50" fill="#4a5358" /><rect width="10" height="10" x="90" y="60" fill="#4a5358" /><rect width="10" height="10" x="100" y="60" fill="#5a6b7b" /><rect width="10" height="10" x="110" y="60" fill="#4a5358" /><rect width="10" height="10" x="120" y="60" fill="#505a5c" /><rect width="10" height="10" x="130" y="60" fill="#4a5358" /><rect width="10" height="10" x="140" y="60" fill="#505a5c" /><rect width="10" height="10" x="150" y="60" fill="#4a5358" /><rect width="10" height="10" x="160" y="60" fill="#505a5c" /><rect width="10" height="10" x="170" y="60" fill="#4a5358" /><rect width="10" height="10" x="180" y="60" fill="#505a5c" /><rect width="10" height="10" x="190" y="60" fill="#4a5358" /><rect width="10" height="10" x="200" y="60" fill="#505a5c" /><rect width="10" height="10" x="210" y="60" fill="#4a5358" /><rect width="10" height="10" x="220" y="60" fill="#5a6b7b" /><rect width="10" height="10" x="230" y="60" fill="#4a5358" /><rect width="10" height="10" x="90" y="70" fill="#4a5358" /><rect width="10" height="10" x="100" y="70" fill="#5a6b7b" /><rect width="10" height="10" x="110" y="70" fill="#4a5358" /><rect width="10" height="10" x="120" y="70" fill="#505a5c" /><rect width="10" height="10" x="130" y="70" fill="#4a5358" /><rect width="10" height="10" x="140" y="70" fill="#505a5c" /><rect width="10" height="10" x="150" y="70" fill="#fff006" /><rect width="10" height="10" x="160" y="70" fill="#fff671" /><rect width="10" height="10" x="170" y="70" fill="#fff006" /><rect width="10" height="10" x="180" y="70" fill="#505a5c" /><rect width="10" height="10" x="190" y="70" fill="#4a5358" /><rect width="10" height="10" x="200" y="70" fill="#505a5c" /><rect width="10" height="10" x="210" y="70" fill="#4a5358" /><rect width="10" height="10" x="220" y="70" fill="#5a6b7b" /><rect width="10" height="10" x="230" y="70" fill="#4a5358" /><rect width="20" height="10" x="80" y="80" fill="#fff006" /><rect width="20" height="10" x="100" y="80" fill="#4a5358" /><rect width="10" height="10" x="120" y="80" fill="#505a5c" /><rect width="10" height="10" x="130" y="80" fill="#4a5358" /><rect width="10" height="10" x="140" y="80" fill="#505a5c" /><rect width="10" height="10" x="150" y="80" fill="#4a5358" /><rect width="10" height="10" x="160" y="80" fill="#505a5c" /><rect width="10" height="10" x="170" y="80" fill="#4a5358" /><rect width="10" height="10" x="180" y="80" fill="#505a5c" /><rect width="10" height="10" x="190" y="80" fill="#4a5358" /><rect width="10" height="10" x="200" y="80" fill="#505a5c" /><rect width="20" height="10" x="210" y="80" fill="#4a5358" /><rect width="20" height="10" x="230" y="80" fill="#fff006" /><rect width="10" height="10" x="70" y="90" fill="#fff671" /><rect width="20" height="10" x="80" y="90" fill="#4a5358" /><rect width="10" height="10" x="100" y="90" fill="#fff006" /><rect width="10" height="10" x="110" y="90" fill="#fff671" /><rect width="10" height="10" x="120" y="90" fill="#fff006" /><rect width="10" height="10" x="130" y="90" fill="#4a5358" /><rect width="20" height="10" x="140" y="90" fill="#fff006" /><rect width="10" height="10" x="160" y="90" fill="#00499c" /><rect width="20" height="10" x="170" y="90" fill="#fff006" /><rect width="10" height="10" x="190" y="90" fill="#4a5358" /><rect width="30" height="10" x="200" y="90" fill="#fff006" /><rect width="20" height="10" x="230" y="90" fill="#4a5358" /><rect width="10" height="10" x="250" y="90" fill="#fff006" /><rect width="10" height="10" x="80" y="100" fill="#ffe939" /><rect width="10" height="10" x="90" y="100" fill="#009c59" /><rect width="10" height="10" x="100" y="100" fill="#ff1a0b" /><rect width="10" height="10" x="110" y="100" fill="#ffe939" /><rect width="10" height="10" x="120" y="100" fill="#000000" /><rect width="10" height="10" x="130" y="100" fill="#ffe939" /><rect width="10" height="10" x="140" y="100" fill="#000000" /><rect width="10" height="10" x="150" y="100" fill="#ffe939" /><rect width="10" height="10" x="160" y="100" fill="#000000" /><rect width="10" height="10" x="170" y="100" fill="#ffe939" /><rect width="10" height="10" x="180" y="100" fill="#000000" /><rect width="10" height="10" x="190" y="100" fill="#ffe939" /><rect width="10" height="10" x="200" y="100" fill="#000000" /><rect width="10" height="10" x="210" y="100" fill="#ffe939" /><rect width="10" height="10" x="220" y="100" fill="#ff1a0b" /><rect width="10" height="10" x="230" y="100" fill="#009c59" /><rect width="10" height="10" x="240" y="100" fill="#ffe939" /><rect width="10" height="10" x="70" y="110" fill="#fff671" /><rect width="10" height="10" x="90" y="110" fill="#ffe939" /><rect width="10" height="10" x="100" y="110" fill="#009c59" /><rect width="10" height="10" x="110" y="110" fill="#ff1a0b" /><rect width="10" height="10" x="120" y="110" fill="#ffe939" /><rect width="10" height="10" x="130" y="110" fill="#000000" /><rect width="10" height="10" x="140" y="110" fill="#ffe939" /><rect width="10" height="10" x="150" y="110" fill="#000000" /><rect width="10" height="10" x="160" y="110" fill="#ffe939" /><rect width="10" height="10" x="170" y="110" fill="#000000" /><rect width="10" height="10" x="180" y="110" fill="#ffe939" /><rect width="10" height="10" x="190" y="110" fill="#000000" /><rect width="10" height="10" x="200" y="110" fill="#ffe939" /><rect width="10" height="10" x="210" y="110" fill="#ff1a0b" /><rect width="10" height="10" x="220" y="110" fill="#009c59" /><rect width="10" height="10" x="230" y="110" fill="#ffe939" /><rect width="10" height="10" x="250" y="110" fill="#fff671" /><rect width="10" height="10" x="110" y="120" fill="#fff006" /><rect width="20" height="10" x="120" y="120" fill="#eff2fa" /><rect width="10" height="10" x="140" y="120" fill="#fff006" /><rect width="30" height="10" x="150" y="120" fill="#eff2fa" /><rect width="10" height="10" x="180" y="120" fill="#fff006" /><rect width="20" height="10" x="190" y="120" fill="#eff2fa" /><rect width="10" height="10" x="210" y="120" fill="#fff006" /><rect width="20" height="10" x="90" y="130" fill="#fff006" /><rect width="10" height="10" x="110" y="130" fill="#00499c" /><rect width="10" height="10" x="120" y="130" fill="#ff1a0b" /><rect width="10" height="10" x="130" y="130" fill="#fff006" /><rect width="10" height="10" x="140" y="130" fill="#00499c" /><rect width="10" height="10" x="150" y="130" fill="#ff1a0b" /><rect width="10" height="10" x="160" y="130" fill="#fff006" /><rect width="10" height="10" x="170" y="130" fill="#ff1a0b" /><rect width="10" height="10" x="180" y="130" fill="#00499c" /><rect width="10" height="10" x="190" y="130" fill="#fff006" /><rect width="10" height="10" x="200" y="130" fill="#ff1a0b" /><rect width="10" height="10" x="210" y="130" fill="#00499c" /><rect width="20" height="10" x="220" y="130" fill="#fff006" /><rect width="10" height="10" x="30" y="140" fill="#4a5358" /><rect width="10" height="10" x="40" y="140" fill="#505a5c" /><rect width="10" height="10" x="90" y="140" fill="#ffe939" /><rect width="10" height="10" x="100" y="140" fill="#009c59" /><rect width="10" height="10" x="110" y="140" fill="#ff1a0b" /><rect width="10" height="10" x="120" y="140" fill="#000000" /><rect width="10" height="10" x="130" y="140" fill="#ffe939" /><rect width="10" height="10" x="140" y="140" fill="#000000" /><rect width="10" height="10" x="150" y="140" fill="#ffe939" /><rect width="10" height="10" x="160" y="140" fill="#000000" /><rect width="10" height="10" x="170" y="140" fill="#ffe939" /><rect width="10" height="10" x="180" y="140" fill="#000000" /><rect width="10" height="10" x="190" y="140" fill="#ffe939" /><rect width="10" height="10" x="200" y="140" fill="#000000" /><rect width="10" height="10" x="210" y="140" fill="#ff1a0b" /><rect width="10" height="10" x="220" y="140" fill="#009c59" /><rect width="10" height="10" x="230" y="140" fill="#ffe939" /><rect width="10" height="10" x="280" y="140" fill="#505a5c" /><rect width="10" height="10" x="290" y="140" fill="#4a5358" /><rect width="10" height="10" x="20" y="150" fill="#4a5358" /><rect width="10" height="10" x="30" y="150" fill="#505a5c" /><rect width="10" height="10" x="40" y="150" fill="#4a5358" /><rect width="10" height="10" x="100" y="150" fill="#ffe939" /><rect width="10" height="10" x="110" y="150" fill="#000000" /><rect width="10" height="10" x="120" y="150" fill="#ffe939" /><rect width="10" height="10" x="130" y="150" fill="#000000" /><rect width="10" height="10" x="140" y="150" fill="#ffe939" /><rect width="10" height="10" x="150" y="150" fill="#000000" /><rect width="10" height="10" x="160" y="150" fill="#ffe939" /><rect width="10" height="10" x="170" y="150" fill="#000000" /><rect width="10" height="10" x="180" y="150" fill="#ffe939" /><rect width="10" height="10" x="190" y="150" fill="#000000" /><rect width="10" height="10" x="200" y="150" fill="#ffe939" /><rect width="10" height="10" x="210" y="150" fill="#000000" /><rect width="10" height="10" x="220" y="150" fill="#ffe939" /><rect width="10" height="10" x="280" y="150" fill="#4a5358" /><rect width="10" height="10" x="290" y="150" fill="#505a5c" /><rect width="10" height="10" x="300" y="150" fill="#4a5358" /><rect width="10" height="10" x="20" y="160" fill="#00499c" /><rect width="10" height="10" x="30" y="160" fill="#009c59" /><rect width="10" height="10" x="40" y="160" fill="#fff006" /><rect width="10" height="10" x="100" y="160" fill="#eff2fa" /><rect width="10" height="10" x="110" y="160" fill="#fff006" /><rect width="20" height="10" x="120" y="160" fill="#eff2fa" /><rect width="10" height="10" x="140" y="160" fill="#fff006" /><rect width="30" height="10" x="150" y="160" fill="#eff2fa" /><rect width="10" height="10" x="180" y="160" fill="#fff006" /><rect width="20" height="10" x="190" y="160" fill="#eff2fa" /><rect width="10" height="10" x="210" y="160" fill="#fff006" /><rect width="10" height="10" x="220" y="160" fill="#eff2fa" /><rect width="10" height="10" x="280" y="160" fill="#fff006" /><rect width="10" height="10" x="290" y="160" fill="#009c59" /><rect width="10" height="10" x="300" y="160" fill="#00499c" /><rect width="20" height="10" x="20" y="170" fill="#fff006" /><rect width="10" height="10" x="40" y="170" fill="#ff1a0b" /><rect width="10" height="10" x="50" y="170" fill="#fff671" /><rect width="10" height="10" x="60" y="170" fill="#fff006" /><rect width="10" height="10" x="70" y="170" fill="#fff671" /><rect width="30" height="10" x="80" y="170" fill="#fff006" /><rect width="10" height="10" x="110" y="170" fill="#eff2fa" /><rect width="10" height="10" x="120" y="170" fill="#000000" /><rect width="10" height="10" x="130" y="170" fill="#ff1a0b" /><rect width="10" height="10" x="140" y="170" fill="#eff2fa" /><rect width="10" height="10" x="180" y="170" fill="#eff2fa" /><rect width="10" height="10" x="190" y="170" fill="#00499c" /><rect width="10" height="10" x="200" y="170" fill="#000000" /><rect width="10" height="10" x="210" y="170" fill="#eff2fa" /><rect width="20" height="10" x="220" y="170" fill="#fff006" /><rect width="10" height="10" x="240" y="170" fill="#fff671" /><rect width="30" height="10" x="250" y="170" fill="#fff006" /><rect width="10" height="10" x="280" y="170" fill="#ff1a0b" /><rect width="20" height="10" x="290" y="170" fill="#fff006" /><rect width="10" height="10" x="20" y="180" fill="#fff006" /><rect width="10" height="10" x="30" y="180" fill="#009c59" /><rect width="10" height="10" x="40" y="180" fill="#ff1a0b" /><rect width="10" height="10" x="50" y="180" fill="#4a5358" /><rect width="10" height="10" x="60" y="180" fill="#505a5c" /><rect width="10" height="10" x="70" y="180" fill="#4a5358" /><rect width="10" height="10" x="80" y="180" fill="#505a5c" /><rect width="10" height="10" x="90" y="180" fill="#4a5358" /><rect width="10" height="10" x="100" y="180" fill="#505a5c" /><rect width="10" height="10" x="110" y="180" fill="#eff2fa" /><rect width="20" height="10" x="120" y="180" fill="#ffe939" /><rect width="10" height="10" x="140" y="180" fill="#eff2fa" /><rect width="10" height="10" x="180" y="180" fill="#eff2fa" /><rect width="20" height="10" x="190" y="180" fill="#ffe939" /><rect width="10" height="10" x="210" y="180" fill="#eff2fa" /><rect width="10" height="10" x="220" y="180" fill="#505a5c" /><rect width="10" height="10" x="230" y="180" fill="#4a5358" /><rect width="10" height="10" x="240" y="180" fill="#505a5c" /><rect width="10" height="10" x="250" y="180" fill="#4a5358" /><rect width="10" height="10" x="260" y="180" fill="#505a5c" /><rect width="10" height="10" x="270" y="180" fill="#4a5358" /><rect width="10" height="10" x="280" y="180" fill="#ff1a0b" /><rect width="10" height="10" x="290" y="180" fill="#fff006" /><rect width="10" height="10" x="300" y="180" fill="#009c59" /><rect width="30" height="10" x="20" y="190" fill="#ff1a0b" /><rect width="20" height="10" x="50" y="190" fill="#eff2fa" /><rect width="10" height="10" x="70" y="190" fill="#fff006" /><rect width="20" height="10" x="80" y="190" fill="#eff2fa" /><rect width="10" height="10" x="100" y="190" fill="#fff006" /><rect width="10" height="10" x="110" y="190" fill="#eff2fa" /><rect width="10" height="10" x="120" y="190" fill="#fff006" /><rect width="10" height="10" x="130" y="190" fill="#ff1a0b" /><rect width="10" height="10" x="140" y="190" fill="#eff2fa" /><rect width="10" height="10" x="180" y="190" fill="#eff2fa" /><rect width="10" height="10" x="190" y="190" fill="#ff1a0b" /><rect width="10" height="10" x="200" y="190" fill="#fff006" /><rect width="10" height="10" x="210" y="190" fill="#eff2fa" /><rect width="10" height="10" x="220" y="190" fill="#fff006" /><rect width="20" height="10" x="230" y="190" fill="#eff2fa" /><rect width="10" height="10" x="250" y="190" fill="#fff006" /><rect width="20" height="10" x="260" y="190" fill="#eff2fa" /><rect width="30" height="10" x="280" y="190" fill="#ff1a0b" /><rect width="10" height="10" x="20" y="200" fill="#fff006" /><rect width="10" height="10" x="30" y="200" fill="#000000" /><rect width="10" height="10" x="40" y="200" fill="#ff1a0b" /><rect width="20" height="10" x="50" y="200" fill="#eff2fa" /><rect width="10" height="10" x="70" y="200" fill="#fff006" /><rect width="20" height="10" x="80" y="200" fill="#eff2fa" /><rect width="10" height="10" x="100" y="200" fill="#fff006" /><rect width="10" height="10" x="110" y="200" fill="#eff2fa" /><rect width="10" height="10" x="120" y="200" fill="#fff006" /><rect width="10" height="10" x="130" y="200" fill="#00499c" /><rect width="10" height="10" x="140" y="200" fill="#eff2fa" /><rect width="10" height="10" x="180" y="200" fill="#eff2fa" /><rect width="10" height="10" x="190" y="200" fill="#00499c" /><rect width="10" height="10" x="200" y="200" fill="#fff006" /><rect width="10" height="10" x="210" y="200" fill="#eff2fa" /><rect width="10" height="10" x="220" y="200" fill="#fff006" /><rect width="20" height="10" x="230" y="200" fill="#eff2fa" /><rect width="10" height="10" x="250" y="200" fill="#fff006" /><rect width="20" height="10" x="260" y="200" fill="#eff2fa" /><rect width="10" height="10" x="280" y="200" fill="#ff1a0b" /><rect width="10" height="10" x="290" y="200" fill="#000000" /><rect width="10" height="10" x="300" y="200" fill="#fff006" /><rect width="60" height="10" x="100" y="110" fill="#d7d3cd" /><rect width="60" height="10" x="170" y="110" fill="#d7d3cd" /><rect width="10" height="10" x="100" y="120" fill="#d7d3cd" /><rect width="20" height="10" x="110" y="120" fill="#fdf8ff" /><rect width="20" height="10" x="130" y="120" fill="#000000" /><rect width="10" height="10" x="150" y="120" fill="#d7d3cd" /><rect width="10" height="10" x="170" y="120" fill="#d7d3cd" /><rect width="20" height="10" x="180" y="120" fill="#fdf8ff" /><rect width="20" height="10" x="200" y="120" fill="#000000" /><rect width="10" height="10" x="220" y="120" fill="#d7d3cd" /><rect width="40" height="10" x="70" y="130" fill="#d7d3cd" /><rect width="20" height="10" x="110" y="130" fill="#fdf8ff" /><rect width="20" height="10" x="130" y="130" fill="#000000" /><rect width="30" height="10" x="150" y="130" fill="#d7d3cd" /><rect width="20" height="10" x="180" y="130" fill="#fdf8ff" /><rect width="20" height="10" x="200" y="130" fill="#000000" /><rect width="10" height="10" x="220" y="130" fill="#d7d3cd" /><rect width="10" height="10" x="70" y="140" fill="#d7d3cd" /><rect width="10" height="10" x="100" y="140" fill="#d7d3cd" /><rect width="20" height="10" x="110" y="140" fill="#fdf8ff" /><rect width="20" height="10" x="130" y="140" fill="#000000" /><rect width="10" height="10" x="150" y="140" fill="#d7d3cd" /><rect width="10" height="10" x="170" y="140" fill="#d7d3cd" /><rect width="20" height="10" x="180" y="140" fill="#fdf8ff" /><rect width="20" height="10" x="200" y="140" fill="#000000" /><rect width="10" height="10" x="220" y="140" fill="#d7d3cd" /><rect width="10" height="10" x="70" y="150" fill="#d7d3cd" /><rect width="10" height="10" x="100" y="150" fill="#d7d3cd" /><rect width="20" height="10" x="110" y="150" fill="#fdf8ff" /><rect width="20" height="10" x="130" y="150" fill="#000000" /><rect width="10" height="10" x="150" y="150" fill="#d7d3cd" /><rect width="10" height="10" x="170" y="150" fill="#d7d3cd" /><rect width="20" height="10" x="180" y="150" fill="#fdf8ff" /><rect width="20" height="10" x="200" y="150" fill="#000000" /><rect width="10" height="10" x="220" y="150" fill="#d7d3cd" /><rect width="60" height="10" x="100" y="160" fill="#d7d3cd" /><rect width="60" height="10" x="170" y="160" fill="#d7d3cd" /></svg>