<svg viewBox="0 0 320 320" xmlns="http://www.w3.org/2000/svg" shape-rendering="crispEdges"><rect width="100%" height="100%" fill="#e1d7d5" /><rect width="140" height="10" x="90" y="210" fill="#4b4949" /><rect width="140" height="10" x="90" y="220" fill="#4b4949" /><rect width="140" height="10" x="90" y="230" fill="#4b4949" /><rect width="140" height="10" x="90" y="240" fill="#4b4949" /><rect width="20" height="10" x="90" y="250" fill="#4b4949" /><rect width="110" height="10" x="120" y="250" fill="#4b4949" /><rect width="20" height="10" x="90" y="260" fill="#4b4949" /><rect width="110" height="10" x="120" y="260" fill="#4b4949" /><rect width="20" height="10" x="90" y="270" fill="#4b4949" /><rect width="110" height="10" x="120" y="270" fill="#4b4949" /><rect width="20" height="10" x="90" y="280" fill="#4b4949" /><rect width="110" height="10" x="120" y="280" fill="#4b4949" /><rect width="20" height="10" x="90" y="290" fill="#4b4949" /><rect width="110" height="10" x="120" y="290" fill="#4b4949" /><rect width="20" height="10" x="90" y="300" fill="#4b4949" /><rect width="110" height="10" x="120" y="300" fill="#4b4949" /><rect width="20" height="10" x="90" y="310" fill="#4b4949" /><rect width="110" height="10" x="120" y="310" fill="#4b4949" /><rect width="30" height="10" x="90" y="210" fill="#00499c" /><rect width="40" height="10" x="120" y="210" fill="#1e3445" /><rect width="40" height="10" x="170" y="210" fill="#1e3445" /><rect width="20" height="10" x="210" y="210" fill="#00499c" /><rect width="40" height="10" x="90" y="220" fill="#00499c" /><rect width="30" height="10" x="130" y="220" fill="#1e3445" /><rect width="10" height="10" x="160" y="220" fill="#ffffff" /><rect width="30" height="10" x="170" y="220" fill="#1e3445" /><rect width="30" height="10" x="200" y="220" fill="#00499c" /><rect width="50" height="10" x="90" y="230" fill="#00499c" /><rect width="10" height="10" x="140" y="230" fill="#1e3445" /><rect width="30" height="10" x="150" y="230" fill="#00499c" /><rect width="10" height="10" x="180" y="230" fill="#1e3445" /><rect width="40" height="10" x="190" y="230" fill="#00499c" /><rect width="140" height="10" x="90" y="240" fill="#00499c" /><rect width="70" height="10" x="90" y="250" fill="#00499c" /><rect width="10" height="10" x="160" y="250" fill="#ffffff" /><rect width="60" height="10" x="170" y="250" fill="#00499c" /><rect width="100" height="10" x="90" y="260" fill="#00499c" /><rect width="10" height="10" x="190" y="260" fill="#1e3445" /><rect width="10" height="10" x="200" y="260" fill="#ffffff" /><rect width="10" height="10" x="210" y="260" fill="#1e3445" /><rect width="10" height="10" x="220" y="260" fill="#00499c" /><rect width="20" height="10" x="90" y="270" fill="#00499c" /><rect width="70" height="10" x="120" y="270" fill="#00499c" /><rect width="30" height="10" x="190" y="270" fill="#1e3445" /><rect width="10" height="10" x="220" y="270" fill="#00499c" /><rect width="20" height="10" x="90" y="280" fill="#00499c" /><rect width="40" height="10" x="120" y="280" fill="#00499c" /><rect width="10" height="10" x="160" y="280" fill="#ffffff" /><rect width="20" height="10" x="170" y="280" fill="#00499c" /><rect width="30" height="10" x="190" y="280" fill="#1e3445" /><rect width="10" height="10" x="220" y="280" fill="#00499c" /><rect width="20" height="10" x="90" y="290" fill="#00499c" /><rect width="80" height="10" x="120" y="290" fill="#00499c" /><rect width="10" height="10" x="200" y="290" fill="#1e3445" /><rect width="20" height="10" x="210" y="290" fill="#00499c" /><rect width="20" height="10" x="90" y="300" fill="#00499c" /><rect width="110" height="10" x="120" y="300" fill="#00499c" /><rect width="20" height="10" x="90" y="310" fill="#00499c" /><rect width="40" height="10" x="120" y="310" fill="#00499c" /><rect width="10" height="10" x="160" y="310" fill="#ffffff" /><rect width="60" height="10" x="170" y="310" fill="#00499c" /><rect width="30" height="10" x="70" y="30" fill="#ffc110" /><rect width="20" height="10" x="220" y="30" fill="#ffc110" /><rect width="10" height="10" x="70" y="40" fill="#fff0be" /><rect width="30" height="10" x="80" y="40" fill="#ffc110" /><rect width="20" height="10" x="210" y="40" fill="#ffc110" /><rect width="10" height="10" x="230" y="40" fill="#fff0be" /><rect width="20" height="10" x="70" y="50" fill="#fff0be" /><rect width="30" height="10" x="90" y="50" fill="#ffc110" /><rect width="20" height="10" x="200" y="50" fill="#ffc110" /><rect width="20" height="10" x="220" y="50" fill="#fff0be" /><rect width="30" height="10" x="70" y="60" fill="#fff0be" /><rect width="120" height="10" x="100" y="60" fill="#ffc110" /><rect width="20" height="10" x="220" y="60" fill="#fff0be" /><rect width="20" height="10" x="70" y="70" fill="#fff0be" /><rect width="140" height="10" x="90" y="70" fill="#ffc110" /><rect width="10" height="10" x="230" y="70" fill="#fff0be" /><rect width="30" height="10" x="70" y="80" fill="#ffc110" /><rect width="60" height="10" x="100" y="80" fill="#ffffff" /><rect width="10" height="10" x="160" y="80" fill="#ff82ad" /><rect width="50" height="10" x="170" y="80" fill="#ffffff" /><rect width="20" height="10" x="220" y="80" fill="#ffc110" /><rect width="80" height="10" x="70" y="90" fill="#ffffff" /><rect width="30" height="10" x="150" y="90" fill="#ff82ad" /><rect width="60" height="10" x="180" y="90" fill="#ffffff" /><rect width="80" height="10" x="70" y="100" fill="#ffffff" /><rect width="10" height="10" x="150" y="100" fill="#068940" /><rect width="10" height="10" x="160" y="100" fill="#ff82ad" /><rect width="10" height="10" x="170" y="100" fill="#068940" /><rect width="60" height="10" x="180" y="100" fill="#ffffff" /><rect width="30" height="10" x="70" y="110" fill="#ffffff" /><rect width="130" height="10" x="100" y="110" fill="#ffc110" /><rect width="10" height="10" x="230" y="110" fill="#ffffff" /><rect width="170" height="10" x="70" y="120" fill="#ffc110" /><rect width="50" height="10" x="70" y="130" fill="#ffc110" /><rect width="30" height="10" x="120" y="130" fill="#fff0be" /><rect width="30" height="10" x="150" y="130" fill="#ffc110" /><rect width="30" height="10" x="180" y="130" fill="#fff0be" /><rect width="30" height="10" x="210" y="130" fill="#ffc110" /><rect width="170" height="10" x="70" y="140" fill="#ffc110" /><rect width="190" height="10" x="60" y="150" fill="#ffc110" /><rect width="80" height="10" x="60" y="160" fill="#ffc110" /><rect width="90" height="10" x="140" y="160" fill="#fff0be" /><rect width="10" height="10" x="230" y="160" fill="#ae6c0a" /><rect width="10" height="10" x="240" y="160" fill="#ffffff" /><rect width="10" height="10" x="250" y="160" fill="#fff0be" /><rect width="70" height="10" x="60" y="170" fill="#ffc110" /><rect width="100" height="10" x="130" y="170" fill="#fff0be" /><rect width="10" height="10" x="230" y="170" fill="#ae6c0a" /><rect width="10" height="10" x="240" y="170" fill="#000000" /><rect width="10" height="10" x="250" y="170" fill="#fff0be" /><rect width="50" height="10" x="70" y="180" fill="#ffc110" /><rect width="70" height="10" x="120" y="180" fill="#fff0be" /><rect width="10" height="10" x="190" y="180" fill="#ae6c0a" /><rect width="60" height="10" x="200" y="180" fill="#fff0be" /><rect width="40" height="10" x="80" y="190" fill="#ffc110" /><rect width="80" height="10" x="120" y="190" fill="#fff0be" /><rect width="20" height="10" x="200" y="190" fill="#ae6c0a" /><rect width="10" height="10" x="220" y="190" fill="#feb9d5" /><rect width="10" height="10" x="230" y="190" fill="#fdcef2" /><rect width="10" height="10" x="240" y="190" fill="#ae6c0a" /><rect width="10" height="10" x="250" y="190" fill="#fff0be" /><rect width="40" height="10" x="90" y="200" fill="#ffc110" /><rect width="90" height="10" x="130" y="200" fill="#fff0be" /><rect width="10" height="10" x="220" y="200" fill="#feb9d5" /><rect width="10" height="10" x="230" y="200" fill="#fdcef2" /><rect width="10" height="10" x="240" y="200" fill="#f8ddb0" /><rect width="20" height="10" x="220" y="210" fill="#feb9d5" /><rect width="60" height="10" x="100" y="110" fill="#068940" /><rect width="60" height="10" x="170" y="110" fill="#257ced" /><rect width="10" height="10" x="100" y="120" fill="#068940" /><rect width="20" height="10" x="110" y="120" fill="#ffffff" /><rect width="20" height="10" x="130" y="120" fill="#000000" /><rect width="10" height="10" x="150" y="120" fill="#068940" /><rect width="10" height="10" x="170" y="120" fill="#257ced" /><rect width="20" height="10" x="180" y="120" fill="#ffffff" /><rect width="20" height="10" x="200" y="120" fill="#000000" /><rect width="10" height="10" x="220" y="120" fill="#257ced" /><rect width="30" height="10" x="70" y="130" fill="#254efb" /><rect width="10" height="10" x="100" y="130" fill="#068940" /><rect width="20" height="10" x="110" y="130" fill="#ffffff" /><rect width="20" height="10" x="130" y="130" fill="#000000" /><rect width="10" height="10" x="150" y="130" fill="#068940" /><rect width="10" height="10" x="160" y="130" fill="#254efb" /><rect width="10" height="10" x="170" y="130" fill="#257ced" /><rect width="20" height="10" x="180" y="130" fill="#ffffff" /><rect width="20" height="10" x="200" y="130" fill="#000000" /><rect width="10" height="10" x="220" y="130" fill="#257ced" /><rect width="10" height="10" x="70" y="140" fill="#257ced" /><rect width="10" height="10" x="100" y="140" fill="#068940" /><rect width="20" height="10" x="110" y="140" fill="#ffffff" /><rect width="20" height="10" x="130" y="140" fill="#000000" /><rect width="10" height="10" x="150" y="140" fill="#068940" /><rect width="10" height="10" x="170" y="140" fill="#257ced" /><rect width="20" height="10" x="180" y="140" fill="#ffffff" /><rect width="20" height="10" x="200" y="140" fill="#000000" /><rect width="10" height="10" x="220" y="140" fill="#257ced" /><rect width="10" height="10" x="70" y="150" fill="#257ced" /><rect width="10" height="10" x="100" y="150" fill="#068940" /><rect width="20" height="10" x="110" y="150" fill="#ffffff" /><rect width="20" height="10" x="130" y="150" fill="#000000" /><rect width="10" height="10" x="150" y="150" fill="#068940" /><rect width="10" height="10" x="170" y="150" fill="#257ced" /><rect width="20" height="10" x="180" y="150" fill="#ffffff" /><rect width="20" height="10" x="200" y="150" fill="#000000" /><rect width="10" height="10" x="220" y="150" fill="#257ced" /><rect width="60" height="10" x="100" y="160" fill="#068940" /><rect width="60" height="10" x="170" y="160" fill="#257ced" /></svg>