<svg viewBox="0 0 320 320" xmlns="http://www.w3.org/2000/svg" shape-rendering="crispEdges"><rect width="100%" height="100%" fill="#e1d7d5" /><rect width="140" height="10" x="90" y="210" fill="#1f1d29" /><rect width="140" height="10" x="90" y="220" fill="#1f1d29" /><rect width="140" height="10" x="90" y="230" fill="#1f1d29" /><rect width="140" height="10" x="90" y="240" fill="#1f1d29" /><rect width="20" height="10" x="90" y="250" fill="#1f1d29" /><rect width="110" height="10" x="120" y="250" fill="#1f1d29" /><rect width="20" height="10" x="90" y="260" fill="#1f1d29" /><rect width="110" height="10" x="120" y="260" fill="#1f1d29" /><rect width="20" height="10" x="90" y="270" fill="#1f1d29" /><rect width="110" height="10" x="120" y="270" fill="#1f1d29" /><rect width="20" height="10" x="90" y="280" fill="#1f1d29" /><rect width="110" height="10" x="120" y="280" fill="#1f1d29" /><rect width="20" height="10" x="90" y="290" fill="#1f1d29" /><rect width="110" height="10" x="120" y="290" fill="#1f1d29" /><rect width="20" height="10" x="90" y="300" fill="#1f1d29" /><rect width="110" height="10" x="120" y="300" fill="#1f1d29" /><rect width="20" height="10" x="90" y="310" fill="#1f1d29" /><rect width="110" height="10" x="120" y="310" fill="#1f1d29" /><rect width="20" height="10" x="130" y="230" fill="#caeff9" /><rect width="10" height="10" x="150" y="230" fill="#3f9323" /><rect width="10" height="10" x="160" y="230" fill="#97f2fb" /><rect width="30" height="10" x="170" y="230" fill="#3f9323" /><rect width="10" height="10" x="130" y="240" fill="#505a5c" /><rect width="10" height="10" x="140" y="240" fill="#807f7e" /><rect width="10" height="10" x="150" y="240" fill="#caeff9" /><rect width="10" height="10" x="160" y="240" fill="#807f7e" /><rect width="10" height="10" x="170" y="240" fill="#97f2fb" /><rect width="20" height="10" x="180" y="240" fill="#3f9323" /><rect width="10" height="10" x="130" y="250" fill="#505a5c" /><rect width="10" height="10" x="140" y="250" fill="#807f7e" /><rect width="10" height="10" x="150" y="250" fill="#505a5c" /><rect width="10" height="10" x="160" y="250" fill="#caeff9" /><rect width="10" height="10" x="170" y="250" fill="#97f2fb" /><rect width="20" height="10" x="180" y="250" fill="#3f9323" /><rect width="10" height="10" x="130" y="260" fill="#505a5c" /><rect width="10" height="10" x="140" y="260" fill="#807f7e" /><rect width="10" height="10" x="150" y="260" fill="#505a5c" /><rect width="10" height="10" x="160" y="260" fill="#caeff9" /><rect width="10" height="10" x="170" y="260" fill="#ffffff" /><rect width="10" height="10" x="180" y="260" fill="#807f7e" /><rect width="10" height="10" x="190" y="260" fill="#505a5c" /><rect width="10" height="10" x="130" y="270" fill="#505a5c" /><rect width="10" height="10" x="140" y="270" fill="#807f7e" /><rect width="20" height="10" x="150" y="270" fill="#ffffff" /><rect width="10" height="10" x="170" y="270" fill="#97f2fb" /><rect width="10" height="10" x="180" y="270" fill="#807f7e" /><rect width="10" height="10" x="190" y="270" fill="#505a5c" /><rect width="10" height="10" x="130" y="280" fill="#505a5c" /><rect width="50" height="10" x="140" y="280" fill="#97f2fb" /><rect width="10" height="10" x="190" y="280" fill="#505a5c" /><rect width="70" height="10" x="120" y="60" fill="#f9f4e6" /><rect width="30" height="10" x="100" y="70" fill="#f9f4e6" /><rect width="10" height="10" x="130" y="70" fill="#909b0e" /><rect width="70" height="10" x="140" y="70" fill="#f9f4e6" /><rect width="100" height="10" x="80" y="80" fill="#f9f4e6" /><rect width="10" height="10" x="180" y="80" fill="#909b0e" /><rect width="40" height="10" x="190" y="80" fill="#f9f4e6" /><rect width="20" height="10" x="80" y="90" fill="#f9f4e6" /><rect width="10" height="10" x="100" y="90" fill="#909b0e" /><rect width="20" height="10" x="110" y="90" fill="#f9f4e6" /><rect width="10" height="10" x="130" y="90" fill="#909b0e" /><rect width="20" height="10" x="140" y="90" fill="#f9f4e6" /><rect width="10" height="10" x="160" y="90" fill="#909b0e" /><rect width="50" height="10" x="170" y="90" fill="#f9f4e6" /><rect width="20" height="10" x="220" y="90" fill="#d56333" /><rect width="20" height="10" x="60" y="100" fill="#d56333" /><rect width="120" height="10" x="80" y="100" fill="#f9f4e6" /><rect width="50" height="10" x="200" y="100" fill="#d56333" /><rect width="20" height="10" x="50" y="110" fill="#d56333" /><rect width="120" height="10" x="70" y="110" fill="#f9f4e6" /><rect width="70" height="10" x="190" y="110" fill="#d56333" /><rect width="20" height="10" x="50" y="120" fill="#d56333" /><rect width="10" height="10" x="70" y="120" fill="#f9f4e6" /><rect width="10" height="10" x="80" y="120" fill="#909b0e" /><rect width="30" height="10" x="90" y="120" fill="#f9f4e6" /><rect width="10" height="10" x="120" y="120" fill="#909b0e" /><rect width="20" height="10" x="130" y="120" fill="#f9f4e6" /><rect width="10" height="10" x="150" y="120" fill="#909b0e" /><rect width="20" height="10" x="160" y="120" fill="#f9f4e6" /><rect width="80" height="10" x="180" y="120" fill="#d56333" /><rect width="20" height="10" x="50" y="130" fill="#d56333" /><rect width="100" height="10" x="70" y="130" fill="#f9f4e6" /><rect width="90" height="10" x="170" y="130" fill="#d56333" /><rect width="20" height="10" x="40" y="140" fill="#d56333" /><rect width="100" height="10" x="60" y="140" fill="#f9f4e6" /><rect width="100" height="10" x="160" y="140" fill="#d56333" /><rect width="20" height="10" x="40" y="150" fill="#d56333" /><rect width="80" height="10" x="60" y="150" fill="#f9f4e6" /><rect width="120" height="10" x="140" y="150" fill="#d56333" /><rect width="20" height="10" x="50" y="160" fill="#d56333" /><rect width="10" height="10" x="70" y="160" fill="#f9f4e6" /><rect width="10" height="10" x="80" y="160" fill="#909b0e" /><rect width="20" height="10" x="90" y="160" fill="#f9f4e6" /><rect width="10" height="10" x="110" y="160" fill="#909b0e" /><rect width="10" height="10" x="120" y="160" fill="#f9f4e6" /><rect width="120" height="10" x="130" y="160" fill="#d56333" /><rect width="20" height="10" x="50" y="170" fill="#d56333" /><rect width="50" height="10" x="70" y="170" fill="#f9f4e6" /><rect width="130" height="10" x="120" y="170" fill="#d56333" /><rect width="20" height="10" x="60" y="180" fill="#d56333" /><rect width="20" height="10" x="80" y="180" fill="#f9f4e6" /><rect width="10" height="10" x="100" y="180" fill="#909b0e" /><rect width="10" height="10" x="110" y="180" fill="#f9f4e6" /><rect width="20" height="10" x="120" y="180" fill="#d56333" /><rect width="10" height="10" x="140" y="180" fill="#ae3208" /><rect width="90" height="10" x="150" y="180" fill="#d56333" /><rect width="20" height="10" x="60" y="190" fill="#d56333" /><rect width="30" height="10" x="80" y="190" fill="#f9f4e6" /><rect width="40" height="10" x="110" y="190" fill="#d56333" /><rect width="30" height="10" x="150" y="190" fill="#ae3208" /><rect width="60" height="10" x="180" y="190" fill="#d56333" /><rect width="140" height="10" x="90" y="200" fill="#d56333" /><rect width="60" height="10" x="100" y="110" fill="#fe500c" /><rect width="60" height="10" x="170" y="110" fill="#fe500c" /><rect width="10" height="10" x="100" y="120" fill="#fe500c" /><rect width="20" height="10" x="110" y="120" fill="#ffffff" /><rect width="20" height="10" x="130" y="120" fill="#000000" /><rect width="10" height="10" x="150" y="120" fill="#fe500c" /><rect width="10" height="10" x="170" y="120" fill="#fe500c" /><rect width="20" height="10" x="180" y="120" fill="#ffffff" /><rect width="20" height="10" x="200" y="120" fill="#000000" /><rect width="10" height="10" x="220" y="120" fill="#fe500c" /><rect width="40" height="10" x="70" y="130" fill="#fe500c" /><rect width="20" height="10" x="110" y="130" fill="#ffffff" /><rect width="20" height="10" x="130" y="130" fill="#000000" /><rect width="30" height="10" x="150" y="130" fill="#fe500c" /><rect width="20" height="10" x="180" y="130" fill="#ffffff" /><rect width="20" height="10" x="200" y="130" fill="#000000" /><rect width="10" height="10" x="220" y="130" fill="#fe500c" /><rect width="10" height="10" x="70" y="140" fill="#fe500c" /><rect width="10" height="10" x="100" y="140" fill="#fe500c" /><rect width="20" height="10" x="110" y="140" fill="#ffffff" /><rect width="20" height="10" x="130" y="140" fill="#000000" /><rect width="10" height="10" x="150" y="140" fill="#fe500c" /><rect width="10" height="10" x="170" y="140" fill="#fe500c" /><rect width="20" height="10" x="180" y="140" fill="#ffffff" /><rect width="20" height="10" x="200" y="140" fill="#000000" /><rect width="10" height="10" x="220" y="140" fill="#fe500c" /><rect width="10" height="10" x="70" y="150" fill="#fe500c" /><rect width="10" height="10" x="100" y="150" fill="#fe500c" /><rect width="20" height="10" x="110" y="150" fill="#ffffff" /><rect width="20" height="10" x="130" y="150" fill="#000000" /><rect width="10" height="10" x="150" y="150" fill="#fe500c" /><rect width="10" height="10" x="170" y="150" fill="#fe500c" /><rect width="20" height="10" x="180" y="150" fill="#ffffff" /><rect width="20" height="10" x="200" y="150" fill="#000000" /><rect width="10" height="10" x="220" y="150" fill="#fe500c" /><rect width="60" height="10" x="100" y="160" fill="#fe500c" /><rect width="60" height="10" x="170" y="160" fill="#fe500c" /></svg>