<svg viewBox="0 0 320 320" xmlns="http://www.w3.org/2000/svg" shape-rendering="crispEdges"><rect width="100%" height="100%" fill="#e1d7d5" /><rect width="140" height="10" x="90" y="210" fill="#4b4949" /><rect width="140" height="10" x="90" y="220" fill="#4b4949" /><rect width="140" height="10" x="90" y="230" fill="#4b4949" /><rect width="140" height="10" x="90" y="240" fill="#4b4949" /><rect width="20" height="10" x="90" y="250" fill="#4b4949" /><rect width="110" height="10" x="120" y="250" fill="#4b4949" /><rect width="20" height="10" x="90" y="260" fill="#4b4949" /><rect width="110" height="10" x="120" y="260" fill="#4b4949" /><rect width="20" height="10" x="90" y="270" fill="#4b4949" /><rect width="110" height="10" x="120" y="270" fill="#4b4949" /><rect width="20" height="10" x="90" y="280" fill="#4b4949" /><rect width="110" height="10" x="120" y="280" fill="#4b4949" /><rect width="20" height="10" x="90" y="290" fill="#4b4949" /><rect width="110" height="10" x="120" y="290" fill="#4b4949" /><rect width="20" height="10" x="90" y="300" fill="#4b4949" /><rect width="110" height="10" x="120" y="300" fill="#4b4949" /><rect width="20" height="10" x="90" y="310" fill="#4b4949" /><rect width="110" height="10" x="120" y="310" fill="#4b4949" /><rect width="10" height="10" x="130" y="250" fill="#f98f30" /><rect width="10" height="10" x="150" y="250" fill="#f98f30" /><rect width="10" height="10" x="170" y="250" fill="#f98f30" /><rect width="10" height="10" x="190" y="250" fill="#f98f30" /><rect width="10" height="10" x="210" y="250" fill="#f98f30" /><rect width="10" height="10" x="140" y="260" fill="#f98f30" /><rect width="10" height="10" x="160" y="260" fill="#5a423f" /><rect width="10" height="10" x="170" y="260" fill="#f98f30" /><rect width="10" height="10" x="180" y="260" fill="#5a423f" /><rect width="10" height="10" x="200" y="260" fill="#f98f30" /><rect width="50" height="10" x="150" y="270" fill="#f98f30" /><rect width="10" height="10" x="140" y="280" fill="#f98f30" /><rect width="30" height="10" x="160" y="280" fill="#f98f30" /><rect width="10" height="10" x="200" y="280" fill="#f98f30" /><rect width="60" height="10" x="80" y="30" fill="#eff2fa" /><rect width="10" height="10" x="160" y="30" fill="#eff2fa" /><rect width="30" height="10" x="60" y="40" fill="#eff2fa" /><rect width="10" height="10" x="130" y="40" fill="#eff2fa" /><rect width="20" height="10" x="170" y="40" fill="#eff2fa" /><rect width="10" height="10" x="200" y="40" fill="#eff2fa" /><rect width="10" height="10" x="50" y="50" fill="#eff2fa" /><rect width="30" height="10" x="80" y="50" fill="#eff2fa" /><rect width="10" height="10" x="130" y="50" fill="#343235" /><rect width="30" height="10" x="140" y="50" fill="#eff2fa" /><rect width="20" height="10" x="170" y="50" fill="#3f9323" /><rect width="30" height="10" x="200" y="50" fill="#235476" /><rect width="10" height="10" x="230" y="50" fill="#f5fcff" /><rect width="20" height="10" x="60" y="60" fill="#eff2fa" /><rect width="10" height="10" x="90" y="60" fill="#eff2fa" /><rect width="20" height="10" x="100" y="60" fill="#343235" /><rect width="60" height="10" x="120" y="60" fill="#3f9323" /><rect width="30" height="10" x="180" y="60" fill="#235476" /><rect width="30" height="10" x="210" y="60" fill="#f5fcff" /><rect width="20" height="10" x="80" y="70" fill="#343235" /><rect width="10" height="10" x="100" y="70" fill="#fff0be" /><rect width="20" height="10" x="110" y="70" fill="#3f9323" /><rect width="10" height="10" x="130" y="70" fill="#235476" /><rect width="10" height="10" x="140" y="70" fill="#769ca9" /><rect width="10" height="10" x="150" y="70" fill="#235476" /><rect width="10" height="10" x="160" y="70" fill="#3f9323" /><rect width="30" height="10" x="170" y="70" fill="#235476" /><rect width="10" height="10" x="200" y="70" fill="#343235" /><rect width="20" height="10" x="210" y="70" fill="#f5fcff" /><rect width="10" height="10" x="230" y="70" fill="#769ca9" /><rect width="20" height="10" x="70" y="80" fill="#343235" /><rect width="10" height="10" x="90" y="80" fill="#fff0be" /><rect width="20" height="10" x="100" y="80" fill="#235476" /><rect width="10" height="10" x="120" y="80" fill="#769ca9" /><rect width="10" height="10" x="130" y="80" fill="#f86100" /><rect width="20" height="10" x="140" y="80" fill="#7e5243" /><rect width="40" height="10" x="160" y="80" fill="#235476" /><rect width="40" height="10" x="200" y="80" fill="#f5fcff" /><rect width="10" height="10" x="240" y="80" fill="#343235" /><rect width="20" height="10" x="60" y="90" fill="#343235" /><rect width="10" height="10" x="80" y="90" fill="#769ca9" /><rect width="10" height="10" x="90" y="90" fill="#235476" /><rect width="10" height="10" x="100" y="90" fill="#f86100" /><rect width="20" height="10" x="110" y="90" fill="#7e5243" /><rect width="30" height="10" x="130" y="90" fill="#f86100" /><rect width="30" height="10" x="160" y="90" fill="#235476" /><rect width="50" height="10" x="190" y="90" fill="#f5fcff" /><rect width="20" height="10" x="240" y="90" fill="#343235" /><rect width="20" height="10" x="50" y="100" fill="#343235" /><rect width="10" height="10" x="70" y="100" fill="#fff0be" /><rect width="40" height="10" x="80" y="100" fill="#f86100" /><rect width="10" height="10" x="120" y="100" fill="#f89865" /><rect width="20" height="10" x="130" y="100" fill="#f86100" /><rect width="10" height="10" x="150" y="100" fill="#f89865" /><rect width="20" height="10" x="160" y="100" fill="#235476" /><rect width="60" height="10" x="180" y="100" fill="#f5fcff" /><rect width="10" height="10" x="240" y="100" fill="#fff0be" /><rect width="20" height="10" x="250" y="100" fill="#343235" /><rect width="10" height="10" x="50" y="110" fill="#343235" /><rect width="10" height="10" x="60" y="110" fill="#ffffff" /><rect width="10" height="10" x="70" y="110" fill="#769ca9" /><rect width="10" height="10" x="80" y="110" fill="#235476" /><rect width="70" height="10" x="90" y="110" fill="#f86100" /><rect width="60" height="10" x="160" y="110" fill="#ffffff" /><rect width="10" height="10" x="220" y="110" fill="#f5fcff" /><rect width="10" height="10" x="230" y="110" fill="#abf131" /><rect width="20" height="10" x="240" y="110" fill="#fff0be" /><rect width="10" height="10" x="260" y="110" fill="#343235" /><rect width="10" height="10" x="40" y="120" fill="#1f1d29" /><rect width="10" height="10" x="50" y="120" fill="#343235" /><rect width="10" height="10" x="60" y="120" fill="#ffffff" /><rect width="90" height="10" x="70" y="120" fill="#f86100" /><rect width="70" height="10" x="160" y="120" fill="#fff0be" /><rect width="30" height="10" x="230" y="120" fill="#abf131" /><rect width="10" height="10" x="260" y="120" fill="#343235" /><rect width="10" height="10" x="270" y="120" fill="#1f1d29" /><rect width="10" height="10" x="40" y="130" fill="#1f1d29" /><rect width="10" height="10" x="50" y="130" fill="#343235" /><rect width="10" height="10" x="60" y="130" fill="#c4da53" /><rect width="160" height="10" x="70" y="130" fill="#fff0be" /><rect width="30" height="10" x="230" y="130" fill="#abf131" /><rect width="10" height="10" x="260" y="130" fill="#343235" /><rect width="10" height="10" x="270" y="130" fill="#1f1d29" /><rect width="10" height="10" x="40" y="140" fill="#1f1d29" /><rect width="10" height="10" x="50" y="140" fill="#343235" /><rect width="30" height="10" x="60" y="140" fill="#ffffff" /><rect width="140" height="10" x="90" y="140" fill="#fff0be" /><rect width="10" height="10" x="230" y="140" fill="#ff7216" /><rect width="20" height="10" x="240" y="140" fill="#abf131" /><rect width="10" height="10" x="260" y="140" fill="#343235" /><rect width="10" height="10" x="270" y="140" fill="#1f1d29" /><rect width="10" height="10" x="50" y="150" fill="#343235" /><rect width="30" height="10" x="60" y="150" fill="#ffffff" /><rect width="140" height="10" x="90" y="150" fill="#fff0be" /><rect width="20" height="10" x="230" y="150" fill="#ff7216" /><rect width="10" height="10" x="250" y="150" fill="#abf131" /><rect width="10" height="10" x="260" y="150" fill="#343235" /><rect width="10" height="10" x="50" y="160" fill="#343235" /><rect width="10" height="10" x="60" y="160" fill="#c4da53" /><rect width="10" height="10" x="70" y="160" fill="#ffffff" /><rect width="10" height="10" x="80" y="160" fill="#fff0be" /><rect width="10" height="10" x="90" y="160" fill="#ff7216" /><rect width="130" height="10" x="100" y="160" fill="#fff0be" /><rect width="10" height="10" x="230" y="160" fill="#ff7216" /><rect width="10" height="10" x="240" y="160" fill="#abf131" /><rect width="20" height="10" x="250" y="160" fill="#343235" /><rect width="20" height="10" x="60" y="170" fill="#343235" /><rect width="30" height="10" x="80" y="170" fill="#ff7216" /><rect width="10" height="10" x="110" y="170" fill="#fff0be" /><rect width="40" height="10" x="120" y="170" fill="#903707" /><rect width="20" height="10" x="160" y="170" fill="#fff0be" /><rect width="50" height="10" x="180" y="170" fill="#ffffff" /><rect width="10" height="10" x="230" y="170" fill="#fff0be" /><rect width="20" height="10" x="240" y="170" fill="#343235" /><rect width="20" height="10" x="70" y="180" fill="#343235" /><rect width="10" height="10" x="90" y="180" fill="#ff7216" /><rect width="10" height="10" x="100" y="180" fill="#fff0be" /><rect width="20" height="10" x="110" y="180" fill="#903707" /><rect width="10" height="10" x="130" y="180" fill="#f9e8dd" /><rect width="30" height="10" x="140" y="180" fill="#903707" /><rect width="50" height="10" x="170" y="180" fill="#ffffff" /><rect width="10" height="10" x="220" y="180" fill="#fff0be" /><rect width="20" height="10" x="230" y="180" fill="#343235" /><rect width="30" height="10" x="80" y="190" fill="#343235" /><rect width="30" height="10" x="110" y="190" fill="#903707" /><rect width="20" height="10" x="140" y="190" fill="#f9e8dd" /><rect width="10" height="10" x="160" y="190" fill="#903707" /><rect width="50" height="10" x="170" y="190" fill="#ffffff" /><rect width="20" height="10" x="220" y="190" fill="#343235" /><rect width="20" height="10" x="100" y="200" fill="#343235" /><rect width="50" height="10" x="120" y="200" fill="#903707" /><rect width="20" height="10" x="170" y="200" fill="#fff0be" /><rect width="30" height="10" x="190" y="200" fill="#343235" /><rect width="30" height="10" x="130" y="210" fill="#903707" /><rect width="30" height="10" x="160" y="210" fill="#343235" /><rect width="60" height="10" x="100" y="110" fill="#d7d3cd" /><rect width="60" height="10" x="170" y="110" fill="#d7d3cd" /><rect width="10" height="10" x="100" y="120" fill="#d7d3cd" /><rect width="20" height="10" x="110" y="120" fill="#fdf8ff" /><rect width="20" height="10" x="130" y="120" fill="#000000" /><rect width="10" height="10" x="150" y="120" fill="#d7d3cd" /><rect width="10" height="10" x="170" y="120" fill="#d7d3cd" /><rect width="20" height="10" x="180" y="120" fill="#fdf8ff" /><rect width="20" height="10" x="200" y="120" fill="#000000" /><rect width="10" height="10" x="220" y="120" fill="#d7d3cd" /><rect width="40" height="10" x="70" y="130" fill="#d7d3cd" /><rect width="20" height="10" x="110" y="130" fill="#fdf8ff" /><rect width="20" height="10" x="130" y="130" fill="#000000" /><rect width="30" height="10" x="150" y="130" fill="#d7d3cd" /><rect width="20" height="10" x="180" y="130" fill="#fdf8ff" /><rect width="20" height="10" x="200" y="130" fill="#000000" /><rect width="10" height="10" x="220" y="130" fill="#d7d3cd" /><rect width="10" height="10" x="70" y="140" fill="#d7d3cd" /><rect width="10" height="10" x="100" y="140" fill="#d7d3cd" /><rect width="20" height="10" x="110" y="140" fill="#fdf8ff" /><rect width="20" height="10" x="130" y="140" fill="#000000" /><rect width="10" height="10" x="150" y="140" fill="#d7d3cd" /><rect width="10" height="10" x="170" y="140" fill="#d7d3cd" /><rect width="20" height="10" x="180" y="140" fill="#fdf8ff" /><rect width="20" height="10" x="200" y="140" fill="#000000" /><rect width="10" height="10" x="220" y="140" fill="#d7d3cd" /><rect width="10" height="10" x="70" y="150" fill="#d7d3cd" /><rect width="10" height="10" x="100" y="150" fill="#d7d3cd" /><rect width="20" height="10" x="110" y="150" fill="#fdf8ff" /><rect width="20" height="10" x="130" y="150" fill="#000000" /><rect width="10" height="10" x="150" y="150" fill="#d7d3cd" /><rect width="10" height="10" x="170" y="150" fill="#d7d3cd" /><rect width="20" height="10" x="180" y="150" fill="#fdf8ff" /><rect width="20" height="10" x="200" y="150" fill="#000000" /><rect width="10" height="10" x="220" y="150" fill="#d7d3cd" /><rect width="60" height="10" x="100" y="160" fill="#d7d3cd" /><rect width="60" height="10" x="170" y="160" fill="#d7d3cd" /></svg>