<svg viewBox="0 0 320 320" xmlns="http://www.w3.org/2000/svg" shape-rendering="crispEdges"><rect width="100%" height="100%" fill="#d5d7e1" /><rect width="140" height="10" x="90" y="210" fill="#caeff9" /><rect width="140" height="10" x="90" y="220" fill="#caeff9" /><rect width="140" height="10" x="90" y="230" fill="#caeff9" /><rect width="140" height="10" x="90" y="240" fill="#caeff9" /><rect width="20" height="10" x="90" y="250" fill="#caeff9" /><rect width="110" height="10" x="120" y="250" fill="#caeff9" /><rect width="20" height="10" x="90" y="260" fill="#caeff9" /><rect width="110" height="10" x="120" y="260" fill="#caeff9" /><rect width="20" height="10" x="90" y="270" fill="#caeff9" /><rect width="110" height="10" x="120" y="270" fill="#caeff9" /><rect width="20" height="10" x="90" y="280" fill="#caeff9" /><rect width="110" height="10" x="120" y="280" fill="#caeff9" /><rect width="20" height="10" x="90" y="290" fill="#caeff9" /><rect width="110" height="10" x="120" y="290" fill="#caeff9" /><rect width="20" height="10" x="90" y="300" fill="#caeff9" /><rect width="110" height="10" x="120" y="300" fill="#caeff9" /><rect width="20" height="10" x="90" y="310" fill="#caeff9" /><rect width="110" height="10" x="120" y="310" fill="#caeff9" /><rect width="10" height="10" x="200" y="220" fill="#fdf008" /><rect width="10" height="10" x="160" y="230" fill="#ff1a0b" /><rect width="10" height="10" x="190" y="230" fill="#fdf008" /><rect width="10" height="10" x="160" y="240" fill="#ffffff" /><rect width="10" height="10" x="200" y="240" fill="#fdf008" /><rect width="10" height="10" x="160" y="250" fill="#ff1a0b" /><rect width="10" height="10" x="190" y="250" fill="#fdf008" /><rect width="30" height="10" x="150" y="260" fill="#ffffff" /><rect width="30" height="10" x="150" y="270" fill="#ff1a0b" /><rect width="10" height="10" x="150" y="280" fill="#ff1a0b" /><rect width="10" height="10" x="170" y="280" fill="#ff1a0b" /><rect width="10" height="10" x="140" y="290" fill="#ff1a0b" /><rect width="10" height="10" x="160" y="290" fill="#ff1a0b" /><rect width="10" height="10" x="180" y="290" fill="#ff1a0b" /><rect width="10" height="10" x="110" y="10" fill="#f5fcff" /><rect width="10" height="10" x="130" y="10" fill="#f5fcff" /><rect width="10" height="10" x="150" y="10" fill="#235476" /><rect width="10" height="10" x="160" y="10" fill="#f5fcff" /><rect width="10" height="10" x="180" y="10" fill="#f5fcff" /><rect width="10" height="10" x="200" y="10" fill="#f5fcff" /><rect width="30" height="10" x="110" y="20" fill="#f5fcff" /><rect width="10" height="10" x="150" y="20" fill="#235476" /><rect width="10" height="10" x="160" y="20" fill="#f5fcff" /><rect width="30" height="10" x="180" y="20" fill="#f5fcff" /><rect width="30" height="10" x="110" y="30" fill="#f5fcff" /><rect width="10" height="10" x="150" y="30" fill="#235476" /><rect width="10" height="10" x="160" y="30" fill="#f5fcff" /><rect width="30" height="10" x="180" y="30" fill="#f5fcff" /><rect width="10" height="10" x="110" y="40" fill="#f5fcff" /><rect width="10" height="10" x="130" y="40" fill="#f5fcff" /><rect width="20" height="10" x="150" y="40" fill="#f5fcff" /><rect width="10" height="10" x="180" y="40" fill="#f5fcff" /><rect width="10" height="10" x="200" y="40" fill="#f5fcff" /><rect width="10" height="10" x="100" y="50" fill="#f5fcff" /><rect width="20" height="10" x="130" y="50" fill="#f5fcff" /><rect width="10" height="10" x="150" y="50" fill="#235476" /><rect width="30" height="10" x="160" y="50" fill="#f5fcff" /><rect width="10" height="10" x="210" y="50" fill="#f5fcff" /><rect width="10" height="10" x="100" y="60" fill="#f5fcff" /><rect width="20" height="10" x="120" y="60" fill="#f5fcff" /><rect width="10" height="10" x="150" y="60" fill="#235476" /><rect width="10" height="10" x="160" y="60" fill="#f5fcff" /><rect width="20" height="10" x="180" y="60" fill="#f5fcff" /><rect width="10" height="10" x="210" y="60" fill="#f5fcff" /><rect width="10" height="10" x="100" y="70" fill="#f5fcff" /><rect width="20" height="10" x="120" y="70" fill="#f5fcff" /><rect width="10" height="10" x="150" y="70" fill="#235476" /><rect width="10" height="10" x="160" y="70" fill="#f5fcff" /><rect width="20" height="10" x="180" y="70" fill="#f5fcff" /><rect width="10" height="10" x="210" y="70" fill="#f5fcff" /><rect width="10" height="10" x="100" y="80" fill="#f5fcff" /><rect width="10" height="10" x="120" y="80" fill="#f5fcff" /><rect width="10" height="10" x="150" y="80" fill="#235476" /><rect width="10" height="10" x="160" y="80" fill="#f5fcff" /><rect width="10" height="10" x="190" y="80" fill="#f5fcff" /><rect width="10" height="10" x="210" y="80" fill="#f5fcff" /><rect width="10" height="10" x="100" y="90" fill="#f5fcff" /><rect width="10" height="10" x="120" y="90" fill="#f5fcff" /><rect width="20" height="10" x="150" y="90" fill="#f5fcff" /><rect width="10" height="10" x="190" y="90" fill="#f5fcff" /><rect width="10" height="10" x="210" y="90" fill="#f5fcff" /><rect width="30" height="10" x="100" y="100" fill="#f5fcff" /><rect width="10" height="10" x="140" y="100" fill="#f5fcff" /><rect width="10" height="10" x="150" y="100" fill="#235476" /><rect width="20" height="10" x="160" y="100" fill="#f5fcff" /><rect width="30" height="10" x="190" y="100" fill="#f5fcff" /><rect width="10" height="10" x="100" y="110" fill="#f5fcff" /><rect width="20" height="10" x="120" y="110" fill="#f5fcff" /><rect width="10" height="10" x="150" y="110" fill="#235476" /><rect width="10" height="10" x="160" y="110" fill="#f5fcff" /><rect width="20" height="10" x="180" y="110" fill="#f5fcff" /><rect width="10" height="10" x="210" y="110" fill="#f5fcff" /><rect width="10" height="10" x="90" y="120" fill="#f5fcff" /><rect width="20" height="10" x="120" y="120" fill="#f5fcff" /><rect width="10" height="10" x="150" y="120" fill="#235476" /><rect width="10" height="10" x="160" y="120" fill="#f5fcff" /><rect width="20" height="10" x="180" y="120" fill="#f5fcff" /><rect width="10" height="10" x="220" y="120" fill="#f5fcff" /><rect width="10" height="10" x="90" y="130" fill="#f5fcff" /><rect width="20" height="10" x="110" y="130" fill="#f5fcff" /><rect width="10" height="10" x="150" y="130" fill="#235476" /><rect width="10" height="10" x="160" y="130" fill="#f5fcff" /><rect width="20" height="10" x="190" y="130" fill="#f5fcff" /><rect width="10" height="10" x="220" y="130" fill="#f5fcff" /><rect width="10" height="10" x="90" y="140" fill="#f5fcff" /><rect width="20" height="10" x="110" y="140" fill="#f5fcff" /><rect width="20" height="10" x="150" y="140" fill="#f5fcff" /><rect width="10" height="10" x="200" y="140" fill="#f5fcff" /><rect width="10" height="10" x="220" y="140" fill="#f5fcff" /><rect width="10" height="10" x="90" y="150" fill="#f5fcff" /><rect width="10" height="10" x="110" y="150" fill="#f5fcff" /><rect width="10" height="10" x="140" y="150" fill="#f5fcff" /><rect width="20" height="10" x="150" y="150" fill="#235476" /><rect width="10" height="10" x="170" y="150" fill="#f5fcff" /><rect width="10" height="10" x="200" y="150" fill="#f5fcff" /><rect width="10" height="10" x="220" y="150" fill="#f5fcff" /><rect width="30" height="10" x="90" y="160" fill="#f5fcff" /><rect width="10" height="10" x="140" y="160" fill="#f5fcff" /><rect width="20" height="10" x="150" y="160" fill="#235476" /><rect width="10" height="10" x="170" y="160" fill="#f5fcff" /><rect width="30" height="10" x="200" y="160" fill="#f5fcff" /><rect width="10" height="10" x="80" y="170" fill="#f5fcff" /><rect width="10" height="10" x="110" y="170" fill="#f5fcff" /><rect width="10" height="10" x="130" y="170" fill="#f5fcff" /><rect width="20" height="10" x="150" y="170" fill="#235476" /><rect width="10" height="10" x="180" y="170" fill="#f5fcff" /><rect width="10" height="10" x="200" y="170" fill="#f5fcff" /><rect width="10" height="10" x="230" y="170" fill="#f5fcff" /><rect width="10" height="10" x="80" y="180" fill="#f5fcff" /><rect width="10" height="10" x="100" y="180" fill="#f5fcff" /><rect width="10" height="10" x="130" y="180" fill="#f5fcff" /><rect width="20" height="10" x="150" y="180" fill="#235476" /><rect width="10" height="10" x="180" y="180" fill="#f5fcff" /><rect width="10" height="10" x="210" y="180" fill="#f5fcff" /><rect width="10" height="10" x="230" y="180" fill="#f5fcff" /><rect width="10" height="10" x="80" y="190" fill="#f5fcff" /><rect width="10" height="10" x="100" y="190" fill="#f5fcff" /><rect width="10" height="10" x="120" y="190" fill="#f5fcff" /><rect width="20" height="10" x="150" y="190" fill="#235476" /><rect width="10" height="10" x="190" y="190" fill="#f5fcff" /><rect width="10" height="10" x="210" y="190" fill="#f5fcff" /><rect width="10" height="10" x="230" y="190" fill="#f5fcff" /><rect width="50" height="10" x="80" y="200" fill="#f5fcff" /><rect width="20" height="10" x="150" y="200" fill="#235476" /><rect width="50" height="10" x="190" y="200" fill="#f5fcff" /><rect width="60" height="10" x="100" y="110" fill="#e8705b" /><rect width="60" height="10" x="170" y="110" fill="#e8705b" /><rect width="10" height="10" x="100" y="120" fill="#e8705b" /><rect width="20" height="10" x="110" y="120" fill="#ffffff" /><rect width="20" height="10" x="130" y="120" fill="#000000" /><rect width="10" height="10" x="150" y="120" fill="#e8705b" /><rect width="10" height="10" x="170" y="120" fill="#e8705b" /><rect width="20" height="10" x="180" y="120" fill="#ffffff" /><rect width="20" height="10" x="200" y="120" fill="#000000" /><rect width="10" height="10" x="220" y="120" fill="#e8705b" /><rect width="40" height="10" x="70" y="130" fill="#e8705b" /><rect width="20" height="10" x="110" y="130" fill="#ffffff" /><rect width="20" height="10" x="130" y="130" fill="#000000" /><rect width="30" height="10" x="150" y="130" fill="#e8705b" /><rect width="20" height="10" x="180" y="130" fill="#ffffff" /><rect width="20" height="10" x="200" y="130" fill="#000000" /><rect width="10" height="10" x="220" y="130" fill="#e8705b" /><rect width="10" height="10" x="70" y="140" fill="#e8705b" /><rect width="10" height="10" x="100" y="140" fill="#e8705b" /><rect width="20" height="10" x="110" y="140" fill="#ffffff" /><rect width="20" height="10" x="130" y="140" fill="#000000" /><rect width="10" height="10" x="150" y="140" fill="#e8705b" /><rect width="10" height="10" x="170" y="140" fill="#e8705b" /><rect width="20" height="10" x="180" y="140" fill="#ffffff" /><rect width="20" height="10" x="200" y="140" fill="#000000" /><rect width="10" height="10" x="220" y="140" fill="#e8705b" /><rect width="10" height="10" x="70" y="150" fill="#e8705b" /><rect width="10" height="10" x="100" y="150" fill="#e8705b" /><rect width="20" height="10" x="110" y="150" fill="#ffffff" /><rect width="20" height="10" x="130" y="150" fill="#000000" /><rect width="10" height="10" x="150" y="150" fill="#e8705b" /><rect width="10" height="10" x="170" y="150" fill="#e8705b" /><rect width="20" height="10" x="180" y="150" fill="#ffffff" /><rect width="20" height="10" x="200" y="150" fill="#000000" /><rect width="10" height="10" x="220" y="150" fill="#e8705b" /><rect width="60" height="10" x="100" y="160" fill="#e8705b" /><rect width="60" height="10" x="170" y="160" fill="#e8705b" /></svg>