<svg viewBox="0 0 320 320" xmlns="http://www.w3.org/2000/svg" shape-rendering="crispEdges"><rect width="100%" height="100%" fill="#e1d7d5" /><rect width="140" height="10" x="90" y="210" fill="#867c1d" /><rect width="140" height="10" x="90" y="220" fill="#867c1d" /><rect width="140" height="10" x="90" y="230" fill="#867c1d" /><rect width="140" height="10" x="90" y="240" fill="#867c1d" /><rect width="20" height="10" x="90" y="250" fill="#867c1d" /><rect width="110" height="10" x="120" y="250" fill="#867c1d" /><rect width="20" height="10" x="90" y="260" fill="#867c1d" /><rect width="110" height="10" x="120" y="260" fill="#867c1d" /><rect width="20" height="10" x="90" y="270" fill="#867c1d" /><rect width="110" height="10" x="120" y="270" fill="#867c1d" /><rect width="20" height="10" x="90" y="280" fill="#867c1d" /><rect width="110" height="10" x="120" y="280" fill="#867c1d" /><rect width="20" height="10" x="90" y="290" fill="#867c1d" /><rect width="110" height="10" x="120" y="290" fill="#867c1d" /><rect width="20" height="10" x="90" y="300" fill="#867c1d" /><rect width="110" height="10" x="120" y="300" fill="#867c1d" /><rect width="20" height="10" x="90" y="310" fill="#867c1d" /><rect width="110" height="10" x="120" y="310" fill="#867c1d" /><rect width="30" height="10" x="140" y="240" fill="#df2c39" /><rect width="10" height="10" x="190" y="240" fill="#df2c39" /><rect width="20" height="10" x="140" y="250" fill="#df2c39" /><rect width="20" height="10" x="180" y="250" fill="#df2c39" /><rect width="10" height="10" x="140" y="260" fill="#df2c39" /><rect width="30" height="10" x="170" y="260" fill="#df2c39" /><rect width="10" height="10" x="250" y="20" fill="#5fd4fb" /><rect width="10" height="10" x="270" y="20" fill="#5fd4fb" /><rect width="30" height="10" x="250" y="30" fill="#5fd4fb" /><rect width="50" height="10" x="240" y="40" fill="#5fd4fb" /><rect width="40" height="10" x="250" y="50" fill="#5fd4fb" /><rect width="10" height="10" x="120" y="60" fill="#535a15" /><rect width="30" height="10" x="250" y="60" fill="#5fd4fb" /><rect width="30" height="10" x="110" y="70" fill="#535a15" /><rect width="30" height="10" x="150" y="70" fill="#aa940c" /><rect width="10" height="10" x="180" y="70" fill="#fff0be" /><rect width="10" height="10" x="190" y="70" fill="#000000" /><rect width="30" height="10" x="200" y="70" fill="#aa940c" /><rect width="30" height="10" x="240" y="70" fill="#5fd4fb" /><rect width="30" height="10" x="100" y="80" fill="#535a15" /><rect width="20" height="10" x="130" y="80" fill="#aa940c" /><rect width="10" height="10" x="150" y="80" fill="#eed811" /><rect width="20" height="10" x="160" y="80" fill="#aa940c" /><rect width="20" height="10" x="180" y="80" fill="#fff0be" /><rect width="20" height="10" x="200" y="80" fill="#aa940c" /><rect width="20" height="10" x="230" y="80" fill="#5fd4fb" /><rect width="20" height="10" x="70" y="90" fill="#535a15" /><rect width="10" height="10" x="100" y="90" fill="#535a15" /><rect width="20" height="10" x="110" y="90" fill="#aa940c" /><rect width="30" height="10" x="130" y="90" fill="#eed811" /><rect width="60" height="10" x="160" y="90" fill="#aa940c" /><rect width="30" height="10" x="230" y="90" fill="#5fd4fb" /><rect width="30" height="10" x="70" y="100" fill="#535a15" /><rect width="10" height="10" x="100" y="100" fill="#aa940c" /><rect width="40" height="10" x="110" y="100" fill="#eed811" /><rect width="10" height="10" x="150" y="100" fill="#aa940c" /><rect width="10" height="10" x="160" y="100" fill="#eed811" /><rect width="50" height="10" x="170" y="100" fill="#aa940c" /><rect width="20" height="10" x="220" y="100" fill="#5fd4fb" /><rect width="30" height="10" x="60" y="110" fill="#535a15" /><rect width="10" height="10" x="90" y="110" fill="#aa940c" /><rect width="30" height="10" x="100" y="110" fill="#eed811" /><rect width="10" height="10" x="130" y="110" fill="#aa940c" /><rect width="40" height="10" x="140" y="110" fill="#eed811" /><rect width="20" height="10" x="180" y="110" fill="#aa940c" /><rect width="10" height="10" x="200" y="110" fill="#ffffff" /><rect width="10" height="10" x="210" y="110" fill="#aa940c" /><rect width="30" height="10" x="220" y="110" fill="#ffffff" /><rect width="20" height="10" x="60" y="120" fill="#535a15" /><rect width="10" height="10" x="80" y="120" fill="#aa940c" /><rect width="30" height="10" x="90" y="120" fill="#eed811" /><rect width="10" height="10" x="120" y="120" fill="#aa940c" /><rect width="30" height="10" x="130" y="120" fill="#eed811" /><rect width="10" height="10" x="160" y="120" fill="#ffffff" /><rect width="10" height="10" x="170" y="120" fill="#535a15" /><rect width="60" height="10" x="180" y="120" fill="#ffffff" /><rect width="10" height="10" x="60" y="130" fill="#535a15" /><rect width="10" height="10" x="70" y="130" fill="#aa940c" /><rect width="60" height="10" x="80" y="130" fill="#eed811" /><rect width="20" height="10" x="140" y="130" fill="#ffffff" /><rect width="10" height="10" x="160" y="130" fill="#535a15" /><rect width="20" height="10" x="170" y="130" fill="#ffffff" /><rect width="10" height="10" x="190" y="130" fill="#eed811" /><rect width="30" height="10" x="200" y="130" fill="#ffffff" /><rect width="10" height="10" x="70" y="140" fill="#aa940c" /><rect width="30" height="10" x="80" y="140" fill="#eed811" /><rect width="10" height="10" x="110" y="140" fill="#aa940c" /><rect width="10" height="10" x="120" y="140" fill="#eed811" /><rect width="20" height="10" x="130" y="140" fill="#ffffff" /><rect width="10" height="10" x="150" y="140" fill="#535a15" /><rect width="20" height="10" x="160" y="140" fill="#ffffff" /><rect width="30" height="10" x="180" y="140" fill="#eed811" /><rect width="20" height="10" x="210" y="140" fill="#ffffff" /><rect width="10" height="10" x="70" y="150" fill="#aa940c" /><rect width="40" height="10" x="80" y="150" fill="#eed811" /><rect width="20" height="10" x="120" y="150" fill="#ffffff" /><rect width="10" height="10" x="140" y="150" fill="#535a15" /><rect width="20" height="10" x="150" y="150" fill="#ffffff" /><rect width="30" height="10" x="170" y="150" fill="#eed811" /><rect width="20" height="10" x="200" y="150" fill="#ffffff" /><rect width="10" height="10" x="70" y="160" fill="#aa940c" /><rect width="20" height="10" x="80" y="160" fill="#eed811" /><rect width="10" height="10" x="100" y="160" fill="#aa940c" /><rect width="20" height="10" x="110" y="160" fill="#ffffff" /><rect width="10" height="10" x="130" y="160" fill="#535a15" /><rect width="70" height="10" x="140" y="160" fill="#ffffff" /><rect width="10" height="10" x="210" y="160" fill="#eed811" /><rect width="10" height="10" x="60" y="170" fill="#aa940c" /><rect width="20" height="10" x="70" y="170" fill="#eed811" /><rect width="10" height="10" x="90" y="170" fill="#aa940c" /><rect width="10" height="10" x="100" y="170" fill="#eed811" /><rect width="10" height="10" x="110" y="170" fill="#ffffff" /><rect width="10" height="10" x="120" y="170" fill="#535a15" /><rect width="70" height="10" x="130" y="170" fill="#ffffff" /><rect width="10" height="10" x="200" y="170" fill="#eed811" /><rect width="40" height="10" x="20" y="180" fill="#535a15" /><rect width="10" height="10" x="60" y="180" fill="#aa940c" /><rect width="10" height="10" x="70" y="180" fill="#eed811" /><rect width="10" height="10" x="80" y="180" fill="#aa940c" /><rect width="10" height="10" x="90" y="180" fill="#eed811" /><rect width="10" height="10" x="100" y="180" fill="#535a15" /><rect width="40" height="10" x="110" y="180" fill="#ffffff" /><rect width="30" height="10" x="150" y="180" fill="#aa940c" /><rect width="10" height="10" x="180" y="180" fill="#ffffff" /><rect width="20" height="10" x="190" y="180" fill="#eed811" /><rect width="40" height="10" x="20" y="190" fill="#535a15" /><rect width="10" height="10" x="60" y="190" fill="#eed811" /><rect width="10" height="10" x="70" y="190" fill="#aa940c" /><rect width="10" height="10" x="80" y="190" fill="#eed811" /><rect width="10" height="10" x="90" y="190" fill="#535a15" /><rect width="80" height="10" x="100" y="190" fill="#ffffff" /><rect width="10" height="10" x="190" y="190" fill="#eed811" /><rect width="50" height="10" x="20" y="200" fill="#535a15" /><rect width="80" height="10" x="70" y="200" fill="#ffffff" /><rect width="60" height="10" x="30" y="210" fill="#535a15" /><rect width="30" height="10" x="120" y="210" fill="#eed811" /><rect width="40" height="10" x="50" y="220" fill="#535a15" /><rect width="20" height="10" x="120" y="220" fill="#eed811" /><rect width="40" height="10" x="50" y="230" fill="#535a15" /><rect width="30" height="10" x="60" y="240" fill="#535a15" /><rect width="60" height="10" x="100" y="110" fill="#fe500c" /><rect width="60" height="10" x="170" y="110" fill="#fe500c" /><rect width="10" height="10" x="100" y="120" fill="#fe500c" /><rect width="20" height="10" x="110" y="120" fill="#ffffff" /><rect width="20" height="10" x="130" y="120" fill="#000000" /><rect width="10" height="10" x="150" y="120" fill="#fe500c" /><rect width="10" height="10" x="170" y="120" fill="#fe500c" /><rect width="20" height="10" x="180" y="120" fill="#ffffff" /><rect width="20" height="10" x="200" y="120" fill="#000000" /><rect width="10" height="10" x="220" y="120" fill="#fe500c" /><rect width="40" height="10" x="70" y="130" fill="#fe500c" /><rect width="20" height="10" x="110" y="130" fill="#ffffff" /><rect width="20" height="10" x="130" y="130" fill="#000000" /><rect width="30" height="10" x="150" y="130" fill="#fe500c" /><rect width="20" height="10" x="180" y="130" fill="#ffffff" /><rect width="20" height="10" x="200" y="130" fill="#000000" /><rect width="10" height="10" x="220" y="130" fill="#fe500c" /><rect width="10" height="10" x="70" y="140" fill="#fe500c" /><rect width="10" height="10" x="100" y="140" fill="#fe500c" /><rect width="20" height="10" x="110" y="140" fill="#ffffff" /><rect width="20" height="10" x="130" y="140" fill="#000000" /><rect width="10" height="10" x="150" y="140" fill="#fe500c" /><rect width="10" height="10" x="170" y="140" fill="#fe500c" /><rect width="20" height="10" x="180" y="140" fill="#ffffff" /><rect width="20" height="10" x="200" y="140" fill="#000000" /><rect width="10" height="10" x="220" y="140" fill="#fe500c" /><rect width="10" height="10" x="70" y="150" fill="#fe500c" /><rect width="10" height="10" x="100" y="150" fill="#fe500c" /><rect width="20" height="10" x="110" y="150" fill="#ffffff" /><rect width="20" height="10" x="130" y="150" fill="#000000" /><rect width="10" height="10" x="150" y="150" fill="#fe500c" /><rect width="10" height="10" x="170" y="150" fill="#fe500c" /><rect width="20" height="10" x="180" y="150" fill="#ffffff" /><rect width="20" height="10" x="200" y="150" fill="#000000" /><rect width="10" height="10" x="220" y="150" fill="#fe500c" /><rect width="60" height="10" x="100" y="160" fill="#fe500c" /><rect width="60" height="10" x="170" y="160" fill="#fe500c" /></svg>