<svg viewBox="0 0 320 320" xmlns="http://www.w3.org/2000/svg" shape-rendering="crispEdges"><rect width="100%" height="100%" fill="#e1d7d5" /><rect width="140" height="10" x="90" y="210" fill="#63a0f9" /><rect width="140" height="10" x="90" y="220" fill="#63a0f9" /><rect width="140" height="10" x="90" y="230" fill="#63a0f9" /><rect width="140" height="10" x="90" y="240" fill="#63a0f9" /><rect width="20" height="10" x="90" y="250" fill="#63a0f9" /><rect width="110" height="10" x="120" y="250" fill="#63a0f9" /><rect width="20" height="10" x="90" y="260" fill="#63a0f9" /><rect width="110" height="10" x="120" y="260" fill="#63a0f9" /><rect width="20" height="10" x="90" y="270" fill="#63a0f9" /><rect width="110" height="10" x="120" y="270" fill="#63a0f9" /><rect width="20" height="10" x="90" y="280" fill="#63a0f9" /><rect width="110" height="10" x="120" y="280" fill="#63a0f9" /><rect width="20" height="10" x="90" y="290" fill="#63a0f9" /><rect width="110" height="10" x="120" y="290" fill="#63a0f9" /><rect width="20" height="10" x="90" y="300" fill="#63a0f9" /><rect width="110" height="10" x="120" y="300" fill="#63a0f9" /><rect width="20" height="10" x="90" y="310" fill="#63a0f9" /><rect width="110" height="10" x="120" y="310" fill="#63a0f9" /><rect width="20" height="10" x="90" y="250" fill="#f83001" /><rect width="10" height="10" x="120" y="250" fill="#ff82ad" /><rect width="20" height="10" x="130" y="250" fill="#f83001" /><rect width="20" height="10" x="160" y="250" fill="#ff82ad" /><rect width="10" height="10" x="180" y="250" fill="#f83001" /><rect width="10" height="10" x="200" y="250" fill="#ff82ad" /><rect width="10" height="10" x="210" y="250" fill="#f83001" /><rect width="10" height="10" x="220" y="250" fill="#ff82ad" /><rect width="20" height="10" x="90" y="260" fill="#ff82ad" /><rect width="30" height="10" x="120" y="260" fill="#ff82ad" /><rect width="10" height="10" x="160" y="260" fill="#ff82ad" /><rect width="10" height="10" x="170" y="260" fill="#f83001" /><rect width="10" height="10" x="180" y="260" fill="#ff82ad" /><rect width="30" height="10" x="200" y="260" fill="#ff82ad" /><rect width="20" height="10" x="90" y="270" fill="#f83001" /><rect width="20" height="10" x="120" y="270" fill="#ff82ad" /><rect width="10" height="10" x="140" y="270" fill="#f83001" /><rect width="30" height="10" x="160" y="270" fill="#ff82ad" /><rect width="20" height="10" x="200" y="270" fill="#ff82ad" /><rect width="10" height="10" x="220" y="270" fill="#f83001" /><rect width="10" height="10" x="290" y="30" fill="#fdf8ff" /><rect width="10" height="10" x="30" y="40" fill="#ff82ad" /><rect width="10" height="10" x="270" y="40" fill="#fdf8ff" /><rect width="190" height="10" x="60" y="50" fill="#5a423f" /><rect width="10" height="10" x="20" y="60" fill="#ff82ad" /><rect width="20" height="10" x="70" y="60" fill="#5a423f" /><rect width="10" height="10" x="90" y="60" fill="#fbc311" /><rect width="20" height="10" x="100" y="60" fill="#5a423f" /><rect width="10" height="10" x="120" y="60" fill="#fbc311" /><rect width="20" height="10" x="130" y="60" fill="#5a423f" /><rect width="10" height="10" x="150" y="60" fill="#fbc311" /><rect width="20" height="10" x="160" y="60" fill="#5a423f" /><rect width="10" height="10" x="180" y="60" fill="#fbc311" /><rect width="20" height="10" x="190" y="60" fill="#5a423f" /><rect width="10" height="10" x="210" y="60" fill="#fbc311" /><rect width="20" height="10" x="220" y="60" fill="#5a423f" /><rect width="10" height="10" x="290" y="60" fill="#fdf8ff" /><rect width="10" height="10" x="60" y="70" fill="#4d271b" /><rect width="10" height="10" x="70" y="70" fill="#5a423f" /><rect width="10" height="10" x="80" y="70" fill="#552d1d" /><rect width="130" height="10" x="90" y="70" fill="#4d271b" /><rect width="10" height="10" x="220" y="70" fill="#552d1d" /><rect width="10" height="10" x="230" y="70" fill="#5a423f" /><rect width="10" height="10" x="240" y="70" fill="#4d271b" /><rect width="20" height="10" x="20" y="80" fill="#ff82ad" /><rect width="20" height="10" x="60" y="80" fill="#4d271b" /><rect width="10" height="10" x="80" y="80" fill="#552d1d" /><rect width="50" height="10" x="90" y="80" fill="#4d271b" /><rect width="30" height="10" x="140" y="80" fill="#a86f60" /><rect width="50" height="10" x="170" y="80" fill="#4d271b" /><rect width="10" height="10" x="220" y="80" fill="#552d1d" /><rect width="20" height="10" x="230" y="80" fill="#4d271b" /><rect width="20" height="10" x="280" y="80" fill="#fdf8ff" /><rect width="10" height="10" x="20" y="90" fill="#fff671" /><rect width="10" height="10" x="30" y="90" fill="#ff82ad" /><rect width="20" height="10" x="60" y="90" fill="#4d271b" /><rect width="10" height="10" x="80" y="90" fill="#552d1d" /><rect width="40" height="10" x="90" y="90" fill="#4d271b" /><rect width="50" height="10" x="130" y="90" fill="#6b3f39" /><rect width="40" height="10" x="180" y="90" fill="#4d271b" /><rect width="10" height="10" x="220" y="90" fill="#552d1d" /><rect width="20" height="10" x="230" y="90" fill="#4d271b" /><rect width="10" height="10" x="280" y="90" fill="#fff671" /><rect width="10" height="10" x="290" y="90" fill="#fdf8ff" /><rect width="20" height="10" x="60" y="100" fill="#4d271b" /><rect width="10" height="10" x="80" y="100" fill="#552d1d" /><rect width="30" height="10" x="90" y="100" fill="#4d271b" /><rect width="20" height="10" x="120" y="100" fill="#6b3f39" /><rect width="30" height="10" x="140" y="100" fill="#f83001" /><rect width="20" height="10" x="170" y="100" fill="#6b3f39" /><rect width="30" height="10" x="190" y="100" fill="#4d271b" /><rect width="10" height="10" x="220" y="100" fill="#552d1d" /><rect width="20" height="10" x="230" y="100" fill="#4d271b" /><rect width="40" height="10" x="40" y="110" fill="#4d271b" /><rect width="10" height="10" x="80" y="110" fill="#552d1d" /><rect width="10" height="10" x="90" y="110" fill="#4d271b" /><rect width="30" height="10" x="100" y="110" fill="#6b3f39" /><rect width="10" height="10" x="130" y="110" fill="#f83001" /><rect width="30" height="10" x="140" y="110" fill="#fbc311" /><rect width="10" height="10" x="170" y="110" fill="#f83001" /><rect width="30" height="10" x="180" y="110" fill="#6b3f39" /><rect width="10" height="10" x="210" y="110" fill="#4d271b" /><rect width="10" height="10" x="220" y="110" fill="#552d1d" /><rect width="40" height="10" x="230" y="110" fill="#4d271b" /><rect width="60" height="10" x="40" y="120" fill="#d22209" /><rect width="40" height="10" x="100" y="120" fill="#f83001" /><rect width="10" height="10" x="140" y="120" fill="#027c92" /><rect width="10" height="10" x="150" y="120" fill="#fbc311" /><rect width="10" height="10" x="160" y="120" fill="#027c92" /><rect width="40" height="10" x="170" y="120" fill="#f83001" /><rect width="60" height="10" x="210" y="120" fill="#d22209" /><rect width="30" height="10" x="50" y="130" fill="#d22209" /><rect width="40" height="10" x="80" y="130" fill="#235476" /><rect width="10" height="10" x="120" y="130" fill="#f83001" /><rect width="10" height="10" x="130" y="130" fill="#027c92" /><rect width="30" height="10" x="140" y="130" fill="#f83001" /><rect width="10" height="10" x="170" y="130" fill="#027c92" /><rect width="10" height="10" x="180" y="130" fill="#f83001" /><rect width="40" height="10" x="190" y="130" fill="#235476" /><rect width="30" height="10" x="230" y="130" fill="#d22209" /><rect width="10" height="10" x="50" y="140" fill="#d22209" /><rect width="10" height="10" x="60" y="140" fill="#f8ce47" /><rect width="10" height="10" x="70" y="140" fill="#d22209" /><rect width="20" height="10" x="80" y="140" fill="#f8ce47" /><rect width="10" height="10" x="100" y="140" fill="#d22209" /><rect width="10" height="10" x="110" y="140" fill="#f8ce47" /><rect width="10" height="10" x="120" y="140" fill="#f83001" /><rect width="10" height="10" x="130" y="140" fill="#d22209" /><rect width="30" height="10" x="140" y="140" fill="#f8ce47" /><rect width="10" height="10" x="170" y="140" fill="#d22209" /><rect width="10" height="10" x="180" y="140" fill="#f83001" /><rect width="10" height="10" x="190" y="140" fill="#f8ce47" /><rect width="10" height="10" x="200" y="140" fill="#d22209" /><rect width="20" height="10" x="210" y="140" fill="#f8ce47" /><rect width="10" height="10" x="230" y="140" fill="#d22209" /><rect width="10" height="10" x="240" y="140" fill="#f8ce47" /><rect width="10" height="10" x="250" y="140" fill="#d22209" /><rect width="10" height="10" x="50" y="150" fill="#d22209" /><rect width="10" height="10" x="60" y="150" fill="#555353" /><rect width="10" height="10" x="70" y="150" fill="#d22209" /><rect width="20" height="10" x="80" y="150" fill="#555353" /><rect width="10" height="10" x="100" y="150" fill="#d22209" /><rect width="10" height="10" x="110" y="150" fill="#555353" /><rect width="10" height="10" x="120" y="150" fill="#f83001" /><rect width="10" height="10" x="130" y="150" fill="#d22209" /><rect width="30" height="10" x="140" y="150" fill="#555353" /><rect width="10" height="10" x="170" y="150" fill="#d22209" /><rect width="10" height="10" x="180" y="150" fill="#f83001" /><rect width="10" height="10" x="190" y="150" fill="#555353" /><rect width="10" height="10" x="200" y="150" fill="#d22209" /><rect width="20" height="10" x="210" y="150" fill="#555353" /><rect width="10" height="10" x="230" y="150" fill="#d22209" /><rect width="10" height="10" x="240" y="150" fill="#555353" /><rect width="10" height="10" x="250" y="150" fill="#d22209" /><rect width="10" height="10" x="50" y="160" fill="#d22209" /><rect width="10" height="10" x="60" y="160" fill="#555353" /><rect width="10" height="10" x="70" y="160" fill="#d22209" /><rect width="20" height="10" x="80" y="160" fill="#555353" /><rect width="10" height="10" x="100" y="160" fill="#d22209" /><rect width="10" height="10" x="110" y="160" fill="#555353" /><rect width="10" height="10" x="120" y="160" fill="#f83001" /><rect width="10" height="10" x="130" y="160" fill="#d22209" /><rect width="30" height="10" x="140" y="160" fill="#555353" /><rect width="10" height="10" x="170" y="160" fill="#d22209" /><rect width="10" height="10" x="180" y="160" fill="#f83001" /><rect width="10" height="10" x="190" y="160" fill="#555353" /><rect width="10" height="10" x="200" y="160" fill="#d22209" /><rect width="20" height="10" x="210" y="160" fill="#555353" /><rect width="10" height="10" x="230" y="160" fill="#d22209" /><rect width="10" height="10" x="240" y="160" fill="#555353" /><rect width="10" height="10" x="250" y="160" fill="#d22209" /><rect width="70" height="10" x="50" y="170" fill="#d22209" /><rect width="10" height="10" x="120" y="170" fill="#f83001" /><rect width="50" height="10" x="130" y="170" fill="#d22209" /><rect width="10" height="10" x="180" y="170" fill="#f83001" /><rect width="70" height="10" x="190" y="170" fill="#d22209" /><rect width="10" height="10" x="50" y="180" fill="#d22209" /><rect width="10" height="10" x="60" y="180" fill="#343235" /><rect width="10" height="10" x="70" y="180" fill="#d22209" /><rect width="20" height="10" x="80" y="180" fill="#343235" /><rect width="10" height="10" x="100" y="180" fill="#d22209" /><rect width="10" height="10" x="110" y="180" fill="#343235" /><rect width="10" height="10" x="120" y="180" fill="#f83001" /><rect width="10" height="10" x="130" y="180" fill="#d22209" /><rect width="30" height="10" x="140" y="180" fill="#343235" /><rect width="10" height="10" x="170" y="180" fill="#d22209" /><rect width="10" height="10" x="180" y="180" fill="#f83001" /><rect width="10" height="10" x="190" y="180" fill="#343235" /><rect width="10" height="10" x="200" y="180" fill="#d22209" /><rect width="20" height="10" x="210" y="180" fill="#343235" /><rect width="10" height="10" x="230" y="180" fill="#d22209" /><rect width="10" height="10" x="240" y="180" fill="#343235" /><rect width="10" height="10" x="250" y="180" fill="#d22209" /><rect width="10" height="10" x="40" y="190" fill="#b8ced2" /><rect width="20" height="10" x="50" y="190" fill="#adc8cc" /><rect width="20" height="10" x="70" y="190" fill="#b8ced2" /><rect width="20" height="10" x="90" y="190" fill="#adc8cc" /><rect width="20" height="10" x="110" y="190" fill="#b8ced2" /><rect width="20" height="10" x="130" y="190" fill="#adc8cc" /><rect width="20" height="10" x="150" y="190" fill="#b8ced2" /><rect width="20" height="10" x="170" y="190" fill="#adc8cc" /><rect width="20" height="10" x="190" y="190" fill="#b8ced2" /><rect width="20" height="10" x="210" y="190" fill="#adc8cc" /><rect width="10" height="10" x="230" y="190" fill="#b8ced2" /><rect width="20" height="10" x="240" y="190" fill="#adc8cc" /><rect width="10" height="10" x="260" y="190" fill="#b8ced2" /><rect width="10" height="10" x="80" y="200" fill="#adc8cc" /><rect width="20" height="10" x="90" y="200" fill="#b8ced2" /><rect width="20" height="10" x="110" y="200" fill="#adc8cc" /><rect width="20" height="10" x="130" y="200" fill="#b8ced2" /><rect width="20" height="10" x="150" y="200" fill="#adc8cc" /><rect width="20" height="10" x="170" y="200" fill="#b8ced2" /><rect width="20" height="10" x="190" y="200" fill="#adc8cc" /><rect width="20" height="10" x="210" y="200" fill="#b8ced2" /><rect width="10" height="10" x="230" y="200" fill="#adc8cc" /><rect width="60" height="10" x="100" y="110" fill="#ffc110" /><rect width="60" height="10" x="170" y="110" fill="#f98f30" /><rect width="10" height="10" x="100" y="120" fill="#ffc110" /><rect width="20" height="10" x="110" y="120" fill="#ffffff" /><rect width="20" height="10" x="130" y="120" fill="#000000" /><rect width="10" height="10" x="150" y="120" fill="#ffc110" /><rect width="10" height="10" x="170" y="120" fill="#f98f30" /><rect width="20" height="10" x="180" y="120" fill="#ffffff" /><rect width="20" height="10" x="200" y="120" fill="#000000" /><rect width="10" height="10" x="220" y="120" fill="#f98f30" /><rect width="30" height="10" x="70" y="130" fill="#f78a18" /><rect width="10" height="10" x="100" y="130" fill="#ffc110" /><rect width="20" height="10" x="110" y="130" fill="#ffffff" /><rect width="20" height="10" x="130" y="130" fill="#000000" /><rect width="10" height="10" x="150" y="130" fill="#ffc110" /><rect width="10" height="10" x="160" y="130" fill="#f78a18" /><rect width="10" height="10" x="170" y="130" fill="#f98f30" /><rect width="20" height="10" x="180" y="130" fill="#ffffff" /><rect width="20" height="10" x="200" y="130" fill="#000000" /><rect width="10" height="10" x="220" y="130" fill="#f98f30" /><rect width="10" height="10" x="70" y="140" fill="#ffc110" /><rect width="10" height="10" x="100" y="140" fill="#ffc110" /><rect width="20" height="10" x="110" y="140" fill="#ffffff" /><rect width="20" height="10" x="130" y="140" fill="#000000" /><rect width="10" height="10" x="150" y="140" fill="#ffc110" /><rect width="10" height="10" x="170" y="140" fill="#f98f30" /><rect width="20" height="10" x="180" y="140" fill="#ffffff" /><rect width="20" height="10" x="200" y="140" fill="#000000" /><rect width="10" height="10" x="220" y="140" fill="#f98f30" /><rect width="10" height="10" x="70" y="150" fill="#ffc110" /><rect width="10" height="10" x="100" y="150" fill="#ffc110" /><rect width="20" height="10" x="110" y="150" fill="#ffffff" /><rect width="20" height="10" x="130" y="150" fill="#000000" /><rect width="10" height="10" x="150" y="150" fill="#ffc110" /><rect width="10" height="10" x="170" y="150" fill="#f98f30" /><rect width="20" height="10" x="180" y="150" fill="#ffffff" /><rect width="20" height="10" x="200" y="150" fill="#000000" /><rect width="10" height="10" x="220" y="150" fill="#f98f30" /><rect width="60" height="10" x="100" y="160" fill="#ffc110" /><rect width="60" height="10" x="170" y="160" fill="#f98f30" /></svg>