<svg viewBox="0 0 320 320" xmlns="http://www.w3.org/2000/svg" shape-rendering="crispEdges"><rect width="100%" height="100%" fill="#d5d7e1" /><rect width="140" height="10" x="90" y="210" fill="#c5b9a1" /><rect width="140" height="10" x="90" y="220" fill="#c5b9a1" /><rect width="140" height="10" x="90" y="230" fill="#c5b9a1" /><rect width="140" height="10" x="90" y="240" fill="#c5b9a1" /><rect width="20" height="10" x="90" y="250" fill="#c5b9a1" /><rect width="110" height="10" x="120" y="250" fill="#c5b9a1" /><rect width="20" height="10" x="90" y="260" fill="#c5b9a1" /><rect width="110" height="10" x="120" y="260" fill="#c5b9a1" /><rect width="20" height="10" x="90" y="270" fill="#c5b9a1" /><rect width="110" height="10" x="120" y="270" fill="#c5b9a1" /><rect width="20" height="10" x="90" y="280" fill="#c5b9a1" /><rect width="110" height="10" x="120" y="280" fill="#c5b9a1" /><rect width="20" height="10" x="90" y="290" fill="#c5b9a1" /><rect width="110" height="10" x="120" y="290" fill="#c5b9a1" /><rect width="20" height="10" x="90" y="300" fill="#c5b9a1" /><rect width="110" height="10" x="120" y="300" fill="#c5b9a1" /><rect width="20" height="10" x="90" y="310" fill="#c5b9a1" /><rect width="110" height="10" x="120" y="310" fill="#c5b9a1" /><rect width="10" height="10" x="150" y="250" fill="#aaa6a4" /><rect width="10" height="10" x="120" y="260" fill="#aaa6a4" /><rect width="20" height="10" x="140" y="260" fill="#aaa6a4" /><rect width="10" height="10" x="90" y="270" fill="#aaa6a4" /><rect width="40" height="10" x="120" y="270" fill="#aaa6a4" /><rect width="10" height="10" x="170" y="270" fill="#aaa6a4" /><rect width="10" height="10" x="190" y="270" fill="#aaa6a4" /><rect width="10" height="10" x="220" y="270" fill="#aaa6a4" /><rect width="20" height="10" x="90" y="280" fill="#aaa6a4" /><rect width="100" height="10" x="120" y="280" fill="#aaa6a4" /><rect width="20" height="10" x="90" y="290" fill="#bd2d24" /><rect width="110" height="10" x="120" y="290" fill="#bd2d24" /><rect width="20" height="10" x="90" y="300" fill="#235476" /><rect width="110" height="10" x="120" y="300" fill="#235476" /><rect width="20" height="10" x="90" y="310" fill="#235476" /><rect width="110" height="10" x="120" y="310" fill="#235476" /><rect width="10" height="10" x="100" y="50" fill="#f9f5cb" /><rect width="40" height="10" x="140" y="50" fill="#feb9d5" /><rect width="10" height="10" x="190" y="50" fill="#ffd067" /><rect width="20" height="10" x="110" y="60" fill="#f9f5cb" /><rect width="10" height="10" x="130" y="60" fill="#fde7f5" /><rect width="10" height="10" x="140" y="60" fill="#feb9d5" /><rect width="20" height="10" x="150" y="60" fill="#ff82ad" /><rect width="10" height="10" x="170" y="60" fill="#c4da53" /><rect width="10" height="10" x="180" y="60" fill="#f9f5cb" /><rect width="10" height="10" x="110" y="70" fill="#c4da53" /><rect width="10" height="10" x="120" y="70" fill="#fde7f5" /><rect width="10" height="10" x="130" y="70" fill="#ffffff" /><rect width="20" height="10" x="140" y="70" fill="#ff82ad" /><rect width="10" height="10" x="160" y="70" fill="#c4da53" /><rect width="10" height="10" x="170" y="70" fill="#ffffff" /><rect width="10" height="10" x="180" y="70" fill="#c4da53" /><rect width="10" height="10" x="80" y="80" fill="#ffd067" /><rect width="10" height="10" x="90" y="80" fill="#ffffff" /><rect width="10" height="10" x="110" y="80" fill="#fde7f5" /><rect width="10" height="10" x="120" y="80" fill="#ffffff" /><rect width="10" height="10" x="130" y="80" fill="#feb9d5" /><rect width="10" height="10" x="140" y="80" fill="#ff82ad" /><rect width="10" height="10" x="150" y="80" fill="#f9f5cb" /><rect width="10" height="10" x="160" y="80" fill="#ffffff" /><rect width="10" height="10" x="170" y="80" fill="#f9f5cb" /><rect width="10" height="10" x="180" y="80" fill="#ffffff" /><rect width="10" height="10" x="190" y="80" fill="#c4da53" /><rect width="10" height="10" x="200" y="80" fill="#feb9d5" /><rect width="10" height="10" x="210" y="80" fill="#ffffff" /><rect width="10" height="10" x="100" y="90" fill="#ffffff" /><rect width="10" height="10" x="110" y="90" fill="#fde7f5" /><rect width="10" height="10" x="120" y="90" fill="#ffffff" /><rect width="10" height="10" x="130" y="90" fill="#feb9d5" /><rect width="10" height="10" x="140" y="90" fill="#ff82ad" /><rect width="10" height="10" x="150" y="90" fill="#c4da53" /><rect width="10" height="10" x="160" y="90" fill="#f9f5cb" /><rect width="10" height="10" x="170" y="90" fill="#ffffff" /><rect width="10" height="10" x="180" y="90" fill="#c4da53" /><rect width="10" height="10" x="190" y="90" fill="#ffffff" /><rect width="20" height="10" x="200" y="90" fill="#feb9d5" /><rect width="10" height="10" x="220" y="90" fill="#ffffff" /><rect width="10" height="10" x="100" y="100" fill="#c4da53" /><rect width="10" height="10" x="110" y="100" fill="#fde7f5" /><rect width="10" height="10" x="120" y="100" fill="#ffffff" /><rect width="10" height="10" x="130" y="100" fill="#feb9d5" /><rect width="10" height="10" x="140" y="100" fill="#ff82ad" /><rect width="10" height="10" x="150" y="100" fill="#f9f5cb" /><rect width="20" height="10" x="160" y="100" fill="#c4da53" /><rect width="10" height="10" x="180" y="100" fill="#ffffff" /><rect width="10" height="10" x="190" y="100" fill="#c4da53" /><rect width="10" height="10" x="200" y="100" fill="#f9f5cb" /><rect width="10" height="10" x="210" y="100" fill="#feb9d5" /><rect width="10" height="10" x="220" y="100" fill="#fde7f5" /><rect width="10" height="10" x="230" y="100" fill="#ffffff" /><rect width="10" height="10" x="90" y="110" fill="#feb9d5" /><rect width="10" height="10" x="100" y="110" fill="#f9f5cb" /><rect width="10" height="10" x="110" y="110" fill="#fde7f5" /><rect width="10" height="10" x="120" y="110" fill="#ffffff" /><rect width="10" height="10" x="130" y="110" fill="#feb9d5" /><rect width="10" height="10" x="140" y="110" fill="#ff82ad" /><rect width="40" height="10" x="150" y="110" fill="#c4da53" /><rect width="10" height="10" x="190" y="110" fill="#f9f5cb" /><rect width="10" height="10" x="200" y="110" fill="#c4da53" /><rect width="10" height="10" x="210" y="110" fill="#feb9d5" /><rect width="20" height="10" x="220" y="110" fill="#fde7f5" /><rect width="10" height="10" x="240" y="110" fill="#ffffff" /><rect width="10" height="10" x="80" y="120" fill="#feb9d5" /><rect width="10" height="10" x="90" y="120" fill="#f9f5cb" /><rect width="10" height="10" x="100" y="120" fill="#c4da53" /><rect width="10" height="10" x="110" y="120" fill="#fde7f5" /><rect width="10" height="10" x="120" y="120" fill="#ffffff" /><rect width="10" height="10" x="130" y="120" fill="#feb9d5" /><rect width="10" height="10" x="140" y="120" fill="#ff82ad" /><rect width="60" height="10" x="150" y="120" fill="#c4da53" /><rect width="10" height="10" x="210" y="120" fill="#feb9d5" /><rect width="20" height="10" x="220" y="120" fill="#fde7f5" /><rect width="10" height="10" x="240" y="120" fill="#ffffff" /><rect width="10" height="10" x="70" y="130" fill="#ff82ad" /><rect width="10" height="10" x="80" y="130" fill="#feb9d5" /><rect width="20" height="10" x="90" y="130" fill="#c4da53" /><rect width="10" height="10" x="110" y="130" fill="#fde7f5" /><rect width="10" height="10" x="120" y="130" fill="#ffffff" /><rect width="10" height="10" x="130" y="130" fill="#feb9d5" /><rect width="10" height="10" x="140" y="130" fill="#ff82ad" /><rect width="60" height="10" x="150" y="130" fill="#c4da53" /><rect width="10" height="10" x="210" y="130" fill="#feb9d5" /><rect width="20" height="10" x="220" y="130" fill="#fde7f5" /><rect width="10" height="10" x="240" y="130" fill="#ffffff" /><rect width="10" height="10" x="70" y="140" fill="#ff82ad" /><rect width="10" height="10" x="80" y="140" fill="#feb9d5" /><rect width="20" height="10" x="90" y="140" fill="#c4da53" /><rect width="10" height="10" x="110" y="140" fill="#fde7f5" /><rect width="10" height="10" x="120" y="140" fill="#ffffff" /><rect width="10" height="10" x="130" y="140" fill="#feb9d5" /><rect width="10" height="10" x="140" y="140" fill="#ff82ad" /><rect width="60" height="10" x="150" y="140" fill="#c4da53" /><rect width="10" height="10" x="210" y="140" fill="#feb9d5" /><rect width="20" height="10" x="220" y="140" fill="#fde7f5" /><rect width="10" height="10" x="240" y="140" fill="#ffffff" /><rect width="10" height="10" x="70" y="150" fill="#ff82ad" /><rect width="10" height="10" x="80" y="150" fill="#feb9d5" /><rect width="20" height="10" x="90" y="150" fill="#c4da53" /><rect width="10" height="10" x="110" y="150" fill="#fde7f5" /><rect width="10" height="10" x="120" y="150" fill="#ffffff" /><rect width="10" height="10" x="130" y="150" fill="#feb9d5" /><rect width="10" height="10" x="140" y="150" fill="#ff82ad" /><rect width="60" height="10" x="150" y="150" fill="#c4da53" /><rect width="10" height="10" x="210" y="150" fill="#feb9d5" /><rect width="20" height="10" x="220" y="150" fill="#fde7f5" /><rect width="10" height="10" x="240" y="150" fill="#ffffff" /><rect width="10" height="10" x="70" y="160" fill="#ff82ad" /><rect width="10" height="10" x="80" y="160" fill="#feb9d5" /><rect width="20" height="10" x="90" y="160" fill="#c4da53" /><rect width="10" height="10" x="110" y="160" fill="#fde7f5" /><rect width="10" height="10" x="120" y="160" fill="#ffffff" /><rect width="10" height="10" x="130" y="160" fill="#ff82ad" /><rect width="70" height="10" x="140" y="160" fill="#c4da53" /><rect width="10" height="10" x="210" y="160" fill="#feb9d5" /><rect width="20" height="10" x="220" y="160" fill="#fde7f5" /><rect width="10" height="10" x="240" y="160" fill="#ffffff" /><rect width="10" height="10" x="70" y="170" fill="#ff82ad" /><rect width="10" height="10" x="80" y="170" fill="#feb9d5" /><rect width="120" height="10" x="90" y="170" fill="#c4da53" /><rect width="10" height="10" x="210" y="170" fill="#feb9d5" /><rect width="20" height="10" x="220" y="170" fill="#fde7f5" /><rect width="10" height="10" x="240" y="170" fill="#ffffff" /><rect width="20" height="10" x="70" y="180" fill="#ff82ad" /><rect width="10" height="10" x="90" y="180" fill="#feb9d5" /><rect width="150" height="10" x="100" y="180" fill="#c4da53" /><rect width="50" height="10" x="70" y="190" fill="#f8d689" /><rect width="10" height="10" x="120" y="190" fill="#ffae1a" /><rect width="10" height="10" x="130" y="190" fill="#f8d689" /><rect width="10" height="10" x="140" y="190" fill="#ffae1a" /><rect width="10" height="10" x="150" y="190" fill="#f8d689" /><rect width="10" height="10" x="160" y="190" fill="#ffae1a" /><rect width="10" height="10" x="170" y="190" fill="#f8d689" /><rect width="10" height="10" x="180" y="190" fill="#ffae1a" /><rect width="10" height="10" x="190" y="190" fill="#f8d689" /><rect width="10" height="10" x="200" y="190" fill="#ffae1a" /><rect width="40" height="10" x="210" y="190" fill="#f8d689" /><rect width="220" height="10" x="50" y="200" fill="#000000" /><rect width="60" height="10" x="100" y="110" fill="#ff638d" /><rect width="60" height="10" x="170" y="110" fill="#ff638d" /><rect width="10" height="10" x="100" y="120" fill="#ff638d" /><rect width="20" height="10" x="110" y="120" fill="#ffffff" /><rect width="20" height="10" x="130" y="120" fill="#000000" /><rect width="10" height="10" x="150" y="120" fill="#ff638d" /><rect width="10" height="10" x="170" y="120" fill="#ff638d" /><rect width="20" height="10" x="180" y="120" fill="#ffffff" /><rect width="20" height="10" x="200" y="120" fill="#000000" /><rect width="10" height="10" x="220" y="120" fill="#ff638d" /><rect width="40" height="10" x="70" y="130" fill="#ff638d" /><rect width="20" height="10" x="110" y="130" fill="#ffffff" /><rect width="20" height="10" x="130" y="130" fill="#000000" /><rect width="30" height="10" x="150" y="130" fill="#ff638d" /><rect width="20" height="10" x="180" y="130" fill="#ffffff" /><rect width="20" height="10" x="200" y="130" fill="#000000" /><rect width="10" height="10" x="220" y="130" fill="#ff638d" /><rect width="40" height="10" x="70" y="140" fill="#ff638d" /><rect width="20" height="10" x="110" y="140" fill="#ffffff" /><rect width="20" height="10" x="130" y="140" fill="#000000" /><rect width="30" height="10" x="150" y="140" fill="#ff638d" /><rect width="20" height="10" x="180" y="140" fill="#ffffff" /><rect width="20" height="10" x="200" y="140" fill="#000000" /><rect width="10" height="10" x="220" y="140" fill="#ff638d" /><rect width="10" height="10" x="70" y="150" fill="#ff638d" /><rect width="10" height="10" x="100" y="150" fill="#ff638d" /><rect width="20" height="10" x="110" y="150" fill="#ffffff" /><rect width="20" height="10" x="130" y="150" fill="#000000" /><rect width="10" height="10" x="150" y="150" fill="#ff638d" /><rect width="10" height="10" x="170" y="150" fill="#ff638d" /><rect width="20" height="10" x="180" y="150" fill="#ffffff" /><rect width="20" height="10" x="200" y="150" fill="#000000" /><rect width="10" height="10" x="220" y="150" fill="#ff638d" /><rect width="60" height="10" x="100" y="160" fill="#ff638d" /><rect width="60" height="10" x="170" y="160" fill="#ff638d" /></svg>