<svg viewBox="0 0 320 320" xmlns="http://www.w3.org/2000/svg" shape-rendering="crispEdges"><rect width="100%" height="100%" fill="#e1d7d5" /><rect width="140" height="10" x="90" y="210" fill="#867c1d" /><rect width="140" height="10" x="90" y="220" fill="#867c1d" /><rect width="140" height="10" x="90" y="230" fill="#867c1d" /><rect width="140" height="10" x="90" y="240" fill="#867c1d" /><rect width="20" height="10" x="90" y="250" fill="#867c1d" /><rect width="110" height="10" x="120" y="250" fill="#867c1d" /><rect width="20" height="10" x="90" y="260" fill="#867c1d" /><rect width="110" height="10" x="120" y="260" fill="#867c1d" /><rect width="20" height="10" x="90" y="270" fill="#867c1d" /><rect width="110" height="10" x="120" y="270" fill="#867c1d" /><rect width="20" height="10" x="90" y="280" fill="#867c1d" /><rect width="110" height="10" x="120" y="280" fill="#867c1d" /><rect width="20" height="10" x="90" y="290" fill="#867c1d" /><rect width="110" height="10" x="120" y="290" fill="#867c1d" /><rect width="20" height="10" x="90" y="300" fill="#867c1d" /><rect width="110" height="10" x="120" y="300" fill="#867c1d" /><rect width="20" height="10" x="90" y="310" fill="#867c1d" /><rect width="110" height="10" x="120" y="310" fill="#867c1d" /><rect width="10" height="10" x="160" y="230" fill="#85634f" /><rect width="20" height="10" x="210" y="230" fill="#67b1e3" /><rect width="10" height="10" x="160" y="240" fill="#85634f" /><rect width="10" height="10" x="130" y="250" fill="#5d6061" /><rect width="10" height="10" x="190" y="250" fill="#85634f" /><rect width="10" height="10" x="100" y="260" fill="#049d43" /><rect width="20" height="10" x="120" y="260" fill="#5d6061" /><rect width="10" height="10" x="160" y="260" fill="#67b1e3" /><rect width="10" height="10" x="90" y="270" fill="#049d43" /><rect width="20" height="10" x="120" y="270" fill="#ff0e0e" /><rect width="10" height="10" x="170" y="270" fill="#85634f" /><rect width="10" height="10" x="200" y="270" fill="#67b1e3" /><rect width="10" height="10" x="220" y="270" fill="#85634f" /><rect width="20" height="10" x="90" y="280" fill="#f9f5e9" /><rect width="30" height="10" x="120" y="280" fill="#d8dadf" /><rect width="20" height="10" x="90" y="290" fill="#f9f5e9" /><rect width="30" height="10" x="120" y="290" fill="#f9f5e9" /><rect width="20" height="10" x="190" y="300" fill="#67b1e3" /><rect width="20" height="10" x="140" y="310" fill="#67b1e3" /><rect width="50" height="10" x="80" y="30" fill="#a86f60" /><rect width="20" height="10" x="50" y="40" fill="#7d635e" /><rect width="100" height="10" x="70" y="40" fill="#a86f60" /><rect width="40" height="10" x="40" y="50" fill="#7d635e" /><rect width="110" height="10" x="80" y="50" fill="#a86f60" /><rect width="40" height="10" x="30" y="60" fill="#7d635e" /><rect width="100" height="10" x="100" y="60" fill="#a86f60" /><rect width="30" height="10" x="30" y="70" fill="#7d635e" /><rect width="100" height="10" x="120" y="70" fill="#a86f60" /><rect width="10" height="10" x="40" y="80" fill="#7d635e" /><rect width="120" height="10" x="110" y="80" fill="#a86f60" /><rect width="150" height="10" x="90" y="90" fill="#a86f60" /><rect width="180" height="10" x="70" y="100" fill="#a86f60" /><rect width="200" height="10" x="60" y="110" fill="#a86f60" /><rect width="210" height="10" x="50" y="120" fill="#a86f60" /><rect width="30" height="10" x="20" y="130" fill="#7d635e" /><rect width="210" height="10" x="50" y="130" fill="#a86f60" /><rect width="30" height="10" x="260" y="130" fill="#7d635e" /><rect width="40" height="10" x="10" y="140" fill="#7d635e" /><rect width="210" height="10" x="50" y="140" fill="#a86f60" /><rect width="40" height="10" x="260" y="140" fill="#7d635e" /><rect width="40" height="10" x="10" y="150" fill="#7d635e" /><rect width="210" height="10" x="50" y="150" fill="#a86f60" /><rect width="40" height="10" x="260" y="150" fill="#7d635e" /><rect width="20" height="10" x="20" y="160" fill="#7d635e" /><rect width="210" height="10" x="50" y="160" fill="#a86f60" /><rect width="20" height="10" x="270" y="160" fill="#7d635e" /><rect width="50" height="10" x="60" y="170" fill="#a86f60" /><rect width="100" height="10" x="110" y="170" fill="#e4a499" /><rect width="50" height="10" x="210" y="170" fill="#a86f60" /><rect width="30" height="10" x="60" y="180" fill="#a86f60" /><rect width="140" height="10" x="90" y="180" fill="#e4a499" /><rect width="20" height="10" x="230" y="180" fill="#a86f60" /><rect width="10" height="10" x="70" y="190" fill="#a86f60" /><rect width="160" height="10" x="80" y="190" fill="#e4a499" /><rect width="10" height="10" x="240" y="190" fill="#a86f60" /><rect width="140" height="10" x="90" y="200" fill="#a86f60" /><rect width="60" height="10" x="100" y="110" fill="#8dd122" /><rect width="60" height="10" x="170" y="110" fill="#8dd122" /><rect width="10" height="10" x="100" y="120" fill="#8dd122" /><rect width="20" height="10" x="110" y="120" fill="#ffffff" /><rect width="20" height="10" x="130" y="120" fill="#000000" /><rect width="10" height="10" x="150" y="120" fill="#8dd122" /><rect width="10" height="10" x="170" y="120" fill="#8dd122" /><rect width="20" height="10" x="180" y="120" fill="#ffffff" /><rect width="20" height="10" x="200" y="120" fill="#000000" /><rect width="10" height="10" x="220" y="120" fill="#8dd122" /><rect width="40" height="10" x="70" y="130" fill="#8dd122" /><rect width="20" height="10" x="110" y="130" fill="#ffffff" /><rect width="20" height="10" x="130" y="130" fill="#000000" /><rect width="30" height="10" x="150" y="130" fill="#8dd122" /><rect width="20" height="10" x="180" y="130" fill="#ffffff" /><rect width="20" height="10" x="200" y="130" fill="#000000" /><rect width="10" height="10" x="220" y="130" fill="#8dd122" /><rect width="10" height="10" x="70" y="140" fill="#8dd122" /><rect width="10" height="10" x="100" y="140" fill="#8dd122" /><rect width="20" height="10" x="110" y="140" fill="#ffffff" /><rect width="20" height="10" x="130" y="140" fill="#000000" /><rect width="10" height="10" x="150" y="140" fill="#8dd122" /><rect width="10" height="10" x="170" y="140" fill="#8dd122" /><rect width="20" height="10" x="180" y="140" fill="#ffffff" /><rect width="20" height="10" x="200" y="140" fill="#000000" /><rect width="10" height="10" x="220" y="140" fill="#8dd122" /><rect width="10" height="10" x="70" y="150" fill="#8dd122" /><rect width="10" height="10" x="100" y="150" fill="#8dd122" /><rect width="20" height="10" x="110" y="150" fill="#ffffff" /><rect width="20" height="10" x="130" y="150" fill="#000000" /><rect width="10" height="10" x="150" y="150" fill="#8dd122" /><rect width="10" height="10" x="170" y="150" fill="#8dd122" /><rect width="20" height="10" x="180" y="150" fill="#ffffff" /><rect width="20" height="10" x="200" y="150" fill="#000000" /><rect width="10" height="10" x="220" y="150" fill="#8dd122" /><rect width="60" height="10" x="100" y="160" fill="#8dd122" /><rect width="60" height="10" x="170" y="160" fill="#8dd122" /></svg>