<svg viewBox="0 0 320 320" xmlns="http://www.w3.org/2000/svg" shape-rendering="crispEdges"><rect width="100%" height="100%" fill="#e1d7d5" /><rect width="140" height="10" x="90" y="210" fill="#5648ed" /><rect width="140" height="10" x="90" y="220" fill="#5648ed" /><rect width="140" height="10" x="90" y="230" fill="#5648ed" /><rect width="140" height="10" x="90" y="240" fill="#5648ed" /><rect width="20" height="10" x="90" y="250" fill="#5648ed" /><rect width="110" height="10" x="120" y="250" fill="#5648ed" /><rect width="20" height="10" x="90" y="260" fill="#5648ed" /><rect width="110" height="10" x="120" y="260" fill="#5648ed" /><rect width="20" height="10" x="90" y="270" fill="#5648ed" /><rect width="110" height="10" x="120" y="270" fill="#5648ed" /><rect width="20" height="10" x="90" y="280" fill="#5648ed" /><rect width="110" height="10" x="120" y="280" fill="#5648ed" /><rect width="20" height="10" x="90" y="290" fill="#5648ed" /><rect width="110" height="10" x="120" y="290" fill="#5648ed" /><rect width="20" height="10" x="90" y="300" fill="#5648ed" /><rect width="110" height="10" x="120" y="300" fill="#5648ed" /><rect width="20" height="10" x="90" y="310" fill="#5648ed" /><rect width="110" height="10" x="120" y="310" fill="#5648ed" /><rect width="10" height="10" x="180" y="240" fill="#5a423f" /><rect width="10" height="10" x="160" y="250" fill="#ffffff" /><rect width="20" height="10" x="170" y="250" fill="#5a423f" /><rect width="10" height="10" x="190" y="250" fill="#ffffff" /><rect width="20" height="10" x="170" y="260" fill="#5a423f" /><rect width="10" height="10" x="150" y="270" fill="#ffffff" /><rect width="10" height="10" x="170" y="270" fill="#5a423f" /><rect width="10" height="10" x="180" y="270" fill="#d32a09" /><rect width="10" height="10" x="160" y="280" fill="#ffffff" /><rect width="10" height="10" x="170" y="280" fill="#000000" /><rect width="10" height="10" x="180" y="280" fill="#d32a09" /><rect width="10" height="10" x="200" y="280" fill="#ffffff" /><rect width="10" height="10" x="150" y="290" fill="#ffffff" /><rect width="10" height="10" x="170" y="290" fill="#ffffff" /><rect width="10" height="10" x="190" y="290" fill="#ffffff" /><rect width="30" height="10" x="130" y="10" fill="#d32a09" /><rect width="50" height="10" x="120" y="20" fill="#d32a09" /><rect width="20" height="10" x="110" y="30" fill="#d32a09" /><rect width="10" height="10" x="130" y="30" fill="#ffffff" /><rect width="10" height="10" x="140" y="30" fill="#d32a09" /><rect width="10" height="10" x="150" y="30" fill="#ffffff" /><rect width="20" height="10" x="160" y="30" fill="#d32a09" /><rect width="30" height="10" x="110" y="40" fill="#d32a09" /><rect width="10" height="10" x="140" y="40" fill="#ffffff" /><rect width="30" height="10" x="150" y="40" fill="#d32a09" /><rect width="110" height="10" x="90" y="50" fill="#d32a09" /><rect width="50" height="10" x="80" y="60" fill="#d32a09" /><rect width="10" height="10" x="130" y="60" fill="#ffffff" /><rect width="10" height="10" x="140" y="60" fill="#d32a09" /><rect width="10" height="10" x="150" y="60" fill="#ffffff" /><rect width="50" height="10" x="160" y="60" fill="#d32a09" /><rect width="20" height="10" x="70" y="70" fill="#d32a09" /><rect width="10" height="10" x="90" y="70" fill="#ffffff" /><rect width="40" height="10" x="100" y="70" fill="#d32a09" /><rect width="10" height="10" x="140" y="70" fill="#ffffff" /><rect width="40" height="10" x="150" y="70" fill="#d32a09" /><rect width="10" height="10" x="190" y="70" fill="#ffffff" /><rect width="20" height="10" x="200" y="70" fill="#d32a09" /><rect width="30" height="10" x="70" y="80" fill="#d32a09" /><rect width="10" height="10" x="100" y="80" fill="#ffffff" /><rect width="30" height="10" x="110" y="80" fill="#d32a09" /><rect width="30" height="10" x="140" y="80" fill="#f83001" /><rect width="10" height="10" x="170" y="80" fill="#d32a09" /><rect width="10" height="10" x="180" y="80" fill="#ffffff" /><rect width="30" height="10" x="190" y="80" fill="#d32a09" /><rect width="50" height="10" x="70" y="90" fill="#d32a09" /><rect width="70" height="10" x="120" y="90" fill="#f83001" /><rect width="30" height="10" x="190" y="90" fill="#d32a09" /><rect width="50" height="10" x="50" y="100" fill="#d32a09" /><rect width="30" height="10" x="100" y="100" fill="#f83001" /><rect width="10" height="10" x="130" y="100" fill="#ffffff" /><rect width="30" height="10" x="140" y="100" fill="#f83001" /><rect width="10" height="10" x="170" y="100" fill="#ffffff" /><rect width="30" height="10" x="180" y="100" fill="#f83001" /><rect width="30" height="10" x="210" y="100" fill="#d32a09" /><rect width="50" height="10" x="40" y="110" fill="#d32a09" /><rect width="130" height="10" x="90" y="110" fill="#f83001" /><rect width="30" height="10" x="220" y="110" fill="#d32a09" /><rect width="20" height="10" x="40" y="120" fill="#d32a09" /><rect width="10" height="10" x="60" y="120" fill="#ffffff" /><rect width="10" height="10" x="70" y="120" fill="#d32a09" /><rect width="150" height="10" x="80" y="120" fill="#f83001" /><rect width="20" height="10" x="230" y="120" fill="#d32a09" /><rect width="30" height="10" x="40" y="130" fill="#d32a09" /><rect width="10" height="10" x="70" y="130" fill="#ffffff" /><rect width="150" height="10" x="80" y="130" fill="#f83001" /><rect width="20" height="10" x="230" y="130" fill="#d32a09" /><rect width="20" height="10" x="50" y="140" fill="#d32a09" /><rect width="20" height="10" x="70" y="140" fill="#000000" /><rect width="10" height="10" x="90" y="140" fill="#ffffff" /><rect width="110" height="10" x="100" y="140" fill="#f83001" /><rect width="10" height="10" x="210" y="140" fill="#ffffff" /><rect width="20" height="10" x="220" y="140" fill="#000000" /><rect width="10" height="10" x="60" y="150" fill="#d32a09" /><rect width="20" height="10" x="70" y="150" fill="#000000" /><rect width="130" height="10" x="90" y="150" fill="#f83001" /><rect width="20" height="10" x="220" y="150" fill="#000000" /><rect width="10" height="10" x="80" y="160" fill="#000000" /><rect width="130" height="10" x="90" y="160" fill="#f83001" /><rect width="10" height="10" x="220" y="160" fill="#000000" /><rect width="10" height="10" x="80" y="170" fill="#f83001" /><rect width="10" height="10" x="90" y="170" fill="#000000" /><rect width="40" height="10" x="100" y="170" fill="#f83001" /><rect width="30" height="10" x="140" y="170" fill="#000000" /><rect width="40" height="10" x="170" y="170" fill="#f83001" /><rect width="10" height="10" x="210" y="170" fill="#000000" /><rect width="10" height="10" x="220" y="170" fill="#f83001" /><rect width="10" height="10" x="90" y="180" fill="#000000" /><rect width="30" height="10" x="100" y="180" fill="#ffffff" /><rect width="10" height="10" x="130" y="180" fill="#f83001" /><rect width="10" height="10" x="140" y="180" fill="#343235" /><rect width="10" height="10" x="150" y="180" fill="#f82905" /><rect width="10" height="10" x="160" y="180" fill="#343235" /><rect width="10" height="10" x="170" y="180" fill="#f83001" /><rect width="30" height="10" x="180" y="180" fill="#ffffff" /><rect width="10" height="10" x="210" y="180" fill="#000000" /><rect width="30" height="10" x="100" y="190" fill="#ffffff" /><rect width="10" height="10" x="130" y="190" fill="#343235" /><rect width="30" height="10" x="140" y="190" fill="#ffffff" /><rect width="10" height="10" x="170" y="190" fill="#343235" /><rect width="30" height="10" x="180" y="190" fill="#ffffff" /><rect width="10" height="10" x="60" y="200" fill="#ffffff" /><rect width="20" height="10" x="80" y="200" fill="#ffffff" /><rect width="10" height="10" x="110" y="200" fill="#d32a09" /><rect width="30" height="10" x="120" y="200" fill="#ffffff" /><rect width="10" height="10" x="150" y="200" fill="#000000" /><rect width="30" height="10" x="160" y="200" fill="#ffffff" /><rect width="10" height="10" x="190" y="200" fill="#d32a09" /><rect width="20" height="10" x="210" y="200" fill="#ffffff" /><rect width="10" height="10" x="240" y="200" fill="#ffffff" /><rect width="10" height="10" x="70" y="210" fill="#ffffff" /><rect width="10" height="10" x="90" y="210" fill="#ffffff" /><rect width="10" height="10" x="110" y="210" fill="#d32a09" /><rect width="10" height="10" x="140" y="210" fill="#000000" /><rect width="10" height="10" x="150" y="210" fill="#ffffff" /><rect width="10" height="10" x="160" y="210" fill="#000000" /><rect width="10" height="10" x="190" y="210" fill="#d32a09" /><rect width="10" height="10" x="210" y="210" fill="#ffffff" /><rect width="10" height="10" x="230" y="210" fill="#ffffff" /><rect width="20" height="10" x="70" y="220" fill="#ffffff" /><rect width="20" height="10" x="220" y="220" fill="#ffffff" /><rect width="10" height="10" x="90" y="230" fill="#ffffff" /><rect width="10" height="10" x="210" y="230" fill="#ffffff" /><rect width="60" height="10" x="100" y="110" fill="#000000" /><rect width="60" height="10" x="170" y="110" fill="#000000" /><rect width="40" height="10" x="100" y="120" fill="#000000" /><rect width="10" height="10" x="140" y="120" fill="#ffffff" /><rect width="10" height="10" x="150" y="120" fill="#000000" /><rect width="40" height="10" x="170" y="120" fill="#000000" /><rect width="10" height="10" x="210" y="120" fill="#ffffff" /><rect width="10" height="10" x="220" y="120" fill="#000000" /><rect width="70" height="10" x="70" y="130" fill="#000000" /><rect width="10" height="10" x="140" y="130" fill="#ffffff" /><rect width="60" height="10" x="150" y="130" fill="#000000" /><rect width="10" height="10" x="210" y="130" fill="#ffffff" /><rect width="10" height="10" x="220" y="130" fill="#000000" /><rect width="10" height="10" x="70" y="140" fill="#000000" /><rect width="60" height="10" x="100" y="140" fill="#000000" /><rect width="60" height="10" x="170" y="140" fill="#000000" /><rect width="10" height="10" x="70" y="150" fill="#000000" /><rect width="60" height="10" x="100" y="150" fill="#000000" /><rect width="60" height="10" x="170" y="150" fill="#000000" /><rect width="60" height="10" x="100" y="160" fill="#000000" /><rect width="60" height="10" x="170" y="160" fill="#000000" /></svg>