<svg viewBox="0 0 320 320" xmlns="http://www.w3.org/2000/svg" shape-rendering="crispEdges"><rect width="100%" height="100%" fill="#e1d7d5" /><rect width="140" height="10" x="90" y="210" fill="#fd8b5b" /><rect width="140" height="10" x="90" y="220" fill="#fd8b5b" /><rect width="140" height="10" x="90" y="230" fill="#fd8b5b" /><rect width="140" height="10" x="90" y="240" fill="#fd8b5b" /><rect width="20" height="10" x="90" y="250" fill="#fd8b5b" /><rect width="110" height="10" x="120" y="250" fill="#fd8b5b" /><rect width="20" height="10" x="90" y="260" fill="#fd8b5b" /><rect width="110" height="10" x="120" y="260" fill="#fd8b5b" /><rect width="20" height="10" x="90" y="270" fill="#fd8b5b" /><rect width="110" height="10" x="120" y="270" fill="#fd8b5b" /><rect width="20" height="10" x="90" y="280" fill="#fd8b5b" /><rect width="110" height="10" x="120" y="280" fill="#fd8b5b" /><rect width="20" height="10" x="90" y="290" fill="#fd8b5b" /><rect width="110" height="10" x="120" y="290" fill="#fd8b5b" /><rect width="20" height="10" x="90" y="300" fill="#fd8b5b" /><rect width="110" height="10" x="120" y="300" fill="#fd8b5b" /><rect width="20" height="10" x="90" y="310" fill="#fd8b5b" /><rect width="110" height="10" x="120" y="310" fill="#fd8b5b" /><rect width="10" height="10" x="170" y="240" fill="#1f1d29" /><rect width="20" height="10" x="140" y="250" fill="#f38b7c" /><rect width="10" height="10" x="160" y="250" fill="#1f1d29" /><rect width="10" height="10" x="170" y="250" fill="#f38b7c" /><rect width="10" height="10" x="140" y="260" fill="#f38b7c" /><rect width="10" height="10" x="150" y="270" fill="#f38b7c" /><rect width="10" height="10" x="130" y="40" fill="#9d8e6e" /><rect width="10" height="10" x="140" y="40" fill="#f8d689" /><rect width="10" height="10" x="150" y="40" fill="#9d8e6e" /><rect width="30" height="10" x="130" y="50" fill="#a38654" /><rect width="20" height="10" x="200" y="50" fill="#85634f" /><rect width="10" height="10" x="220" y="50" fill="#7e5243" /><rect width="20" height="10" x="80" y="60" fill="#eab118" /><rect width="10" height="10" x="130" y="60" fill="#9d8e6e" /><rect width="10" height="10" x="140" y="60" fill="#f8d689" /><rect width="10" height="10" x="150" y="60" fill="#9d8e6e" /><rect width="10" height="10" x="170" y="60" fill="#f8d689" /><rect width="40" height="10" x="190" y="60" fill="#85634f" /><rect width="10" height="10" x="230" y="60" fill="#7e5243" /><rect width="20" height="10" x="80" y="70" fill="#eab118" /><rect width="10" height="10" x="110" y="70" fill="#f8d689" /><rect width="30" height="10" x="130" y="70" fill="#a38654" /><rect width="10" height="10" x="170" y="70" fill="#f8d689" /><rect width="40" height="10" x="190" y="70" fill="#85634f" /><rect width="10" height="10" x="230" y="70" fill="#7e5243" /><rect width="20" height="10" x="80" y="80" fill="#eab118" /><rect width="10" height="10" x="110" y="80" fill="#f8d689" /><rect width="30" height="10" x="130" y="80" fill="#9d8e6e" /><rect width="10" height="10" x="170" y="80" fill="#f8d689" /><rect width="50" height="10" x="190" y="80" fill="#85634f" /><rect width="30" height="10" x="70" y="90" fill="#eab118" /><rect width="10" height="10" x="110" y="90" fill="#f8d689" /><rect width="10" height="10" x="130" y="90" fill="#a38654" /><rect width="10" height="10" x="140" y="90" fill="#f8d689" /><rect width="10" height="10" x="150" y="90" fill="#a38654" /><rect width="10" height="10" x="170" y="90" fill="#f8d689" /><rect width="30" height="10" x="200" y="90" fill="#85634f" /><rect width="30" height="10" x="70" y="100" fill="#eab118" /><rect width="10" height="10" x="110" y="100" fill="#f8d689" /><rect width="10" height="10" x="140" y="100" fill="#f8d689" /><rect width="10" height="10" x="170" y="100" fill="#f8d689" /><rect width="10" height="10" x="210" y="100" fill="#f8d689" /><rect width="20" height="10" x="70" y="110" fill="#eab118" /><rect width="10" height="10" x="110" y="110" fill="#f8d689" /><rect width="10" height="10" x="140" y="110" fill="#f8d689" /><rect width="10" height="10" x="170" y="110" fill="#f8d689" /><rect width="10" height="10" x="210" y="110" fill="#f8d689" /><rect width="20" height="10" x="70" y="120" fill="#eab118" /><rect width="10" height="10" x="110" y="120" fill="#f8d689" /><rect width="10" height="10" x="140" y="120" fill="#f8d689" /><rect width="10" height="10" x="170" y="120" fill="#f8d689" /><rect width="10" height="10" x="210" y="120" fill="#f8d689" /><rect width="20" height="10" x="70" y="130" fill="#eab118" /><rect width="10" height="10" x="110" y="130" fill="#f8d689" /><rect width="10" height="10" x="140" y="130" fill="#f8d689" /><rect width="10" height="10" x="170" y="130" fill="#f8d689" /><rect width="10" height="10" x="210" y="130" fill="#f8d689" /><rect width="10" height="10" x="80" y="140" fill="#f8d689" /><rect width="10" height="10" x="110" y="140" fill="#f8d689" /><rect width="10" height="10" x="140" y="140" fill="#f8d689" /><rect width="30" height="10" x="160" y="140" fill="#f9f6d1" /><rect width="10" height="10" x="210" y="140" fill="#f8d689" /><rect width="10" height="10" x="80" y="150" fill="#f8d689" /><rect width="30" height="10" x="100" y="150" fill="#757576" /><rect width="10" height="10" x="140" y="150" fill="#f8d689" /><rect width="30" height="10" x="160" y="150" fill="#f9f6d1" /><rect width="10" height="10" x="210" y="150" fill="#f8d689" /><rect width="10" height="10" x="80" y="160" fill="#f8d689" /><rect width="50" height="10" x="90" y="160" fill="#757576" /><rect width="10" height="10" x="140" y="160" fill="#f8d689" /><rect width="30" height="10" x="160" y="160" fill="#f9f6d1" /><rect width="10" height="10" x="210" y="160" fill="#f8d689" /><rect width="10" height="10" x="80" y="170" fill="#f8d689" /><rect width="50" height="10" x="90" y="170" fill="#757576" /><rect width="10" height="10" x="140" y="170" fill="#f8d689" /><rect width="30" height="10" x="160" y="170" fill="#f9f6d1" /><rect width="10" height="10" x="210" y="170" fill="#f8d689" /><rect width="10" height="10" x="80" y="180" fill="#f8d689" /><rect width="50" height="10" x="90" y="180" fill="#757576" /><rect width="20" height="10" x="160" y="180" fill="#f9f6d1" /><rect width="10" height="10" x="180" y="180" fill="#ff82ad" /><rect width="10" height="10" x="80" y="190" fill="#f8d689" /><rect width="50" height="10" x="90" y="190" fill="#757576" /><rect width="20" height="10" x="160" y="190" fill="#ff82ad" /><rect width="10" height="10" x="180" y="190" fill="#f9f6d1" /><rect width="30" height="10" x="100" y="200" fill="#757576" /><rect width="20" height="10" x="160" y="200" fill="#f9f6d1" /><rect width="60" height="10" x="100" y="110" fill="#ff638d" /><rect width="60" height="10" x="170" y="110" fill="#cc0595" /><rect width="10" height="10" x="100" y="120" fill="#ff638d" /><rect width="20" height="10" x="110" y="120" fill="#ffffff" /><rect width="20" height="10" x="130" y="120" fill="#000000" /><rect width="10" height="10" x="150" y="120" fill="#ff638d" /><rect width="10" height="10" x="170" y="120" fill="#cc0595" /><rect width="20" height="10" x="180" y="120" fill="#ffffff" /><rect width="20" height="10" x="200" y="120" fill="#000000" /><rect width="10" height="10" x="220" y="120" fill="#cc0595" /><rect width="30" height="10" x="70" y="130" fill="#ab36be" /><rect width="10" height="10" x="100" y="130" fill="#ff638d" /><rect width="20" height="10" x="110" y="130" fill="#ffffff" /><rect width="20" height="10" x="130" y="130" fill="#000000" /><rect width="10" height="10" x="150" y="130" fill="#ff638d" /><rect width="10" height="10" x="160" y="130" fill="#ab36be" /><rect width="10" height="10" x="170" y="130" fill="#cc0595" /><rect width="20" height="10" x="180" y="130" fill="#ffffff" /><rect width="20" height="10" x="200" y="130" fill="#000000" /><rect width="10" height="10" x="220" y="130" fill="#cc0595" /><rect width="10" height="10" x="70" y="140" fill="#cc0595" /><rect width="10" height="10" x="100" y="140" fill="#ff638d" /><rect width="20" height="10" x="110" y="140" fill="#ffffff" /><rect width="20" height="10" x="130" y="140" fill="#000000" /><rect width="10" height="10" x="150" y="140" fill="#ff638d" /><rect width="10" height="10" x="170" y="140" fill="#cc0595" /><rect width="20" height="10" x="180" y="140" fill="#ffffff" /><rect width="20" height="10" x="200" y="140" fill="#000000" /><rect width="10" height="10" x="220" y="140" fill="#cc0595" /><rect width="10" height="10" x="70" y="150" fill="#cc0595" /><rect width="10" height="10" x="100" y="150" fill="#ff638d" /><rect width="20" height="10" x="110" y="150" fill="#ffffff" /><rect width="20" height="10" x="130" y="150" fill="#000000" /><rect width="10" height="10" x="150" y="150" fill="#ff638d" /><rect width="10" height="10" x="170" y="150" fill="#cc0595" /><rect width="20" height="10" x="180" y="150" fill="#ffffff" /><rect width="20" height="10" x="200" y="150" fill="#000000" /><rect width="10" height="10" x="220" y="150" fill="#cc0595" /><rect width="60" height="10" x="100" y="160" fill="#ff638d" /><rect width="60" height="10" x="170" y="160" fill="#cc0595" /></svg>