<svg viewBox="0 0 320 320" xmlns="http://www.w3.org/2000/svg" shape-rendering="crispEdges"><rect width="100%" height="100%" fill="#d5d7e1" /><rect width="140" height="10" x="90" y="210" fill="#80a72d" /><rect width="140" height="10" x="90" y="220" fill="#80a72d" /><rect width="140" height="10" x="90" y="230" fill="#80a72d" /><rect width="140" height="10" x="90" y="240" fill="#80a72d" /><rect width="20" height="10" x="90" y="250" fill="#80a72d" /><rect width="110" height="10" x="120" y="250" fill="#80a72d" /><rect width="20" height="10" x="90" y="260" fill="#80a72d" /><rect width="110" height="10" x="120" y="260" fill="#80a72d" /><rect width="20" height="10" x="90" y="270" fill="#80a72d" /><rect width="110" height="10" x="120" y="270" fill="#80a72d" /><rect width="20" height="10" x="90" y="280" fill="#80a72d" /><rect width="110" height="10" x="120" y="280" fill="#80a72d" /><rect width="20" height="10" x="90" y="290" fill="#80a72d" /><rect width="110" height="10" x="120" y="290" fill="#80a72d" /><rect width="20" height="10" x="90" y="300" fill="#80a72d" /><rect width="110" height="10" x="120" y="300" fill="#80a72d" /><rect width="20" height="10" x="90" y="310" fill="#80a72d" /><rect width="110" height="10" x="120" y="310" fill="#80a72d" /><rect width="10" height="10" x="150" y="230" fill="#ff3a0e" /><rect width="10" height="10" x="180" y="230" fill="#ff3a0e" /><rect width="10" height="10" x="140" y="240" fill="#ff3a0e" /><rect width="20" height="10" x="160" y="240" fill="#ff3a0e" /><rect width="10" height="10" x="190" y="240" fill="#ff3a0e" /><rect width="10" height="10" x="140" y="250" fill="#ff3a0e" /><rect width="20" height="10" x="160" y="250" fill="#ff3a0e" /><rect width="10" height="10" x="190" y="250" fill="#ff3a0e" /><rect width="10" height="10" x="130" y="260" fill="#ff3a0e" /><rect width="20" height="10" x="140" y="260" fill="#d22209" /><rect width="20" height="10" x="160" y="260" fill="#ff3a0e" /><rect width="20" height="10" x="180" y="260" fill="#d22209" /><rect width="10" height="10" x="200" y="260" fill="#ff3a0e" /><rect width="10" height="10" x="130" y="270" fill="#ff3a0e" /><rect width="10" height="10" x="150" y="270" fill="#d22209" /><rect width="20" height="10" x="160" y="270" fill="#f82905" /><rect width="10" height="10" x="180" y="270" fill="#d22209" /><rect width="10" height="10" x="200" y="270" fill="#ff3a0e" /><rect width="10" height="10" x="140" y="280" fill="#d22209" /><rect width="20" height="10" x="160" y="280" fill="#ff3a0e" /><rect width="10" height="10" x="190" y="280" fill="#d22209" /><rect width="20" height="10" x="160" y="290" fill="#f82905" /><rect width="10" height="10" x="150" y="300" fill="#d22209" /><rect width="10" height="10" x="160" y="300" fill="#ff3a0e" /><rect width="10" height="10" x="170" y="300" fill="#d22209" /><rect width="10" height="10" x="180" y="300" fill="#ff3a0e" /><rect width="70" height="10" x="120" y="40" fill="#1e3445" /><rect width="30" height="10" x="100" y="50" fill="#1e3445" /><rect width="10" height="10" x="130" y="50" fill="#2b2834" /><rect width="70" height="10" x="140" y="50" fill="#1e3445" /><rect width="30" height="10" x="90" y="60" fill="#1e3445" /><rect width="10" height="10" x="120" y="60" fill="#2b2834" /><rect width="60" height="10" x="130" y="60" fill="#1e3445" /><rect width="10" height="10" x="190" y="60" fill="#2b2834" /><rect width="20" height="10" x="200" y="60" fill="#1e3445" /><rect width="30" height="10" x="90" y="70" fill="#1e3445" /><rect width="10" height="10" x="120" y="70" fill="#2b2834" /><rect width="70" height="10" x="130" y="70" fill="#1e3445" /><rect width="10" height="10" x="200" y="70" fill="#2b2834" /><rect width="10" height="10" x="210" y="70" fill="#1e3445" /><rect width="30" height="10" x="80" y="80" fill="#1e3445" /><rect width="10" height="10" x="110" y="80" fill="#2b2834" /><rect width="10" height="10" x="120" y="80" fill="#4a5358" /><rect width="20" height="10" x="130" y="80" fill="#fdf008" /><rect width="10" height="10" x="150" y="80" fill="#ffffff" /><rect width="10" height="10" x="160" y="80" fill="#fdf008" /><rect width="10" height="10" x="170" y="80" fill="#ffffff" /><rect width="10" height="10" x="180" y="80" fill="#fdf008" /><rect width="10" height="10" x="190" y="80" fill="#4a5358" /><rect width="10" height="10" x="200" y="80" fill="#2b2834" /><rect width="20" height="10" x="210" y="80" fill="#1e3445" /><rect width="30" height="10" x="80" y="90" fill="#1e3445" /><rect width="10" height="10" x="110" y="90" fill="#2b2834" /><rect width="10" height="10" x="120" y="90" fill="#4a5358" /><rect width="10" height="10" x="130" y="90" fill="#fdf008" /><rect width="10" height="10" x="140" y="90" fill="#4a5358" /><rect width="10" height="10" x="150" y="90" fill="#ffffff" /><rect width="10" height="10" x="160" y="90" fill="#fdf008" /><rect width="10" height="10" x="170" y="90" fill="#ffffff" /><rect width="10" height="10" x="180" y="90" fill="#fdf008" /><rect width="20" height="10" x="190" y="90" fill="#4a5358" /><rect width="10" height="10" x="210" y="90" fill="#2b2834" /><rect width="10" height="10" x="220" y="90" fill="#1e3445" /><rect width="30" height="10" x="70" y="100" fill="#1e3445" /><rect width="10" height="10" x="100" y="100" fill="#2b2834" /><rect width="110" height="10" x="110" y="100" fill="#f8ddb0" /><rect width="20" height="10" x="220" y="100" fill="#1e3445" /><rect width="30" height="10" x="70" y="110" fill="#1e3445" /><rect width="120" height="10" x="100" y="110" fill="#f8ddb0" /><rect width="20" height="10" x="220" y="110" fill="#1e3445" /><rect width="30" height="10" x="70" y="120" fill="#1e3445" /><rect width="120" height="10" x="100" y="120" fill="#f8ddb0" /><rect width="20" height="10" x="220" y="120" fill="#1e3445" /><rect width="30" height="10" x="70" y="130" fill="#1e3445" /><rect width="120" height="10" x="100" y="130" fill="#f8ddb0" /><rect width="20" height="10" x="220" y="130" fill="#1e3445" /><rect width="30" height="10" x="70" y="140" fill="#1e3445" /><rect width="30" height="10" x="100" y="140" fill="#235476" /><rect width="80" height="10" x="130" y="140" fill="#f8ddb0" /><rect width="10" height="10" x="210" y="140" fill="#235476" /><rect width="20" height="10" x="220" y="140" fill="#1e3445" /><rect width="30" height="10" x="70" y="150" fill="#1e3445" /><rect width="120" height="10" x="100" y="150" fill="#235476" /><rect width="20" height="10" x="220" y="150" fill="#1e3445" /><rect width="30" height="10" x="70" y="160" fill="#1e3445" /><rect width="120" height="10" x="100" y="160" fill="#235476" /><rect width="20" height="10" x="220" y="160" fill="#1e3445" /><rect width="30" height="10" x="80" y="170" fill="#1e3445" /><rect width="110" height="10" x="110" y="170" fill="#235476" /><rect width="10" height="10" x="220" y="170" fill="#1e3445" /><rect width="30" height="10" x="80" y="180" fill="#1e3445" /><rect width="100" height="10" x="110" y="180" fill="#235476" /><rect width="20" height="10" x="210" y="180" fill="#1e3445" /><rect width="50" height="10" x="70" y="190" fill="#1e3445" /><rect width="20" height="10" x="120" y="190" fill="#235476" /><rect width="40" height="10" x="140" y="190" fill="#1e3445" /><rect width="30" height="10" x="180" y="190" fill="#235476" /><rect width="10" height="10" x="210" y="190" fill="#1e3445" /><rect width="20" height="10" x="70" y="200" fill="#1e3445" /><rect width="30" height="10" x="100" y="200" fill="#1e3445" /><rect width="70" height="10" x="130" y="200" fill="#235476" /><rect width="20" height="10" x="200" y="200" fill="#1e3445" /><rect width="30" height="10" x="60" y="210" fill="#1e3445" /><rect width="20" height="10" x="120" y="210" fill="#1e3445" /><rect width="50" height="10" x="140" y="210" fill="#235476" /><rect width="20" height="10" x="190" y="210" fill="#1e3445" /><rect width="30" height="10" x="60" y="220" fill="#1e3445" /><rect width="20" height="10" x="50" y="230" fill="#1e3445" /><rect width="60" height="10" x="100" y="110" fill="#f3322c" /><rect width="60" height="10" x="170" y="110" fill="#f3322c" /><rect width="10" height="10" x="100" y="120" fill="#f3322c" /><rect width="20" height="10" x="110" y="120" fill="#ffffff" /><rect width="20" height="10" x="130" y="120" fill="#000000" /><rect width="10" height="10" x="150" y="120" fill="#f3322c" /><rect width="10" height="10" x="170" y="120" fill="#f3322c" /><rect width="20" height="10" x="180" y="120" fill="#ffffff" /><rect width="20" height="10" x="200" y="120" fill="#000000" /><rect width="10" height="10" x="220" y="120" fill="#f3322c" /><rect width="40" height="10" x="70" y="130" fill="#f3322c" /><rect width="20" height="10" x="110" y="130" fill="#ffffff" /><rect width="20" height="10" x="130" y="130" fill="#000000" /><rect width="30" height="10" x="150" y="130" fill="#f3322c" /><rect width="20" height="10" x="180" y="130" fill="#ffffff" /><rect width="20" height="10" x="200" y="130" fill="#000000" /><rect width="10" height="10" x="220" y="130" fill="#f3322c" /><rect width="10" height="10" x="70" y="140" fill="#f3322c" /><rect width="10" height="10" x="100" y="140" fill="#f3322c" /><rect width="20" height="10" x="110" y="140" fill="#ffffff" /><rect width="20" height="10" x="130" y="140" fill="#000000" /><rect width="10" height="10" x="150" y="140" fill="#f3322c" /><rect width="10" height="10" x="170" y="140" fill="#f3322c" /><rect width="20" height="10" x="180" y="140" fill="#ffffff" /><rect width="20" height="10" x="200" y="140" fill="#000000" /><rect width="10" height="10" x="220" y="140" fill="#f3322c" /><rect width="10" height="10" x="70" y="150" fill="#f3322c" /><rect width="10" height="10" x="100" y="150" fill="#f3322c" /><rect width="20" height="10" x="110" y="150" fill="#ffffff" /><rect width="20" height="10" x="130" y="150" fill="#000000" /><rect width="10" height="10" x="150" y="150" fill="#f3322c" /><rect width="10" height="10" x="170" y="150" fill="#f3322c" /><rect width="20" height="10" x="180" y="150" fill="#ffffff" /><rect width="20" height="10" x="200" y="150" fill="#000000" /><rect width="10" height="10" x="220" y="150" fill="#f3322c" /><rect width="60" height="10" x="100" y="160" fill="#f3322c" /><rect width="60" height="10" x="170" y="160" fill="#f3322c" /></svg>