<svg viewBox="0 0 320 320" xmlns="http://www.w3.org/2000/svg" shape-rendering="crispEdges"><rect width="100%" height="100%" fill="#d5d7e1" /><rect width="140" height="10" x="90" y="210" fill="#fd8b5b" /><rect width="140" height="10" x="90" y="220" fill="#fd8b5b" /><rect width="140" height="10" x="90" y="230" fill="#fd8b5b" /><rect width="140" height="10" x="90" y="240" fill="#fd8b5b" /><rect width="20" height="10" x="90" y="250" fill="#fd8b5b" /><rect width="110" height="10" x="120" y="250" fill="#fd8b5b" /><rect width="20" height="10" x="90" y="260" fill="#fd8b5b" /><rect width="110" height="10" x="120" y="260" fill="#fd8b5b" /><rect width="20" height="10" x="90" y="270" fill="#fd8b5b" /><rect width="110" height="10" x="120" y="270" fill="#fd8b5b" /><rect width="20" height="10" x="90" y="280" fill="#fd8b5b" /><rect width="110" height="10" x="120" y="280" fill="#fd8b5b" /><rect width="20" height="10" x="90" y="290" fill="#fd8b5b" /><rect width="110" height="10" x="120" y="290" fill="#fd8b5b" /><rect width="20" height="10" x="90" y="300" fill="#fd8b5b" /><rect width="110" height="10" x="120" y="300" fill="#fd8b5b" /><rect width="20" height="10" x="90" y="310" fill="#fd8b5b" /><rect width="110" height="10" x="120" y="310" fill="#fd8b5b" /><rect width="10" height="10" x="140" y="240" fill="#db8323" /><rect width="10" height="10" x="160" y="240" fill="#db8323" /><rect width="10" height="10" x="180" y="240" fill="#db8323" /><rect width="10" height="10" x="150" y="250" fill="#db8323" /><rect width="10" height="10" x="170" y="250" fill="#db8323" /><rect width="10" height="10" x="190" y="250" fill="#db8323" /><rect width="10" height="10" x="60" y="40" fill="#8dd122" /><rect width="10" height="10" x="130" y="40" fill="#552e05" /><rect width="10" height="10" x="140" y="40" fill="#7e5243" /><rect width="10" height="10" x="150" y="40" fill="#eedc00" /><rect width="10" height="10" x="160" y="40" fill="#caa26a" /><rect width="10" height="10" x="170" y="40" fill="#7e5243" /><rect width="10" height="10" x="180" y="40" fill="#552e05" /><rect width="20" height="10" x="190" y="40" fill="#f83001" /><rect width="10" height="10" x="40" y="50" fill="#8dd122" /><rect width="10" height="10" x="110" y="50" fill="#f83001" /><rect width="10" height="10" x="130" y="50" fill="#552e05" /><rect width="10" height="10" x="140" y="50" fill="#7e5243" /><rect width="10" height="10" x="150" y="50" fill="#caa26a" /><rect width="10" height="10" x="160" y="50" fill="#f83001" /><rect width="10" height="10" x="170" y="50" fill="#7e5243" /><rect width="10" height="10" x="180" y="50" fill="#552e05" /><rect width="10" height="10" x="250" y="50" fill="#f83001" /><rect width="10" height="10" x="80" y="60" fill="#f83001" /><rect width="10" height="10" x="100" y="60" fill="#f83001" /><rect width="20" height="10" x="120" y="60" fill="#7e5243" /><rect width="40" height="10" x="140" y="60" fill="#caa26a" /><rect width="20" height="10" x="180" y="60" fill="#7e5243" /><rect width="20" height="10" x="60" y="70" fill="#eedc00" /><rect width="10" height="10" x="120" y="70" fill="#552e05" /><rect width="10" height="10" x="130" y="70" fill="#7e5243" /><rect width="10" height="10" x="140" y="70" fill="#caa26a" /><rect width="10" height="10" x="150" y="70" fill="#7e5243" /><rect width="20" height="10" x="160" y="70" fill="#caa26a" /><rect width="10" height="10" x="180" y="70" fill="#7e5243" /><rect width="10" height="10" x="190" y="70" fill="#552e05" /><rect width="20" height="10" x="220" y="70" fill="#f83001" /><rect width="10" height="10" x="90" y="80" fill="#eedc00" /><rect width="10" height="10" x="110" y="80" fill="#7e5243" /><rect width="10" height="10" x="120" y="80" fill="#552e05" /><rect width="10" height="10" x="130" y="80" fill="#caa26a" /><rect width="10" height="10" x="140" y="80" fill="#f8ddb0" /><rect width="10" height="10" x="150" y="80" fill="#7e5243" /><rect width="10" height="10" x="160" y="80" fill="#f83001" /><rect width="10" height="10" x="170" y="80" fill="#f8ddb0" /><rect width="10" height="10" x="180" y="80" fill="#caa26a" /><rect width="10" height="10" x="190" y="80" fill="#552e05" /><rect width="10" height="10" x="200" y="80" fill="#f83001" /><rect width="10" height="10" x="240" y="80" fill="#8dd122" /><rect width="10" height="10" x="110" y="90" fill="#552e05" /><rect width="10" height="10" x="120" y="90" fill="#7e5243" /><rect width="20" height="10" x="130" y="90" fill="#caa26a" /><rect width="20" height="10" x="150" y="90" fill="#7e5243" /><rect width="20" height="10" x="170" y="90" fill="#caa26a" /><rect width="10" height="10" x="190" y="90" fill="#7e5243" /><rect width="10" height="10" x="200" y="90" fill="#552e05" /><rect width="10" height="10" x="220" y="90" fill="#8dd122" /><rect width="20" height="10" x="250" y="90" fill="#8dd122" /><rect width="20" height="10" x="30" y="100" fill="#8dd122" /><rect width="10" height="10" x="70" y="100" fill="#8dd122" /><rect width="10" height="10" x="90" y="100" fill="#f83001" /><rect width="10" height="10" x="110" y="100" fill="#552e05" /><rect width="10" height="10" x="120" y="100" fill="#7e5243" /><rect width="10" height="10" x="130" y="100" fill="#f83001" /><rect width="10" height="10" x="140" y="100" fill="#f8ddb0" /><rect width="20" height="10" x="150" y="100" fill="#7e5243" /><rect width="20" height="10" x="170" y="100" fill="#f8ddb0" /><rect width="10" height="10" x="190" y="100" fill="#7e5243" /><rect width="10" height="10" x="200" y="100" fill="#552e05" /><rect width="10" height="10" x="50" y="110" fill="#8dd122" /><rect width="20" height="10" x="70" y="110" fill="#f83001" /><rect width="10" height="10" x="100" y="110" fill="#7e5243" /><rect width="10" height="10" x="110" y="110" fill="#552e05" /><rect width="30" height="10" x="120" y="110" fill="#caa26a" /><rect width="20" height="10" x="150" y="110" fill="#7e5243" /><rect width="30" height="10" x="170" y="110" fill="#caa26a" /><rect width="10" height="10" x="200" y="110" fill="#552e05" /><rect width="10" height="10" x="210" y="110" fill="#7e5243" /><rect width="20" height="10" x="100" y="120" fill="#7e5243" /><rect width="30" height="10" x="120" y="120" fill="#f8ddb0" /><rect width="20" height="10" x="150" y="120" fill="#7e5243" /><rect width="30" height="10" x="170" y="120" fill="#f8ddb0" /><rect width="20" height="10" x="200" y="120" fill="#7e5243" /><rect width="10" height="10" x="240" y="120" fill="#eedc00" /><rect width="10" height="10" x="260" y="120" fill="#f83001" /><rect width="10" height="10" x="90" y="130" fill="#552e05" /><rect width="20" height="10" x="100" y="130" fill="#7e5243" /><rect width="30" height="10" x="120" y="130" fill="#caa26a" /><rect width="20" height="10" x="150" y="130" fill="#7e5243" /><rect width="20" height="10" x="170" y="130" fill="#caa26a" /><rect width="10" height="10" x="190" y="130" fill="#f83001" /><rect width="10" height="10" x="200" y="130" fill="#7e5243" /><rect width="20" height="10" x="210" y="130" fill="#eedc00" /><rect width="20" height="10" x="260" y="130" fill="#eedc00" /><rect width="10" height="10" x="30" y="140" fill="#f83001" /><rect width="10" height="10" x="90" y="140" fill="#552e05" /><rect width="10" height="10" x="100" y="140" fill="#7e5243" /><rect width="20" height="10" x="110" y="140" fill="#f83001" /><rect width="20" height="10" x="130" y="140" fill="#caa26a" /><rect width="10" height="10" x="150" y="140" fill="#7e5243" /><rect width="10" height="10" x="160" y="140" fill="#eedc00" /><rect width="40" height="10" x="170" y="140" fill="#caa26a" /><rect width="10" height="10" x="210" y="140" fill="#7e5243" /><rect width="10" height="10" x="220" y="140" fill="#552e05" /><rect width="10" height="10" x="240" y="140" fill="#f83001" /><rect width="20" height="10" x="30" y="150" fill="#f83001" /><rect width="10" height="10" x="90" y="150" fill="#552e05" /><rect width="10" height="10" x="100" y="150" fill="#7e5243" /><rect width="20" height="10" x="110" y="150" fill="#f8ddb0" /><rect width="10" height="10" x="130" y="150" fill="#f83001" /><rect width="10" height="10" x="140" y="150" fill="#f8ddb0" /><rect width="20" height="10" x="150" y="150" fill="#7e5243" /><rect width="20" height="10" x="170" y="150" fill="#f8ddb0" /><rect width="20" height="10" x="190" y="150" fill="#f83001" /><rect width="10" height="10" x="210" y="150" fill="#7e5243" /><rect width="10" height="10" x="220" y="150" fill="#552e05" /><rect width="40" height="10" x="20" y="160" fill="#f83001" /><rect width="20" height="10" x="80" y="160" fill="#7e5243" /><rect width="20" height="10" x="100" y="160" fill="#f83001" /><rect width="30" height="10" x="120" y="160" fill="#caa26a" /><rect width="20" height="10" x="150" y="160" fill="#7e5243" /><rect width="20" height="10" x="170" y="160" fill="#caa26a" /><rect width="10" height="10" x="190" y="160" fill="#f83001" /><rect width="20" height="10" x="200" y="160" fill="#caa26a" /><rect width="20" height="10" x="220" y="160" fill="#7e5243" /><rect width="20" height="10" x="30" y="170" fill="#f83001" /><rect width="10" height="10" x="70" y="170" fill="#552e05" /><rect width="20" height="10" x="80" y="170" fill="#7e5243" /><rect width="50" height="10" x="100" y="170" fill="#caa26a" /><rect width="20" height="10" x="150" y="170" fill="#7e5243" /><rect width="50" height="10" x="170" y="170" fill="#caa26a" /><rect width="20" height="10" x="220" y="170" fill="#7e5243" /><rect width="10" height="10" x="240" y="170" fill="#552e05" /><rect width="10" height="10" x="70" y="180" fill="#552e05" /><rect width="10" height="10" x="80" y="180" fill="#7e5243" /><rect width="10" height="10" x="90" y="180" fill="#caa26a" /><rect width="20" height="10" x="100" y="180" fill="#f83001" /><rect width="20" height="10" x="120" y="180" fill="#caa26a" /><rect width="20" height="10" x="140" y="180" fill="#f83001" /><rect width="10" height="10" x="160" y="180" fill="#7e5243" /><rect width="10" height="10" x="170" y="180" fill="#caa26a" /><rect width="20" height="10" x="180" y="180" fill="#f83001" /><rect width="30" height="10" x="200" y="180" fill="#caa26a" /><rect width="10" height="10" x="230" y="180" fill="#eedc00" /><rect width="10" height="10" x="240" y="180" fill="#552e05" /><rect width="10" height="10" x="260" y="180" fill="#f83001" /><rect width="10" height="10" x="60" y="190" fill="#7e5243" /><rect width="10" height="10" x="70" y="190" fill="#552e05" /><rect width="10" height="10" x="80" y="190" fill="#7e5243" /><rect width="30" height="10" x="90" y="190" fill="#f8ddb0" /><rect width="20" height="10" x="120" y="190" fill="#f83001" /><rect width="10" height="10" x="140" y="190" fill="#f8ddb0" /><rect width="10" height="10" x="150" y="190" fill="#7e5243" /><rect width="20" height="10" x="160" y="190" fill="#f83001" /><rect width="40" height="10" x="180" y="190" fill="#f8ddb0" /><rect width="10" height="10" x="220" y="190" fill="#eedc00" /><rect width="10" height="10" x="230" y="190" fill="#7e5243" /><rect width="10" height="10" x="240" y="190" fill="#552e05" /><rect width="20" height="10" x="250" y="190" fill="#f83001" /><rect width="10" height="10" x="60" y="200" fill="#7e5243" /><rect width="10" height="10" x="70" y="200" fill="#552e05" /><rect width="10" height="10" x="80" y="200" fill="#7e5243" /><rect width="60" height="10" x="90" y="200" fill="#caa26a" /><rect width="20" height="10" x="150" y="200" fill="#7e5243" /><rect width="60" height="10" x="170" y="200" fill="#caa26a" /><rect width="10" height="10" x="230" y="200" fill="#7e5243" /><rect width="40" height="10" x="240" y="200" fill="#f83001" /><rect width="20" height="10" x="250" y="210" fill="#f83001" /><rect width="60" height="10" x="100" y="110" fill="#5648ed" /><rect width="60" height="10" x="170" y="110" fill="#5648ed" /><rect width="10" height="10" x="100" y="120" fill="#5648ed" /><rect width="20" height="10" x="110" y="120" fill="#ffffff" /><rect width="20" height="10" x="130" y="120" fill="#000000" /><rect width="10" height="10" x="150" y="120" fill="#5648ed" /><rect width="10" height="10" x="170" y="120" fill="#5648ed" /><rect width="20" height="10" x="180" y="120" fill="#ffffff" /><rect width="20" height="10" x="200" y="120" fill="#000000" /><rect width="10" height="10" x="220" y="120" fill="#5648ed" /><rect width="40" height="10" x="70" y="130" fill="#5648ed" /><rect width="20" height="10" x="110" y="130" fill="#ffffff" /><rect width="20" height="10" x="130" y="130" fill="#000000" /><rect width="30" height="10" x="150" y="130" fill="#5648ed" /><rect width="20" height="10" x="180" y="130" fill="#ffffff" /><rect width="20" height="10" x="200" y="130" fill="#000000" /><rect width="10" height="10" x="220" y="130" fill="#5648ed" /><rect width="10" height="10" x="70" y="140" fill="#5648ed" /><rect width="10" height="10" x="100" y="140" fill="#5648ed" /><rect width="20" height="10" x="110" y="140" fill="#ffffff" /><rect width="20" height="10" x="130" y="140" fill="#000000" /><rect width="10" height="10" x="150" y="140" fill="#5648ed" /><rect width="10" height="10" x="170" y="140" fill="#5648ed" /><rect width="20" height="10" x="180" y="140" fill="#ffffff" /><rect width="20" height="10" x="200" y="140" fill="#000000" /><rect width="10" height="10" x="220" y="140" fill="#5648ed" /><rect width="10" height="10" x="70" y="150" fill="#5648ed" /><rect width="10" height="10" x="100" y="150" fill="#5648ed" /><rect width="20" height="10" x="110" y="150" fill="#ffffff" /><rect width="20" height="10" x="130" y="150" fill="#000000" /><rect width="10" height="10" x="150" y="150" fill="#5648ed" /><rect width="10" height="10" x="170" y="150" fill="#5648ed" /><rect width="20" height="10" x="180" y="150" fill="#ffffff" /><rect width="20" height="10" x="200" y="150" fill="#000000" /><rect width="10" height="10" x="220" y="150" fill="#5648ed" /><rect width="60" height="10" x="100" y="160" fill="#5648ed" /><rect width="60" height="10" x="170" y="160" fill="#5648ed" /></svg>