<svg viewBox="0 0 320 320" xmlns="http://www.w3.org/2000/svg" shape-rendering="crispEdges"><rect width="100%" height="100%" fill="#d5d7e1" /><rect width="140" height="10" x="90" y="210" fill="#d22209" /><rect width="140" height="10" x="90" y="220" fill="#d22209" /><rect width="140" height="10" x="90" y="230" fill="#d22209" /><rect width="140" height="10" x="90" y="240" fill="#d22209" /><rect width="20" height="10" x="90" y="250" fill="#d22209" /><rect width="110" height="10" x="120" y="250" fill="#d22209" /><rect width="20" height="10" x="90" y="260" fill="#d22209" /><rect width="110" height="10" x="120" y="260" fill="#d22209" /><rect width="20" height="10" x="90" y="270" fill="#d22209" /><rect width="110" height="10" x="120" y="270" fill="#d22209" /><rect width="20" height="10" x="90" y="280" fill="#d22209" /><rect width="110" height="10" x="120" y="280" fill="#d22209" /><rect width="20" height="10" x="90" y="290" fill="#d22209" /><rect width="110" height="10" x="120" y="290" fill="#d22209" /><rect width="20" height="10" x="90" y="300" fill="#d22209" /><rect width="110" height="10" x="120" y="300" fill="#d22209" /><rect width="20" height="10" x="90" y="310" fill="#d22209" /><rect width="110" height="10" x="120" y="310" fill="#d22209" /><rect width="140" height="10" x="90" y="210" fill="#ffffff" /><rect width="10" height="10" x="130" y="220" fill="#ffffff" /><rect width="10" height="10" x="150" y="220" fill="#ffffff" /><rect width="10" height="10" x="170" y="220" fill="#ffffff" /><rect width="10" height="10" x="190" y="220" fill="#ffffff" /><rect width="10" height="10" x="210" y="220" fill="#ffffff" /><rect width="10" height="10" x="130" y="230" fill="#f5fcff" /><rect width="10" height="10" x="150" y="230" fill="#ffffff" /><rect width="10" height="10" x="170" y="230" fill="#ffffff" /><rect width="10" height="10" x="190" y="230" fill="#ffffff" /><rect width="10" height="10" x="210" y="230" fill="#ffffff" /><rect width="10" height="10" x="150" y="240" fill="#ffffff" /><rect width="10" height="10" x="170" y="240" fill="#ffffff" /><rect width="10" height="10" x="190" y="240" fill="#ffffff" /><rect width="10" height="10" x="210" y="240" fill="#f5fcff" /><rect width="10" height="10" x="150" y="250" fill="#ffffff" /><rect width="10" height="10" x="170" y="250" fill="#f5fcff" /><rect width="10" height="10" x="190" y="250" fill="#ffffff" /><rect width="10" height="10" x="150" y="260" fill="#ffffff" /><rect width="10" height="10" x="190" y="260" fill="#f5fcff" /><rect width="10" height="10" x="150" y="270" fill="#f5fcff" /><rect width="10" height="10" x="190" y="270" fill="#f5fcff" /><rect width="10" height="10" x="150" y="280" fill="#f5fcff" /><rect width="40" height="10" x="190" y="50" fill="#cfc2ab" /><rect width="80" height="10" x="170" y="60" fill="#cfc2ab" /><rect width="30" height="10" x="160" y="70" fill="#cfc2ab" /><rect width="40" height="10" x="190" y="70" fill="#e8e8e2" /><rect width="30" height="10" x="230" y="70" fill="#cfc2ab" /><rect width="30" height="10" x="150" y="80" fill="#cfc2ab" /><rect width="70" height="10" x="180" y="80" fill="#fffdf4" /><rect width="20" height="10" x="250" y="80" fill="#cfc2ab" /><rect width="10" height="10" x="150" y="90" fill="#cfc2ab" /><rect width="90" height="10" x="160" y="90" fill="#e8e8e2" /><rect width="10" height="10" x="250" y="90" fill="#fffdf4" /><rect width="10" height="10" x="260" y="90" fill="#cfc2ab" /><rect width="30" height="10" x="140" y="100" fill="#cfc2ab" /><rect width="90" height="10" x="170" y="100" fill="#fffdf4" /><rect width="20" height="10" x="260" y="100" fill="#cfc2ab" /><rect width="20" height="10" x="140" y="110" fill="#cfc2ab" /><rect width="10" height="10" x="160" y="110" fill="#fffdf4" /><rect width="90" height="10" x="170" y="110" fill="#e8e8e2" /><rect width="20" height="10" x="260" y="110" fill="#cfc2ab" /><rect width="40" height="10" x="80" y="120" fill="#bd2d24" /><rect width="20" height="10" x="140" y="120" fill="#cfc2ab" /><rect width="10" height="10" x="160" y="120" fill="#e8e8e2" /><rect width="60" height="10" x="170" y="120" fill="#fffdf4" /><rect width="20" height="10" x="230" y="120" fill="#e8e8e2" /><rect width="30" height="10" x="250" y="120" fill="#cfc2ab" /><rect width="80" height="10" x="60" y="130" fill="#bd2d24" /><rect width="10" height="10" x="150" y="130" fill="#cfc2ab" /><rect width="70" height="10" x="160" y="130" fill="#e8e8e2" /><rect width="30" height="10" x="230" y="130" fill="#fffdf4" /><rect width="10" height="10" x="260" y="130" fill="#cfc2ab" /><rect width="10" height="10" x="270" y="130" fill="#9d8e6e" /><rect width="30" height="10" x="50" y="140" fill="#bd2d24" /><rect width="10" height="10" x="80" y="140" fill="#552d1d" /><rect width="20" height="10" x="90" y="140" fill="#ffd067" /><rect width="10" height="10" x="110" y="140" fill="#552d1d" /><rect width="30" height="10" x="120" y="140" fill="#bd2d24" /><rect width="20" height="10" x="150" y="140" fill="#cfc2ab" /><rect width="80" height="10" x="170" y="140" fill="#fffdf4" /><rect width="20" height="10" x="250" y="140" fill="#cfc2ab" /><rect width="10" height="10" x="270" y="140" fill="#9d8e6e" /><rect width="10" height="10" x="50" y="150" fill="#bd2d24" /><rect width="10" height="10" x="60" y="150" fill="#552d1d" /><rect width="20" height="10" x="70" y="150" fill="#cd916d" /><rect width="20" height="10" x="90" y="150" fill="#c4da53" /><rect width="20" height="10" x="110" y="150" fill="#cd916d" /><rect width="10" height="10" x="130" y="150" fill="#552d1d" /><rect width="10" height="10" x="140" y="150" fill="#bd2d24" /><rect width="10" height="10" x="150" y="150" fill="#9d8e6e" /><rect width="30" height="10" x="160" y="150" fill="#cfc2ab" /><rect width="50" height="10" x="190" y="150" fill="#e8e8e2" /><rect width="20" height="10" x="240" y="150" fill="#cfc2ab" /><rect width="10" height="10" x="260" y="150" fill="#9d8e6e" /><rect width="10" height="10" x="50" y="160" fill="#bd2d24" /><rect width="10" height="10" x="60" y="160" fill="#cd916d" /><rect width="20" height="10" x="70" y="160" fill="#c4da53" /><rect width="10" height="10" x="90" y="160" fill="#cd916d" /><rect width="20" height="10" x="100" y="160" fill="#c4da53" /><rect width="20" height="10" x="120" y="160" fill="#cd916d" /><rect width="10" height="10" x="140" y="160" fill="#bd2d24" /><rect width="20" height="10" x="150" y="160" fill="#9d8e6e" /><rect width="80" height="10" x="170" y="160" fill="#cfc2ab" /><rect width="20" height="10" x="250" y="160" fill="#9d8e6e" /><rect width="10" height="10" x="50" y="170" fill="#bd2d24" /><rect width="10" height="10" x="60" y="170" fill="#552d1d" /><rect width="10" height="10" x="70" y="170" fill="#ffd067" /><rect width="20" height="10" x="80" y="170" fill="#f9f6d1" /><rect width="10" height="10" x="100" y="170" fill="#cd916d" /><rect width="20" height="10" x="110" y="170" fill="#ffd067" /><rect width="10" height="10" x="130" y="170" fill="#552d1d" /><rect width="10" height="10" x="140" y="170" fill="#bd2d24" /><rect width="20" height="10" x="170" y="170" fill="#9d8e6e" /><rect width="40" height="10" x="190" y="170" fill="#cfc2ab" /><rect width="20" height="10" x="230" y="170" fill="#9d8e6e" /><rect width="10" height="10" x="50" y="180" fill="#2b2834" /><rect width="20" height="10" x="60" y="180" fill="#bd2d24" /><rect width="10" height="10" x="80" y="180" fill="#552d1d" /><rect width="20" height="10" x="90" y="180" fill="#c4da53" /><rect width="10" height="10" x="110" y="180" fill="#552d1d" /><rect width="20" height="10" x="120" y="180" fill="#bd2d24" /><rect width="10" height="10" x="140" y="180" fill="#2b2834" /><rect width="20" height="10" x="150" y="180" fill="#235476" /><rect width="60" height="10" x="180" y="180" fill="#9d8e6e" /><rect width="30" height="10" x="50" y="190" fill="#2b2834" /><rect width="40" height="10" x="80" y="190" fill="#bd2d24" /><rect width="30" height="10" x="120" y="190" fill="#2b2834" /><rect width="80" height="10" x="60" y="200" fill="#2b2834" /><rect width="40" height="10" x="80" y="210" fill="#2b2834" /><rect width="60" height="10" x="100" y="110" fill="#9cb4b8" /><rect width="60" height="10" x="170" y="110" fill="#9cb4b8" /><rect width="10" height="10" x="100" y="120" fill="#9cb4b8" /><rect width="20" height="10" x="110" y="120" fill="#ffffff" /><rect width="20" height="10" x="130" y="120" fill="#000000" /><rect width="10" height="10" x="150" y="120" fill="#9cb4b8" /><rect width="10" height="10" x="170" y="120" fill="#9cb4b8" /><rect width="20" height="10" x="180" y="120" fill="#ffffff" /><rect width="20" height="10" x="200" y="120" fill="#000000" /><rect width="10" height="10" x="220" y="120" fill="#9cb4b8" /><rect width="40" height="10" x="70" y="130" fill="#9cb4b8" /><rect width="20" height="10" x="110" y="130" fill="#ffffff" /><rect width="20" height="10" x="130" y="130" fill="#000000" /><rect width="30" height="10" x="150" y="130" fill="#9cb4b8" /><rect width="20" height="10" x="180" y="130" fill="#ffffff" /><rect width="20" height="10" x="200" y="130" fill="#000000" /><rect width="10" height="10" x="220" y="130" fill="#9cb4b8" /><rect width="10" height="10" x="70" y="140" fill="#9cb4b8" /><rect width="10" height="10" x="100" y="140" fill="#9cb4b8" /><rect width="20" height="10" x="110" y="140" fill="#ffffff" /><rect width="20" height="10" x="130" y="140" fill="#000000" /><rect width="10" height="10" x="150" y="140" fill="#9cb4b8" /><rect width="10" height="10" x="170" y="140" fill="#9cb4b8" /><rect width="20" height="10" x="180" y="140" fill="#ffffff" /><rect width="20" height="10" x="200" y="140" fill="#000000" /><rect width="10" height="10" x="220" y="140" fill="#9cb4b8" /><rect width="10" height="10" x="70" y="150" fill="#9cb4b8" /><rect width="10" height="10" x="100" y="150" fill="#9cb4b8" /><rect width="20" height="10" x="110" y="150" fill="#ffffff" /><rect width="20" height="10" x="130" y="150" fill="#000000" /><rect width="10" height="10" x="150" y="150" fill="#9cb4b8" /><rect width="10" height="10" x="170" y="150" fill="#9cb4b8" /><rect width="20" height="10" x="180" y="150" fill="#ffffff" /><rect width="20" height="10" x="200" y="150" fill="#000000" /><rect width="10" height="10" x="220" y="150" fill="#9cb4b8" /><rect width="60" height="10" x="100" y="160" fill="#9cb4b8" /><rect width="60" height="10" x="170" y="160" fill="#9cb4b8" /></svg>