<svg viewBox="0 0 320 320" xmlns="http://www.w3.org/2000/svg" shape-rendering="crispEdges"><rect width="100%" height="100%" fill="#e1d7d5" /><rect width="140" height="10" x="90" y="210" fill="#fd8b5b" /><rect width="140" height="10" x="90" y="220" fill="#fd8b5b" /><rect width="140" height="10" x="90" y="230" fill="#fd8b5b" /><rect width="140" height="10" x="90" y="240" fill="#fd8b5b" /><rect width="20" height="10" x="90" y="250" fill="#fd8b5b" /><rect width="110" height="10" x="120" y="250" fill="#fd8b5b" /><rect width="20" height="10" x="90" y="260" fill="#fd8b5b" /><rect width="110" height="10" x="120" y="260" fill="#fd8b5b" /><rect width="20" height="10" x="90" y="270" fill="#fd8b5b" /><rect width="110" height="10" x="120" y="270" fill="#fd8b5b" /><rect width="20" height="10" x="90" y="280" fill="#fd8b5b" /><rect width="110" height="10" x="120" y="280" fill="#fd8b5b" /><rect width="20" height="10" x="90" y="290" fill="#fd8b5b" /><rect width="110" height="10" x="120" y="290" fill="#fd8b5b" /><rect width="20" height="10" x="90" y="300" fill="#fd8b5b" /><rect width="110" height="10" x="120" y="300" fill="#fd8b5b" /><rect width="20" height="10" x="90" y="310" fill="#fd8b5b" /><rect width="110" height="10" x="120" y="310" fill="#fd8b5b" /><rect width="10" height="10" x="130" y="240" fill="#ffef16" /><rect width="10" height="10" x="150" y="240" fill="#ffef16" /><rect width="40" height="10" x="170" y="240" fill="#ffef16" /><rect width="10" height="10" x="200" y="250" fill="#ffffff" /><rect width="10" height="10" x="200" y="260" fill="#ffffff" /><rect width="40" height="10" x="190" y="270" fill="#068940" /><rect width="10" height="10" x="170" y="280" fill="#00499c" /><rect width="10" height="10" x="180" y="280" fill="#ffffff" /><rect width="40" height="10" x="190" y="280" fill="#9d8e6e" /><rect width="20" height="10" x="180" y="290" fill="#00499c" /><rect width="10" height="10" x="200" y="290" fill="#ffffff" /><rect width="20" height="10" x="210" y="290" fill="#9d8e6e" /><rect width="30" height="10" x="160" y="300" fill="#00499c" /><rect width="10" height="10" x="190" y="300" fill="#ffffff" /><rect width="20" height="10" x="200" y="300" fill="#9d8e6e" /><rect width="30" height="10" x="130" y="310" fill="#00499c" /><rect width="10" height="10" x="160" y="310" fill="#ffffff" /><rect width="30" height="10" x="170" y="310" fill="#9d8e6e" /><rect width="10" height="10" x="100" y="50" fill="#fff449" /><rect width="10" height="10" x="140" y="50" fill="#fff449" /><rect width="10" height="10" x="170" y="50" fill="#fff449" /><rect width="10" height="10" x="200" y="50" fill="#fff449" /><rect width="10" height="10" x="220" y="50" fill="#fff449" /><rect width="10" height="10" x="260" y="50" fill="#fff449" /><rect width="10" height="10" x="60" y="60" fill="#fff449" /><rect width="10" height="10" x="80" y="60" fill="#fff449" /><rect width="20" height="10" x="100" y="60" fill="#fff449" /><rect width="20" height="10" x="130" y="60" fill="#fff449" /><rect width="10" height="10" x="160" y="60" fill="#fff449" /><rect width="20" height="10" x="180" y="60" fill="#fff449" /><rect width="20" height="10" x="210" y="60" fill="#fff449" /><rect width="10" height="10" x="50" y="70" fill="#fff449" /><rect width="180" height="10" x="70" y="70" fill="#fff449" /><rect width="10" height="10" x="260" y="70" fill="#fff449" /><rect width="230" height="10" x="50" y="80" fill="#fff449" /><rect width="60" height="10" x="40" y="90" fill="#fff449" /><rect width="10" height="10" x="100" y="90" fill="#c4da53" /><rect width="170" height="10" x="110" y="90" fill="#fff449" /><rect width="210" height="10" x="40" y="100" fill="#fff449" /><rect width="10" height="10" x="250" y="100" fill="#c4da53" /><rect width="20" height="10" x="260" y="100" fill="#fff449" /><rect width="30" height="10" x="40" y="110" fill="#fff449" /><rect width="10" height="10" x="70" y="110" fill="#c4da53" /><rect width="210" height="10" x="80" y="110" fill="#fff449" /><rect width="260" height="10" x="30" y="120" fill="#fff449" /><rect width="40" height="10" x="30" y="130" fill="#fff449" /><rect width="10" height="10" x="70" y="130" fill="#8dd122" /><rect width="160" height="10" x="80" y="130" fill="#fff449" /><rect width="10" height="10" x="240" y="130" fill="#8dd122" /><rect width="40" height="10" x="250" y="130" fill="#fff449" /><rect width="30" height="10" x="30" y="140" fill="#fff449" /><rect width="20" height="10" x="60" y="140" fill="#8dd122" /><rect width="10" height="10" x="80" y="140" fill="#fff449" /><rect width="10" height="10" x="90" y="140" fill="#8dd122" /><rect width="130" height="10" x="100" y="140" fill="#fff449" /><rect width="20" height="10" x="230" y="140" fill="#8dd122" /><rect width="10" height="10" x="250" y="140" fill="#fff449" /><rect width="10" height="10" x="260" y="140" fill="#8dd122" /><rect width="20" height="10" x="270" y="140" fill="#fff449" /><rect width="10" height="10" x="40" y="150" fill="#fff449" /><rect width="10" height="10" x="50" y="150" fill="#8dd122" /><rect width="10" height="10" x="60" y="150" fill="#fff449" /><rect width="20" height="10" x="70" y="150" fill="#8dd122" /><rect width="130" height="10" x="90" y="150" fill="#fff449" /><rect width="10" height="10" x="220" y="150" fill="#8dd122" /><rect width="10" height="10" x="230" y="150" fill="#fff449" /><rect width="20" height="10" x="240" y="150" fill="#8dd122" /><rect width="30" height="10" x="260" y="150" fill="#fff449" /><rect width="10" height="10" x="40" y="160" fill="#fff449" /><rect width="10" height="10" x="50" y="160" fill="#8dd122" /><rect width="10" height="10" x="60" y="160" fill="#fff449" /><rect width="10" height="10" x="70" y="160" fill="#8dd122" /><rect width="10" height="10" x="80" y="160" fill="#fff449" /><rect width="10" height="10" x="90" y="160" fill="#8dd122" /><rect width="120" height="10" x="100" y="160" fill="#fff449" /><rect width="10" height="10" x="220" y="160" fill="#8dd122" /><rect width="10" height="10" x="230" y="160" fill="#fff449" /><rect width="10" height="10" x="240" y="160" fill="#8dd122" /><rect width="10" height="10" x="250" y="160" fill="#fff449" /><rect width="10" height="10" x="260" y="160" fill="#8dd122" /><rect width="10" height="10" x="270" y="160" fill="#fff449" /><rect width="10" height="10" x="30" y="170" fill="#fff449" /><rect width="10" height="10" x="50" y="170" fill="#fff449" /><rect width="30" height="10" x="60" y="170" fill="#8dd122" /><rect width="140" height="10" x="90" y="170" fill="#fff449" /><rect width="30" height="10" x="230" y="170" fill="#8dd122" /><rect width="20" height="10" x="260" y="170" fill="#fff449" /><rect width="20" height="10" x="30" y="180" fill="#fff449" /><rect width="10" height="10" x="50" y="180" fill="#8dd122" /><rect width="10" height="10" x="60" y="180" fill="#fff449" /><rect width="10" height="10" x="70" y="180" fill="#8dd122" /><rect width="10" height="10" x="80" y="180" fill="#fff449" /><rect width="10" height="10" x="90" y="180" fill="#8dd122" /><rect width="40" height="10" x="100" y="180" fill="#fff449" /><rect width="10" height="10" x="140" y="180" fill="#c4da53" /><rect width="70" height="10" x="150" y="180" fill="#fff449" /><rect width="10" height="10" x="220" y="180" fill="#8dd122" /><rect width="10" height="10" x="230" y="180" fill="#fff449" /><rect width="10" height="10" x="240" y="180" fill="#8dd122" /><rect width="10" height="10" x="250" y="180" fill="#fff449" /><rect width="10" height="10" x="260" y="180" fill="#8dd122" /><rect width="10" height="10" x="270" y="180" fill="#fff449" /><rect width="10" height="10" x="30" y="190" fill="#fff449" /><rect width="10" height="10" x="50" y="190" fill="#fff449" /><rect width="30" height="10" x="60" y="190" fill="#8dd122" /><rect width="60" height="10" x="90" y="190" fill="#fff449" /><rect width="30" height="10" x="150" y="190" fill="#c4da53" /><rect width="50" height="10" x="180" y="190" fill="#fff449" /><rect width="30" height="10" x="230" y="190" fill="#8dd122" /><rect width="10" height="10" x="260" y="190" fill="#fff449" /><rect width="10" height="10" x="40" y="200" fill="#fff449" /><rect width="10" height="10" x="70" y="200" fill="#8dd122" /><rect width="160" height="10" x="80" y="200" fill="#fff449" /><rect width="10" height="10" x="240" y="200" fill="#8dd122" /><rect width="10" height="10" x="250" y="200" fill="#fff449" /><rect width="10" height="10" x="270" y="200" fill="#fff449" /><rect width="60" height="10" x="100" y="110" fill="#e8705b" /><rect width="60" height="10" x="170" y="110" fill="#e8705b" /><rect width="10" height="10" x="100" y="120" fill="#e8705b" /><rect width="20" height="10" x="110" y="120" fill="#ffffff" /><rect width="20" height="10" x="130" y="120" fill="#000000" /><rect width="10" height="10" x="150" y="120" fill="#e8705b" /><rect width="10" height="10" x="170" y="120" fill="#e8705b" /><rect width="20" height="10" x="180" y="120" fill="#ffffff" /><rect width="20" height="10" x="200" y="120" fill="#000000" /><rect width="10" height="10" x="220" y="120" fill="#e8705b" /><rect width="40" height="10" x="70" y="130" fill="#e8705b" /><rect width="20" height="10" x="110" y="130" fill="#ffffff" /><rect width="20" height="10" x="130" y="130" fill="#000000" /><rect width="30" height="10" x="150" y="130" fill="#e8705b" /><rect width="20" height="10" x="180" y="130" fill="#ffffff" /><rect width="20" height="10" x="200" y="130" fill="#000000" /><rect width="10" height="10" x="220" y="130" fill="#e8705b" /><rect width="10" height="10" x="70" y="140" fill="#e8705b" /><rect width="10" height="10" x="100" y="140" fill="#e8705b" /><rect width="20" height="10" x="110" y="140" fill="#ffffff" /><rect width="20" height="10" x="130" y="140" fill="#000000" /><rect width="10" height="10" x="150" y="140" fill="#e8705b" /><rect width="10" height="10" x="170" y="140" fill="#e8705b" /><rect width="20" height="10" x="180" y="140" fill="#ffffff" /><rect width="20" height="10" x="200" y="140" fill="#000000" /><rect width="10" height="10" x="220" y="140" fill="#e8705b" /><rect width="10" height="10" x="70" y="150" fill="#e8705b" /><rect width="10" height="10" x="100" y="150" fill="#e8705b" /><rect width="20" height="10" x="110" y="150" fill="#ffffff" /><rect width="20" height="10" x="130" y="150" fill="#000000" /><rect width="10" height="10" x="150" y="150" fill="#e8705b" /><rect width="10" height="10" x="170" y="150" fill="#e8705b" /><rect width="20" height="10" x="180" y="150" fill="#ffffff" /><rect width="20" height="10" x="200" y="150" fill="#000000" /><rect width="10" height="10" x="220" y="150" fill="#e8705b" /><rect width="60" height="10" x="100" y="160" fill="#e8705b" /><rect width="60" height="10" x="170" y="160" fill="#e8705b" /></svg>