<svg viewBox="0 0 320 320" xmlns="http://www.w3.org/2000/svg" shape-rendering="crispEdges"><rect width="100%" height="100%" fill="#e1d7d5" /><rect width="140" height="10" x="90" y="210" fill="#f98f30" /><rect width="140" height="10" x="90" y="220" fill="#f98f30" /><rect width="140" height="10" x="90" y="230" fill="#f98f30" /><rect width="140" height="10" x="90" y="240" fill="#f98f30" /><rect width="20" height="10" x="90" y="250" fill="#f98f30" /><rect width="110" height="10" x="120" y="250" fill="#f98f30" /><rect width="20" height="10" x="90" y="260" fill="#f98f30" /><rect width="110" height="10" x="120" y="260" fill="#f98f30" /><rect width="20" height="10" x="90" y="270" fill="#f98f30" /><rect width="110" height="10" x="120" y="270" fill="#f98f30" /><rect width="20" height="10" x="90" y="280" fill="#f98f30" /><rect width="110" height="10" x="120" y="280" fill="#f98f30" /><rect width="20" height="10" x="90" y="290" fill="#f98f30" /><rect width="110" height="10" x="120" y="290" fill="#f98f30" /><rect width="20" height="10" x="90" y="300" fill="#f98f30" /><rect width="110" height="10" x="120" y="300" fill="#f98f30" /><rect width="20" height="10" x="90" y="310" fill="#f98f30" /><rect width="110" height="10" x="120" y="310" fill="#f98f30" /><rect width="20" height="10" x="160" y="250" fill="#fff671" /><rect width="10" height="10" x="180" y="250" fill="#c4da53" /><rect width="40" height="10" x="150" y="260" fill="#fff671" /><rect width="40" height="10" x="150" y="270" fill="#fff671" /><rect width="30" height="10" x="150" y="280" fill="#fff671" /><rect width="20" height="10" x="50" y="50" fill="#027c92" /><rect width="20" height="10" x="260" y="50" fill="#027c92" /><rect width="210" height="10" x="60" y="60" fill="#027c92" /><rect width="190" height="10" x="70" y="70" fill="#c54e38" /><rect width="190" height="10" x="70" y="80" fill="#ff1a0b" /><rect width="40" height="10" x="90" y="90" fill="#ff1a0b" /><rect width="30" height="10" x="150" y="90" fill="#000000" /><rect width="40" height="10" x="200" y="90" fill="#ff1a0b" /><rect width="20" height="10" x="100" y="100" fill="#c54e38" /><rect width="10" height="10" x="150" y="100" fill="#000000" /><rect width="10" height="10" x="160" y="100" fill="#ffd067" /><rect width="10" height="10" x="170" y="100" fill="#000000" /><rect width="20" height="10" x="210" y="100" fill="#c54e38" /><rect width="40" height="10" x="90" y="110" fill="#ff1a0b" /><rect width="30" height="10" x="150" y="110" fill="#000000" /><rect width="40" height="10" x="200" y="110" fill="#ff1a0b" /><rect width="190" height="10" x="70" y="120" fill="#ff1a0b" /><rect width="190" height="10" x="70" y="130" fill="#ff1a0b" /><rect width="20" height="10" x="100" y="140" fill="#ff1a0b" /><rect width="20" height="10" x="210" y="140" fill="#ff1a0b" /><rect width="30" height="10" x="90" y="150" fill="#fa5e20" /><rect width="30" height="10" x="210" y="150" fill="#fa5e20" /><rect width="10" height="10" x="100" y="160" fill="#fa5e20" /><rect width="10" height="10" x="110" y="160" fill="#ff1a0b" /><rect width="10" height="10" x="210" y="160" fill="#ff1a0b" /><rect width="10" height="10" x="220" y="160" fill="#fa5e20" /><rect width="10" height="10" x="100" y="170" fill="#fa5e20" /><rect width="10" height="10" x="110" y="170" fill="#ff1a0b" /><rect width="10" height="10" x="210" y="170" fill="#ff1a0b" /><rect width="10" height="10" x="220" y="170" fill="#fa5e20" /><rect width="10" height="10" x="100" y="180" fill="#fa5e20" /><rect width="10" height="10" x="110" y="180" fill="#ff1a0b" /><rect width="10" height="10" x="210" y="180" fill="#ff1a0b" /><rect width="10" height="10" x="220" y="180" fill="#fa5e20" /><rect width="10" height="10" x="100" y="190" fill="#fa5e20" /><rect width="10" height="10" x="110" y="190" fill="#ff1a0b" /><rect width="10" height="10" x="210" y="190" fill="#ff1a0b" /><rect width="10" height="10" x="220" y="190" fill="#fa5e20" /><rect width="10" height="10" x="90" y="200" fill="#5fd4fb" /><rect width="10" height="10" x="100" y="200" fill="#fa5e20" /><rect width="10" height="10" x="110" y="200" fill="#ff1a0b" /><rect width="30" height="10" x="120" y="200" fill="#5fd4fb" /><rect width="30" height="10" x="150" y="200" fill="#caeff9" /><rect width="30" height="10" x="180" y="200" fill="#5fd4fb" /><rect width="10" height="10" x="210" y="200" fill="#ff1a0b" /><rect width="10" height="10" x="220" y="200" fill="#fa5e20" /><rect width="70" height="10" x="90" y="210" fill="#5fd4fb" /><rect width="10" height="10" x="160" y="210" fill="#caeff9" /><rect width="60" height="10" x="170" y="210" fill="#5fd4fb" /><rect width="60" height="10" x="100" y="110" fill="#9cb4b8" /><rect width="60" height="10" x="170" y="110" fill="#9cb4b8" /><rect width="10" height="10" x="100" y="120" fill="#9cb4b8" /><rect width="20" height="10" x="110" y="120" fill="#ffffff" /><rect width="20" height="10" x="130" y="120" fill="#000000" /><rect width="10" height="10" x="150" y="120" fill="#9cb4b8" /><rect width="10" height="10" x="170" y="120" fill="#9cb4b8" /><rect width="20" height="10" x="180" y="120" fill="#ffffff" /><rect width="20" height="10" x="200" y="120" fill="#000000" /><rect width="10" height="10" x="220" y="120" fill="#9cb4b8" /><rect width="40" height="10" x="70" y="130" fill="#9cb4b8" /><rect width="20" height="10" x="110" y="130" fill="#ffffff" /><rect width="20" height="10" x="130" y="130" fill="#000000" /><rect width="30" height="10" x="150" y="130" fill="#9cb4b8" /><rect width="20" height="10" x="180" y="130" fill="#ffffff" /><rect width="20" height="10" x="200" y="130" fill="#000000" /><rect width="10" height="10" x="220" y="130" fill="#9cb4b8" /><rect width="10" height="10" x="70" y="140" fill="#9cb4b8" /><rect width="10" height="10" x="100" y="140" fill="#9cb4b8" /><rect width="20" height="10" x="110" y="140" fill="#ffffff" /><rect width="20" height="10" x="130" y="140" fill="#000000" /><rect width="10" height="10" x="150" y="140" fill="#9cb4b8" /><rect width="10" height="10" x="170" y="140" fill="#9cb4b8" /><rect width="20" height="10" x="180" y="140" fill="#ffffff" /><rect width="20" height="10" x="200" y="140" fill="#000000" /><rect width="10" height="10" x="220" y="140" fill="#9cb4b8" /><rect width="10" height="10" x="70" y="150" fill="#9cb4b8" /><rect width="10" height="10" x="100" y="150" fill="#9cb4b8" /><rect width="20" height="10" x="110" y="150" fill="#ffffff" /><rect width="20" height="10" x="130" y="150" fill="#000000" /><rect width="10" height="10" x="150" y="150" fill="#9cb4b8" /><rect width="10" height="10" x="170" y="150" fill="#9cb4b8" /><rect width="20" height="10" x="180" y="150" fill="#ffffff" /><rect width="20" height="10" x="200" y="150" fill="#000000" /><rect width="10" height="10" x="220" y="150" fill="#9cb4b8" /><rect width="60" height="10" x="100" y="160" fill="#9cb4b8" /><rect width="60" height="10" x="170" y="160" fill="#9cb4b8" /></svg>