<svg viewBox="0 0 320 320" xmlns="http://www.w3.org/2000/svg" shape-rendering="crispEdges"><rect width="100%" height="100%" fill="#e1d7d5" /><rect width="140" height="10" x="90" y="210" fill="#4b4949" /><rect width="140" height="10" x="90" y="220" fill="#4b4949" /><rect width="140" height="10" x="90" y="230" fill="#4b4949" /><rect width="140" height="10" x="90" y="240" fill="#4b4949" /><rect width="20" height="10" x="90" y="250" fill="#4b4949" /><rect width="110" height="10" x="120" y="250" fill="#4b4949" /><rect width="20" height="10" x="90" y="260" fill="#4b4949" /><rect width="110" height="10" x="120" y="260" fill="#4b4949" /><rect width="20" height="10" x="90" y="270" fill="#4b4949" /><rect width="110" height="10" x="120" y="270" fill="#4b4949" /><rect width="20" height="10" x="90" y="280" fill="#4b4949" /><rect width="110" height="10" x="120" y="280" fill="#4b4949" /><rect width="20" height="10" x="90" y="290" fill="#4b4949" /><rect width="110" height="10" x="120" y="290" fill="#4b4949" /><rect width="20" height="10" x="90" y="300" fill="#4b4949" /><rect width="110" height="10" x="120" y="300" fill="#4b4949" /><rect width="20" height="10" x="90" y="310" fill="#4b4949" /><rect width="110" height="10" x="120" y="310" fill="#4b4949" /><rect width="20" height="10" x="90" y="230" fill="#ff3a0e" /><rect width="10" height="10" x="110" y="230" fill="#e8705b" /><rect width="30" height="10" x="120" y="230" fill="#ff3a0e" /><rect width="10" height="10" x="150" y="230" fill="#e8705b" /><rect width="30" height="10" x="160" y="230" fill="#ff3a0e" /><rect width="10" height="10" x="190" y="230" fill="#e8705b" /><rect width="30" height="10" x="200" y="230" fill="#ff3a0e" /><rect width="10" height="10" x="90" y="240" fill="#e8705b" /><rect width="10" height="10" x="100" y="240" fill="#ffffff" /><rect width="20" height="10" x="110" y="240" fill="#f82905" /><rect width="10" height="10" x="130" y="240" fill="#ffffff" /><rect width="20" height="10" x="140" y="240" fill="#f82905" /><rect width="10" height="10" x="160" y="240" fill="#ffffff" /><rect width="10" height="10" x="170" y="240" fill="#e8705b" /><rect width="10" height="10" x="180" y="240" fill="#f82905" /><rect width="10" height="10" x="190" y="240" fill="#ffffff" /><rect width="10" height="10" x="200" y="240" fill="#f82905" /><rect width="10" height="10" x="210" y="240" fill="#e8705b" /><rect width="10" height="10" x="220" y="240" fill="#ffffff" /><rect width="20" height="10" x="90" y="250" fill="#ff3a0e" /><rect width="30" height="10" x="120" y="250" fill="#ff3a0e" /><rect width="10" height="10" x="150" y="250" fill="#e8705b" /><rect width="30" height="10" x="160" y="250" fill="#ff3a0e" /><rect width="10" height="10" x="190" y="250" fill="#e8705b" /><rect width="30" height="10" x="200" y="250" fill="#ff3a0e" /><rect width="90" height="10" x="120" y="60" fill="#ff1a0b" /><rect width="20" height="10" x="100" y="70" fill="#ff1a0b" /><rect width="10" height="10" x="120" y="70" fill="#ffffff" /><rect width="10" height="10" x="130" y="70" fill="#ff1a0b" /><rect width="20" height="10" x="140" y="70" fill="#ffffff" /><rect width="70" height="10" x="160" y="70" fill="#ff1a0b" /><rect width="150" height="10" x="90" y="80" fill="#ff1a0b" /><rect width="10" height="10" x="80" y="90" fill="#ff1a0b" /><rect width="10" height="10" x="90" y="90" fill="#f8d689" /><rect width="10" height="10" x="100" y="90" fill="#ff1a0b" /><rect width="10" height="10" x="110" y="90" fill="#000000" /><rect width="20" height="10" x="120" y="90" fill="#ffffff" /><rect width="20" height="10" x="140" y="90" fill="#000000" /><rect width="10" height="10" x="160" y="90" fill="#ffffff" /><rect width="20" height="10" x="170" y="90" fill="#000000" /><rect width="20" height="10" x="190" y="90" fill="#ffffff" /><rect width="10" height="10" x="210" y="90" fill="#000000" /><rect width="10" height="10" x="220" y="90" fill="#ff1a0b" /><rect width="10" height="10" x="230" y="90" fill="#ffb913" /><rect width="10" height="10" x="240" y="90" fill="#ff1a0b" /><rect width="10" height="10" x="80" y="100" fill="#ffb913" /><rect width="20" height="10" x="90" y="100" fill="#000000" /><rect width="10" height="10" x="110" y="100" fill="#ffffff" /><rect width="40" height="10" x="120" y="100" fill="#000000" /><rect width="10" height="10" x="160" y="100" fill="#ffffff" /><rect width="40" height="10" x="170" y="100" fill="#000000" /><rect width="10" height="10" x="210" y="100" fill="#ffffff" /><rect width="20" height="10" x="220" y="100" fill="#000000" /><rect width="10" height="10" x="240" y="100" fill="#ffb913" /><rect width="10" height="10" x="70" y="110" fill="#ff1a0b" /><rect width="10" height="10" x="80" y="110" fill="#ffb913" /><rect width="10" height="10" x="90" y="110" fill="#000000" /><rect width="20" height="10" x="100" y="110" fill="#ffffff" /><rect width="30" height="10" x="120" y="110" fill="#f59b34" /><rect width="10" height="10" x="150" y="110" fill="#ffffff" /><rect width="10" height="10" x="160" y="110" fill="#1f1d29" /><rect width="10" height="10" x="170" y="110" fill="#ffffff" /><rect width="30" height="10" x="180" y="110" fill="#f59b34" /><rect width="20" height="10" x="210" y="110" fill="#ffffff" /><rect width="10" height="10" x="230" y="110" fill="#000000" /><rect width="10" height="10" x="240" y="110" fill="#ff1a0b" /><rect width="10" height="10" x="250" y="110" fill="#f8d689" /><rect width="10" height="10" x="70" y="120" fill="#ffb913" /><rect width="10" height="10" x="80" y="120" fill="#f8d689" /><rect width="20" height="10" x="90" y="120" fill="#ffffff" /><rect width="10" height="10" x="110" y="120" fill="#f59b34" /><rect width="30" height="10" x="120" y="120" fill="#ffffff" /><rect width="10" height="10" x="150" y="120" fill="#f59b34" /><rect width="10" height="10" x="160" y="120" fill="#ffffff" /><rect width="10" height="10" x="170" y="120" fill="#f59b34" /><rect width="30" height="10" x="180" y="120" fill="#ffffff" /><rect width="10" height="10" x="210" y="120" fill="#f59b34" /><rect width="20" height="10" x="220" y="120" fill="#ffffff" /><rect width="10" height="10" x="240" y="120" fill="#ffb913" /><rect width="10" height="10" x="250" y="120" fill="#f8d689" /><rect width="10" height="10" x="70" y="130" fill="#ffb913" /><rect width="10" height="10" x="80" y="130" fill="#f8d689" /><rect width="20" height="10" x="90" y="130" fill="#ffffff" /><rect width="10" height="10" x="110" y="130" fill="#f59b34" /><rect width="30" height="10" x="120" y="130" fill="#ffffff" /><rect width="10" height="10" x="150" y="130" fill="#f59b34" /><rect width="10" height="10" x="160" y="130" fill="#ffffff" /><rect width="10" height="10" x="170" y="130" fill="#f59b34" /><rect width="30" height="10" x="180" y="130" fill="#ffffff" /><rect width="10" height="10" x="210" y="130" fill="#f59b34" /><rect width="20" height="10" x="220" y="130" fill="#ffffff" /><rect width="10" height="10" x="240" y="130" fill="#ffb913" /><rect width="10" height="10" x="250" y="130" fill="#ff1a0b" /><rect width="10" height="10" x="70" y="140" fill="#ffb913" /><rect width="10" height="10" x="80" y="140" fill="#ff1a0b" /><rect width="20" height="10" x="90" y="140" fill="#ffffff" /><rect width="10" height="10" x="110" y="140" fill="#f59b34" /><rect width="30" height="10" x="120" y="140" fill="#ffffff" /><rect width="10" height="10" x="150" y="140" fill="#f59b34" /><rect width="10" height="10" x="160" y="140" fill="#ffffff" /><rect width="10" height="10" x="170" y="140" fill="#f59b34" /><rect width="30" height="10" x="180" y="140" fill="#ffffff" /><rect width="10" height="10" x="210" y="140" fill="#f59b34" /><rect width="20" height="10" x="220" y="140" fill="#ffffff" /><rect width="10" height="10" x="240" y="140" fill="#ffb913" /><rect width="10" height="10" x="250" y="140" fill="#f8d689" /><rect width="10" height="10" x="70" y="150" fill="#ff1a0b" /><rect width="10" height="10" x="80" y="150" fill="#f8d689" /><rect width="20" height="10" x="90" y="150" fill="#000000" /><rect width="10" height="10" x="110" y="150" fill="#ffffff" /><rect width="30" height="10" x="120" y="150" fill="#f59b34" /><rect width="30" height="10" x="150" y="150" fill="#ffffff" /><rect width="30" height="10" x="180" y="150" fill="#f59b34" /><rect width="10" height="10" x="210" y="150" fill="#ffffff" /><rect width="20" height="10" x="220" y="150" fill="#000000" /><rect width="10" height="10" x="240" y="150" fill="#ff1a0b" /><rect width="10" height="10" x="250" y="150" fill="#ffb913" /><rect width="20" height="10" x="70" y="160" fill="#ff1a0b" /><rect width="10" height="10" x="90" y="160" fill="#000000" /><rect width="30" height="10" x="100" y="160" fill="#ffffff" /><rect width="10" height="10" x="130" y="160" fill="#ec5b43" /><rect width="10" height="10" x="140" y="160" fill="#ffffff" /><rect width="10" height="10" x="150" y="160" fill="#ec5b43" /><rect width="10" height="10" x="160" y="160" fill="#ffffff" /><rect width="10" height="10" x="170" y="160" fill="#ec5b43" /><rect width="10" height="10" x="180" y="160" fill="#ffffff" /><rect width="10" height="10" x="190" y="160" fill="#ec5b43" /><rect width="30" height="10" x="200" y="160" fill="#ffffff" /><rect width="10" height="10" x="230" y="160" fill="#000000" /><rect width="20" height="10" x="240" y="160" fill="#ff1a0b" /><rect width="10" height="10" x="80" y="170" fill="#ff1a0b" /><rect width="10" height="10" x="90" y="170" fill="#000000" /><rect width="10" height="10" x="100" y="170" fill="#1f1d29" /><rect width="40" height="10" x="110" y="170" fill="#ffffff" /><rect width="20" height="10" x="150" y="170" fill="#ff1a0b" /><rect width="50" height="10" x="170" y="170" fill="#ffffff" /><rect width="10" height="10" x="220" y="170" fill="#1f1d29" /><rect width="10" height="10" x="230" y="170" fill="#000000" /><rect width="10" height="10" x="240" y="170" fill="#ff1a0b" /><rect width="20" height="10" x="80" y="180" fill="#ff1a0b" /><rect width="20" height="10" x="100" y="180" fill="#000000" /><rect width="10" height="10" x="120" y="180" fill="#1f1d29" /><rect width="10" height="10" x="130" y="180" fill="#000000" /><rect width="10" height="10" x="140" y="180" fill="#ff1a0b" /><rect width="20" height="10" x="150" y="180" fill="#ffffff" /><rect width="10" height="10" x="170" y="180" fill="#ff1a0b" /><rect width="10" height="10" x="180" y="180" fill="#1f1d29" /><rect width="10" height="10" x="190" y="180" fill="#000000" /><rect width="10" height="10" x="200" y="180" fill="#1f1d29" /><rect width="20" height="10" x="210" y="180" fill="#000000" /><rect width="20" height="10" x="230" y="180" fill="#ff1a0b" /><rect width="30" height="10" x="90" y="190" fill="#ff1a0b" /><rect width="10" height="10" x="120" y="190" fill="#1f1d29" /><rect width="10" height="10" x="130" y="190" fill="#000000" /><rect width="10" height="10" x="140" y="190" fill="#1f1d29" /><rect width="30" height="10" x="150" y="190" fill="#ffffff" /><rect width="10" height="10" x="180" y="190" fill="#1f1d29" /><rect width="10" height="10" x="190" y="190" fill="#000000" /><rect width="10" height="10" x="200" y="190" fill="#1f1d29" /><rect width="30" height="10" x="210" y="190" fill="#ff1a0b" /><rect width="10" height="10" x="100" y="200" fill="#ff1a0b" /><rect width="10" height="10" x="110" y="200" fill="#f8d689" /><rect width="10" height="10" x="120" y="200" fill="#ff1a0b" /><rect width="10" height="10" x="130" y="200" fill="#f8d689" /><rect width="10" height="10" x="140" y="200" fill="#ff1a0b" /><rect width="20" height="10" x="150" y="200" fill="#f8d689" /><rect width="20" height="10" x="170" y="200" fill="#ff1a0b" /><rect width="10" height="10" x="190" y="200" fill="#f8d689" /><rect width="10" height="10" x="200" y="200" fill="#ff1a0b" /><rect width="10" height="10" x="210" y="200" fill="#f8d689" /><rect width="10" height="10" x="220" y="200" fill="#ff1a0b" /><rect width="10" height="10" x="110" y="210" fill="#ffb913" /><rect width="10" height="10" x="120" y="210" fill="#ff1a0b" /><rect width="10" height="10" x="130" y="210" fill="#ffb913" /><rect width="20" height="10" x="140" y="210" fill="#ff1a0b" /><rect width="10" height="10" x="160" y="210" fill="#ffb913" /><rect width="20" height="10" x="170" y="210" fill="#ff1a0b" /><rect width="10" height="10" x="190" y="210" fill="#ffb913" /><rect width="10" height="10" x="200" y="210" fill="#ff1a0b" /><rect width="10" height="10" x="210" y="210" fill="#ffb913" /><rect width="10" height="10" x="130" y="220" fill="#ffb913" /><rect width="10" height="10" x="140" y="220" fill="#ff1a0b" /><rect width="10" height="10" x="150" y="220" fill="#ffb913" /><rect width="10" height="10" x="160" y="220" fill="#ff1a0b" /><rect width="10" height="10" x="170" y="220" fill="#ffb913" /><rect width="10" height="10" x="180" y="220" fill="#ff1a0b" /><rect width="10" height="10" x="190" y="220" fill="#ffb913" /><rect width="60" height="10" x="100" y="110" fill="#8dd122" /><rect width="60" height="10" x="170" y="110" fill="#8dd122" /><rect width="10" height="10" x="100" y="120" fill="#8dd122" /><rect width="20" height="10" x="110" y="120" fill="#ffffff" /><rect width="20" height="10" x="130" y="120" fill="#000000" /><rect width="10" height="10" x="150" y="120" fill="#8dd122" /><rect width="10" height="10" x="170" y="120" fill="#8dd122" /><rect width="20" height="10" x="180" y="120" fill="#ffffff" /><rect width="20" height="10" x="200" y="120" fill="#000000" /><rect width="10" height="10" x="220" y="120" fill="#8dd122" /><rect width="40" height="10" x="70" y="130" fill="#8dd122" /><rect width="20" height="10" x="110" y="130" fill="#ffffff" /><rect width="20" height="10" x="130" y="130" fill="#000000" /><rect width="30" height="10" x="150" y="130" fill="#8dd122" /><rect width="20" height="10" x="180" y="130" fill="#ffffff" /><rect width="20" height="10" x="200" y="130" fill="#000000" /><rect width="10" height="10" x="220" y="130" fill="#8dd122" /><rect width="10" height="10" x="70" y="140" fill="#8dd122" /><rect width="10" height="10" x="100" y="140" fill="#8dd122" /><rect width="20" height="10" x="110" y="140" fill="#ffffff" /><rect width="20" height="10" x="130" y="140" fill="#000000" /><rect width="10" height="10" x="150" y="140" fill="#8dd122" /><rect width="10" height="10" x="170" y="140" fill="#8dd122" /><rect width="20" height="10" x="180" y="140" fill="#ffffff" /><rect width="20" height="10" x="200" y="140" fill="#000000" /><rect width="10" height="10" x="220" y="140" fill="#8dd122" /><rect width="10" height="10" x="70" y="150" fill="#8dd122" /><rect width="10" height="10" x="100" y="150" fill="#8dd122" /><rect width="20" height="10" x="110" y="150" fill="#ffffff" /><rect width="20" height="10" x="130" y="150" fill="#000000" /><rect width="10" height="10" x="150" y="150" fill="#8dd122" /><rect width="10" height="10" x="170" y="150" fill="#8dd122" /><rect width="20" height="10" x="180" y="150" fill="#ffffff" /><rect width="20" height="10" x="200" y="150" fill="#000000" /><rect width="10" height="10" x="220" y="150" fill="#8dd122" /><rect width="60" height="10" x="100" y="160" fill="#8dd122" /><rect width="60" height="10" x="170" y="160" fill="#8dd122" /></svg>