<svg viewBox="0 0 320 320" xmlns="http://www.w3.org/2000/svg" shape-rendering="crispEdges"><rect width="100%" height="100%" fill="#e1d7d5" /><rect width="140" height="10" x="90" y="210" fill="#eed811" /><rect width="140" height="10" x="90" y="220" fill="#eed811" /><rect width="140" height="10" x="90" y="230" fill="#eed811" /><rect width="140" height="10" x="90" y="240" fill="#eed811" /><rect width="20" height="10" x="90" y="250" fill="#eed811" /><rect width="110" height="10" x="120" y="250" fill="#eed811" /><rect width="20" height="10" x="90" y="260" fill="#eed811" /><rect width="110" height="10" x="120" y="260" fill="#eed811" /><rect width="20" height="10" x="90" y="270" fill="#eed811" /><rect width="110" height="10" x="120" y="270" fill="#eed811" /><rect width="20" height="10" x="90" y="280" fill="#eed811" /><rect width="110" height="10" x="120" y="280" fill="#eed811" /><rect width="20" height="10" x="90" y="290" fill="#eed811" /><rect width="110" height="10" x="120" y="290" fill="#eed811" /><rect width="20" height="10" x="90" y="300" fill="#eed811" /><rect width="110" height="10" x="120" y="300" fill="#eed811" /><rect width="20" height="10" x="90" y="310" fill="#eed811" /><rect width="110" height="10" x="120" y="310" fill="#eed811" /><rect width="10" height="10" x="130" y="210" fill="#ffffff" /><rect width="10" height="10" x="190" y="210" fill="#ffffff" /><rect width="10" height="10" x="140" y="220" fill="#ffffff" /><rect width="10" height="10" x="180" y="220" fill="#ffffff" /><rect width="30" height="10" x="150" y="230" fill="#ffffff" /><rect width="50" height="10" x="100" y="70" fill="#fffdf4" /><rect width="10" height="10" x="110" y="80" fill="#fffdf4" /><rect width="10" height="10" x="130" y="80" fill="#fffdf4" /><rect width="10" height="10" x="100" y="90" fill="#a19c9a" /><rect width="10" height="10" x="110" y="90" fill="#fffdf4" /><rect width="10" height="10" x="120" y="90" fill="#a19c9a" /><rect width="10" height="10" x="130" y="90" fill="#fffdf4" /><rect width="50" height="10" x="100" y="100" fill="#a19c9a" /><rect width="80" height="10" x="80" y="110" fill="#f8d689" /><rect width="80" height="10" x="80" y="120" fill="#a19c9a" /><rect width="10" height="10" x="160" y="120" fill="#f8d689" /><rect width="80" height="10" x="80" y="130" fill="#a19c9a" /><rect width="10" height="10" x="170" y="130" fill="#f8d689" /><rect width="90" height="10" x="70" y="140" fill="#a19c9a" /><rect width="10" height="10" x="170" y="140" fill="#f8d689" /><rect width="100" height="10" x="60" y="150" fill="#a19c9a" /><rect width="10" height="10" x="180" y="150" fill="#f8d689" /><rect width="30" height="10" x="220" y="150" fill="#a19c9a" /><rect width="100" height="10" x="60" y="160" fill="#a19c9a" /><rect width="10" height="10" x="180" y="160" fill="#f8d689" /><rect width="50" height="10" x="210" y="160" fill="#f8d689" /><rect width="110" height="10" x="50" y="170" fill="#a19c9a" /><rect width="20" height="10" x="190" y="170" fill="#f8d689" /><rect width="40" height="10" x="220" y="170" fill="#a19c9a" /><rect width="110" height="10" x="50" y="180" fill="#a19c9a" /><rect width="30" height="10" x="180" y="180" fill="#257ced" /><rect width="40" height="10" x="220" y="180" fill="#a19c9a" /><rect width="120" height="10" x="40" y="190" fill="#a19c9a" /><rect width="60" height="10" x="220" y="190" fill="#a19c9a" /><rect width="70" height="10" x="30" y="200" fill="#257ced" /><rect width="100" height="10" x="120" y="200" fill="#257ced" /><rect width="40" height="10" x="230" y="200" fill="#257ced" /><rect width="10" height="10" x="280" y="200" fill="#257ced" /><rect width="60" height="10" x="100" y="110" fill="#5648ed" /><rect width="60" height="10" x="170" y="110" fill="#5648ed" /><rect width="10" height="10" x="100" y="120" fill="#5648ed" /><rect width="20" height="10" x="110" y="120" fill="#ffffff" /><rect width="20" height="10" x="130" y="120" fill="#000000" /><rect width="10" height="10" x="150" y="120" fill="#5648ed" /><rect width="10" height="10" x="170" y="120" fill="#5648ed" /><rect width="20" height="10" x="180" y="120" fill="#ffffff" /><rect width="20" height="10" x="200" y="120" fill="#000000" /><rect width="10" height="10" x="220" y="120" fill="#5648ed" /><rect width="40" height="10" x="70" y="130" fill="#5648ed" /><rect width="20" height="10" x="110" y="130" fill="#ffffff" /><rect width="20" height="10" x="130" y="130" fill="#000000" /><rect width="30" height="10" x="150" y="130" fill="#5648ed" /><rect width="20" height="10" x="180" y="130" fill="#ffffff" /><rect width="20" height="10" x="200" y="130" fill="#000000" /><rect width="10" height="10" x="220" y="130" fill="#5648ed" /><rect width="10" height="10" x="70" y="140" fill="#5648ed" /><rect width="10" height="10" x="100" y="140" fill="#5648ed" /><rect width="20" height="10" x="110" y="140" fill="#ffffff" /><rect width="20" height="10" x="130" y="140" fill="#000000" /><rect width="10" height="10" x="150" y="140" fill="#5648ed" /><rect width="10" height="10" x="170" y="140" fill="#5648ed" /><rect width="20" height="10" x="180" y="140" fill="#ffffff" /><rect width="20" height="10" x="200" y="140" fill="#000000" /><rect width="10" height="10" x="220" y="140" fill="#5648ed" /><rect width="10" height="10" x="70" y="150" fill="#5648ed" /><rect width="10" height="10" x="100" y="150" fill="#5648ed" /><rect width="20" height="10" x="110" y="150" fill="#ffffff" /><rect width="20" height="10" x="130" y="150" fill="#000000" /><rect width="10" height="10" x="150" y="150" fill="#5648ed" /><rect width="10" height="10" x="170" y="150" fill="#5648ed" /><rect width="20" height="10" x="180" y="150" fill="#ffffff" /><rect width="20" height="10" x="200" y="150" fill="#000000" /><rect width="10" height="10" x="220" y="150" fill="#5648ed" /><rect width="60" height="10" x="100" y="160" fill="#5648ed" /><rect width="60" height="10" x="170" y="160" fill="#5648ed" /></svg>