<svg viewBox="0 0 320 320" xmlns="http://www.w3.org/2000/svg" shape-rendering="crispEdges"><rect width="100%" height="100%" fill="#e1d7d5" /><rect width="140" height="10" x="90" y="210" fill="#c54e38" /><rect width="140" height="10" x="90" y="220" fill="#c54e38" /><rect width="140" height="10" x="90" y="230" fill="#c54e38" /><rect width="140" height="10" x="90" y="240" fill="#c54e38" /><rect width="20" height="10" x="90" y="250" fill="#c54e38" /><rect width="110" height="10" x="120" y="250" fill="#c54e38" /><rect width="20" height="10" x="90" y="260" fill="#c54e38" /><rect width="110" height="10" x="120" y="260" fill="#c54e38" /><rect width="20" height="10" x="90" y="270" fill="#c54e38" /><rect width="110" height="10" x="120" y="270" fill="#c54e38" /><rect width="20" height="10" x="90" y="280" fill="#c54e38" /><rect width="110" height="10" x="120" y="280" fill="#c54e38" /><rect width="20" height="10" x="90" y="290" fill="#c54e38" /><rect width="110" height="10" x="120" y="290" fill="#c54e38" /><rect width="20" height="10" x="90" y="300" fill="#c54e38" /><rect width="110" height="10" x="120" y="300" fill="#c54e38" /><rect width="20" height="10" x="90" y="310" fill="#c54e38" /><rect width="110" height="10" x="120" y="310" fill="#c54e38" /><rect width="10" height="10" x="150" y="240" fill="#ffc925" /><rect width="10" height="10" x="160" y="240" fill="#ffb913" /><rect width="10" height="10" x="170" y="240" fill="#ffc925" /><rect width="10" height="10" x="140" y="250" fill="#ffc925" /><rect width="10" height="10" x="150" y="250" fill="#ffb913" /><rect width="10" height="10" x="160" y="250" fill="#ffc925" /><rect width="10" height="10" x="170" y="250" fill="#ffb913" /><rect width="10" height="10" x="180" y="250" fill="#ffc925" /><rect width="10" height="10" x="150" y="260" fill="#ffc925" /><rect width="10" height="10" x="160" y="260" fill="#ffb913" /><rect width="10" height="10" x="170" y="260" fill="#ffc925" /><rect width="60" height="10" x="130" y="40" fill="#f83001" /><rect width="20" height="10" x="110" y="50" fill="#f83001" /><rect width="60" height="10" x="130" y="50" fill="#ffffff" /><rect width="20" height="10" x="190" y="50" fill="#f83001" /><rect width="20" height="10" x="90" y="60" fill="#f83001" /><rect width="100" height="10" x="110" y="60" fill="#ffffff" /><rect width="20" height="10" x="210" y="60" fill="#f83001" /><rect width="10" height="10" x="80" y="70" fill="#f83001" /><rect width="40" height="10" x="90" y="70" fill="#ffffff" /><rect width="60" height="10" x="130" y="70" fill="#d32a09" /><rect width="40" height="10" x="190" y="70" fill="#ffffff" /><rect width="10" height="10" x="230" y="70" fill="#f83001" /><rect width="10" height="10" x="70" y="80" fill="#f83001" /><rect width="30" height="10" x="80" y="80" fill="#ffffff" /><rect width="40" height="10" x="110" y="80" fill="#d32a09" /><rect width="10" height="10" x="150" y="80" fill="#ffef16" /><rect width="50" height="10" x="160" y="80" fill="#d32a09" /><rect width="30" height="10" x="210" y="80" fill="#ffffff" /><rect width="10" height="10" x="240" y="80" fill="#f83001" /><rect width="10" height="10" x="60" y="90" fill="#f83001" /><rect width="20" height="10" x="70" y="90" fill="#ffffff" /><rect width="30" height="10" x="90" y="90" fill="#d32a09" /><rect width="10" height="10" x="120" y="90" fill="#ffef16" /><rect width="10" height="10" x="130" y="90" fill="#d32a09" /><rect width="20" height="10" x="140" y="90" fill="#049d43" /><rect width="10" height="10" x="160" y="90" fill="#ffef16" /><rect width="10" height="10" x="170" y="90" fill="#ff1a0b" /><rect width="10" height="10" x="180" y="90" fill="#049d43" /><rect width="40" height="10" x="190" y="90" fill="#d32a09" /><rect width="20" height="10" x="230" y="90" fill="#ffffff" /><rect width="10" height="10" x="250" y="90" fill="#f83001" /><rect width="10" height="10" x="60" y="100" fill="#f83001" /><rect width="10" height="10" x="70" y="100" fill="#ffffff" /><rect width="30" height="10" x="80" y="100" fill="#d32a09" /><rect width="20" height="10" x="110" y="100" fill="#049d43" /><rect width="10" height="10" x="130" y="100" fill="#ffef16" /><rect width="10" height="10" x="140" y="100" fill="#049d43" /><rect width="10" height="10" x="150" y="100" fill="#ff1a0b" /><rect width="20" height="10" x="160" y="100" fill="#ffef16" /><rect width="10" height="10" x="180" y="100" fill="#049d43" /><rect width="10" height="10" x="190" y="100" fill="#ffef16" /><rect width="10" height="10" x="200" y="100" fill="#049d43" /><rect width="30" height="10" x="210" y="100" fill="#d32a09" /><rect width="10" height="10" x="240" y="100" fill="#ffffff" /><rect width="10" height="10" x="250" y="100" fill="#f83001" /><rect width="10" height="10" x="50" y="110" fill="#f83001" /><rect width="20" height="10" x="60" y="110" fill="#ffffff" /><rect width="10" height="10" x="80" y="110" fill="#d32a09" /><rect width="10" height="10" x="90" y="110" fill="#ff1a0b" /><rect width="10" height="10" x="100" y="110" fill="#d32a09" /><rect width="10" height="10" x="110" y="110" fill="#ffef16" /><rect width="80" height="10" x="120" y="110" fill="#049d43" /><rect width="20" height="10" x="200" y="110" fill="#ffef16" /><rect width="20" height="10" x="220" y="110" fill="#d32a09" /><rect width="20" height="10" x="240" y="110" fill="#ffffff" /><rect width="10" height="10" x="260" y="110" fill="#f83001" /><rect width="10" height="10" x="50" y="120" fill="#f83001" /><rect width="10" height="10" x="60" y="120" fill="#ffffff" /><rect width="20" height="10" x="70" y="120" fill="#d32a09" /><rect width="30" height="10" x="90" y="120" fill="#049d43" /><rect width="30" height="10" x="120" y="120" fill="#ffef16" /><rect width="30" height="10" x="150" y="120" fill="#049d43" /><rect width="50" height="10" x="180" y="120" fill="#ffef16" /><rect width="10" height="10" x="230" y="120" fill="#ff1a0b" /><rect width="10" height="10" x="240" y="120" fill="#d32a09" /><rect width="10" height="10" x="250" y="120" fill="#ffffff" /><rect width="10" height="10" x="260" y="120" fill="#f83001" /><rect width="10" height="10" x="50" y="130" fill="#f83001" /><rect width="10" height="10" x="60" y="130" fill="#ffffff" /><rect width="20" height="10" x="70" y="130" fill="#d32a09" /><rect width="20" height="10" x="90" y="130" fill="#ffef16" /><rect width="30" height="10" x="110" y="130" fill="#049d43" /><rect width="30" height="10" x="140" y="130" fill="#ffef16" /><rect width="30" height="10" x="170" y="130" fill="#049d43" /><rect width="10" height="10" x="200" y="130" fill="#ffef16" /><rect width="30" height="10" x="210" y="130" fill="#049d43" /><rect width="10" height="10" x="240" y="130" fill="#d32a09" /><rect width="10" height="10" x="250" y="130" fill="#ffffff" /><rect width="10" height="10" x="260" y="130" fill="#f83001" /><rect width="10" height="10" x="50" y="140" fill="#f83001" /><rect width="10" height="10" x="60" y="140" fill="#ffffff" /><rect width="20" height="10" x="70" y="140" fill="#d32a09" /><rect width="10" height="10" x="90" y="140" fill="#ffef16" /><rect width="30" height="10" x="100" y="140" fill="#049d43" /><rect width="30" height="10" x="130" y="140" fill="#ffef16" /><rect width="10" height="10" x="160" y="140" fill="#ff1a0b" /><rect width="70" height="10" x="170" y="140" fill="#ffef16" /><rect width="10" height="10" x="240" y="140" fill="#d32a09" /><rect width="10" height="10" x="250" y="140" fill="#ffffff" /><rect width="10" height="10" x="260" y="140" fill="#f83001" /><rect width="10" height="10" x="50" y="150" fill="#f83001" /><rect width="20" height="10" x="60" y="150" fill="#ffffff" /><rect width="10" height="10" x="80" y="150" fill="#d32a09" /><rect width="10" height="10" x="90" y="150" fill="#ff1a0b" /><rect width="30" height="10" x="100" y="150" fill="#ffef16" /><rect width="100" height="10" x="130" y="150" fill="#049d43" /><rect width="10" height="10" x="230" y="150" fill="#d32a09" /><rect width="20" height="10" x="240" y="150" fill="#ffffff" /><rect width="10" height="10" x="260" y="150" fill="#f83001" /><rect width="10" height="10" x="60" y="160" fill="#f83001" /><rect width="10" height="10" x="70" y="160" fill="#ffffff" /><rect width="30" height="10" x="80" y="160" fill="#d32a09" /><rect width="70" height="10" x="110" y="160" fill="#ffef16" /><rect width="40" height="10" x="180" y="160" fill="#049d43" /><rect width="20" height="10" x="220" y="160" fill="#d32a09" /><rect width="10" height="10" x="240" y="160" fill="#ffffff" /><rect width="10" height="10" x="250" y="160" fill="#f83001" /><rect width="10" height="10" x="60" y="170" fill="#f83001" /><rect width="20" height="10" x="70" y="170" fill="#ffffff" /><rect width="10" height="10" x="90" y="170" fill="#d32a09" /><rect width="20" height="10" x="100" y="170" fill="#ffef16" /><rect width="20" height="10" x="120" y="170" fill="#049d43" /><rect width="20" height="10" x="140" y="170" fill="#ffef16" /><rect width="20" height="10" x="160" y="170" fill="#049d43" /><rect width="10" height="10" x="180" y="170" fill="#ffef16" /><rect width="10" height="10" x="190" y="170" fill="#049d43" /><rect width="20" height="10" x="200" y="170" fill="#ffef16" /><rect width="10" height="10" x="220" y="170" fill="#d32a09" /><rect width="20" height="10" x="230" y="170" fill="#ffffff" /><rect width="10" height="10" x="250" y="170" fill="#f83001" /><rect width="10" height="10" x="70" y="180" fill="#f83001" /><rect width="20" height="10" x="80" y="180" fill="#ffffff" /><rect width="10" height="10" x="100" y="180" fill="#d32a09" /><rect width="10" height="10" x="110" y="180" fill="#049d43" /><rect width="10" height="10" x="120" y="180" fill="#ff1a0b" /><rect width="10" height="10" x="130" y="180" fill="#d32a09" /><rect width="10" height="10" x="140" y="180" fill="#ffef16" /><rect width="10" height="10" x="150" y="180" fill="#552d1d" /><rect width="10" height="10" x="160" y="180" fill="#ffef16" /><rect width="10" height="10" x="170" y="180" fill="#552d1d" /><rect width="10" height="10" x="180" y="180" fill="#ffef16" /><rect width="10" height="10" x="190" y="180" fill="#ff1a0b" /><rect width="10" height="10" x="200" y="180" fill="#049d43" /><rect width="10" height="10" x="210" y="180" fill="#d32a09" /><rect width="20" height="10" x="220" y="180" fill="#ffffff" /><rect width="10" height="10" x="240" y="180" fill="#f83001" /><rect width="10" height="10" x="80" y="190" fill="#f83001" /><rect width="20" height="10" x="90" y="190" fill="#ffffff" /><rect width="30" height="10" x="110" y="190" fill="#d32a09" /><rect width="10" height="10" x="140" y="190" fill="#552d1d" /><rect width="10" height="10" x="150" y="190" fill="#ffef16" /><rect width="10" height="10" x="160" y="190" fill="#552d1d" /><rect width="10" height="10" x="170" y="190" fill="#ffef16" /><rect width="10" height="10" x="180" y="190" fill="#552d1d" /><rect width="20" height="10" x="190" y="190" fill="#d32a09" /><rect width="20" height="10" x="210" y="190" fill="#ffffff" /><rect width="10" height="10" x="230" y="190" fill="#f83001" /><rect width="10" height="10" x="90" y="200" fill="#f83001" /><rect width="30" height="10" x="100" y="200" fill="#ffffff" /><rect width="60" height="10" x="130" y="200" fill="#d32a09" /><rect width="30" height="10" x="190" y="200" fill="#ffffff" /><rect width="10" height="10" x="220" y="200" fill="#f83001" /><rect width="10" height="10" x="110" y="210" fill="#f83001" /><rect width="80" height="10" x="120" y="210" fill="#ffffff" /><rect width="10" height="10" x="200" y="210" fill="#f83001" /><rect width="60" height="10" x="100" y="110" fill="#5648ed" /><rect width="60" height="10" x="170" y="110" fill="#5648ed" /><rect width="10" height="10" x="100" y="120" fill="#5648ed" /><rect width="20" height="10" x="110" y="120" fill="#ffffff" /><rect width="20" height="10" x="130" y="120" fill="#000000" /><rect width="10" height="10" x="150" y="120" fill="#5648ed" /><rect width="10" height="10" x="170" y="120" fill="#5648ed" /><rect width="20" height="10" x="180" y="120" fill="#ffffff" /><rect width="20" height="10" x="200" y="120" fill="#000000" /><rect width="10" height="10" x="220" y="120" fill="#5648ed" /><rect width="40" height="10" x="70" y="130" fill="#5648ed" /><rect width="20" height="10" x="110" y="130" fill="#ffffff" /><rect width="20" height="10" x="130" y="130" fill="#000000" /><rect width="30" height="10" x="150" y="130" fill="#5648ed" /><rect width="20" height="10" x="180" y="130" fill="#ffffff" /><rect width="20" height="10" x="200" y="130" fill="#000000" /><rect width="10" height="10" x="220" y="130" fill="#5648ed" /><rect width="10" height="10" x="70" y="140" fill="#5648ed" /><rect width="10" height="10" x="100" y="140" fill="#5648ed" /><rect width="20" height="10" x="110" y="140" fill="#ffffff" /><rect width="20" height="10" x="130" y="140" fill="#000000" /><rect width="10" height="10" x="150" y="140" fill="#5648ed" /><rect width="10" height="10" x="170" y="140" fill="#5648ed" /><rect width="20" height="10" x="180" y="140" fill="#ffffff" /><rect width="20" height="10" x="200" y="140" fill="#000000" /><rect width="10" height="10" x="220" y="140" fill="#5648ed" /><rect width="10" height="10" x="70" y="150" fill="#5648ed" /><rect width="10" height="10" x="100" y="150" fill="#5648ed" /><rect width="20" height="10" x="110" y="150" fill="#ffffff" /><rect width="20" height="10" x="130" y="150" fill="#000000" /><rect width="10" height="10" x="150" y="150" fill="#5648ed" /><rect width="10" height="10" x="170" y="150" fill="#5648ed" /><rect width="20" height="10" x="180" y="150" fill="#ffffff" /><rect width="20" height="10" x="200" y="150" fill="#000000" /><rect width="10" height="10" x="220" y="150" fill="#5648ed" /><rect width="60" height="10" x="100" y="160" fill="#5648ed" /><rect width="60" height="10" x="170" y="160" fill="#5648ed" /></svg>