<svg viewBox="0 0 320 320" xmlns="http://www.w3.org/2000/svg" shape-rendering="crispEdges"><rect width="100%" height="100%" fill="#e1d7d5" /><rect width="140" height="10" x="90" y="210" fill="#807f7e" /><rect width="140" height="10" x="90" y="220" fill="#807f7e" /><rect width="140" height="10" x="90" y="230" fill="#807f7e" /><rect width="140" height="10" x="90" y="240" fill="#807f7e" /><rect width="20" height="10" x="90" y="250" fill="#807f7e" /><rect width="110" height="10" x="120" y="250" fill="#807f7e" /><rect width="20" height="10" x="90" y="260" fill="#807f7e" /><rect width="110" height="10" x="120" y="260" fill="#807f7e" /><rect width="20" height="10" x="90" y="270" fill="#807f7e" /><rect width="110" height="10" x="120" y="270" fill="#807f7e" /><rect width="20" height="10" x="90" y="280" fill="#807f7e" /><rect width="110" height="10" x="120" y="280" fill="#807f7e" /><rect width="20" height="10" x="90" y="290" fill="#807f7e" /><rect width="110" height="10" x="120" y="290" fill="#807f7e" /><rect width="20" height="10" x="90" y="300" fill="#807f7e" /><rect width="110" height="10" x="120" y="300" fill="#807f7e" /><rect width="20" height="10" x="90" y="310" fill="#807f7e" /><rect width="110" height="10" x="120" y="310" fill="#807f7e" /><rect width="10" height="10" x="150" y="230" fill="#bd2d24" /><rect width="10" height="10" x="140" y="240" fill="#bd2d24" /><rect width="50" height="10" x="140" y="250" fill="#bd2d24" /><rect width="30" height="10" x="150" y="260" fill="#bd2d24" /><rect width="10" height="10" x="120" y="20" fill="#fdf008" /><rect width="10" height="10" x="200" y="20" fill="#fdf008" /><rect width="20" height="10" x="120" y="30" fill="#fdf008" /><rect width="50" height="10" x="140" y="30" fill="#87e4d9" /><rect width="20" height="10" x="190" y="30" fill="#fdf008" /><rect width="90" height="10" x="120" y="40" fill="#87e4d9" /><rect width="110" height="10" x="110" y="50" fill="#87e4d9" /><rect width="10" height="10" x="120" y="60" fill="#ffffff" /><rect width="10" height="10" x="130" y="60" fill="#4a5358" /><rect width="10" height="10" x="140" y="60" fill="#ffffff" /><rect width="10" height="10" x="150" y="60" fill="#4a5358" /><rect width="10" height="10" x="160" y="60" fill="#ffffff" /><rect width="10" height="10" x="170" y="60" fill="#4a5358" /><rect width="10" height="10" x="180" y="60" fill="#ffffff" /><rect width="10" height="10" x="190" y="60" fill="#4a5358" /><rect width="10" height="10" x="200" y="60" fill="#ffffff" /><rect width="10" height="10" x="100" y="70" fill="#8bc0c5" /><rect width="110" height="10" x="110" y="70" fill="#87e4d9" /><rect width="10" height="10" x="220" y="70" fill="#8bc0c5" /><rect width="60" height="10" x="100" y="80" fill="#87e4d9" /><rect width="10" height="10" x="160" y="80" fill="#ffffff" /><rect width="60" height="10" x="170" y="80" fill="#87e4d9" /><rect width="50" height="10" x="110" y="90" fill="#ffffff" /><rect width="10" height="10" x="160" y="90" fill="#87e4d9" /><rect width="50" height="10" x="170" y="90" fill="#ffffff" /><rect width="10" height="10" x="100" y="100" fill="#87e4d9" /><rect width="10" height="10" x="110" y="100" fill="#ffffff" /><rect width="20" height="10" x="120" y="100" fill="#d8dadf" /><rect width="10" height="10" x="140" y="100" fill="#8bc0c5" /><rect width="10" height="10" x="150" y="100" fill="#87e4d9" /><rect width="10" height="10" x="160" y="100" fill="#1f1d29" /><rect width="10" height="10" x="170" y="100" fill="#87e4d9" /><rect width="10" height="10" x="180" y="100" fill="#8bc0c5" /><rect width="20" height="10" x="190" y="100" fill="#d8dadf" /><rect width="10" height="10" x="210" y="100" fill="#ffffff" /><rect width="10" height="10" x="220" y="100" fill="#87e4d9" /><rect width="40" height="10" x="100" y="110" fill="#87e4d9" /><rect width="50" height="10" x="140" y="110" fill="#1f1d29" /><rect width="40" height="10" x="190" y="110" fill="#87e4d9" /><rect width="10" height="10" x="10" y="120" fill="#4a5358" /><rect width="150" height="10" x="90" y="120" fill="#87e4d9" /><rect width="10" height="10" x="10" y="130" fill="#ffffff" /><rect width="10" height="10" x="20" y="130" fill="#4a5358" /><rect width="20" height="10" x="80" y="130" fill="#8bc0c5" /><rect width="130" height="10" x="100" y="130" fill="#ffffff" /><rect width="20" height="10" x="230" y="130" fill="#8bc0c5" /><rect width="30" height="10" x="10" y="140" fill="#4a5358" /><rect width="20" height="10" x="80" y="140" fill="#8bc0c5" /><rect width="10" height="10" x="100" y="140" fill="#87e4d9" /><rect width="10" height="10" x="110" y="140" fill="#1f1d29" /><rect width="10" height="10" x="120" y="140" fill="#87e4d9" /><rect width="10" height="10" x="130" y="140" fill="#ffffff" /><rect width="10" height="10" x="140" y="140" fill="#d8dadf" /><rect width="10" height="10" x="150" y="140" fill="#ffffff" /><rect width="10" height="10" x="160" y="140" fill="#d8dadf" /><rect width="10" height="10" x="170" y="140" fill="#ffffff" /><rect width="10" height="10" x="180" y="140" fill="#d8dadf" /><rect width="10" height="10" x="190" y="140" fill="#ffffff" /><rect width="10" height="10" x="200" y="140" fill="#87e4d9" /><rect width="10" height="10" x="210" y="140" fill="#1f1d29" /><rect width="10" height="10" x="220" y="140" fill="#87e4d9" /><rect width="20" height="10" x="230" y="140" fill="#8bc0c5" /><rect width="20" height="10" x="10" y="150" fill="#ffffff" /><rect width="10" height="10" x="70" y="150" fill="#8bc0c5" /><rect width="20" height="10" x="80" y="150" fill="#87e4d9" /><rect width="30" height="10" x="100" y="150" fill="#1f1d29" /><rect width="70" height="10" x="130" y="150" fill="#87e4d9" /><rect width="30" height="10" x="200" y="150" fill="#1f1d29" /><rect width="30" height="10" x="230" y="150" fill="#87e4d9" /><rect width="10" height="10" x="260" y="150" fill="#8bc0c5" /><rect width="10" height="10" x="10" y="160" fill="#d8dadf" /><rect width="10" height="10" x="20" y="160" fill="#ffffff" /><rect width="200" height="10" x="70" y="160" fill="#87e4d9" /><rect width="30" height="10" x="10" y="170" fill="#4a5358" /><rect width="10" height="10" x="80" y="170" fill="#adc8cc" /><rect width="10" height="10" x="90" y="170" fill="#d8dadf" /><rect width="10" height="10" x="100" y="170" fill="#ffffff" /><rect width="10" height="10" x="110" y="170" fill="#d8dadf" /><rect width="10" height="10" x="120" y="170" fill="#ffffff" /><rect width="10" height="10" x="130" y="170" fill="#d8dadf" /><rect width="10" height="10" x="140" y="170" fill="#adc8cc" /><rect width="10" height="10" x="150" y="170" fill="#d8dadf" /><rect width="10" height="10" x="160" y="170" fill="#adc8cc" /><rect width="10" height="10" x="170" y="170" fill="#d8dadf" /><rect width="10" height="10" x="180" y="170" fill="#adc8cc" /><rect width="10" height="10" x="190" y="170" fill="#d8dadf" /><rect width="10" height="10" x="200" y="170" fill="#ffffff" /><rect width="10" height="10" x="210" y="170" fill="#d8dadf" /><rect width="10" height="10" x="220" y="170" fill="#ffffff" /><rect width="10" height="10" x="230" y="170" fill="#d8dadf" /><rect width="10" height="10" x="240" y="170" fill="#adc8cc" /><rect width="10" height="10" x="250" y="170" fill="#d8dadf" /><rect width="40" height="10" x="10" y="180" fill="#4a5358" /><rect width="200" height="10" x="70" y="180" fill="#4a5358" /><rect width="30" height="10" x="10" y="190" fill="#ffffff" /><rect width="10" height="10" x="80" y="190" fill="#ffffff" /><rect width="10" height="10" x="90" y="190" fill="#d8dadf" /><rect width="10" height="10" x="100" y="190" fill="#ffffff" /><rect width="10" height="10" x="110" y="190" fill="#d8dadf" /><rect width="20" height="10" x="120" y="190" fill="#ffffff" /><rect width="10" height="10" x="140" y="190" fill="#d8dadf" /><rect width="10" height="10" x="150" y="190" fill="#ffffff" /><rect width="10" height="10" x="160" y="190" fill="#d8dadf" /><rect width="10" height="10" x="170" y="190" fill="#ffffff" /><rect width="10" height="10" x="180" y="190" fill="#d8dadf" /><rect width="20" height="10" x="190" y="190" fill="#ffffff" /><rect width="10" height="10" x="210" y="190" fill="#d8dadf" /><rect width="10" height="10" x="220" y="190" fill="#ffffff" /><rect width="10" height="10" x="230" y="190" fill="#d8dadf" /><rect width="20" height="10" x="240" y="190" fill="#ffffff" /><rect width="30" height="10" x="10" y="200" fill="#ffffff" /><rect width="40" height="10" x="40" y="200" fill="#4a5358" /><rect width="10" height="10" x="80" y="200" fill="#cec189" /><rect width="10" height="10" x="90" y="200" fill="#807f7e" /><rect width="10" height="10" x="100" y="200" fill="#d7d3cd" /><rect width="10" height="10" x="110" y="200" fill="#757576" /><rect width="10" height="10" x="120" y="200" fill="#cec189" /><rect width="20" height="10" x="130" y="200" fill="#d7d3cd" /><rect width="20" height="10" x="150" y="200" fill="#018146" /><rect width="20" height="10" x="170" y="200" fill="#d7d3cd" /><rect width="10" height="10" x="190" y="200" fill="#807f7e" /><rect width="20" height="10" x="200" y="200" fill="#018146" /><rect width="10" height="10" x="220" y="200" fill="#d7d3cd" /><rect width="10" height="10" x="230" y="200" fill="#757576" /><rect width="10" height="10" x="240" y="200" fill="#d7d3cd" /><rect width="10" height="10" x="250" y="200" fill="#807f7e" /><rect width="10" height="10" x="10" y="210" fill="#cfc9b8" /><rect width="10" height="10" x="20" y="210" fill="#d7d3cd" /><rect width="10" height="10" x="30" y="210" fill="#cfc9b8" /><rect width="40" height="10" x="40" y="210" fill="#ffffff" /><rect width="10" height="10" x="80" y="210" fill="#caa26a" /><rect width="10" height="10" x="90" y="210" fill="#cfc9b8" /><rect width="10" height="10" x="100" y="210" fill="#cec189" /><rect width="20" height="10" x="110" y="210" fill="#cfc9b8" /><rect width="10" height="10" x="130" y="210" fill="#757576" /><rect width="20" height="10" x="140" y="210" fill="#cfc9b8" /><rect width="10" height="10" x="160" y="210" fill="#caa26a" /><rect width="10" height="10" x="170" y="210" fill="#cfc9b8" /><rect width="10" height="10" x="180" y="210" fill="#cec189" /><rect width="30" height="10" x="190" y="210" fill="#cfc9b8" /><rect width="10" height="10" x="220" y="210" fill="#cec189" /><rect width="10" height="10" x="230" y="210" fill="#cfc9b8" /><rect width="10" height="10" x="240" y="210" fill="#caa26a" /><rect width="10" height="10" x="250" y="210" fill="#cfc9b8" /><rect width="60" height="10" x="100" y="110" fill="#e8705b" /><rect width="60" height="10" x="170" y="110" fill="#e8705b" /><rect width="10" height="10" x="100" y="120" fill="#e8705b" /><rect width="20" height="10" x="110" y="120" fill="#ffffff" /><rect width="20" height="10" x="130" y="120" fill="#000000" /><rect width="10" height="10" x="150" y="120" fill="#e8705b" /><rect width="10" height="10" x="170" y="120" fill="#e8705b" /><rect width="20" height="10" x="180" y="120" fill="#ffffff" /><rect width="20" height="10" x="200" y="120" fill="#000000" /><rect width="10" height="10" x="220" y="120" fill="#e8705b" /><rect width="40" height="10" x="70" y="130" fill="#e8705b" /><rect width="20" height="10" x="110" y="130" fill="#ffffff" /><rect width="20" height="10" x="130" y="130" fill="#000000" /><rect width="30" height="10" x="150" y="130" fill="#e8705b" /><rect width="20" height="10" x="180" y="130" fill="#ffffff" /><rect width="20" height="10" x="200" y="130" fill="#000000" /><rect width="10" height="10" x="220" y="130" fill="#e8705b" /><rect width="10" height="10" x="70" y="140" fill="#e8705b" /><rect width="10" height="10" x="100" y="140" fill="#e8705b" /><rect width="20" height="10" x="110" y="140" fill="#ffffff" /><rect width="20" height="10" x="130" y="140" fill="#000000" /><rect width="10" height="10" x="150" y="140" fill="#e8705b" /><rect width="10" height="10" x="170" y="140" fill="#e8705b" /><rect width="20" height="10" x="180" y="140" fill="#ffffff" /><rect width="20" height="10" x="200" y="140" fill="#000000" /><rect width="10" height="10" x="220" y="140" fill="#e8705b" /><rect width="10" height="10" x="70" y="150" fill="#e8705b" /><rect width="10" height="10" x="100" y="150" fill="#e8705b" /><rect width="20" height="10" x="110" y="150" fill="#ffffff" /><rect width="20" height="10" x="130" y="150" fill="#000000" /><rect width="10" height="10" x="150" y="150" fill="#e8705b" /><rect width="10" height="10" x="170" y="150" fill="#e8705b" /><rect width="20" height="10" x="180" y="150" fill="#ffffff" /><rect width="20" height="10" x="200" y="150" fill="#000000" /><rect width="10" height="10" x="220" y="150" fill="#e8705b" /><rect width="60" height="10" x="100" y="160" fill="#e8705b" /><rect width="60" height="10" x="170" y="160" fill="#e8705b" /></svg>