<svg viewBox="0 0 320 320" xmlns="http://www.w3.org/2000/svg" shape-rendering="crispEdges"><rect width="100%" height="100%" fill="#e1d7d5" /><rect width="140" height="10" x="90" y="210" fill="#4bea69" /><rect width="140" height="10" x="90" y="220" fill="#4bea69" /><rect width="140" height="10" x="90" y="230" fill="#4bea69" /><rect width="140" height="10" x="90" y="240" fill="#4bea69" /><rect width="20" height="10" x="90" y="250" fill="#4bea69" /><rect width="110" height="10" x="120" y="250" fill="#4bea69" /><rect width="20" height="10" x="90" y="260" fill="#4bea69" /><rect width="110" height="10" x="120" y="260" fill="#4bea69" /><rect width="20" height="10" x="90" y="270" fill="#4bea69" /><rect width="110" height="10" x="120" y="270" fill="#4bea69" /><rect width="20" height="10" x="90" y="280" fill="#4bea69" /><rect width="110" height="10" x="120" y="280" fill="#4bea69" /><rect width="20" height="10" x="90" y="290" fill="#4bea69" /><rect width="110" height="10" x="120" y="290" fill="#4bea69" /><rect width="20" height="10" x="90" y="300" fill="#4bea69" /><rect width="110" height="10" x="120" y="300" fill="#4bea69" /><rect width="20" height="10" x="90" y="310" fill="#4bea69" /><rect width="110" height="10" x="120" y="310" fill="#4bea69" /><rect width="10" height="10" x="160" y="240" fill="#ffffff" /><rect width="10" height="10" x="180" y="240" fill="#ffffff" /><rect width="10" height="10" x="150" y="250" fill="#ffffff" /><rect width="10" height="10" x="170" y="250" fill="#ffffff" /><rect width="10" height="10" x="140" y="260" fill="#9cb4b8" /><rect width="10" height="10" x="150" y="260" fill="#97f2fb" /><rect width="10" height="10" x="160" y="260" fill="#ffffff" /><rect width="10" height="10" x="170" y="260" fill="#97f2fb" /><rect width="10" height="10" x="180" y="260" fill="#ffffff" /><rect width="10" height="10" x="190" y="260" fill="#9cb4b8" /><rect width="10" height="10" x="140" y="270" fill="#9cb4b8" /><rect width="40" height="10" x="150" y="270" fill="#97f2fb" /><rect width="10" height="10" x="190" y="270" fill="#9cb4b8" /><rect width="40" height="10" x="150" y="280" fill="#9cb4b8" /><rect width="70" height="10" x="130" y="20" fill="#ffffff" /><rect width="30" height="10" x="120" y="30" fill="#ffffff" /><rect width="30" height="10" x="150" y="30" fill="#caa26a" /><rect width="30" height="10" x="180" y="30" fill="#ffffff" /><rect width="30" height="10" x="120" y="40" fill="#ffffff" /><rect width="10" height="10" x="150" y="40" fill="#caa26a" /><rect width="10" height="10" x="160" y="40" fill="#6b3f39" /><rect width="10" height="10" x="170" y="40" fill="#caa26a" /><rect width="30" height="10" x="180" y="40" fill="#ffffff" /><rect width="30" height="10" x="110" y="50" fill="#ffffff" /><rect width="10" height="10" x="140" y="50" fill="#caa26a" /><rect width="30" height="10" x="150" y="50" fill="#6b3f39" /><rect width="10" height="10" x="180" y="50" fill="#caa26a" /><rect width="50" height="10" x="190" y="50" fill="#ffffff" /><rect width="30" height="10" x="100" y="60" fill="#ffffff" /><rect width="10" height="10" x="130" y="60" fill="#caa26a" /><rect width="10" height="10" x="140" y="60" fill="#6b3f39" /><rect width="30" height="10" x="150" y="60" fill="#b2958d" /><rect width="10" height="10" x="180" y="60" fill="#6b3f39" /><rect width="10" height="10" x="190" y="60" fill="#caa26a" /><rect width="40" height="10" x="200" y="60" fill="#ffffff" /><rect width="30" height="10" x="90" y="70" fill="#ffffff" /><rect width="10" height="10" x="120" y="70" fill="#caa26a" /><rect width="20" height="10" x="130" y="70" fill="#6b3f39" /><rect width="20" height="10" x="150" y="70" fill="#ffffff" /><rect width="10" height="10" x="170" y="70" fill="#000000" /><rect width="20" height="10" x="180" y="70" fill="#6b3f39" /><rect width="10" height="10" x="200" y="70" fill="#caa26a" /><rect width="10" height="10" x="210" y="70" fill="#ffffff" /><rect width="20" height="10" x="220" y="70" fill="#caa26a" /><rect width="30" height="10" x="80" y="80" fill="#ffffff" /><rect width="10" height="10" x="110" y="80" fill="#caa26a" /><rect width="20" height="10" x="120" y="80" fill="#6b3f39" /><rect width="10" height="10" x="140" y="80" fill="#ae6c0a" /><rect width="20" height="10" x="150" y="80" fill="#ffffff" /><rect width="10" height="10" x="170" y="80" fill="#000000" /><rect width="10" height="10" x="180" y="80" fill="#ae6c0a" /><rect width="20" height="10" x="190" y="80" fill="#6b3f39" /><rect width="10" height="10" x="210" y="80" fill="#caa26a" /><rect width="10" height="10" x="240" y="80" fill="#ffffff" /><rect width="30" height="10" x="70" y="90" fill="#ffffff" /><rect width="10" height="10" x="100" y="90" fill="#caa26a" /><rect width="10" height="10" x="110" y="90" fill="#6b3f39" /><rect width="30" height="10" x="120" y="90" fill="#ffffff" /><rect width="30" height="10" x="150" y="90" fill="#ae6c0a" /><rect width="30" height="10" x="180" y="90" fill="#ffffff" /><rect width="10" height="10" x="210" y="90" fill="#6b3f39" /><rect width="10" height="10" x="220" y="90" fill="#caa26a" /><rect width="30" height="10" x="230" y="90" fill="#ffffff" /><rect width="30" height="10" x="60" y="100" fill="#ffffff" /><rect width="10" height="10" x="90" y="100" fill="#caa26a" /><rect width="10" height="10" x="100" y="100" fill="#6b3f39" /><rect width="50" height="10" x="110" y="100" fill="#ffffff" /><rect width="10" height="10" x="160" y="100" fill="#ae6c0a" /><rect width="50" height="10" x="170" y="100" fill="#ffffff" /><rect width="10" height="10" x="220" y="100" fill="#6b3f39" /><rect width="10" height="10" x="230" y="100" fill="#caa26a" /><rect width="30" height="10" x="240" y="100" fill="#ffffff" /><rect width="30" height="10" x="60" y="110" fill="#ffffff" /><rect width="10" height="10" x="90" y="110" fill="#caa26a" /><rect width="10" height="10" x="100" y="110" fill="#6b3f39" /><rect width="110" height="10" x="110" y="110" fill="#ae6c0a" /><rect width="10" height="10" x="220" y="110" fill="#6b3f39" /><rect width="10" height="10" x="230" y="110" fill="#caa26a" /><rect width="30" height="10" x="240" y="110" fill="#ffffff" /><rect width="30" height="10" x="50" y="120" fill="#ffffff" /><rect width="10" height="10" x="80" y="120" fill="#caa26a" /><rect width="20" height="10" x="90" y="120" fill="#6b3f39" /><rect width="110" height="10" x="110" y="120" fill="#ae6c0a" /><rect width="20" height="10" x="220" y="120" fill="#6b3f39" /><rect width="10" height="10" x="240" y="120" fill="#caa26a" /><rect width="30" height="10" x="250" y="120" fill="#ffffff" /><rect width="20" height="10" x="50" y="130" fill="#ffffff" /><rect width="10" height="10" x="70" y="130" fill="#caa26a" /><rect width="20" height="10" x="80" y="130" fill="#6b3f39" /><rect width="130" height="10" x="100" y="130" fill="#ae6c0a" /><rect width="20" height="10" x="230" y="130" fill="#6b3f39" /><rect width="10" height="10" x="250" y="130" fill="#caa26a" /><rect width="20" height="10" x="260" y="130" fill="#ffffff" /><rect width="30" height="10" x="40" y="140" fill="#ffffff" /><rect width="10" height="10" x="70" y="140" fill="#caa26a" /><rect width="10" height="10" x="80" y="140" fill="#6b3f39" /><rect width="150" height="10" x="90" y="140" fill="#ae6c0a" /><rect width="10" height="10" x="240" y="140" fill="#6b3f39" /><rect width="10" height="10" x="250" y="140" fill="#caa26a" /><rect width="30" height="10" x="260" y="140" fill="#ffffff" /><rect width="20" height="10" x="40" y="150" fill="#ffffff" /><rect width="10" height="10" x="60" y="150" fill="#caa26a" /><rect width="10" height="10" x="70" y="150" fill="#6b3f39" /><rect width="170" height="10" x="80" y="150" fill="#ae6c0a" /><rect width="10" height="10" x="250" y="150" fill="#6b3f39" /><rect width="10" height="10" x="260" y="150" fill="#caa26a" /><rect width="20" height="10" x="270" y="150" fill="#ffffff" /><rect width="10" height="10" x="40" y="160" fill="#ffffff" /><rect width="10" height="10" x="50" y="160" fill="#caa26a" /><rect width="20" height="10" x="60" y="160" fill="#6b3f39" /><rect width="10" height="10" x="80" y="160" fill="#ae6c0a" /><rect width="150" height="10" x="90" y="160" fill="#ffffff" /><rect width="10" height="10" x="240" y="160" fill="#ae6c0a" /><rect width="20" height="10" x="250" y="160" fill="#6b3f39" /><rect width="10" height="10" x="270" y="160" fill="#caa26a" /><rect width="10" height="10" x="280" y="160" fill="#ffffff" /><rect width="20" height="10" x="40" y="170" fill="#caa26a" /><rect width="10" height="10" x="60" y="170" fill="#6b3f39" /><rect width="10" height="10" x="70" y="170" fill="#ae6c0a" /><rect width="170" height="10" x="80" y="170" fill="#ffffff" /><rect width="10" height="10" x="250" y="170" fill="#ae6c0a" /><rect width="10" height="10" x="260" y="170" fill="#6b3f39" /><rect width="20" height="10" x="270" y="170" fill="#caa26a" /><rect width="20" height="10" x="40" y="180" fill="#caa26a" /><rect width="10" height="10" x="60" y="180" fill="#6b3f39" /><rect width="10" height="10" x="70" y="180" fill="#ae6c0a" /><rect width="170" height="10" x="80" y="180" fill="#6b3f39" /><rect width="10" height="10" x="250" y="180" fill="#ae6c0a" /><rect width="10" height="10" x="260" y="180" fill="#6b3f39" /><rect width="20" height="10" x="270" y="180" fill="#caa26a" /><rect width="20" height="10" x="40" y="190" fill="#caa26a" /><rect width="10" height="10" x="60" y="190" fill="#6b3f39" /><rect width="30" height="10" x="70" y="190" fill="#ae6c0a" /><rect width="10" height="10" x="100" y="190" fill="#ffffff" /><rect width="20" height="10" x="110" y="190" fill="#ae6c0a" /><rect width="10" height="10" x="130" y="190" fill="#ffffff" /><rect width="50" height="10" x="140" y="190" fill="#ae6c0a" /><rect width="20" height="10" x="190" y="190" fill="#ffffff" /><rect width="50" height="10" x="210" y="190" fill="#ae6c0a" /><rect width="10" height="10" x="260" y="190" fill="#6b3f39" /><rect width="20" height="10" x="270" y="190" fill="#caa26a" /><rect width="130" height="10" x="60" y="200" fill="#ae6c0a" /><rect width="20" height="10" x="190" y="200" fill="#ffffff" /><rect width="60" height="10" x="210" y="200" fill="#ae6c0a" /><rect width="60" height="10" x="100" y="110" fill="#e8705b" /><rect width="60" height="10" x="170" y="110" fill="#e8705b" /><rect width="10" height="10" x="100" y="120" fill="#e8705b" /><rect width="20" height="10" x="110" y="120" fill="#ffffff" /><rect width="20" height="10" x="130" y="120" fill="#000000" /><rect width="10" height="10" x="150" y="120" fill="#e8705b" /><rect width="10" height="10" x="170" y="120" fill="#e8705b" /><rect width="20" height="10" x="180" y="120" fill="#ffffff" /><rect width="20" height="10" x="200" y="120" fill="#000000" /><rect width="10" height="10" x="220" y="120" fill="#e8705b" /><rect width="40" height="10" x="70" y="130" fill="#e8705b" /><rect width="20" height="10" x="110" y="130" fill="#ffffff" /><rect width="20" height="10" x="130" y="130" fill="#000000" /><rect width="30" height="10" x="150" y="130" fill="#e8705b" /><rect width="20" height="10" x="180" y="130" fill="#ffffff" /><rect width="20" height="10" x="200" y="130" fill="#000000" /><rect width="10" height="10" x="220" y="130" fill="#e8705b" /><rect width="10" height="10" x="70" y="140" fill="#e8705b" /><rect width="10" height="10" x="100" y="140" fill="#e8705b" /><rect width="20" height="10" x="110" y="140" fill="#ffffff" /><rect width="20" height="10" x="130" y="140" fill="#000000" /><rect width="10" height="10" x="150" y="140" fill="#e8705b" /><rect width="10" height="10" x="170" y="140" fill="#e8705b" /><rect width="20" height="10" x="180" y="140" fill="#ffffff" /><rect width="20" height="10" x="200" y="140" fill="#000000" /><rect width="10" height="10" x="220" y="140" fill="#e8705b" /><rect width="10" height="10" x="70" y="150" fill="#e8705b" /><rect width="10" height="10" x="100" y="150" fill="#e8705b" /><rect width="20" height="10" x="110" y="150" fill="#ffffff" /><rect width="20" height="10" x="130" y="150" fill="#000000" /><rect width="10" height="10" x="150" y="150" fill="#e8705b" /><rect width="10" height="10" x="170" y="150" fill="#e8705b" /><rect width="20" height="10" x="180" y="150" fill="#ffffff" /><rect width="20" height="10" x="200" y="150" fill="#000000" /><rect width="10" height="10" x="220" y="150" fill="#e8705b" /><rect width="60" height="10" x="100" y="160" fill="#e8705b" /><rect width="60" height="10" x="170" y="160" fill="#e8705b" /></svg>