<svg viewBox="0 0 320 320" xmlns="http://www.w3.org/2000/svg" shape-rendering="crispEdges"><rect width="100%" height="100%" fill="#d5d7e1" /><rect width="140" height="10" x="90" y="210" fill="#c54e38" /><rect width="140" height="10" x="90" y="220" fill="#c54e38" /><rect width="140" height="10" x="90" y="230" fill="#c54e38" /><rect width="140" height="10" x="90" y="240" fill="#c54e38" /><rect width="20" height="10" x="90" y="250" fill="#c54e38" /><rect width="110" height="10" x="120" y="250" fill="#c54e38" /><rect width="20" height="10" x="90" y="260" fill="#c54e38" /><rect width="110" height="10" x="120" y="260" fill="#c54e38" /><rect width="20" height="10" x="90" y="270" fill="#c54e38" /><rect width="110" height="10" x="120" y="270" fill="#c54e38" /><rect width="20" height="10" x="90" y="280" fill="#c54e38" /><rect width="110" height="10" x="120" y="280" fill="#c54e38" /><rect width="20" height="10" x="90" y="290" fill="#c54e38" /><rect width="110" height="10" x="120" y="290" fill="#c54e38" /><rect width="20" height="10" x="90" y="300" fill="#c54e38" /><rect width="110" height="10" x="120" y="300" fill="#c54e38" /><rect width="20" height="10" x="90" y="310" fill="#c54e38" /><rect width="110" height="10" x="120" y="310" fill="#c54e38" /><rect width="20" height="10" x="210" y="230" fill="#f5fcff" /><rect width="30" height="10" x="140" y="240" fill="#f5fcff" /><rect width="10" height="10" x="190" y="240" fill="#ffffff" /><rect width="20" height="10" x="180" y="250" fill="#ff3a0e" /><rect width="10" height="10" x="200" y="250" fill="#ffffff" /><rect width="30" height="10" x="120" y="260" fill="#f5fcff" /><rect width="50" height="10" x="170" y="260" fill="#ff3a0e" /><rect width="10" height="10" x="160" y="270" fill="#3f9323" /><rect width="60" height="10" x="170" y="270" fill="#ff3a0e" /><rect width="10" height="10" x="140" y="280" fill="#018146" /><rect width="40" height="10" x="150" y="280" fill="#3f9323" /><rect width="40" height="10" x="190" y="280" fill="#ff3a0e" /><rect width="40" height="10" x="120" y="290" fill="#018146" /><rect width="70" height="10" x="160" y="290" fill="#3f9323" /><rect width="10" height="10" x="130" y="40" fill="#9d8e6e" /><rect width="10" height="10" x="140" y="40" fill="#f8d689" /><rect width="10" height="10" x="150" y="40" fill="#9d8e6e" /><rect width="30" height="10" x="130" y="50" fill="#a38654" /><rect width="20" height="10" x="200" y="50" fill="#85634f" /><rect width="10" height="10" x="220" y="50" fill="#7e5243" /><rect width="20" height="10" x="80" y="60" fill="#eab118" /><rect width="10" height="10" x="130" y="60" fill="#9d8e6e" /><rect width="10" height="10" x="140" y="60" fill="#f8d689" /><rect width="10" height="10" x="150" y="60" fill="#9d8e6e" /><rect width="10" height="10" x="170" y="60" fill="#f8d689" /><rect width="40" height="10" x="190" y="60" fill="#85634f" /><rect width="10" height="10" x="230" y="60" fill="#7e5243" /><rect width="20" height="10" x="80" y="70" fill="#eab118" /><rect width="10" height="10" x="110" y="70" fill="#f8d689" /><rect width="30" height="10" x="130" y="70" fill="#a38654" /><rect width="10" height="10" x="170" y="70" fill="#f8d689" /><rect width="40" height="10" x="190" y="70" fill="#85634f" /><rect width="10" height="10" x="230" y="70" fill="#7e5243" /><rect width="20" height="10" x="80" y="80" fill="#eab118" /><rect width="10" height="10" x="110" y="80" fill="#f8d689" /><rect width="30" height="10" x="130" y="80" fill="#9d8e6e" /><rect width="10" height="10" x="170" y="80" fill="#f8d689" /><rect width="50" height="10" x="190" y="80" fill="#85634f" /><rect width="30" height="10" x="70" y="90" fill="#eab118" /><rect width="10" height="10" x="110" y="90" fill="#f8d689" /><rect width="10" height="10" x="130" y="90" fill="#a38654" /><rect width="10" height="10" x="140" y="90" fill="#f8d689" /><rect width="10" height="10" x="150" y="90" fill="#a38654" /><rect width="10" height="10" x="170" y="90" fill="#f8d689" /><rect width="30" height="10" x="200" y="90" fill="#85634f" /><rect width="30" height="10" x="70" y="100" fill="#eab118" /><rect width="10" height="10" x="110" y="100" fill="#f8d689" /><rect width="10" height="10" x="140" y="100" fill="#f8d689" /><rect width="10" height="10" x="170" y="100" fill="#f8d689" /><rect width="10" height="10" x="210" y="100" fill="#f8d689" /><rect width="20" height="10" x="70" y="110" fill="#eab118" /><rect width="10" height="10" x="110" y="110" fill="#f8d689" /><rect width="10" height="10" x="140" y="110" fill="#f8d689" /><rect width="10" height="10" x="170" y="110" fill="#f8d689" /><rect width="10" height="10" x="210" y="110" fill="#f8d689" /><rect width="20" height="10" x="70" y="120" fill="#eab118" /><rect width="10" height="10" x="110" y="120" fill="#f8d689" /><rect width="10" height="10" x="140" y="120" fill="#f8d689" /><rect width="10" height="10" x="170" y="120" fill="#f8d689" /><rect width="10" height="10" x="210" y="120" fill="#f8d689" /><rect width="20" height="10" x="70" y="130" fill="#eab118" /><rect width="10" height="10" x="110" y="130" fill="#f8d689" /><rect width="10" height="10" x="140" y="130" fill="#f8d689" /><rect width="10" height="10" x="170" y="130" fill="#f8d689" /><rect width="10" height="10" x="210" y="130" fill="#f8d689" /><rect width="10" height="10" x="80" y="140" fill="#f8d689" /><rect width="10" height="10" x="110" y="140" fill="#f8d689" /><rect width="10" height="10" x="140" y="140" fill="#f8d689" /><rect width="30" height="10" x="160" y="140" fill="#f9f6d1" /><rect width="10" height="10" x="210" y="140" fill="#f8d689" /><rect width="10" height="10" x="80" y="150" fill="#f8d689" /><rect width="30" height="10" x="100" y="150" fill="#757576" /><rect width="10" height="10" x="140" y="150" fill="#f8d689" /><rect width="30" height="10" x="160" y="150" fill="#f9f6d1" /><rect width="10" height="10" x="210" y="150" fill="#f8d689" /><rect width="10" height="10" x="80" y="160" fill="#f8d689" /><rect width="50" height="10" x="90" y="160" fill="#757576" /><rect width="10" height="10" x="140" y="160" fill="#f8d689" /><rect width="30" height="10" x="160" y="160" fill="#f9f6d1" /><rect width="10" height="10" x="210" y="160" fill="#f8d689" /><rect width="10" height="10" x="80" y="170" fill="#f8d689" /><rect width="50" height="10" x="90" y="170" fill="#757576" /><rect width="10" height="10" x="140" y="170" fill="#f8d689" /><rect width="30" height="10" x="160" y="170" fill="#f9f6d1" /><rect width="10" height="10" x="210" y="170" fill="#f8d689" /><rect width="10" height="10" x="80" y="180" fill="#f8d689" /><rect width="50" height="10" x="90" y="180" fill="#757576" /><rect width="20" height="10" x="160" y="180" fill="#f9f6d1" /><rect width="10" height="10" x="180" y="180" fill="#ff82ad" /><rect width="10" height="10" x="80" y="190" fill="#f8d689" /><rect width="50" height="10" x="90" y="190" fill="#757576" /><rect width="20" height="10" x="160" y="190" fill="#ff82ad" /><rect width="10" height="10" x="180" y="190" fill="#f9f6d1" /><rect width="30" height="10" x="100" y="200" fill="#757576" /><rect width="20" height="10" x="160" y="200" fill="#f9f6d1" /><rect width="60" height="10" x="100" y="110" fill="#000000" /><rect width="60" height="10" x="170" y="110" fill="#000000" /><rect width="40" height="10" x="100" y="120" fill="#000000" /><rect width="10" height="10" x="140" y="120" fill="#ffffff" /><rect width="10" height="10" x="150" y="120" fill="#000000" /><rect width="40" height="10" x="170" y="120" fill="#000000" /><rect width="10" height="10" x="210" y="120" fill="#ffffff" /><rect width="10" height="10" x="220" y="120" fill="#000000" /><rect width="70" height="10" x="70" y="130" fill="#000000" /><rect width="10" height="10" x="140" y="130" fill="#ffffff" /><rect width="60" height="10" x="150" y="130" fill="#000000" /><rect width="10" height="10" x="210" y="130" fill="#ffffff" /><rect width="10" height="10" x="220" y="130" fill="#000000" /><rect width="10" height="10" x="70" y="140" fill="#000000" /><rect width="60" height="10" x="100" y="140" fill="#000000" /><rect width="60" height="10" x="170" y="140" fill="#000000" /><rect width="10" height="10" x="70" y="150" fill="#000000" /><rect width="60" height="10" x="100" y="150" fill="#000000" /><rect width="60" height="10" x="170" y="150" fill="#000000" /><rect width="60" height="10" x="100" y="160" fill="#000000" /><rect width="60" height="10" x="170" y="160" fill="#000000" /></svg>