<svg viewBox="0 0 320 320" xmlns="http://www.w3.org/2000/svg" shape-rendering="crispEdges"><rect width="100%" height="100%" fill="#d5d7e1" /><rect width="140" height="10" x="90" y="210" fill="#c54e38" /><rect width="140" height="10" x="90" y="220" fill="#c54e38" /><rect width="140" height="10" x="90" y="230" fill="#c54e38" /><rect width="140" height="10" x="90" y="240" fill="#c54e38" /><rect width="20" height="10" x="90" y="250" fill="#c54e38" /><rect width="110" height="10" x="120" y="250" fill="#c54e38" /><rect width="20" height="10" x="90" y="260" fill="#c54e38" /><rect width="110" height="10" x="120" y="260" fill="#c54e38" /><rect width="20" height="10" x="90" y="270" fill="#c54e38" /><rect width="110" height="10" x="120" y="270" fill="#c54e38" /><rect width="20" height="10" x="90" y="280" fill="#c54e38" /><rect width="110" height="10" x="120" y="280" fill="#c54e38" /><rect width="20" height="10" x="90" y="290" fill="#c54e38" /><rect width="110" height="10" x="120" y="290" fill="#c54e38" /><rect width="20" height="10" x="90" y="300" fill="#c54e38" /><rect width="110" height="10" x="120" y="300" fill="#c54e38" /><rect width="20" height="10" x="90" y="310" fill="#c54e38" /><rect width="110" height="10" x="120" y="310" fill="#c54e38" /><rect width="10" height="10" x="160" y="240" fill="#abaaa8" /><rect width="30" height="10" x="150" y="250" fill="#abaaa8" /><rect width="10" height="10" x="160" y="260" fill="#d8dadf" /><rect width="10" height="10" x="150" y="270" fill="#d8dadf" /><rect width="10" height="10" x="170" y="270" fill="#d8dadf" /><rect width="10" height="10" x="140" y="280" fill="#d8dadf" /><rect width="10" height="10" x="180" y="280" fill="#d8dadf" /><rect width="50" height="10" x="70" y="50" fill="#fccf25" /><rect width="70" height="10" x="120" y="50" fill="#ffe939" /><rect width="50" height="10" x="190" y="50" fill="#d29607" /><rect width="30" height="10" x="70" y="60" fill="#fccf25" /><rect width="110" height="10" x="100" y="60" fill="#ffe939" /><rect width="30" height="10" x="210" y="60" fill="#fccf25" /><rect width="100" height="10" x="70" y="70" fill="#fccf25" /><rect width="60" height="10" x="170" y="70" fill="#ffe939" /><rect width="10" height="10" x="230" y="70" fill="#d29607" /><rect width="90" height="10" x="70" y="80" fill="#fccf25" /><rect width="80" height="10" x="160" y="80" fill="#ffe939" /><rect width="70" height="10" x="70" y="90" fill="#fccf25" /><rect width="100" height="10" x="140" y="90" fill="#ffe939" /><rect width="160" height="10" x="70" y="100" fill="#fccf25" /><rect width="10" height="10" x="230" y="100" fill="#ffe939" /><rect width="170" height="10" x="70" y="110" fill="#fccf25" /><rect width="170" height="10" x="70" y="120" fill="#fccf25" /><rect width="40" height="10" x="70" y="130" fill="#d29607" /><rect width="130" height="10" x="110" y="130" fill="#fccf25" /><rect width="170" height="10" x="70" y="140" fill="#fccf25" /><rect width="40" height="10" x="70" y="150" fill="#ffe939" /><rect width="130" height="10" x="110" y="150" fill="#fccf25" /><rect width="90" height="10" x="70" y="160" fill="#d29607" /><rect width="80" height="10" x="160" y="160" fill="#fccf25" /><rect width="30" height="10" x="70" y="170" fill="#d29607" /><rect width="50" height="10" x="100" y="170" fill="#ffe939" /><rect width="90" height="10" x="150" y="170" fill="#fccf25" /><rect width="100" height="10" x="70" y="180" fill="#d29607" /><rect width="70" height="10" x="170" y="180" fill="#fccf25" /><rect width="60" height="10" x="70" y="190" fill="#d29607" /><rect width="30" height="10" x="130" y="190" fill="#ffe939" /><rect width="10" height="10" x="160" y="190" fill="#fccf25" /><rect width="30" height="10" x="170" y="190" fill="#d29607" /><rect width="40" height="10" x="200" y="190" fill="#fccf25" /><rect width="30" height="10" x="70" y="200" fill="#ffe939" /><rect width="70" height="10" x="100" y="200" fill="#d29607" /><rect width="70" height="10" x="170" y="200" fill="#fccf25" /><rect width="30" height="10" x="70" y="210" fill="#d29607" /><rect width="30" height="10" x="100" y="210" fill="#fccf25" /><rect width="110" height="10" x="130" y="210" fill="#d29607" /><rect width="60" height="10" x="100" y="110" fill="#000000" /><rect width="60" height="10" x="170" y="110" fill="#000000" /><rect width="10" height="10" x="100" y="120" fill="#000000" /><rect width="20" height="10" x="110" y="120" fill="#ffffff" /><rect width="30" height="10" x="130" y="120" fill="#000000" /><rect width="10" height="10" x="170" y="120" fill="#000000" /><rect width="20" height="10" x="180" y="120" fill="#ffffff" /><rect width="30" height="10" x="200" y="120" fill="#000000" /><rect width="40" height="10" x="70" y="130" fill="#000000" /><rect width="20" height="10" x="110" y="130" fill="#ffffff" /><rect width="50" height="10" x="130" y="130" fill="#000000" /><rect width="20" height="10" x="180" y="130" fill="#ffffff" /><rect width="30" height="10" x="200" y="130" fill="#000000" /><rect width="10" height="10" x="70" y="140" fill="#000000" /><rect width="10" height="10" x="100" y="140" fill="#000000" /><rect width="20" height="10" x="110" y="140" fill="#ffffff" /><rect width="30" height="10" x="130" y="140" fill="#000000" /><rect width="10" height="10" x="170" y="140" fill="#000000" /><rect width="20" height="10" x="180" y="140" fill="#ffffff" /><rect width="30" height="10" x="200" y="140" fill="#000000" /><rect width="10" height="10" x="70" y="150" fill="#000000" /><rect width="10" height="10" x="100" y="150" fill="#000000" /><rect width="20" height="10" x="110" y="150" fill="#ffffff" /><rect width="30" height="10" x="130" y="150" fill="#000000" /><rect width="10" height="10" x="170" y="150" fill="#000000" /><rect width="20" height="10" x="180" y="150" fill="#ffffff" /><rect width="30" height="10" x="200" y="150" fill="#000000" /><rect width="60" height="10" x="100" y="160" fill="#000000" /><rect width="60" height="10" x="170" y="160" fill="#000000" /></svg>