<svg viewBox="0 0 320 320" xmlns="http://www.w3.org/2000/svg" shape-rendering="crispEdges"><rect width="100%" height="100%" fill="#d5d7e1" /><rect width="140" height="10" x="90" y="210" fill="#b9185c" /><rect width="140" height="10" x="90" y="220" fill="#b9185c" /><rect width="140" height="10" x="90" y="230" fill="#b9185c" /><rect width="140" height="10" x="90" y="240" fill="#b9185c" /><rect width="20" height="10" x="90" y="250" fill="#b9185c" /><rect width="110" height="10" x="120" y="250" fill="#b9185c" /><rect width="20" height="10" x="90" y="260" fill="#b9185c" /><rect width="110" height="10" x="120" y="260" fill="#b9185c" /><rect width="20" height="10" x="90" y="270" fill="#b9185c" /><rect width="110" height="10" x="120" y="270" fill="#b9185c" /><rect width="20" height="10" x="90" y="280" fill="#b9185c" /><rect width="110" height="10" x="120" y="280" fill="#b9185c" /><rect width="20" height="10" x="90" y="290" fill="#b9185c" /><rect width="110" height="10" x="120" y="290" fill="#b9185c" /><rect width="20" height="10" x="90" y="300" fill="#b9185c" /><rect width="110" height="10" x="120" y="300" fill="#b9185c" /><rect width="20" height="10" x="90" y="310" fill="#b9185c" /><rect width="110" height="10" x="120" y="310" fill="#b9185c" /><rect width="20" height="10" x="160" y="250" fill="#ffd067" /><rect width="30" height="10" x="150" y="260" fill="#ffd067" /><rect width="10" height="10" x="150" y="270" fill="#ffd067" /><rect width="20" height="10" x="130" y="20" fill="#eff2fa" /><rect width="10" height="10" x="160" y="20" fill="#eff2fa" /><rect width="20" height="10" x="110" y="30" fill="#eff2fa" /><rect width="10" height="10" x="100" y="40" fill="#eff2fa" /><rect width="10" height="10" x="140" y="40" fill="#eff2fa" /><rect width="10" height="10" x="100" y="50" fill="#eff2fa" /><rect width="10" height="10" x="140" y="50" fill="#eff2fa" /><rect width="30" height="10" x="170" y="50" fill="#42ffb0" /><rect width="20" height="10" x="200" y="50" fill="#45faff" /><rect width="10" height="10" x="220" y="50" fill="#42ffb0" /><rect width="30" height="10" x="100" y="60" fill="#eff2fa" /><rect width="60" height="10" x="180" y="60" fill="#45faff" /><rect width="20" height="10" x="60" y="70" fill="#b8ced2" /><rect width="10" height="10" x="130" y="70" fill="#eff2fa" /><rect width="40" height="10" x="50" y="80" fill="#b8ced2" /><rect width="10" height="10" x="120" y="80" fill="#eff2fa" /><rect width="20" height="10" x="140" y="80" fill="#eff2fa" /><rect width="10" height="10" x="220" y="80" fill="#fff0be" /><rect width="10" height="10" x="240" y="80" fill="#fff0be" /><rect width="10" height="10" x="50" y="90" fill="#b8ced2" /><rect width="10" height="10" x="60" y="90" fill="#9cb4b8" /><rect width="10" height="10" x="70" y="90" fill="#b8ced2" /><rect width="10" height="10" x="80" y="90" fill="#9cb4b8" /><rect width="10" height="10" x="120" y="90" fill="#eff2fa" /><rect width="10" height="10" x="160" y="90" fill="#eff2fa" /><rect width="50" height="10" x="210" y="90" fill="#fff0be" /><rect width="60" height="10" x="40" y="100" fill="#b8ced2" /><rect width="10" height="10" x="130" y="100" fill="#eff2fa" /><rect width="10" height="10" x="160" y="100" fill="#eff2fa" /><rect width="50" height="10" x="210" y="100" fill="#adc8cc" /><rect width="10" height="10" x="150" y="110" fill="#eff2fa" /><rect width="10" height="10" x="210" y="110" fill="#adc8cc" /><rect width="30" height="10" x="230" y="110" fill="#adc8cc" /><rect width="20" height="10" x="40" y="130" fill="#a3efd0" /><rect width="20" height="10" x="70" y="130" fill="#a3efd0" /><rect width="10" height="10" x="140" y="130" fill="#eff2fa" /><rect width="30" height="10" x="220" y="130" fill="#009c59" /><rect width="60" height="10" x="30" y="140" fill="#a3efd0" /><rect width="10" height="10" x="120" y="140" fill="#cbc1bc" /><rect width="20" height="10" x="130" y="140" fill="#7d635e" /><rect width="10" height="10" x="150" y="140" fill="#cbc1bc" /><rect width="10" height="10" x="160" y="140" fill="#7d635e" /><rect width="10" height="10" x="170" y="140" fill="#cbc1bc" /><rect width="20" height="10" x="200" y="140" fill="#009c59" /><rect width="30" height="10" x="30" y="150" fill="#a3efd0" /><rect width="10" height="10" x="60" y="150" fill="#807f7e" /><rect width="20" height="10" x="70" y="150" fill="#a3efd0" /><rect width="30" height="10" x="110" y="150" fill="#f59b34" /><rect width="10" height="10" x="140" y="150" fill="#cbc1bc" /><rect width="20" height="10" x="150" y="150" fill="#f59b34" /><rect width="10" height="10" x="200" y="150" fill="#009c59" /><rect width="40" height="10" x="220" y="150" fill="#009c59" /><rect width="10" height="10" x="260" y="150" fill="#000000" /><rect width="60" height="10" x="30" y="160" fill="#a3efd0" /><rect width="50" height="10" x="210" y="160" fill="#009c59" /><rect width="20" height="10" x="260" y="160" fill="#f38b7c" /><rect width="20" height="10" x="40" y="170" fill="#fffdf4" /><rect width="20" height="10" x="60" y="170" fill="#a3efd0" /><rect width="10" height="10" x="110" y="170" fill="#ffffff" /><rect width="10" height="10" x="120" y="170" fill="#caeff9" /><rect width="10" height="10" x="90" y="180" fill="#ffffff" /><rect width="10" height="10" x="110" y="180" fill="#ffffff" /><rect width="10" height="10" x="120" y="180" fill="#caeff9" /><rect width="10" height="10" x="110" y="190" fill="#ffffff" /><rect width="10" height="10" x="120" y="190" fill="#caeff9" /><rect width="10" height="10" x="130" y="190" fill="#ffffff" /><rect width="60" height="10" x="160" y="190" fill="#f83001" /><rect width="10" height="10" x="90" y="200" fill="#ffffff" /><rect width="10" height="10" x="110" y="200" fill="#ffffff" /><rect width="10" height="10" x="120" y="200" fill="#caeff9" /><rect width="10" height="10" x="140" y="200" fill="#caeff9" /><rect width="60" height="10" x="170" y="200" fill="#f83001" /><rect width="10" height="10" x="110" y="210" fill="#ffffff" /><rect width="10" height="10" x="120" y="210" fill="#caeff9" /><rect width="10" height="10" x="200" y="210" fill="#f83001" /><rect width="10" height="10" x="220" y="210" fill="#f83001" /><rect width="10" height="10" x="200" y="230" fill="#f83001" /><rect width="10" height="10" x="220" y="230" fill="#f83001" /><rect width="60" height="10" x="100" y="110" fill="#4bea69" /><rect width="60" height="10" x="170" y="110" fill="#4bea69" /><rect width="10" height="10" x="100" y="120" fill="#4bea69" /><rect width="20" height="10" x="110" y="120" fill="#ffffff" /><rect width="20" height="10" x="130" y="120" fill="#000000" /><rect width="10" height="10" x="150" y="120" fill="#4bea69" /><rect width="10" height="10" x="170" y="120" fill="#4bea69" /><rect width="20" height="10" x="180" y="120" fill="#ffffff" /><rect width="20" height="10" x="200" y="120" fill="#000000" /><rect width="10" height="10" x="220" y="120" fill="#4bea69" /><rect width="40" height="10" x="70" y="130" fill="#4bea69" /><rect width="20" height="10" x="110" y="130" fill="#ffffff" /><rect width="20" height="10" x="130" y="130" fill="#000000" /><rect width="30" height="10" x="150" y="130" fill="#4bea69" /><rect width="20" height="10" x="180" y="130" fill="#ffffff" /><rect width="20" height="10" x="200" y="130" fill="#000000" /><rect width="10" height="10" x="220" y="130" fill="#4bea69" /><rect width="10" height="10" x="70" y="140" fill="#4bea69" /><rect width="10" height="10" x="100" y="140" fill="#4bea69" /><rect width="20" height="10" x="110" y="140" fill="#ffffff" /><rect width="20" height="10" x="130" y="140" fill="#000000" /><rect width="10" height="10" x="150" y="140" fill="#4bea69" /><rect width="10" height="10" x="170" y="140" fill="#4bea69" /><rect width="20" height="10" x="180" y="140" fill="#ffffff" /><rect width="20" height="10" x="200" y="140" fill="#000000" /><rect width="10" height="10" x="220" y="140" fill="#4bea69" /><rect width="10" height="10" x="70" y="150" fill="#4bea69" /><rect width="10" height="10" x="100" y="150" fill="#4bea69" /><rect width="20" height="10" x="110" y="150" fill="#ffffff" /><rect width="20" height="10" x="130" y="150" fill="#000000" /><rect width="10" height="10" x="150" y="150" fill="#4bea69" /><rect width="10" height="10" x="170" y="150" fill="#4bea69" /><rect width="20" height="10" x="180" y="150" fill="#ffffff" /><rect width="20" height="10" x="200" y="150" fill="#000000" /><rect width="10" height="10" x="220" y="150" fill="#4bea69" /><rect width="60" height="10" x="100" y="160" fill="#4bea69" /><rect width="60" height="10" x="170" y="160" fill="#4bea69" /></svg>