<svg viewBox="0 0 320 320" xmlns="http://www.w3.org/2000/svg" shape-rendering="crispEdges"><rect width="100%" height="100%" fill="#e1d7d5" /><rect width="140" height="10" x="90" y="210" fill="#caeff9" /><rect width="140" height="10" x="90" y="220" fill="#caeff9" /><rect width="140" height="10" x="90" y="230" fill="#caeff9" /><rect width="140" height="10" x="90" y="240" fill="#caeff9" /><rect width="20" height="10" x="90" y="250" fill="#caeff9" /><rect width="110" height="10" x="120" y="250" fill="#caeff9" /><rect width="20" height="10" x="90" y="260" fill="#caeff9" /><rect width="110" height="10" x="120" y="260" fill="#caeff9" /><rect width="20" height="10" x="90" y="270" fill="#caeff9" /><rect width="110" height="10" x="120" y="270" fill="#caeff9" /><rect width="20" height="10" x="90" y="280" fill="#caeff9" /><rect width="110" height="10" x="120" y="280" fill="#caeff9" /><rect width="20" height="10" x="90" y="290" fill="#caeff9" /><rect width="110" height="10" x="120" y="290" fill="#caeff9" /><rect width="20" height="10" x="90" y="300" fill="#caeff9" /><rect width="110" height="10" x="120" y="300" fill="#caeff9" /><rect width="20" height="10" x="90" y="310" fill="#caeff9" /><rect width="110" height="10" x="120" y="310" fill="#caeff9" /><rect width="10" height="10" x="140" y="240" fill="#235476" /><rect width="10" height="10" x="170" y="240" fill="#235476" /><rect width="10" height="10" x="130" y="250" fill="#caeff9" /><rect width="10" height="10" x="140" y="250" fill="#235476" /><rect width="20" height="10" x="160" y="250" fill="#235476" /><rect width="10" height="10" x="150" y="260" fill="#235476" /><rect width="10" height="10" x="160" y="260" fill="#caeff9" /><rect width="20" height="10" x="170" y="260" fill="#235476" /><rect width="10" height="10" x="190" y="260" fill="#caeff9" /><rect width="20" height="10" x="130" y="270" fill="#235476" /><rect width="10" height="10" x="150" y="270" fill="#000000" /><rect width="20" height="10" x="160" y="270" fill="#235476" /><rect width="10" height="10" x="180" y="270" fill="#caeff9" /><rect width="10" height="10" x="190" y="270" fill="#000000" /><rect width="20" height="10" x="200" y="270" fill="#235476" /><rect width="20" height="10" x="150" y="280" fill="#caeff9" /><rect width="20" height="10" x="170" y="280" fill="#feb9d5" /><rect width="10" height="10" x="190" y="280" fill="#caeff9" /><rect width="10" height="10" x="130" y="20" fill="#f9e8dd" /><rect width="10" height="10" x="150" y="20" fill="#f9e8dd" /><rect width="10" height="10" x="180" y="20" fill="#f9e8dd" /><rect width="20" height="10" x="190" y="20" fill="#efad81" /><rect width="10" height="10" x="110" y="30" fill="#f9e8dd" /><rect width="20" height="10" x="120" y="30" fill="#efad81" /><rect width="10" height="10" x="140" y="30" fill="#f9e8dd" /><rect width="10" height="10" x="160" y="30" fill="#efad81" /><rect width="10" height="10" x="170" y="30" fill="#f9e8dd" /><rect width="20" height="10" x="190" y="30" fill="#f9e8dd" /><rect width="10" height="10" x="80" y="40" fill="#efad81" /><rect width="10" height="10" x="100" y="40" fill="#f9e8dd" /><rect width="10" height="10" x="110" y="40" fill="#efad81" /><rect width="30" height="10" x="120" y="40" fill="#f9e8dd" /><rect width="10" height="10" x="150" y="40" fill="#efad81" /><rect width="10" height="10" x="160" y="40" fill="#f9e8dd" /><rect width="20" height="10" x="170" y="40" fill="#fffdf2" /><rect width="10" height="10" x="190" y="40" fill="#efad81" /><rect width="30" height="10" x="210" y="40" fill="#f9e8dd" /><rect width="10" height="10" x="50" y="50" fill="#fff0be" /><rect width="10" height="10" x="80" y="50" fill="#f9e8dd" /><rect width="10" height="10" x="90" y="50" fill="#efad81" /><rect width="20" height="10" x="100" y="50" fill="#f9e8dd" /><rect width="10" height="10" x="120" y="50" fill="#efad81" /><rect width="10" height="10" x="130" y="50" fill="#f9e8dd" /><rect width="20" height="10" x="140" y="50" fill="#fffdf2" /><rect width="10" height="10" x="160" y="50" fill="#f9e8dd" /><rect width="10" height="10" x="170" y="50" fill="#903707" /><rect width="10" height="10" x="180" y="50" fill="#efad81" /><rect width="10" height="10" x="190" y="50" fill="#903707" /><rect width="10" height="10" x="200" y="50" fill="#f9e8dd" /><rect width="20" height="10" x="210" y="50" fill="#efad81" /><rect width="10" height="10" x="60" y="60" fill="#fff0be" /><rect width="10" height="10" x="80" y="60" fill="#efad81" /><rect width="10" height="10" x="90" y="60" fill="#f9e8dd" /><rect width="10" height="10" x="100" y="60" fill="#fffdf2" /><rect width="10" height="10" x="110" y="60" fill="#f9e8dd" /><rect width="10" height="10" x="120" y="60" fill="#903707" /><rect width="10" height="10" x="130" y="60" fill="#fffdf2" /><rect width="10" height="10" x="140" y="60" fill="#f9e8dd" /><rect width="10" height="10" x="150" y="60" fill="#018146" /><rect width="10" height="10" x="160" y="60" fill="#903707" /><rect width="10" height="10" x="170" y="60" fill="#fffdf2" /><rect width="30" height="10" x="180" y="60" fill="#efad81" /><rect width="10" height="10" x="210" y="60" fill="#fffdf2" /><rect width="10" height="10" x="230" y="60" fill="#f9e8dd" /><rect width="10" height="10" x="70" y="70" fill="#fff0be" /><rect width="10" height="10" x="90" y="70" fill="#fffdf2" /><rect width="20" height="10" x="100" y="70" fill="#f9e8dd" /><rect width="10" height="10" x="120" y="70" fill="#018146" /><rect width="10" height="10" x="130" y="70" fill="#f9e8dd" /><rect width="10" height="10" x="140" y="70" fill="#903707" /><rect width="20" height="10" x="150" y="70" fill="#f9e8dd" /><rect width="10" height="10" x="170" y="70" fill="#efad81" /><rect width="10" height="10" x="180" y="70" fill="#903707" /><rect width="10" height="10" x="190" y="70" fill="#fffdf2" /><rect width="30" height="10" x="200" y="70" fill="#f9e8dd" /><rect width="10" height="10" x="240" y="70" fill="#f9e8dd" /><rect width="10" height="10" x="80" y="80" fill="#fff0be" /><rect width="10" height="10" x="90" y="80" fill="#f9e8dd" /><rect width="20" height="10" x="100" y="80" fill="#903707" /><rect width="10" height="10" x="120" y="80" fill="#f9e8dd" /><rect width="10" height="10" x="130" y="80" fill="#fffdf2" /><rect width="20" height="10" x="140" y="80" fill="#f9e8dd" /><rect width="10" height="10" x="160" y="80" fill="#fffdf2" /><rect width="20" height="10" x="170" y="80" fill="#903707" /><rect width="20" height="10" x="190" y="80" fill="#f9e8dd" /><rect width="20" height="10" x="210" y="80" fill="#fffdf2" /><rect width="10" height="10" x="230" y="80" fill="#018146" /><rect width="10" height="10" x="240" y="80" fill="#f9e8dd" /><rect width="10" height="10" x="80" y="90" fill="#903707" /><rect width="10" height="10" x="90" y="90" fill="#fffdf2" /><rect width="20" height="10" x="100" y="90" fill="#f9e8dd" /><rect width="10" height="10" x="120" y="90" fill="#fffdf2" /><rect width="20" height="10" x="130" y="90" fill="#903707" /><rect width="10" height="10" x="150" y="90" fill="#fffdf2" /><rect width="20" height="10" x="160" y="90" fill="#903707" /><rect width="20" height="10" x="180" y="90" fill="#fffdf2" /><rect width="10" height="10" x="200" y="90" fill="#ae3208" /><rect width="10" height="10" x="210" y="90" fill="#fffdf2" /><rect width="20" height="10" x="220" y="90" fill="#903707" /><rect width="10" height="10" x="240" y="90" fill="#fffdf2" /><rect width="10" height="10" x="70" y="100" fill="#903707" /><rect width="20" height="10" x="80" y="100" fill="#fffdf2" /><rect width="10" height="10" x="100" y="100" fill="#903707" /><rect width="10" height="10" x="110" y="100" fill="#fffdf2" /><rect width="10" height="10" x="120" y="100" fill="#903707" /><rect width="10" height="10" x="130" y="100" fill="#f9e8dd" /><rect width="20" height="10" x="140" y="100" fill="#fffdf2" /><rect width="20" height="10" x="160" y="100" fill="#ae3208" /><rect width="10" height="10" x="180" y="100" fill="#fffdf2" /><rect width="10" height="10" x="190" y="100" fill="#018146" /><rect width="10" height="10" x="200" y="100" fill="#ae3208" /><rect width="10" height="10" x="210" y="100" fill="#fffdf2" /><rect width="10" height="10" x="220" y="100" fill="#ae3208" /><rect width="10" height="10" x="230" y="100" fill="#fffdf2" /><rect width="10" height="10" x="240" y="100" fill="#903707" /><rect width="20" height="10" x="270" y="100" fill="#eff2fa" /><rect width="10" height="10" x="70" y="110" fill="#018146" /><rect width="10" height="10" x="80" y="110" fill="#fffdf2" /><rect width="50" height="10" x="90" y="110" fill="#903707" /><rect width="10" height="10" x="140" y="110" fill="#fffdf2" /><rect width="10" height="10" x="150" y="110" fill="#ae3208" /><rect width="20" height="10" x="160" y="110" fill="#f8d689" /><rect width="20" height="10" x="180" y="110" fill="#fffdf2" /><rect width="20" height="10" x="200" y="110" fill="#f8d689" /><rect width="20" height="10" x="220" y="110" fill="#fffdf2" /><rect width="10" height="10" x="240" y="110" fill="#903707" /><rect width="10" height="10" x="260" y="110" fill="#eff2fa" /><rect width="10" height="10" x="290" y="110" fill="#eff2fa" /><rect width="20" height="10" x="70" y="120" fill="#fffdf2" /><rect width="10" height="10" x="90" y="120" fill="#903707" /><rect width="10" height="10" x="100" y="120" fill="#fffdf2" /><rect width="20" height="10" x="110" y="120" fill="#903707" /><rect width="20" height="10" x="130" y="120" fill="#fffdf2" /><rect width="10" height="10" x="150" y="120" fill="#ae3208" /><rect width="10" height="10" x="160" y="120" fill="#ffd067" /><rect width="20" height="10" x="170" y="120" fill="#f8d689" /><rect width="20" height="10" x="190" y="120" fill="#ffd067" /><rect width="30" height="10" x="210" y="120" fill="#f8d689" /><rect width="10" height="10" x="240" y="120" fill="#ae3208" /><rect width="30" height="10" x="260" y="120" fill="#eff2fa" /><rect width="30" height="10" x="70" y="130" fill="#903707" /><rect width="10" height="10" x="100" y="130" fill="#fffdf2" /><rect width="10" height="10" x="110" y="130" fill="#903707" /><rect width="20" height="10" x="120" y="130" fill="#fffdf2" /><rect width="110" height="10" x="140" y="130" fill="#f8d689" /><rect width="20" height="10" x="70" y="140" fill="#903707" /><rect width="20" height="10" x="90" y="140" fill="#fffdf2" /><rect width="10" height="10" x="110" y="140" fill="#903707" /><rect width="10" height="10" x="120" y="140" fill="#fffdf2" /><rect width="10" height="10" x="130" y="140" fill="#ae3208" /><rect width="20" height="10" x="140" y="140" fill="#f8d689" /><rect width="30" height="10" x="160" y="140" fill="#ffd067" /><rect width="30" height="10" x="190" y="140" fill="#f8d689" /><rect width="30" height="10" x="220" y="140" fill="#ffd067" /><rect width="10" height="10" x="70" y="150" fill="#903707" /><rect width="10" height="10" x="80" y="150" fill="#fffdf2" /><rect width="20" height="10" x="90" y="150" fill="#903707" /><rect width="10" height="10" x="110" y="150" fill="#fffdf2" /><rect width="10" height="10" x="120" y="150" fill="#903707" /><rect width="10" height="10" x="130" y="150" fill="#ae3208" /><rect width="110" height="10" x="140" y="150" fill="#f8d689" /><rect width="40" height="10" x="80" y="160" fill="#fffdf2" /><rect width="10" height="10" x="120" y="160" fill="#ae3208" /><rect width="40" height="10" x="130" y="160" fill="#f8d689" /><rect width="20" height="10" x="170" y="160" fill="#ffd067" /><rect width="50" height="10" x="190" y="160" fill="#f8d689" /><rect width="10" height="10" x="80" y="170" fill="#903707" /><rect width="10" height="10" x="90" y="170" fill="#fffdf2" /><rect width="20" height="10" x="100" y="170" fill="#903707" /><rect width="10" height="10" x="120" y="170" fill="#ae3208" /><rect width="10" height="10" x="130" y="170" fill="#ffd067" /><rect width="10" height="10" x="140" y="170" fill="#903707" /><rect width="10" height="10" x="150" y="170" fill="#ffd067" /><rect width="50" height="10" x="160" y="170" fill="#f8d689" /><rect width="20" height="10" x="210" y="170" fill="#ffd067" /><rect width="10" height="10" x="230" y="170" fill="#f8d689" /><rect width="30" height="10" x="40" y="180" fill="#eff2fa" /><rect width="20" height="10" x="90" y="180" fill="#903707" /><rect width="20" height="10" x="110" y="180" fill="#ae3208" /><rect width="10" height="10" x="130" y="180" fill="#f8d689" /><rect width="50" height="10" x="140" y="180" fill="#903707" /><rect width="40" height="10" x="190" y="180" fill="#f8d689" /><rect width="10" height="10" x="20" y="190" fill="#eff2fa" /><rect width="10" height="10" x="60" y="190" fill="#eff2fa" /><rect width="10" height="10" x="100" y="190" fill="#903707" /><rect width="10" height="10" x="110" y="190" fill="#ae3208" /><rect width="20" height="10" x="120" y="190" fill="#f8d689" /><rect width="10" height="10" x="140" y="190" fill="#903707" /><rect width="30" height="10" x="150" y="190" fill="#f8d689" /><rect width="20" height="10" x="180" y="190" fill="#ffd067" /><rect width="20" height="10" x="200" y="190" fill="#f8d689" /><rect width="30" height="10" x="30" y="200" fill="#eff2fa" /><rect width="20" height="10" x="90" y="200" fill="#903707" /><rect width="10" height="10" x="110" y="200" fill="#ae3208" /><rect width="10" height="10" x="120" y="200" fill="#ffd067" /><rect width="10" height="10" x="130" y="200" fill="#903707" /><rect width="70" height="10" x="140" y="200" fill="#f8d689" /><rect width="30" height="10" x="130" y="210" fill="#f8d689" /><rect width="30" height="10" x="160" y="210" fill="#ffd067" /><rect width="60" height="10" x="100" y="110" fill="#d7d3cd" /><rect width="60" height="10" x="170" y="110" fill="#d7d3cd" /><rect width="10" height="10" x="100" y="120" fill="#d7d3cd" /><rect width="20" height="10" x="110" y="120" fill="#fdf8ff" /><rect width="20" height="10" x="130" y="120" fill="#000000" /><rect width="10" height="10" x="150" y="120" fill="#d7d3cd" /><rect width="10" height="10" x="170" y="120" fill="#d7d3cd" /><rect width="20" height="10" x="180" y="120" fill="#fdf8ff" /><rect width="20" height="10" x="200" y="120" fill="#000000" /><rect width="10" height="10" x="220" y="120" fill="#d7d3cd" /><rect width="40" height="10" x="70" y="130" fill="#d7d3cd" /><rect width="20" height="10" x="110" y="130" fill="#fdf8ff" /><rect width="20" height="10" x="130" y="130" fill="#000000" /><rect width="30" height="10" x="150" y="130" fill="#d7d3cd" /><rect width="20" height="10" x="180" y="130" fill="#fdf8ff" /><rect width="20" height="10" x="200" y="130" fill="#000000" /><rect width="10" height="10" x="220" y="130" fill="#d7d3cd" /><rect width="10" height="10" x="70" y="140" fill="#d7d3cd" /><rect width="10" height="10" x="100" y="140" fill="#d7d3cd" /><rect width="20" height="10" x="110" y="140" fill="#fdf8ff" /><rect width="20" height="10" x="130" y="140" fill="#000000" /><rect width="10" height="10" x="150" y="140" fill="#d7d3cd" /><rect width="10" height="10" x="170" y="140" fill="#d7d3cd" /><rect width="20" height="10" x="180" y="140" fill="#fdf8ff" /><rect width="20" height="10" x="200" y="140" fill="#000000" /><rect width="10" height="10" x="220" y="140" fill="#d7d3cd" /><rect width="10" height="10" x="70" y="150" fill="#d7d3cd" /><rect width="10" height="10" x="100" y="150" fill="#d7d3cd" /><rect width="20" height="10" x="110" y="150" fill="#fdf8ff" /><rect width="20" height="10" x="130" y="150" fill="#000000" /><rect width="10" height="10" x="150" y="150" fill="#d7d3cd" /><rect width="10" height="10" x="170" y="150" fill="#d7d3cd" /><rect width="20" height="10" x="180" y="150" fill="#fdf8ff" /><rect width="20" height="10" x="200" y="150" fill="#000000" /><rect width="10" height="10" x="220" y="150" fill="#d7d3cd" /><rect width="60" height="10" x="100" y="160" fill="#d7d3cd" /><rect width="60" height="10" x="170" y="160" fill="#d7d3cd" /></svg>