<svg viewBox="0 0 320 320" xmlns="http://www.w3.org/2000/svg" shape-rendering="crispEdges"><rect width="100%" height="100%" fill="#d5d7e1" /><rect width="140" height="10" x="90" y="210" fill="#caeff9" /><rect width="140" height="10" x="90" y="220" fill="#caeff9" /><rect width="140" height="10" x="90" y="230" fill="#caeff9" /><rect width="140" height="10" x="90" y="240" fill="#caeff9" /><rect width="20" height="10" x="90" y="250" fill="#caeff9" /><rect width="110" height="10" x="120" y="250" fill="#caeff9" /><rect width="20" height="10" x="90" y="260" fill="#caeff9" /><rect width="110" height="10" x="120" y="260" fill="#caeff9" /><rect width="20" height="10" x="90" y="270" fill="#caeff9" /><rect width="110" height="10" x="120" y="270" fill="#caeff9" /><rect width="20" height="10" x="90" y="280" fill="#caeff9" /><rect width="110" height="10" x="120" y="280" fill="#caeff9" /><rect width="20" height="10" x="90" y="290" fill="#caeff9" /><rect width="110" height="10" x="120" y="290" fill="#caeff9" /><rect width="20" height="10" x="90" y="300" fill="#caeff9" /><rect width="110" height="10" x="120" y="300" fill="#caeff9" /><rect width="20" height="10" x="90" y="310" fill="#caeff9" /><rect width="110" height="10" x="120" y="310" fill="#caeff9" /><rect width="10" height="10" x="100" y="230" fill="#9cb4b8" /><rect width="10" height="10" x="160" y="230" fill="#9cb4b8" /><rect width="10" height="10" x="220" y="230" fill="#9cb4b8" /><rect width="10" height="10" x="90" y="240" fill="#5d6061" /><rect width="10" height="10" x="100" y="240" fill="#eff2fa" /><rect width="50" height="10" x="110" y="240" fill="#5d6061" /><rect width="10" height="10" x="160" y="240" fill="#ec5b43" /><rect width="50" height="10" x="170" y="240" fill="#5d6061" /><rect width="10" height="10" x="220" y="240" fill="#eff2fa" /><rect width="10" height="10" x="90" y="250" fill="#5d6061" /><rect width="10" height="10" x="100" y="250" fill="#eff2fa" /><rect width="40" height="10" x="110" y="250" fill="#5d6061" /><rect width="10" height="10" x="150" y="250" fill="#d9391f" /><rect width="10" height="10" x="160" y="250" fill="#ec5b43" /><rect width="10" height="10" x="170" y="250" fill="#d9391f" /><rect width="40" height="10" x="180" y="250" fill="#5d6061" /><rect width="10" height="10" x="220" y="250" fill="#eff2fa" /><rect width="10" height="10" x="90" y="260" fill="#2b2834" /><rect width="10" height="10" x="100" y="260" fill="#ec5b43" /><rect width="10" height="10" x="120" y="260" fill="#ec5b43" /><rect width="10" height="10" x="130" y="260" fill="#2b2834" /><rect width="10" height="10" x="140" y="260" fill="#ec5b43" /><rect width="10" height="10" x="150" y="260" fill="#2b2834" /><rect width="10" height="10" x="160" y="260" fill="#ec5b43" /><rect width="10" height="10" x="170" y="260" fill="#2b2834" /><rect width="10" height="10" x="180" y="260" fill="#ec5b43" /><rect width="10" height="10" x="190" y="260" fill="#2b2834" /><rect width="10" height="10" x="200" y="260" fill="#d9391f" /><rect width="10" height="10" x="210" y="260" fill="#2b2834" /><rect width="10" height="10" x="220" y="260" fill="#ec5b43" /><rect width="10" height="10" x="90" y="270" fill="#d9391f" /><rect width="10" height="10" x="100" y="270" fill="#ec5b43" /><rect width="10" height="10" x="120" y="270" fill="#ec5b43" /><rect width="10" height="10" x="130" y="270" fill="#d9391f" /><rect width="10" height="10" x="140" y="270" fill="#ec5b43" /><rect width="10" height="10" x="150" y="270" fill="#d9391f" /><rect width="10" height="10" x="160" y="270" fill="#ec5b43" /><rect width="10" height="10" x="170" y="270" fill="#d9391f" /><rect width="10" height="10" x="180" y="270" fill="#ec5b43" /><rect width="30" height="10" x="190" y="270" fill="#d9391f" /><rect width="10" height="10" x="220" y="270" fill="#ec5b43" /><rect width="10" height="10" x="160" y="20" fill="#8bc0c5" /><rect width="10" height="10" x="160" y="30" fill="#99e6de" /><rect width="10" height="10" x="160" y="40" fill="#99e6de" /><rect width="10" height="10" x="150" y="50" fill="#f59b34" /><rect width="10" height="10" x="160" y="50" fill="#f98f30" /><rect width="10" height="10" x="170" y="50" fill="#f59b34" /><rect width="10" height="10" x="140" y="60" fill="#f59b34" /><rect width="10" height="10" x="150" y="60" fill="#f98f30" /><rect width="10" height="10" x="160" y="60" fill="#f59b34" /><rect width="10" height="10" x="170" y="60" fill="#f98f30" /><rect width="10" height="10" x="180" y="60" fill="#f59b34" /><rect width="10" height="10" x="130" y="70" fill="#f59b34" /><rect width="10" height="10" x="140" y="70" fill="#f98f30" /><rect width="10" height="10" x="150" y="70" fill="#f59b34" /><rect width="10" height="10" x="160" y="70" fill="#f98f30" /><rect width="10" height="10" x="170" y="70" fill="#f59b34" /><rect width="10" height="10" x="180" y="70" fill="#f98f30" /><rect width="10" height="10" x="190" y="70" fill="#f59b34" /><rect width="10" height="10" x="110" y="80" fill="#8bc0c5" /><rect width="10" height="10" x="120" y="80" fill="#99e6de" /><rect width="10" height="10" x="130" y="80" fill="#8bc0c5" /><rect width="10" height="10" x="140" y="80" fill="#99e6de" /><rect width="10" height="10" x="150" y="80" fill="#8bc0c5" /><rect width="10" height="10" x="160" y="80" fill="#99e6de" /><rect width="10" height="10" x="170" y="80" fill="#8bc0c5" /><rect width="10" height="10" x="180" y="80" fill="#99e6de" /><rect width="10" height="10" x="190" y="80" fill="#8bc0c5" /><rect width="10" height="10" x="200" y="80" fill="#99e6de" /><rect width="10" height="10" x="210" y="80" fill="#8bc0c5" /><rect width="10" height="10" x="120" y="90" fill="#fa5e20" /><rect width="10" height="10" x="130" y="90" fill="#f78a18" /><rect width="10" height="10" x="140" y="90" fill="#505a5c" /><rect width="10" height="10" x="150" y="90" fill="#f78a18" /><rect width="10" height="10" x="160" y="90" fill="#505a5c" /><rect width="10" height="10" x="170" y="90" fill="#f78a18" /><rect width="10" height="10" x="180" y="90" fill="#505a5c" /><rect width="10" height="10" x="190" y="90" fill="#f78a18" /><rect width="10" height="10" x="200" y="90" fill="#fa5e20" /><rect width="10" height="10" x="120" y="100" fill="#ff7216" /><rect width="10" height="10" x="130" y="100" fill="#f98f30" /><rect width="10" height="10" x="140" y="100" fill="#505a5c" /><rect width="10" height="10" x="150" y="100" fill="#f98f30" /><rect width="10" height="10" x="160" y="100" fill="#505a5c" /><rect width="10" height="10" x="170" y="100" fill="#f98f30" /><rect width="10" height="10" x="180" y="100" fill="#505a5c" /><rect width="10" height="10" x="190" y="100" fill="#f78a18" /><rect width="10" height="10" x="200" y="100" fill="#ff7216" /><rect width="30" height="10" x="100" y="110" fill="#99e6de" /><rect width="10" height="10" x="130" y="110" fill="#8bc0c5" /><rect width="10" height="10" x="140" y="110" fill="#99e6de" /><rect width="10" height="10" x="150" y="110" fill="#8bc0c5" /><rect width="10" height="10" x="160" y="110" fill="#99e6de" /><rect width="10" height="10" x="170" y="110" fill="#8bc0c5" /><rect width="10" height="10" x="180" y="110" fill="#99e6de" /><rect width="10" height="10" x="190" y="110" fill="#8bc0c5" /><rect width="30" height="10" x="200" y="110" fill="#99e6de" /><rect width="10" height="10" x="110" y="120" fill="#f98f30" /><rect width="10" height="10" x="120" y="120" fill="#f78a18" /><rect width="10" height="10" x="130" y="120" fill="#fa5e20" /><rect width="10" height="10" x="140" y="120" fill="#505a5c" /><rect width="10" height="10" x="150" y="120" fill="#fa5e20" /><rect width="10" height="10" x="160" y="120" fill="#505a5c" /><rect width="10" height="10" x="170" y="120" fill="#fa5e20" /><rect width="10" height="10" x="180" y="120" fill="#505a5c" /><rect width="10" height="10" x="190" y="120" fill="#fa5e20" /><rect width="10" height="10" x="200" y="120" fill="#f78a18" /><rect width="10" height="10" x="210" y="120" fill="#f98f30" /><rect width="10" height="10" x="110" y="130" fill="#f78a18" /><rect width="10" height="10" x="120" y="130" fill="#f98f30" /><rect width="10" height="10" x="130" y="130" fill="#ff7216" /><rect width="10" height="10" x="140" y="130" fill="#505a5c" /><rect width="10" height="10" x="150" y="130" fill="#ff7216" /><rect width="10" height="10" x="160" y="130" fill="#505a5c" /><rect width="10" height="10" x="170" y="130" fill="#ff7216" /><rect width="10" height="10" x="180" y="130" fill="#505a5c" /><rect width="10" height="10" x="190" y="130" fill="#ff7216" /><rect width="10" height="10" x="200" y="130" fill="#f98f30" /><rect width="10" height="10" x="210" y="130" fill="#f78a18" /><rect width="10" height="10" x="110" y="140" fill="#f98f30" /><rect width="10" height="10" x="120" y="140" fill="#f78a18" /><rect width="10" height="10" x="130" y="140" fill="#fa5e20" /><rect width="10" height="10" x="140" y="140" fill="#505a5c" /><rect width="10" height="10" x="150" y="140" fill="#fa5e20" /><rect width="10" height="10" x="160" y="140" fill="#505a5c" /><rect width="10" height="10" x="170" y="140" fill="#fa5e20" /><rect width="10" height="10" x="180" y="140" fill="#505a5c" /><rect width="10" height="10" x="190" y="140" fill="#fa5e20" /><rect width="10" height="10" x="200" y="140" fill="#f78a18" /><rect width="10" height="10" x="210" y="140" fill="#f98f30" /><rect width="10" height="10" x="110" y="150" fill="#f78a18" /><rect width="10" height="10" x="120" y="150" fill="#f98f30" /><rect width="10" height="10" x="130" y="150" fill="#ff7216" /><rect width="10" height="10" x="140" y="150" fill="#505a5c" /><rect width="10" height="10" x="150" y="150" fill="#ff7216" /><rect width="10" height="10" x="160" y="150" fill="#505a5c" /><rect width="10" height="10" x="170" y="150" fill="#ff7216" /><rect width="10" height="10" x="180" y="150" fill="#505a5c" /><rect width="10" height="10" x="190" y="150" fill="#ff7216" /><rect width="10" height="10" x="200" y="150" fill="#f98f30" /><rect width="10" height="10" x="210" y="150" fill="#f78a18" /><rect width="10" height="10" x="110" y="160" fill="#f98f30" /><rect width="10" height="10" x="120" y="160" fill="#f78a18" /><rect width="10" height="10" x="130" y="160" fill="#fa5e20" /><rect width="10" height="10" x="140" y="160" fill="#505a5c" /><rect width="10" height="10" x="150" y="160" fill="#fa5e20" /><rect width="10" height="10" x="160" y="160" fill="#505a5c" /><rect width="10" height="10" x="170" y="160" fill="#fa5e20" /><rect width="10" height="10" x="180" y="160" fill="#505a5c" /><rect width="10" height="10" x="190" y="160" fill="#fa5e20" /><rect width="10" height="10" x="200" y="160" fill="#f78a18" /><rect width="10" height="10" x="210" y="160" fill="#f98f30" /><rect width="10" height="10" x="110" y="170" fill="#f78a18" /><rect width="10" height="10" x="120" y="170" fill="#f98f30" /><rect width="10" height="10" x="130" y="170" fill="#ff7216" /><rect width="10" height="10" x="140" y="170" fill="#505a5c" /><rect width="10" height="10" x="150" y="170" fill="#ff7216" /><rect width="10" height="10" x="160" y="170" fill="#505a5c" /><rect width="10" height="10" x="170" y="170" fill="#ff7216" /><rect width="10" height="10" x="180" y="170" fill="#505a5c" /><rect width="10" height="10" x="190" y="170" fill="#ff7216" /><rect width="10" height="10" x="200" y="170" fill="#f98f30" /><rect width="10" height="10" x="210" y="170" fill="#f78a18" /><rect width="10" height="10" x="110" y="180" fill="#f98f30" /><rect width="10" height="10" x="120" y="180" fill="#f78a18" /><rect width="10" height="10" x="130" y="180" fill="#fa5e20" /><rect width="10" height="10" x="140" y="180" fill="#505a5c" /><rect width="10" height="10" x="150" y="180" fill="#fa5e20" /><rect width="10" height="10" x="160" y="180" fill="#505a5c" /><rect width="10" height="10" x="170" y="180" fill="#fa5e20" /><rect width="10" height="10" x="180" y="180" fill="#505a5c" /><rect width="10" height="10" x="190" y="180" fill="#fa5e20" /><rect width="10" height="10" x="200" y="180" fill="#f78a18" /><rect width="10" height="10" x="210" y="180" fill="#f98f30" /><rect width="10" height="10" x="110" y="190" fill="#f78a18" /><rect width="10" height="10" x="120" y="190" fill="#f98f30" /><rect width="10" height="10" x="130" y="190" fill="#ff7216" /><rect width="10" height="10" x="140" y="190" fill="#505a5c" /><rect width="10" height="10" x="150" y="190" fill="#ff7216" /><rect width="10" height="10" x="160" y="190" fill="#505a5c" /><rect width="10" height="10" x="170" y="190" fill="#ff7216" /><rect width="10" height="10" x="180" y="190" fill="#505a5c" /><rect width="10" height="10" x="190" y="190" fill="#ff7216" /><rect width="10" height="10" x="200" y="190" fill="#f98f30" /><rect width="10" height="10" x="210" y="190" fill="#f78a18" /><rect width="10" height="10" x="90" y="200" fill="#99e6de" /><rect width="10" height="10" x="100" y="200" fill="#8bc0c5" /><rect width="10" height="10" x="110" y="200" fill="#99e6de" /><rect width="10" height="10" x="120" y="200" fill="#8bc0c5" /><rect width="10" height="10" x="130" y="200" fill="#99e6de" /><rect width="10" height="10" x="140" y="200" fill="#8bc0c5" /><rect width="10" height="10" x="150" y="200" fill="#99e6de" /><rect width="10" height="10" x="160" y="200" fill="#8bc0c5" /><rect width="10" height="10" x="170" y="200" fill="#99e6de" /><rect width="10" height="10" x="180" y="200" fill="#8bc0c5" /><rect width="10" height="10" x="190" y="200" fill="#99e6de" /><rect width="10" height="10" x="200" y="200" fill="#8bc0c5" /><rect width="10" height="10" x="210" y="200" fill="#99e6de" /><rect width="10" height="10" x="220" y="200" fill="#8bc0c5" /><rect width="60" height="10" x="100" y="110" fill="#5648ed" /><rect width="60" height="10" x="170" y="110" fill="#5648ed" /><rect width="10" height="10" x="100" y="120" fill="#5648ed" /><rect width="20" height="10" x="110" y="120" fill="#ffffff" /><rect width="20" height="10" x="130" y="120" fill="#000000" /><rect width="10" height="10" x="150" y="120" fill="#5648ed" /><rect width="10" height="10" x="170" y="120" fill="#5648ed" /><rect width="20" height="10" x="180" y="120" fill="#ffffff" /><rect width="20" height="10" x="200" y="120" fill="#000000" /><rect width="10" height="10" x="220" y="120" fill="#5648ed" /><rect width="40" height="10" x="70" y="130" fill="#5648ed" /><rect width="20" height="10" x="110" y="130" fill="#ffffff" /><rect width="20" height="10" x="130" y="130" fill="#000000" /><rect width="30" height="10" x="150" y="130" fill="#5648ed" /><rect width="20" height="10" x="180" y="130" fill="#ffffff" /><rect width="20" height="10" x="200" y="130" fill="#000000" /><rect width="10" height="10" x="220" y="130" fill="#5648ed" /><rect width="10" height="10" x="70" y="140" fill="#5648ed" /><rect width="10" height="10" x="100" y="140" fill="#5648ed" /><rect width="20" height="10" x="110" y="140" fill="#ffffff" /><rect width="20" height="10" x="130" y="140" fill="#000000" /><rect width="10" height="10" x="150" y="140" fill="#5648ed" /><rect width="10" height="10" x="170" y="140" fill="#5648ed" /><rect width="20" height="10" x="180" y="140" fill="#ffffff" /><rect width="20" height="10" x="200" y="140" fill="#000000" /><rect width="10" height="10" x="220" y="140" fill="#5648ed" /><rect width="10" height="10" x="70" y="150" fill="#5648ed" /><rect width="10" height="10" x="100" y="150" fill="#5648ed" /><rect width="20" height="10" x="110" y="150" fill="#ffffff" /><rect width="20" height="10" x="130" y="150" fill="#000000" /><rect width="10" height="10" x="150" y="150" fill="#5648ed" /><rect width="10" height="10" x="170" y="150" fill="#5648ed" /><rect width="20" height="10" x="180" y="150" fill="#ffffff" /><rect width="20" height="10" x="200" y="150" fill="#000000" /><rect width="10" height="10" x="220" y="150" fill="#5648ed" /><rect width="60" height="10" x="100" y="160" fill="#5648ed" /><rect width="60" height="10" x="170" y="160" fill="#5648ed" /></svg>