<svg viewBox="0 0 320 320" xmlns="http://www.w3.org/2000/svg" shape-rendering="crispEdges"><rect width="100%" height="100%" fill="#d5d7e1" /><rect width="140" height="10" x="90" y="210" fill="#cfc2ab" /><rect width="140" height="10" x="90" y="220" fill="#cfc2ab" /><rect width="140" height="10" x="90" y="230" fill="#cfc2ab" /><rect width="140" height="10" x="90" y="240" fill="#cfc2ab" /><rect width="20" height="10" x="90" y="250" fill="#cfc2ab" /><rect width="110" height="10" x="120" y="250" fill="#cfc2ab" /><rect width="20" height="10" x="90" y="260" fill="#cfc2ab" /><rect width="110" height="10" x="120" y="260" fill="#cfc2ab" /><rect width="20" height="10" x="90" y="270" fill="#cfc2ab" /><rect width="110" height="10" x="120" y="270" fill="#cfc2ab" /><rect width="20" height="10" x="90" y="280" fill="#cfc2ab" /><rect width="110" height="10" x="120" y="280" fill="#cfc2ab" /><rect width="20" height="10" x="90" y="290" fill="#cfc2ab" /><rect width="110" height="10" x="120" y="290" fill="#cfc2ab" /><rect width="20" height="10" x="90" y="300" fill="#cfc2ab" /><rect width="110" height="10" x="120" y="300" fill="#cfc2ab" /><rect width="20" height="10" x="90" y="310" fill="#cfc2ab" /><rect width="110" height="10" x="120" y="310" fill="#cfc2ab" /><rect width="30" height="10" x="90" y="210" fill="#00499c" /><rect width="40" height="10" x="120" y="210" fill="#1e3445" /><rect width="40" height="10" x="170" y="210" fill="#1e3445" /><rect width="20" height="10" x="210" y="210" fill="#00499c" /><rect width="40" height="10" x="90" y="220" fill="#00499c" /><rect width="30" height="10" x="130" y="220" fill="#1e3445" /><rect width="10" height="10" x="160" y="220" fill="#ffffff" /><rect width="30" height="10" x="170" y="220" fill="#1e3445" /><rect width="30" height="10" x="200" y="220" fill="#00499c" /><rect width="50" height="10" x="90" y="230" fill="#00499c" /><rect width="10" height="10" x="140" y="230" fill="#1e3445" /><rect width="30" height="10" x="150" y="230" fill="#00499c" /><rect width="10" height="10" x="180" y="230" fill="#1e3445" /><rect width="40" height="10" x="190" y="230" fill="#00499c" /><rect width="140" height="10" x="90" y="240" fill="#00499c" /><rect width="70" height="10" x="90" y="250" fill="#00499c" /><rect width="10" height="10" x="160" y="250" fill="#ffffff" /><rect width="60" height="10" x="170" y="250" fill="#00499c" /><rect width="100" height="10" x="90" y="260" fill="#00499c" /><rect width="10" height="10" x="190" y="260" fill="#1e3445" /><rect width="10" height="10" x="200" y="260" fill="#ffffff" /><rect width="10" height="10" x="210" y="260" fill="#1e3445" /><rect width="10" height="10" x="220" y="260" fill="#00499c" /><rect width="20" height="10" x="90" y="270" fill="#00499c" /><rect width="70" height="10" x="120" y="270" fill="#00499c" /><rect width="30" height="10" x="190" y="270" fill="#1e3445" /><rect width="10" height="10" x="220" y="270" fill="#00499c" /><rect width="20" height="10" x="90" y="280" fill="#00499c" /><rect width="40" height="10" x="120" y="280" fill="#00499c" /><rect width="10" height="10" x="160" y="280" fill="#ffffff" /><rect width="20" height="10" x="170" y="280" fill="#00499c" /><rect width="30" height="10" x="190" y="280" fill="#1e3445" /><rect width="10" height="10" x="220" y="280" fill="#00499c" /><rect width="20" height="10" x="90" y="290" fill="#00499c" /><rect width="80" height="10" x="120" y="290" fill="#00499c" /><rect width="10" height="10" x="200" y="290" fill="#1e3445" /><rect width="20" height="10" x="210" y="290" fill="#00499c" /><rect width="20" height="10" x="90" y="300" fill="#00499c" /><rect width="110" height="10" x="120" y="300" fill="#00499c" /><rect width="20" height="10" x="90" y="310" fill="#00499c" /><rect width="40" height="10" x="120" y="310" fill="#00499c" /><rect width="10" height="10" x="160" y="310" fill="#ffffff" /><rect width="60" height="10" x="170" y="310" fill="#00499c" /><rect width="20" height="10" x="70" y="20" fill="#4b4949" /><rect width="30" height="10" x="60" y="30" fill="#4b4949" /><rect width="40" height="10" x="50" y="40" fill="#4b4949" /><rect width="30" height="10" x="50" y="50" fill="#4b4949" /><rect width="20" height="10" x="80" y="50" fill="#ffffff" /><rect width="40" height="10" x="100" y="50" fill="#4b4949" /><rect width="40" height="10" x="190" y="50" fill="#4b4949" /><rect width="10" height="10" x="80" y="60" fill="#ffffff" /><rect width="60" height="10" x="90" y="60" fill="#4b4949" /><rect width="30" height="10" x="150" y="60" fill="#a19c9a" /><rect width="60" height="10" x="180" y="60" fill="#4b4949" /><rect width="10" height="10" x="70" y="70" fill="#a19c9a" /><rect width="80" height="10" x="80" y="70" fill="#4b4949" /><rect width="10" height="10" x="160" y="70" fill="#a19c9a" /><rect width="80" height="10" x="170" y="70" fill="#4b4949" /><rect width="20" height="10" x="60" y="80" fill="#a19c9a" /><rect width="50" height="10" x="80" y="80" fill="#4b4949" /><rect width="30" height="10" x="130" y="80" fill="#ffffff" /><rect width="10" height="10" x="160" y="80" fill="#ff82ad" /><rect width="30" height="10" x="170" y="80" fill="#ffffff" /><rect width="50" height="10" x="200" y="80" fill="#4b4949" /><rect width="10" height="10" x="60" y="90" fill="#a19c9a" /><rect width="10" height="10" x="70" y="90" fill="#ffffff" /><rect width="40" height="10" x="80" y="90" fill="#4b4949" /><rect width="30" height="10" x="120" y="90" fill="#ffffff" /><rect width="30" height="10" x="150" y="90" fill="#ff82ad" /><rect width="30" height="10" x="180" y="90" fill="#ffffff" /><rect width="40" height="10" x="210" y="90" fill="#4b4949" /><rect width="20" height="10" x="60" y="100" fill="#ffffff" /><rect width="40" height="10" x="80" y="100" fill="#4b4949" /><rect width="30" height="10" x="120" y="100" fill="#ffffff" /><rect width="10" height="10" x="150" y="100" fill="#068940" /><rect width="10" height="10" x="160" y="100" fill="#ff82ad" /><rect width="10" height="10" x="170" y="100" fill="#068940" /><rect width="30" height="10" x="180" y="100" fill="#ffffff" /><rect width="40" height="10" x="210" y="100" fill="#4b4949" /><rect width="20" height="10" x="60" y="110" fill="#ffffff" /><rect width="30" height="10" x="80" y="110" fill="#4b4949" /><rect width="110" height="10" x="110" y="110" fill="#fff0be" /><rect width="30" height="10" x="220" y="110" fill="#4b4949" /><rect width="20" height="10" x="60" y="120" fill="#a19c9a" /><rect width="30" height="10" x="80" y="120" fill="#4b4949" /><rect width="110" height="10" x="110" y="120" fill="#fff0be" /><rect width="30" height="10" x="220" y="120" fill="#4b4949" /><rect width="10" height="10" x="60" y="130" fill="#a19c9a" /><rect width="10" height="10" x="70" y="130" fill="#fff0be" /><rect width="30" height="10" x="80" y="130" fill="#4b4949" /><rect width="110" height="10" x="110" y="130" fill="#fff0be" /><rect width="30" height="10" x="220" y="130" fill="#4b4949" /><rect width="180" height="10" x="60" y="140" fill="#fff0be" /><rect width="180" height="10" x="60" y="150" fill="#fff0be" /><rect width="180" height="10" x="60" y="160" fill="#fff0be" /><rect width="10" height="10" x="70" y="170" fill="#a19c9a" /><rect width="160" height="10" x="80" y="170" fill="#fff0be" /><rect width="50" height="10" x="80" y="180" fill="#fff0be" /><rect width="40" height="10" x="130" y="180" fill="#4b4949" /><rect width="70" height="10" x="170" y="180" fill="#fff0be" /><rect width="160" height="10" x="80" y="190" fill="#fff0be" /><rect width="140" height="10" x="90" y="200" fill="#fff0be" /><rect width="60" height="10" x="100" y="110" fill="#000000" /><rect width="60" height="10" x="170" y="110" fill="#000000" /><rect width="10" height="10" x="100" y="120" fill="#000000" /><rect width="20" height="10" x="110" y="120" fill="#ffffff" /><rect width="20" height="10" x="130" y="120" fill="#ff0e0e" /><rect width="10" height="10" x="150" y="120" fill="#000000" /><rect width="10" height="10" x="170" y="120" fill="#000000" /><rect width="20" height="10" x="180" y="120" fill="#ffffff" /><rect width="20" height="10" x="200" y="120" fill="#ff0e0e" /><rect width="10" height="10" x="220" y="120" fill="#000000" /><rect width="40" height="10" x="70" y="130" fill="#000000" /><rect width="20" height="10" x="110" y="130" fill="#ffffff" /><rect width="20" height="10" x="130" y="130" fill="#ff0e0e" /><rect width="30" height="10" x="150" y="130" fill="#000000" /><rect width="20" height="10" x="180" y="130" fill="#ffffff" /><rect width="20" height="10" x="200" y="130" fill="#ff0e0e" /><rect width="10" height="10" x="220" y="130" fill="#000000" /><rect width="10" height="10" x="70" y="140" fill="#000000" /><rect width="10" height="10" x="100" y="140" fill="#000000" /><rect width="20" height="10" x="110" y="140" fill="#ffffff" /><rect width="20" height="10" x="130" y="140" fill="#ff0e0e" /><rect width="10" height="10" x="150" y="140" fill="#000000" /><rect width="10" height="10" x="170" y="140" fill="#000000" /><rect width="20" height="10" x="180" y="140" fill="#ffffff" /><rect width="20" height="10" x="200" y="140" fill="#ff0e0e" /><rect width="10" height="10" x="220" y="140" fill="#000000" /><rect width="10" height="10" x="70" y="150" fill="#000000" /><rect width="10" height="10" x="100" y="150" fill="#000000" /><rect width="20" height="10" x="110" y="150" fill="#ffffff" /><rect width="20" height="10" x="130" y="150" fill="#ff0e0e" /><rect width="10" height="10" x="150" y="150" fill="#000000" /><rect width="10" height="10" x="170" y="150" fill="#000000" /><rect width="20" height="10" x="180" y="150" fill="#ffffff" /><rect width="20" height="10" x="200" y="150" fill="#ff0e0e" /><rect width="10" height="10" x="220" y="150" fill="#000000" /><rect width="60" height="10" x="100" y="160" fill="#000000" /><rect width="60" height="10" x="170" y="160" fill="#000000" /></svg>