<svg viewBox="0 0 320 320" xmlns="http://www.w3.org/2000/svg" shape-rendering="crispEdges"><rect width="100%" height="100%" fill="#d5d7e1" /><rect width="140" height="10" x="90" y="210" fill="#5648ed" /><rect width="140" height="10" x="90" y="220" fill="#5648ed" /><rect width="140" height="10" x="90" y="230" fill="#5648ed" /><rect width="140" height="10" x="90" y="240" fill="#5648ed" /><rect width="20" height="10" x="90" y="250" fill="#5648ed" /><rect width="110" height="10" x="120" y="250" fill="#5648ed" /><rect width="20" height="10" x="90" y="260" fill="#5648ed" /><rect width="110" height="10" x="120" y="260" fill="#5648ed" /><rect width="20" height="10" x="90" y="270" fill="#5648ed" /><rect width="110" height="10" x="120" y="270" fill="#5648ed" /><rect width="20" height="10" x="90" y="280" fill="#5648ed" /><rect width="110" height="10" x="120" y="280" fill="#5648ed" /><rect width="20" height="10" x="90" y="290" fill="#5648ed" /><rect width="110" height="10" x="120" y="290" fill="#5648ed" /><rect width="20" height="10" x="90" y="300" fill="#5648ed" /><rect width="110" height="10" x="120" y="300" fill="#5648ed" /><rect width="20" height="10" x="90" y="310" fill="#5648ed" /><rect width="110" height="10" x="120" y="310" fill="#5648ed" /><rect width="10" height="10" x="100" y="250" fill="#eff2fa" /><rect width="10" height="10" x="130" y="250" fill="#235476" /><rect width="10" height="10" x="140" y="250" fill="#eff2fa" /><rect width="20" height="10" x="180" y="250" fill="#eff2fa" /><rect width="10" height="10" x="200" y="250" fill="#235476" /><rect width="10" height="10" x="220" y="250" fill="#eff2fa" /><rect width="20" height="10" x="90" y="260" fill="#eff2fa" /><rect width="10" height="10" x="120" y="260" fill="#eff2fa" /><rect width="10" height="10" x="130" y="260" fill="#235476" /><rect width="20" height="10" x="140" y="260" fill="#eff2fa" /><rect width="10" height="10" x="160" y="260" fill="#235476" /><rect width="20" height="10" x="170" y="260" fill="#eff2fa" /><rect width="10" height="10" x="190" y="260" fill="#235476" /><rect width="20" height="10" x="200" y="260" fill="#eff2fa" /><rect width="10" height="10" x="220" y="260" fill="#235476" /><rect width="10" height="10" x="90" y="270" fill="#eff2fa" /><rect width="10" height="10" x="100" y="270" fill="#235476" /><rect width="10" height="10" x="120" y="270" fill="#235476" /><rect width="20" height="10" x="130" y="270" fill="#eff2fa" /><rect width="10" height="10" x="150" y="270" fill="#235476" /><rect width="20" height="10" x="160" y="270" fill="#eff2fa" /><rect width="10" height="10" x="180" y="270" fill="#235476" /><rect width="10" height="10" x="190" y="270" fill="#eff2fa" /><rect width="20" height="10" x="200" y="270" fill="#235476" /><rect width="10" height="10" x="220" y="270" fill="#eff2fa" /><rect width="10" height="10" x="90" y="280" fill="#235476" /><rect width="10" height="10" x="100" y="280" fill="#eff2fa" /><rect width="40" height="10" x="120" y="280" fill="#235476" /><rect width="10" height="10" x="160" y="280" fill="#eff2fa" /><rect width="20" height="10" x="170" y="280" fill="#235476" /><rect width="20" height="10" x="190" y="280" fill="#eff2fa" /><rect width="20" height="10" x="210" y="280" fill="#235476" /><rect width="40" height="10" x="200" y="30" fill="#eff2fa" /><rect width="70" height="10" x="190" y="40" fill="#eff2fa" /><rect width="40" height="10" x="190" y="50" fill="#eff2fa" /><rect width="20" height="10" x="230" y="50" fill="#1f1d29" /><rect width="10" height="10" x="250" y="50" fill="#eff2fa" /><rect width="10" height="10" x="260" y="50" fill="#1f1d29" /><rect width="10" height="10" x="80" y="60" fill="#068940" /><rect width="70" height="10" x="190" y="60" fill="#eff2fa" /><rect width="20" height="10" x="260" y="60" fill="#1f1d29" /><rect width="10" height="10" x="70" y="70" fill="#018146" /><rect width="10" height="10" x="80" y="70" fill="#068940" /><rect width="10" height="10" x="90" y="70" fill="#018146" /><rect width="70" height="10" x="180" y="70" fill="#eff2fa" /><rect width="10" height="10" x="70" y="80" fill="#018146" /><rect width="10" height="10" x="80" y="80" fill="#7d635e" /><rect width="10" height="10" x="90" y="80" fill="#018146" /><rect width="10" height="10" x="100" y="80" fill="#068940" /><rect width="90" height="10" x="150" y="80" fill="#eff2fa" /><rect width="10" height="10" x="20" y="90" fill="#eff2fa" /><rect width="10" height="10" x="80" y="90" fill="#7d635e" /><rect width="10" height="10" x="90" y="90" fill="#018146" /><rect width="10" height="10" x="100" y="90" fill="#068940" /><rect width="120" height="10" x="130" y="90" fill="#eff2fa" /><rect width="10" height="10" x="30" y="100" fill="#1f1d29" /><rect width="10" height="10" x="40" y="100" fill="#eff2fa" /><rect width="10" height="10" x="70" y="100" fill="#068940" /><rect width="10" height="10" x="80" y="100" fill="#018146" /><rect width="10" height="10" x="90" y="100" fill="#7d635e" /><rect width="160" height="10" x="100" y="100" fill="#eff2fa" /><rect width="10" height="10" x="30" y="110" fill="#eff2fa" /><rect width="20" height="10" x="40" y="110" fill="#1f1d29" /><rect width="210" height="10" x="60" y="110" fill="#eff2fa" /><rect width="230" height="10" x="40" y="120" fill="#eff2fa" /><rect width="230" height="10" x="40" y="130" fill="#eff2fa" /><rect width="220" height="10" x="50" y="140" fill="#eff2fa" /><rect width="210" height="10" x="50" y="150" fill="#eff2fa" /><rect width="10" height="10" x="260" y="150" fill="#018146" /><rect width="10" height="10" x="280" y="150" fill="#018146" /><rect width="10" height="10" x="30" y="160" fill="#018146" /><rect width="190" height="10" x="60" y="160" fill="#eff2fa" /><rect width="10" height="10" x="260" y="160" fill="#018146" /><rect width="10" height="10" x="270" y="160" fill="#068940" /><rect width="10" height="10" x="280" y="160" fill="#018146" /><rect width="10" height="10" x="30" y="170" fill="#018146" /><rect width="10" height="10" x="40" y="170" fill="#068940" /><rect width="170" height="10" x="70" y="170" fill="#eff2fa" /><rect width="10" height="10" x="250" y="170" fill="#068940" /><rect width="10" height="10" x="260" y="170" fill="#018146" /><rect width="10" height="10" x="270" y="170" fill="#7d635e" /><rect width="10" height="10" x="20" y="180" fill="#018146" /><rect width="10" height="10" x="30" y="180" fill="#7d635e" /><rect width="10" height="10" x="40" y="180" fill="#068940" /><rect width="10" height="10" x="50" y="180" fill="#018146" /><rect width="60" height="10" x="90" y="180" fill="#eff2fa" /><rect width="30" height="10" x="150" y="180" fill="#1f1d29" /><rect width="50" height="10" x="180" y="180" fill="#eff2fa" /><rect width="10" height="10" x="240" y="180" fill="#018146" /><rect width="10" height="10" x="250" y="180" fill="#068940" /><rect width="10" height="10" x="260" y="180" fill="#7d635e" /><rect width="20" height="10" x="270" y="180" fill="#018146" /><rect width="10" height="10" x="40" y="190" fill="#7d635e" /><rect width="10" height="10" x="50" y="190" fill="#018146" /><rect width="10" height="10" x="60" y="190" fill="#068940" /><rect width="100" height="10" x="100" y="190" fill="#eff2fa" /><rect width="10" height="10" x="240" y="190" fill="#018146" /><rect width="10" height="10" x="250" y="190" fill="#7d635e" /><rect width="20" height="10" x="30" y="200" fill="#018146" /><rect width="10" height="10" x="50" y="200" fill="#7d635e" /><rect width="10" height="10" x="60" y="200" fill="#068940" /><rect width="20" height="10" x="100" y="200" fill="#eff2fa" /><rect width="20" height="10" x="160" y="200" fill="#eff2fa" /><rect width="10" height="10" x="230" y="200" fill="#068940" /><rect width="10" height="10" x="240" y="200" fill="#7d635e" /><rect width="20" height="10" x="250" y="200" fill="#018146" /><rect width="10" height="10" x="50" y="210" fill="#068940" /><rect width="30" height="10" x="60" y="210" fill="#7d635e" /><rect width="20" height="10" x="100" y="210" fill="#eff2fa" /><rect width="10" height="10" x="120" y="210" fill="#1f1d29" /><rect width="20" height="10" x="160" y="210" fill="#eff2fa" /><rect width="10" height="10" x="180" y="210" fill="#1f1d29" /><rect width="20" height="10" x="220" y="210" fill="#7d635e" /><rect width="10" height="10" x="240" y="210" fill="#068940" /><rect width="60" height="10" x="100" y="110" fill="#e8705b" /><rect width="60" height="10" x="170" y="110" fill="#e8705b" /><rect width="10" height="10" x="100" y="120" fill="#e8705b" /><rect width="20" height="10" x="110" y="120" fill="#ffffff" /><rect width="20" height="10" x="130" y="120" fill="#000000" /><rect width="10" height="10" x="150" y="120" fill="#e8705b" /><rect width="10" height="10" x="170" y="120" fill="#e8705b" /><rect width="20" height="10" x="180" y="120" fill="#ffffff" /><rect width="20" height="10" x="200" y="120" fill="#000000" /><rect width="10" height="10" x="220" y="120" fill="#e8705b" /><rect width="40" height="10" x="70" y="130" fill="#e8705b" /><rect width="20" height="10" x="110" y="130" fill="#ffffff" /><rect width="20" height="10" x="130" y="130" fill="#000000" /><rect width="30" height="10" x="150" y="130" fill="#e8705b" /><rect width="20" height="10" x="180" y="130" fill="#ffffff" /><rect width="20" height="10" x="200" y="130" fill="#000000" /><rect width="10" height="10" x="220" y="130" fill="#e8705b" /><rect width="10" height="10" x="70" y="140" fill="#e8705b" /><rect width="10" height="10" x="100" y="140" fill="#e8705b" /><rect width="20" height="10" x="110" y="140" fill="#ffffff" /><rect width="20" height="10" x="130" y="140" fill="#000000" /><rect width="10" height="10" x="150" y="140" fill="#e8705b" /><rect width="10" height="10" x="170" y="140" fill="#e8705b" /><rect width="20" height="10" x="180" y="140" fill="#ffffff" /><rect width="20" height="10" x="200" y="140" fill="#000000" /><rect width="10" height="10" x="220" y="140" fill="#e8705b" /><rect width="10" height="10" x="70" y="150" fill="#e8705b" /><rect width="10" height="10" x="100" y="150" fill="#e8705b" /><rect width="20" height="10" x="110" y="150" fill="#ffffff" /><rect width="20" height="10" x="130" y="150" fill="#000000" /><rect width="10" height="10" x="150" y="150" fill="#e8705b" /><rect width="10" height="10" x="170" y="150" fill="#e8705b" /><rect width="20" height="10" x="180" y="150" fill="#ffffff" /><rect width="20" height="10" x="200" y="150" fill="#000000" /><rect width="10" height="10" x="220" y="150" fill="#e8705b" /><rect width="60" height="10" x="100" y="160" fill="#e8705b" /><rect width="60" height="10" x="170" y="160" fill="#e8705b" /></svg>