<svg viewBox="0 0 320 320" xmlns="http://www.w3.org/2000/svg" shape-rendering="crispEdges"><rect width="100%" height="100%" fill="#e1d7d5" /><rect width="140" height="10" x="90" y="210" fill="#cfc2ab" /><rect width="140" height="10" x="90" y="220" fill="#cfc2ab" /><rect width="140" height="10" x="90" y="230" fill="#cfc2ab" /><rect width="140" height="10" x="90" y="240" fill="#cfc2ab" /><rect width="20" height="10" x="90" y="250" fill="#cfc2ab" /><rect width="110" height="10" x="120" y="250" fill="#cfc2ab" /><rect width="20" height="10" x="90" y="260" fill="#cfc2ab" /><rect width="110" height="10" x="120" y="260" fill="#cfc2ab" /><rect width="20" height="10" x="90" y="270" fill="#cfc2ab" /><rect width="110" height="10" x="120" y="270" fill="#cfc2ab" /><rect width="20" height="10" x="90" y="280" fill="#cfc2ab" /><rect width="110" height="10" x="120" y="280" fill="#cfc2ab" /><rect width="20" height="10" x="90" y="290" fill="#cfc2ab" /><rect width="110" height="10" x="120" y="290" fill="#cfc2ab" /><rect width="20" height="10" x="90" y="300" fill="#cfc2ab" /><rect width="110" height="10" x="120" y="300" fill="#cfc2ab" /><rect width="20" height="10" x="90" y="310" fill="#cfc2ab" /><rect width="110" height="10" x="120" y="310" fill="#cfc2ab" /><rect width="10" height="10" x="200" y="230" fill="#f83001" /><rect width="20" height="10" x="180" y="240" fill="#ffffff" /><rect width="10" height="10" x="160" y="250" fill="#ffffff" /><rect width="10" height="10" x="170" y="250" fill="#f9e8dd" /><rect width="20" height="10" x="180" y="250" fill="#ffffff" /><rect width="10" height="10" x="150" y="260" fill="#ffffff" /><rect width="10" height="10" x="150" y="270" fill="#f9e8dd" /><rect width="30" height="10" x="160" y="270" fill="#ffffff" /><rect width="10" height="10" x="190" y="280" fill="#ffffff" /><rect width="20" height="10" x="140" y="290" fill="#ffffff" /><rect width="10" height="10" x="190" y="290" fill="#f9e8dd" /><rect width="10" height="10" x="160" y="300" fill="#f9e8dd" /><rect width="20" height="10" x="170" y="300" fill="#ffffff" /><rect width="50" height="10" x="140" y="90" fill="#cd916d" /><rect width="40" height="10" x="110" y="100" fill="#cd916d" /><rect width="10" height="10" x="150" y="100" fill="#fdf8ff" /><rect width="60" height="10" x="160" y="100" fill="#cd916d" /><rect width="100" height="10" x="100" y="110" fill="#cd916d" /><rect width="20" height="10" x="200" y="110" fill="#fdf8ff" /><rect width="10" height="10" x="220" y="110" fill="#cd916d" /><rect width="10" height="10" x="30" y="120" fill="#903707" /><rect width="150" height="10" x="70" y="120" fill="#cd916d" /><rect width="10" height="10" x="220" y="120" fill="#fdf8ff" /><rect width="30" height="10" x="230" y="120" fill="#cd916d" /><rect width="10" height="10" x="290" y="120" fill="#903707" /><rect width="20" height="10" x="20" y="130" fill="#903707" /><rect width="20" height="10" x="60" y="130" fill="#cd916d" /><rect width="20" height="10" x="80" y="130" fill="#fdf8ff" /><rect width="170" height="10" x="100" y="130" fill="#cd916d" /><rect width="20" height="10" x="290" y="130" fill="#903707" /><rect width="30" height="10" x="20" y="140" fill="#903707" /><rect width="20" height="10" x="50" y="140" fill="#cd916d" /><rect width="10" height="10" x="70" y="140" fill="#fdf8ff" /><rect width="60" height="10" x="80" y="140" fill="#cd916d" /><rect width="10" height="10" x="140" y="140" fill="#000000" /><rect width="30" height="10" x="150" y="140" fill="#cd916d" /><rect width="10" height="10" x="180" y="140" fill="#000000" /><rect width="90" height="10" x="190" y="140" fill="#cd916d" /><rect width="30" height="10" x="280" y="140" fill="#903707" /><rect width="20" height="10" x="20" y="150" fill="#903707" /><rect width="20" height="10" x="40" y="150" fill="#cd916d" /><rect width="10" height="10" x="60" y="150" fill="#fdf8ff" /><rect width="170" height="10" x="70" y="150" fill="#cd916d" /><rect width="10" height="10" x="240" y="150" fill="#fdf8ff" /><rect width="40" height="10" x="250" y="150" fill="#cd916d" /><rect width="20" height="10" x="290" y="150" fill="#903707" /><rect width="10" height="10" x="30" y="160" fill="#903707" /><rect width="90" height="10" x="40" y="160" fill="#cd916d" /><rect width="70" height="10" x="130" y="160" fill="#b9185c" /><rect width="40" height="10" x="200" y="160" fill="#cd916d" /><rect width="10" height="10" x="240" y="160" fill="#fdf8ff" /><rect width="40" height="10" x="250" y="160" fill="#cd916d" /><rect width="10" height="10" x="290" y="160" fill="#903707" /><rect width="20" height="10" x="40" y="170" fill="#cd916d" /><rect width="10" height="10" x="60" y="170" fill="#fdf8ff" /><rect width="30" height="10" x="70" y="170" fill="#cd916d" /><rect width="130" height="10" x="100" y="170" fill="#b9185c" /><rect width="60" height="10" x="230" y="170" fill="#cd916d" /><rect width="40" height="10" x="50" y="180" fill="#cd916d" /><rect width="10" height="10" x="90" y="180" fill="#b9185c" /><rect width="30" height="10" x="100" y="180" fill="#feb9d5" /><rect width="10" height="10" x="130" y="180" fill="#fdf8ff" /><rect width="50" height="10" x="140" y="180" fill="#feb9d5" /><rect width="10" height="10" x="190" y="180" fill="#fdf8ff" /><rect width="30" height="10" x="200" y="180" fill="#feb9d5" /><rect width="10" height="10" x="230" y="180" fill="#b9185c" /><rect width="40" height="10" x="240" y="180" fill="#cd916d" /><rect width="20" height="10" x="60" y="190" fill="#cd916d" /><rect width="10" height="10" x="80" y="190" fill="#b9185c" /><rect width="10" height="10" x="90" y="190" fill="#fdf8ff" /><rect width="130" height="10" x="100" y="190" fill="#feb9d5" /><rect width="10" height="10" x="230" y="190" fill="#fdf8ff" /><rect width="10" height="10" x="240" y="190" fill="#b9185c" /><rect width="20" height="10" x="250" y="190" fill="#cd916d" /><rect width="10" height="10" x="60" y="200" fill="#cd916d" /><rect width="10" height="10" x="70" y="200" fill="#b9185c" /><rect width="10" height="10" x="80" y="200" fill="#cd916d" /><rect width="20" height="10" x="90" y="200" fill="#b9185c" /><rect width="10" height="10" x="110" y="200" fill="#fdf8ff" /><rect width="10" height="10" x="120" y="200" fill="#feb9d5" /><rect width="10" height="10" x="130" y="200" fill="#fdf8ff" /><rect width="10" height="10" x="140" y="200" fill="#feb9d5" /><rect width="10" height="10" x="150" y="200" fill="#fdf8ff" /><rect width="10" height="10" x="160" y="200" fill="#feb9d5" /><rect width="10" height="10" x="170" y="200" fill="#fdf8ff" /><rect width="10" height="10" x="180" y="200" fill="#feb9d5" /><rect width="10" height="10" x="190" y="200" fill="#fdf8ff" /><rect width="10" height="10" x="200" y="200" fill="#feb9d5" /><rect width="10" height="10" x="210" y="200" fill="#fdf8ff" /><rect width="20" height="10" x="220" y="200" fill="#b9185c" /><rect width="10" height="10" x="240" y="200" fill="#cd916d" /><rect width="10" height="10" x="250" y="200" fill="#b9185c" /><rect width="110" height="10" x="110" y="210" fill="#b9185c" /><rect width="60" height="10" x="100" y="110" fill="#4bea69" /><rect width="60" height="10" x="170" y="110" fill="#4bea69" /><rect width="10" height="10" x="100" y="120" fill="#4bea69" /><rect width="20" height="10" x="110" y="120" fill="#ffffff" /><rect width="20" height="10" x="130" y="120" fill="#000000" /><rect width="10" height="10" x="150" y="120" fill="#4bea69" /><rect width="10" height="10" x="170" y="120" fill="#4bea69" /><rect width="20" height="10" x="180" y="120" fill="#ffffff" /><rect width="20" height="10" x="200" y="120" fill="#000000" /><rect width="10" height="10" x="220" y="120" fill="#4bea69" /><rect width="40" height="10" x="70" y="130" fill="#4bea69" /><rect width="20" height="10" x="110" y="130" fill="#ffffff" /><rect width="20" height="10" x="130" y="130" fill="#000000" /><rect width="30" height="10" x="150" y="130" fill="#4bea69" /><rect width="20" height="10" x="180" y="130" fill="#ffffff" /><rect width="20" height="10" x="200" y="130" fill="#000000" /><rect width="10" height="10" x="220" y="130" fill="#4bea69" /><rect width="10" height="10" x="70" y="140" fill="#4bea69" /><rect width="10" height="10" x="100" y="140" fill="#4bea69" /><rect width="20" height="10" x="110" y="140" fill="#ffffff" /><rect width="20" height="10" x="130" y="140" fill="#000000" /><rect width="10" height="10" x="150" y="140" fill="#4bea69" /><rect width="10" height="10" x="170" y="140" fill="#4bea69" /><rect width="20" height="10" x="180" y="140" fill="#ffffff" /><rect width="20" height="10" x="200" y="140" fill="#000000" /><rect width="10" height="10" x="220" y="140" fill="#4bea69" /><rect width="10" height="10" x="70" y="150" fill="#4bea69" /><rect width="10" height="10" x="100" y="150" fill="#4bea69" /><rect width="20" height="10" x="110" y="150" fill="#ffffff" /><rect width="20" height="10" x="130" y="150" fill="#000000" /><rect width="10" height="10" x="150" y="150" fill="#4bea69" /><rect width="10" height="10" x="170" y="150" fill="#4bea69" /><rect width="20" height="10" x="180" y="150" fill="#ffffff" /><rect width="20" height="10" x="200" y="150" fill="#000000" /><rect width="10" height="10" x="220" y="150" fill="#4bea69" /><rect width="60" height="10" x="100" y="160" fill="#4bea69" /><rect width="60" height="10" x="170" y="160" fill="#4bea69" /></svg>