<svg viewBox="0 0 320 320" xmlns="http://www.w3.org/2000/svg" shape-rendering="crispEdges"><rect width="100%" height="100%" fill="#e1d7d5" /><rect width="140" height="10" x="90" y="210" fill="#d22209" /><rect width="140" height="10" x="90" y="220" fill="#d22209" /><rect width="140" height="10" x="90" y="230" fill="#d22209" /><rect width="140" height="10" x="90" y="240" fill="#d22209" /><rect width="20" height="10" x="90" y="250" fill="#d22209" /><rect width="110" height="10" x="120" y="250" fill="#d22209" /><rect width="20" height="10" x="90" y="260" fill="#d22209" /><rect width="110" height="10" x="120" y="260" fill="#d22209" /><rect width="20" height="10" x="90" y="270" fill="#d22209" /><rect width="110" height="10" x="120" y="270" fill="#d22209" /><rect width="20" height="10" x="90" y="280" fill="#d22209" /><rect width="110" height="10" x="120" y="280" fill="#d22209" /><rect width="20" height="10" x="90" y="290" fill="#d22209" /><rect width="110" height="10" x="120" y="290" fill="#d22209" /><rect width="20" height="10" x="90" y="300" fill="#d22209" /><rect width="110" height="10" x="120" y="300" fill="#d22209" /><rect width="20" height="10" x="90" y="310" fill="#d22209" /><rect width="110" height="10" x="120" y="310" fill="#d22209" /><rect width="10" height="10" x="110" y="230" fill="#fe500c" /><rect width="10" height="10" x="130" y="230" fill="#fe500c" /><rect width="10" height="10" x="120" y="240" fill="#fd8b5b" /><rect width="10" height="10" x="130" y="240" fill="#fe500c" /><rect width="10" height="10" x="140" y="240" fill="#000000" /><rect width="10" height="10" x="150" y="240" fill="#fd8b5b" /><rect width="10" height="10" x="170" y="240" fill="#fe500c" /><rect width="10" height="10" x="130" y="250" fill="#fd8b5b" /><rect width="10" height="10" x="140" y="250" fill="#fff0ee" /><rect width="10" height="10" x="150" y="250" fill="#f9e8dd" /><rect width="10" height="10" x="160" y="250" fill="#fe500c" /><rect width="10" height="10" x="170" y="250" fill="#f9e8dd" /><rect width="10" height="10" x="180" y="250" fill="#fe500c" /><rect width="10" height="10" x="190" y="250" fill="#f9e8dd" /><rect width="20" height="10" x="140" y="260" fill="#fff0ee" /><rect width="10" height="10" x="160" y="260" fill="#fd8b5b" /><rect width="10" height="10" x="170" y="260" fill="#fff0ee" /><rect width="10" height="10" x="180" y="260" fill="#fd8b5b" /><rect width="10" height="10" x="190" y="260" fill="#fff0ee" /><rect width="10" height="10" x="200" y="260" fill="#fe500c" /><rect width="20" height="10" x="130" y="270" fill="#fd8b5b" /><rect width="10" height="10" x="150" y="270" fill="#fff0ee" /><rect width="10" height="10" x="160" y="270" fill="#fd8b5b" /><rect width="10" height="10" x="170" y="270" fill="#fff0ee" /><rect width="10" height="10" x="200" y="270" fill="#fe500c" /><rect width="10" height="10" x="210" y="270" fill="#f9e8dd" /><rect width="10" height="10" x="120" y="280" fill="#fd8b5b" /><rect width="10" height="10" x="150" y="280" fill="#fd8b5b" /><rect width="10" height="10" x="210" y="280" fill="#fff0ee" /><rect width="10" height="10" x="120" y="290" fill="#fd8b5b" /><rect width="10" height="10" x="140" y="290" fill="#fd8b5b" /><rect width="20" height="10" x="180" y="290" fill="#fe500c" /><rect width="10" height="10" x="200" y="290" fill="#fff0ee" /><rect width="10" height="10" x="210" y="290" fill="#fe500c" /><rect width="10" height="10" x="140" y="300" fill="#fd8b5b" /><rect width="10" height="10" x="200" y="300" fill="#fe500c" /><rect width="40" height="10" x="80" y="40" fill="#fe500c" /><rect width="20" height="10" x="120" y="40" fill="#f9f5e9" /><rect width="20" height="10" x="190" y="40" fill="#f9f5e9" /><rect width="40" height="10" x="210" y="40" fill="#fe500c" /><rect width="40" height="10" x="60" y="50" fill="#fe500c" /><rect width="40" height="10" x="230" y="50" fill="#fe500c" /><rect width="40" height="10" x="50" y="60" fill="#fe500c" /><rect width="40" height="10" x="240" y="60" fill="#fe500c" /><rect width="30" height="10" x="40" y="70" fill="#fe500c" /><rect width="40" height="10" x="70" y="70" fill="#f9f5e9" /><rect width="20" height="10" x="150" y="70" fill="#fe500c" /><rect width="40" height="10" x="220" y="70" fill="#f9f5e9" /><rect width="30" height="10" x="260" y="70" fill="#fe500c" /><rect width="20" height="10" x="30" y="80" fill="#fe500c" /><rect width="10" height="10" x="130" y="80" fill="#fe500c" /><rect width="10" height="10" x="140" y="80" fill="#000000" /><rect width="20" height="10" x="150" y="80" fill="#d32a09" /><rect width="10" height="10" x="170" y="80" fill="#000000" /><rect width="10" height="10" x="180" y="80" fill="#fe500c" /><rect width="20" height="10" x="280" y="80" fill="#fe500c" /><rect width="20" height="10" x="20" y="90" fill="#fe500c" /><rect width="80" height="10" x="120" y="90" fill="#fe500c" /><rect width="20" height="10" x="290" y="90" fill="#fe500c" /><rect width="20" height="10" x="10" y="100" fill="#fe500c" /><rect width="100" height="10" x="110" y="100" fill="#fe500c" /><rect width="10" height="10" x="300" y="100" fill="#fe500c" /><rect width="70" height="10" x="20" y="110" fill="#fe500c" /><rect width="120" height="10" x="100" y="110" fill="#fe500c" /><rect width="80" height="10" x="230" y="110" fill="#fe500c" /><rect width="10" height="10" x="90" y="120" fill="#f8ddb0" /><rect width="120" height="10" x="100" y="120" fill="#fe500c" /><rect width="10" height="10" x="220" y="120" fill="#f8ddb0" /><rect width="70" height="10" x="10" y="130" fill="#fe500c" /><rect width="10" height="10" x="80" y="130" fill="#f8ddb0" /><rect width="140" height="10" x="90" y="130" fill="#fe500c" /><rect width="10" height="10" x="230" y="130" fill="#f8ddb0" /><rect width="70" height="10" x="240" y="130" fill="#fe500c" /><rect width="140" height="10" x="90" y="140" fill="#fe500c" /><rect width="70" height="10" x="10" y="150" fill="#fe500c" /><rect width="10" height="10" x="80" y="150" fill="#f8ddb0" /><rect width="140" height="10" x="90" y="150" fill="#fe500c" /><rect width="10" height="10" x="230" y="150" fill="#f8ddb0" /><rect width="70" height="10" x="240" y="150" fill="#fe500c" /><rect width="140" height="10" x="90" y="160" fill="#fe500c" /><rect width="60" height="10" x="20" y="170" fill="#fe500c" /><rect width="10" height="10" x="80" y="170" fill="#f8ddb0" /><rect width="140" height="10" x="90" y="170" fill="#fe500c" /><rect width="10" height="10" x="230" y="170" fill="#f8ddb0" /><rect width="60" height="10" x="240" y="170" fill="#fe500c" /><rect width="10" height="10" x="90" y="180" fill="#f8ddb0" /><rect width="40" height="10" x="100" y="180" fill="#fe500c" /><rect width="40" height="10" x="140" y="180" fill="#d32a09" /><rect width="40" height="10" x="180" y="180" fill="#fe500c" /><rect width="10" height="10" x="220" y="180" fill="#f8ddb0" /><rect width="60" height="10" x="40" y="190" fill="#fe500c" /><rect width="10" height="10" x="100" y="190" fill="#f8ddb0" /><rect width="100" height="10" x="110" y="190" fill="#fe500c" /><rect width="10" height="10" x="210" y="190" fill="#f8ddb0" /><rect width="60" height="10" x="220" y="190" fill="#fe500c" /><rect width="100" height="10" x="110" y="200" fill="#f8ddb0" /><rect width="60" height="10" x="100" y="110" fill="#d19a54" /><rect width="60" height="10" x="170" y="110" fill="#d19a54" /><rect width="10" height="10" x="100" y="120" fill="#d19a54" /><rect width="20" height="10" x="110" y="120" fill="#ffffff" /><rect width="20" height="10" x="130" y="120" fill="#000000" /><rect width="10" height="10" x="150" y="120" fill="#d19a54" /><rect width="10" height="10" x="170" y="120" fill="#d19a54" /><rect width="20" height="10" x="180" y="120" fill="#ffffff" /><rect width="20" height="10" x="200" y="120" fill="#000000" /><rect width="10" height="10" x="220" y="120" fill="#d19a54" /><rect width="40" height="10" x="70" y="130" fill="#d19a54" /><rect width="20" height="10" x="110" y="130" fill="#ffffff" /><rect width="20" height="10" x="130" y="130" fill="#000000" /><rect width="30" height="10" x="150" y="130" fill="#d19a54" /><rect width="20" height="10" x="180" y="130" fill="#ffffff" /><rect width="20" height="10" x="200" y="130" fill="#000000" /><rect width="10" height="10" x="220" y="130" fill="#d19a54" /><rect width="10" height="10" x="70" y="140" fill="#d19a54" /><rect width="10" height="10" x="100" y="140" fill="#d19a54" /><rect width="20" height="10" x="110" y="140" fill="#ffffff" /><rect width="20" height="10" x="130" y="140" fill="#000000" /><rect width="10" height="10" x="150" y="140" fill="#d19a54" /><rect width="10" height="10" x="170" y="140" fill="#d19a54" /><rect width="20" height="10" x="180" y="140" fill="#ffffff" /><rect width="20" height="10" x="200" y="140" fill="#000000" /><rect width="10" height="10" x="220" y="140" fill="#d19a54" /><rect width="10" height="10" x="70" y="150" fill="#d19a54" /><rect width="10" height="10" x="100" y="150" fill="#d19a54" /><rect width="20" height="10" x="110" y="150" fill="#ffffff" /><rect width="20" height="10" x="130" y="150" fill="#000000" /><rect width="10" height="10" x="150" y="150" fill="#d19a54" /><rect width="10" height="10" x="170" y="150" fill="#d19a54" /><rect width="20" height="10" x="180" y="150" fill="#ffffff" /><rect width="20" height="10" x="200" y="150" fill="#000000" /><rect width="10" height="10" x="220" y="150" fill="#d19a54" /><rect width="60" height="10" x="100" y="160" fill="#d19a54" /><rect width="60" height="10" x="170" y="160" fill="#d19a54" /></svg>