<svg viewBox="0 0 320 320" xmlns="http://www.w3.org/2000/svg" shape-rendering="crispEdges"><rect width="100%" height="100%" fill="#d5d7e1" /><rect width="140" height="10" x="90" y="210" fill="#d22209" /><rect width="140" height="10" x="90" y="220" fill="#d22209" /><rect width="140" height="10" x="90" y="230" fill="#d22209" /><rect width="140" height="10" x="90" y="240" fill="#d22209" /><rect width="20" height="10" x="90" y="250" fill="#d22209" /><rect width="110" height="10" x="120" y="250" fill="#d22209" /><rect width="20" height="10" x="90" y="260" fill="#d22209" /><rect width="110" height="10" x="120" y="260" fill="#d22209" /><rect width="20" height="10" x="90" y="270" fill="#d22209" /><rect width="110" height="10" x="120" y="270" fill="#d22209" /><rect width="20" height="10" x="90" y="280" fill="#d22209" /><rect width="110" height="10" x="120" y="280" fill="#d22209" /><rect width="20" height="10" x="90" y="290" fill="#d22209" /><rect width="110" height="10" x="120" y="290" fill="#d22209" /><rect width="20" height="10" x="90" y="300" fill="#d22209" /><rect width="110" height="10" x="120" y="300" fill="#d22209" /><rect width="20" height="10" x="90" y="310" fill="#d22209" /><rect width="110" height="10" x="120" y="310" fill="#d22209" /><rect width="20" height="10" x="160" y="250" fill="#f8d689" /><rect width="10" height="10" x="150" y="260" fill="#f8d689" /><rect width="10" height="10" x="160" y="260" fill="#f9f5cb" /><rect width="10" height="10" x="170" y="260" fill="#f8d689" /><rect width="10" height="10" x="180" y="260" fill="#9f4b27" /><rect width="10" height="10" x="140" y="270" fill="#f9f5cb" /><rect width="10" height="10" x="150" y="270" fill="#f8d689" /><rect width="20" height="10" x="160" y="270" fill="#9f4b27" /><rect width="10" height="10" x="180" y="270" fill="#f8d689" /><rect width="10" height="10" x="120" y="20" fill="#eff2fa" /><rect width="10" height="10" x="200" y="20" fill="#eff2fa" /><rect width="70" height="10" x="130" y="30" fill="#f5fcff" /><rect width="10" height="10" x="130" y="40" fill="#f5fcff" /><rect width="10" height="10" x="140" y="40" fill="#b8ced2" /><rect width="10" height="10" x="150" y="40" fill="#f5fcff" /><rect width="10" height="10" x="160" y="40" fill="#b8ced2" /><rect width="10" height="10" x="170" y="40" fill="#f5fcff" /><rect width="10" height="10" x="180" y="40" fill="#b8ced2" /><rect width="10" height="10" x="190" y="40" fill="#f5fcff" /><rect width="20" height="10" x="120" y="50" fill="#f5fcff" /><rect width="10" height="10" x="140" y="50" fill="#b8ced2" /><rect width="30" height="10" x="150" y="50" fill="#ffffff" /><rect width="10" height="10" x="180" y="50" fill="#b8ced2" /><rect width="20" height="10" x="190" y="50" fill="#f5fcff" /><rect width="70" height="10" x="130" y="60" fill="#ffffff" /><rect width="10" height="10" x="130" y="70" fill="#ffffff" /><rect width="10" height="10" x="140" y="70" fill="#1e3445" /><rect width="10" height="10" x="150" y="70" fill="#ffffff" /><rect width="10" height="10" x="160" y="70" fill="#b8ced2" /><rect width="10" height="10" x="170" y="70" fill="#ffffff" /><rect width="10" height="10" x="180" y="70" fill="#1e3445" /><rect width="10" height="10" x="190" y="70" fill="#ffffff" /><rect width="10" height="10" x="90" y="80" fill="#eff2fa" /><rect width="10" height="10" x="120" y="80" fill="#f5fcff" /><rect width="10" height="10" x="130" y="80" fill="#b8ced2" /><rect width="10" height="10" x="140" y="80" fill="#f5fcff" /><rect width="10" height="10" x="150" y="80" fill="#b8ced2" /><rect width="10" height="10" x="160" y="80" fill="#ffffff" /><rect width="10" height="10" x="170" y="80" fill="#b8ced2" /><rect width="10" height="10" x="180" y="80" fill="#f5fcff" /><rect width="10" height="10" x="190" y="80" fill="#b8ced2" /><rect width="10" height="10" x="200" y="80" fill="#f5fcff" /><rect width="10" height="10" x="230" y="80" fill="#eff2fa" /><rect width="10" height="10" x="100" y="90" fill="#f5fcff" /><rect width="10" height="10" x="110" y="90" fill="#b8ced2" /><rect width="10" height="10" x="120" y="90" fill="#f5fcff" /><rect width="10" height="10" x="130" y="90" fill="#b8ced2" /><rect width="10" height="10" x="140" y="90" fill="#f5fcff" /><rect width="10" height="10" x="150" y="90" fill="#b8ced2" /><rect width="10" height="10" x="160" y="90" fill="#f5fcff" /><rect width="10" height="10" x="170" y="90" fill="#b8ced2" /><rect width="10" height="10" x="180" y="90" fill="#f5fcff" /><rect width="10" height="10" x="190" y="90" fill="#b8ced2" /><rect width="10" height="10" x="200" y="90" fill="#f5fcff" /><rect width="10" height="10" x="210" y="90" fill="#b8ced2" /><rect width="10" height="10" x="220" y="90" fill="#f5fcff" /><rect width="10" height="10" x="80" y="100" fill="#eff2fa" /><rect width="10" height="10" x="110" y="100" fill="#ffffff" /><rect width="20" height="10" x="120" y="100" fill="#b8ced2" /><rect width="10" height="10" x="140" y="100" fill="#ffffff" /><rect width="10" height="10" x="150" y="100" fill="#1e3445" /><rect width="10" height="10" x="160" y="100" fill="#ffffff" /><rect width="10" height="10" x="170" y="100" fill="#1e3445" /><rect width="10" height="10" x="180" y="100" fill="#ffffff" /><rect width="20" height="10" x="190" y="100" fill="#b8ced2" /><rect width="10" height="10" x="210" y="100" fill="#ffffff" /><rect width="10" height="10" x="240" y="100" fill="#eff2fa" /><rect width="10" height="10" x="90" y="110" fill="#eff2fa" /><rect width="10" height="10" x="100" y="110" fill="#f5fcff" /><rect width="10" height="10" x="110" y="110" fill="#b8ced2" /><rect width="20" height="10" x="120" y="110" fill="#ffffff" /><rect width="10" height="10" x="140" y="110" fill="#b8ced2" /><rect width="30" height="10" x="150" y="110" fill="#f5fcff" /><rect width="10" height="10" x="180" y="110" fill="#b8ced2" /><rect width="20" height="10" x="190" y="110" fill="#ffffff" /><rect width="10" height="10" x="210" y="110" fill="#b8ced2" /><rect width="10" height="10" x="220" y="110" fill="#f5fcff" /><rect width="10" height="10" x="230" y="110" fill="#eff2fa" /><rect width="10" height="10" x="40" y="120" fill="#eff2fa" /><rect width="20" height="10" x="90" y="120" fill="#f5fcff" /><rect width="50" height="10" x="110" y="120" fill="#ffffff" /><rect width="10" height="10" x="160" y="120" fill="#1e3445" /><rect width="50" height="10" x="170" y="120" fill="#ffffff" /><rect width="20" height="10" x="220" y="120" fill="#f5fcff" /><rect width="30" height="10" x="10" y="130" fill="#f5fcff" /><rect width="10" height="10" x="90" y="130" fill="#eff2fa" /><rect width="10" height="10" x="100" y="130" fill="#f5fcff" /><rect width="10" height="10" x="110" y="130" fill="#ffffff" /><rect width="10" height="10" x="120" y="130" fill="#1e3445" /><rect width="10" height="10" x="130" y="130" fill="#ffffff" /><rect width="10" height="10" x="140" y="130" fill="#1e3445" /><rect width="10" height="10" x="150" y="130" fill="#f5fcff" /><rect width="10" height="10" x="160" y="130" fill="#ffffff" /><rect width="10" height="10" x="170" y="130" fill="#f5fcff" /><rect width="10" height="10" x="180" y="130" fill="#1e3445" /><rect width="10" height="10" x="190" y="130" fill="#ffffff" /><rect width="10" height="10" x="200" y="130" fill="#1e3445" /><rect width="10" height="10" x="210" y="130" fill="#ffffff" /><rect width="20" height="10" x="220" y="130" fill="#eff2fa" /><rect width="10" height="10" x="10" y="140" fill="#f5fcff" /><rect width="10" height="10" x="20" y="140" fill="#b8ced2" /><rect width="20" height="10" x="30" y="140" fill="#f5fcff" /><rect width="10" height="10" x="80" y="140" fill="#b8ced2" /><rect width="10" height="10" x="90" y="140" fill="#f5fcff" /><rect width="10" height="10" x="100" y="140" fill="#b8ced2" /><rect width="10" height="10" x="110" y="140" fill="#f5fcff" /><rect width="10" height="10" x="120" y="140" fill="#b8ced2" /><rect width="10" height="10" x="130" y="140" fill="#f5fcff" /><rect width="10" height="10" x="140" y="140" fill="#b8ced2" /><rect width="30" height="10" x="150" y="140" fill="#ffffff" /><rect width="10" height="10" x="180" y="140" fill="#b8ced2" /><rect width="10" height="10" x="190" y="140" fill="#f5fcff" /><rect width="10" height="10" x="200" y="140" fill="#b8ced2" /><rect width="10" height="10" x="210" y="140" fill="#f5fcff" /><rect width="10" height="10" x="220" y="140" fill="#b8ced2" /><rect width="10" height="10" x="230" y="140" fill="#f5fcff" /><rect width="10" height="10" x="240" y="140" fill="#b8ced2" /><rect width="10" height="10" x="10" y="150" fill="#1e3445" /><rect width="10" height="10" x="20" y="150" fill="#ffffff" /><rect width="10" height="10" x="30" y="150" fill="#1e3445" /><rect width="30" height="10" x="70" y="150" fill="#eff2fa" /><rect width="40" height="10" x="100" y="150" fill="#ffffff" /><rect width="50" height="10" x="140" y="150" fill="#1e3445" /><rect width="50" height="10" x="190" y="150" fill="#ffffff" /><rect width="10" height="10" x="10" y="160" fill="#f5fcff" /><rect width="10" height="10" x="20" y="160" fill="#b8ced2" /><rect width="10" height="10" x="30" y="160" fill="#f5fcff" /><rect width="10" height="10" x="40" y="160" fill="#b8ced2" /><rect width="10" height="10" x="50" y="160" fill="#f5fcff" /><rect width="30" height="10" x="70" y="160" fill="#eff2fa" /><rect width="10" height="10" x="100" y="160" fill="#ffffff" /><rect width="10" height="10" x="110" y="160" fill="#1e3445" /><rect width="10" height="10" x="120" y="160" fill="#ffffff" /><rect width="70" height="10" x="130" y="160" fill="#1e3445" /><rect width="10" height="10" x="200" y="160" fill="#ffffff" /><rect width="10" height="10" x="210" y="160" fill="#1e3445" /><rect width="20" height="10" x="220" y="160" fill="#ffffff" /><rect width="10" height="10" x="10" y="170" fill="#ffffff" /><rect width="10" height="10" x="20" y="170" fill="#1e3445" /><rect width="10" height="10" x="30" y="170" fill="#ffffff" /><rect width="10" height="10" x="40" y="170" fill="#1e3445" /><rect width="10" height="10" x="50" y="170" fill="#ffffff" /><rect width="10" height="10" x="60" y="170" fill="#f5fcff" /><rect width="10" height="10" x="70" y="170" fill="#b8ced2" /><rect width="10" height="10" x="80" y="170" fill="#f5fcff" /><rect width="10" height="10" x="90" y="170" fill="#b8ced2" /><rect width="10" height="10" x="100" y="170" fill="#f5fcff" /><rect width="10" height="10" x="110" y="170" fill="#b8ced2" /><rect width="10" height="10" x="120" y="170" fill="#f5fcff" /><rect width="10" height="10" x="130" y="170" fill="#b8ced2" /><rect width="10" height="10" x="140" y="170" fill="#f5fcff" /><rect width="10" height="10" x="150" y="170" fill="#b8ced2" /><rect width="10" height="10" x="160" y="170" fill="#f5fcff" /><rect width="10" height="10" x="170" y="170" fill="#b8ced2" /><rect width="10" height="10" x="180" y="170" fill="#f5fcff" /><rect width="10" height="10" x="190" y="170" fill="#b8ced2" /><rect width="10" height="10" x="200" y="170" fill="#f5fcff" /><rect width="10" height="10" x="210" y="170" fill="#b8ced2" /><rect width="10" height="10" x="220" y="170" fill="#f5fcff" /><rect width="10" height="10" x="230" y="170" fill="#b8ced2" /><rect width="10" height="10" x="240" y="170" fill="#f5fcff" /><rect width="10" height="10" x="250" y="170" fill="#b8ced2" /><rect width="10" height="10" x="10" y="180" fill="#b8ced2" /><rect width="10" height="10" x="20" y="180" fill="#f5fcff" /><rect width="10" height="10" x="30" y="180" fill="#b8ced2" /><rect width="10" height="10" x="40" y="180" fill="#f5fcff" /><rect width="10" height="10" x="50" y="180" fill="#b8ced2" /><rect width="10" height="10" x="60" y="180" fill="#f5fcff" /><rect width="10" height="10" x="70" y="180" fill="#b8ced2" /><rect width="10" height="10" x="80" y="180" fill="#adc8cc" /><rect width="20" height="10" x="90" y="180" fill="#ffffff" /><rect width="10" height="10" x="110" y="180" fill="#1e3445" /><rect width="10" height="10" x="120" y="180" fill="#ffffff" /><rect width="10" height="10" x="130" y="180" fill="#1e3445" /><rect width="10" height="10" x="140" y="180" fill="#ffffff" /><rect width="10" height="10" x="150" y="180" fill="#1e3445" /><rect width="10" height="10" x="160" y="180" fill="#ffffff" /><rect width="10" height="10" x="170" y="180" fill="#1e3445" /><rect width="10" height="10" x="180" y="180" fill="#ffffff" /><rect width="10" height="10" x="190" y="180" fill="#1e3445" /><rect width="10" height="10" x="200" y="180" fill="#ffffff" /><rect width="10" height="10" x="210" y="180" fill="#1e3445" /><rect width="20" height="10" x="220" y="180" fill="#ffffff" /><rect width="10" height="10" x="240" y="180" fill="#adc8cc" /><rect width="10" height="10" x="10" y="190" fill="#1e3445" /><rect width="10" height="10" x="20" y="190" fill="#ffffff" /><rect width="10" height="10" x="30" y="190" fill="#1e3445" /><rect width="10" height="10" x="40" y="190" fill="#ffffff" /><rect width="10" height="10" x="50" y="190" fill="#1e3445" /><rect width="10" height="10" x="60" y="190" fill="#ffffff" /><rect width="10" height="10" x="70" y="190" fill="#1e3445" /><rect width="160" height="10" x="80" y="190" fill="#ffffff" /><rect width="40" height="10" x="10" y="200" fill="#ffffff" /><rect width="10" height="10" x="50" y="200" fill="#b8ced2" /><rect width="10" height="10" x="60" y="200" fill="#f5fcff" /><rect width="10" height="10" x="70" y="200" fill="#b8ced2" /><rect width="10" height="10" x="80" y="200" fill="#f5fcff" /><rect width="10" height="10" x="90" y="200" fill="#db8323" /><rect width="20" height="10" x="100" y="200" fill="#e7a32c" /><rect width="10" height="10" x="120" y="200" fill="#db8323" /><rect width="30" height="10" x="130" y="200" fill="#e7a32c" /><rect width="10" height="10" x="160" y="200" fill="#db8323" /><rect width="20" height="10" x="170" y="200" fill="#e7a32c" /><rect width="10" height="10" x="190" y="200" fill="#db8323" /><rect width="30" height="10" x="200" y="200" fill="#e7a32c" /><rect width="10" height="10" x="230" y="200" fill="#db8323" /><rect width="10" height="10" x="10" y="210" fill="#db8323" /><rect width="10" height="10" x="20" y="210" fill="#e7a32c" /><rect width="10" height="10" x="30" y="210" fill="#db8323" /><rect width="10" height="10" x="40" y="210" fill="#e7a32c" /><rect width="10" height="10" x="50" y="210" fill="#1e3445" /><rect width="10" height="10" x="60" y="210" fill="#ffffff" /><rect width="10" height="10" x="70" y="210" fill="#1e3445" /><rect width="10" height="10" x="80" y="210" fill="#ffffff" /><rect width="20" height="10" x="90" y="210" fill="#e7a32c" /><rect width="10" height="10" x="110" y="210" fill="#db8323" /><rect width="20" height="10" x="120" y="210" fill="#e7a32c" /><rect width="10" height="10" x="140" y="210" fill="#db8323" /><rect width="20" height="10" x="150" y="210" fill="#e7a32c" /><rect width="10" height="10" x="170" y="210" fill="#db8323" /><rect width="30" height="10" x="180" y="210" fill="#e7a32c" /><rect width="10" height="10" x="210" y="210" fill="#db8323" /><rect width="20" height="10" x="220" y="210" fill="#e7a32c" /><rect width="60" height="10" x="100" y="110" fill="#8dd122" /><rect width="60" height="10" x="170" y="110" fill="#8dd122" /><rect width="10" height="10" x="100" y="120" fill="#8dd122" /><rect width="20" height="10" x="110" y="120" fill="#ffffff" /><rect width="20" height="10" x="130" y="120" fill="#000000" /><rect width="10" height="10" x="150" y="120" fill="#8dd122" /><rect width="10" height="10" x="170" y="120" fill="#8dd122" /><rect width="20" height="10" x="180" y="120" fill="#ffffff" /><rect width="20" height="10" x="200" y="120" fill="#000000" /><rect width="10" height="10" x="220" y="120" fill="#8dd122" /><rect width="40" height="10" x="70" y="130" fill="#8dd122" /><rect width="20" height="10" x="110" y="130" fill="#ffffff" /><rect width="20" height="10" x="130" y="130" fill="#000000" /><rect width="30" height="10" x="150" y="130" fill="#8dd122" /><rect width="20" height="10" x="180" y="130" fill="#ffffff" /><rect width="20" height="10" x="200" y="130" fill="#000000" /><rect width="10" height="10" x="220" y="130" fill="#8dd122" /><rect width="10" height="10" x="70" y="140" fill="#8dd122" /><rect width="10" height="10" x="100" y="140" fill="#8dd122" /><rect width="20" height="10" x="110" y="140" fill="#ffffff" /><rect width="20" height="10" x="130" y="140" fill="#000000" /><rect width="10" height="10" x="150" y="140" fill="#8dd122" /><rect width="10" height="10" x="170" y="140" fill="#8dd122" /><rect width="20" height="10" x="180" y="140" fill="#ffffff" /><rect width="20" height="10" x="200" y="140" fill="#000000" /><rect width="10" height="10" x="220" y="140" fill="#8dd122" /><rect width="10" height="10" x="70" y="150" fill="#8dd122" /><rect width="10" height="10" x="100" y="150" fill="#8dd122" /><rect width="20" height="10" x="110" y="150" fill="#ffffff" /><rect width="20" height="10" x="130" y="150" fill="#000000" /><rect width="10" height="10" x="150" y="150" fill="#8dd122" /><rect width="10" height="10" x="170" y="150" fill="#8dd122" /><rect width="20" height="10" x="180" y="150" fill="#ffffff" /><rect width="20" height="10" x="200" y="150" fill="#000000" /><rect width="10" height="10" x="220" y="150" fill="#8dd122" /><rect width="60" height="10" x="100" y="160" fill="#8dd122" /><rect width="60" height="10" x="170" y="160" fill="#8dd122" /></svg>