<svg viewBox="0 0 320 320" xmlns="http://www.w3.org/2000/svg" shape-rendering="crispEdges"><rect width="100%" height="100%" fill="#e1d7d5" /><rect width="140" height="10" x="90" y="210" fill="#80a72d" /><rect width="140" height="10" x="90" y="220" fill="#80a72d" /><rect width="140" height="10" x="90" y="230" fill="#80a72d" /><rect width="140" height="10" x="90" y="240" fill="#80a72d" /><rect width="20" height="10" x="90" y="250" fill="#80a72d" /><rect width="110" height="10" x="120" y="250" fill="#80a72d" /><rect width="20" height="10" x="90" y="260" fill="#80a72d" /><rect width="110" height="10" x="120" y="260" fill="#80a72d" /><rect width="20" height="10" x="90" y="270" fill="#80a72d" /><rect width="110" height="10" x="120" y="270" fill="#80a72d" /><rect width="20" height="10" x="90" y="280" fill="#80a72d" /><rect width="110" height="10" x="120" y="280" fill="#80a72d" /><rect width="20" height="10" x="90" y="290" fill="#80a72d" /><rect width="110" height="10" x="120" y="290" fill="#80a72d" /><rect width="20" height="10" x="90" y="300" fill="#80a72d" /><rect width="110" height="10" x="120" y="300" fill="#80a72d" /><rect width="20" height="10" x="90" y="310" fill="#80a72d" /><rect width="110" height="10" x="120" y="310" fill="#80a72d" /><rect width="10" height="10" x="180" y="240" fill="#5a423f" /><rect width="10" height="10" x="160" y="250" fill="#ffffff" /><rect width="20" height="10" x="170" y="250" fill="#5a423f" /><rect width="10" height="10" x="190" y="250" fill="#ffffff" /><rect width="20" height="10" x="170" y="260" fill="#5a423f" /><rect width="10" height="10" x="150" y="270" fill="#ffffff" /><rect width="10" height="10" x="170" y="270" fill="#5a423f" /><rect width="10" height="10" x="180" y="270" fill="#d32a09" /><rect width="10" height="10" x="160" y="280" fill="#ffffff" /><rect width="10" height="10" x="170" y="280" fill="#000000" /><rect width="10" height="10" x="180" y="280" fill="#d32a09" /><rect width="10" height="10" x="200" y="280" fill="#ffffff" /><rect width="10" height="10" x="150" y="290" fill="#ffffff" /><rect width="10" height="10" x="170" y="290" fill="#ffffff" /><rect width="10" height="10" x="190" y="290" fill="#ffffff" /><rect width="10" height="10" x="160" y="50" fill="#80a72d" /><rect width="40" height="10" x="120" y="60" fill="#e11833" /><rect width="10" height="10" x="160" y="60" fill="#80a72d" /><rect width="40" height="10" x="170" y="60" fill="#e11833" /><rect width="40" height="10" x="100" y="70" fill="#e11833" /><rect width="20" height="10" x="140" y="70" fill="#fccf25" /><rect width="10" height="10" x="160" y="70" fill="#80a72d" /><rect width="20" height="10" x="170" y="70" fill="#fccf25" /><rect width="40" height="10" x="190" y="70" fill="#e11833" /><rect width="60" height="10" x="90" y="80" fill="#e11833" /><rect width="10" height="10" x="150" y="80" fill="#eed811" /><rect width="10" height="10" x="160" y="80" fill="#80a72d" /><rect width="10" height="10" x="170" y="80" fill="#eed811" /><rect width="20" height="10" x="180" y="80" fill="#e11833" /><rect width="10" height="10" x="200" y="80" fill="#ffffff" /><rect width="30" height="10" x="210" y="80" fill="#e11833" /><rect width="100" height="10" x="90" y="90" fill="#e11833" /><rect width="10" height="10" x="190" y="90" fill="#ffffff" /><rect width="40" height="10" x="200" y="90" fill="#e11833" /><rect width="170" height="10" x="80" y="100" fill="#e11833" /><rect width="170" height="10" x="80" y="110" fill="#e11833" /><rect width="170" height="10" x="80" y="120" fill="#e11833" /><rect width="170" height="10" x="80" y="130" fill="#e11833" /><rect width="170" height="10" x="80" y="140" fill="#e11833" /><rect width="170" height="10" x="80" y="150" fill="#e11833" /><rect width="170" height="10" x="80" y="160" fill="#e11833" /><rect width="20" height="10" x="90" y="170" fill="#e11833" /><rect width="10" height="10" x="110" y="170" fill="#fccf25" /><rect width="120" height="10" x="120" y="170" fill="#e11833" /><rect width="150" height="10" x="90" y="180" fill="#e11833" /><rect width="60" height="10" x="100" y="190" fill="#e11833" /><rect width="20" height="10" x="160" y="190" fill="#fccf25" /><rect width="50" height="10" x="180" y="190" fill="#e11833" /><rect width="110" height="10" x="110" y="200" fill="#e11833" /><rect width="70" height="10" x="130" y="210" fill="#e11833" /><rect width="60" height="10" x="100" y="110" fill="#000000" /><rect width="60" height="10" x="170" y="110" fill="#000000" /><rect width="10" height="10" x="100" y="120" fill="#000000" /><rect width="20" height="10" x="110" y="120" fill="#ffffff" /><rect width="30" height="10" x="130" y="120" fill="#000000" /><rect width="10" height="10" x="170" y="120" fill="#000000" /><rect width="20" height="10" x="180" y="120" fill="#ffffff" /><rect width="30" height="10" x="200" y="120" fill="#000000" /><rect width="40" height="10" x="70" y="130" fill="#000000" /><rect width="20" height="10" x="110" y="130" fill="#ffffff" /><rect width="50" height="10" x="130" y="130" fill="#000000" /><rect width="20" height="10" x="180" y="130" fill="#ffffff" /><rect width="30" height="10" x="200" y="130" fill="#000000" /><rect width="10" height="10" x="70" y="140" fill="#000000" /><rect width="10" height="10" x="100" y="140" fill="#000000" /><rect width="20" height="10" x="110" y="140" fill="#ffffff" /><rect width="30" height="10" x="130" y="140" fill="#000000" /><rect width="10" height="10" x="170" y="140" fill="#000000" /><rect width="20" height="10" x="180" y="140" fill="#ffffff" /><rect width="30" height="10" x="200" y="140" fill="#000000" /><rect width="10" height="10" x="70" y="150" fill="#000000" /><rect width="10" height="10" x="100" y="150" fill="#000000" /><rect width="20" height="10" x="110" y="150" fill="#ffffff" /><rect width="30" height="10" x="130" y="150" fill="#000000" /><rect width="10" height="10" x="170" y="150" fill="#000000" /><rect width="20" height="10" x="180" y="150" fill="#ffffff" /><rect width="30" height="10" x="200" y="150" fill="#000000" /><rect width="60" height="10" x="100" y="160" fill="#000000" /><rect width="60" height="10" x="170" y="160" fill="#000000" /></svg>