<svg viewBox="0 0 320 320" xmlns="http://www.w3.org/2000/svg" shape-rendering="crispEdges"><rect width="100%" height="100%" fill="#d5d7e1" /><rect width="140" height="10" x="90" y="210" fill="#eed811" /><rect width="140" height="10" x="90" y="220" fill="#eed811" /><rect width="140" height="10" x="90" y="230" fill="#eed811" /><rect width="140" height="10" x="90" y="240" fill="#eed811" /><rect width="20" height="10" x="90" y="250" fill="#eed811" /><rect width="110" height="10" x="120" y="250" fill="#eed811" /><rect width="20" height="10" x="90" y="260" fill="#eed811" /><rect width="110" height="10" x="120" y="260" fill="#eed811" /><rect width="20" height="10" x="90" y="270" fill="#eed811" /><rect width="110" height="10" x="120" y="270" fill="#eed811" /><rect width="20" height="10" x="90" y="280" fill="#eed811" /><rect width="110" height="10" x="120" y="280" fill="#eed811" /><rect width="20" height="10" x="90" y="290" fill="#eed811" /><rect width="110" height="10" x="120" y="290" fill="#eed811" /><rect width="20" height="10" x="90" y="300" fill="#eed811" /><rect width="110" height="10" x="120" y="300" fill="#eed811" /><rect width="20" height="10" x="90" y="310" fill="#eed811" /><rect width="110" height="10" x="120" y="310" fill="#eed811" /><rect width="20" height="10" x="160" y="240" fill="#ffffff" /><rect width="10" height="10" x="150" y="250" fill="#ffffff" /><rect width="20" height="10" x="160" y="250" fill="#eed811" /><rect width="10" height="10" x="180" y="250" fill="#ffffff" /><rect width="10" height="10" x="150" y="260" fill="#ffffff" /><rect width="20" height="10" x="160" y="260" fill="#eed811" /><rect width="10" height="10" x="180" y="260" fill="#ffffff" /><rect width="20" height="10" x="160" y="270" fill="#ffffff" /><rect width="10" height="10" x="150" y="30" fill="#000000" /><rect width="30" height="10" x="160" y="30" fill="#f83001" /><rect width="10" height="10" x="130" y="40" fill="#000000" /><rect width="20" height="10" x="140" y="40" fill="#f83001" /><rect width="20" height="10" x="160" y="40" fill="#ffffff" /><rect width="30" height="10" x="180" y="40" fill="#f83001" /><rect width="10" height="10" x="130" y="50" fill="#000000" /><rect width="10" height="10" x="140" y="50" fill="#f83001" /><rect width="10" height="10" x="150" y="50" fill="#ffffff" /><rect width="50" height="10" x="160" y="50" fill="#f83001" /><rect width="10" height="10" x="120" y="60" fill="#000000" /><rect width="30" height="10" x="130" y="60" fill="#f83001" /><rect width="30" height="10" x="160" y="60" fill="#e8e8e2" /><rect width="30" height="10" x="190" y="60" fill="#f83001" /><rect width="10" height="10" x="120" y="70" fill="#000000" /><rect width="20" height="10" x="130" y="70" fill="#f83001" /><rect width="40" height="10" x="150" y="70" fill="#e8e8e2" /><rect width="30" height="10" x="190" y="70" fill="#f83001" /><rect width="10" height="10" x="120" y="80" fill="#000000" /><rect width="20" height="10" x="130" y="80" fill="#f83001" /><rect width="50" height="10" x="150" y="80" fill="#e8e8e2" /><rect width="20" height="10" x="200" y="80" fill="#f83001" /><rect width="10" height="10" x="130" y="90" fill="#000000" /><rect width="20" height="10" x="140" y="90" fill="#f83001" /><rect width="20" height="10" x="160" y="90" fill="#e8e8e2" /><rect width="30" height="10" x="180" y="90" fill="#f83001" /><rect width="10" height="10" x="80" y="100" fill="#caeff9" /><rect width="40" height="10" x="90" y="100" fill="#ffffff" /><rect width="60" height="10" x="140" y="100" fill="#f83001" /><rect width="40" height="10" x="210" y="100" fill="#d32a09" /><rect width="10" height="10" x="60" y="110" fill="#caeff9" /><rect width="20" height="10" x="70" y="110" fill="#ffffff" /><rect width="30" height="10" x="90" y="110" fill="#d9391f" /><rect width="10" height="10" x="120" y="110" fill="#ffd067" /><rect width="20" height="10" x="130" y="110" fill="#ffffff" /><rect width="30" height="10" x="160" y="110" fill="#f83001" /><rect width="20" height="10" x="190" y="110" fill="#d32a09" /><rect width="40" height="10" x="210" y="110" fill="#ffffff" /><rect width="20" height="10" x="250" y="110" fill="#d32a09" /><rect width="10" height="10" x="50" y="120" fill="#caeff9" /><rect width="10" height="10" x="60" y="120" fill="#ffffff" /><rect width="10" height="10" x="70" y="120" fill="#ffd067" /><rect width="50" height="10" x="80" y="120" fill="#d9391f" /><rect width="20" height="10" x="130" y="120" fill="#ffd067" /><rect width="10" height="10" x="150" y="120" fill="#ffffff" /><rect width="10" height="10" x="180" y="120" fill="#d32a09" /><rect width="40" height="10" x="190" y="120" fill="#ffffff" /><rect width="10" height="10" x="230" y="120" fill="#fff0be" /><rect width="30" height="10" x="240" y="120" fill="#ffffff" /><rect width="10" height="10" x="270" y="120" fill="#d32a09" /><rect width="10" height="10" x="50" y="130" fill="#caeff9" /><rect width="10" height="10" x="60" y="130" fill="#ffffff" /><rect width="10" height="10" x="70" y="130" fill="#ffd067" /><rect width="30" height="10" x="80" y="130" fill="#d9391f" /><rect width="10" height="10" x="110" y="130" fill="#fff671" /><rect width="10" height="10" x="120" y="130" fill="#ffd067" /><rect width="10" height="10" x="130" y="130" fill="#fff671" /><rect width="10" height="10" x="140" y="130" fill="#ffd067" /><rect width="10" height="10" x="150" y="130" fill="#ffffff" /><rect width="10" height="10" x="180" y="130" fill="#d32a09" /><rect width="20" height="10" x="190" y="130" fill="#ffffff" /><rect width="20" height="10" x="210" y="130" fill="#fff0be" /><rect width="10" height="10" x="230" y="130" fill="#c4da53" /><rect width="10" height="10" x="240" y="130" fill="#018146" /><rect width="10" height="10" x="250" y="130" fill="#fff0be" /><rect width="10" height="10" x="260" y="130" fill="#ffffff" /><rect width="10" height="10" x="270" y="130" fill="#d32a09" /><rect width="10" height="10" x="40" y="140" fill="#caeff9" /><rect width="10" height="10" x="50" y="140" fill="#ffffff" /><rect width="40" height="10" x="60" y="140" fill="#e8705b" /><rect width="40" height="10" x="100" y="140" fill="#fff671" /><rect width="20" height="10" x="140" y="140" fill="#ffd067" /><rect width="10" height="10" x="160" y="140" fill="#ffffff" /><rect width="10" height="10" x="170" y="140" fill="#d32a09" /><rect width="20" height="10" x="180" y="140" fill="#ffffff" /><rect width="10" height="10" x="200" y="140" fill="#fff0be" /><rect width="10" height="10" x="210" y="140" fill="#018146" /><rect width="10" height="10" x="220" y="140" fill="#c4da53" /><rect width="10" height="10" x="230" y="140" fill="#552d1d" /><rect width="10" height="10" x="240" y="140" fill="#c4da53" /><rect width="10" height="10" x="250" y="140" fill="#fff0be" /><rect width="20" height="10" x="260" y="140" fill="#ffffff" /><rect width="10" height="10" x="280" y="140" fill="#d32a09" /><rect width="10" height="10" x="40" y="150" fill="#caeff9" /><rect width="10" height="10" x="50" y="150" fill="#ffffff" /><rect width="30" height="10" x="60" y="150" fill="#e8705b" /><rect width="60" height="10" x="90" y="150" fill="#fff671" /><rect width="10" height="10" x="150" y="150" fill="#c4da53" /><rect width="10" height="10" x="160" y="150" fill="#ffffff" /><rect width="10" height="10" x="170" y="150" fill="#d32a09" /><rect width="10" height="10" x="180" y="150" fill="#ffffff" /><rect width="20" height="10" x="190" y="150" fill="#fff0be" /><rect width="10" height="10" x="210" y="150" fill="#c4da53" /><rect width="10" height="10" x="220" y="150" fill="#552d1d" /><rect width="10" height="10" x="230" y="150" fill="#4d271b" /><rect width="10" height="10" x="240" y="150" fill="#552d1d" /><rect width="20" height="10" x="250" y="150" fill="#fff0be" /><rect width="10" height="10" x="270" y="150" fill="#ffffff" /><rect width="10" height="10" x="280" y="150" fill="#d32a09" /><rect width="10" height="10" x="40" y="160" fill="#caeff9" /><rect width="10" height="10" x="50" y="160" fill="#ffffff" /><rect width="20" height="10" x="60" y="160" fill="#e8705b" /><rect width="10" height="10" x="80" y="160" fill="#ffffff" /><rect width="10" height="10" x="90" y="160" fill="#eed811" /><rect width="40" height="10" x="100" y="160" fill="#fff671" /><rect width="20" height="10" x="140" y="160" fill="#c4da53" /><rect width="10" height="10" x="160" y="160" fill="#ffffff" /><rect width="10" height="10" x="170" y="160" fill="#d32a09" /><rect width="10" height="10" x="180" y="160" fill="#ffffff" /><rect width="20" height="10" x="190" y="160" fill="#fff0be" /><rect width="10" height="10" x="210" y="160" fill="#552d1d" /><rect width="10" height="10" x="220" y="160" fill="#4d271b" /><rect width="10" height="10" x="230" y="160" fill="#552d1d" /><rect width="10" height="10" x="240" y="160" fill="#4d271b" /><rect width="10" height="10" x="250" y="160" fill="#c4da53" /><rect width="10" height="10" x="260" y="160" fill="#fff0be" /><rect width="10" height="10" x="270" y="160" fill="#ffffff" /><rect width="10" height="10" x="280" y="160" fill="#d32a09" /><rect width="10" height="10" x="40" y="170" fill="#caeff9" /><rect width="10" height="10" x="50" y="170" fill="#ffffff" /><rect width="10" height="10" x="60" y="170" fill="#e8705b" /><rect width="10" height="10" x="70" y="170" fill="#ffd067" /><rect width="20" height="10" x="80" y="170" fill="#ffffff" /><rect width="40" height="10" x="100" y="170" fill="#fff671" /><rect width="20" height="10" x="140" y="170" fill="#c4da53" /><rect width="10" height="10" x="160" y="170" fill="#ffffff" /><rect width="10" height="10" x="170" y="170" fill="#d32a09" /><rect width="10" height="10" x="180" y="170" fill="#ffffff" /><rect width="20" height="10" x="190" y="170" fill="#fff0be" /><rect width="10" height="10" x="210" y="170" fill="#c4da53" /><rect width="10" height="10" x="220" y="170" fill="#552d1d" /><rect width="10" height="10" x="230" y="170" fill="#4d271b" /><rect width="10" height="10" x="240" y="170" fill="#c4da53" /><rect width="10" height="10" x="250" y="170" fill="#018146" /><rect width="10" height="10" x="260" y="170" fill="#fff0be" /><rect width="10" height="10" x="270" y="170" fill="#ffffff" /><rect width="10" height="10" x="280" y="170" fill="#d32a09" /><rect width="10" height="10" x="50" y="180" fill="#caeff9" /><rect width="10" height="10" x="60" y="180" fill="#ffffff" /><rect width="10" height="10" x="70" y="180" fill="#ffd067" /><rect width="50" height="10" x="80" y="180" fill="#fff671" /><rect width="20" height="10" x="130" y="180" fill="#ffd067" /><rect width="10" height="10" x="150" y="180" fill="#ffffff" /><rect width="10" height="10" x="180" y="180" fill="#d32a09" /><rect width="20" height="10" x="190" y="180" fill="#ffffff" /><rect width="10" height="10" x="210" y="180" fill="#fff0be" /><rect width="10" height="10" x="220" y="180" fill="#018146" /><rect width="10" height="10" x="230" y="180" fill="#c4da53" /><rect width="20" height="10" x="240" y="180" fill="#fff0be" /><rect width="10" height="10" x="260" y="180" fill="#ffffff" /><rect width="10" height="10" x="270" y="180" fill="#d32a09" /><rect width="10" height="10" x="50" y="190" fill="#caeff9" /><rect width="10" height="10" x="60" y="190" fill="#ffffff" /><rect width="20" height="10" x="70" y="190" fill="#ffd067" /><rect width="30" height="10" x="90" y="190" fill="#7e5243" /><rect width="10" height="10" x="120" y="190" fill="#ffd067" /><rect width="30" height="10" x="130" y="190" fill="#018146" /><rect width="10" height="10" x="180" y="190" fill="#d32a09" /><rect width="30" height="10" x="190" y="190" fill="#ffffff" /><rect width="20" height="10" x="220" y="190" fill="#fff0be" /><rect width="30" height="10" x="240" y="190" fill="#ffffff" /><rect width="10" height="10" x="270" y="190" fill="#d32a09" /><rect width="10" height="10" x="60" y="200" fill="#caeff9" /><rect width="20" height="10" x="70" y="200" fill="#ffffff" /><rect width="10" height="10" x="90" y="200" fill="#ffd067" /><rect width="20" height="10" x="100" y="200" fill="#7e5243" /><rect width="10" height="10" x="120" y="200" fill="#ffd067" /><rect width="20" height="10" x="130" y="200" fill="#ffffff" /><rect width="20" height="10" x="190" y="200" fill="#d32a09" /><rect width="40" height="10" x="210" y="200" fill="#ffffff" /><rect width="20" height="10" x="250" y="200" fill="#d32a09" /><rect width="20" height="10" x="70" y="210" fill="#caeff9" /><rect width="40" height="10" x="90" y="210" fill="#ffffff" /><rect width="40" height="10" x="210" y="210" fill="#d32a09" /><rect width="60" height="10" x="100" y="110" fill="#b9185c" /><rect width="60" height="10" x="170" y="110" fill="#b9185c" /><rect width="10" height="10" x="100" y="120" fill="#b9185c" /><rect width="20" height="10" x="110" y="120" fill="#ffffff" /><rect width="20" height="10" x="130" y="120" fill="#000000" /><rect width="10" height="10" x="150" y="120" fill="#b9185c" /><rect width="10" height="10" x="170" y="120" fill="#b9185c" /><rect width="20" height="10" x="180" y="120" fill="#ffffff" /><rect width="20" height="10" x="200" y="120" fill="#000000" /><rect width="10" height="10" x="220" y="120" fill="#b9185c" /><rect width="40" height="10" x="70" y="130" fill="#b9185c" /><rect width="20" height="10" x="110" y="130" fill="#ffffff" /><rect width="20" height="10" x="130" y="130" fill="#000000" /><rect width="30" height="10" x="150" y="130" fill="#b9185c" /><rect width="20" height="10" x="180" y="130" fill="#ffffff" /><rect width="20" height="10" x="200" y="130" fill="#000000" /><rect width="10" height="10" x="220" y="130" fill="#b9185c" /><rect width="10" height="10" x="70" y="140" fill="#b9185c" /><rect width="10" height="10" x="100" y="140" fill="#b9185c" /><rect width="20" height="10" x="110" y="140" fill="#ffffff" /><rect width="20" height="10" x="130" y="140" fill="#000000" /><rect width="10" height="10" x="150" y="140" fill="#b9185c" /><rect width="10" height="10" x="170" y="140" fill="#b9185c" /><rect width="20" height="10" x="180" y="140" fill="#ffffff" /><rect width="20" height="10" x="200" y="140" fill="#000000" /><rect width="10" height="10" x="220" y="140" fill="#b9185c" /><rect width="10" height="10" x="70" y="150" fill="#b9185c" /><rect width="10" height="10" x="100" y="150" fill="#b9185c" /><rect width="20" height="10" x="110" y="150" fill="#ffffff" /><rect width="20" height="10" x="130" y="150" fill="#000000" /><rect width="10" height="10" x="150" y="150" fill="#b9185c" /><rect width="10" height="10" x="170" y="150" fill="#b9185c" /><rect width="20" height="10" x="180" y="150" fill="#ffffff" /><rect width="20" height="10" x="200" y="150" fill="#000000" /><rect width="10" height="10" x="220" y="150" fill="#b9185c" /><rect width="60" height="10" x="100" y="160" fill="#b9185c" /><rect width="60" height="10" x="170" y="160" fill="#b9185c" /></svg>