<svg viewBox="0 0 320 320" xmlns="http://www.w3.org/2000/svg" shape-rendering="crispEdges"><rect width="100%" height="100%" fill="#d5d7e1" /><rect width="140" height="10" x="90" y="210" fill="#caeff9" /><rect width="140" height="10" x="90" y="220" fill="#caeff9" /><rect width="140" height="10" x="90" y="230" fill="#caeff9" /><rect width="140" height="10" x="90" y="240" fill="#caeff9" /><rect width="20" height="10" x="90" y="250" fill="#caeff9" /><rect width="110" height="10" x="120" y="250" fill="#caeff9" /><rect width="20" height="10" x="90" y="260" fill="#caeff9" /><rect width="110" height="10" x="120" y="260" fill="#caeff9" /><rect width="20" height="10" x="90" y="270" fill="#caeff9" /><rect width="110" height="10" x="120" y="270" fill="#caeff9" /><rect width="20" height="10" x="90" y="280" fill="#caeff9" /><rect width="110" height="10" x="120" y="280" fill="#caeff9" /><rect width="20" height="10" x="90" y="290" fill="#caeff9" /><rect width="110" height="10" x="120" y="290" fill="#caeff9" /><rect width="20" height="10" x="90" y="300" fill="#caeff9" /><rect width="110" height="10" x="120" y="300" fill="#caeff9" /><rect width="20" height="10" x="90" y="310" fill="#caeff9" /><rect width="110" height="10" x="120" y="310" fill="#caeff9" /><rect width="10" height="10" x="160" y="230" fill="#fe500c" /><rect width="10" height="10" x="150" y="240" fill="#fe500c" /><rect width="10" height="10" x="160" y="240" fill="#ff7216" /><rect width="10" height="10" x="170" y="240" fill="#fe500c" /><rect width="30" height="10" x="130" y="250" fill="#fe500c" /><rect width="10" height="10" x="160" y="250" fill="#ff7216" /><rect width="30" height="10" x="170" y="250" fill="#fe500c" /><rect width="70" height="10" x="130" y="260" fill="#ff7216" /><rect width="10" height="10" x="150" y="270" fill="#fe500c" /><rect width="10" height="10" x="160" y="270" fill="#ff7216" /><rect width="10" height="10" x="170" y="270" fill="#fe500c" /><rect width="20" height="10" x="130" y="280" fill="#fe500c" /><rect width="10" height="10" x="150" y="280" fill="#ff7216" /><rect width="10" height="10" x="170" y="280" fill="#ff7216" /><rect width="40" height="10" x="180" y="280" fill="#fe500c" /><rect width="20" height="10" x="130" y="290" fill="#ff7216" /><rect width="30" height="10" x="180" y="290" fill="#ff7216" /><rect width="20" height="10" x="140" y="10" fill="#ffe939" /><rect width="10" height="10" x="170" y="10" fill="#fff671" /><rect width="10" height="10" x="150" y="20" fill="#ffe939" /><rect width="10" height="10" x="160" y="20" fill="#fccf25" /><rect width="10" height="10" x="140" y="30" fill="#ffffff" /><rect width="20" height="10" x="150" y="30" fill="#fff671" /><rect width="30" height="10" x="140" y="40" fill="#552d1d" /><rect width="10" height="10" x="230" y="40" fill="#552d1d" /><rect width="10" height="10" x="60" y="50" fill="#552d1d" /><rect width="40" height="10" x="100" y="50" fill="#552d1d" /><rect width="10" height="10" x="140" y="50" fill="#fccf25" /><rect width="10" height="10" x="150" y="50" fill="#4d271b" /><rect width="60" height="10" x="160" y="50" fill="#552d1d" /><rect width="10" height="10" x="220" y="50" fill="#4d271b" /><rect width="10" height="10" x="70" y="60" fill="#4d271b" /><rect width="40" height="10" x="80" y="60" fill="#552d1d" /><rect width="30" height="10" x="120" y="60" fill="#fccf25" /><rect width="50" height="10" x="150" y="60" fill="#ffb913" /><rect width="20" height="10" x="100" y="70" fill="#fccf25" /><rect width="10" height="10" x="120" y="70" fill="#fbc800" /><rect width="10" height="10" x="130" y="70" fill="#fff671" /><rect width="10" height="10" x="140" y="70" fill="#ffffff" /><rect width="10" height="10" x="150" y="70" fill="#fccf25" /><rect width="10" height="10" x="160" y="70" fill="#ffe939" /><rect width="10" height="10" x="170" y="70" fill="#fccf25" /><rect width="10" height="10" x="180" y="70" fill="#ffe939" /><rect width="10" height="10" x="190" y="70" fill="#fccf25" /><rect width="10" height="10" x="90" y="80" fill="#fff671" /><rect width="10" height="10" x="100" y="80" fill="#ffe939" /><rect width="10" height="10" x="110" y="80" fill="#d08b11" /><rect width="10" height="10" x="120" y="80" fill="#ffe939" /><rect width="10" height="10" x="130" y="80" fill="#d08b11" /><rect width="10" height="10" x="140" y="80" fill="#fff671" /><rect width="10" height="10" x="150" y="80" fill="#d08b11" /><rect width="10" height="10" x="160" y="80" fill="#ffe939" /><rect width="10" height="10" x="170" y="80" fill="#fccf25" /><rect width="10" height="10" x="180" y="80" fill="#ffe939" /><rect width="10" height="10" x="190" y="80" fill="#d08b11" /><rect width="20" height="10" x="200" y="80" fill="#fff671" /><rect width="80" height="10" x="80" y="90" fill="#552d1d" /><rect width="20" height="10" x="160" y="90" fill="#4d271b" /><rect width="40" height="10" x="180" y="90" fill="#552d1d" /><rect width="10" height="10" x="40" y="100" fill="#4d271b" /><rect width="100" height="10" x="50" y="100" fill="#552d1d" /><rect width="10" height="10" x="150" y="100" fill="#4d271b" /><rect width="40" height="10" x="160" y="100" fill="#ffb913" /><rect width="60" height="10" x="200" y="100" fill="#552d1d" /><rect width="10" height="10" x="260" y="100" fill="#4d271b" /><rect width="10" height="10" x="60" y="110" fill="#fff671" /><rect width="10" height="10" x="80" y="110" fill="#fff671" /><rect width="70" height="10" x="90" y="110" fill="#fccf25" /><rect width="10" height="10" x="160" y="110" fill="#ffffff" /><rect width="10" height="10" x="170" y="110" fill="#fff671" /><rect width="10" height="10" x="180" y="110" fill="#fbc800" /><rect width="10" height="10" x="190" y="110" fill="#fff671" /><rect width="10" height="10" x="200" y="110" fill="#ffb913" /><rect width="10" height="10" x="210" y="110" fill="#fff671" /><rect width="10" height="10" x="220" y="110" fill="#ffb913" /><rect width="10" height="10" x="230" y="110" fill="#fff671" /><rect width="10" height="10" x="60" y="120" fill="#fff671" /><rect width="10" height="10" x="80" y="120" fill="#fff671" /><rect width="40" height="10" x="90" y="120" fill="#fbc800" /><rect width="30" height="10" x="130" y="120" fill="#fff671" /><rect width="10" height="10" x="160" y="120" fill="#ffffff" /><rect width="10" height="10" x="170" y="120" fill="#fff671" /><rect width="10" height="10" x="180" y="120" fill="#fbc800" /><rect width="10" height="10" x="190" y="120" fill="#fff671" /><rect width="10" height="10" x="200" y="120" fill="#fbc800" /><rect width="10" height="10" x="210" y="120" fill="#fff671" /><rect width="10" height="10" x="220" y="120" fill="#fbc800" /><rect width="20" height="10" x="230" y="120" fill="#fff671" /><rect width="60" height="10" x="50" y="130" fill="#fff671" /><rect width="140" height="10" x="110" y="130" fill="#4d271b" /><rect width="60" height="10" x="50" y="140" fill="#4d271b" /><rect width="10" height="10" x="110" y="140" fill="#6e3206" /><rect width="10" height="10" x="120" y="140" fill="#4d271b" /><rect width="10" height="10" x="130" y="140" fill="#e8e8e2" /><rect width="10" height="10" x="140" y="140" fill="#6e3206" /><rect width="10" height="10" x="150" y="140" fill="#4d271b" /><rect width="30" height="10" x="160" y="140" fill="#ffffff" /><rect width="10" height="10" x="190" y="140" fill="#4d271b" /><rect width="10" height="10" x="200" y="140" fill="#ffffff" /><rect width="10" height="10" x="210" y="140" fill="#4d271b" /><rect width="10" height="10" x="220" y="140" fill="#ffffff" /><rect width="10" height="10" x="230" y="140" fill="#4d271b" /><rect width="10" height="10" x="60" y="150" fill="#4d271b" /><rect width="10" height="10" x="70" y="150" fill="#e8e8e2" /><rect width="10" height="10" x="80" y="150" fill="#4d271b" /><rect width="10" height="10" x="90" y="150" fill="#e8e8e2" /><rect width="10" height="10" x="100" y="150" fill="#6e3206" /><rect width="10" height="10" x="110" y="150" fill="#b87b11" /><rect width="10" height="10" x="120" y="150" fill="#4d271b" /><rect width="10" height="10" x="130" y="150" fill="#d29607" /><rect width="10" height="10" x="140" y="150" fill="#b87b11" /><rect width="10" height="10" x="150" y="150" fill="#4d271b" /><rect width="10" height="10" x="160" y="150" fill="#d29607" /><rect width="20" height="10" x="170" y="150" fill="#6e3206" /><rect width="50" height="10" x="190" y="150" fill="#4d271b" /><rect width="10" height="10" x="60" y="160" fill="#4d271b" /><rect width="10" height="10" x="80" y="160" fill="#4d271b" /><rect width="20" height="10" x="90" y="160" fill="#d29607" /><rect width="10" height="10" x="110" y="160" fill="#b87b11" /><rect width="10" height="10" x="120" y="160" fill="#4d271b" /><rect width="10" height="10" x="130" y="160" fill="#d29607" /><rect width="10" height="10" x="140" y="160" fill="#b87b11" /><rect width="10" height="10" x="150" y="160" fill="#4d271b" /><rect width="10" height="10" x="160" y="160" fill="#d29607" /><rect width="20" height="10" x="170" y="160" fill="#6e3206" /><rect width="10" height="10" x="190" y="160" fill="#4d271b" /><rect width="10" height="10" x="200" y="160" fill="#ffffff" /><rect width="10" height="10" x="210" y="160" fill="#4d271b" /><rect width="10" height="10" x="220" y="160" fill="#ffffff" /><rect width="10" height="10" x="230" y="160" fill="#4d271b" /><rect width="190" height="10" x="50" y="170" fill="#4d271b" /><rect width="10" height="10" x="50" y="180" fill="#876f69" /><rect width="10" height="10" x="60" y="180" fill="#fff0be" /><rect width="10" height="10" x="70" y="180" fill="#554543" /><rect width="10" height="10" x="80" y="180" fill="#fff0be" /><rect width="10" height="10" x="90" y="180" fill="#876f69" /><rect width="10" height="10" x="100" y="180" fill="#fff0be" /><rect width="10" height="10" x="110" y="180" fill="#876f69" /><rect width="10" height="10" x="120" y="180" fill="#fff0be" /><rect width="10" height="10" x="130" y="180" fill="#554543" /><rect width="10" height="10" x="140" y="180" fill="#fff0be" /><rect width="10" height="10" x="150" y="180" fill="#a86f60" /><rect width="80" height="10" x="160" y="180" fill="#fff0be" /><rect width="20" height="10" x="40" y="190" fill="#49b38b" /><rect width="10" height="10" x="60" y="190" fill="#d7d3cd" /><rect width="10" height="10" x="70" y="190" fill="#554543" /><rect width="10" height="10" x="80" y="190" fill="#49b38b" /><rect width="10" height="10" x="90" y="190" fill="#876f69" /><rect width="10" height="10" x="100" y="190" fill="#d7d3cd" /><rect width="10" height="10" x="110" y="190" fill="#49b38b" /><rect width="10" height="10" x="120" y="190" fill="#d7d3cd" /><rect width="10" height="10" x="130" y="190" fill="#554543" /><rect width="10" height="10" x="140" y="190" fill="#d7d3cd" /><rect width="20" height="10" x="150" y="190" fill="#49b38b" /><rect width="20" height="10" x="170" y="190" fill="#d7d3cd" /><rect width="10" height="10" x="190" y="190" fill="#49b38b" /><rect width="10" height="10" x="200" y="190" fill="#d7d3cd" /><rect width="10" height="10" x="210" y="190" fill="#49b38b" /><rect width="10" height="10" x="220" y="190" fill="#d7d3cd" /><rect width="40" height="10" x="230" y="190" fill="#49b38b" /><rect width="10" height="10" x="280" y="190" fill="#49b38b" /><rect width="20" height="10" x="50" y="200" fill="#49b38b" /><rect width="20" height="10" x="70" y="200" fill="#4d271b" /><rect width="20" height="10" x="90" y="200" fill="#49b38b" /><rect width="10" height="10" x="110" y="200" fill="#b87b11" /><rect width="10" height="10" x="120" y="200" fill="#4d271b" /><rect width="20" height="10" x="130" y="200" fill="#49b38b" /><rect width="10" height="10" x="150" y="200" fill="#4d271b" /><rect width="10" height="10" x="160" y="200" fill="#49b38b" /><rect width="20" height="10" x="170" y="200" fill="#4d271b" /><rect width="20" height="10" x="190" y="200" fill="#49b38b" /><rect width="10" height="10" x="210" y="200" fill="#4d271b" /><rect width="10" height="10" x="220" y="200" fill="#ffffff" /><rect width="20" height="10" x="230" y="200" fill="#49b38b" /><rect width="10" height="10" x="20" y="210" fill="#49b38b" /><rect width="20" height="10" x="40" y="210" fill="#49b38b" /><rect width="10" height="10" x="60" y="210" fill="#4d271b" /><rect width="10" height="10" x="70" y="210" fill="#e8e8e2" /><rect width="10" height="10" x="80" y="210" fill="#4d271b" /><rect width="20" height="10" x="90" y="210" fill="#d29607" /><rect width="10" height="10" x="110" y="210" fill="#b87b11" /><rect width="10" height="10" x="120" y="210" fill="#4d271b" /><rect width="10" height="10" x="130" y="210" fill="#d29607" /><rect width="10" height="10" x="140" y="210" fill="#49b38b" /><rect width="10" height="10" x="150" y="210" fill="#4d271b" /><rect width="10" height="10" x="160" y="210" fill="#49b38b" /><rect width="20" height="10" x="170" y="210" fill="#6e3206" /><rect width="20" height="10" x="190" y="210" fill="#4d271b" /><rect width="20" height="10" x="210" y="210" fill="#49b38b" /><rect width="10" height="10" x="230" y="210" fill="#4d271b" /><rect width="20" height="10" x="240" y="210" fill="#49b38b" /><rect width="60" height="10" x="100" y="110" fill="#4bea69" /><rect width="60" height="10" x="170" y="110" fill="#4bea69" /><rect width="10" height="10" x="100" y="120" fill="#4bea69" /><rect width="20" height="10" x="110" y="120" fill="#ffffff" /><rect width="20" height="10" x="130" y="120" fill="#000000" /><rect width="10" height="10" x="150" y="120" fill="#4bea69" /><rect width="10" height="10" x="170" y="120" fill="#4bea69" /><rect width="20" height="10" x="180" y="120" fill="#ffffff" /><rect width="20" height="10" x="200" y="120" fill="#000000" /><rect width="10" height="10" x="220" y="120" fill="#4bea69" /><rect width="40" height="10" x="70" y="130" fill="#4bea69" /><rect width="20" height="10" x="110" y="130" fill="#ffffff" /><rect width="20" height="10" x="130" y="130" fill="#000000" /><rect width="30" height="10" x="150" y="130" fill="#4bea69" /><rect width="20" height="10" x="180" y="130" fill="#ffffff" /><rect width="20" height="10" x="200" y="130" fill="#000000" /><rect width="10" height="10" x="220" y="130" fill="#4bea69" /><rect width="10" height="10" x="70" y="140" fill="#4bea69" /><rect width="10" height="10" x="100" y="140" fill="#4bea69" /><rect width="20" height="10" x="110" y="140" fill="#ffffff" /><rect width="20" height="10" x="130" y="140" fill="#000000" /><rect width="10" height="10" x="150" y="140" fill="#4bea69" /><rect width="10" height="10" x="170" y="140" fill="#4bea69" /><rect width="20" height="10" x="180" y="140" fill="#ffffff" /><rect width="20" height="10" x="200" y="140" fill="#000000" /><rect width="10" height="10" x="220" y="140" fill="#4bea69" /><rect width="10" height="10" x="70" y="150" fill="#4bea69" /><rect width="10" height="10" x="100" y="150" fill="#4bea69" /><rect width="20" height="10" x="110" y="150" fill="#ffffff" /><rect width="20" height="10" x="130" y="150" fill="#000000" /><rect width="10" height="10" x="150" y="150" fill="#4bea69" /><rect width="10" height="10" x="170" y="150" fill="#4bea69" /><rect width="20" height="10" x="180" y="150" fill="#ffffff" /><rect width="20" height="10" x="200" y="150" fill="#000000" /><rect width="10" height="10" x="220" y="150" fill="#4bea69" /><rect width="60" height="10" x="100" y="160" fill="#4bea69" /><rect width="60" height="10" x="170" y="160" fill="#4bea69" /></svg>