<svg viewBox="0 0 320 320" xmlns="http://www.w3.org/2000/svg" shape-rendering="crispEdges"><rect width="100%" height="100%" fill="#e1d7d5" /><rect width="140" height="10" x="90" y="210" fill="#5648ed" /><rect width="140" height="10" x="90" y="220" fill="#5648ed" /><rect width="140" height="10" x="90" y="230" fill="#5648ed" /><rect width="140" height="10" x="90" y="240" fill="#5648ed" /><rect width="20" height="10" x="90" y="250" fill="#5648ed" /><rect width="110" height="10" x="120" y="250" fill="#5648ed" /><rect width="20" height="10" x="90" y="260" fill="#5648ed" /><rect width="110" height="10" x="120" y="260" fill="#5648ed" /><rect width="20" height="10" x="90" y="270" fill="#5648ed" /><rect width="110" height="10" x="120" y="270" fill="#5648ed" /><rect width="20" height="10" x="90" y="280" fill="#5648ed" /><rect width="110" height="10" x="120" y="280" fill="#5648ed" /><rect width="20" height="10" x="90" y="290" fill="#5648ed" /><rect width="110" height="10" x="120" y="290" fill="#5648ed" /><rect width="20" height="10" x="90" y="300" fill="#5648ed" /><rect width="110" height="10" x="120" y="300" fill="#5648ed" /><rect width="20" height="10" x="90" y="310" fill="#5648ed" /><rect width="110" height="10" x="120" y="310" fill="#5648ed" /><rect width="20" height="10" x="130" y="260" fill="#abf131" /><rect width="20" height="10" x="160" y="260" fill="#fccf25" /><rect width="20" height="10" x="190" y="260" fill="#d56333" /><rect width="20" height="10" x="130" y="270" fill="#abf131" /><rect width="20" height="10" x="160" y="270" fill="#fccf25" /><rect width="20" height="10" x="190" y="270" fill="#d56333" /><rect width="60" height="10" x="130" y="40" fill="#d32a09" /><rect width="20" height="10" x="110" y="50" fill="#d32a09" /><rect width="60" height="10" x="130" y="50" fill="#ffffff" /><rect width="20" height="10" x="190" y="50" fill="#d32a09" /><rect width="20" height="10" x="90" y="60" fill="#d32a09" /><rect width="100" height="10" x="110" y="60" fill="#ffffff" /><rect width="20" height="10" x="210" y="60" fill="#d32a09" /><rect width="10" height="10" x="80" y="70" fill="#d32a09" /><rect width="40" height="10" x="90" y="70" fill="#ffffff" /><rect width="60" height="10" x="130" y="70" fill="#caa26a" /><rect width="40" height="10" x="190" y="70" fill="#ffffff" /><rect width="10" height="10" x="230" y="70" fill="#d32a09" /><rect width="10" height="10" x="70" y="80" fill="#d32a09" /><rect width="30" height="10" x="80" y="80" fill="#ffffff" /><rect width="20" height="10" x="110" y="80" fill="#caa26a" /><rect width="10" height="10" x="130" y="80" fill="#f8d689" /><rect width="10" height="10" x="140" y="80" fill="#caa26a" /><rect width="10" height="10" x="150" y="80" fill="#efad81" /><rect width="20" height="10" x="160" y="80" fill="#f8d689" /><rect width="30" height="10" x="180" y="80" fill="#caa26a" /><rect width="30" height="10" x="210" y="80" fill="#ffffff" /><rect width="10" height="10" x="240" y="80" fill="#d32a09" /><rect width="10" height="10" x="60" y="90" fill="#d32a09" /><rect width="20" height="10" x="70" y="90" fill="#ffffff" /><rect width="30" height="10" x="90" y="90" fill="#caa26a" /><rect width="20" height="10" x="120" y="90" fill="#f8d689" /><rect width="30" height="10" x="140" y="90" fill="#efad81" /><rect width="10" height="10" x="170" y="90" fill="#caa26a" /><rect width="10" height="10" x="180" y="90" fill="#f8d689" /><rect width="20" height="10" x="190" y="90" fill="#eab118" /><rect width="20" height="10" x="210" y="90" fill="#caa26a" /><rect width="20" height="10" x="230" y="90" fill="#ffffff" /><rect width="10" height="10" x="250" y="90" fill="#d32a09" /><rect width="10" height="10" x="60" y="100" fill="#d32a09" /><rect width="10" height="10" x="70" y="100" fill="#ffffff" /><rect width="20" height="10" x="80" y="100" fill="#caa26a" /><rect width="20" height="10" x="100" y="100" fill="#efad81" /><rect width="10" height="10" x="120" y="100" fill="#f8d689" /><rect width="40" height="10" x="130" y="100" fill="#efad81" /><rect width="10" height="10" x="170" y="100" fill="#068940" /><rect width="30" height="10" x="180" y="100" fill="#eab118" /><rect width="10" height="10" x="210" y="100" fill="#f8d689" /><rect width="20" height="10" x="220" y="100" fill="#caa26a" /><rect width="10" height="10" x="240" y="100" fill="#ffffff" /><rect width="10" height="10" x="250" y="100" fill="#d32a09" /><rect width="10" height="10" x="50" y="110" fill="#d32a09" /><rect width="20" height="10" x="60" y="110" fill="#ffffff" /><rect width="10" height="10" x="80" y="110" fill="#caa26a" /><rect width="60" height="10" x="90" y="110" fill="#efad81" /><rect width="30" height="10" x="150" y="110" fill="#068940" /><rect width="10" height="10" x="180" y="110" fill="#efad81" /><rect width="20" height="10" x="190" y="110" fill="#eab118" /><rect width="20" height="10" x="210" y="110" fill="#f8d689" /><rect width="10" height="10" x="230" y="110" fill="#caa26a" /><rect width="20" height="10" x="240" y="110" fill="#ffffff" /><rect width="10" height="10" x="260" y="110" fill="#d32a09" /><rect width="10" height="10" x="50" y="120" fill="#d32a09" /><rect width="10" height="10" x="60" y="120" fill="#ffffff" /><rect width="10" height="10" x="70" y="120" fill="#caa26a" /><rect width="70" height="10" x="80" y="120" fill="#efad81" /><rect width="30" height="10" x="150" y="120" fill="#068940" /><rect width="40" height="10" x="180" y="120" fill="#f8d689" /><rect width="30" height="10" x="220" y="120" fill="#caa26a" /><rect width="10" height="10" x="250" y="120" fill="#ffffff" /><rect width="10" height="10" x="260" y="120" fill="#d32a09" /><rect width="10" height="10" x="50" y="130" fill="#d32a09" /><rect width="10" height="10" x="60" y="130" fill="#ffffff" /><rect width="10" height="10" x="70" y="130" fill="#caa26a" /><rect width="60" height="10" x="80" y="130" fill="#efad81" /><rect width="40" height="10" x="140" y="130" fill="#068940" /><rect width="60" height="10" x="180" y="130" fill="#f8d689" /><rect width="10" height="10" x="240" y="130" fill="#caa26a" /><rect width="10" height="10" x="250" y="130" fill="#ffffff" /><rect width="10" height="10" x="260" y="130" fill="#d32a09" /><rect width="10" height="10" x="50" y="140" fill="#d32a09" /><rect width="10" height="10" x="60" y="140" fill="#ffffff" /><rect width="20" height="10" x="70" y="140" fill="#caa26a" /><rect width="50" height="10" x="90" y="140" fill="#efad81" /><rect width="40" height="10" x="140" y="140" fill="#068940" /><rect width="60" height="10" x="180" y="140" fill="#f8d689" /><rect width="10" height="10" x="240" y="140" fill="#caa26a" /><rect width="10" height="10" x="250" y="140" fill="#ffffff" /><rect width="10" height="10" x="260" y="140" fill="#d32a09" /><rect width="10" height="10" x="50" y="150" fill="#d32a09" /><rect width="20" height="10" x="60" y="150" fill="#ffffff" /><rect width="10" height="10" x="80" y="150" fill="#caa26a" /><rect width="10" height="10" x="90" y="150" fill="#f8d689" /><rect width="40" height="10" x="100" y="150" fill="#efad81" /><rect width="40" height="10" x="140" y="150" fill="#068940" /><rect width="50" height="10" x="180" y="150" fill="#f8d689" /><rect width="10" height="10" x="230" y="150" fill="#caa26a" /><rect width="20" height="10" x="240" y="150" fill="#ffffff" /><rect width="10" height="10" x="260" y="150" fill="#d32a09" /><rect width="10" height="10" x="60" y="160" fill="#d32a09" /><rect width="10" height="10" x="70" y="160" fill="#ffffff" /><rect width="10" height="10" x="80" y="160" fill="#caa26a" /><rect width="60" height="10" x="90" y="160" fill="#efad81" /><rect width="70" height="10" x="150" y="160" fill="#f8d689" /><rect width="20" height="10" x="220" y="160" fill="#caa26a" /><rect width="10" height="10" x="240" y="160" fill="#ffffff" /><rect width="10" height="10" x="250" y="160" fill="#d32a09" /><rect width="10" height="10" x="60" y="170" fill="#d32a09" /><rect width="20" height="10" x="70" y="170" fill="#ffffff" /><rect width="10" height="10" x="90" y="170" fill="#caa26a" /><rect width="40" height="10" x="100" y="170" fill="#efad81" /><rect width="10" height="10" x="140" y="170" fill="#f8d689" /><rect width="20" height="10" x="150" y="170" fill="#fa6fe2" /><rect width="10" height="10" x="170" y="170" fill="#caa26a" /><rect width="20" height="10" x="180" y="170" fill="#f8d689" /><rect width="10" height="10" x="200" y="170" fill="#caa26a" /><rect width="10" height="10" x="210" y="170" fill="#f8d689" /><rect width="10" height="10" x="220" y="170" fill="#caa26a" /><rect width="20" height="10" x="230" y="170" fill="#ffffff" /><rect width="10" height="10" x="250" y="170" fill="#d32a09" /><rect width="10" height="10" x="70" y="180" fill="#d32a09" /><rect width="20" height="10" x="80" y="180" fill="#ffffff" /><rect width="10" height="10" x="100" y="180" fill="#caa26a" /><rect width="20" height="10" x="110" y="180" fill="#efad81" /><rect width="10" height="10" x="130" y="180" fill="#f8d689" /><rect width="10" height="10" x="140" y="180" fill="#fa6fe2" /><rect width="20" height="10" x="150" y="180" fill="#fffdf4" /><rect width="10" height="10" x="170" y="180" fill="#fa6fe2" /><rect width="10" height="10" x="180" y="180" fill="#caa26a" /><rect width="20" height="10" x="190" y="180" fill="#f8d689" /><rect width="10" height="10" x="210" y="180" fill="#caa26a" /><rect width="20" height="10" x="220" y="180" fill="#ffffff" /><rect width="10" height="10" x="240" y="180" fill="#d32a09" /><rect width="10" height="10" x="80" y="190" fill="#d32a09" /><rect width="20" height="10" x="90" y="190" fill="#ffffff" /><rect width="20" height="10" x="110" y="190" fill="#caa26a" /><rect width="10" height="10" x="130" y="190" fill="#f8d689" /><rect width="10" height="10" x="140" y="190" fill="#fa6fe2" /><rect width="20" height="10" x="150" y="190" fill="#fffdf4" /><rect width="10" height="10" x="170" y="190" fill="#fa6fe2" /><rect width="10" height="10" x="180" y="190" fill="#f8d689" /><rect width="20" height="10" x="190" y="190" fill="#caa26a" /><rect width="20" height="10" x="210" y="190" fill="#ffffff" /><rect width="10" height="10" x="230" y="190" fill="#d32a09" /><rect width="10" height="10" x="90" y="200" fill="#d32a09" /><rect width="30" height="10" x="100" y="200" fill="#ffffff" /><rect width="20" height="10" x="130" y="200" fill="#caa26a" /><rect width="20" height="10" x="150" y="200" fill="#fa6fe2" /><rect width="20" height="10" x="170" y="200" fill="#caa26a" /><rect width="30" height="10" x="190" y="200" fill="#ffffff" /><rect width="10" height="10" x="220" y="200" fill="#d32a09" /><rect width="10" height="10" x="110" y="210" fill="#d32a09" /><rect width="80" height="10" x="120" y="210" fill="#ffffff" /><rect width="10" height="10" x="200" y="210" fill="#d32a09" /><rect width="60" height="10" x="100" y="110" fill="#ff638d" /><rect width="60" height="10" x="170" y="110" fill="#ff638d" /><rect width="10" height="10" x="100" y="120" fill="#ff638d" /><rect width="20" height="10" x="110" y="120" fill="#ffffff" /><rect width="20" height="10" x="130" y="120" fill="#000000" /><rect width="10" height="10" x="150" y="120" fill="#ff638d" /><rect width="10" height="10" x="170" y="120" fill="#ff638d" /><rect width="20" height="10" x="180" y="120" fill="#ffffff" /><rect width="20" height="10" x="200" y="120" fill="#000000" /><rect width="10" height="10" x="220" y="120" fill="#ff638d" /><rect width="40" height="10" x="70" y="130" fill="#ff638d" /><rect width="20" height="10" x="110" y="130" fill="#ffffff" /><rect width="20" height="10" x="130" y="130" fill="#000000" /><rect width="30" height="10" x="150" y="130" fill="#ff638d" /><rect width="20" height="10" x="180" y="130" fill="#ffffff" /><rect width="20" height="10" x="200" y="130" fill="#000000" /><rect width="10" height="10" x="220" y="130" fill="#ff638d" /><rect width="40" height="10" x="70" y="140" fill="#ff638d" /><rect width="20" height="10" x="110" y="140" fill="#ffffff" /><rect width="20" height="10" x="130" y="140" fill="#000000" /><rect width="30" height="10" x="150" y="140" fill="#ff638d" /><rect width="20" height="10" x="180" y="140" fill="#ffffff" /><rect width="20" height="10" x="200" y="140" fill="#000000" /><rect width="10" height="10" x="220" y="140" fill="#ff638d" /><rect width="10" height="10" x="70" y="150" fill="#ff638d" /><rect width="10" height="10" x="100" y="150" fill="#ff638d" /><rect width="20" height="10" x="110" y="150" fill="#ffffff" /><rect width="20" height="10" x="130" y="150" fill="#000000" /><rect width="10" height="10" x="150" y="150" fill="#ff638d" /><rect width="10" height="10" x="170" y="150" fill="#ff638d" /><rect width="20" height="10" x="180" y="150" fill="#ffffff" /><rect width="20" height="10" x="200" y="150" fill="#000000" /><rect width="10" height="10" x="220" y="150" fill="#ff638d" /><rect width="60" height="10" x="100" y="160" fill="#ff638d" /><rect width="60" height="10" x="170" y="160" fill="#ff638d" /></svg>