<svg viewBox="0 0 320 320" xmlns="http://www.w3.org/2000/svg" shape-rendering="crispEdges"><rect width="100%" height="100%" fill="#d5d7e1" /><rect width="140" height="10" x="90" y="210" fill="#fffdf2" /><rect width="140" height="10" x="90" y="220" fill="#fffdf2" /><rect width="140" height="10" x="90" y="230" fill="#fffdf2" /><rect width="140" height="10" x="90" y="240" fill="#fffdf2" /><rect width="20" height="10" x="90" y="250" fill="#fffdf2" /><rect width="110" height="10" x="120" y="250" fill="#fffdf2" /><rect width="20" height="10" x="90" y="260" fill="#fffdf2" /><rect width="110" height="10" x="120" y="260" fill="#fffdf2" /><rect width="20" height="10" x="90" y="270" fill="#fffdf2" /><rect width="110" height="10" x="120" y="270" fill="#fffdf2" /><rect width="20" height="10" x="90" y="280" fill="#fffdf2" /><rect width="110" height="10" x="120" y="280" fill="#fffdf2" /><rect width="20" height="10" x="90" y="290" fill="#fffdf2" /><rect width="110" height="10" x="120" y="290" fill="#fffdf2" /><rect width="20" height="10" x="90" y="300" fill="#fffdf2" /><rect width="110" height="10" x="120" y="300" fill="#fffdf2" /><rect width="20" height="10" x="90" y="310" fill="#fffdf2" /><rect width="110" height="10" x="120" y="310" fill="#fffdf2" /><rect width="30" height="10" x="150" y="240" fill="#fffdf4" /><rect width="20" height="10" x="140" y="250" fill="#fffdf4" /><rect width="10" height="10" x="160" y="250" fill="#7e5243" /><rect width="20" height="10" x="170" y="250" fill="#fffdf4" /><rect width="10" height="10" x="140" y="260" fill="#fffdf4" /><rect width="10" height="10" x="150" y="260" fill="#7e5243" /><rect width="10" height="10" x="160" y="260" fill="#fffdf4" /><rect width="10" height="10" x="170" y="260" fill="#7e5243" /><rect width="10" height="10" x="180" y="260" fill="#fffdf4" /><rect width="10" height="10" x="140" y="270" fill="#fffdf4" /><rect width="20" height="10" x="150" y="270" fill="#7e5243" /><rect width="20" height="10" x="170" y="270" fill="#fffdf4" /><rect width="30" height="10" x="150" y="280" fill="#fffdf4" /><rect width="60" height="10" x="130" y="40" fill="#1e3445" /><rect width="20" height="10" x="110" y="50" fill="#1e3445" /><rect width="60" height="10" x="130" y="50" fill="#ffffff" /><rect width="20" height="10" x="190" y="50" fill="#1e3445" /><rect width="20" height="10" x="90" y="60" fill="#1e3445" /><rect width="100" height="10" x="110" y="60" fill="#ffffff" /><rect width="20" height="10" x="210" y="60" fill="#1e3445" /><rect width="10" height="10" x="80" y="70" fill="#1e3445" /><rect width="40" height="10" x="90" y="70" fill="#ffffff" /><rect width="60" height="10" x="130" y="70" fill="#f8ddb0" /><rect width="40" height="10" x="190" y="70" fill="#ffffff" /><rect width="10" height="10" x="230" y="70" fill="#1e3445" /><rect width="10" height="10" x="70" y="80" fill="#1e3445" /><rect width="30" height="10" x="80" y="80" fill="#ffffff" /><rect width="40" height="10" x="110" y="80" fill="#f8ddb0" /><rect width="30" height="10" x="150" y="80" fill="#a86f60" /><rect width="30" height="10" x="180" y="80" fill="#f8ddb0" /><rect width="30" height="10" x="210" y="80" fill="#ffffff" /><rect width="10" height="10" x="240" y="80" fill="#1e3445" /><rect width="10" height="10" x="60" y="90" fill="#1e3445" /><rect width="20" height="10" x="70" y="90" fill="#ffffff" /><rect width="10" height="10" x="90" y="90" fill="#f8ddb0" /><rect width="30" height="10" x="100" y="90" fill="#a86f60" /><rect width="10" height="10" x="130" y="90" fill="#f8ddb0" /><rect width="10" height="10" x="140" y="90" fill="#a86f60" /><rect width="40" height="10" x="150" y="90" fill="#eeb78c" /><rect width="40" height="10" x="190" y="90" fill="#f8ddb0" /><rect width="20" height="10" x="230" y="90" fill="#ffffff" /><rect width="10" height="10" x="250" y="90" fill="#1e3445" /><rect width="10" height="10" x="60" y="100" fill="#1e3445" /><rect width="10" height="10" x="70" y="100" fill="#ffffff" /><rect width="10" height="10" x="80" y="100" fill="#f8ddb0" /><rect width="10" height="10" x="90" y="100" fill="#a86f60" /><rect width="40" height="10" x="100" y="100" fill="#eeb78c" /><rect width="10" height="10" x="140" y="100" fill="#a86f60" /><rect width="50" height="10" x="150" y="100" fill="#eeb78c" /><rect width="10" height="10" x="200" y="100" fill="#fff0be" /><rect width="30" height="10" x="210" y="100" fill="#f8ddb0" /><rect width="10" height="10" x="240" y="100" fill="#ffffff" /><rect width="10" height="10" x="250" y="100" fill="#1e3445" /><rect width="10" height="10" x="50" y="110" fill="#1e3445" /><rect width="20" height="10" x="60" y="110" fill="#ffffff" /><rect width="10" height="10" x="80" y="110" fill="#f8ddb0" /><rect width="10" height="10" x="90" y="110" fill="#a86f60" /><rect width="40" height="10" x="100" y="110" fill="#eeb78c" /><rect width="10" height="10" x="140" y="110" fill="#a86f60" /><rect width="50" height="10" x="150" y="110" fill="#eeb78c" /><rect width="30" height="10" x="200" y="110" fill="#fff0be" /><rect width="10" height="10" x="230" y="110" fill="#f8ddb0" /><rect width="20" height="10" x="240" y="110" fill="#ffffff" /><rect width="10" height="10" x="260" y="110" fill="#1e3445" /><rect width="10" height="10" x="50" y="120" fill="#1e3445" /><rect width="10" height="10" x="60" y="120" fill="#ffffff" /><rect width="20" height="10" x="70" y="120" fill="#f8ddb0" /><rect width="10" height="10" x="90" y="120" fill="#a86f60" /><rect width="40" height="10" x="100" y="120" fill="#eeb78c" /><rect width="10" height="10" x="140" y="120" fill="#a86f60" /><rect width="50" height="10" x="150" y="120" fill="#eeb78c" /><rect width="30" height="10" x="200" y="120" fill="#fff0be" /><rect width="10" height="10" x="230" y="120" fill="#f8ddb0" /><rect width="10" height="10" x="240" y="120" fill="#fff0be" /><rect width="10" height="10" x="250" y="120" fill="#ffffff" /><rect width="10" height="10" x="260" y="120" fill="#1e3445" /><rect width="10" height="10" x="50" y="130" fill="#1e3445" /><rect width="10" height="10" x="60" y="130" fill="#ffffff" /><rect width="20" height="10" x="70" y="130" fill="#f8ddb0" /><rect width="10" height="10" x="90" y="130" fill="#a86f60" /><rect width="50" height="10" x="100" y="130" fill="#eeb78c" /><rect width="10" height="10" x="150" y="130" fill="#068940" /><rect width="30" height="10" x="160" y="130" fill="#eeb78c" /><rect width="50" height="10" x="190" y="130" fill="#fff0be" /><rect width="10" height="10" x="240" y="130" fill="#f8ddb0" /><rect width="10" height="10" x="250" y="130" fill="#ffffff" /><rect width="10" height="10" x="260" y="130" fill="#1e3445" /><rect width="10" height="10" x="50" y="140" fill="#1e3445" /><rect width="10" height="10" x="60" y="140" fill="#ffffff" /><rect width="20" height="10" x="70" y="140" fill="#f8ddb0" /><rect width="10" height="10" x="90" y="140" fill="#068940" /><rect width="10" height="10" x="100" y="140" fill="#a86f60" /><rect width="30" height="10" x="110" y="140" fill="#eeb78c" /><rect width="20" height="10" x="140" y="140" fill="#068940" /><rect width="10" height="10" x="160" y="140" fill="#c4da53" /><rect width="70" height="10" x="170" y="140" fill="#fff0be" /><rect width="10" height="10" x="240" y="140" fill="#f8ddb0" /><rect width="10" height="10" x="250" y="140" fill="#ffffff" /><rect width="10" height="10" x="260" y="140" fill="#1e3445" /><rect width="10" height="10" x="50" y="150" fill="#1e3445" /><rect width="20" height="10" x="60" y="150" fill="#ffffff" /><rect width="90" height="10" x="80" y="150" fill="#068940" /><rect width="70" height="10" x="170" y="150" fill="#fff0be" /><rect width="20" height="10" x="240" y="150" fill="#ffffff" /><rect width="10" height="10" x="260" y="150" fill="#1e3445" /><rect width="10" height="10" x="60" y="160" fill="#1e3445" /><rect width="10" height="10" x="70" y="160" fill="#ffffff" /><rect width="10" height="10" x="80" y="160" fill="#f8ddb0" /><rect width="20" height="10" x="90" y="160" fill="#c4da53" /><rect width="30" height="10" x="110" y="160" fill="#068940" /><rect width="80" height="10" x="140" y="160" fill="#fff0be" /><rect width="20" height="10" x="220" y="160" fill="#f8ddb0" /><rect width="10" height="10" x="240" y="160" fill="#ffffff" /><rect width="10" height="10" x="250" y="160" fill="#1e3445" /><rect width="10" height="10" x="60" y="170" fill="#1e3445" /><rect width="20" height="10" x="70" y="170" fill="#ffffff" /><rect width="10" height="10" x="90" y="170" fill="#f8ddb0" /><rect width="10" height="10" x="100" y="170" fill="#068940" /><rect width="10" height="10" x="110" y="170" fill="#c4da53" /><rect width="10" height="10" x="120" y="170" fill="#068940" /><rect width="10" height="10" x="130" y="170" fill="#c4da53" /><rect width="10" height="10" x="140" y="170" fill="#f8ddb0" /><rect width="10" height="10" x="150" y="170" fill="#fff0be" /><rect width="10" height="10" x="160" y="170" fill="#f8ddb0" /><rect width="20" height="10" x="170" y="170" fill="#fff0be" /><rect width="10" height="10" x="190" y="170" fill="#f8ddb0" /><rect width="10" height="10" x="200" y="170" fill="#fff0be" /><rect width="20" height="10" x="210" y="170" fill="#f8ddb0" /><rect width="20" height="10" x="230" y="170" fill="#ffffff" /><rect width="10" height="10" x="250" y="170" fill="#1e3445" /><rect width="10" height="10" x="70" y="180" fill="#1e3445" /><rect width="20" height="10" x="80" y="180" fill="#ffffff" /><rect width="20" height="10" x="100" y="180" fill="#f8ddb0" /><rect width="10" height="10" x="120" y="180" fill="#fff0be" /><rect width="10" height="10" x="130" y="180" fill="#f8ddb0" /><rect width="20" height="10" x="140" y="180" fill="#552d1d" /><rect width="10" height="10" x="160" y="180" fill="#f8ddb0" /><rect width="20" height="10" x="170" y="180" fill="#552d1d" /><rect width="30" height="10" x="190" y="180" fill="#f8ddb0" /><rect width="20" height="10" x="220" y="180" fill="#ffffff" /><rect width="10" height="10" x="240" y="180" fill="#1e3445" /><rect width="10" height="10" x="80" y="190" fill="#1e3445" /><rect width="20" height="10" x="90" y="190" fill="#ffffff" /><rect width="40" height="10" x="110" y="190" fill="#f8ddb0" /><rect width="30" height="10" x="150" y="190" fill="#552d1d" /><rect width="30" height="10" x="180" y="190" fill="#f8ddb0" /><rect width="20" height="10" x="210" y="190" fill="#ffffff" /><rect width="10" height="10" x="230" y="190" fill="#1e3445" /><rect width="10" height="10" x="90" y="200" fill="#1e3445" /><rect width="30" height="10" x="100" y="200" fill="#ffffff" /><rect width="60" height="10" x="130" y="200" fill="#f8ddb0" /><rect width="30" height="10" x="190" y="200" fill="#ffffff" /><rect width="10" height="10" x="220" y="200" fill="#1e3445" /><rect width="10" height="10" x="110" y="210" fill="#1e3445" /><rect width="80" height="10" x="120" y="210" fill="#ffffff" /><rect width="10" height="10" x="200" y="210" fill="#1e3445" /><rect width="60" height="10" x="100" y="110" fill="#d19a54" /><rect width="60" height="10" x="170" y="110" fill="#d19a54" /><rect width="10" height="10" x="100" y="120" fill="#d19a54" /><rect width="20" height="10" x="110" y="120" fill="#ffffff" /><rect width="20" height="10" x="130" y="120" fill="#000000" /><rect width="10" height="10" x="150" y="120" fill="#d19a54" /><rect width="10" height="10" x="170" y="120" fill="#d19a54" /><rect width="20" height="10" x="180" y="120" fill="#ffffff" /><rect width="20" height="10" x="200" y="120" fill="#000000" /><rect width="10" height="10" x="220" y="120" fill="#d19a54" /><rect width="40" height="10" x="70" y="130" fill="#d19a54" /><rect width="20" height="10" x="110" y="130" fill="#ffffff" /><rect width="20" height="10" x="130" y="130" fill="#000000" /><rect width="30" height="10" x="150" y="130" fill="#d19a54" /><rect width="20" height="10" x="180" y="130" fill="#ffffff" /><rect width="20" height="10" x="200" y="130" fill="#000000" /><rect width="10" height="10" x="220" y="130" fill="#d19a54" /><rect width="10" height="10" x="70" y="140" fill="#d19a54" /><rect width="10" height="10" x="100" y="140" fill="#d19a54" /><rect width="20" height="10" x="110" y="140" fill="#ffffff" /><rect width="20" height="10" x="130" y="140" fill="#000000" /><rect width="10" height="10" x="150" y="140" fill="#d19a54" /><rect width="10" height="10" x="170" y="140" fill="#d19a54" /><rect width="20" height="10" x="180" y="140" fill="#ffffff" /><rect width="20" height="10" x="200" y="140" fill="#000000" /><rect width="10" height="10" x="220" y="140" fill="#d19a54" /><rect width="10" height="10" x="70" y="150" fill="#d19a54" /><rect width="10" height="10" x="100" y="150" fill="#d19a54" /><rect width="20" height="10" x="110" y="150" fill="#ffffff" /><rect width="20" height="10" x="130" y="150" fill="#000000" /><rect width="10" height="10" x="150" y="150" fill="#d19a54" /><rect width="10" height="10" x="170" y="150" fill="#d19a54" /><rect width="20" height="10" x="180" y="150" fill="#ffffff" /><rect width="20" height="10" x="200" y="150" fill="#000000" /><rect width="10" height="10" x="220" y="150" fill="#d19a54" /><rect width="60" height="10" x="100" y="160" fill="#d19a54" /><rect width="60" height="10" x="170" y="160" fill="#d19a54" /></svg>