<svg viewBox="0 0 320 320" xmlns="http://www.w3.org/2000/svg" shape-rendering="crispEdges"><rect width="100%" height="100%" fill="#d5d7e1" /><rect width="140" height="10" x="90" y="210" fill="#5a65fa" /><rect width="140" height="10" x="90" y="220" fill="#5a65fa" /><rect width="140" height="10" x="90" y="230" fill="#5a65fa" /><rect width="140" height="10" x="90" y="240" fill="#5a65fa" /><rect width="20" height="10" x="90" y="250" fill="#5a65fa" /><rect width="110" height="10" x="120" y="250" fill="#5a65fa" /><rect width="20" height="10" x="90" y="260" fill="#5a65fa" /><rect width="110" height="10" x="120" y="260" fill="#5a65fa" /><rect width="20" height="10" x="90" y="270" fill="#5a65fa" /><rect width="110" height="10" x="120" y="270" fill="#5a65fa" /><rect width="20" height="10" x="90" y="280" fill="#5a65fa" /><rect width="110" height="10" x="120" y="280" fill="#5a65fa" /><rect width="20" height="10" x="90" y="290" fill="#5a65fa" /><rect width="110" height="10" x="120" y="290" fill="#5a65fa" /><rect width="20" height="10" x="90" y="300" fill="#5a65fa" /><rect width="110" height="10" x="120" y="300" fill="#5a65fa" /><rect width="20" height="10" x="90" y="310" fill="#5a65fa" /><rect width="110" height="10" x="120" y="310" fill="#5a65fa" /><rect width="30" height="10" x="200" y="230" fill="#909b0e" /><rect width="30" height="10" x="200" y="240" fill="#3f9323" /><rect width="70" height="10" x="160" y="250" fill="#909b0e" /><rect width="70" height="10" x="160" y="260" fill="#3f9323" /><rect width="80" height="10" x="120" y="270" fill="#909b0e" /><rect width="80" height="10" x="120" y="280" fill="#3f9323" /><rect width="40" height="10" x="120" y="290" fill="#909b0e" /><rect width="40" height="10" x="120" y="300" fill="#3f9323" /><rect width="10" height="10" x="170" y="20" fill="#903707" /><rect width="20" height="10" x="160" y="30" fill="#903707" /><rect width="10" height="10" x="80" y="40" fill="#903707" /><rect width="10" height="10" x="150" y="40" fill="#903707" /><rect width="10" height="10" x="160" y="40" fill="#fff0be" /><rect width="10" height="10" x="170" y="40" fill="#903707" /><rect width="10" height="10" x="90" y="50" fill="#903707" /><rect width="10" height="10" x="140" y="50" fill="#903707" /><rect width="10" height="10" x="150" y="50" fill="#c16710" /><rect width="10" height="10" x="160" y="50" fill="#fff0be" /><rect width="10" height="10" x="170" y="50" fill="#903707" /><rect width="30" height="10" x="210" y="50" fill="#903707" /><rect width="10" height="10" x="250" y="50" fill="#903707" /><rect width="10" height="10" x="80" y="60" fill="#903707" /><rect width="10" height="10" x="90" y="60" fill="#fff0be" /><rect width="10" height="10" x="100" y="60" fill="#903707" /><rect width="10" height="10" x="110" y="60" fill="#fff0be" /><rect width="10" height="10" x="140" y="60" fill="#c16710" /><rect width="10" height="10" x="150" y="60" fill="#fff0be" /><rect width="10" height="10" x="160" y="60" fill="#c16710" /><rect width="10" height="10" x="170" y="60" fill="#903707" /><rect width="10" height="10" x="200" y="60" fill="#903707" /><rect width="10" height="10" x="210" y="60" fill="#fff0be" /><rect width="10" height="10" x="220" y="60" fill="#c16710" /><rect width="10" height="10" x="230" y="60" fill="#fff0be" /><rect width="10" height="10" x="240" y="60" fill="#903707" /><rect width="10" height="10" x="80" y="70" fill="#903707" /><rect width="10" height="10" x="90" y="70" fill="#c16710" /><rect width="10" height="10" x="100" y="70" fill="#fff0be" /><rect width="10" height="10" x="110" y="70" fill="#903707" /><rect width="10" height="10" x="120" y="70" fill="#fff0be" /><rect width="20" height="10" x="140" y="70" fill="#c16710" /><rect width="10" height="10" x="160" y="70" fill="#fff0be" /><rect width="10" height="10" x="170" y="70" fill="#903707" /><rect width="10" height="10" x="200" y="70" fill="#c16710" /><rect width="20" height="10" x="210" y="70" fill="#fff0be" /><rect width="10" height="10" x="230" y="70" fill="#903707" /><rect width="10" height="10" x="80" y="80" fill="#903707" /><rect width="30" height="10" x="90" y="80" fill="#fff0be" /><rect width="10" height="10" x="120" y="80" fill="#903707" /><rect width="20" height="10" x="130" y="80" fill="#fff0be" /><rect width="10" height="10" x="150" y="80" fill="#c16710" /><rect width="10" height="10" x="160" y="80" fill="#fff0be" /><rect width="10" height="10" x="170" y="80" fill="#c16710" /><rect width="10" height="10" x="190" y="80" fill="#903707" /><rect width="20" height="10" x="200" y="80" fill="#fff0be" /><rect width="10" height="10" x="220" y="80" fill="#903707" /><rect width="10" height="10" x="230" y="80" fill="#fff0be" /><rect width="10" height="10" x="90" y="90" fill="#903707" /><rect width="10" height="10" x="100" y="90" fill="#c16710" /><rect width="20" height="10" x="110" y="90" fill="#fff0be" /><rect width="10" height="10" x="130" y="90" fill="#c16710" /><rect width="30" height="10" x="150" y="90" fill="#fff0be" /><rect width="20" height="10" x="190" y="90" fill="#fff0be" /><rect width="10" height="10" x="210" y="90" fill="#903707" /><rect width="10" height="10" x="220" y="90" fill="#fff0be" /><rect width="10" height="10" x="110" y="100" fill="#903707" /><rect width="30" height="10" x="120" y="100" fill="#fff0be" /><rect width="30" height="10" x="150" y="100" fill="#fffdf2" /><rect width="10" height="10" x="180" y="100" fill="#fff671" /><rect width="10" height="10" x="190" y="100" fill="#fff0be" /><rect width="10" height="10" x="200" y="100" fill="#c16710" /><rect width="10" height="10" x="210" y="100" fill="#fff0be" /><rect width="60" height="10" x="50" y="110" fill="#903707" /><rect width="10" height="10" x="110" y="110" fill="#c16710" /><rect width="10" height="10" x="120" y="110" fill="#fff0be" /><rect width="60" height="10" x="130" y="110" fill="#f9f4e6" /><rect width="10" height="10" x="190" y="110" fill="#fff0be" /><rect width="20" height="10" x="210" y="110" fill="#c16710" /><rect width="10" height="10" x="230" y="110" fill="#903707" /><rect width="10" height="10" x="240" y="110" fill="#fff0be" /><rect width="10" height="10" x="60" y="120" fill="#903707" /><rect width="20" height="10" x="70" y="120" fill="#fff0be" /><rect width="10" height="10" x="90" y="120" fill="#c16710" /><rect width="20" height="10" x="100" y="120" fill="#fff0be" /><rect width="80" height="10" x="120" y="120" fill="#fffdf2" /><rect width="20" height="10" x="200" y="120" fill="#c16710" /><rect width="10" height="10" x="220" y="120" fill="#fff0be" /><rect width="10" height="10" x="230" y="120" fill="#c16710" /><rect width="10" height="10" x="240" y="120" fill="#903707" /><rect width="10" height="10" x="250" y="120" fill="#fff0be" /><rect width="10" height="10" x="60" y="130" fill="#fff0be" /><rect width="10" height="10" x="70" y="130" fill="#903707" /><rect width="10" height="10" x="80" y="130" fill="#c16710" /><rect width="10" height="10" x="90" y="130" fill="#fff0be" /><rect width="20" height="10" x="100" y="130" fill="#c16710" /><rect width="70" height="10" x="120" y="130" fill="#fffdf2" /><rect width="20" height="10" x="200" y="130" fill="#fff0be" /><rect width="10" height="10" x="220" y="130" fill="#c16710" /><rect width="20" height="10" x="230" y="130" fill="#fff0be" /><rect width="10" height="10" x="250" y="130" fill="#903707" /><rect width="10" height="10" x="70" y="140" fill="#fff0be" /><rect width="10" height="10" x="80" y="140" fill="#903707" /><rect width="20" height="10" x="90" y="140" fill="#c16710" /><rect width="70" height="10" x="120" y="140" fill="#f9f4e6" /><rect width="10" height="10" x="190" y="140" fill="#fff0be" /><rect width="10" height="10" x="200" y="140" fill="#c16710" /><rect width="60" height="10" x="210" y="140" fill="#903707" /><rect width="10" height="10" x="100" y="150" fill="#fff0be" /><rect width="10" height="10" x="110" y="150" fill="#c16710" /><rect width="10" height="10" x="120" y="150" fill="#fff0be" /><rect width="30" height="10" x="130" y="150" fill="#fffdf2" /><rect width="10" height="10" x="160" y="150" fill="#fff671" /><rect width="20" height="10" x="170" y="150" fill="#fffdf2" /><rect width="10" height="10" x="190" y="150" fill="#fff0be" /><rect width="10" height="10" x="200" y="150" fill="#903707" /><rect width="10" height="10" x="90" y="160" fill="#fff0be" /><rect width="10" height="10" x="100" y="160" fill="#903707" /><rect width="20" height="10" x="110" y="160" fill="#fff0be" /><rect width="60" height="10" x="130" y="160" fill="#f9f4e6" /><rect width="20" height="10" x="190" y="160" fill="#fff0be" /><rect width="10" height="10" x="210" y="160" fill="#c16710" /><rect width="10" height="10" x="220" y="160" fill="#903707" /><rect width="10" height="10" x="80" y="170" fill="#fff0be" /><rect width="10" height="10" x="90" y="170" fill="#903707" /><rect width="20" height="10" x="100" y="170" fill="#fff0be" /><rect width="10" height="10" x="120" y="170" fill="#903707" /><rect width="10" height="10" x="130" y="170" fill="#f9f4e6" /><rect width="10" height="10" x="140" y="170" fill="#903707" /><rect width="10" height="10" x="150" y="170" fill="#fff0be" /><rect width="20" height="10" x="160" y="170" fill="#c16710" /><rect width="10" height="10" x="180" y="170" fill="#fff0be" /><rect width="10" height="10" x="190" y="170" fill="#903707" /><rect width="30" height="10" x="200" y="170" fill="#fff0be" /><rect width="10" height="10" x="230" y="170" fill="#903707" /><rect width="10" height="10" x="80" y="180" fill="#903707" /><rect width="20" height="10" x="90" y="180" fill="#fff0be" /><rect width="10" height="10" x="110" y="180" fill="#c16710" /><rect width="10" height="10" x="130" y="180" fill="#fff671" /><rect width="30" height="10" x="140" y="180" fill="#fffdf2" /><rect width="10" height="10" x="170" y="180" fill="#c16710" /><rect width="10" height="10" x="190" y="180" fill="#fff0be" /><rect width="10" height="10" x="200" y="180" fill="#903707" /><rect width="10" height="10" x="210" y="180" fill="#fff0be" /><rect width="10" height="10" x="220" y="180" fill="#c16710" /><rect width="10" height="10" x="230" y="180" fill="#903707" /><rect width="10" height="10" x="70" y="190" fill="#903707" /><rect width="10" height="10" x="80" y="190" fill="#fff0be" /><rect width="10" height="10" x="90" y="190" fill="#c16710" /><rect width="10" height="10" x="100" y="190" fill="#fff0be" /><rect width="10" height="10" x="110" y="190" fill="#903707" /><rect width="10" height="10" x="140" y="190" fill="#903707" /><rect width="10" height="10" x="150" y="190" fill="#fff0be" /><rect width="10" height="10" x="160" y="190" fill="#c16710" /><rect width="10" height="10" x="170" y="190" fill="#903707" /><rect width="10" height="10" x="200" y="190" fill="#fff0be" /><rect width="10" height="10" x="210" y="190" fill="#903707" /><rect width="10" height="10" x="220" y="190" fill="#fff0be" /><rect width="10" height="10" x="230" y="190" fill="#903707" /><rect width="10" height="10" x="60" y="200" fill="#903707" /><rect width="30" height="10" x="80" y="200" fill="#903707" /><rect width="10" height="10" x="140" y="200" fill="#903707" /><rect width="10" height="10" x="150" y="200" fill="#fff0be" /><rect width="10" height="10" x="160" y="200" fill="#903707" /><rect width="10" height="10" x="170" y="200" fill="#fff0be" /><rect width="10" height="10" x="220" y="200" fill="#903707" /><rect width="20" height="10" x="140" y="210" fill="#903707" /><rect width="10" height="10" x="160" y="210" fill="#fff0be" /><rect width="10" height="10" x="230" y="210" fill="#903707" /><rect width="10" height="10" x="140" y="220" fill="#903707" /><rect width="60" height="10" x="100" y="110" fill="#000000" /><rect width="60" height="10" x="170" y="110" fill="#000000" /><rect width="10" height="10" x="100" y="120" fill="#000000" /><rect width="20" height="10" x="110" y="120" fill="#ffffff" /><rect width="20" height="10" x="130" y="120" fill="#ff0e0e" /><rect width="10" height="10" x="150" y="120" fill="#000000" /><rect width="10" height="10" x="170" y="120" fill="#000000" /><rect width="20" height="10" x="180" y="120" fill="#ffffff" /><rect width="20" height="10" x="200" y="120" fill="#ff0e0e" /><rect width="10" height="10" x="220" y="120" fill="#000000" /><rect width="40" height="10" x="70" y="130" fill="#000000" /><rect width="20" height="10" x="110" y="130" fill="#ffffff" /><rect width="20" height="10" x="130" y="130" fill="#ff0e0e" /><rect width="30" height="10" x="150" y="130" fill="#000000" /><rect width="20" height="10" x="180" y="130" fill="#ffffff" /><rect width="20" height="10" x="200" y="130" fill="#ff0e0e" /><rect width="10" height="10" x="220" y="130" fill="#000000" /><rect width="10" height="10" x="70" y="140" fill="#000000" /><rect width="10" height="10" x="100" y="140" fill="#000000" /><rect width="20" height="10" x="110" y="140" fill="#ffffff" /><rect width="20" height="10" x="130" y="140" fill="#ff0e0e" /><rect width="10" height="10" x="150" y="140" fill="#000000" /><rect width="10" height="10" x="170" y="140" fill="#000000" /><rect width="20" height="10" x="180" y="140" fill="#ffffff" /><rect width="20" height="10" x="200" y="140" fill="#ff0e0e" /><rect width="10" height="10" x="220" y="140" fill="#000000" /><rect width="10" height="10" x="70" y="150" fill="#000000" /><rect width="10" height="10" x="100" y="150" fill="#000000" /><rect width="20" height="10" x="110" y="150" fill="#ffffff" /><rect width="20" height="10" x="130" y="150" fill="#ff0e0e" /><rect width="10" height="10" x="150" y="150" fill="#000000" /><rect width="10" height="10" x="170" y="150" fill="#000000" /><rect width="20" height="10" x="180" y="150" fill="#ffffff" /><rect width="20" height="10" x="200" y="150" fill="#ff0e0e" /><rect width="10" height="10" x="220" y="150" fill="#000000" /><rect width="60" height="10" x="100" y="160" fill="#000000" /><rect width="60" height="10" x="170" y="160" fill="#000000" /></svg>