<svg viewBox="0 0 320 320" xmlns="http://www.w3.org/2000/svg" shape-rendering="crispEdges"><rect width="100%" height="100%" fill="#d5d7e1" /><rect width="140" height="10" x="90" y="210" fill="#fd8b5b" /><rect width="140" height="10" x="90" y="220" fill="#fd8b5b" /><rect width="140" height="10" x="90" y="230" fill="#fd8b5b" /><rect width="140" height="10" x="90" y="240" fill="#fd8b5b" /><rect width="20" height="10" x="90" y="250" fill="#fd8b5b" /><rect width="110" height="10" x="120" y="250" fill="#fd8b5b" /><rect width="20" height="10" x="90" y="260" fill="#fd8b5b" /><rect width="110" height="10" x="120" y="260" fill="#fd8b5b" /><rect width="20" height="10" x="90" y="270" fill="#fd8b5b" /><rect width="110" height="10" x="120" y="270" fill="#fd8b5b" /><rect width="20" height="10" x="90" y="280" fill="#fd8b5b" /><rect width="110" height="10" x="120" y="280" fill="#fd8b5b" /><rect width="20" height="10" x="90" y="290" fill="#fd8b5b" /><rect width="110" height="10" x="120" y="290" fill="#fd8b5b" /><rect width="20" height="10" x="90" y="300" fill="#fd8b5b" /><rect width="110" height="10" x="120" y="300" fill="#fd8b5b" /><rect width="20" height="10" x="90" y="310" fill="#fd8b5b" /><rect width="110" height="10" x="120" y="310" fill="#fd8b5b" /><rect width="10" height="10" x="90" y="250" fill="#0079fc" /><rect width="10" height="10" x="100" y="250" fill="#caa26a" /><rect width="10" height="10" x="110" y="250" fill="#d8dadf" /><rect width="30" height="10" x="120" y="250" fill="#caa26a" /><rect width="80" height="10" x="150" y="250" fill="#0079fc" /><rect width="20" height="10" x="90" y="260" fill="#a38654" /><rect width="10" height="10" x="110" y="260" fill="#d8dadf" /><rect width="30" height="10" x="120" y="260" fill="#a38654" /><rect width="20" height="10" x="150" y="260" fill="#caa26a" /><rect width="60" height="10" x="170" y="260" fill="#0079fc" /><rect width="20" height="10" x="90" y="270" fill="#caa26a" /><rect width="10" height="10" x="110" y="270" fill="#d8dadf" /><rect width="30" height="10" x="120" y="270" fill="#caa26a" /><rect width="20" height="10" x="150" y="270" fill="#a38654" /><rect width="30" height="10" x="170" y="270" fill="#caa26a" /><rect width="30" height="10" x="200" y="270" fill="#0079fc" /><rect width="20" height="10" x="90" y="280" fill="#a38654" /><rect width="10" height="10" x="110" y="280" fill="#d8dadf" /><rect width="30" height="10" x="120" y="280" fill="#a38654" /><rect width="20" height="10" x="150" y="280" fill="#caa26a" /><rect width="30" height="10" x="170" y="280" fill="#a38654" /><rect width="30" height="10" x="200" y="280" fill="#caa26a" /><rect width="20" height="10" x="90" y="290" fill="#caa26a" /><rect width="10" height="10" x="110" y="290" fill="#d8dadf" /><rect width="30" height="10" x="120" y="290" fill="#caa26a" /><rect width="20" height="10" x="150" y="290" fill="#a38654" /><rect width="30" height="10" x="170" y="290" fill="#caa26a" /><rect width="30" height="10" x="200" y="290" fill="#a38654" /><rect width="20" height="10" x="90" y="300" fill="#a38654" /><rect width="10" height="10" x="110" y="300" fill="#d8dadf" /><rect width="30" height="10" x="120" y="300" fill="#a38654" /><rect width="20" height="10" x="150" y="300" fill="#caa26a" /><rect width="30" height="10" x="170" y="300" fill="#a38654" /><rect width="30" height="10" x="200" y="300" fill="#caa26a" /><rect width="20" height="10" x="90" y="310" fill="#caa26a" /><rect width="10" height="10" x="110" y="310" fill="#d8dadf" /><rect width="30" height="10" x="120" y="310" fill="#caa26a" /><rect width="20" height="10" x="150" y="310" fill="#a38654" /><rect width="30" height="10" x="170" y="310" fill="#caa26a" /><rect width="30" height="10" x="200" y="310" fill="#a38654" /><rect width="10" height="10" x="100" y="50" fill="#e11833" /><rect width="10" height="10" x="180" y="50" fill="#ffc925" /><rect width="10" height="10" x="90" y="60" fill="#00499c" /><rect width="10" height="10" x="100" y="60" fill="#e11833" /><rect width="10" height="10" x="110" y="60" fill="#00499c" /><rect width="10" height="10" x="170" y="60" fill="#00499c" /><rect width="10" height="10" x="180" y="60" fill="#ffc925" /><rect width="10" height="10" x="190" y="60" fill="#00499c" /><rect width="20" height="10" x="80" y="70" fill="#00499c" /><rect width="10" height="10" x="100" y="70" fill="#e11833" /><rect width="20" height="10" x="110" y="70" fill="#00499c" /><rect width="20" height="10" x="160" y="70" fill="#00499c" /><rect width="10" height="10" x="180" y="70" fill="#ffc925" /><rect width="20" height="10" x="190" y="70" fill="#00499c" /><rect width="30" height="10" x="250" y="70" fill="#caa26a" /><rect width="30" height="10" x="70" y="80" fill="#00499c" /><rect width="10" height="10" x="100" y="80" fill="#e11833" /><rect width="20" height="10" x="110" y="80" fill="#00499c" /><rect width="30" height="10" x="130" y="80" fill="#9d8e6e" /><rect width="20" height="10" x="160" y="80" fill="#00499c" /><rect width="10" height="10" x="180" y="80" fill="#e11833" /><rect width="30" height="10" x="190" y="80" fill="#00499c" /><rect width="30" height="10" x="240" y="80" fill="#d08b11" /><rect width="20" height="10" x="270" y="80" fill="#caa26a" /><rect width="30" height="10" x="70" y="90" fill="#00499c" /><rect width="10" height="10" x="100" y="90" fill="#e11833" /><rect width="20" height="10" x="110" y="90" fill="#00499c" /><rect width="40" height="10" x="130" y="90" fill="#9d8e6e" /><rect width="10" height="10" x="170" y="90" fill="#00499c" /><rect width="10" height="10" x="180" y="90" fill="#e11833" /><rect width="30" height="10" x="190" y="90" fill="#00499c" /><rect width="10" height="10" x="240" y="90" fill="#caa26a" /><rect width="20" height="10" x="250" y="90" fill="#d08b11" /><rect width="20" height="10" x="270" y="90" fill="#000000" /><rect width="10" height="10" x="290" y="90" fill="#d08b11" /><rect width="10" height="10" x="300" y="90" fill="#ffc925" /><rect width="40" height="10" x="70" y="100" fill="#00499c" /><rect width="20" height="10" x="110" y="100" fill="#e11833" /><rect width="40" height="10" x="130" y="100" fill="#9d8e6e" /><rect width="10" height="10" x="170" y="100" fill="#e11833" /><rect width="40" height="10" x="180" y="100" fill="#00499c" /><rect width="20" height="10" x="240" y="100" fill="#caa26a" /><rect width="30" height="10" x="260" y="100" fill="#d08b11" /><rect width="10" height="10" x="290" y="100" fill="#ffc925" /><rect width="10" height="10" x="300" y="100" fill="#caa26a" /><rect width="20" height="10" x="70" y="110" fill="#d08b11" /><rect width="40" height="10" x="90" y="110" fill="#00499c" /><rect width="40" height="10" x="130" y="110" fill="#9d8e6e" /><rect width="40" height="10" x="170" y="110" fill="#00499c" /><rect width="10" height="10" x="210" y="110" fill="#d08b11" /><rect width="10" height="10" x="240" y="110" fill="#ffc925" /><rect width="10" height="10" x="250" y="110" fill="#caa26a" /><rect width="30" height="10" x="260" y="110" fill="#d08b11" /><rect width="10" height="10" x="290" y="110" fill="#ffc925" /><rect width="10" height="10" x="300" y="110" fill="#caa26a" /><rect width="40" height="10" x="70" y="120" fill="#d08b11" /><rect width="80" height="10" x="110" y="120" fill="#00499c" /><rect width="30" height="10" x="190" y="120" fill="#d08b11" /><rect width="10" height="10" x="240" y="120" fill="#caa26a" /><rect width="20" height="10" x="250" y="120" fill="#ffc925" /><rect width="10" height="10" x="270" y="120" fill="#d08b11" /><rect width="10" height="10" x="280" y="120" fill="#ffc925" /><rect width="10" height="10" x="290" y="120" fill="#caa26a" /><rect width="10" height="10" x="300" y="120" fill="#4b4949" /><rect width="70" height="10" x="60" y="130" fill="#d08b11" /><rect width="40" height="10" x="130" y="130" fill="#00499c" /><rect width="50" height="10" x="170" y="130" fill="#d08b11" /><rect width="10" height="10" x="220" y="130" fill="#caa26a" /><rect width="30" height="10" x="240" y="130" fill="#d08b11" /><rect width="10" height="10" x="270" y="130" fill="#ffc925" /><rect width="220" height="10" x="60" y="140" fill="#d08b11" /><rect width="10" height="10" x="280" y="140" fill="#ffc925" /><rect width="210" height="10" x="60" y="150" fill="#d08b11" /><rect width="20" height="10" x="290" y="150" fill="#ffc925" /><rect width="210" height="10" x="60" y="160" fill="#d08b11" /><rect width="190" height="10" x="70" y="170" fill="#d08b11" /><rect width="60" height="10" x="70" y="180" fill="#d08b11" /><rect width="50" height="10" x="130" y="180" fill="#9d8e6e" /><rect width="70" height="10" x="180" y="180" fill="#d08b11" /><rect width="160" height="10" x="80" y="190" fill="#d08b11" /><rect width="140" height="10" x="90" y="200" fill="#d08b11" /><rect width="60" height="10" x="100" y="110" fill="#000000" /><rect width="60" height="10" x="170" y="110" fill="#000000" /><rect width="30" height="10" x="100" y="120" fill="#000000" /><rect width="10" height="10" x="130" y="120" fill="#ff0e0e" /><rect width="20" height="10" x="140" y="120" fill="#000000" /><rect width="30" height="10" x="170" y="120" fill="#000000" /><rect width="10" height="10" x="200" y="120" fill="#ff0e0e" /><rect width="20" height="10" x="210" y="120" fill="#000000" /><rect width="160" height="10" x="70" y="130" fill="#000000" /><rect width="10" height="10" x="70" y="140" fill="#000000" /><rect width="10" height="10" x="100" y="140" fill="#000000" /><rect width="10" height="10" x="110" y="140" fill="#0adc4d" /><rect width="20" height="10" x="120" y="140" fill="#000000" /><rect width="10" height="10" x="140" y="140" fill="#1929f4" /><rect width="10" height="10" x="150" y="140" fill="#000000" /><rect width="10" height="10" x="170" y="140" fill="#000000" /><rect width="10" height="10" x="180" y="140" fill="#0adc4d" /><rect width="20" height="10" x="190" y="140" fill="#000000" /><rect width="10" height="10" x="210" y="140" fill="#1929f4" /><rect width="10" height="10" x="220" y="140" fill="#000000" /><rect width="10" height="10" x="70" y="150" fill="#000000" /><rect width="60" height="10" x="100" y="150" fill="#000000" /><rect width="60" height="10" x="170" y="150" fill="#000000" /><rect width="60" height="10" x="100" y="160" fill="#000000" /><rect width="60" height="10" x="170" y="160" fill="#000000" /></svg>