<svg viewBox="0 0 320 320" xmlns="http://www.w3.org/2000/svg" shape-rendering="crispEdges"><rect width="100%" height="100%" fill="#d5d7e1" /><rect width="140" height="10" x="90" y="210" fill="#fffdf2" /><rect width="140" height="10" x="90" y="220" fill="#fffdf2" /><rect width="140" height="10" x="90" y="230" fill="#fffdf2" /><rect width="140" height="10" x="90" y="240" fill="#fffdf2" /><rect width="20" height="10" x="90" y="250" fill="#fffdf2" /><rect width="110" height="10" x="120" y="250" fill="#fffdf2" /><rect width="20" height="10" x="90" y="260" fill="#fffdf2" /><rect width="110" height="10" x="120" y="260" fill="#fffdf2" /><rect width="20" height="10" x="90" y="270" fill="#fffdf2" /><rect width="110" height="10" x="120" y="270" fill="#fffdf2" /><rect width="20" height="10" x="90" y="280" fill="#fffdf2" /><rect width="110" height="10" x="120" y="280" fill="#fffdf2" /><rect width="20" height="10" x="90" y="290" fill="#fffdf2" /><rect width="110" height="10" x="120" y="290" fill="#fffdf2" /><rect width="20" height="10" x="90" y="300" fill="#fffdf2" /><rect width="110" height="10" x="120" y="300" fill="#fffdf2" /><rect width="20" height="10" x="90" y="310" fill="#fffdf2" /><rect width="110" height="10" x="120" y="310" fill="#fffdf2" /><rect width="10" height="10" x="140" y="240" fill="#343235" /><rect width="20" height="10" x="130" y="250" fill="#343235" /><rect width="10" height="10" x="170" y="250" fill="#343235" /><rect width="50" height="10" x="150" y="260" fill="#343235" /><rect width="20" height="10" x="160" y="270" fill="#343235" /><rect width="20" height="10" x="180" y="270" fill="#fffdf2" /><rect width="20" height="10" x="140" y="280" fill="#26b1f3" /><rect width="10" height="10" x="170" y="280" fill="#26b1f3" /><rect width="10" height="10" x="180" y="280" fill="#343235" /><rect width="10" height="10" x="200" y="280" fill="#26b1f3" /><rect width="80" height="10" x="120" y="30" fill="#f82905" /><rect width="60" height="10" x="130" y="40" fill="#f82905" /><rect width="10" height="10" x="210" y="40" fill="#4d271b" /><rect width="60" height="10" x="130" y="50" fill="#f82905" /><rect width="60" height="10" x="130" y="60" fill="#adc8cc" /><rect width="10" height="10" x="220" y="60" fill="#4d271b" /><rect width="10" height="10" x="130" y="70" fill="#adc8cc" /><rect width="10" height="10" x="140" y="70" fill="#ffffff" /><rect width="40" height="10" x="150" y="70" fill="#adc8cc" /><rect width="10" height="10" x="130" y="80" fill="#adc8cc" /><rect width="10" height="10" x="140" y="80" fill="#ffffff" /><rect width="40" height="10" x="150" y="80" fill="#adc8cc" /><rect width="10" height="10" x="120" y="90" fill="#adc8cc" /><rect width="10" height="10" x="130" y="90" fill="#552d1d" /><rect width="10" height="10" x="140" y="90" fill="#ffffff" /><rect width="40" height="10" x="150" y="90" fill="#552d1d" /><rect width="10" height="10" x="190" y="90" fill="#adc8cc" /><rect width="10" height="10" x="120" y="100" fill="#adc8cc" /><rect width="10" height="10" x="130" y="100" fill="#ffffff" /><rect width="50" height="10" x="140" y="100" fill="#552d1d" /><rect width="10" height="10" x="190" y="100" fill="#adc8cc" /><rect width="20" height="10" x="110" y="110" fill="#adc8cc" /><rect width="60" height="10" x="130" y="110" fill="#552d1d" /><rect width="20" height="10" x="190" y="110" fill="#adc8cc" /><rect width="20" height="10" x="110" y="120" fill="#adc8cc" /><rect width="60" height="10" x="130" y="120" fill="#552d1d" /><rect width="20" height="10" x="190" y="120" fill="#adc8cc" /><rect width="10" height="10" x="110" y="130" fill="#adc8cc" /><rect width="80" height="10" x="120" y="130" fill="#552d1d" /><rect width="10" height="10" x="200" y="130" fill="#adc8cc" /><rect width="10" height="10" x="110" y="140" fill="#adc8cc" /><rect width="80" height="10" x="120" y="140" fill="#552d1d" /><rect width="10" height="10" x="200" y="140" fill="#adc8cc" /><rect width="10" height="10" x="110" y="150" fill="#adc8cc" /><rect width="80" height="10" x="120" y="150" fill="#552d1d" /><rect width="10" height="10" x="200" y="150" fill="#adc8cc" /><rect width="10" height="10" x="110" y="160" fill="#adc8cc" /><rect width="80" height="10" x="120" y="160" fill="#552d1d" /><rect width="10" height="10" x="200" y="160" fill="#adc8cc" /><rect width="10" height="10" x="110" y="170" fill="#adc8cc" /><rect width="80" height="10" x="120" y="170" fill="#552d1d" /><rect width="10" height="10" x="200" y="170" fill="#adc8cc" /><rect width="10" height="10" x="110" y="180" fill="#adc8cc" /><rect width="20" height="10" x="120" y="180" fill="#552d1d" /><rect width="30" height="10" x="140" y="180" fill="#d29607" /><rect width="30" height="10" x="170" y="180" fill="#552d1d" /><rect width="10" height="10" x="200" y="180" fill="#adc8cc" /><rect width="10" height="10" x="110" y="190" fill="#adc8cc" /><rect width="80" height="10" x="120" y="190" fill="#552d1d" /><rect width="10" height="10" x="200" y="190" fill="#adc8cc" /><rect width="100" height="10" x="110" y="200" fill="#adc8cc" /><rect width="60" height="10" x="100" y="110" fill="#000000" /><rect width="60" height="10" x="170" y="110" fill="#000000" /><rect width="30" height="10" x="100" y="120" fill="#000000" /><rect width="10" height="10" x="130" y="120" fill="#ff0e0e" /><rect width="20" height="10" x="140" y="120" fill="#000000" /><rect width="30" height="10" x="170" y="120" fill="#000000" /><rect width="10" height="10" x="200" y="120" fill="#ff0e0e" /><rect width="20" height="10" x="210" y="120" fill="#000000" /><rect width="160" height="10" x="70" y="130" fill="#000000" /><rect width="10" height="10" x="70" y="140" fill="#000000" /><rect width="10" height="10" x="100" y="140" fill="#000000" /><rect width="10" height="10" x="110" y="140" fill="#0adc4d" /><rect width="20" height="10" x="120" y="140" fill="#000000" /><rect width="10" height="10" x="140" y="140" fill="#1929f4" /><rect width="10" height="10" x="150" y="140" fill="#000000" /><rect width="10" height="10" x="170" y="140" fill="#000000" /><rect width="10" height="10" x="180" y="140" fill="#0adc4d" /><rect width="20" height="10" x="190" y="140" fill="#000000" /><rect width="10" height="10" x="210" y="140" fill="#1929f4" /><rect width="10" height="10" x="220" y="140" fill="#000000" /><rect width="10" height="10" x="70" y="150" fill="#000000" /><rect width="60" height="10" x="100" y="150" fill="#000000" /><rect width="60" height="10" x="170" y="150" fill="#000000" /><rect width="60" height="10" x="100" y="160" fill="#000000" /><rect width="60" height="10" x="170" y="160" fill="#000000" /></svg>