<svg viewBox="0 0 320 320" xmlns="http://www.w3.org/2000/svg" shape-rendering="crispEdges"><rect width="100%" height="100%" fill="#e1d7d5" /><rect width="140" height="10" x="90" y="210" fill="#c5b9a1" /><rect width="140" height="10" x="90" y="220" fill="#c5b9a1" /><rect width="140" height="10" x="90" y="230" fill="#c5b9a1" /><rect width="140" height="10" x="90" y="240" fill="#c5b9a1" /><rect width="20" height="10" x="90" y="250" fill="#c5b9a1" /><rect width="110" height="10" x="120" y="250" fill="#c5b9a1" /><rect width="20" height="10" x="90" y="260" fill="#c5b9a1" /><rect width="110" height="10" x="120" y="260" fill="#c5b9a1" /><rect width="20" height="10" x="90" y="270" fill="#c5b9a1" /><rect width="110" height="10" x="120" y="270" fill="#c5b9a1" /><rect width="20" height="10" x="90" y="280" fill="#c5b9a1" /><rect width="110" height="10" x="120" y="280" fill="#c5b9a1" /><rect width="20" height="10" x="90" y="290" fill="#c5b9a1" /><rect width="110" height="10" x="120" y="290" fill="#c5b9a1" /><rect width="20" height="10" x="90" y="300" fill="#c5b9a1" /><rect width="110" height="10" x="120" y="300" fill="#c5b9a1" /><rect width="20" height="10" x="90" y="310" fill="#c5b9a1" /><rect width="110" height="10" x="120" y="310" fill="#c5b9a1" /><rect width="10" height="10" x="160" y="230" fill="#85634f" /><rect width="20" height="10" x="210" y="230" fill="#67b1e3" /><rect width="10" height="10" x="160" y="240" fill="#85634f" /><rect width="10" height="10" x="130" y="250" fill="#5d6061" /><rect width="10" height="10" x="190" y="250" fill="#85634f" /><rect width="10" height="10" x="100" y="260" fill="#049d43" /><rect width="20" height="10" x="120" y="260" fill="#5d6061" /><rect width="10" height="10" x="160" y="260" fill="#67b1e3" /><rect width="10" height="10" x="90" y="270" fill="#049d43" /><rect width="20" height="10" x="120" y="270" fill="#ff0e0e" /><rect width="10" height="10" x="170" y="270" fill="#85634f" /><rect width="10" height="10" x="200" y="270" fill="#67b1e3" /><rect width="10" height="10" x="220" y="270" fill="#85634f" /><rect width="20" height="10" x="90" y="280" fill="#f9f5e9" /><rect width="30" height="10" x="120" y="280" fill="#d8dadf" /><rect width="20" height="10" x="90" y="290" fill="#f9f5e9" /><rect width="30" height="10" x="120" y="290" fill="#f9f5e9" /><rect width="20" height="10" x="190" y="300" fill="#67b1e3" /><rect width="20" height="10" x="140" y="310" fill="#67b1e3" /><rect width="70" height="10" x="180" y="40" fill="#ffffff" /><rect width="20" height="10" x="170" y="50" fill="#ffffff" /><rect width="10" height="10" x="190" y="50" fill="#e11833" /><rect width="50" height="10" x="200" y="50" fill="#ffffff" /><rect width="10" height="10" x="160" y="60" fill="#ffc110" /><rect width="10" height="10" x="170" y="60" fill="#ffffff" /><rect width="10" height="10" x="180" y="60" fill="#e11833" /><rect width="60" height="10" x="190" y="60" fill="#ffffff" /><rect width="20" height="10" x="150" y="70" fill="#ffc110" /><rect width="10" height="10" x="170" y="70" fill="#e11833" /><rect width="70" height="10" x="180" y="70" fill="#ffffff" /><rect width="50" height="10" x="140" y="80" fill="#ffc110" /><rect width="60" height="10" x="190" y="80" fill="#ffffff" /><rect width="70" height="10" x="130" y="90" fill="#ffc110" /><rect width="50" height="10" x="200" y="90" fill="#ffffff" /><rect width="30" height="10" x="100" y="100" fill="#eff2fa" /><rect width="80" height="10" x="130" y="100" fill="#ffc110" /><rect width="40" height="10" x="210" y="100" fill="#ffffff" /><rect width="40" height="10" x="90" y="110" fill="#eff2fa" /><rect width="100" height="10" x="130" y="110" fill="#ffc110" /><rect width="10" height="10" x="230" y="110" fill="#ffffff" /><rect width="50" height="10" x="80" y="120" fill="#eff2fa" /><rect width="110" height="10" x="130" y="120" fill="#ffc110" /><rect width="50" height="10" x="70" y="130" fill="#eff2fa" /><rect width="110" height="10" x="120" y="130" fill="#ffc110" /><rect width="50" height="10" x="60" y="140" fill="#eff2fa" /><rect width="110" height="10" x="110" y="140" fill="#ffc110" /><rect width="10" height="10" x="50" y="150" fill="#e11833" /><rect width="40" height="10" x="60" y="150" fill="#eff2fa" /><rect width="110" height="10" x="100" y="150" fill="#ffc110" /><rect width="20" height="10" x="30" y="160" fill="#f78a18" /><rect width="10" height="10" x="60" y="160" fill="#e11833" /><rect width="20" height="10" x="70" y="160" fill="#eff2fa" /><rect width="20" height="10" x="90" y="160" fill="#ffffff" /><rect width="90" height="10" x="110" y="160" fill="#ffc110" /><rect width="10" height="10" x="70" y="170" fill="#e11833" /><rect width="30" height="10" x="90" y="170" fill="#ffffff" /><rect width="70" height="10" x="120" y="170" fill="#ffc110" /><rect width="10" height="10" x="60" y="180" fill="#f78a18" /><rect width="20" height="10" x="80" y="180" fill="#343235" /><rect width="30" height="10" x="100" y="180" fill="#ffffff" /><rect width="30" height="10" x="130" y="180" fill="#ffc110" /><rect width="10" height="10" x="160" y="180" fill="#fff671" /><rect width="10" height="10" x="170" y="180" fill="#ffc110" /><rect width="10" height="10" x="180" y="180" fill="#eff2fa" /><rect width="10" height="10" x="50" y="190" fill="#f78a18" /><rect width="10" height="10" x="70" y="190" fill="#4b65f7" /><rect width="20" height="10" x="90" y="190" fill="#343235" /><rect width="30" height="10" x="110" y="190" fill="#ffffff" /><rect width="30" height="10" x="140" y="190" fill="#ffc110" /><rect width="10" height="10" x="170" y="190" fill="#eff2fa" /><rect width="10" height="10" x="80" y="200" fill="#f78a18" /><rect width="10" height="10" x="100" y="200" fill="#343235" /><rect width="20" height="10" x="120" y="200" fill="#eff2fa" /><rect width="20" height="10" x="140" y="200" fill="#ffffff" /><rect width="10" height="10" x="160" y="200" fill="#eff2fa" /><rect width="10" height="10" x="90" y="210" fill="#4b65f7" /><rect width="10" height="10" x="110" y="210" fill="#e11833" /><rect width="20" height="10" x="120" y="210" fill="#eff2fa" /><rect width="10" height="10" x="140" y="210" fill="#ffffff" /><rect width="10" height="10" x="150" y="210" fill="#eff2fa" /><rect width="10" height="10" x="60" y="220" fill="#4b65f7" /><rect width="20" height="10" x="90" y="220" fill="#f78a18" /><rect width="10" height="10" x="120" y="220" fill="#e11833" /><rect width="20" height="10" x="130" y="220" fill="#eff2fa" /><rect width="10" height="10" x="130" y="230" fill="#e11833" /><rect width="60" height="10" x="100" y="110" fill="#068940" /><rect width="60" height="10" x="170" y="110" fill="#257ced" /><rect width="10" height="10" x="100" y="120" fill="#068940" /><rect width="20" height="10" x="110" y="120" fill="#ffffff" /><rect width="20" height="10" x="130" y="120" fill="#000000" /><rect width="10" height="10" x="150" y="120" fill="#068940" /><rect width="10" height="10" x="170" y="120" fill="#257ced" /><rect width="20" height="10" x="180" y="120" fill="#ffffff" /><rect width="20" height="10" x="200" y="120" fill="#000000" /><rect width="10" height="10" x="220" y="120" fill="#257ced" /><rect width="30" height="10" x="70" y="130" fill="#254efb" /><rect width="10" height="10" x="100" y="130" fill="#068940" /><rect width="20" height="10" x="110" y="130" fill="#ffffff" /><rect width="20" height="10" x="130" y="130" fill="#000000" /><rect width="10" height="10" x="150" y="130" fill="#068940" /><rect width="10" height="10" x="160" y="130" fill="#254efb" /><rect width="10" height="10" x="170" y="130" fill="#257ced" /><rect width="20" height="10" x="180" y="130" fill="#ffffff" /><rect width="20" height="10" x="200" y="130" fill="#000000" /><rect width="10" height="10" x="220" y="130" fill="#257ced" /><rect width="10" height="10" x="70" y="140" fill="#257ced" /><rect width="10" height="10" x="100" y="140" fill="#068940" /><rect width="20" height="10" x="110" y="140" fill="#ffffff" /><rect width="20" height="10" x="130" y="140" fill="#000000" /><rect width="10" height="10" x="150" y="140" fill="#068940" /><rect width="10" height="10" x="170" y="140" fill="#257ced" /><rect width="20" height="10" x="180" y="140" fill="#ffffff" /><rect width="20" height="10" x="200" y="140" fill="#000000" /><rect width="10" height="10" x="220" y="140" fill="#257ced" /><rect width="10" height="10" x="70" y="150" fill="#257ced" /><rect width="10" height="10" x="100" y="150" fill="#068940" /><rect width="20" height="10" x="110" y="150" fill="#ffffff" /><rect width="20" height="10" x="130" y="150" fill="#000000" /><rect width="10" height="10" x="150" y="150" fill="#068940" /><rect width="10" height="10" x="170" y="150" fill="#257ced" /><rect width="20" height="10" x="180" y="150" fill="#ffffff" /><rect width="20" height="10" x="200" y="150" fill="#000000" /><rect width="10" height="10" x="220" y="150" fill="#257ced" /><rect width="60" height="10" x="100" y="160" fill="#068940" /><rect width="60" height="10" x="170" y="160" fill="#257ced" /></svg>