<svg viewBox="0 0 320 320" xmlns="http://www.w3.org/2000/svg" shape-rendering="crispEdges"><rect width="100%" height="100%" fill="#d5d7e1" /><rect width="140" height="10" x="90" y="210" fill="#c5b9a1" /><rect width="140" height="10" x="90" y="220" fill="#c5b9a1" /><rect width="140" height="10" x="90" y="230" fill="#c5b9a1" /><rect width="140" height="10" x="90" y="240" fill="#c5b9a1" /><rect width="20" height="10" x="90" y="250" fill="#c5b9a1" /><rect width="110" height="10" x="120" y="250" fill="#c5b9a1" /><rect width="20" height="10" x="90" y="260" fill="#c5b9a1" /><rect width="110" height="10" x="120" y="260" fill="#c5b9a1" /><rect width="20" height="10" x="90" y="270" fill="#c5b9a1" /><rect width="110" height="10" x="120" y="270" fill="#c5b9a1" /><rect width="20" height="10" x="90" y="280" fill="#c5b9a1" /><rect width="110" height="10" x="120" y="280" fill="#c5b9a1" /><rect width="20" height="10" x="90" y="290" fill="#c5b9a1" /><rect width="110" height="10" x="120" y="290" fill="#c5b9a1" /><rect width="20" height="10" x="90" y="300" fill="#c5b9a1" /><rect width="110" height="10" x="120" y="300" fill="#c5b9a1" /><rect width="20" height="10" x="90" y="310" fill="#c5b9a1" /><rect width="110" height="10" x="120" y="310" fill="#c5b9a1" /><rect width="10" height="10" x="160" y="230" fill="#000000" /><rect width="10" height="10" x="170" y="240" fill="#000000" /><rect width="10" height="10" x="170" y="250" fill="#f9f5cb" /><rect width="20" height="10" x="160" y="260" fill="#70e890" /><rect width="10" height="10" x="180" y="260" fill="#f89865" /><rect width="40" height="10" x="150" y="270" fill="#70e890" /><rect width="10" height="10" x="190" y="270" fill="#38dd56" /><rect width="10" height="10" x="150" y="280" fill="#ffffff" /><rect width="10" height="10" x="160" y="280" fill="#38dd56" /><rect width="10" height="10" x="170" y="280" fill="#70e890" /><rect width="20" height="10" x="180" y="280" fill="#ffffff" /><rect width="10" height="10" x="160" y="40" fill="#fdf008" /><rect width="30" height="10" x="150" y="50" fill="#fbc800" /><rect width="10" height="10" x="140" y="60" fill="#85634f" /><rect width="10" height="10" x="150" y="60" fill="#7e5243" /><rect width="10" height="10" x="160" y="60" fill="#85634f" /><rect width="10" height="10" x="170" y="60" fill="#7e5243" /><rect width="10" height="10" x="180" y="60" fill="#85634f" /><rect width="10" height="10" x="120" y="70" fill="#85634f" /><rect width="10" height="10" x="130" y="70" fill="#7e5243" /><rect width="10" height="10" x="140" y="70" fill="#85634f" /><rect width="10" height="10" x="150" y="70" fill="#7e5243" /><rect width="10" height="10" x="160" y="70" fill="#85634f" /><rect width="10" height="10" x="170" y="70" fill="#7e5243" /><rect width="10" height="10" x="180" y="70" fill="#85634f" /><rect width="10" height="10" x="190" y="70" fill="#7e5243" /><rect width="10" height="10" x="200" y="70" fill="#85634f" /><rect width="10" height="10" x="100" y="80" fill="#85634f" /><rect width="10" height="10" x="110" y="80" fill="#7e5243" /><rect width="10" height="10" x="120" y="80" fill="#85634f" /><rect width="10" height="10" x="130" y="80" fill="#7e5243" /><rect width="10" height="10" x="140" y="80" fill="#85634f" /><rect width="10" height="10" x="150" y="80" fill="#7e5243" /><rect width="10" height="10" x="160" y="80" fill="#85634f" /><rect width="10" height="10" x="170" y="80" fill="#7e5243" /><rect width="10" height="10" x="180" y="80" fill="#85634f" /><rect width="10" height="10" x="190" y="80" fill="#7e5243" /><rect width="10" height="10" x="200" y="80" fill="#85634f" /><rect width="10" height="10" x="210" y="80" fill="#7e5243" /><rect width="10" height="10" x="220" y="80" fill="#85634f" /><rect width="10" height="10" x="40" y="90" fill="#85634f" /><rect width="10" height="10" x="60" y="90" fill="#85634f" /><rect width="10" height="10" x="70" y="90" fill="#7e5243" /><rect width="10" height="10" x="80" y="90" fill="#85634f" /><rect width="10" height="10" x="90" y="90" fill="#7e5243" /><rect width="10" height="10" x="100" y="90" fill="#85634f" /><rect width="10" height="10" x="110" y="90" fill="#7e5243" /><rect width="10" height="10" x="120" y="90" fill="#85634f" /><rect width="10" height="10" x="130" y="90" fill="#7e5243" /><rect width="10" height="10" x="140" y="90" fill="#85634f" /><rect width="10" height="10" x="150" y="90" fill="#7e5243" /><rect width="10" height="10" x="160" y="90" fill="#85634f" /><rect width="10" height="10" x="170" y="90" fill="#7e5243" /><rect width="10" height="10" x="180" y="90" fill="#85634f" /><rect width="10" height="10" x="190" y="90" fill="#7e5243" /><rect width="10" height="10" x="200" y="90" fill="#85634f" /><rect width="10" height="10" x="210" y="90" fill="#7e5243" /><rect width="10" height="10" x="220" y="90" fill="#85634f" /><rect width="10" height="10" x="230" y="90" fill="#7e5243" /><rect width="10" height="10" x="240" y="90" fill="#85634f" /><rect width="10" height="10" x="250" y="90" fill="#7e5243" /><rect width="10" height="10" x="260" y="90" fill="#85634f" /><rect width="10" height="10" x="280" y="90" fill="#85634f" /><rect width="10" height="10" x="50" y="100" fill="#7e5243" /><rect width="10" height="10" x="60" y="100" fill="#85634f" /><rect width="10" height="10" x="70" y="100" fill="#7e5243" /><rect width="10" height="10" x="80" y="100" fill="#85634f" /><rect width="10" height="10" x="90" y="100" fill="#7e5243" /><rect width="10" height="10" x="100" y="100" fill="#85634f" /><rect width="10" height="10" x="110" y="100" fill="#7e5243" /><rect width="10" height="10" x="120" y="100" fill="#85634f" /><rect width="10" height="10" x="130" y="100" fill="#7e5243" /><rect width="10" height="10" x="140" y="100" fill="#85634f" /><rect width="10" height="10" x="150" y="100" fill="#7e5243" /><rect width="10" height="10" x="160" y="100" fill="#85634f" /><rect width="10" height="10" x="170" y="100" fill="#7e5243" /><rect width="10" height="10" x="180" y="100" fill="#85634f" /><rect width="10" height="10" x="190" y="100" fill="#7e5243" /><rect width="10" height="10" x="200" y="100" fill="#85634f" /><rect width="10" height="10" x="210" y="100" fill="#7e5243" /><rect width="10" height="10" x="220" y="100" fill="#85634f" /><rect width="10" height="10" x="230" y="100" fill="#7e5243" /><rect width="10" height="10" x="240" y="100" fill="#85634f" /><rect width="10" height="10" x="250" y="100" fill="#7e5243" /><rect width="10" height="10" x="260" y="100" fill="#85634f" /><rect width="10" height="10" x="270" y="100" fill="#7e5243" /><rect width="10" height="10" x="50" y="110" fill="#ffe939" /><rect width="10" height="10" x="60" y="110" fill="#fbc800" /><rect width="10" height="10" x="70" y="110" fill="#ffe939" /><rect width="10" height="10" x="80" y="110" fill="#fbc800" /><rect width="10" height="10" x="90" y="110" fill="#ffe939" /><rect width="10" height="10" x="100" y="110" fill="#fbc800" /><rect width="10" height="10" x="110" y="110" fill="#ffe939" /><rect width="10" height="10" x="120" y="110" fill="#fbc800" /><rect width="10" height="10" x="130" y="110" fill="#ffe939" /><rect width="10" height="10" x="140" y="110" fill="#fbc800" /><rect width="10" height="10" x="150" y="110" fill="#ffe939" /><rect width="10" height="10" x="160" y="110" fill="#fbc800" /><rect width="10" height="10" x="170" y="110" fill="#ffe939" /><rect width="10" height="10" x="180" y="110" fill="#fbc800" /><rect width="10" height="10" x="190" y="110" fill="#ffe939" /><rect width="10" height="10" x="200" y="110" fill="#fbc800" /><rect width="10" height="10" x="210" y="110" fill="#ffe939" /><rect width="10" height="10" x="220" y="110" fill="#fbc800" /><rect width="10" height="10" x="230" y="110" fill="#ffe939" /><rect width="10" height="10" x="240" y="110" fill="#fbc800" /><rect width="10" height="10" x="250" y="110" fill="#ffe939" /><rect width="10" height="10" x="260" y="110" fill="#fbc800" /><rect width="10" height="10" x="270" y="110" fill="#ffe939" /><rect width="10" height="10" x="70" y="120" fill="#ffe939" /><rect width="10" height="10" x="80" y="120" fill="#fff671" /><rect width="40" height="10" x="90" y="120" fill="#ffe939" /><rect width="10" height="10" x="130" y="120" fill="#fff671" /><rect width="50" height="10" x="140" y="120" fill="#ffe939" /><rect width="10" height="10" x="190" y="120" fill="#fff671" /><rect width="40" height="10" x="200" y="120" fill="#ffe939" /><rect width="10" height="10" x="240" y="120" fill="#fff671" /><rect width="10" height="10" x="250" y="120" fill="#ffe939" /><rect width="10" height="10" x="50" y="130" fill="#fdf008" /><rect width="170" height="10" x="80" y="130" fill="#fbc800" /><rect width="10" height="10" x="270" y="130" fill="#fdf008" /><rect width="10" height="10" x="80" y="140" fill="#fff671" /><rect width="10" height="10" x="90" y="140" fill="#ffe939" /><rect width="20" height="10" x="100" y="140" fill="#d4a015" /><rect width="10" height="10" x="120" y="140" fill="#ffe939" /><rect width="10" height="10" x="130" y="140" fill="#fff671" /><rect width="10" height="10" x="140" y="140" fill="#ffe939" /><rect width="30" height="10" x="150" y="140" fill="#d4a015" /><rect width="10" height="10" x="180" y="140" fill="#ffe939" /><rect width="10" height="10" x="190" y="140" fill="#fff671" /><rect width="10" height="10" x="200" y="140" fill="#ffe939" /><rect width="20" height="10" x="210" y="140" fill="#d4a015" /><rect width="10" height="10" x="230" y="140" fill="#ffe939" /><rect width="10" height="10" x="240" y="140" fill="#fff671" /><rect width="10" height="10" x="80" y="150" fill="#fff671" /><rect width="10" height="10" x="90" y="150" fill="#ffe939" /><rect width="20" height="10" x="100" y="150" fill="#d4a015" /><rect width="10" height="10" x="120" y="150" fill="#ffe939" /><rect width="10" height="10" x="130" y="150" fill="#fff671" /><rect width="10" height="10" x="140" y="150" fill="#ffe939" /><rect width="10" height="10" x="150" y="150" fill="#d4a015" /><rect width="10" height="10" x="160" y="150" fill="#fbc800" /><rect width="10" height="10" x="170" y="150" fill="#d4a015" /><rect width="10" height="10" x="180" y="150" fill="#ffe939" /><rect width="10" height="10" x="190" y="150" fill="#fff671" /><rect width="10" height="10" x="200" y="150" fill="#ffe939" /><rect width="20" height="10" x="210" y="150" fill="#d4a015" /><rect width="10" height="10" x="230" y="150" fill="#ffe939" /><rect width="10" height="10" x="240" y="150" fill="#fff671" /><rect width="10" height="10" x="80" y="160" fill="#fff671" /><rect width="10" height="10" x="90" y="160" fill="#ffe939" /><rect width="10" height="10" x="100" y="160" fill="#d4a015" /><rect width="10" height="10" x="110" y="160" fill="#fbc800" /><rect width="10" height="10" x="120" y="160" fill="#ffe939" /><rect width="10" height="10" x="130" y="160" fill="#fff671" /><rect width="10" height="10" x="140" y="160" fill="#ffe939" /><rect width="30" height="10" x="150" y="160" fill="#fbc800" /><rect width="10" height="10" x="180" y="160" fill="#ffe939" /><rect width="10" height="10" x="190" y="160" fill="#fff671" /><rect width="10" height="10" x="200" y="160" fill="#ffe939" /><rect width="10" height="10" x="210" y="160" fill="#fbc800" /><rect width="10" height="10" x="220" y="160" fill="#d4a015" /><rect width="10" height="10" x="230" y="160" fill="#ffe939" /><rect width="10" height="10" x="240" y="160" fill="#fff671" /><rect width="10" height="10" x="80" y="170" fill="#fff671" /><rect width="10" height="10" x="90" y="170" fill="#ffe939" /><rect width="10" height="10" x="100" y="170" fill="#d4a015" /><rect width="10" height="10" x="110" y="170" fill="#fbc800" /><rect width="10" height="10" x="120" y="170" fill="#ffe939" /><rect width="10" height="10" x="130" y="170" fill="#fff671" /><rect width="10" height="10" x="140" y="170" fill="#ffe939" /><rect width="30" height="10" x="150" y="170" fill="#fbc800" /><rect width="10" height="10" x="180" y="170" fill="#ffe939" /><rect width="10" height="10" x="190" y="170" fill="#fff671" /><rect width="10" height="10" x="200" y="170" fill="#ffe939" /><rect width="10" height="10" x="210" y="170" fill="#fbc800" /><rect width="10" height="10" x="220" y="170" fill="#d4a015" /><rect width="10" height="10" x="230" y="170" fill="#ffe939" /><rect width="10" height="10" x="240" y="170" fill="#fff671" /><rect width="250" height="10" x="40" y="180" fill="#ffe939" /><rect width="10" height="10" x="40" y="190" fill="#fff671" /><rect width="10" height="10" x="50" y="190" fill="#fbc800" /><rect width="20" height="10" x="60" y="190" fill="#fff671" /><rect width="10" height="10" x="80" y="190" fill="#fbc800" /><rect width="40" height="10" x="90" y="190" fill="#fff671" /><rect width="10" height="10" x="130" y="190" fill="#fbc800" /><rect width="50" height="10" x="140" y="190" fill="#fff671" /><rect width="10" height="10" x="190" y="190" fill="#fbc800" /><rect width="40" height="10" x="200" y="190" fill="#fff671" /><rect width="10" height="10" x="240" y="190" fill="#fbc800" /><rect width="20" height="10" x="250" y="190" fill="#fff671" /><rect width="10" height="10" x="270" y="190" fill="#fbc800" /><rect width="10" height="10" x="280" y="190" fill="#fff671" /><rect width="10" height="10" x="50" y="200" fill="#fbc800" /><rect width="10" height="10" x="80" y="200" fill="#fbc800" /><rect width="10" height="10" x="130" y="200" fill="#fbc800" /><rect width="10" height="10" x="190" y="200" fill="#fbc800" /><rect width="10" height="10" x="240" y="200" fill="#fbc800" /><rect width="10" height="10" x="270" y="200" fill="#fbc800" /><rect width="60" height="10" x="100" y="110" fill="#2b83f6" /><rect width="60" height="10" x="170" y="110" fill="#2b83f6" /><rect width="10" height="10" x="100" y="120" fill="#2b83f6" /><rect width="20" height="10" x="110" y="120" fill="#ffffff" /><rect width="20" height="10" x="130" y="120" fill="#000000" /><rect width="10" height="10" x="150" y="120" fill="#2b83f6" /><rect width="10" height="10" x="170" y="120" fill="#2b83f6" /><rect width="20" height="10" x="180" y="120" fill="#ffffff" /><rect width="20" height="10" x="200" y="120" fill="#000000" /><rect width="10" height="10" x="220" y="120" fill="#2b83f6" /><rect width="40" height="10" x="70" y="130" fill="#2b83f6" /><rect width="20" height="10" x="110" y="130" fill="#ffffff" /><rect width="20" height="10" x="130" y="130" fill="#000000" /><rect width="30" height="10" x="150" y="130" fill="#2b83f6" /><rect width="20" height="10" x="180" y="130" fill="#ffffff" /><rect width="20" height="10" x="200" y="130" fill="#000000" /><rect width="10" height="10" x="220" y="130" fill="#2b83f6" /><rect width="10" height="10" x="70" y="140" fill="#2b83f6" /><rect width="10" height="10" x="100" y="140" fill="#2b83f6" /><rect width="20" height="10" x="110" y="140" fill="#ffffff" /><rect width="20" height="10" x="130" y="140" fill="#000000" /><rect width="10" height="10" x="150" y="140" fill="#2b83f6" /><rect width="10" height="10" x="170" y="140" fill="#2b83f6" /><rect width="20" height="10" x="180" y="140" fill="#ffffff" /><rect width="20" height="10" x="200" y="140" fill="#000000" /><rect width="10" height="10" x="220" y="140" fill="#2b83f6" /><rect width="10" height="10" x="70" y="150" fill="#2b83f6" /><rect width="10" height="10" x="100" y="150" fill="#2b83f6" /><rect width="20" height="10" x="110" y="150" fill="#ffffff" /><rect width="20" height="10" x="130" y="150" fill="#000000" /><rect width="10" height="10" x="150" y="150" fill="#2b83f6" /><rect width="10" height="10" x="170" y="150" fill="#2b83f6" /><rect width="20" height="10" x="180" y="150" fill="#ffffff" /><rect width="20" height="10" x="200" y="150" fill="#000000" /><rect width="10" height="10" x="220" y="150" fill="#2b83f6" /><rect width="60" height="10" x="100" y="160" fill="#2b83f6" /><rect width="60" height="10" x="170" y="160" fill="#2b83f6" /></svg>