<svg viewBox="0 0 320 320" xmlns="http://www.w3.org/2000/svg" shape-rendering="crispEdges"><rect width="100%" height="100%" fill="#d5d7e1" /><rect width="140" height="10" x="90" y="210" fill="#4b4949" /><rect width="140" height="10" x="90" y="220" fill="#4b4949" /><rect width="140" height="10" x="90" y="230" fill="#4b4949" /><rect width="140" height="10" x="90" y="240" fill="#4b4949" /><rect width="20" height="10" x="90" y="250" fill="#4b4949" /><rect width="110" height="10" x="120" y="250" fill="#4b4949" /><rect width="20" height="10" x="90" y="260" fill="#4b4949" /><rect width="110" height="10" x="120" y="260" fill="#4b4949" /><rect width="20" height="10" x="90" y="270" fill="#4b4949" /><rect width="110" height="10" x="120" y="270" fill="#4b4949" /><rect width="20" height="10" x="90" y="280" fill="#4b4949" /><rect width="110" height="10" x="120" y="280" fill="#4b4949" /><rect width="20" height="10" x="90" y="290" fill="#4b4949" /><rect width="110" height="10" x="120" y="290" fill="#4b4949" /><rect width="20" height="10" x="90" y="300" fill="#4b4949" /><rect width="110" height="10" x="120" y="300" fill="#4b4949" /><rect width="20" height="10" x="90" y="310" fill="#4b4949" /><rect width="110" height="10" x="120" y="310" fill="#4b4949" /><rect width="10" height="10" x="110" y="220" fill="#ffffff" /><rect width="10" height="10" x="100" y="240" fill="#ffffff" /><rect width="20" height="10" x="140" y="250" fill="#76858b" /><rect width="10" height="10" x="180" y="250" fill="#76858b" /><rect width="30" height="10" x="130" y="260" fill="#76858b" /><rect width="20" height="10" x="170" y="260" fill="#76858b" /><rect width="10" height="10" x="100" y="270" fill="#76858b" /><rect width="80" height="10" x="120" y="270" fill="#76858b" /><rect width="20" height="10" x="90" y="280" fill="#76858b" /><rect width="80" height="10" x="120" y="280" fill="#76858b" /><rect width="10" height="10" x="210" y="280" fill="#76858b" /><rect width="20" height="10" x="90" y="290" fill="#76858b" /><rect width="110" height="10" x="120" y="290" fill="#76858b" /><rect width="20" height="10" x="190" y="300" fill="#00499c" /><rect width="10" height="10" x="220" y="300" fill="#00499c" /><rect width="10" height="10" x="100" y="310" fill="#00499c" /><rect width="20" height="10" x="130" y="310" fill="#00499c" /><rect width="10" height="10" x="160" y="310" fill="#00499c" /><rect width="80" height="10" x="120" y="70" fill="#f5fcff" /><rect width="30" height="10" x="100" y="80" fill="#f5fcff" /><rect width="60" height="10" x="130" y="80" fill="#fff0be" /><rect width="30" height="10" x="190" y="80" fill="#f5fcff" /><rect width="30" height="10" x="80" y="90" fill="#f5fcff" /><rect width="20" height="10" x="110" y="90" fill="#fff0be" /><rect width="60" height="10" x="130" y="90" fill="#ffe939" /><rect width="20" height="10" x="190" y="90" fill="#fff0be" /><rect width="30" height="10" x="210" y="90" fill="#f5fcff" /><rect width="20" height="10" x="70" y="100" fill="#f5fcff" /><rect width="10" height="10" x="90" y="100" fill="#fff0be" /><rect width="30" height="10" x="100" y="100" fill="#f938d8" /><rect width="10" height="10" x="130" y="100" fill="#f9f5e9" /><rect width="10" height="10" x="140" y="100" fill="#abf131" /><rect width="20" height="10" x="150" y="100" fill="#f8ce47" /><rect width="10" height="10" x="170" y="100" fill="#fdf8ff" /><rect width="10" height="10" x="180" y="100" fill="#f938d8" /><rect width="20" height="10" x="190" y="100" fill="#ffe939" /><rect width="20" height="10" x="210" y="100" fill="#fff0be" /><rect width="20" height="10" x="230" y="100" fill="#f5fcff" /><rect width="20" height="10" x="60" y="110" fill="#f5fcff" /><rect width="20" height="10" x="80" y="110" fill="#fff0be" /><rect width="30" height="10" x="100" y="110" fill="#fdf8ff" /><rect width="20" height="10" x="130" y="110" fill="#f8ce47" /><rect width="20" height="10" x="150" y="110" fill="#f9f5e9" /><rect width="10" height="10" x="170" y="110" fill="#fdf8ff" /><rect width="10" height="10" x="180" y="110" fill="#f938d8" /><rect width="10" height="10" x="190" y="110" fill="#abf131" /><rect width="20" height="10" x="200" y="110" fill="#f9f5e9" /><rect width="20" height="10" x="220" y="110" fill="#fff0be" /><rect width="20" height="10" x="240" y="110" fill="#f5fcff" /><rect width="10" height="10" x="60" y="120" fill="#f5fcff" /><rect width="20" height="10" x="70" y="120" fill="#fff0be" /><rect width="10" height="10" x="90" y="120" fill="#abf131" /><rect width="50" height="10" x="100" y="120" fill="#f9f5e9" /><rect width="10" height="10" x="150" y="120" fill="#abf131" /><rect width="10" height="10" x="160" y="120" fill="#7e5243" /><rect width="10" height="10" x="170" y="120" fill="#fdf8ff" /><rect width="10" height="10" x="180" y="120" fill="#f938d8" /><rect width="20" height="10" x="190" y="120" fill="#f9f5e9" /><rect width="20" height="10" x="210" y="120" fill="#ffe939" /><rect width="20" height="10" x="230" y="120" fill="#fff0be" /><rect width="10" height="10" x="250" y="120" fill="#f5fcff" /><rect width="10" height="10" x="60" y="130" fill="#f5fcff" /><rect width="10" height="10" x="70" y="130" fill="#fff0be" /><rect width="10" height="10" x="80" y="130" fill="#ffe939" /><rect width="20" height="10" x="90" y="130" fill="#abf131" /><rect width="10" height="10" x="110" y="130" fill="#f9f5e9" /><rect width="20" height="10" x="120" y="130" fill="#f8ce47" /><rect width="20" height="10" x="140" y="130" fill="#f9f5e9" /><rect width="10" height="10" x="160" y="130" fill="#7e5243" /><rect width="20" height="10" x="170" y="130" fill="#f9f5e9" /><rect width="20" height="10" x="190" y="130" fill="#f8ce47" /><rect width="10" height="10" x="210" y="130" fill="#abf131" /><rect width="20" height="10" x="220" y="130" fill="#7e5243" /><rect width="10" height="10" x="240" y="130" fill="#fff0be" /><rect width="10" height="10" x="250" y="130" fill="#f5fcff" /><rect width="10" height="10" x="60" y="140" fill="#f5fcff" /><rect width="10" height="10" x="70" y="140" fill="#fff0be" /><rect width="20" height="10" x="80" y="140" fill="#f8ce47" /><rect width="20" height="10" x="100" y="140" fill="#fdf8ff" /><rect width="30" height="10" x="120" y="140" fill="#7e5243" /><rect width="30" height="10" x="150" y="140" fill="#fdf8ff" /><rect width="10" height="10" x="180" y="140" fill="#7e5243" /><rect width="20" height="10" x="190" y="140" fill="#abf131" /><rect width="30" height="10" x="210" y="140" fill="#f938d8" /><rect width="10" height="10" x="240" y="140" fill="#fff0be" /><rect width="10" height="10" x="250" y="140" fill="#f5fcff" /><rect width="20" height="10" x="60" y="150" fill="#f5fcff" /><rect width="10" height="10" x="80" y="150" fill="#fff0be" /><rect width="30" height="10" x="90" y="150" fill="#f938d8" /><rect width="20" height="10" x="120" y="150" fill="#f9f5e9" /><rect width="10" height="10" x="140" y="150" fill="#f8ce47" /><rect width="30" height="10" x="150" y="150" fill="#f938d8" /><rect width="10" height="10" x="180" y="150" fill="#7e5243" /><rect width="10" height="10" x="190" y="150" fill="#f8ce47" /><rect width="10" height="10" x="200" y="150" fill="#f9f5e9" /><rect width="30" height="10" x="210" y="150" fill="#fdf8ff" /><rect width="20" height="10" x="240" y="150" fill="#f5fcff" /><rect width="20" height="10" x="70" y="160" fill="#f5fcff" /><rect width="10" height="10" x="90" y="160" fill="#ffe939" /><rect width="10" height="10" x="100" y="160" fill="#f8ce47" /><rect width="20" height="10" x="110" y="160" fill="#abf131" /><rect width="50" height="10" x="130" y="160" fill="#f9f5e9" /><rect width="10" height="10" x="180" y="160" fill="#7e5243" /><rect width="10" height="10" x="190" y="160" fill="#f8ce47" /><rect width="10" height="10" x="200" y="160" fill="#abf131" /><rect width="30" height="10" x="210" y="160" fill="#ffe939" /><rect width="10" height="10" x="240" y="160" fill="#f5fcff" /><rect width="10" height="10" x="70" y="170" fill="#adc8cc" /><rect width="30" height="10" x="80" y="170" fill="#f5fcff" /><rect width="10" height="10" x="110" y="170" fill="#fff0be" /><rect width="20" height="10" x="120" y="170" fill="#f9f5e9" /><rect width="10" height="10" x="140" y="170" fill="#fa5e20" /><rect width="10" height="10" x="150" y="170" fill="#ffe939" /><rect width="20" height="10" x="160" y="170" fill="#f8ce47" /><rect width="10" height="10" x="180" y="170" fill="#ffe939" /><rect width="20" height="10" x="190" y="170" fill="#fff0be" /><rect width="30" height="10" x="210" y="170" fill="#f5fcff" /><rect width="10" height="10" x="240" y="170" fill="#adc8cc" /><rect width="20" height="10" x="80" y="180" fill="#adc8cc" /><rect width="30" height="10" x="100" y="180" fill="#f5fcff" /><rect width="10" height="10" x="130" y="180" fill="#fff0be" /><rect width="10" height="10" x="140" y="180" fill="#f89865" /><rect width="10" height="10" x="150" y="180" fill="#fa5e20" /><rect width="10" height="10" x="160" y="180" fill="#f89865" /><rect width="20" height="10" x="170" y="180" fill="#fff0be" /><rect width="30" height="10" x="190" y="180" fill="#f5fcff" /><rect width="20" height="10" x="220" y="180" fill="#adc8cc" /><rect width="30" height="10" x="90" y="190" fill="#adc8cc" /><rect width="80" height="10" x="120" y="190" fill="#f5fcff" /><rect width="30" height="10" x="200" y="190" fill="#adc8cc" /><rect width="120" height="10" x="100" y="200" fill="#adc8cc" /><rect width="60" height="10" x="100" y="110" fill="#ffc110" /><rect width="60" height="10" x="170" y="110" fill="#f98f30" /><rect width="10" height="10" x="100" y="120" fill="#ffc110" /><rect width="20" height="10" x="110" y="120" fill="#ffffff" /><rect width="20" height="10" x="130" y="120" fill="#000000" /><rect width="10" height="10" x="150" y="120" fill="#ffc110" /><rect width="10" height="10" x="170" y="120" fill="#f98f30" /><rect width="20" height="10" x="180" y="120" fill="#ffffff" /><rect width="20" height="10" x="200" y="120" fill="#000000" /><rect width="10" height="10" x="220" y="120" fill="#f98f30" /><rect width="30" height="10" x="70" y="130" fill="#f78a18" /><rect width="10" height="10" x="100" y="130" fill="#ffc110" /><rect width="20" height="10" x="110" y="130" fill="#ffffff" /><rect width="20" height="10" x="130" y="130" fill="#000000" /><rect width="10" height="10" x="150" y="130" fill="#ffc110" /><rect width="10" height="10" x="160" y="130" fill="#f78a18" /><rect width="10" height="10" x="170" y="130" fill="#f98f30" /><rect width="20" height="10" x="180" y="130" fill="#ffffff" /><rect width="20" height="10" x="200" y="130" fill="#000000" /><rect width="10" height="10" x="220" y="130" fill="#f98f30" /><rect width="10" height="10" x="70" y="140" fill="#ffc110" /><rect width="10" height="10" x="100" y="140" fill="#ffc110" /><rect width="20" height="10" x="110" y="140" fill="#ffffff" /><rect width="20" height="10" x="130" y="140" fill="#000000" /><rect width="10" height="10" x="150" y="140" fill="#ffc110" /><rect width="10" height="10" x="170" y="140" fill="#f98f30" /><rect width="20" height="10" x="180" y="140" fill="#ffffff" /><rect width="20" height="10" x="200" y="140" fill="#000000" /><rect width="10" height="10" x="220" y="140" fill="#f98f30" /><rect width="10" height="10" x="70" y="150" fill="#ffc110" /><rect width="10" height="10" x="100" y="150" fill="#ffc110" /><rect width="20" height="10" x="110" y="150" fill="#ffffff" /><rect width="20" height="10" x="130" y="150" fill="#000000" /><rect width="10" height="10" x="150" y="150" fill="#ffc110" /><rect width="10" height="10" x="170" y="150" fill="#f98f30" /><rect width="20" height="10" x="180" y="150" fill="#ffffff" /><rect width="20" height="10" x="200" y="150" fill="#000000" /><rect width="10" height="10" x="220" y="150" fill="#f98f30" /><rect width="60" height="10" x="100" y="160" fill="#ffc110" /><rect width="60" height="10" x="170" y="160" fill="#f98f30" /></svg>