<svg viewBox="0 0 320 320" xmlns="http://www.w3.org/2000/svg" shape-rendering="crispEdges"><rect width="100%" height="100%" fill="#e1d7d5" /><rect width="140" height="10" x="90" y="210" fill="#eed811" /><rect width="140" height="10" x="90" y="220" fill="#eed811" /><rect width="140" height="10" x="90" y="230" fill="#eed811" /><rect width="140" height="10" x="90" y="240" fill="#eed811" /><rect width="20" height="10" x="90" y="250" fill="#eed811" /><rect width="110" height="10" x="120" y="250" fill="#eed811" /><rect width="20" height="10" x="90" y="260" fill="#eed811" /><rect width="110" height="10" x="120" y="260" fill="#eed811" /><rect width="20" height="10" x="90" y="270" fill="#eed811" /><rect width="110" height="10" x="120" y="270" fill="#eed811" /><rect width="20" height="10" x="90" y="280" fill="#eed811" /><rect width="110" height="10" x="120" y="280" fill="#eed811" /><rect width="20" height="10" x="90" y="290" fill="#eed811" /><rect width="110" height="10" x="120" y="290" fill="#eed811" /><rect width="20" height="10" x="90" y="300" fill="#eed811" /><rect width="110" height="10" x="120" y="300" fill="#eed811" /><rect width="20" height="10" x="90" y="310" fill="#eed811" /><rect width="110" height="10" x="120" y="310" fill="#eed811" /><rect width="40" height="10" x="150" y="250" fill="#ae3208" /><rect width="20" height="10" x="130" y="260" fill="#ffffff" /><rect width="10" height="10" x="150" y="260" fill="#f8d689" /><rect width="10" height="10" x="160" y="260" fill="#ae3208" /><rect width="10" height="10" x="170" y="260" fill="#c54e38" /><rect width="10" height="10" x="180" y="260" fill="#ae3208" /><rect width="10" height="10" x="190" y="260" fill="#ffffff" /><rect width="20" height="10" x="150" y="270" fill="#f8d689" /><rect width="20" height="10" x="170" y="270" fill="#c54e38" /><rect width="110" height="10" x="80" y="30" fill="#00499c" /><rect width="130" height="10" x="70" y="40" fill="#00499c" /><rect width="170" height="10" x="40" y="50" fill="#00499c" /><rect width="40" height="10" x="50" y="60" fill="#1e3445" /><rect width="130" height="10" x="90" y="60" fill="#00499c" /><rect width="20" height="10" x="60" y="70" fill="#1e3445" /><rect width="150" height="10" x="80" y="70" fill="#00499c" /><rect width="160" height="10" x="70" y="80" fill="#00499c" /><rect width="160" height="10" x="70" y="90" fill="#00499c" /><rect width="170" height="10" x="60" y="100" fill="#00499c" /><rect width="50" height="10" x="60" y="110" fill="#00499c" /><rect width="120" height="10" x="110" y="110" fill="#4b4949" /><rect width="20" height="10" x="60" y="120" fill="#00499c" /><rect width="150" height="10" x="80" y="120" fill="#4b4949" /><rect width="200" height="10" x="40" y="130" fill="#4b4949" /><rect width="40" height="10" x="50" y="140" fill="#4b4949" /><rect width="40" height="10" x="90" y="140" fill="#ffffff" /><rect width="50" height="10" x="130" y="140" fill="#4b4949" /><rect width="10" height="10" x="180" y="140" fill="#fccf25" /><rect width="30" height="10" x="190" y="140" fill="#4b4949" /><rect width="10" height="10" x="220" y="140" fill="#ffffff" /><rect width="10" height="10" x="230" y="140" fill="#4b4949" /><rect width="40" height="10" x="40" y="150" fill="#4b4949" /><rect width="60" height="10" x="80" y="150" fill="#ffffff" /><rect width="30" height="10" x="140" y="150" fill="#4b4949" /><rect width="30" height="10" x="170" y="150" fill="#fccf25" /><rect width="10" height="10" x="200" y="150" fill="#4b4949" /><rect width="20" height="10" x="210" y="150" fill="#ffffff" /><rect width="10" height="10" x="230" y="150" fill="#4b4949" /><rect width="30" height="10" x="50" y="160" fill="#4b4949" /><rect width="60" height="10" x="80" y="160" fill="#ffffff" /><rect width="10" height="10" x="140" y="160" fill="#4b4949" /><rect width="70" height="10" x="150" y="160" fill="#fccf25" /><rect width="10" height="10" x="220" y="160" fill="#ffffff" /><rect width="10" height="10" x="230" y="160" fill="#4b4949" /><rect width="20" height="10" x="60" y="170" fill="#4b4949" /><rect width="40" height="10" x="80" y="170" fill="#ffffff" /><rect width="140" height="10" x="120" y="170" fill="#fccf25" /><rect width="30" height="10" x="260" y="170" fill="#d4a015" /><rect width="20" height="10" x="60" y="180" fill="#4b4949" /><rect width="40" height="10" x="80" y="180" fill="#ffffff" /><rect width="30" height="10" x="120" y="180" fill="#fccf25" /><rect width="30" height="10" x="150" y="180" fill="#f9f6d1" /><rect width="10" height="10" x="180" y="180" fill="#eedc00" /><rect width="10" height="10" x="190" y="180" fill="#c4da53" /><rect width="20" height="10" x="200" y="180" fill="#867c1d" /><rect width="10" height="10" x="290" y="180" fill="#d4a015" /><rect width="10" height="10" x="70" y="190" fill="#4b4949" /><rect width="50" height="10" x="80" y="190" fill="#ffffff" /><rect width="30" height="10" x="130" y="190" fill="#fccf25" /><rect width="30" height="10" x="160" y="190" fill="#f9f6d1" /><rect width="10" height="10" x="190" y="190" fill="#eedc00" /><rect width="10" height="10" x="200" y="190" fill="#c4da53" /><rect width="20" height="10" x="210" y="190" fill="#867c1d" /><rect width="10" height="10" x="80" y="200" fill="#4b4949" /><rect width="50" height="10" x="90" y="200" fill="#ffffff" /><rect width="40" height="10" x="140" y="200" fill="#fccf25" /><rect width="20" height="10" x="180" y="200" fill="#f9f6d1" /><rect width="10" height="10" x="200" y="200" fill="#eedc00" /><rect width="20" height="10" x="210" y="200" fill="#867c1d" /><rect width="20" height="10" x="190" y="210" fill="#f9f6d1" /><rect width="10" height="10" x="210" y="210" fill="#c4da53" /><rect width="10" height="10" x="220" y="210" fill="#867c1d" /><rect width="10" height="10" x="230" y="210" fill="#fccf25" /><rect width="20" height="10" x="240" y="210" fill="#d4a015" /><rect width="10" height="10" x="210" y="220" fill="#c4da53" /><rect width="10" height="10" x="220" y="220" fill="#867c1d" /><rect width="20" height="10" x="250" y="220" fill="#d4a015" /><rect width="10" height="10" x="220" y="230" fill="#c4da53" /><rect width="10" height="10" x="230" y="230" fill="#867c1d" /><rect width="10" height="10" x="210" y="240" fill="#eedc00" /><rect width="20" height="10" x="220" y="240" fill="#f9f6d1" /><rect width="10" height="10" x="240" y="240" fill="#eedc00" /><rect width="10" height="10" x="200" y="250" fill="#eedc00" /><rect width="10" height="10" x="250" y="250" fill="#eedc00" /><rect width="60" height="10" x="100" y="110" fill="#ff638d" /><rect width="60" height="10" x="170" y="110" fill="#cc0595" /><rect width="10" height="10" x="100" y="120" fill="#ff638d" /><rect width="20" height="10" x="110" y="120" fill="#ffffff" /><rect width="20" height="10" x="130" y="120" fill="#000000" /><rect width="10" height="10" x="150" y="120" fill="#ff638d" /><rect width="10" height="10" x="170" y="120" fill="#cc0595" /><rect width="20" height="10" x="180" y="120" fill="#ffffff" /><rect width="20" height="10" x="200" y="120" fill="#000000" /><rect width="10" height="10" x="220" y="120" fill="#cc0595" /><rect width="30" height="10" x="70" y="130" fill="#ab36be" /><rect width="10" height="10" x="100" y="130" fill="#ff638d" /><rect width="20" height="10" x="110" y="130" fill="#ffffff" /><rect width="20" height="10" x="130" y="130" fill="#000000" /><rect width="10" height="10" x="150" y="130" fill="#ff638d" /><rect width="10" height="10" x="160" y="130" fill="#ab36be" /><rect width="10" height="10" x="170" y="130" fill="#cc0595" /><rect width="20" height="10" x="180" y="130" fill="#ffffff" /><rect width="20" height="10" x="200" y="130" fill="#000000" /><rect width="10" height="10" x="220" y="130" fill="#cc0595" /><rect width="10" height="10" x="70" y="140" fill="#cc0595" /><rect width="10" height="10" x="100" y="140" fill="#ff638d" /><rect width="20" height="10" x="110" y="140" fill="#ffffff" /><rect width="20" height="10" x="130" y="140" fill="#000000" /><rect width="10" height="10" x="150" y="140" fill="#ff638d" /><rect width="10" height="10" x="170" y="140" fill="#cc0595" /><rect width="20" height="10" x="180" y="140" fill="#ffffff" /><rect width="20" height="10" x="200" y="140" fill="#000000" /><rect width="10" height="10" x="220" y="140" fill="#cc0595" /><rect width="10" height="10" x="70" y="150" fill="#cc0595" /><rect width="10" height="10" x="100" y="150" fill="#ff638d" /><rect width="20" height="10" x="110" y="150" fill="#ffffff" /><rect width="20" height="10" x="130" y="150" fill="#000000" /><rect width="10" height="10" x="150" y="150" fill="#ff638d" /><rect width="10" height="10" x="170" y="150" fill="#cc0595" /><rect width="20" height="10" x="180" y="150" fill="#ffffff" /><rect width="20" height="10" x="200" y="150" fill="#000000" /><rect width="10" height="10" x="220" y="150" fill="#cc0595" /><rect width="60" height="10" x="100" y="160" fill="#ff638d" /><rect width="60" height="10" x="170" y="160" fill="#cc0595" /></svg>