<svg viewBox="0 0 320 320" xmlns="http://www.w3.org/2000/svg" shape-rendering="crispEdges"><rect width="100%" height="100%" fill="#e1d7d5" /><rect width="140" height="10" x="90" y="210" fill="#d26451" /><rect width="140" height="10" x="90" y="220" fill="#d26451" /><rect width="140" height="10" x="90" y="230" fill="#d26451" /><rect width="140" height="10" x="90" y="240" fill="#d26451" /><rect width="20" height="10" x="90" y="250" fill="#d26451" /><rect width="110" height="10" x="120" y="250" fill="#d26451" /><rect width="20" height="10" x="90" y="260" fill="#d26451" /><rect width="110" height="10" x="120" y="260" fill="#d26451" /><rect width="20" height="10" x="90" y="270" fill="#d26451" /><rect width="110" height="10" x="120" y="270" fill="#d26451" /><rect width="20" height="10" x="90" y="280" fill="#d26451" /><rect width="110" height="10" x="120" y="280" fill="#d26451" /><rect width="20" height="10" x="90" y="290" fill="#d26451" /><rect width="110" height="10" x="120" y="290" fill="#d26451" /><rect width="20" height="10" x="90" y="300" fill="#d26451" /><rect width="110" height="10" x="120" y="300" fill="#d26451" /><rect width="20" height="10" x="90" y="310" fill="#d26451" /><rect width="110" height="10" x="120" y="310" fill="#d26451" /><rect width="10" height="10" x="150" y="250" fill="#f8d689" /><rect width="10" height="10" x="160" y="250" fill="#ffd067" /><rect width="10" height="10" x="170" y="250" fill="#e7a32c" /><rect width="10" height="10" x="180" y="250" fill="#ff7216" /><rect width="10" height="10" x="150" y="260" fill="#e7a32c" /><rect width="10" height="10" x="160" y="260" fill="#f9f4e6" /><rect width="10" height="10" x="170" y="260" fill="#ffd067" /><rect width="10" height="10" x="180" y="260" fill="#f8d689" /><rect width="10" height="10" x="150" y="270" fill="#ffd067" /><rect width="10" height="10" x="160" y="270" fill="#ff7216" /><rect width="10" height="10" x="170" y="270" fill="#f86100" /><rect width="10" height="10" x="180" y="270" fill="#f9f4e6" /><rect width="30" height="10" x="60" y="40" fill="#903707" /><rect width="40" height="10" x="140" y="40" fill="#903707" /><rect width="40" height="10" x="220" y="40" fill="#903707" /><rect width="60" height="10" x="40" y="50" fill="#903707" /><rect width="60" height="10" x="130" y="50" fill="#903707" /><rect width="60" height="10" x="210" y="50" fill="#903707" /><rect width="20" height="10" x="40" y="60" fill="#903707" /><rect width="10" height="10" x="60" y="60" fill="#f9e8dd" /><rect width="10" height="10" x="70" y="60" fill="#903707" /><rect width="10" height="10" x="80" y="60" fill="#f9e8dd" /><rect width="20" height="10" x="90" y="60" fill="#903707" /><rect width="20" height="10" x="120" y="60" fill="#903707" /><rect width="10" height="10" x="140" y="60" fill="#f9e8dd" /><rect width="10" height="10" x="150" y="60" fill="#903707" /><rect width="10" height="10" x="160" y="60" fill="#f9e8dd" /><rect width="60" height="10" x="170" y="60" fill="#903707" /><rect width="10" height="10" x="230" y="60" fill="#f9e8dd" /><rect width="10" height="10" x="240" y="60" fill="#903707" /><rect width="10" height="10" x="250" y="60" fill="#f9e8dd" /><rect width="10" height="10" x="260" y="60" fill="#903707" /><rect width="10" height="10" x="30" y="70" fill="#903707" /><rect width="10" height="10" x="40" y="70" fill="#552d1d" /><rect width="50" height="10" x="50" y="70" fill="#f9e8dd" /><rect width="30" height="10" x="100" y="70" fill="#903707" /><rect width="50" height="10" x="130" y="70" fill="#f9e8dd" /><rect width="40" height="10" x="180" y="70" fill="#903707" /><rect width="50" height="10" x="220" y="70" fill="#f9e8dd" /><rect width="10" height="10" x="270" y="70" fill="#903707" /><rect width="10" height="10" x="30" y="80" fill="#903707" /><rect width="10" height="10" x="40" y="80" fill="#552d1d" /><rect width="10" height="10" x="50" y="80" fill="#f9e8dd" /><rect width="10" height="10" x="60" y="80" fill="#1f1d29" /><rect width="10" height="10" x="70" y="80" fill="#f9e8dd" /><rect width="10" height="10" x="80" y="80" fill="#1f1d29" /><rect width="10" height="10" x="90" y="80" fill="#f9e8dd" /><rect width="10" height="10" x="100" y="80" fill="#552d1d" /><rect width="10" height="10" x="110" y="80" fill="#903707" /><rect width="20" height="10" x="120" y="80" fill="#f9e8dd" /><rect width="10" height="10" x="140" y="80" fill="#1f1d29" /><rect width="10" height="10" x="150" y="80" fill="#f9e8dd" /><rect width="10" height="10" x="160" y="80" fill="#1f1d29" /><rect width="20" height="10" x="170" y="80" fill="#f9e8dd" /><rect width="20" height="10" x="190" y="80" fill="#903707" /><rect width="20" height="10" x="210" y="80" fill="#f9e8dd" /><rect width="30" height="10" x="230" y="80" fill="#552d1d" /><rect width="10" height="10" x="260" y="80" fill="#f9e8dd" /><rect width="10" height="10" x="270" y="80" fill="#903707" /><rect width="20" height="10" x="30" y="90" fill="#552d1d" /><rect width="50" height="10" x="50" y="90" fill="#f9e8dd" /><rect width="10" height="10" x="100" y="90" fill="#552d1d" /><rect width="20" height="10" x="110" y="90" fill="#903707" /><rect width="40" height="10" x="130" y="90" fill="#f9e8dd" /><rect width="10" height="10" x="170" y="90" fill="#552d1d" /><rect width="10" height="10" x="180" y="90" fill="#f9e8dd" /><rect width="10" height="10" x="190" y="90" fill="#903707" /><rect width="10" height="10" x="200" y="90" fill="#6e3206" /><rect width="10" height="10" x="210" y="90" fill="#903707" /><rect width="50" height="10" x="220" y="90" fill="#552d1d" /><rect width="20" height="10" x="40" y="100" fill="#903707" /><rect width="10" height="10" x="60" y="100" fill="#f9e8dd" /><rect width="20" height="10" x="70" y="100" fill="#1f1d29" /><rect width="10" height="10" x="90" y="100" fill="#f9e8dd" /><rect width="10" height="10" x="100" y="100" fill="#552d1d" /><rect width="20" height="10" x="110" y="100" fill="#903707" /><rect width="10" height="10" x="130" y="100" fill="#f9e8dd" /><rect width="40" height="10" x="140" y="100" fill="#552d1d" /><rect width="10" height="10" x="180" y="100" fill="#6e3206" /><rect width="30" height="10" x="190" y="100" fill="#903707" /><rect width="20" height="10" x="220" y="100" fill="#552d1d" /><rect width="10" height="10" x="240" y="100" fill="#1f1d29" /><rect width="20" height="10" x="250" y="100" fill="#552d1d" /><rect width="10" height="10" x="270" y="100" fill="#903707" /><rect width="30" height="10" x="30" y="110" fill="#903707" /><rect width="30" height="10" x="60" y="110" fill="#f9e8dd" /><rect width="40" height="10" x="90" y="110" fill="#903707" /><rect width="10" height="10" x="130" y="110" fill="#6e3206" /><rect width="40" height="10" x="140" y="110" fill="#552d1d" /><rect width="10" height="10" x="180" y="110" fill="#903707" /><rect width="10" height="10" x="190" y="110" fill="#6e3206" /><rect width="30" height="10" x="200" y="110" fill="#903707" /><rect width="20" height="10" x="230" y="110" fill="#f9e8dd" /><rect width="40" height="10" x="250" y="110" fill="#903707" /><rect width="10" height="10" x="20" y="120" fill="#903707" /><rect width="10" height="10" x="30" y="120" fill="#6e3206" /><rect width="30" height="10" x="40" y="120" fill="#903707" /><rect width="30" height="10" x="70" y="120" fill="#f9e8dd" /><rect width="20" height="10" x="100" y="120" fill="#903707" /><rect width="10" height="10" x="120" y="120" fill="#6e3206" /><rect width="20" height="10" x="130" y="120" fill="#903707" /><rect width="10" height="10" x="150" y="120" fill="#552d1d" /><rect width="10" height="10" x="160" y="120" fill="#903707" /><rect width="10" height="10" x="170" y="120" fill="#552d1d" /><rect width="50" height="10" x="180" y="120" fill="#903707" /><rect width="30" height="10" x="230" y="120" fill="#f9e8dd" /><rect width="10" height="10" x="260" y="120" fill="#6e3206" /><rect width="30" height="10" x="270" y="120" fill="#903707" /><rect width="10" height="10" x="20" y="130" fill="#903707" /><rect width="10" height="10" x="30" y="130" fill="#6e3206" /><rect width="30" height="10" x="40" y="130" fill="#903707" /><rect width="30" height="10" x="70" y="130" fill="#f9e8dd" /><rect width="50" height="10" x="110" y="130" fill="#903707" /><rect width="10" height="10" x="160" y="130" fill="#f9e8dd" /><rect width="50" height="10" x="170" y="130" fill="#903707" /><rect width="40" height="10" x="220" y="130" fill="#f9e8dd" /><rect width="10" height="10" x="260" y="130" fill="#903707" /><rect width="10" height="10" x="270" y="130" fill="#6e3206" /><rect width="20" height="10" x="280" y="130" fill="#903707" /><rect width="20" height="10" x="20" y="140" fill="#903707" /><rect width="10" height="10" x="40" y="140" fill="#6e3206" /><rect width="20" height="10" x="50" y="140" fill="#903707" /><rect width="30" height="10" x="70" y="140" fill="#f9e8dd" /><rect width="30" height="10" x="110" y="140" fill="#903707" /><rect width="40" height="10" x="140" y="140" fill="#f9e8dd" /><rect width="40" height="10" x="180" y="140" fill="#903707" /><rect width="40" height="10" x="220" y="140" fill="#f9e8dd" /><rect width="10" height="10" x="260" y="140" fill="#903707" /><rect width="60" height="10" x="20" y="150" fill="#903707" /><rect width="20" height="10" x="80" y="150" fill="#f9e8dd" /><rect width="20" height="10" x="110" y="150" fill="#903707" /><rect width="50" height="10" x="130" y="150" fill="#f9e8dd" /><rect width="10" height="10" x="180" y="150" fill="#6e3206" /><rect width="30" height="10" x="190" y="150" fill="#903707" /><rect width="30" height="10" x="220" y="150" fill="#f9e8dd" /><rect width="10" height="10" x="250" y="150" fill="#903707" /><rect width="30" height="10" x="20" y="160" fill="#903707" /><rect width="20" height="10" x="50" y="160" fill="#6e3206" /><rect width="10" height="10" x="70" y="160" fill="#903707" /><rect width="10" height="10" x="80" y="160" fill="#f9e8dd" /><rect width="20" height="10" x="90" y="160" fill="#903707" /><rect width="50" height="10" x="130" y="160" fill="#f9e8dd" /><rect width="10" height="10" x="180" y="160" fill="#6e3206" /><rect width="40" height="10" x="190" y="160" fill="#903707" /><rect width="10" height="10" x="230" y="160" fill="#f9e8dd" /><rect width="10" height="10" x="240" y="160" fill="#903707" /><rect width="10" height="10" x="30" y="170" fill="#903707" /><rect width="10" height="10" x="40" y="170" fill="#6e3206" /><rect width="70" height="10" x="50" y="170" fill="#903707" /><rect width="50" height="10" x="130" y="170" fill="#f9e8dd" /><rect width="50" height="10" x="180" y="170" fill="#903707" /><rect width="10" height="10" x="230" y="170" fill="#6e3206" /><rect width="20" height="10" x="240" y="170" fill="#903707" /><rect width="110" height="10" x="30" y="180" fill="#903707" /><rect width="30" height="10" x="140" y="180" fill="#f9e8dd" /><rect width="10" height="10" x="170" y="180" fill="#6e3206" /><rect width="60" height="10" x="180" y="180" fill="#903707" /><rect width="10" height="10" x="240" y="180" fill="#6e3206" /><rect width="20" height="10" x="250" y="180" fill="#903707" /><rect width="60" height="10" x="20" y="190" fill="#903707" /><rect width="10" height="10" x="80" y="190" fill="#6e3206" /><rect width="50" height="10" x="90" y="190" fill="#903707" /><rect width="10" height="10" x="140" y="190" fill="#6e3206" /><rect width="10" height="10" x="150" y="190" fill="#552d1d" /><rect width="10" height="10" x="160" y="190" fill="#f9e8dd" /><rect width="10" height="10" x="170" y="190" fill="#6e3206" /><rect width="30" height="10" x="180" y="190" fill="#903707" /><rect width="10" height="10" x="210" y="190" fill="#6e3206" /><rect width="50" height="10" x="220" y="190" fill="#903707" /><rect width="20" height="10" x="10" y="200" fill="#903707" /><rect width="10" height="10" x="40" y="200" fill="#903707" /><rect width="10" height="10" x="50" y="200" fill="#6e3206" /><rect width="20" height="10" x="60" y="200" fill="#552d1d" /><rect width="20" height="10" x="90" y="200" fill="#552d1d" /><rect width="50" height="10" x="110" y="200" fill="#903707" /><rect width="10" height="10" x="160" y="200" fill="#552d1d" /><rect width="10" height="10" x="170" y="200" fill="#6e3206" /><rect width="20" height="10" x="180" y="200" fill="#552d1d" /><rect width="10" height="10" x="210" y="200" fill="#903707" /><rect width="20" height="10" x="220" y="200" fill="#552d1d" /><rect width="10" height="10" x="240" y="200" fill="#903707" /><rect width="20" height="10" x="250" y="200" fill="#552d1d" /><rect width="60" height="10" x="100" y="110" fill="#2b83f6" /><rect width="60" height="10" x="170" y="110" fill="#2b83f6" /><rect width="10" height="10" x="100" y="120" fill="#2b83f6" /><rect width="20" height="10" x="110" y="120" fill="#ffffff" /><rect width="20" height="10" x="130" y="120" fill="#000000" /><rect width="10" height="10" x="150" y="120" fill="#2b83f6" /><rect width="10" height="10" x="170" y="120" fill="#2b83f6" /><rect width="20" height="10" x="180" y="120" fill="#ffffff" /><rect width="20" height="10" x="200" y="120" fill="#000000" /><rect width="10" height="10" x="220" y="120" fill="#2b83f6" /><rect width="40" height="10" x="70" y="130" fill="#2b83f6" /><rect width="20" height="10" x="110" y="130" fill="#ffffff" /><rect width="20" height="10" x="130" y="130" fill="#000000" /><rect width="30" height="10" x="150" y="130" fill="#2b83f6" /><rect width="20" height="10" x="180" y="130" fill="#ffffff" /><rect width="20" height="10" x="200" y="130" fill="#000000" /><rect width="10" height="10" x="220" y="130" fill="#2b83f6" /><rect width="10" height="10" x="70" y="140" fill="#2b83f6" /><rect width="10" height="10" x="100" y="140" fill="#2b83f6" /><rect width="20" height="10" x="110" y="140" fill="#ffffff" /><rect width="20" height="10" x="130" y="140" fill="#000000" /><rect width="10" height="10" x="150" y="140" fill="#2b83f6" /><rect width="10" height="10" x="170" y="140" fill="#2b83f6" /><rect width="20" height="10" x="180" y="140" fill="#ffffff" /><rect width="20" height="10" x="200" y="140" fill="#000000" /><rect width="10" height="10" x="220" y="140" fill="#2b83f6" /><rect width="10" height="10" x="70" y="150" fill="#2b83f6" /><rect width="10" height="10" x="100" y="150" fill="#2b83f6" /><rect width="20" height="10" x="110" y="150" fill="#ffffff" /><rect width="20" height="10" x="130" y="150" fill="#000000" /><rect width="10" height="10" x="150" y="150" fill="#2b83f6" /><rect width="10" height="10" x="170" y="150" fill="#2b83f6" /><rect width="20" height="10" x="180" y="150" fill="#ffffff" /><rect width="20" height="10" x="200" y="150" fill="#000000" /><rect width="10" height="10" x="220" y="150" fill="#2b83f6" /><rect width="60" height="10" x="100" y="160" fill="#2b83f6" /><rect width="60" height="10" x="170" y="160" fill="#2b83f6" /></svg>