<svg viewBox="0 0 320 320" xmlns="http://www.w3.org/2000/svg" shape-rendering="crispEdges"><rect width="100%" height="100%" fill="#e1d7d5" /><rect width="140" height="10" x="90" y="210" fill="#c54e38" /><rect width="140" height="10" x="90" y="220" fill="#c54e38" /><rect width="140" height="10" x="90" y="230" fill="#c54e38" /><rect width="140" height="10" x="90" y="240" fill="#c54e38" /><rect width="20" height="10" x="90" y="250" fill="#c54e38" /><rect width="110" height="10" x="120" y="250" fill="#c54e38" /><rect width="20" height="10" x="90" y="260" fill="#c54e38" /><rect width="110" height="10" x="120" y="260" fill="#c54e38" /><rect width="20" height="10" x="90" y="270" fill="#c54e38" /><rect width="110" height="10" x="120" y="270" fill="#c54e38" /><rect width="20" height="10" x="90" y="280" fill="#c54e38" /><rect width="110" height="10" x="120" y="280" fill="#c54e38" /><rect width="20" height="10" x="90" y="290" fill="#c54e38" /><rect width="110" height="10" x="120" y="290" fill="#c54e38" /><rect width="20" height="10" x="90" y="300" fill="#c54e38" /><rect width="110" height="10" x="120" y="300" fill="#c54e38" /><rect width="20" height="10" x="90" y="310" fill="#c54e38" /><rect width="110" height="10" x="120" y="310" fill="#c54e38" /><rect width="10" height="10" x="150" y="240" fill="#d8dadf" /><rect width="20" height="10" x="160" y="240" fill="#fff0be" /><rect width="10" height="10" x="180" y="240" fill="#d8dadf" /><rect width="10" height="10" x="150" y="250" fill="#1f1d29" /><rect width="20" height="10" x="160" y="250" fill="#4d271b" /><rect width="10" height="10" x="180" y="250" fill="#1f1d29" /><rect width="40" height="10" x="150" y="260" fill="#4d271b" /><rect width="10" height="10" x="150" y="270" fill="#ff82ad" /><rect width="20" height="10" x="160" y="270" fill="#d8dadf" /><rect width="10" height="10" x="180" y="270" fill="#ff82ad" /><rect width="30" height="10" x="200" y="20" fill="#feb9d5" /><rect width="40" height="10" x="180" y="30" fill="#feb9d5" /><rect width="10" height="10" x="220" y="30" fill="#fdcef2" /><rect width="20" height="10" x="230" y="30" fill="#feb9d5" /><rect width="30" height="10" x="140" y="40" fill="#feb9d5" /><rect width="10" height="10" x="170" y="40" fill="#fdcef2" /><rect width="30" height="10" x="180" y="40" fill="#feb9d5" /><rect width="10" height="10" x="210" y="40" fill="#552d1d" /><rect width="40" height="10" x="220" y="40" fill="#feb9d5" /><rect width="40" height="10" x="120" y="50" fill="#feb9d5" /><rect width="10" height="10" x="160" y="50" fill="#fdcef2" /><rect width="40" height="10" x="170" y="50" fill="#feb9d5" /><rect width="10" height="10" x="210" y="50" fill="#552d1d" /><rect width="20" height="10" x="220" y="50" fill="#feb9d5" /><rect width="10" height="10" x="240" y="50" fill="#fdcef2" /><rect width="10" height="10" x="250" y="50" fill="#feb9d5" /><rect width="20" height="10" x="270" y="50" fill="#feb9d5" /><rect width="20" height="10" x="80" y="60" fill="#feb9d5" /><rect width="30" height="10" x="120" y="60" fill="#feb9d5" /><rect width="10" height="10" x="150" y="60" fill="#552d1d" /><rect width="10" height="10" x="160" y="60" fill="#fdcef2" /><rect width="20" height="10" x="170" y="60" fill="#feb9d5" /><rect width="10" height="10" x="200" y="60" fill="#feb9d5" /><rect width="10" height="10" x="210" y="60" fill="#552d1d" /><rect width="20" height="10" x="220" y="60" fill="#feb9d5" /><rect width="10" height="10" x="240" y="60" fill="#fdcef2" /><rect width="10" height="10" x="260" y="60" fill="#feb9d5" /><rect width="20" height="10" x="270" y="60" fill="#552d1d" /><rect width="10" height="10" x="290" y="60" fill="#feb9d5" /><rect width="20" height="10" x="70" y="70" fill="#feb9d5" /><rect width="10" height="10" x="90" y="70" fill="#552d1d" /><rect width="10" height="10" x="100" y="70" fill="#feb9d5" /><rect width="10" height="10" x="130" y="70" fill="#feb9d5" /><rect width="10" height="10" x="150" y="70" fill="#552d1d" /><rect width="30" height="10" x="160" y="70" fill="#feb9d5" /><rect width="20" height="10" x="200" y="70" fill="#feb9d5" /><rect width="10" height="10" x="220" y="70" fill="#552d1d" /><rect width="10" height="10" x="240" y="70" fill="#fdcef2" /><rect width="10" height="10" x="250" y="70" fill="#552d1d" /><rect width="10" height="10" x="260" y="70" fill="#feb9d5" /><rect width="10" height="10" x="270" y="70" fill="#fdcef2" /><rect width="20" height="10" x="280" y="70" fill="#feb9d5" /><rect width="50" height="10" x="40" y="80" fill="#feb9d5" /><rect width="10" height="10" x="90" y="80" fill="#552d1d" /><rect width="20" height="10" x="100" y="80" fill="#feb9d5" /><rect width="10" height="10" x="140" y="80" fill="#feb9d5" /><rect width="10" height="10" x="160" y="80" fill="#552d1d" /><rect width="10" height="10" x="210" y="80" fill="#feb9d5" /><rect width="40" height="10" x="220" y="80" fill="#552d1d" /><rect width="10" height="10" x="260" y="80" fill="#feb9d5" /><rect width="10" height="10" x="270" y="80" fill="#fdcef2" /><rect width="10" height="10" x="280" y="80" fill="#feb9d5" /><rect width="10" height="10" x="290" y="80" fill="#fdcef2" /><rect width="10" height="10" x="30" y="90" fill="#feb9d5" /><rect width="10" height="10" x="40" y="90" fill="#fdcef2" /><rect width="10" height="10" x="50" y="90" fill="#552d1d" /><rect width="20" height="10" x="60" y="90" fill="#feb9d5" /><rect width="10" height="10" x="80" y="90" fill="#552d1d" /><rect width="10" height="10" x="90" y="90" fill="#feb9d5" /><rect width="10" height="10" x="100" y="90" fill="#fdcef2" /><rect width="90" height="10" x="110" y="90" fill="#feb9d5" /><rect width="30" height="10" x="220" y="90" fill="#552d1d" /><rect width="20" height="10" x="250" y="90" fill="#feb9d5" /><rect width="10" height="10" x="280" y="90" fill="#feb9d5" /><rect width="10" height="10" x="290" y="90" fill="#fdcef2" /><rect width="10" height="10" x="30" y="100" fill="#feb9d5" /><rect width="10" height="10" x="40" y="100" fill="#fdcef2" /><rect width="20" height="10" x="50" y="100" fill="#feb9d5" /><rect width="20" height="10" x="70" y="100" fill="#552d1d" /><rect width="20" height="10" x="90" y="100" fill="#feb9d5" /><rect width="10" height="10" x="110" y="100" fill="#552d1d" /><rect width="20" height="10" x="120" y="100" fill="#feb9d5" /><rect width="30" height="10" x="150" y="100" fill="#feb9d5" /><rect width="10" height="10" x="180" y="100" fill="#552d1d" /><rect width="10" height="10" x="190" y="100" fill="#feb9d5" /><rect width="40" height="10" x="200" y="100" fill="#552d1d" /><rect width="10" height="10" x="250" y="100" fill="#feb9d5" /><rect width="30" height="10" x="50" y="110" fill="#feb9d5" /><rect width="10" height="10" x="80" y="110" fill="#552d1d" /><rect width="20" height="10" x="90" y="110" fill="#feb9d5" /><rect width="10" height="10" x="110" y="110" fill="#552d1d" /><rect width="20" height="10" x="120" y="110" fill="#feb9d5" /><rect width="30" height="10" x="160" y="110" fill="#feb9d5" /><rect width="50" height="10" x="190" y="110" fill="#552d1d" /><rect width="20" height="10" x="30" y="120" fill="#feb9d5" /><rect width="10" height="10" x="70" y="120" fill="#feb9d5" /><rect width="10" height="10" x="80" y="120" fill="#552d1d" /><rect width="50" height="10" x="100" y="120" fill="#feb9d5" /><rect width="10" height="10" x="160" y="120" fill="#feb9d5" /><rect width="10" height="10" x="180" y="120" fill="#feb9d5" /><rect width="30" height="10" x="190" y="120" fill="#552d1d" /><rect width="10" height="10" x="230" y="120" fill="#feb9d5" /><rect width="10" height="10" x="240" y="120" fill="#552d1d" /><rect width="40" height="10" x="250" y="120" fill="#feb9d5" /><rect width="10" height="10" x="20" y="130" fill="#feb9d5" /><rect width="10" height="10" x="30" y="130" fill="#552d1d" /><rect width="30" height="10" x="40" y="130" fill="#feb9d5" /><rect width="10" height="10" x="90" y="130" fill="#552d1d" /><rect width="10" height="10" x="100" y="130" fill="#feb9d5" /><rect width="10" height="10" x="110" y="130" fill="#fdcef2" /><rect width="10" height="10" x="120" y="130" fill="#feb9d5" /><rect width="10" height="10" x="130" y="130" fill="#552d1d" /><rect width="10" height="10" x="140" y="130" fill="#feb9d5" /><rect width="30" height="10" x="190" y="130" fill="#552d1d" /><rect width="20" height="10" x="230" y="130" fill="#feb9d5" /><rect width="10" height="10" x="250" y="130" fill="#fdcef2" /><rect width="20" height="10" x="260" y="130" fill="#552d1d" /><rect width="20" height="10" x="280" y="130" fill="#feb9d5" /><rect width="20" height="10" x="20" y="140" fill="#feb9d5" /><rect width="20" height="10" x="40" y="140" fill="#552d1d" /><rect width="10" height="10" x="60" y="140" fill="#feb9d5" /><rect width="20" height="10" x="80" y="140" fill="#feb9d5" /><rect width="10" height="10" x="110" y="140" fill="#fdcef2" /><rect width="30" height="10" x="140" y="140" fill="#552d1d" /><rect width="30" height="10" x="180" y="140" fill="#552d1d" /><rect width="20" height="10" x="230" y="140" fill="#feb9d5" /><rect width="10" height="10" x="250" y="140" fill="#fdcef2" /><rect width="40" height="10" x="260" y="140" fill="#feb9d5" /><rect width="10" height="10" x="20" y="150" fill="#fdcef2" /><rect width="30" height="10" x="30" y="150" fill="#feb9d5" /><rect width="10" height="10" x="60" y="150" fill="#552d1d" /><rect width="20" height="10" x="70" y="150" fill="#feb9d5" /><rect width="10" height="10" x="90" y="150" fill="#552d1d" /><rect width="10" height="10" x="100" y="150" fill="#feb9d5" /><rect width="60" height="10" x="150" y="150" fill="#552d1d" /><rect width="10" height="10" x="240" y="150" fill="#feb9d5" /><rect width="10" height="10" x="250" y="150" fill="#fdcef2" /><rect width="10" height="10" x="270" y="150" fill="#feb9d5" /><rect width="10" height="10" x="280" y="150" fill="#fdcef2" /><rect width="10" height="10" x="290" y="150" fill="#feb9d5" /><rect width="10" height="10" x="20" y="160" fill="#fdcef2" /><rect width="10" height="10" x="40" y="160" fill="#feb9d5" /><rect width="20" height="10" x="50" y="160" fill="#552d1d" /><rect width="10" height="10" x="70" y="160" fill="#feb9d5" /><rect width="10" height="10" x="90" y="160" fill="#552d1d" /><rect width="10" height="10" x="100" y="160" fill="#feb9d5" /><rect width="50" height="10" x="160" y="160" fill="#552d1d" /><rect width="20" height="10" x="210" y="160" fill="#feb9d5" /><rect width="10" height="10" x="240" y="160" fill="#feb9d5" /><rect width="10" height="10" x="270" y="160" fill="#feb9d5" /><rect width="10" height="10" x="280" y="160" fill="#fdcef2" /><rect width="30" height="10" x="40" y="170" fill="#feb9d5" /><rect width="20" height="10" x="70" y="170" fill="#552d1d" /><rect width="40" height="10" x="90" y="170" fill="#feb9d5" /><rect width="50" height="10" x="150" y="170" fill="#552d1d" /><rect width="60" height="10" x="200" y="170" fill="#feb9d5" /><rect width="10" height="10" x="40" y="180" fill="#feb9d5" /><rect width="30" height="10" x="60" y="180" fill="#feb9d5" /><rect width="10" height="10" x="90" y="180" fill="#fdcef2" /><rect width="10" height="10" x="100" y="180" fill="#552d1d" /><rect width="20" height="10" x="110" y="180" fill="#feb9d5" /><rect width="60" height="10" x="130" y="180" fill="#552d1d" /><rect width="20" height="10" x="200" y="180" fill="#feb9d5" /><rect width="10" height="10" x="220" y="180" fill="#fdcef2" /><rect width="30" height="10" x="230" y="180" fill="#feb9d5" /><rect width="10" height="10" x="260" y="180" fill="#fdcef2" /><rect width="20" height="10" x="60" y="190" fill="#feb9d5" /><rect width="10" height="10" x="90" y="190" fill="#fdcef2" /><rect width="10" height="10" x="120" y="190" fill="#feb9d5" /><rect width="50" height="10" x="140" y="190" fill="#552d1d" /><rect width="10" height="10" x="200" y="190" fill="#feb9d5" /><rect width="10" height="10" x="220" y="190" fill="#fdcef2" /><rect width="10" height="10" x="230" y="190" fill="#feb9d5" /><rect width="10" height="10" x="250" y="190" fill="#feb9d5" /><rect width="10" height="10" x="260" y="190" fill="#fdcef2" /><rect width="10" height="10" x="70" y="200" fill="#feb9d5" /><rect width="50" height="10" x="130" y="200" fill="#552d1d" /><rect width="10" height="10" x="220" y="200" fill="#fdcef2" /><rect width="10" height="10" x="250" y="200" fill="#feb9d5" /><rect width="60" height="10" x="100" y="110" fill="#5648ed" /><rect width="60" height="10" x="170" y="110" fill="#5648ed" /><rect width="10" height="10" x="100" y="120" fill="#5648ed" /><rect width="20" height="10" x="110" y="120" fill="#ffffff" /><rect width="20" height="10" x="130" y="120" fill="#000000" /><rect width="10" height="10" x="150" y="120" fill="#5648ed" /><rect width="10" height="10" x="170" y="120" fill="#5648ed" /><rect width="20" height="10" x="180" y="120" fill="#ffffff" /><rect width="20" height="10" x="200" y="120" fill="#000000" /><rect width="10" height="10" x="220" y="120" fill="#5648ed" /><rect width="40" height="10" x="70" y="130" fill="#5648ed" /><rect width="20" height="10" x="110" y="130" fill="#ffffff" /><rect width="20" height="10" x="130" y="130" fill="#000000" /><rect width="30" height="10" x="150" y="130" fill="#5648ed" /><rect width="20" height="10" x="180" y="130" fill="#ffffff" /><rect width="20" height="10" x="200" y="130" fill="#000000" /><rect width="10" height="10" x="220" y="130" fill="#5648ed" /><rect width="10" height="10" x="70" y="140" fill="#5648ed" /><rect width="10" height="10" x="100" y="140" fill="#5648ed" /><rect width="20" height="10" x="110" y="140" fill="#ffffff" /><rect width="20" height="10" x="130" y="140" fill="#000000" /><rect width="10" height="10" x="150" y="140" fill="#5648ed" /><rect width="10" height="10" x="170" y="140" fill="#5648ed" /><rect width="20" height="10" x="180" y="140" fill="#ffffff" /><rect width="20" height="10" x="200" y="140" fill="#000000" /><rect width="10" height="10" x="220" y="140" fill="#5648ed" /><rect width="10" height="10" x="70" y="150" fill="#5648ed" /><rect width="10" height="10" x="100" y="150" fill="#5648ed" /><rect width="20" height="10" x="110" y="150" fill="#ffffff" /><rect width="20" height="10" x="130" y="150" fill="#000000" /><rect width="10" height="10" x="150" y="150" fill="#5648ed" /><rect width="10" height="10" x="170" y="150" fill="#5648ed" /><rect width="20" height="10" x="180" y="150" fill="#ffffff" /><rect width="20" height="10" x="200" y="150" fill="#000000" /><rect width="10" height="10" x="220" y="150" fill="#5648ed" /><rect width="60" height="10" x="100" y="160" fill="#5648ed" /><rect width="60" height="10" x="170" y="160" fill="#5648ed" /></svg>