<svg viewBox="0 0 320 320" xmlns="http://www.w3.org/2000/svg" shape-rendering="crispEdges"><rect width="100%" height="100%" fill="#e1d7d5" /><rect width="140" height="10" x="90" y="210" fill="#5a65fa" /><rect width="140" height="10" x="90" y="220" fill="#5a65fa" /><rect width="140" height="10" x="90" y="230" fill="#5a65fa" /><rect width="140" height="10" x="90" y="240" fill="#5a65fa" /><rect width="20" height="10" x="90" y="250" fill="#5a65fa" /><rect width="110" height="10" x="120" y="250" fill="#5a65fa" /><rect width="20" height="10" x="90" y="260" fill="#5a65fa" /><rect width="110" height="10" x="120" y="260" fill="#5a65fa" /><rect width="20" height="10" x="90" y="270" fill="#5a65fa" /><rect width="110" height="10" x="120" y="270" fill="#5a65fa" /><rect width="20" height="10" x="90" y="280" fill="#5a65fa" /><rect width="110" height="10" x="120" y="280" fill="#5a65fa" /><rect width="20" height="10" x="90" y="290" fill="#5a65fa" /><rect width="110" height="10" x="120" y="290" fill="#5a65fa" /><rect width="20" height="10" x="90" y="300" fill="#5a65fa" /><rect width="110" height="10" x="120" y="300" fill="#5a65fa" /><rect width="20" height="10" x="90" y="310" fill="#5a65fa" /><rect width="110" height="10" x="120" y="310" fill="#5a65fa" /><rect width="30" height="10" x="90" y="230" fill="#7d635e" /><rect width="30" height="10" x="130" y="230" fill="#7d635e" /><rect width="30" height="10" x="170" y="230" fill="#7d635e" /><rect width="20" height="10" x="210" y="230" fill="#7d635e" /><rect width="10" height="10" x="100" y="240" fill="#f9e8dd" /><rect width="10" height="10" x="140" y="240" fill="#f9e8dd" /><rect width="10" height="10" x="180" y="240" fill="#f9e8dd" /><rect width="10" height="10" x="220" y="240" fill="#f9e8dd" /><rect width="10" height="10" x="90" y="260" fill="#7d635e" /><rect width="20" height="10" x="120" y="260" fill="#7d635e" /><rect width="30" height="10" x="150" y="260" fill="#7d635e" /><rect width="30" height="10" x="190" y="260" fill="#7d635e" /><rect width="10" height="10" x="120" y="270" fill="#f9e8dd" /><rect width="10" height="10" x="160" y="270" fill="#f9e8dd" /><rect width="10" height="10" x="200" y="270" fill="#f9e8dd" /><rect width="20" height="10" x="90" y="290" fill="#7d635e" /><rect width="30" height="10" x="130" y="290" fill="#7d635e" /><rect width="30" height="10" x="170" y="290" fill="#7d635e" /><rect width="20" height="10" x="210" y="290" fill="#7d635e" /><rect width="10" height="10" x="100" y="300" fill="#f9e8dd" /><rect width="10" height="10" x="140" y="300" fill="#f9e8dd" /><rect width="10" height="10" x="180" y="300" fill="#f9e8dd" /><rect width="10" height="10" x="220" y="300" fill="#f9e8dd" /><rect width="10" height="10" x="130" y="50" fill="#f89865" /><rect width="10" height="10" x="140" y="50" fill="#db8323" /><rect width="10" height="10" x="150" y="50" fill="#f89865" /><rect width="10" height="10" x="160" y="50" fill="#db8323" /><rect width="10" height="10" x="170" y="50" fill="#f89865" /><rect width="10" height="10" x="180" y="50" fill="#db8323" /><rect width="10" height="10" x="190" y="50" fill="#f89865" /><rect width="10" height="10" x="120" y="60" fill="#db8323" /><rect width="10" height="10" x="130" y="60" fill="#f89865" /><rect width="10" height="10" x="140" y="60" fill="#db8323" /><rect width="10" height="10" x="150" y="60" fill="#f89865" /><rect width="10" height="10" x="160" y="60" fill="#db8323" /><rect width="10" height="10" x="170" y="60" fill="#f89865" /><rect width="10" height="10" x="180" y="60" fill="#db8323" /><rect width="10" height="10" x="190" y="60" fill="#f89865" /><rect width="30" height="10" x="200" y="60" fill="#db8323" /><rect width="10" height="10" x="110" y="70" fill="#f89865" /><rect width="10" height="10" x="120" y="70" fill="#db8323" /><rect width="10" height="10" x="130" y="70" fill="#f89865" /><rect width="10" height="10" x="140" y="70" fill="#db8323" /><rect width="10" height="10" x="150" y="70" fill="#f89865" /><rect width="80" height="10" x="160" y="70" fill="#a86f60" /><rect width="10" height="10" x="240" y="70" fill="#db8323" /><rect width="10" height="10" x="100" y="80" fill="#db8323" /><rect width="10" height="10" x="110" y="80" fill="#f89865" /><rect width="10" height="10" x="120" y="80" fill="#db8323" /><rect width="130" height="10" x="130" y="80" fill="#a86f60" /><rect width="20" height="10" x="90" y="90" fill="#db8323" /><rect width="150" height="10" x="110" y="90" fill="#a86f60" /><rect width="10" height="10" x="260" y="90" fill="#000000" /><rect width="10" height="10" x="80" y="100" fill="#db8323" /><rect width="130" height="10" x="90" y="100" fill="#a86f60" /><rect width="10" height="10" x="220" y="100" fill="#552d1d" /><rect width="20" height="10" x="230" y="100" fill="#a86f60" /><rect width="10" height="10" x="250" y="100" fill="#000000" /><rect width="20" height="10" x="260" y="100" fill="#a86f60" /><rect width="10" height="10" x="80" y="110" fill="#db8323" /><rect width="100" height="10" x="90" y="110" fill="#a86f60" /><rect width="10" height="10" x="190" y="110" fill="#7e5243" /><rect width="20" height="10" x="200" y="110" fill="#a86f60" /><rect width="20" height="10" x="220" y="110" fill="#552d1d" /><rect width="30" height="10" x="240" y="110" fill="#a86f60" /><rect width="10" height="10" x="270" y="110" fill="#f89865" /><rect width="10" height="10" x="70" y="120" fill="#db8323" /><rect width="80" height="10" x="80" y="120" fill="#a86f60" /><rect width="10" height="10" x="160" y="120" fill="#7e5243" /><rect width="60" height="10" x="170" y="120" fill="#a86f60" /><rect width="10" height="10" x="230" y="120" fill="#552d1d" /><rect width="30" height="10" x="240" y="120" fill="#a86f60" /><rect width="70" height="10" x="70" y="130" fill="#a86f60" /><rect width="10" height="10" x="140" y="130" fill="#7e5243" /><rect width="120" height="10" x="150" y="130" fill="#a86f60" /><rect width="60" height="10" x="50" y="140" fill="#a86f60" /><rect width="10" height="10" x="110" y="140" fill="#7e5243" /><rect width="140" height="10" x="120" y="140" fill="#a86f60" /><rect width="20" height="10" x="20" y="150" fill="#f89865" /><rect width="40" height="10" x="40" y="150" fill="#a86f60" /><rect width="10" height="10" x="80" y="150" fill="#7e5243" /><rect width="170" height="10" x="90" y="150" fill="#a86f60" /><rect width="10" height="10" x="10" y="160" fill="#f89865" /><rect width="20" height="10" x="20" y="160" fill="#db8323" /><rect width="10" height="10" x="40" y="160" fill="#a86f60" /><rect width="10" height="10" x="50" y="160" fill="#7e5243" /><rect width="190" height="10" x="60" y="160" fill="#a86f60" /><rect width="10" height="10" x="250" y="160" fill="#552d1d" /><rect width="20" height="10" x="10" y="170" fill="#db8323" /><rect width="10" height="10" x="30" y="170" fill="#f89865" /><rect width="10" height="10" x="40" y="170" fill="#db8323" /><rect width="190" height="10" x="50" y="170" fill="#a86f60" /><rect width="10" height="10" x="250" y="170" fill="#552d1d" /><rect width="10" height="10" x="20" y="180" fill="#f89865" /><rect width="20" height="10" x="30" y="180" fill="#db8323" /><rect width="10" height="10" x="50" y="180" fill="#f89865" /><rect width="40" height="10" x="80" y="180" fill="#a86f60" /><rect width="30" height="10" x="120" y="180" fill="#000000" /><rect width="70" height="10" x="150" y="180" fill="#a86f60" /><rect width="10" height="10" x="220" y="180" fill="#db8323" /><rect width="20" height="10" x="20" y="190" fill="#db8323" /><rect width="10" height="10" x="40" y="190" fill="#f89865" /><rect width="110" height="10" x="90" y="190" fill="#a86f60" /><rect width="20" height="10" x="200" y="190" fill="#db8323" /><rect width="10" height="10" x="40" y="200" fill="#f89865" /><rect width="20" height="10" x="100" y="200" fill="#db8323" /><rect width="50" height="10" x="120" y="200" fill="#a86f60" /><rect width="10" height="10" x="170" y="200" fill="#f89865" /><rect width="10" height="10" x="180" y="200" fill="#db8323" /><rect width="10" height="10" x="190" y="200" fill="#f89865" /><rect width="10" height="10" x="200" y="200" fill="#db8323" /><rect width="10" height="10" x="120" y="210" fill="#db8323" /><rect width="10" height="10" x="130" y="210" fill="#f89865" /><rect width="10" height="10" x="140" y="210" fill="#db8323" /><rect width="10" height="10" x="150" y="210" fill="#f89865" /><rect width="10" height="10" x="160" y="210" fill="#db8323" /><rect width="10" height="10" x="170" y="210" fill="#f89865" /><rect width="10" height="10" x="180" y="210" fill="#db8323" /><rect width="10" height="10" x="190" y="210" fill="#f89865" /><rect width="60" height="10" x="100" y="110" fill="#000000" /><rect width="60" height="10" x="170" y="110" fill="#000000" /><rect width="10" height="10" x="100" y="120" fill="#000000" /><rect width="20" height="10" x="110" y="120" fill="#ffffff" /><rect width="20" height="10" x="130" y="120" fill="#ff0e0e" /><rect width="10" height="10" x="150" y="120" fill="#000000" /><rect width="10" height="10" x="170" y="120" fill="#000000" /><rect width="20" height="10" x="180" y="120" fill="#ffffff" /><rect width="20" height="10" x="200" y="120" fill="#ff0e0e" /><rect width="10" height="10" x="220" y="120" fill="#000000" /><rect width="40" height="10" x="70" y="130" fill="#000000" /><rect width="20" height="10" x="110" y="130" fill="#ffffff" /><rect width="20" height="10" x="130" y="130" fill="#ff0e0e" /><rect width="30" height="10" x="150" y="130" fill="#000000" /><rect width="20" height="10" x="180" y="130" fill="#ffffff" /><rect width="20" height="10" x="200" y="130" fill="#ff0e0e" /><rect width="10" height="10" x="220" y="130" fill="#000000" /><rect width="10" height="10" x="70" y="140" fill="#000000" /><rect width="10" height="10" x="100" y="140" fill="#000000" /><rect width="20" height="10" x="110" y="140" fill="#ffffff" /><rect width="20" height="10" x="130" y="140" fill="#ff0e0e" /><rect width="10" height="10" x="150" y="140" fill="#000000" /><rect width="10" height="10" x="170" y="140" fill="#000000" /><rect width="20" height="10" x="180" y="140" fill="#ffffff" /><rect width="20" height="10" x="200" y="140" fill="#ff0e0e" /><rect width="10" height="10" x="220" y="140" fill="#000000" /><rect width="10" height="10" x="70" y="150" fill="#000000" /><rect width="10" height="10" x="100" y="150" fill="#000000" /><rect width="20" height="10" x="110" y="150" fill="#ffffff" /><rect width="20" height="10" x="130" y="150" fill="#ff0e0e" /><rect width="10" height="10" x="150" y="150" fill="#000000" /><rect width="10" height="10" x="170" y="150" fill="#000000" /><rect width="20" height="10" x="180" y="150" fill="#ffffff" /><rect width="20" height="10" x="200" y="150" fill="#ff0e0e" /><rect width="10" height="10" x="220" y="150" fill="#000000" /><rect width="60" height="10" x="100" y="160" fill="#000000" /><rect width="60" height="10" x="170" y="160" fill="#000000" /></svg>