<svg viewBox="0 0 320 320" xmlns="http://www.w3.org/2000/svg" shape-rendering="crispEdges"><rect width="100%" height="100%" fill="#d5d7e1" /><rect width="140" height="10" x="90" y="210" fill="#d26451" /><rect width="140" height="10" x="90" y="220" fill="#d26451" /><rect width="140" height="10" x="90" y="230" fill="#d26451" /><rect width="140" height="10" x="90" y="240" fill="#d26451" /><rect width="20" height="10" x="90" y="250" fill="#d26451" /><rect width="110" height="10" x="120" y="250" fill="#d26451" /><rect width="20" height="10" x="90" y="260" fill="#d26451" /><rect width="110" height="10" x="120" y="260" fill="#d26451" /><rect width="20" height="10" x="90" y="270" fill="#d26451" /><rect width="110" height="10" x="120" y="270" fill="#d26451" /><rect width="20" height="10" x="90" y="280" fill="#d26451" /><rect width="110" height="10" x="120" y="280" fill="#d26451" /><rect width="20" height="10" x="90" y="290" fill="#d26451" /><rect width="110" height="10" x="120" y="290" fill="#d26451" /><rect width="20" height="10" x="90" y="300" fill="#d26451" /><rect width="110" height="10" x="120" y="300" fill="#d26451" /><rect width="20" height="10" x="90" y="310" fill="#d26451" /><rect width="110" height="10" x="120" y="310" fill="#d26451" /><rect width="10" height="10" x="170" y="240" fill="#d4a015" /><rect width="10" height="10" x="180" y="240" fill="#caa26a" /><rect width="10" height="10" x="150" y="250" fill="#caa26a" /><rect width="10" height="10" x="170" y="250" fill="#caa26a" /><rect width="20" height="10" x="180" y="250" fill="#e9ba12" /><rect width="10" height="10" x="160" y="260" fill="#d4a015" /><rect width="10" height="10" x="170" y="260" fill="#caa26a" /><rect width="10" height="10" x="180" y="260" fill="#e9ba12" /><rect width="10" height="10" x="190" y="260" fill="#fccf25" /><rect width="10" height="10" x="150" y="270" fill="#caa26a" /><rect width="10" height="10" x="160" y="270" fill="#d4a015" /><rect width="10" height="10" x="170" y="270" fill="#caa26a" /><rect width="10" height="10" x="150" y="280" fill="#caa26a" /><rect width="50" height="10" x="130" y="10" fill="#1f1d29" /><rect width="70" height="10" x="120" y="20" fill="#1f1d29" /><rect width="90" height="10" x="110" y="30" fill="#1f1d29" /><rect width="60" height="10" x="100" y="40" fill="#1f1d29" /><rect width="10" height="10" x="160" y="40" fill="#d596a6" /><rect width="40" height="10" x="170" y="40" fill="#1f1d29" /><rect width="50" height="10" x="100" y="50" fill="#1f1d29" /><rect width="10" height="10" x="150" y="50" fill="#d596a6" /><rect width="10" height="10" x="160" y="50" fill="#9f21a0" /><rect width="10" height="10" x="170" y="50" fill="#d596a6" /><rect width="30" height="10" x="180" y="50" fill="#1f1d29" /><rect width="40" height="10" x="100" y="60" fill="#1f1d29" /><rect width="10" height="10" x="140" y="60" fill="#d596a6" /><rect width="10" height="10" x="150" y="60" fill="#9f21a0" /><rect width="10" height="10" x="160" y="60" fill="#3a085b" /><rect width="10" height="10" x="170" y="60" fill="#9f21a0" /><rect width="40" height="10" x="180" y="60" fill="#1f1d29" /><rect width="30" height="10" x="90" y="70" fill="#1f1d29" /><rect width="10" height="10" x="120" y="70" fill="#d596a6" /><rect width="20" height="10" x="130" y="70" fill="#9f21a0" /><rect width="20" height="10" x="150" y="70" fill="#3a085b" /><rect width="10" height="10" x="170" y="70" fill="#410d66" /><rect width="10" height="10" x="180" y="70" fill="#9f21a0" /><rect width="30" height="10" x="190" y="70" fill="#1f1d29" /><rect width="10" height="10" x="70" y="80" fill="#1f1d29" /><rect width="10" height="10" x="90" y="80" fill="#1f1d29" /><rect width="10" height="10" x="100" y="80" fill="#d596a6" /><rect width="20" height="10" x="110" y="80" fill="#9f21a0" /><rect width="40" height="10" x="130" y="80" fill="#3a085b" /><rect width="20" height="10" x="170" y="80" fill="#410d66" /><rect width="10" height="10" x="190" y="80" fill="#9f21a0" /><rect width="30" height="10" x="200" y="80" fill="#1f1d29" /><rect width="10" height="10" x="80" y="90" fill="#1f1d29" /><rect width="20" height="10" x="90" y="90" fill="#9f21a0" /><rect width="60" height="10" x="110" y="90" fill="#3a085b" /><rect width="40" height="10" x="170" y="90" fill="#410d66" /><rect width="20" height="10" x="210" y="90" fill="#1f1d29" /><rect width="10" height="10" x="240" y="90" fill="#1f1d29" /><rect width="90" height="10" x="90" y="100" fill="#3a085b" /><rect width="40" height="10" x="180" y="100" fill="#410d66" /><rect width="20" height="10" x="220" y="100" fill="#1f1d29" /><rect width="90" height="10" x="90" y="110" fill="#3a085b" /><rect width="40" height="10" x="180" y="110" fill="#410d66" /><rect width="100" height="10" x="90" y="120" fill="#3a085b" /><rect width="40" height="10" x="190" y="120" fill="#410d66" /><rect width="110" height="10" x="80" y="130" fill="#3a085b" /><rect width="40" height="10" x="190" y="130" fill="#410d66" /><rect width="120" height="10" x="80" y="140" fill="#3a085b" /><rect width="40" height="10" x="200" y="140" fill="#410d66" /><rect width="120" height="10" x="80" y="150" fill="#3a085b" /><rect width="40" height="10" x="200" y="150" fill="#410d66" /><rect width="130" height="10" x="80" y="160" fill="#3a085b" /><rect width="40" height="10" x="210" y="160" fill="#410d66" /><rect width="130" height="10" x="80" y="170" fill="#3a085b" /><rect width="20" height="10" x="210" y="170" fill="#410d66" /><rect width="10" height="10" x="230" y="170" fill="#ffffff" /><rect width="10" height="10" x="240" y="170" fill="#410d66" /><rect width="10" height="10" x="80" y="180" fill="#2b2834" /><rect width="120" height="10" x="90" y="180" fill="#3a085b" /><rect width="20" height="10" x="210" y="180" fill="#410d66" /><rect width="10" height="10" x="230" y="180" fill="#ffffff" /><rect width="10" height="10" x="240" y="180" fill="#410d66" /><rect width="10" height="10" x="80" y="190" fill="#2b2834" /><rect width="120" height="10" x="90" y="190" fill="#3a085b" /><rect width="40" height="10" x="210" y="190" fill="#410d66" /><rect width="10" height="10" x="90" y="200" fill="#2b2834" /><rect width="100" height="10" x="100" y="200" fill="#3a085b" /><rect width="40" height="10" x="200" y="200" fill="#410d66" /><rect width="40" height="10" x="100" y="210" fill="#3a085b" /><rect width="20" height="10" x="140" y="210" fill="#410d66" /><rect width="10" height="10" x="160" y="210" fill="#3a085b" /><rect width="60" height="10" x="170" y="210" fill="#410d66" /><rect width="60" height="10" x="100" y="110" fill="#b9185c" /><rect width="60" height="10" x="170" y="110" fill="#b9185c" /><rect width="10" height="10" x="100" y="120" fill="#b9185c" /><rect width="20" height="10" x="110" y="120" fill="#ffffff" /><rect width="20" height="10" x="130" y="120" fill="#000000" /><rect width="10" height="10" x="150" y="120" fill="#b9185c" /><rect width="10" height="10" x="170" y="120" fill="#b9185c" /><rect width="20" height="10" x="180" y="120" fill="#ffffff" /><rect width="20" height="10" x="200" y="120" fill="#000000" /><rect width="10" height="10" x="220" y="120" fill="#b9185c" /><rect width="40" height="10" x="70" y="130" fill="#b9185c" /><rect width="20" height="10" x="110" y="130" fill="#ffffff" /><rect width="20" height="10" x="130" y="130" fill="#000000" /><rect width="30" height="10" x="150" y="130" fill="#b9185c" /><rect width="20" height="10" x="180" y="130" fill="#ffffff" /><rect width="20" height="10" x="200" y="130" fill="#000000" /><rect width="10" height="10" x="220" y="130" fill="#b9185c" /><rect width="10" height="10" x="70" y="140" fill="#b9185c" /><rect width="10" height="10" x="100" y="140" fill="#b9185c" /><rect width="20" height="10" x="110" y="140" fill="#ffffff" /><rect width="20" height="10" x="130" y="140" fill="#000000" /><rect width="10" height="10" x="150" y="140" fill="#b9185c" /><rect width="10" height="10" x="170" y="140" fill="#b9185c" /><rect width="20" height="10" x="180" y="140" fill="#ffffff" /><rect width="20" height="10" x="200" y="140" fill="#000000" /><rect width="10" height="10" x="220" y="140" fill="#b9185c" /><rect width="10" height="10" x="70" y="150" fill="#b9185c" /><rect width="10" height="10" x="100" y="150" fill="#b9185c" /><rect width="20" height="10" x="110" y="150" fill="#ffffff" /><rect width="20" height="10" x="130" y="150" fill="#000000" /><rect width="10" height="10" x="150" y="150" fill="#b9185c" /><rect width="10" height="10" x="170" y="150" fill="#b9185c" /><rect width="20" height="10" x="180" y="150" fill="#ffffff" /><rect width="20" height="10" x="200" y="150" fill="#000000" /><rect width="10" height="10" x="220" y="150" fill="#b9185c" /><rect width="60" height="10" x="100" y="160" fill="#b9185c" /><rect width="60" height="10" x="170" y="160" fill="#b9185c" /></svg>