<svg viewBox="0 0 320 320" xmlns="http://www.w3.org/2000/svg" shape-rendering="crispEdges"><rect width="100%" height="100%" fill="#e1d7d5" /><rect width="140" height="10" x="90" y="210" fill="#ae3208" /><rect width="140" height="10" x="90" y="220" fill="#ae3208" /><rect width="140" height="10" x="90" y="230" fill="#ae3208" /><rect width="140" height="10" x="90" y="240" fill="#ae3208" /><rect width="20" height="10" x="90" y="250" fill="#ae3208" /><rect width="110" height="10" x="120" y="250" fill="#ae3208" /><rect width="20" height="10" x="90" y="260" fill="#ae3208" /><rect width="110" height="10" x="120" y="260" fill="#ae3208" /><rect width="20" height="10" x="90" y="270" fill="#ae3208" /><rect width="110" height="10" x="120" y="270" fill="#ae3208" /><rect width="20" height="10" x="90" y="280" fill="#ae3208" /><rect width="110" height="10" x="120" y="280" fill="#ae3208" /><rect width="20" height="10" x="90" y="290" fill="#ae3208" /><rect width="110" height="10" x="120" y="290" fill="#ae3208" /><rect width="20" height="10" x="90" y="300" fill="#ae3208" /><rect width="110" height="10" x="120" y="300" fill="#ae3208" /><rect width="20" height="10" x="90" y="310" fill="#ae3208" /><rect width="110" height="10" x="120" y="310" fill="#ae3208" /><rect width="20" height="10" x="160" y="250" fill="#abf131" /><rect width="30" height="10" x="160" y="260" fill="#abf131" /><rect width="10" height="10" x="160" y="270" fill="#abf131" /><rect width="10" height="10" x="170" y="270" fill="#ffffff" /><rect width="10" height="10" x="180" y="270" fill="#abf131" /><rect width="130" height="10" x="100" y="40" fill="#3f9323" /><rect width="10" height="10" x="240" y="40" fill="#f83001" /><rect width="10" height="10" x="90" y="50" fill="#3f9323" /><rect width="10" height="10" x="110" y="50" fill="#ffffff" /><rect width="10" height="10" x="160" y="50" fill="#ffffff" /><rect width="10" height="10" x="210" y="50" fill="#ffffff" /><rect width="20" height="10" x="230" y="50" fill="#3f9323" /><rect width="10" height="10" x="260" y="50" fill="#26b1f3" /><rect width="10" height="10" x="80" y="60" fill="#3f9323" /><rect width="10" height="10" x="110" y="60" fill="#ffffff" /><rect width="10" height="10" x="160" y="60" fill="#ffffff" /><rect width="10" height="10" x="210" y="60" fill="#ffffff" /><rect width="10" height="10" x="240" y="60" fill="#fff006" /><rect width="10" height="10" x="250" y="60" fill="#3f9323" /><rect width="10" height="10" x="70" y="70" fill="#3f9323" /><rect width="30" height="10" x="100" y="70" fill="#26b1f3" /><rect width="30" height="10" x="150" y="70" fill="#f83001" /><rect width="30" height="10" x="200" y="70" fill="#fff006" /><rect width="10" height="10" x="260" y="70" fill="#f83001" /><rect width="10" height="10" x="60" y="80" fill="#3f9323" /><rect width="10" height="10" x="90" y="80" fill="#26b1f3" /><rect width="10" height="10" x="100" y="80" fill="#f83001" /><rect width="10" height="10" x="110" y="80" fill="#26b1f3" /><rect width="10" height="10" x="120" y="80" fill="#f83001" /><rect width="10" height="10" x="130" y="80" fill="#26b1f3" /><rect width="10" height="10" x="140" y="80" fill="#f83001" /><rect width="10" height="10" x="150" y="80" fill="#fff006" /><rect width="10" height="10" x="160" y="80" fill="#f83001" /><rect width="10" height="10" x="170" y="80" fill="#fff006" /><rect width="10" height="10" x="180" y="80" fill="#f83001" /><rect width="10" height="10" x="190" y="80" fill="#fff006" /><rect width="10" height="10" x="200" y="80" fill="#26b1f3" /><rect width="10" height="10" x="210" y="80" fill="#fff006" /><rect width="10" height="10" x="220" y="80" fill="#26b1f3" /><rect width="10" height="10" x="230" y="80" fill="#fff006" /><rect width="10" height="10" x="250" y="80" fill="#ffffff" /><rect width="10" height="10" x="270" y="80" fill="#fff006" /><rect width="10" height="10" x="60" y="90" fill="#3f9323" /><rect width="50" height="10" x="90" y="90" fill="#26b1f3" /><rect width="50" height="10" x="140" y="90" fill="#f83001" /><rect width="50" height="10" x="190" y="90" fill="#fff006" /><rect width="10" height="10" x="260" y="90" fill="#26b1f3" /><rect width="10" height="10" x="50" y="100" fill="#3f9323" /><rect width="50" height="10" x="90" y="100" fill="#26b1f3" /><rect width="50" height="10" x="140" y="100" fill="#f83001" /><rect width="50" height="10" x="190" y="100" fill="#fff006" /><rect width="10" height="10" x="50" y="110" fill="#3f9323" /><rect width="30" height="10" x="100" y="110" fill="#26b1f3" /><rect width="30" height="10" x="150" y="110" fill="#f83001" /><rect width="30" height="10" x="200" y="110" fill="#fff006" /><rect width="10" height="10" x="40" y="120" fill="#3f9323" /><rect width="50" height="10" x="90" y="120" fill="#caeff9" /><rect width="50" height="10" x="140" y="120" fill="#fee3f3" /><rect width="50" height="10" x="190" y="120" fill="#f9f6d1" /><rect width="10" height="10" x="40" y="130" fill="#3f9323" /><rect width="50" height="10" x="90" y="130" fill="#caeff9" /><rect width="50" height="10" x="140" y="130" fill="#fee3f3" /><rect width="50" height="10" x="190" y="130" fill="#f9f6d1" /><rect width="10" height="10" x="40" y="140" fill="#3f9323" /><rect width="50" height="10" x="90" y="140" fill="#caeff9" /><rect width="50" height="10" x="140" y="140" fill="#fee3f3" /><rect width="50" height="10" x="190" y="140" fill="#f9f6d1" /><rect width="10" height="10" x="40" y="150" fill="#3f9323" /><rect width="30" height="10" x="100" y="150" fill="#26b1f3" /><rect width="30" height="10" x="150" y="150" fill="#f83001" /><rect width="30" height="10" x="200" y="150" fill="#fff006" /><rect width="10" height="10" x="40" y="160" fill="#3f9323" /><rect width="30" height="10" x="100" y="160" fill="#26b1f3" /><rect width="10" height="10" x="150" y="160" fill="#f83001" /><rect width="10" height="10" x="160" y="160" fill="#fff006" /><rect width="10" height="10" x="170" y="160" fill="#f83001" /><rect width="30" height="10" x="200" y="160" fill="#fff006" /><rect width="10" height="10" x="40" y="170" fill="#3f9323" /><rect width="10" height="10" x="100" y="170" fill="#f83001" /><rect width="10" height="10" x="110" y="170" fill="#26b1f3" /><rect width="10" height="10" x="120" y="170" fill="#f83001" /><rect width="30" height="10" x="150" y="170" fill="#f83001" /><rect width="10" height="10" x="200" y="170" fill="#fff006" /><rect width="10" height="10" x="210" y="170" fill="#26b1f3" /><rect width="10" height="10" x="220" y="170" fill="#fff006" /><rect width="10" height="10" x="40" y="180" fill="#3f9323" /><rect width="10" height="10" x="100" y="180" fill="#26b1f3" /><rect width="10" height="10" x="110" y="180" fill="#f83001" /><rect width="10" height="10" x="120" y="180" fill="#26b1f3" /><rect width="10" height="10" x="150" y="180" fill="#f83001" /><rect width="10" height="10" x="160" y="180" fill="#fff006" /><rect width="10" height="10" x="170" y="180" fill="#f83001" /><rect width="10" height="10" x="200" y="180" fill="#26b1f3" /><rect width="10" height="10" x="210" y="180" fill="#fff006" /><rect width="10" height="10" x="220" y="180" fill="#26b1f3" /><rect width="10" height="10" x="40" y="190" fill="#3f9323" /><rect width="10" height="10" x="100" y="190" fill="#26b1f3" /><rect width="10" height="10" x="110" y="190" fill="#f83001" /><rect width="10" height="10" x="120" y="190" fill="#26b1f3" /><rect width="10" height="10" x="150" y="190" fill="#fff006" /><rect width="10" height="10" x="160" y="190" fill="#f83001" /><rect width="10" height="10" x="170" y="190" fill="#fff006" /><rect width="10" height="10" x="200" y="190" fill="#fff006" /><rect width="10" height="10" x="210" y="190" fill="#26b1f3" /><rect width="10" height="10" x="220" y="190" fill="#fff006" /><rect width="10" height="10" x="40" y="200" fill="#3f9323" /><rect width="10" height="10" x="100" y="200" fill="#f83001" /><rect width="10" height="10" x="110" y="200" fill="#26b1f3" /><rect width="10" height="10" x="120" y="200" fill="#f83001" /><rect width="10" height="10" x="150" y="200" fill="#f83001" /><rect width="10" height="10" x="160" y="200" fill="#fff006" /><rect width="10" height="10" x="170" y="200" fill="#f83001" /><rect width="10" height="10" x="200" y="200" fill="#fff006" /><rect width="10" height="10" x="210" y="200" fill="#26b1f3" /><rect width="10" height="10" x="220" y="200" fill="#fff006" /><rect width="10" height="10" x="40" y="210" fill="#3f9323" /><rect width="10" height="10" x="100" y="210" fill="#26b1f3" /><rect width="10" height="10" x="110" y="210" fill="#f83001" /><rect width="10" height="10" x="120" y="210" fill="#26b1f3" /><rect width="30" height="10" x="150" y="210" fill="#f83001" /><rect width="10" height="10" x="200" y="210" fill="#26b1f3" /><rect width="10" height="10" x="210" y="210" fill="#fff006" /><rect width="10" height="10" x="220" y="210" fill="#26b1f3" /><rect width="10" height="10" x="40" y="220" fill="#3f9323" /><rect width="10" height="10" x="100" y="220" fill="#26b1f3" /><rect width="10" height="10" x="120" y="220" fill="#26b1f3" /><rect width="10" height="10" x="150" y="220" fill="#fff006" /><rect width="10" height="10" x="170" y="220" fill="#fff006" /><rect width="10" height="10" x="200" y="220" fill="#fff006" /><rect width="10" height="10" x="220" y="220" fill="#fff006" /><rect width="60" height="10" x="100" y="110" fill="#ffc110" /><rect width="60" height="10" x="170" y="110" fill="#f98f30" /><rect width="10" height="10" x="100" y="120" fill="#ffc110" /><rect width="20" height="10" x="110" y="120" fill="#ffffff" /><rect width="20" height="10" x="130" y="120" fill="#000000" /><rect width="10" height="10" x="150" y="120" fill="#ffc110" /><rect width="10" height="10" x="170" y="120" fill="#f98f30" /><rect width="20" height="10" x="180" y="120" fill="#ffffff" /><rect width="20" height="10" x="200" y="120" fill="#000000" /><rect width="10" height="10" x="220" y="120" fill="#f98f30" /><rect width="30" height="10" x="70" y="130" fill="#f78a18" /><rect width="10" height="10" x="100" y="130" fill="#ffc110" /><rect width="20" height="10" x="110" y="130" fill="#ffffff" /><rect width="20" height="10" x="130" y="130" fill="#000000" /><rect width="10" height="10" x="150" y="130" fill="#ffc110" /><rect width="10" height="10" x="160" y="130" fill="#f78a18" /><rect width="10" height="10" x="170" y="130" fill="#f98f30" /><rect width="20" height="10" x="180" y="130" fill="#ffffff" /><rect width="20" height="10" x="200" y="130" fill="#000000" /><rect width="10" height="10" x="220" y="130" fill="#f98f30" /><rect width="10" height="10" x="70" y="140" fill="#ffc110" /><rect width="10" height="10" x="100" y="140" fill="#ffc110" /><rect width="20" height="10" x="110" y="140" fill="#ffffff" /><rect width="20" height="10" x="130" y="140" fill="#000000" /><rect width="10" height="10" x="150" y="140" fill="#ffc110" /><rect width="10" height="10" x="170" y="140" fill="#f98f30" /><rect width="20" height="10" x="180" y="140" fill="#ffffff" /><rect width="20" height="10" x="200" y="140" fill="#000000" /><rect width="10" height="10" x="220" y="140" fill="#f98f30" /><rect width="10" height="10" x="70" y="150" fill="#ffc110" /><rect width="10" height="10" x="100" y="150" fill="#ffc110" /><rect width="20" height="10" x="110" y="150" fill="#ffffff" /><rect width="20" height="10" x="130" y="150" fill="#000000" /><rect width="10" height="10" x="150" y="150" fill="#ffc110" /><rect width="10" height="10" x="170" y="150" fill="#f98f30" /><rect width="20" height="10" x="180" y="150" fill="#ffffff" /><rect width="20" height="10" x="200" y="150" fill="#000000" /><rect width="10" height="10" x="220" y="150" fill="#f98f30" /><rect width="60" height="10" x="100" y="160" fill="#ffc110" /><rect width="60" height="10" x="170" y="160" fill="#f98f30" /></svg>