<svg viewBox="0 0 320 320" xmlns="http://www.w3.org/2000/svg" shape-rendering="crispEdges"><rect width="100%" height="100%" fill="#e1d7d5" /><rect width="140" height="10" x="90" y="210" fill="#343235" /><rect width="140" height="10" x="90" y="220" fill="#343235" /><rect width="140" height="10" x="90" y="230" fill="#343235" /><rect width="140" height="10" x="90" y="240" fill="#343235" /><rect width="20" height="10" x="90" y="250" fill="#343235" /><rect width="110" height="10" x="120" y="250" fill="#343235" /><rect width="20" height="10" x="90" y="260" fill="#343235" /><rect width="110" height="10" x="120" y="260" fill="#343235" /><rect width="20" height="10" x="90" y="270" fill="#343235" /><rect width="110" height="10" x="120" y="270" fill="#343235" /><rect width="20" height="10" x="90" y="280" fill="#343235" /><rect width="110" height="10" x="120" y="280" fill="#343235" /><rect width="20" height="10" x="90" y="290" fill="#343235" /><rect width="110" height="10" x="120" y="290" fill="#343235" /><rect width="20" height="10" x="90" y="300" fill="#343235" /><rect width="110" height="10" x="120" y="300" fill="#343235" /><rect width="20" height="10" x="90" y="310" fill="#343235" /><rect width="110" height="10" x="120" y="310" fill="#343235" /><rect width="10" height="10" x="150" y="220" fill="#ffffff" /><rect width="10" height="10" x="170" y="220" fill="#ffffff" /><rect width="10" height="10" x="190" y="220" fill="#ffffff" /><rect width="10" height="10" x="210" y="220" fill="#ffffff" /><rect width="20" height="10" x="120" y="230" fill="#ffffff" /><rect width="10" height="10" x="150" y="230" fill="#ffffff" /><rect width="10" height="10" x="170" y="230" fill="#ffffff" /><rect width="10" height="10" x="190" y="230" fill="#ffffff" /><rect width="10" height="10" x="210" y="230" fill="#ffffff" /><rect width="20" height="10" x="120" y="250" fill="#ffffff" /><rect width="10" height="10" x="200" y="250" fill="#ffffff" /><rect width="10" height="10" x="180" y="260" fill="#ffffff" /><rect width="10" height="10" x="200" y="260" fill="#ffffff" /><rect width="20" height="10" x="120" y="270" fill="#ffffff" /><rect width="10" height="10" x="160" y="270" fill="#ffffff" /><rect width="10" height="10" x="180" y="270" fill="#ffffff" /><rect width="10" height="10" x="160" y="280" fill="#ffffff" /><rect width="20" height="10" x="120" y="290" fill="#ffffff" /><rect width="10" height="10" x="150" y="300" fill="#ffffff" /><rect width="10" height="10" x="170" y="300" fill="#ffffff" /><rect width="10" height="10" x="190" y="300" fill="#ffffff" /><rect width="10" height="10" x="210" y="300" fill="#ffffff" /><rect width="20" height="10" x="120" y="310" fill="#ffffff" /><rect width="10" height="10" x="150" y="310" fill="#ffffff" /><rect width="10" height="10" x="170" y="310" fill="#ffffff" /><rect width="10" height="10" x="190" y="310" fill="#ffffff" /><rect width="10" height="10" x="210" y="310" fill="#ffffff" /><rect width="10" height="10" x="160" y="10" fill="#ff1a0b" /><rect width="10" height="10" x="160" y="20" fill="#ffffff" /><rect width="10" height="10" x="160" y="30" fill="#ffffff" /><rect width="10" height="10" x="160" y="40" fill="#ff1a0b" /><rect width="10" height="10" x="160" y="50" fill="#ff1a0b" /><rect width="10" height="10" x="160" y="60" fill="#ffffff" /><rect width="30" height="10" x="150" y="70" fill="#00499c" /><rect width="30" height="10" x="150" y="80" fill="#ffffff" /><rect width="10" height="10" x="150" y="90" fill="#ff1a0b" /><rect width="10" height="10" x="160" y="90" fill="#d31e14" /><rect width="10" height="10" x="170" y="90" fill="#ff1a0b" /><rect width="10" height="10" x="140" y="100" fill="#ffffff" /><rect width="10" height="10" x="160" y="100" fill="#ffffff" /><rect width="10" height="10" x="180" y="100" fill="#ffffff" /><rect width="50" height="10" x="140" y="110" fill="#ffffff" /><rect width="10" height="10" x="140" y="120" fill="#ff1a0b" /><rect width="10" height="10" x="160" y="120" fill="#d31e14" /><rect width="10" height="10" x="180" y="120" fill="#ff1a0b" /><rect width="20" height="10" x="140" y="130" fill="#ff1a0b" /><rect width="10" height="10" x="160" y="130" fill="#d31e14" /><rect width="20" height="10" x="170" y="130" fill="#ff1a0b" /><rect width="10" height="10" x="130" y="140" fill="#ffffff" /><rect width="10" height="10" x="140" y="140" fill="#00499c" /><rect width="10" height="10" x="150" y="140" fill="#ffffff" /><rect width="10" height="10" x="160" y="140" fill="#00499c" /><rect width="10" height="10" x="170" y="140" fill="#ffffff" /><rect width="10" height="10" x="180" y="140" fill="#00499c" /><rect width="10" height="10" x="190" y="140" fill="#ffffff" /><rect width="50" height="10" x="140" y="150" fill="#ffffff" /><rect width="20" height="10" x="140" y="160" fill="#ff1a0b" /><rect width="10" height="10" x="160" y="160" fill="#d31e14" /><rect width="20" height="10" x="170" y="160" fill="#ff1a0b" /><rect width="10" height="10" x="130" y="170" fill="#ff1a0b" /><rect width="10" height="10" x="150" y="170" fill="#ff1a0b" /><rect width="10" height="10" x="160" y="170" fill="#d31e14" /><rect width="10" height="10" x="170" y="170" fill="#ff1a0b" /><rect width="10" height="10" x="190" y="170" fill="#ff1a0b" /><rect width="30" height="10" x="120" y="180" fill="#ff1a0b" /><rect width="10" height="10" x="160" y="180" fill="#d31e14" /><rect width="30" height="10" x="180" y="180" fill="#ff1a0b" /><rect width="20" height="10" x="110" y="190" fill="#ff1a0b" /><rect width="50" height="10" x="140" y="190" fill="#7d635e" /><rect width="20" height="10" x="200" y="190" fill="#ff1a0b" /><rect width="20" height="10" x="100" y="200" fill="#ff1a0b" /><rect width="50" height="10" x="140" y="200" fill="#7d635e" /><rect width="20" height="10" x="210" y="200" fill="#ff1a0b" /><rect width="60" height="10" x="100" y="110" fill="#ff638d" /><rect width="60" height="10" x="170" y="110" fill="#ff638d" /><rect width="10" height="10" x="100" y="120" fill="#ff638d" /><rect width="20" height="10" x="110" y="120" fill="#ffffff" /><rect width="20" height="10" x="130" y="120" fill="#000000" /><rect width="10" height="10" x="150" y="120" fill="#ff638d" /><rect width="10" height="10" x="170" y="120" fill="#ff638d" /><rect width="20" height="10" x="180" y="120" fill="#ffffff" /><rect width="20" height="10" x="200" y="120" fill="#000000" /><rect width="10" height="10" x="220" y="120" fill="#ff638d" /><rect width="40" height="10" x="70" y="130" fill="#ff638d" /><rect width="20" height="10" x="110" y="130" fill="#ffffff" /><rect width="20" height="10" x="130" y="130" fill="#000000" /><rect width="30" height="10" x="150" y="130" fill="#ff638d" /><rect width="20" height="10" x="180" y="130" fill="#ffffff" /><rect width="20" height="10" x="200" y="130" fill="#000000" /><rect width="10" height="10" x="220" y="130" fill="#ff638d" /><rect width="40" height="10" x="70" y="140" fill="#ff638d" /><rect width="20" height="10" x="110" y="140" fill="#ffffff" /><rect width="20" height="10" x="130" y="140" fill="#000000" /><rect width="30" height="10" x="150" y="140" fill="#ff638d" /><rect width="20" height="10" x="180" y="140" fill="#ffffff" /><rect width="20" height="10" x="200" y="140" fill="#000000" /><rect width="10" height="10" x="220" y="140" fill="#ff638d" /><rect width="10" height="10" x="70" y="150" fill="#ff638d" /><rect width="10" height="10" x="100" y="150" fill="#ff638d" /><rect width="20" height="10" x="110" y="150" fill="#ffffff" /><rect width="20" height="10" x="130" y="150" fill="#000000" /><rect width="10" height="10" x="150" y="150" fill="#ff638d" /><rect width="10" height="10" x="170" y="150" fill="#ff638d" /><rect width="20" height="10" x="180" y="150" fill="#ffffff" /><rect width="20" height="10" x="200" y="150" fill="#000000" /><rect width="10" height="10" x="220" y="150" fill="#ff638d" /><rect width="60" height="10" x="100" y="160" fill="#ff638d" /><rect width="60" height="10" x="170" y="160" fill="#ff638d" /></svg>