<svg viewBox="0 0 320 320" xmlns="http://www.w3.org/2000/svg" shape-rendering="crispEdges"><rect width="100%" height="100%" fill="#d5d7e1" /><rect width="140" height="10" x="90" y="210" fill="#e9265c" /><rect width="140" height="10" x="90" y="220" fill="#e9265c" /><rect width="140" height="10" x="90" y="230" fill="#e9265c" /><rect width="140" height="10" x="90" y="240" fill="#e9265c" /><rect width="20" height="10" x="90" y="250" fill="#e9265c" /><rect width="110" height="10" x="120" y="250" fill="#e9265c" /><rect width="20" height="10" x="90" y="260" fill="#e9265c" /><rect width="110" height="10" x="120" y="260" fill="#e9265c" /><rect width="20" height="10" x="90" y="270" fill="#e9265c" /><rect width="110" height="10" x="120" y="270" fill="#e9265c" /><rect width="20" height="10" x="90" y="280" fill="#e9265c" /><rect width="110" height="10" x="120" y="280" fill="#e9265c" /><rect width="20" height="10" x="90" y="290" fill="#e9265c" /><rect width="110" height="10" x="120" y="290" fill="#e9265c" /><rect width="20" height="10" x="90" y="300" fill="#e9265c" /><rect width="110" height="10" x="120" y="300" fill="#e9265c" /><rect width="20" height="10" x="90" y="310" fill="#e9265c" /><rect width="110" height="10" x="120" y="310" fill="#e9265c" /><rect width="10" height="10" x="150" y="230" fill="#bd2d24" /><rect width="10" height="10" x="140" y="240" fill="#bd2d24" /><rect width="50" height="10" x="140" y="250" fill="#bd2d24" /><rect width="30" height="10" x="150" y="260" fill="#bd2d24" /><rect width="40" height="10" x="140" y="70" fill="#1f1d29" /><rect width="50" height="10" x="110" y="80" fill="#1f1d29" /><rect width="10" height="10" x="160" y="80" fill="#903707" /><rect width="40" height="10" x="170" y="80" fill="#1f1d29" /><rect width="40" height="10" x="90" y="90" fill="#1f1d29" /><rect width="20" height="10" x="130" y="90" fill="#903707" /><rect width="10" height="10" x="150" y="90" fill="#db8323" /><rect width="10" height="10" x="160" y="90" fill="#903707" /><rect width="10" height="10" x="170" y="90" fill="#6e3206" /><rect width="10" height="10" x="180" y="90" fill="#903707" /><rect width="40" height="10" x="190" y="90" fill="#1f1d29" /><rect width="10" height="10" x="80" y="100" fill="#1f1d29" /><rect width="10" height="10" x="90" y="100" fill="#fffdf2" /><rect width="30" height="10" x="100" y="100" fill="#903707" /><rect width="10" height="10" x="130" y="100" fill="#6e3206" /><rect width="20" height="10" x="140" y="100" fill="#903707" /><rect width="10" height="10" x="160" y="100" fill="#db8323" /><rect width="20" height="10" x="170" y="100" fill="#903707" /><rect width="10" height="10" x="190" y="100" fill="#6e3206" /><rect width="30" height="10" x="200" y="100" fill="#903707" /><rect width="10" height="10" x="230" y="100" fill="#1f1d29" /><rect width="10" height="10" x="70" y="110" fill="#1f1d29" /><rect width="10" height="10" x="80" y="110" fill="#fffdf2" /><rect width="10" height="10" x="90" y="110" fill="#903707" /><rect width="10" height="10" x="100" y="110" fill="#db8323" /><rect width="30" height="10" x="110" y="110" fill="#903707" /><rect width="10" height="10" x="140" y="110" fill="#6e3206" /><rect width="50" height="10" x="150" y="110" fill="#903707" /><rect width="10" height="10" x="200" y="110" fill="#6e3206" /><rect width="20" height="10" x="210" y="110" fill="#903707" /><rect width="10" height="10" x="230" y="110" fill="#fffdf2" /><rect width="10" height="10" x="240" y="110" fill="#1f1d29" /><rect width="10" height="10" x="70" y="120" fill="#1f1d29" /><rect width="10" height="10" x="80" y="120" fill="#6e3206" /><rect width="20" height="10" x="90" y="120" fill="#903707" /><rect width="10" height="10" x="110" y="120" fill="#db8323" /><rect width="60" height="10" x="120" y="120" fill="#903707" /><rect width="10" height="10" x="180" y="120" fill="#db8323" /><rect width="30" height="10" x="190" y="120" fill="#903707" /><rect width="10" height="10" x="220" y="120" fill="#6e3206" /><rect width="10" height="10" x="230" y="120" fill="#903707" /><rect width="10" height="10" x="240" y="120" fill="#1f1d29" /><rect width="20" height="10" x="60" y="130" fill="#1f1d29" /><rect width="80" height="10" x="80" y="130" fill="#903707" /><rect width="10" height="10" x="160" y="130" fill="#6e3206" /><rect width="60" height="10" x="170" y="130" fill="#903707" /><rect width="10" height="10" x="230" y="130" fill="#6e3206" /><rect width="20" height="10" x="240" y="130" fill="#1f1d29" /><rect width="20" height="10" x="60" y="140" fill="#1f1d29" /><rect width="20" height="10" x="80" y="140" fill="#903707" /><rect width="10" height="10" x="100" y="140" fill="#6e3206" /><rect width="20" height="10" x="110" y="140" fill="#903707" /><rect width="10" height="10" x="130" y="140" fill="#db8323" /><rect width="30" height="10" x="140" y="140" fill="#903707" /><rect width="10" height="10" x="170" y="140" fill="#6e3206" /><rect width="30" height="10" x="180" y="140" fill="#903707" /><rect width="10" height="10" x="210" y="140" fill="#db8323" /><rect width="20" height="10" x="220" y="140" fill="#903707" /><rect width="20" height="10" x="240" y="140" fill="#1f1d29" /><rect width="20" height="10" x="60" y="150" fill="#1f1d29" /><rect width="10" height="10" x="80" y="150" fill="#fffdf2" /><rect width="20" height="10" x="90" y="150" fill="#903707" /><rect width="10" height="10" x="110" y="150" fill="#6e3206" /><rect width="110" height="10" x="120" y="150" fill="#903707" /><rect width="10" height="10" x="230" y="150" fill="#db8323" /><rect width="20" height="10" x="240" y="150" fill="#1f1d29" /><rect width="30" height="10" x="60" y="160" fill="#1f1d29" /><rect width="10" height="10" x="90" y="160" fill="#fffdf2" /><rect width="90" height="10" x="100" y="160" fill="#903707" /><rect width="10" height="10" x="190" y="160" fill="#6e3206" /><rect width="30" height="10" x="200" y="160" fill="#903707" /><rect width="30" height="10" x="230" y="160" fill="#1f1d29" /><rect width="50" height="10" x="60" y="170" fill="#1f1d29" /><rect width="20" height="10" x="110" y="170" fill="#903707" /><rect width="10" height="10" x="130" y="170" fill="#6e3206" /><rect width="20" height="10" x="140" y="170" fill="#903707" /><rect width="10" height="10" x="160" y="170" fill="#db8323" /><rect width="30" height="10" x="170" y="170" fill="#903707" /><rect width="10" height="10" x="200" y="170" fill="#6e3206" /><rect width="50" height="10" x="210" y="170" fill="#1f1d29" /><rect width="80" height="10" x="70" y="180" fill="#1f1d29" /><rect width="20" height="10" x="150" y="180" fill="#903707" /><rect width="80" height="10" x="170" y="180" fill="#1f1d29" /><rect width="180" height="10" x="70" y="190" fill="#1f1d29" /><rect width="160" height="10" x="80" y="200" fill="#1f1d29" /><rect width="120" height="10" x="100" y="210" fill="#1f1d29" /><rect width="60" height="10" x="100" y="110" fill="#4bea69" /><rect width="60" height="10" x="170" y="110" fill="#4bea69" /><rect width="10" height="10" x="100" y="120" fill="#4bea69" /><rect width="20" height="10" x="110" y="120" fill="#ffffff" /><rect width="20" height="10" x="130" y="120" fill="#000000" /><rect width="10" height="10" x="150" y="120" fill="#4bea69" /><rect width="10" height="10" x="170" y="120" fill="#4bea69" /><rect width="20" height="10" x="180" y="120" fill="#ffffff" /><rect width="20" height="10" x="200" y="120" fill="#000000" /><rect width="10" height="10" x="220" y="120" fill="#4bea69" /><rect width="40" height="10" x="70" y="130" fill="#4bea69" /><rect width="20" height="10" x="110" y="130" fill="#ffffff" /><rect width="20" height="10" x="130" y="130" fill="#000000" /><rect width="30" height="10" x="150" y="130" fill="#4bea69" /><rect width="20" height="10" x="180" y="130" fill="#ffffff" /><rect width="20" height="10" x="200" y="130" fill="#000000" /><rect width="10" height="10" x="220" y="130" fill="#4bea69" /><rect width="10" height="10" x="70" y="140" fill="#4bea69" /><rect width="10" height="10" x="100" y="140" fill="#4bea69" /><rect width="20" height="10" x="110" y="140" fill="#ffffff" /><rect width="20" height="10" x="130" y="140" fill="#000000" /><rect width="10" height="10" x="150" y="140" fill="#4bea69" /><rect width="10" height="10" x="170" y="140" fill="#4bea69" /><rect width="20" height="10" x="180" y="140" fill="#ffffff" /><rect width="20" height="10" x="200" y="140" fill="#000000" /><rect width="10" height="10" x="220" y="140" fill="#4bea69" /><rect width="10" height="10" x="70" y="150" fill="#4bea69" /><rect width="10" height="10" x="100" y="150" fill="#4bea69" /><rect width="20" height="10" x="110" y="150" fill="#ffffff" /><rect width="20" height="10" x="130" y="150" fill="#000000" /><rect width="10" height="10" x="150" y="150" fill="#4bea69" /><rect width="10" height="10" x="170" y="150" fill="#4bea69" /><rect width="20" height="10" x="180" y="150" fill="#ffffff" /><rect width="20" height="10" x="200" y="150" fill="#000000" /><rect width="10" height="10" x="220" y="150" fill="#4bea69" /><rect width="60" height="10" x="100" y="160" fill="#4bea69" /><rect width="60" height="10" x="170" y="160" fill="#4bea69" /></svg>