<svg viewBox="0 0 320 320" xmlns="http://www.w3.org/2000/svg" shape-rendering="crispEdges"><rect width="100%" height="100%" fill="#e1d7d5" /><rect width="140" height="10" x="90" y="210" fill="#807f7e" /><rect width="140" height="10" x="90" y="220" fill="#807f7e" /><rect width="140" height="10" x="90" y="230" fill="#807f7e" /><rect width="140" height="10" x="90" y="240" fill="#807f7e" /><rect width="20" height="10" x="90" y="250" fill="#807f7e" /><rect width="110" height="10" x="120" y="250" fill="#807f7e" /><rect width="20" height="10" x="90" y="260" fill="#807f7e" /><rect width="110" height="10" x="120" y="260" fill="#807f7e" /><rect width="20" height="10" x="90" y="270" fill="#807f7e" /><rect width="110" height="10" x="120" y="270" fill="#807f7e" /><rect width="20" height="10" x="90" y="280" fill="#807f7e" /><rect width="110" height="10" x="120" y="280" fill="#807f7e" /><rect width="20" height="10" x="90" y="290" fill="#807f7e" /><rect width="110" height="10" x="120" y="290" fill="#807f7e" /><rect width="20" height="10" x="90" y="300" fill="#807f7e" /><rect width="110" height="10" x="120" y="300" fill="#807f7e" /><rect width="20" height="10" x="90" y="310" fill="#807f7e" /><rect width="110" height="10" x="120" y="310" fill="#807f7e" /><rect width="10" height="10" x="150" y="250" fill="#f8d689" /><rect width="10" height="10" x="160" y="250" fill="#ffd067" /><rect width="10" height="10" x="170" y="250" fill="#e7a32c" /><rect width="10" height="10" x="180" y="250" fill="#ff7216" /><rect width="10" height="10" x="150" y="260" fill="#e7a32c" /><rect width="10" height="10" x="160" y="260" fill="#f9f4e6" /><rect width="10" height="10" x="170" y="260" fill="#ffd067" /><rect width="10" height="10" x="180" y="260" fill="#f8d689" /><rect width="10" height="10" x="150" y="270" fill="#ffd067" /><rect width="10" height="10" x="160" y="270" fill="#ff7216" /><rect width="10" height="10" x="170" y="270" fill="#f86100" /><rect width="10" height="10" x="180" y="270" fill="#f9f4e6" /><rect width="10" height="10" x="80" y="40" fill="#c4da53" /><rect width="10" height="10" x="110" y="40" fill="#8dd122" /><rect width="10" height="10" x="130" y="40" fill="#8dd122" /><rect width="10" height="10" x="90" y="50" fill="#c4da53" /><rect width="40" height="10" x="100" y="50" fill="#8dd122" /><rect width="30" height="10" x="140" y="50" fill="#f20422" /><rect width="10" height="10" x="80" y="60" fill="#8dd122" /><rect width="20" height="10" x="90" y="60" fill="#c4da53" /><rect width="40" height="10" x="110" y="60" fill="#8dd122" /><rect width="40" height="10" x="150" y="60" fill="#f20422" /><rect width="50" height="10" x="70" y="70" fill="#8dd122" /><rect width="50" height="10" x="120" y="70" fill="#f20422" /><rect width="10" height="10" x="170" y="70" fill="#ffffff" /><rect width="20" height="10" x="180" y="70" fill="#f20422" /><rect width="20" height="10" x="80" y="80" fill="#8dd122" /><rect width="60" height="10" x="100" y="80" fill="#f20422" /><rect width="10" height="10" x="160" y="80" fill="#ffffff" /><rect width="10" height="10" x="170" y="80" fill="#f20422" /><rect width="10" height="10" x="180" y="80" fill="#ffffff" /><rect width="10" height="10" x="190" y="80" fill="#f20422" /><rect width="20" height="10" x="60" y="90" fill="#8dd122" /><rect width="10" height="10" x="80" y="90" fill="#f20422" /><rect width="10" height="10" x="90" y="90" fill="#8dd122" /><rect width="70" height="10" x="100" y="90" fill="#f20422" /><rect width="10" height="10" x="170" y="90" fill="#ffffff" /><rect width="30" height="10" x="180" y="90" fill="#f20422" /><rect width="140" height="10" x="70" y="100" fill="#f20422" /><rect width="150" height="10" x="70" y="110" fill="#f20422" /><rect width="150" height="10" x="70" y="120" fill="#f20422" /><rect width="150" height="10" x="70" y="130" fill="#f20422" /><rect width="150" height="10" x="70" y="140" fill="#f20422" /><rect width="140" height="10" x="80" y="150" fill="#f20422" /><rect width="130" height="10" x="80" y="160" fill="#f20422" /><rect width="120" height="10" x="90" y="170" fill="#f20422" /><rect width="40" height="10" x="100" y="180" fill="#f20422" /><rect width="10" height="10" x="140" y="180" fill="#ffc925" /><rect width="20" height="10" x="150" y="180" fill="#f20422" /><rect width="10" height="10" x="170" y="180" fill="#ffc925" /><rect width="30" height="10" x="180" y="180" fill="#f20422" /><rect width="40" height="10" x="110" y="190" fill="#f20422" /><rect width="20" height="10" x="150" y="190" fill="#ffc925" /><rect width="30" height="10" x="170" y="190" fill="#f20422" /><rect width="70" height="10" x="130" y="200" fill="#f20422" /><rect width="40" height="10" x="150" y="210" fill="#f20422" /><rect width="60" height="10" x="100" y="110" fill="#e8705b" /><rect width="60" height="10" x="170" y="110" fill="#e8705b" /><rect width="10" height="10" x="100" y="120" fill="#e8705b" /><rect width="20" height="10" x="110" y="120" fill="#ffffff" /><rect width="20" height="10" x="130" y="120" fill="#000000" /><rect width="10" height="10" x="150" y="120" fill="#e8705b" /><rect width="10" height="10" x="170" y="120" fill="#e8705b" /><rect width="20" height="10" x="180" y="120" fill="#ffffff" /><rect width="20" height="10" x="200" y="120" fill="#000000" /><rect width="10" height="10" x="220" y="120" fill="#e8705b" /><rect width="40" height="10" x="70" y="130" fill="#e8705b" /><rect width="20" height="10" x="110" y="130" fill="#ffffff" /><rect width="20" height="10" x="130" y="130" fill="#000000" /><rect width="30" height="10" x="150" y="130" fill="#e8705b" /><rect width="20" height="10" x="180" y="130" fill="#ffffff" /><rect width="20" height="10" x="200" y="130" fill="#000000" /><rect width="10" height="10" x="220" y="130" fill="#e8705b" /><rect width="10" height="10" x="70" y="140" fill="#e8705b" /><rect width="10" height="10" x="100" y="140" fill="#e8705b" /><rect width="20" height="10" x="110" y="140" fill="#ffffff" /><rect width="20" height="10" x="130" y="140" fill="#000000" /><rect width="10" height="10" x="150" y="140" fill="#e8705b" /><rect width="10" height="10" x="170" y="140" fill="#e8705b" /><rect width="20" height="10" x="180" y="140" fill="#ffffff" /><rect width="20" height="10" x="200" y="140" fill="#000000" /><rect width="10" height="10" x="220" y="140" fill="#e8705b" /><rect width="10" height="10" x="70" y="150" fill="#e8705b" /><rect width="10" height="10" x="100" y="150" fill="#e8705b" /><rect width="20" height="10" x="110" y="150" fill="#ffffff" /><rect width="20" height="10" x="130" y="150" fill="#000000" /><rect width="10" height="10" x="150" y="150" fill="#e8705b" /><rect width="10" height="10" x="170" y="150" fill="#e8705b" /><rect width="20" height="10" x="180" y="150" fill="#ffffff" /><rect width="20" height="10" x="200" y="150" fill="#000000" /><rect width="10" height="10" x="220" y="150" fill="#e8705b" /><rect width="60" height="10" x="100" y="160" fill="#e8705b" /><rect width="60" height="10" x="170" y="160" fill="#e8705b" /></svg>