<svg viewBox="0 0 320 320" xmlns="http://www.w3.org/2000/svg" shape-rendering="crispEdges"><rect width="100%" height="100%" fill="#d5d7e1" /><rect width="140" height="10" x="90" y="210" fill="#c5b9a1" /><rect width="140" height="10" x="90" y="220" fill="#c5b9a1" /><rect width="140" height="10" x="90" y="230" fill="#c5b9a1" /><rect width="140" height="10" x="90" y="240" fill="#c5b9a1" /><rect width="20" height="10" x="90" y="250" fill="#c5b9a1" /><rect width="110" height="10" x="120" y="250" fill="#c5b9a1" /><rect width="20" height="10" x="90" y="260" fill="#c5b9a1" /><rect width="110" height="10" x="120" y="260" fill="#c5b9a1" /><rect width="20" height="10" x="90" y="270" fill="#c5b9a1" /><rect width="110" height="10" x="120" y="270" fill="#c5b9a1" /><rect width="20" height="10" x="90" y="280" fill="#c5b9a1" /><rect width="110" height="10" x="120" y="280" fill="#c5b9a1" /><rect width="20" height="10" x="90" y="290" fill="#c5b9a1" /><rect width="110" height="10" x="120" y="290" fill="#c5b9a1" /><rect width="20" height="10" x="90" y="300" fill="#c5b9a1" /><rect width="110" height="10" x="120" y="300" fill="#c5b9a1" /><rect width="20" height="10" x="90" y="310" fill="#c5b9a1" /><rect width="110" height="10" x="120" y="310" fill="#c5b9a1" /><rect width="10" height="10" x="150" y="250" fill="#f5fcff" /><rect width="30" height="10" x="160" y="250" fill="#00499c" /><rect width="10" height="10" x="140" y="260" fill="#f5fcff" /><rect width="10" height="10" x="160" y="260" fill="#d22209" /><rect width="20" height="10" x="170" y="260" fill="#f5fcff" /><rect width="10" height="10" x="150" y="270" fill="#f5fcff" /><rect width="30" height="10" x="160" y="270" fill="#d22209" /><rect width="80" height="10" x="120" y="50" fill="#ffffff" /><rect width="120" height="10" x="100" y="60" fill="#ffffff" /><rect width="60" height="10" x="80" y="70" fill="#ffffff" /><rect width="20" height="10" x="140" y="70" fill="#c4da53" /><rect width="20" height="10" x="160" y="70" fill="#ffffff" /><rect width="10" height="10" x="180" y="70" fill="#c4da53" /><rect width="50" height="10" x="190" y="70" fill="#ffffff" /><rect width="40" height="10" x="70" y="80" fill="#ffffff" /><rect width="20" height="10" x="110" y="80" fill="#018146" /><rect width="20" height="10" x="130" y="80" fill="#c4da53" /><rect width="20" height="10" x="150" y="80" fill="#df2c39" /><rect width="20" height="10" x="170" y="80" fill="#c4da53" /><rect width="10" height="10" x="190" y="80" fill="#018146" /><rect width="10" height="10" x="200" y="80" fill="#c4da53" /><rect width="40" height="10" x="210" y="80" fill="#ffffff" /><rect width="40" height="10" x="60" y="90" fill="#ffffff" /><rect width="10" height="10" x="100" y="90" fill="#c4da53" /><rect width="20" height="10" x="110" y="90" fill="#df2c39" /><rect width="10" height="10" x="130" y="90" fill="#018146" /><rect width="10" height="10" x="140" y="90" fill="#c4da53" /><rect width="20" height="10" x="150" y="90" fill="#df2c39" /><rect width="20" height="10" x="170" y="90" fill="#018146" /><rect width="20" height="10" x="190" y="90" fill="#df2c39" /><rect width="50" height="10" x="210" y="90" fill="#ffffff" /><rect width="30" height="10" x="60" y="100" fill="#ffffff" /><rect width="20" height="10" x="90" y="100" fill="#018146" /><rect width="20" height="10" x="110" y="100" fill="#df2c39" /><rect width="10" height="10" x="130" y="100" fill="#ffef16" /><rect width="40" height="10" x="140" y="100" fill="#552d1d" /><rect width="10" height="10" x="180" y="100" fill="#018146" /><rect width="20" height="10" x="190" y="100" fill="#df2c39" /><rect width="20" height="10" x="210" y="100" fill="#018146" /><rect width="30" height="10" x="230" y="100" fill="#ffffff" /><rect width="30" height="10" x="50" y="110" fill="#ffffff" /><rect width="50" height="10" x="80" y="110" fill="#c4da53" /><rect width="30" height="10" x="130" y="110" fill="#552d1d" /><rect width="10" height="10" x="160" y="110" fill="#ffef16" /><rect width="40" height="10" x="170" y="110" fill="#552d1d" /><rect width="40" height="10" x="210" y="110" fill="#c4da53" /><rect width="20" height="10" x="250" y="110" fill="#ffffff" /><rect width="20" height="10" x="50" y="120" fill="#ffffff" /><rect width="20" height="10" x="70" y="120" fill="#c4da53" /><rect width="30" height="10" x="90" y="120" fill="#018146" /><rect width="80" height="10" x="120" y="120" fill="#552d1d" /><rect width="30" height="10" x="200" y="120" fill="#018146" /><rect width="10" height="10" x="230" y="120" fill="#c4da53" /><rect width="30" height="10" x="240" y="120" fill="#ffffff" /><rect width="30" height="10" x="50" y="130" fill="#ffffff" /><rect width="20" height="10" x="80" y="130" fill="#df2c39" /><rect width="20" height="10" x="100" y="130" fill="#c4da53" /><rect width="90" height="10" x="120" y="130" fill="#552d1d" /><rect width="10" height="10" x="210" y="130" fill="#c4da53" /><rect width="20" height="10" x="220" y="130" fill="#df2c39" /><rect width="30" height="10" x="240" y="130" fill="#ffffff" /><rect width="30" height="10" x="50" y="140" fill="#ffffff" /><rect width="20" height="10" x="80" y="140" fill="#df2c39" /><rect width="10" height="10" x="100" y="140" fill="#c4da53" /><rect width="50" height="10" x="110" y="140" fill="#552d1d" /><rect width="10" height="10" x="160" y="140" fill="#ffef16" /><rect width="40" height="10" x="170" y="140" fill="#552d1d" /><rect width="10" height="10" x="210" y="140" fill="#c4da53" /><rect width="20" height="10" x="220" y="140" fill="#df2c39" /><rect width="10" height="10" x="240" y="140" fill="#c4da53" /><rect width="20" height="10" x="250" y="140" fill="#ffffff" /><rect width="30" height="10" x="50" y="150" fill="#ffffff" /><rect width="10" height="10" x="80" y="150" fill="#c4da53" /><rect width="20" height="10" x="90" y="150" fill="#018146" /><rect width="20" height="10" x="110" y="150" fill="#552d1d" /><rect width="10" height="10" x="130" y="150" fill="#ffef16" /><rect width="60" height="10" x="140" y="150" fill="#552d1d" /><rect width="30" height="10" x="200" y="150" fill="#018146" /><rect width="10" height="10" x="230" y="150" fill="#c4da53" /><rect width="30" height="10" x="240" y="150" fill="#ffffff" /><rect width="30" height="10" x="60" y="160" fill="#ffffff" /><rect width="10" height="10" x="90" y="160" fill="#c4da53" /><rect width="10" height="10" x="100" y="160" fill="#018146" /><rect width="90" height="10" x="110" y="160" fill="#552d1d" /><rect width="20" height="10" x="200" y="160" fill="#018146" /><rect width="10" height="10" x="220" y="160" fill="#c4da53" /><rect width="30" height="10" x="230" y="160" fill="#ffffff" /><rect width="30" height="10" x="60" y="170" fill="#ffffff" /><rect width="10" height="10" x="90" y="170" fill="#c4da53" /><rect width="10" height="10" x="100" y="170" fill="#018146" /><rect width="20" height="10" x="110" y="170" fill="#df2c39" /><rect width="50" height="10" x="130" y="170" fill="#552d1d" /><rect width="10" height="10" x="180" y="170" fill="#ffef16" /><rect width="20" height="10" x="190" y="170" fill="#df2c39" /><rect width="20" height="10" x="210" y="170" fill="#c4da53" /><rect width="30" height="10" x="230" y="170" fill="#ffffff" /><rect width="40" height="10" x="70" y="180" fill="#ffffff" /><rect width="20" height="10" x="110" y="180" fill="#df2c39" /><rect width="10" height="10" x="130" y="180" fill="#c4da53" /><rect width="10" height="10" x="140" y="180" fill="#552d1d" /><rect width="20" height="10" x="150" y="180" fill="#df2c39" /><rect width="20" height="10" x="170" y="180" fill="#c4da53" /><rect width="20" height="10" x="190" y="180" fill="#df2c39" /><rect width="10" height="10" x="210" y="180" fill="#018146" /><rect width="30" height="10" x="220" y="180" fill="#ffffff" /><rect width="60" height="10" x="80" y="190" fill="#ffffff" /><rect width="10" height="10" x="140" y="190" fill="#c4da53" /><rect width="20" height="10" x="150" y="190" fill="#df2c39" /><rect width="10" height="10" x="170" y="190" fill="#c4da53" /><rect width="10" height="10" x="180" y="190" fill="#ffffff" /><rect width="10" height="10" x="190" y="190" fill="#c4da53" /><rect width="40" height="10" x="200" y="190" fill="#ffffff" /><rect width="40" height="10" x="100" y="200" fill="#ffffff" /><rect width="10" height="10" x="140" y="200" fill="#c4da53" /><rect width="70" height="10" x="150" y="200" fill="#ffffff" /><rect width="80" height="10" x="120" y="210" fill="#ffffff" /><rect width="60" height="10" x="100" y="110" fill="#8dd122" /><rect width="60" height="10" x="170" y="110" fill="#8dd122" /><rect width="10" height="10" x="100" y="120" fill="#8dd122" /><rect width="20" height="10" x="110" y="120" fill="#ffffff" /><rect width="20" height="10" x="130" y="120" fill="#000000" /><rect width="10" height="10" x="150" y="120" fill="#8dd122" /><rect width="10" height="10" x="170" y="120" fill="#8dd122" /><rect width="20" height="10" x="180" y="120" fill="#ffffff" /><rect width="20" height="10" x="200" y="120" fill="#000000" /><rect width="10" height="10" x="220" y="120" fill="#8dd122" /><rect width="40" height="10" x="70" y="130" fill="#8dd122" /><rect width="20" height="10" x="110" y="130" fill="#ffffff" /><rect width="20" height="10" x="130" y="130" fill="#000000" /><rect width="30" height="10" x="150" y="130" fill="#8dd122" /><rect width="20" height="10" x="180" y="130" fill="#ffffff" /><rect width="20" height="10" x="200" y="130" fill="#000000" /><rect width="10" height="10" x="220" y="130" fill="#8dd122" /><rect width="10" height="10" x="70" y="140" fill="#8dd122" /><rect width="10" height="10" x="100" y="140" fill="#8dd122" /><rect width="20" height="10" x="110" y="140" fill="#ffffff" /><rect width="20" height="10" x="130" y="140" fill="#000000" /><rect width="10" height="10" x="150" y="140" fill="#8dd122" /><rect width="10" height="10" x="170" y="140" fill="#8dd122" /><rect width="20" height="10" x="180" y="140" fill="#ffffff" /><rect width="20" height="10" x="200" y="140" fill="#000000" /><rect width="10" height="10" x="220" y="140" fill="#8dd122" /><rect width="10" height="10" x="70" y="150" fill="#8dd122" /><rect width="10" height="10" x="100" y="150" fill="#8dd122" /><rect width="20" height="10" x="110" y="150" fill="#ffffff" /><rect width="20" height="10" x="130" y="150" fill="#000000" /><rect width="10" height="10" x="150" y="150" fill="#8dd122" /><rect width="10" height="10" x="170" y="150" fill="#8dd122" /><rect width="20" height="10" x="180" y="150" fill="#ffffff" /><rect width="20" height="10" x="200" y="150" fill="#000000" /><rect width="10" height="10" x="220" y="150" fill="#8dd122" /><rect width="60" height="10" x="100" y="160" fill="#8dd122" /><rect width="60" height="10" x="170" y="160" fill="#8dd122" /></svg>