<svg viewBox="0 0 320 320" xmlns="http://www.w3.org/2000/svg" shape-rendering="crispEdges"><rect width="100%" height="100%" fill="#d5d7e1" /><rect width="140" height="10" x="90" y="210" fill="#f98f30" /><rect width="140" height="10" x="90" y="220" fill="#f98f30" /><rect width="140" height="10" x="90" y="230" fill="#f98f30" /><rect width="140" height="10" x="90" y="240" fill="#f98f30" /><rect width="20" height="10" x="90" y="250" fill="#f98f30" /><rect width="110" height="10" x="120" y="250" fill="#f98f30" /><rect width="20" height="10" x="90" y="260" fill="#f98f30" /><rect width="110" height="10" x="120" y="260" fill="#f98f30" /><rect width="20" height="10" x="90" y="270" fill="#f98f30" /><rect width="110" height="10" x="120" y="270" fill="#f98f30" /><rect width="20" height="10" x="90" y="280" fill="#f98f30" /><rect width="110" height="10" x="120" y="280" fill="#f98f30" /><rect width="20" height="10" x="90" y="290" fill="#f98f30" /><rect width="110" height="10" x="120" y="290" fill="#f98f30" /><rect width="20" height="10" x="90" y="300" fill="#f98f30" /><rect width="110" height="10" x="120" y="300" fill="#f98f30" /><rect width="20" height="10" x="90" y="310" fill="#f98f30" /><rect width="110" height="10" x="120" y="310" fill="#f98f30" /><rect width="10" height="10" x="140" y="250" fill="#6e3206" /><rect width="10" height="10" x="150" y="250" fill="#ec5b43" /><rect width="10" height="10" x="160" y="250" fill="#6e3206" /><rect width="10" height="10" x="170" y="250" fill="#ec5b43" /><rect width="10" height="10" x="180" y="250" fill="#6e3206" /><rect width="10" height="10" x="140" y="260" fill="#4d271b" /><rect width="10" height="10" x="150" y="260" fill="#ec5b43" /><rect width="10" height="10" x="160" y="260" fill="#4d271b" /><rect width="10" height="10" x="170" y="260" fill="#ec5b43" /><rect width="10" height="10" x="180" y="260" fill="#6e3206" /><rect width="10" height="10" x="120" y="40" fill="#f20422" /><rect width="10" height="10" x="130" y="40" fill="#962236" /><rect width="10" height="10" x="140" y="40" fill="#f20422" /><rect width="30" height="10" x="170" y="40" fill="#f20422" /><rect width="30" height="10" x="120" y="50" fill="#962236" /><rect width="30" height="10" x="170" y="50" fill="#962236" /><rect width="10" height="10" x="120" y="60" fill="#f20422" /><rect width="10" height="10" x="130" y="60" fill="#962236" /><rect width="10" height="10" x="140" y="60" fill="#f20422" /><rect width="30" height="10" x="170" y="60" fill="#f20422" /><rect width="100" height="10" x="110" y="70" fill="#f20422" /><rect width="140" height="10" x="90" y="80" fill="#f20422" /><rect width="140" height="10" x="90" y="90" fill="#f20422" /><rect width="160" height="10" x="80" y="100" fill="#f20422" /><rect width="160" height="10" x="80" y="110" fill="#f20422" /><rect width="180" height="10" x="70" y="120" fill="#f20422" /><rect width="180" height="10" x="70" y="130" fill="#f20422" /><rect width="180" height="10" x="70" y="140" fill="#f20422" /><rect width="180" height="10" x="70" y="150" fill="#f20422" /><rect width="180" height="10" x="70" y="160" fill="#f20422" /><rect width="180" height="10" x="70" y="170" fill="#f20422" /><rect width="60" height="10" x="80" y="180" fill="#fbc800" /><rect width="50" height="10" x="140" y="180" fill="#9f4b27" /><rect width="50" height="10" x="190" y="180" fill="#fbc800" /><rect width="160" height="10" x="80" y="190" fill="#fbc800" /><rect width="140" height="10" x="90" y="200" fill="#fbc800" /><rect width="60" height="10" x="100" y="110" fill="#000000" /><rect width="60" height="10" x="170" y="110" fill="#000000" /><rect width="10" height="10" x="100" y="120" fill="#000000" /><rect width="20" height="10" x="110" y="120" fill="#ffffff" /><rect width="20" height="10" x="130" y="120" fill="#ff0e0e" /><rect width="10" height="10" x="150" y="120" fill="#000000" /><rect width="10" height="10" x="170" y="120" fill="#000000" /><rect width="20" height="10" x="180" y="120" fill="#ffffff" /><rect width="20" height="10" x="200" y="120" fill="#ff0e0e" /><rect width="10" height="10" x="220" y="120" fill="#000000" /><rect width="40" height="10" x="70" y="130" fill="#000000" /><rect width="20" height="10" x="110" y="130" fill="#ffffff" /><rect width="20" height="10" x="130" y="130" fill="#ff0e0e" /><rect width="30" height="10" x="150" y="130" fill="#000000" /><rect width="20" height="10" x="180" y="130" fill="#ffffff" /><rect width="20" height="10" x="200" y="130" fill="#ff0e0e" /><rect width="10" height="10" x="220" y="130" fill="#000000" /><rect width="10" height="10" x="70" y="140" fill="#000000" /><rect width="10" height="10" x="100" y="140" fill="#000000" /><rect width="20" height="10" x="110" y="140" fill="#ffffff" /><rect width="20" height="10" x="130" y="140" fill="#ff0e0e" /><rect width="10" height="10" x="150" y="140" fill="#000000" /><rect width="10" height="10" x="170" y="140" fill="#000000" /><rect width="20" height="10" x="180" y="140" fill="#ffffff" /><rect width="20" height="10" x="200" y="140" fill="#ff0e0e" /><rect width="10" height="10" x="220" y="140" fill="#000000" /><rect width="10" height="10" x="70" y="150" fill="#000000" /><rect width="10" height="10" x="100" y="150" fill="#000000" /><rect width="20" height="10" x="110" y="150" fill="#ffffff" /><rect width="20" height="10" x="130" y="150" fill="#ff0e0e" /><rect width="10" height="10" x="150" y="150" fill="#000000" /><rect width="10" height="10" x="170" y="150" fill="#000000" /><rect width="20" height="10" x="180" y="150" fill="#ffffff" /><rect width="20" height="10" x="200" y="150" fill="#ff0e0e" /><rect width="10" height="10" x="220" y="150" fill="#000000" /><rect width="60" height="10" x="100" y="160" fill="#000000" /><rect width="60" height="10" x="170" y="160" fill="#000000" /></svg>