<svg viewBox="0 0 320 320" xmlns="http://www.w3.org/2000/svg" shape-rendering="crispEdges"><rect width="100%" height="100%" fill="#e1d7d5" /><rect width="140" height="10" x="90" y="210" fill="#867c1d" /><rect width="140" height="10" x="90" y="220" fill="#867c1d" /><rect width="140" height="10" x="90" y="230" fill="#867c1d" /><rect width="140" height="10" x="90" y="240" fill="#867c1d" /><rect width="20" height="10" x="90" y="250" fill="#867c1d" /><rect width="110" height="10" x="120" y="250" fill="#867c1d" /><rect width="20" height="10" x="90" y="260" fill="#867c1d" /><rect width="110" height="10" x="120" y="260" fill="#867c1d" /><rect width="20" height="10" x="90" y="270" fill="#867c1d" /><rect width="110" height="10" x="120" y="270" fill="#867c1d" /><rect width="20" height="10" x="90" y="280" fill="#867c1d" /><rect width="110" height="10" x="120" y="280" fill="#867c1d" /><rect width="20" height="10" x="90" y="290" fill="#867c1d" /><rect width="110" height="10" x="120" y="290" fill="#867c1d" /><rect width="20" height="10" x="90" y="300" fill="#867c1d" /><rect width="110" height="10" x="120" y="300" fill="#867c1d" /><rect width="20" height="10" x="90" y="310" fill="#867c1d" /><rect width="110" height="10" x="120" y="310" fill="#867c1d" /><rect width="20" height="10" x="90" y="210" fill="#ffef16" /><rect width="20" height="10" x="110" y="210" fill="#ff1a0b" /><rect width="20" height="10" x="130" y="210" fill="#ffef16" /><rect width="20" height="10" x="150" y="210" fill="#ff1a0b" /><rect width="20" height="10" x="170" y="210" fill="#ffef16" /><rect width="20" height="10" x="190" y="210" fill="#ff1a0b" /><rect width="20" height="10" x="210" y="210" fill="#ffef16" /><rect width="20" height="10" x="90" y="220" fill="#ffef16" /><rect width="20" height="10" x="110" y="220" fill="#ff1a0b" /><rect width="20" height="10" x="130" y="220" fill="#ffef16" /><rect width="20" height="10" x="150" y="220" fill="#ff1a0b" /><rect width="20" height="10" x="170" y="220" fill="#ffef16" /><rect width="20" height="10" x="190" y="220" fill="#ff1a0b" /><rect width="20" height="10" x="210" y="220" fill="#ffef16" /><rect width="10" height="10" x="130" y="250" fill="#6e3206" /><rect width="10" height="10" x="150" y="250" fill="#6e3206" /><rect width="10" height="10" x="170" y="250" fill="#6e3206" /><rect width="10" height="10" x="190" y="250" fill="#6e3206" /><rect width="10" height="10" x="210" y="250" fill="#6e3206" /><rect width="10" height="10" x="130" y="260" fill="#6e3206" /><rect width="10" height="10" x="150" y="260" fill="#6e3206" /><rect width="10" height="10" x="170" y="260" fill="#6e3206" /><rect width="10" height="10" x="190" y="260" fill="#6e3206" /><rect width="10" height="10" x="210" y="260" fill="#6e3206" /><rect width="10" height="10" x="130" y="270" fill="#6e3206" /><rect width="10" height="10" x="150" y="270" fill="#6e3206" /><rect width="10" height="10" x="170" y="270" fill="#6e3206" /><rect width="10" height="10" x="190" y="270" fill="#6e3206" /><rect width="10" height="10" x="210" y="270" fill="#6e3206" /><rect width="10" height="10" x="130" y="280" fill="#6e3206" /><rect width="10" height="10" x="150" y="280" fill="#6e3206" /><rect width="10" height="10" x="170" y="280" fill="#6e3206" /><rect width="10" height="10" x="190" y="280" fill="#6e3206" /><rect width="10" height="10" x="210" y="280" fill="#6e3206" /><rect width="10" height="10" x="200" y="20" fill="#3f9323" /><rect width="10" height="10" x="180" y="30" fill="#80a72d" /><rect width="10" height="10" x="190" y="30" fill="#3f9323" /><rect width="20" height="10" x="170" y="40" fill="#80a72d" /><rect width="20" height="10" x="260" y="40" fill="#3f9323" /><rect width="30" height="10" x="160" y="50" fill="#80a72d" /><rect width="40" height="10" x="230" y="50" fill="#3f9323" /><rect width="10" height="10" x="150" y="60" fill="#fff671" /><rect width="20" height="10" x="160" y="60" fill="#80a72d" /><rect width="60" height="10" x="210" y="60" fill="#3f9323" /><rect width="20" height="10" x="120" y="70" fill="#80a72d" /><rect width="10" height="10" x="140" y="70" fill="#fff671" /><rect width="10" height="10" x="150" y="70" fill="#80a72d" /><rect width="10" height="10" x="160" y="70" fill="#fff671" /><rect width="70" height="10" x="190" y="70" fill="#3f9323" /><rect width="10" height="10" x="90" y="80" fill="#fff671" /><rect width="20" height="10" x="110" y="80" fill="#80a72d" /><rect width="10" height="10" x="130" y="80" fill="#fff671" /><rect width="20" height="10" x="140" y="80" fill="#80a72d" /><rect width="10" height="10" x="160" y="80" fill="#fff671" /><rect width="80" height="10" x="180" y="80" fill="#3f9323" /><rect width="10" height="10" x="90" y="90" fill="#fff671" /><rect width="30" height="10" x="100" y="90" fill="#80a72d" /><rect width="10" height="10" x="130" y="90" fill="#fff671" /><rect width="10" height="10" x="140" y="90" fill="#80a72d" /><rect width="10" height="10" x="150" y="90" fill="#fff671" /><rect width="10" height="10" x="160" y="90" fill="#80a72d" /><rect width="80" height="10" x="170" y="90" fill="#3f9323" /><rect width="10" height="10" x="90" y="100" fill="#80a72d" /><rect width="10" height="10" x="100" y="100" fill="#fff671" /><rect width="10" height="10" x="110" y="100" fill="#80a72d" /><rect width="30" height="10" x="120" y="100" fill="#fff671" /><rect width="20" height="10" x="150" y="100" fill="#80a72d" /><rect width="80" height="10" x="170" y="100" fill="#3f9323" /><rect width="20" height="10" x="80" y="110" fill="#80a72d" /><rect width="40" height="10" x="100" y="110" fill="#fff671" /><rect width="30" height="10" x="140" y="110" fill="#80a72d" /><rect width="80" height="10" x="170" y="110" fill="#3f9323" /><rect width="30" height="10" x="80" y="120" fill="#80a72d" /><rect width="20" height="10" x="110" y="120" fill="#fff671" /><rect width="30" height="10" x="130" y="120" fill="#80a72d" /><rect width="80" height="10" x="160" y="120" fill="#3f9323" /><rect width="30" height="10" x="70" y="130" fill="#80a72d" /><rect width="40" height="10" x="100" y="130" fill="#fff671" /><rect width="10" height="10" x="140" y="130" fill="#80a72d" /><rect width="10" height="10" x="150" y="130" fill="#3f9323" /><rect width="30" height="10" x="160" y="130" fill="#018146" /><rect width="50" height="10" x="190" y="130" fill="#3f9323" /><rect width="20" height="10" x="70" y="140" fill="#80a72d" /><rect width="10" height="10" x="90" y="140" fill="#fff671" /><rect width="10" height="10" x="100" y="140" fill="#80a72d" /><rect width="10" height="10" x="110" y="140" fill="#fff671" /><rect width="20" height="10" x="120" y="140" fill="#80a72d" /><rect width="10" height="10" x="140" y="140" fill="#fff671" /><rect width="50" height="10" x="150" y="140" fill="#018146" /><rect width="30" height="10" x="200" y="140" fill="#3f9323" /><rect width="10" height="10" x="70" y="150" fill="#80a72d" /><rect width="10" height="10" x="80" y="150" fill="#fff671" /><rect width="20" height="10" x="90" y="150" fill="#80a72d" /><rect width="10" height="10" x="110" y="150" fill="#fff671" /><rect width="20" height="10" x="120" y="150" fill="#80a72d" /><rect width="60" height="10" x="140" y="150" fill="#018146" /><rect width="30" height="10" x="200" y="150" fill="#3f9323" /><rect width="10" height="10" x="70" y="160" fill="#fff671" /><rect width="20" height="10" x="80" y="160" fill="#80a72d" /><rect width="10" height="10" x="100" y="160" fill="#fff671" /><rect width="20" height="10" x="110" y="160" fill="#80a72d" /><rect width="70" height="10" x="130" y="160" fill="#018146" /><rect width="20" height="10" x="200" y="160" fill="#3f9323" /><rect width="30" height="10" x="50" y="170" fill="#80a72d" /><rect width="20" height="10" x="80" y="170" fill="#fff671" /><rect width="20" height="10" x="100" y="170" fill="#80a72d" /><rect width="10" height="10" x="120" y="170" fill="#3f9323" /><rect width="60" height="10" x="130" y="170" fill="#018146" /><rect width="30" height="10" x="190" y="170" fill="#3f9323" /><rect width="40" height="10" x="40" y="180" fill="#80a72d" /><rect width="10" height="10" x="80" y="180" fill="#fff671" /><rect width="20" height="10" x="90" y="180" fill="#80a72d" /><rect width="10" height="10" x="110" y="180" fill="#3f9323" /><rect width="20" height="10" x="120" y="180" fill="#018146" /><rect width="10" height="10" x="140" y="180" fill="#7e5243" /><rect width="10" height="10" x="150" y="180" fill="#a86f60" /><rect width="10" height="10" x="160" y="180" fill="#018146" /><rect width="10" height="10" x="170" y="180" fill="#ffffff" /><rect width="10" height="10" x="180" y="180" fill="#018146" /><rect width="20" height="10" x="190" y="180" fill="#3f9323" /><rect width="40" height="10" x="40" y="190" fill="#80a72d" /><rect width="20" height="10" x="100" y="190" fill="#3f9323" /><rect width="10" height="10" x="120" y="190" fill="#7e5243" /><rect width="20" height="10" x="130" y="190" fill="#a86f60" /><rect width="10" height="10" x="150" y="190" fill="#7e5243" /><rect width="10" height="10" x="160" y="190" fill="#ffffff" /><rect width="10" height="10" x="170" y="190" fill="#018146" /><rect width="30" height="10" x="180" y="190" fill="#3f9323" /><rect width="30" height="10" x="40" y="200" fill="#80a72d" /><rect width="30" height="10" x="100" y="200" fill="#3f9323" /><rect width="10" height="10" x="130" y="200" fill="#a86f60" /><rect width="10" height="10" x="140" y="200" fill="#7e5243" /><rect width="10" height="10" x="150" y="200" fill="#a86f60" /><rect width="10" height="10" x="160" y="200" fill="#018146" /><rect width="30" height="10" x="170" y="200" fill="#3f9323" /><rect width="90" height="10" x="100" y="210" fill="#3f9323" /><rect width="60" height="10" x="110" y="220" fill="#3f9323" /><rect width="60" height="10" x="100" y="110" fill="#fe500c" /><rect width="60" height="10" x="170" y="110" fill="#fe500c" /><rect width="10" height="10" x="100" y="120" fill="#fe500c" /><rect width="20" height="10" x="110" y="120" fill="#ffffff" /><rect width="20" height="10" x="130" y="120" fill="#000000" /><rect width="10" height="10" x="150" y="120" fill="#fe500c" /><rect width="10" height="10" x="170" y="120" fill="#fe500c" /><rect width="20" height="10" x="180" y="120" fill="#ffffff" /><rect width="20" height="10" x="200" y="120" fill="#000000" /><rect width="10" height="10" x="220" y="120" fill="#fe500c" /><rect width="40" height="10" x="70" y="130" fill="#fe500c" /><rect width="20" height="10" x="110" y="130" fill="#ffffff" /><rect width="20" height="10" x="130" y="130" fill="#000000" /><rect width="30" height="10" x="150" y="130" fill="#fe500c" /><rect width="20" height="10" x="180" y="130" fill="#ffffff" /><rect width="20" height="10" x="200" y="130" fill="#000000" /><rect width="10" height="10" x="220" y="130" fill="#fe500c" /><rect width="10" height="10" x="70" y="140" fill="#fe500c" /><rect width="10" height="10" x="100" y="140" fill="#fe500c" /><rect width="20" height="10" x="110" y="140" fill="#ffffff" /><rect width="20" height="10" x="130" y="140" fill="#000000" /><rect width="10" height="10" x="150" y="140" fill="#fe500c" /><rect width="10" height="10" x="170" y="140" fill="#fe500c" /><rect width="20" height="10" x="180" y="140" fill="#ffffff" /><rect width="20" height="10" x="200" y="140" fill="#000000" /><rect width="10" height="10" x="220" y="140" fill="#fe500c" /><rect width="10" height="10" x="70" y="150" fill="#fe500c" /><rect width="10" height="10" x="100" y="150" fill="#fe500c" /><rect width="20" height="10" x="110" y="150" fill="#ffffff" /><rect width="20" height="10" x="130" y="150" fill="#000000" /><rect width="10" height="10" x="150" y="150" fill="#fe500c" /><rect width="10" height="10" x="170" y="150" fill="#fe500c" /><rect width="20" height="10" x="180" y="150" fill="#ffffff" /><rect width="20" height="10" x="200" y="150" fill="#000000" /><rect width="10" height="10" x="220" y="150" fill="#fe500c" /><rect width="60" height="10" x="100" y="160" fill="#fe500c" /><rect width="60" height="10" x="170" y="160" fill="#fe500c" /></svg>