<svg viewBox="0 0 320 320" xmlns="http://www.w3.org/2000/svg" shape-rendering="crispEdges"><rect width="100%" height="100%" fill="#d5d7e1" /><rect width="140" height="10" x="90" y="210" fill="#b87b11" /><rect width="140" height="10" x="90" y="220" fill="#b87b11" /><rect width="140" height="10" x="90" y="230" fill="#b87b11" /><rect width="140" height="10" x="90" y="240" fill="#b87b11" /><rect width="20" height="10" x="90" y="250" fill="#b87b11" /><rect width="110" height="10" x="120" y="250" fill="#b87b11" /><rect width="20" height="10" x="90" y="260" fill="#b87b11" /><rect width="110" height="10" x="120" y="260" fill="#b87b11" /><rect width="20" height="10" x="90" y="270" fill="#b87b11" /><rect width="110" height="10" x="120" y="270" fill="#b87b11" /><rect width="20" height="10" x="90" y="280" fill="#b87b11" /><rect width="110" height="10" x="120" y="280" fill="#b87b11" /><rect width="20" height="10" x="90" y="290" fill="#b87b11" /><rect width="110" height="10" x="120" y="290" fill="#b87b11" /><rect width="20" height="10" x="90" y="300" fill="#b87b11" /><rect width="110" height="10" x="120" y="300" fill="#b87b11" /><rect width="20" height="10" x="90" y="310" fill="#b87b11" /><rect width="110" height="10" x="120" y="310" fill="#b87b11" /><rect width="10" height="10" x="200" y="230" fill="#f83001" /><rect width="20" height="10" x="180" y="240" fill="#ffffff" /><rect width="10" height="10" x="160" y="250" fill="#ffffff" /><rect width="10" height="10" x="170" y="250" fill="#f9e8dd" /><rect width="20" height="10" x="180" y="250" fill="#ffffff" /><rect width="10" height="10" x="150" y="260" fill="#ffffff" /><rect width="10" height="10" x="150" y="270" fill="#f9e8dd" /><rect width="30" height="10" x="160" y="270" fill="#ffffff" /><rect width="10" height="10" x="190" y="280" fill="#ffffff" /><rect width="20" height="10" x="140" y="290" fill="#ffffff" /><rect width="10" height="10" x="190" y="290" fill="#f9e8dd" /><rect width="10" height="10" x="160" y="300" fill="#f9e8dd" /><rect width="20" height="10" x="170" y="300" fill="#ffffff" /><rect width="30" height="10" x="80" y="30" fill="#4b4949" /><rect width="50" height="10" x="90" y="40" fill="#4b4949" /><rect width="60" height="10" x="110" y="50" fill="#4b4949" /><rect width="130" height="10" x="90" y="60" fill="#000000" /><rect width="150" height="10" x="80" y="70" fill="#000000" /><rect width="20" height="10" x="80" y="80" fill="#000000" /><rect width="40" height="10" x="100" y="80" fill="#f8ddb0" /><rect width="50" height="10" x="140" y="80" fill="#000000" /><rect width="30" height="10" x="190" y="80" fill="#f8ddb0" /><rect width="10" height="10" x="220" y="80" fill="#000000" /><rect width="20" height="10" x="70" y="90" fill="#000000" /><rect width="140" height="10" x="90" y="90" fill="#f8ddb0" /><rect width="20" height="10" x="70" y="100" fill="#000000" /><rect width="140" height="10" x="90" y="100" fill="#f8ddb0" /><rect width="20" height="10" x="70" y="110" fill="#000000" /><rect width="30" height="10" x="90" y="110" fill="#f8ddb0" /><rect width="30" height="10" x="120" y="110" fill="#000000" /><rect width="40" height="10" x="150" y="110" fill="#f8ddb0" /><rect width="30" height="10" x="190" y="110" fill="#000000" /><rect width="10" height="10" x="220" y="110" fill="#f8ddb0" /><rect width="10" height="10" x="70" y="120" fill="#000000" /><rect width="150" height="10" x="80" y="120" fill="#f8ddb0" /><rect width="50" height="10" x="70" y="130" fill="#f8ddb0" /><rect width="30" height="10" x="120" y="130" fill="#000000" /><rect width="40" height="10" x="150" y="130" fill="#f8ddb0" /><rect width="30" height="10" x="190" y="130" fill="#000000" /><rect width="10" height="10" x="220" y="130" fill="#f8ddb0" /><rect width="60" height="10" x="70" y="140" fill="#f8ddb0" /><rect width="10" height="10" x="130" y="140" fill="#000000" /><rect width="20" height="10" x="140" y="140" fill="#f8ddb0" /><rect width="10" height="10" x="160" y="140" fill="#ae6c0a" /><rect width="20" height="10" x="170" y="140" fill="#f8ddb0" /><rect width="10" height="10" x="190" y="140" fill="#000000" /><rect width="30" height="10" x="200" y="140" fill="#f8ddb0" /><rect width="100" height="10" x="70" y="150" fill="#f8ddb0" /><rect width="10" height="10" x="170" y="150" fill="#ae6c0a" /><rect width="50" height="10" x="180" y="150" fill="#f8ddb0" /><rect width="100" height="10" x="70" y="160" fill="#f8ddb0" /><rect width="10" height="10" x="170" y="160" fill="#ae6c0a" /><rect width="50" height="10" x="180" y="160" fill="#f8ddb0" /><rect width="80" height="10" x="90" y="170" fill="#f8ddb0" /><rect width="10" height="10" x="170" y="170" fill="#ae6c0a" /><rect width="50" height="10" x="180" y="170" fill="#f8ddb0" /><rect width="50" height="10" x="90" y="180" fill="#f8ddb0" /><rect width="20" height="10" x="140" y="180" fill="#ae6c0a" /><rect width="10" height="10" x="160" y="180" fill="#f8ddb0" /><rect width="10" height="10" x="170" y="180" fill="#ae6c0a" /><rect width="10" height="10" x="180" y="180" fill="#f8ddb0" /><rect width="10" height="10" x="190" y="180" fill="#ae6c0a" /><rect width="30" height="10" x="200" y="180" fill="#f8ddb0" /><rect width="40" height="10" x="90" y="190" fill="#f8ddb0" /><rect width="10" height="10" x="130" y="190" fill="#ae6c0a" /><rect width="20" height="10" x="140" y="190" fill="#f8ddb0" /><rect width="20" height="10" x="160" y="190" fill="#ae6c0a" /><rect width="20" height="10" x="180" y="190" fill="#f8ddb0" /><rect width="10" height="10" x="200" y="190" fill="#ae6c0a" /><rect width="20" height="10" x="210" y="190" fill="#f8ddb0" /><rect width="120" height="10" x="100" y="200" fill="#f8ddb0" /><rect width="90" height="10" x="120" y="210" fill="#f8ddb0" /><rect width="60" height="10" x="100" y="110" fill="#5648ed" /><rect width="60" height="10" x="170" y="110" fill="#5648ed" /><rect width="10" height="10" x="100" y="120" fill="#5648ed" /><rect width="20" height="10" x="110" y="120" fill="#ffffff" /><rect width="20" height="10" x="130" y="120" fill="#000000" /><rect width="10" height="10" x="150" y="120" fill="#5648ed" /><rect width="10" height="10" x="170" y="120" fill="#5648ed" /><rect width="20" height="10" x="180" y="120" fill="#ffffff" /><rect width="20" height="10" x="200" y="120" fill="#000000" /><rect width="10" height="10" x="220" y="120" fill="#5648ed" /><rect width="40" height="10" x="70" y="130" fill="#5648ed" /><rect width="20" height="10" x="110" y="130" fill="#ffffff" /><rect width="20" height="10" x="130" y="130" fill="#000000" /><rect width="30" height="10" x="150" y="130" fill="#5648ed" /><rect width="20" height="10" x="180" y="130" fill="#ffffff" /><rect width="20" height="10" x="200" y="130" fill="#000000" /><rect width="10" height="10" x="220" y="130" fill="#5648ed" /><rect width="10" height="10" x="70" y="140" fill="#5648ed" /><rect width="10" height="10" x="100" y="140" fill="#5648ed" /><rect width="20" height="10" x="110" y="140" fill="#ffffff" /><rect width="20" height="10" x="130" y="140" fill="#000000" /><rect width="10" height="10" x="150" y="140" fill="#5648ed" /><rect width="10" height="10" x="170" y="140" fill="#5648ed" /><rect width="20" height="10" x="180" y="140" fill="#ffffff" /><rect width="20" height="10" x="200" y="140" fill="#000000" /><rect width="10" height="10" x="220" y="140" fill="#5648ed" /><rect width="10" height="10" x="70" y="150" fill="#5648ed" /><rect width="10" height="10" x="100" y="150" fill="#5648ed" /><rect width="20" height="10" x="110" y="150" fill="#ffffff" /><rect width="20" height="10" x="130" y="150" fill="#000000" /><rect width="10" height="10" x="150" y="150" fill="#5648ed" /><rect width="10" height="10" x="170" y="150" fill="#5648ed" /><rect width="20" height="10" x="180" y="150" fill="#ffffff" /><rect width="20" height="10" x="200" y="150" fill="#000000" /><rect width="10" height="10" x="220" y="150" fill="#5648ed" /><rect width="60" height="10" x="100" y="160" fill="#5648ed" /><rect width="60" height="10" x="170" y="160" fill="#5648ed" /></svg>