<svg viewBox="0 0 320 320" xmlns="http://www.w3.org/2000/svg" shape-rendering="crispEdges"><rect width="100%" height="100%" fill="#e1d7d5" /><rect width="140" height="10" x="90" y="210" fill="#fe500c" /><rect width="140" height="10" x="90" y="220" fill="#fe500c" /><rect width="140" height="10" x="90" y="230" fill="#fe500c" /><rect width="140" height="10" x="90" y="240" fill="#fe500c" /><rect width="20" height="10" x="90" y="250" fill="#fe500c" /><rect width="110" height="10" x="120" y="250" fill="#fe500c" /><rect width="20" height="10" x="90" y="260" fill="#fe500c" /><rect width="110" height="10" x="120" y="260" fill="#fe500c" /><rect width="20" height="10" x="90" y="270" fill="#fe500c" /><rect width="110" height="10" x="120" y="270" fill="#fe500c" /><rect width="20" height="10" x="90" y="280" fill="#fe500c" /><rect width="110" height="10" x="120" y="280" fill="#fe500c" /><rect width="20" height="10" x="90" y="290" fill="#fe500c" /><rect width="110" height="10" x="120" y="290" fill="#fe500c" /><rect width="20" height="10" x="90" y="300" fill="#fe500c" /><rect width="110" height="10" x="120" y="300" fill="#fe500c" /><rect width="20" height="10" x="90" y="310" fill="#fe500c" /><rect width="110" height="10" x="120" y="310" fill="#fe500c" /><rect width="10" height="10" x="150" y="250" fill="#8dd122" /><rect width="10" height="10" x="160" y="250" fill="#80a72d" /><rect width="10" height="10" x="170" y="250" fill="#8dd122" /><rect width="10" height="10" x="180" y="250" fill="#80a72d" /><rect width="10" height="10" x="150" y="260" fill="#80a72d" /><rect width="20" height="10" x="160" y="260" fill="#8dd122" /><rect width="10" height="10" x="180" y="260" fill="#80a72d" /><rect width="10" height="10" x="140" y="270" fill="#769ca9" /><rect width="10" height="10" x="150" y="270" fill="#235476" /><rect width="10" height="10" x="160" y="270" fill="#769ca9" /><rect width="10" height="10" x="170" y="270" fill="#235476" /><rect width="20" height="10" x="140" y="280" fill="#e2c8c0" /><rect width="10" height="10" x="160" y="280" fill="#7e5243" /><rect width="10" height="10" x="170" y="280" fill="#e2c8c0" /><rect width="10" height="10" x="130" y="40" fill="#d08b11" /><rect width="10" height="10" x="140" y="40" fill="#e7a32c" /><rect width="10" height="10" x="150" y="40" fill="#d08b11" /><rect width="10" height="10" x="160" y="40" fill="#e7a32c" /><rect width="10" height="10" x="170" y="40" fill="#d08b11" /><rect width="10" height="10" x="180" y="40" fill="#e7a32c" /><rect width="10" height="10" x="120" y="50" fill="#d08b11" /><rect width="10" height="10" x="130" y="50" fill="#e7a32c" /><rect width="10" height="10" x="140" y="50" fill="#d08b11" /><rect width="10" height="10" x="150" y="50" fill="#e7a32c" /><rect width="10" height="10" x="160" y="50" fill="#d08b11" /><rect width="10" height="10" x="170" y="50" fill="#e7a32c" /><rect width="10" height="10" x="180" y="50" fill="#d08b11" /><rect width="10" height="10" x="190" y="50" fill="#e7a32c" /><rect width="10" height="10" x="100" y="60" fill="#e7a32c" /><rect width="10" height="10" x="110" y="60" fill="#d08b11" /><rect width="10" height="10" x="120" y="60" fill="#e7a32c" /><rect width="10" height="10" x="130" y="60" fill="#d08b11" /><rect width="10" height="10" x="140" y="60" fill="#e7a32c" /><rect width="10" height="10" x="150" y="60" fill="#d08b11" /><rect width="10" height="10" x="160" y="60" fill="#e7a32c" /><rect width="10" height="10" x="170" y="60" fill="#d08b11" /><rect width="10" height="10" x="180" y="60" fill="#e7a32c" /><rect width="10" height="10" x="190" y="60" fill="#d08b11" /><rect width="10" height="10" x="200" y="60" fill="#e7a32c" /><rect width="10" height="10" x="210" y="60" fill="#d08b11" /><rect width="10" height="10" x="90" y="70" fill="#e7a32c" /><rect width="10" height="10" x="100" y="70" fill="#d08b11" /><rect width="10" height="10" x="110" y="70" fill="#e7a32c" /><rect width="10" height="10" x="120" y="70" fill="#d08b11" /><rect width="10" height="10" x="130" y="70" fill="#e7a32c" /><rect width="10" height="10" x="140" y="70" fill="#d08b11" /><rect width="10" height="10" x="150" y="70" fill="#e7a32c" /><rect width="10" height="10" x="160" y="70" fill="#d08b11" /><rect width="10" height="10" x="170" y="70" fill="#e7a32c" /><rect width="10" height="10" x="180" y="70" fill="#d08b11" /><rect width="10" height="10" x="190" y="70" fill="#e7a32c" /><rect width="10" height="10" x="200" y="70" fill="#d08b11" /><rect width="10" height="10" x="210" y="70" fill="#e7a32c" /><rect width="10" height="10" x="220" y="70" fill="#d08b11" /><rect width="10" height="10" x="90" y="80" fill="#d08b11" /><rect width="10" height="10" x="100" y="80" fill="#e7a32c" /><rect width="10" height="10" x="110" y="80" fill="#d08b11" /><rect width="10" height="10" x="120" y="80" fill="#e7a32c" /><rect width="70" height="10" x="130" y="80" fill="#b87b11" /><rect width="10" height="10" x="200" y="80" fill="#e7a32c" /><rect width="10" height="10" x="210" y="80" fill="#d08b11" /><rect width="10" height="10" x="220" y="80" fill="#e7a32c" /><rect width="10" height="10" x="90" y="90" fill="#e7a32c" /><rect width="60" height="10" x="100" y="90" fill="#b87b11" /><rect width="10" height="10" x="160" y="90" fill="#ffc110" /><rect width="60" height="10" x="170" y="90" fill="#b87b11" /><rect width="10" height="10" x="90" y="100" fill="#b87b11" /><rect width="50" height="10" x="100" y="100" fill="#e7a32c" /><rect width="30" height="10" x="150" y="100" fill="#b87b11" /><rect width="50" height="10" x="180" y="100" fill="#e7a32c" /><rect width="10" height="10" x="90" y="110" fill="#e7a32c" /><rect width="130" height="10" x="100" y="110" fill="#b87b11" /><rect width="80" height="10" x="80" y="120" fill="#b87b11" /><rect width="10" height="10" x="160" y="120" fill="#e7a32c" /><rect width="60" height="10" x="170" y="120" fill="#b87b11" /><rect width="150" height="10" x="80" y="130" fill="#b87b11" /><rect width="80" height="10" x="80" y="140" fill="#b87b11" /><rect width="10" height="10" x="160" y="140" fill="#e7a32c" /><rect width="60" height="10" x="170" y="140" fill="#b87b11" /><rect width="10" height="10" x="80" y="150" fill="#e7a32c" /><rect width="70" height="10" x="90" y="150" fill="#b87b11" /><rect width="10" height="10" x="160" y="150" fill="#e7a32c" /><rect width="60" height="10" x="170" y="150" fill="#b87b11" /><rect width="10" height="10" x="80" y="160" fill="#e7a32c" /><rect width="70" height="10" x="90" y="160" fill="#b87b11" /><rect width="10" height="10" x="160" y="160" fill="#e7a32c" /><rect width="60" height="10" x="170" y="160" fill="#b87b11" /><rect width="10" height="10" x="80" y="170" fill="#e7a32c" /><rect width="60" height="10" x="90" y="170" fill="#b87b11" /><rect width="30" height="10" x="150" y="170" fill="#e7a32c" /><rect width="50" height="10" x="180" y="170" fill="#b87b11" /><rect width="10" height="10" x="80" y="180" fill="#e7a32c" /><rect width="140" height="10" x="90" y="180" fill="#b87b11" /><rect width="10" height="10" x="80" y="190" fill="#e7a32c" /><rect width="60" height="10" x="90" y="190" fill="#b87b11" /><rect width="30" height="10" x="150" y="190" fill="#e7a32c" /><rect width="50" height="10" x="180" y="190" fill="#b87b11" /><rect width="10" height="10" x="80" y="200" fill="#e7a32c" /><rect width="140" height="10" x="90" y="200" fill="#b87b11" /><rect width="10" height="10" x="80" y="210" fill="#e7a32c" /><rect width="60" height="10" x="100" y="110" fill="#000000" /><rect width="60" height="10" x="170" y="110" fill="#000000" /><rect width="10" height="10" x="100" y="120" fill="#000000" /><rect width="20" height="10" x="110" y="120" fill="#ffffff" /><rect width="20" height="10" x="130" y="120" fill="#ff0e0e" /><rect width="10" height="10" x="150" y="120" fill="#000000" /><rect width="10" height="10" x="170" y="120" fill="#000000" /><rect width="20" height="10" x="180" y="120" fill="#ffffff" /><rect width="20" height="10" x="200" y="120" fill="#ff0e0e" /><rect width="10" height="10" x="220" y="120" fill="#000000" /><rect width="40" height="10" x="70" y="130" fill="#000000" /><rect width="20" height="10" x="110" y="130" fill="#ffffff" /><rect width="20" height="10" x="130" y="130" fill="#ff0e0e" /><rect width="30" height="10" x="150" y="130" fill="#000000" /><rect width="20" height="10" x="180" y="130" fill="#ffffff" /><rect width="20" height="10" x="200" y="130" fill="#ff0e0e" /><rect width="10" height="10" x="220" y="130" fill="#000000" /><rect width="10" height="10" x="70" y="140" fill="#000000" /><rect width="10" height="10" x="100" y="140" fill="#000000" /><rect width="20" height="10" x="110" y="140" fill="#ffffff" /><rect width="20" height="10" x="130" y="140" fill="#ff0e0e" /><rect width="10" height="10" x="150" y="140" fill="#000000" /><rect width="10" height="10" x="170" y="140" fill="#000000" /><rect width="20" height="10" x="180" y="140" fill="#ffffff" /><rect width="20" height="10" x="200" y="140" fill="#ff0e0e" /><rect width="10" height="10" x="220" y="140" fill="#000000" /><rect width="10" height="10" x="70" y="150" fill="#000000" /><rect width="10" height="10" x="100" y="150" fill="#000000" /><rect width="20" height="10" x="110" y="150" fill="#ffffff" /><rect width="20" height="10" x="130" y="150" fill="#ff0e0e" /><rect width="10" height="10" x="150" y="150" fill="#000000" /><rect width="10" height="10" x="170" y="150" fill="#000000" /><rect width="20" height="10" x="180" y="150" fill="#ffffff" /><rect width="20" height="10" x="200" y="150" fill="#ff0e0e" /><rect width="10" height="10" x="220" y="150" fill="#000000" /><rect width="60" height="10" x="100" y="160" fill="#000000" /><rect width="60" height="10" x="170" y="160" fill="#000000" /></svg>