<svg viewBox="0 0 320 320" xmlns="http://www.w3.org/2000/svg" shape-rendering="crispEdges"><rect width="100%" height="100%" fill="#e1d7d5" /><rect width="140" height="10" x="90" y="210" fill="#f98f30" /><rect width="140" height="10" x="90" y="220" fill="#f98f30" /><rect width="140" height="10" x="90" y="230" fill="#f98f30" /><rect width="140" height="10" x="90" y="240" fill="#f98f30" /><rect width="20" height="10" x="90" y="250" fill="#f98f30" /><rect width="110" height="10" x="120" y="250" fill="#f98f30" /><rect width="20" height="10" x="90" y="260" fill="#f98f30" /><rect width="110" height="10" x="120" y="260" fill="#f98f30" /><rect width="20" height="10" x="90" y="270" fill="#f98f30" /><rect width="110" height="10" x="120" y="270" fill="#f98f30" /><rect width="20" height="10" x="90" y="280" fill="#f98f30" /><rect width="110" height="10" x="120" y="280" fill="#f98f30" /><rect width="20" height="10" x="90" y="290" fill="#f98f30" /><rect width="110" height="10" x="120" y="290" fill="#f98f30" /><rect width="20" height="10" x="90" y="300" fill="#f98f30" /><rect width="110" height="10" x="120" y="300" fill="#f98f30" /><rect width="20" height="10" x="90" y="310" fill="#f98f30" /><rect width="110" height="10" x="120" y="310" fill="#f98f30" /><rect width="10" height="10" x="180" y="210" fill="#fff006" /><rect width="10" height="10" x="200" y="210" fill="#fff006" /><rect width="10" height="10" x="150" y="220" fill="#fffdf4" /><rect width="10" height="10" x="160" y="220" fill="#fff006" /><rect width="10" height="10" x="190" y="220" fill="#fffdf4" /><rect width="10" height="10" x="210" y="220" fill="#fffdf4" /><rect width="10" height="10" x="170" y="230" fill="#fff006" /><rect width="10" height="10" x="190" y="230" fill="#fff006" /><rect width="10" height="10" x="220" y="230" fill="#fff006" /><rect width="10" height="10" x="140" y="240" fill="#fffdf4" /><rect width="10" height="10" x="150" y="240" fill="#fff006" /><rect width="10" height="10" x="210" y="240" fill="#fff006" /><rect width="10" height="10" x="160" y="250" fill="#fff006" /><rect width="10" height="10" x="180" y="250" fill="#fffdf4" /><rect width="10" height="10" x="190" y="250" fill="#fff006" /><rect width="10" height="10" x="220" y="250" fill="#fffdf4" /><rect width="10" height="10" x="130" y="260" fill="#254efb" /><rect width="10" height="10" x="170" y="260" fill="#fff006" /><rect width="10" height="10" x="200" y="260" fill="#fffdf4" /><rect width="10" height="10" x="220" y="260" fill="#fff006" /><rect width="10" height="10" x="120" y="270" fill="#254efb" /><rect width="10" height="10" x="140" y="270" fill="#254efb" /><rect width="10" height="10" x="150" y="270" fill="#fff006" /><rect width="10" height="10" x="190" y="270" fill="#fff006" /><rect width="10" height="10" x="130" y="280" fill="#254efb" /><rect width="10" height="10" x="150" y="280" fill="#fffdf4" /><rect width="10" height="10" x="170" y="280" fill="#fff006" /><rect width="10" height="10" x="200" y="280" fill="#fff006" /><rect width="10" height="10" x="160" y="290" fill="#254efb" /><rect width="10" height="10" x="180" y="290" fill="#fffdf4" /><rect width="10" height="10" x="210" y="290" fill="#fffdf4" /><rect width="10" height="10" x="150" y="300" fill="#254efb" /><rect width="10" height="10" x="170" y="300" fill="#254efb" /><rect width="10" height="10" x="160" y="310" fill="#254efb" /><rect width="10" height="10" x="190" y="30" fill="#db8323" /><rect width="20" height="10" x="180" y="40" fill="#db8323" /><rect width="10" height="10" x="200" y="40" fill="#ffffff" /><rect width="30" height="10" x="180" y="50" fill="#db8323" /><rect width="20" height="10" x="210" y="50" fill="#ffffff" /><rect width="40" height="10" x="170" y="60" fill="#db8323" /><rect width="10" height="10" x="210" y="60" fill="#ffffff" /><rect width="10" height="10" x="220" y="60" fill="#000000" /><rect width="20" height="10" x="230" y="60" fill="#ffffff" /><rect width="10" height="10" x="250" y="60" fill="#6f597a" /><rect width="40" height="10" x="160" y="70" fill="#db8323" /><rect width="60" height="10" x="200" y="70" fill="#ffffff" /><rect width="60" height="10" x="140" y="80" fill="#db8323" /><rect width="30" height="10" x="200" y="80" fill="#ffffff" /><rect width="20" height="10" x="230" y="80" fill="#feb9d5" /><rect width="70" height="10" x="130" y="90" fill="#db8323" /><rect width="50" height="10" x="200" y="90" fill="#ffffff" /><rect width="10" height="10" x="250" y="90" fill="#feb9d5" /><rect width="90" height="10" x="120" y="100" fill="#db8323" /><rect width="20" height="10" x="210" y="100" fill="#ffffff" /><rect width="110" height="10" x="110" y="110" fill="#db8323" /><rect width="10" height="10" x="220" y="110" fill="#ffffff" /><rect width="40" height="10" x="40" y="120" fill="#ffffff" /><rect width="110" height="10" x="110" y="120" fill="#db8323" /><rect width="10" height="10" x="220" y="120" fill="#ffffff" /><rect width="20" height="10" x="30" y="130" fill="#ffffff" /><rect width="30" height="10" x="50" y="130" fill="#db8323" /><rect width="10" height="10" x="80" y="130" fill="#ffffff" /><rect width="110" height="10" x="100" y="130" fill="#db8323" /><rect width="20" height="10" x="210" y="130" fill="#ffffff" /><rect width="20" height="10" x="20" y="140" fill="#ffffff" /><rect width="130" height="10" x="40" y="140" fill="#db8323" /><rect width="10" height="10" x="170" y="140" fill="#ffffff" /><rect width="30" height="10" x="180" y="140" fill="#db8323" /><rect width="10" height="10" x="210" y="140" fill="#ffffff" /><rect width="20" height="10" x="20" y="150" fill="#ffffff" /><rect width="20" height="10" x="40" y="150" fill="#db8323" /><rect width="80" height="10" x="80" y="150" fill="#db8323" /><rect width="30" height="10" x="160" y="150" fill="#ffffff" /><rect width="20" height="10" x="190" y="150" fill="#db8323" /><rect width="10" height="10" x="210" y="150" fill="#ffffff" /><rect width="20" height="10" x="20" y="160" fill="#ffffff" /><rect width="30" height="10" x="40" y="160" fill="#db8323" /><rect width="70" height="10" x="80" y="160" fill="#db8323" /><rect width="20" height="10" x="150" y="160" fill="#ffffff" /><rect width="10" height="10" x="180" y="160" fill="#ffffff" /><rect width="20" height="10" x="190" y="160" fill="#db8323" /><rect width="20" height="10" x="20" y="170" fill="#ffffff" /><rect width="110" height="10" x="40" y="170" fill="#db8323" /><rect width="20" height="10" x="150" y="170" fill="#ffffff" /><rect width="10" height="10" x="180" y="170" fill="#ffffff" /><rect width="20" height="10" x="190" y="170" fill="#db8323" /><rect width="20" height="10" x="30" y="180" fill="#ffffff" /><rect width="30" height="10" x="50" y="180" fill="#db8323" /><rect width="10" height="10" x="80" y="180" fill="#ffffff" /><rect width="50" height="10" x="90" y="180" fill="#db8323" /><rect width="20" height="10" x="140" y="180" fill="#ffffff" /><rect width="10" height="10" x="180" y="180" fill="#ffffff" /><rect width="20" height="10" x="190" y="180" fill="#db8323" /><rect width="40" height="10" x="40" y="190" fill="#ffffff" /><rect width="10" height="10" x="90" y="190" fill="#ffffff" /><rect width="40" height="10" x="100" y="190" fill="#db8323" /><rect width="10" height="10" x="140" y="190" fill="#ffffff" /><rect width="20" height="10" x="180" y="190" fill="#ffffff" /><rect width="10" height="10" x="200" y="190" fill="#db8323" /><rect width="30" height="10" x="100" y="200" fill="#db8323" /><rect width="30" height="10" x="130" y="200" fill="#ffffff" /><rect width="30" height="10" x="190" y="200" fill="#ffffff" /><rect width="60" height="10" x="100" y="110" fill="#d19a54" /><rect width="60" height="10" x="170" y="110" fill="#d19a54" /><rect width="10" height="10" x="100" y="120" fill="#d19a54" /><rect width="20" height="10" x="110" y="120" fill="#ffffff" /><rect width="20" height="10" x="130" y="120" fill="#000000" /><rect width="10" height="10" x="150" y="120" fill="#d19a54" /><rect width="10" height="10" x="170" y="120" fill="#d19a54" /><rect width="20" height="10" x="180" y="120" fill="#ffffff" /><rect width="20" height="10" x="200" y="120" fill="#000000" /><rect width="10" height="10" x="220" y="120" fill="#d19a54" /><rect width="40" height="10" x="70" y="130" fill="#d19a54" /><rect width="20" height="10" x="110" y="130" fill="#ffffff" /><rect width="20" height="10" x="130" y="130" fill="#000000" /><rect width="30" height="10" x="150" y="130" fill="#d19a54" /><rect width="20" height="10" x="180" y="130" fill="#ffffff" /><rect width="20" height="10" x="200" y="130" fill="#000000" /><rect width="10" height="10" x="220" y="130" fill="#d19a54" /><rect width="10" height="10" x="70" y="140" fill="#d19a54" /><rect width="10" height="10" x="100" y="140" fill="#d19a54" /><rect width="20" height="10" x="110" y="140" fill="#ffffff" /><rect width="20" height="10" x="130" y="140" fill="#000000" /><rect width="10" height="10" x="150" y="140" fill="#d19a54" /><rect width="10" height="10" x="170" y="140" fill="#d19a54" /><rect width="20" height="10" x="180" y="140" fill="#ffffff" /><rect width="20" height="10" x="200" y="140" fill="#000000" /><rect width="10" height="10" x="220" y="140" fill="#d19a54" /><rect width="10" height="10" x="70" y="150" fill="#d19a54" /><rect width="10" height="10" x="100" y="150" fill="#d19a54" /><rect width="20" height="10" x="110" y="150" fill="#ffffff" /><rect width="20" height="10" x="130" y="150" fill="#000000" /><rect width="10" height="10" x="150" y="150" fill="#d19a54" /><rect width="10" height="10" x="170" y="150" fill="#d19a54" /><rect width="20" height="10" x="180" y="150" fill="#ffffff" /><rect width="20" height="10" x="200" y="150" fill="#000000" /><rect width="10" height="10" x="220" y="150" fill="#d19a54" /><rect width="60" height="10" x="100" y="160" fill="#d19a54" /><rect width="60" height="10" x="170" y="160" fill="#d19a54" /></svg>