<svg viewBox="0 0 320 320" xmlns="http://www.w3.org/2000/svg" shape-rendering="crispEdges"><rect width="100%" height="100%" fill="#e1d7d5" /><rect width="140" height="10" x="90" y="210" fill="#fffdf2" /><rect width="140" height="10" x="90" y="220" fill="#fffdf2" /><rect width="140" height="10" x="90" y="230" fill="#fffdf2" /><rect width="140" height="10" x="90" y="240" fill="#fffdf2" /><rect width="20" height="10" x="90" y="250" fill="#fffdf2" /><rect width="110" height="10" x="120" y="250" fill="#fffdf2" /><rect width="20" height="10" x="90" y="260" fill="#fffdf2" /><rect width="110" height="10" x="120" y="260" fill="#fffdf2" /><rect width="20" height="10" x="90" y="270" fill="#fffdf2" /><rect width="110" height="10" x="120" y="270" fill="#fffdf2" /><rect width="20" height="10" x="90" y="280" fill="#fffdf2" /><rect width="110" height="10" x="120" y="280" fill="#fffdf2" /><rect width="20" height="10" x="90" y="290" fill="#fffdf2" /><rect width="110" height="10" x="120" y="290" fill="#fffdf2" /><rect width="20" height="10" x="90" y="300" fill="#fffdf2" /><rect width="110" height="10" x="120" y="300" fill="#fffdf2" /><rect width="20" height="10" x="90" y="310" fill="#fffdf2" /><rect width="110" height="10" x="120" y="310" fill="#fffdf2" /><rect width="20" height="10" x="90" y="250" fill="#f83001" /><rect width="10" height="10" x="120" y="250" fill="#ff82ad" /><rect width="20" height="10" x="130" y="250" fill="#f83001" /><rect width="20" height="10" x="160" y="250" fill="#ff82ad" /><rect width="10" height="10" x="180" y="250" fill="#f83001" /><rect width="10" height="10" x="200" y="250" fill="#ff82ad" /><rect width="10" height="10" x="210" y="250" fill="#f83001" /><rect width="10" height="10" x="220" y="250" fill="#ff82ad" /><rect width="20" height="10" x="90" y="260" fill="#ff82ad" /><rect width="30" height="10" x="120" y="260" fill="#ff82ad" /><rect width="10" height="10" x="160" y="260" fill="#ff82ad" /><rect width="10" height="10" x="170" y="260" fill="#f83001" /><rect width="10" height="10" x="180" y="260" fill="#ff82ad" /><rect width="30" height="10" x="200" y="260" fill="#ff82ad" /><rect width="20" height="10" x="90" y="270" fill="#f83001" /><rect width="20" height="10" x="120" y="270" fill="#ff82ad" /><rect width="10" height="10" x="140" y="270" fill="#f83001" /><rect width="30" height="10" x="160" y="270" fill="#ff82ad" /><rect width="20" height="10" x="200" y="270" fill="#ff82ad" /><rect width="10" height="10" x="220" y="270" fill="#f83001" /><rect width="10" height="10" x="160" y="30" fill="#5a6b7b" /><rect width="10" height="10" x="120" y="40" fill="#5a6b7b" /><rect width="10" height="10" x="160" y="40" fill="#5a6b7b" /><rect width="10" height="10" x="200" y="40" fill="#5a6b7b" /><rect width="10" height="10" x="90" y="50" fill="#5a6b7b" /><rect width="10" height="10" x="120" y="50" fill="#5a6b7b" /><rect width="70" height="10" x="130" y="50" fill="#505a5c" /><rect width="10" height="10" x="200" y="50" fill="#5a6b7b" /><rect width="10" height="10" x="220" y="50" fill="#5a6b7b" /><rect width="10" height="10" x="90" y="60" fill="#5a6b7b" /><rect width="90" height="10" x="120" y="60" fill="#505a5c" /><rect width="10" height="10" x="220" y="60" fill="#5a6b7b" /><rect width="20" height="10" x="90" y="70" fill="#5d6061" /><rect width="110" height="10" x="110" y="70" fill="#505a5c" /><rect width="20" height="10" x="220" y="70" fill="#5d6061" /><rect width="40" height="10" x="80" y="80" fill="#5d6061" /><rect width="20" height="10" x="120" y="80" fill="#505a5c" /><rect width="10" height="10" x="140" y="80" fill="#caeff9" /><rect width="10" height="10" x="150" y="80" fill="#535a15" /><rect width="10" height="10" x="160" y="80" fill="#ffffff" /><rect width="10" height="10" x="170" y="80" fill="#505a5c" /><rect width="10" height="10" x="180" y="80" fill="#caeff9" /><rect width="20" height="10" x="190" y="80" fill="#505a5c" /><rect width="40" height="10" x="210" y="80" fill="#5d6061" /><rect width="10" height="10" x="80" y="90" fill="#49b38b" /><rect width="10" height="10" x="90" y="90" fill="#f5fcff" /><rect width="10" height="10" x="100" y="90" fill="#caeff9" /><rect width="10" height="10" x="110" y="90" fill="#49b38b" /><rect width="30" height="10" x="120" y="90" fill="#505a5c" /><rect width="10" height="10" x="150" y="90" fill="#49b38b" /><rect width="10" height="10" x="160" y="90" fill="#27a463" /><rect width="10" height="10" x="170" y="90" fill="#49b38b" /><rect width="30" height="10" x="180" y="90" fill="#505a5c" /><rect width="10" height="10" x="210" y="90" fill="#49b38b" /><rect width="10" height="10" x="220" y="90" fill="#f5fcff" /><rect width="10" height="10" x="230" y="90" fill="#caeff9" /><rect width="10" height="10" x="240" y="90" fill="#49b38b" /><rect width="90" height="10" x="70" y="100" fill="#27a463" /><rect width="10" height="10" x="160" y="100" fill="#fff0be" /><rect width="90" height="10" x="170" y="100" fill="#27a463" /><rect width="10" height="10" x="80" y="110" fill="#fffdf4" /><rect width="20" height="10" x="90" y="110" fill="#fff0be" /><rect width="10" height="10" x="110" y="110" fill="#fffdf4" /><rect width="20" height="10" x="120" y="110" fill="#fff0be" /><rect width="10" height="10" x="140" y="110" fill="#f9f6d1" /><rect width="30" height="10" x="150" y="110" fill="#fff0be" /><rect width="10" height="10" x="180" y="110" fill="#f9f6d1" /><rect width="20" height="10" x="190" y="110" fill="#fff0be" /><rect width="10" height="10" x="210" y="110" fill="#fffdf4" /><rect width="20" height="10" x="220" y="110" fill="#fff0be" /><rect width="10" height="10" x="240" y="110" fill="#fffdf4" /><rect width="30" height="10" x="50" y="120" fill="#505a5c" /><rect width="10" height="10" x="80" y="120" fill="#fffdf4" /><rect width="10" height="10" x="90" y="120" fill="#fff0be" /><rect width="10" height="10" x="100" y="120" fill="#f5fcff" /><rect width="10" height="10" x="110" y="120" fill="#fffdf4" /><rect width="20" height="10" x="120" y="120" fill="#f5fcff" /><rect width="10" height="10" x="140" y="120" fill="#f9f6d1" /><rect width="30" height="10" x="150" y="120" fill="#f5fcff" /><rect width="10" height="10" x="180" y="120" fill="#f9f6d1" /><rect width="20" height="10" x="190" y="120" fill="#f5fcff" /><rect width="10" height="10" x="210" y="120" fill="#fffdf4" /><rect width="10" height="10" x="220" y="120" fill="#fff0be" /><rect width="10" height="10" x="230" y="120" fill="#f5fcff" /><rect width="10" height="10" x="240" y="120" fill="#fffdf4" /><rect width="30" height="10" x="250" y="120" fill="#505a5c" /><rect width="40" height="10" x="40" y="130" fill="#505a5c" /><rect width="10" height="10" x="80" y="130" fill="#fffdf4" /><rect width="10" height="10" x="90" y="130" fill="#fff0be" /><rect width="10" height="10" x="100" y="130" fill="#f5fcff" /><rect width="10" height="10" x="110" y="130" fill="#fffdf4" /><rect width="10" height="10" x="120" y="130" fill="#f5fcff" /><rect width="10" height="10" x="130" y="130" fill="#caeff9" /><rect width="10" height="10" x="140" y="130" fill="#f9f6d1" /><rect width="10" height="10" x="150" y="130" fill="#f5fcff" /><rect width="10" height="10" x="160" y="130" fill="#caeff9" /><rect width="10" height="10" x="170" y="130" fill="#f5fcff" /><rect width="10" height="10" x="180" y="130" fill="#f9f6d1" /><rect width="10" height="10" x="190" y="130" fill="#f5fcff" /><rect width="10" height="10" x="200" y="130" fill="#caeff9" /><rect width="10" height="10" x="210" y="130" fill="#fffdf4" /><rect width="10" height="10" x="220" y="130" fill="#fff0be" /><rect width="10" height="10" x="230" y="130" fill="#caeff9" /><rect width="10" height="10" x="240" y="130" fill="#fffdf4" /><rect width="40" height="10" x="250" y="130" fill="#505a5c" /><rect width="40" height="10" x="40" y="140" fill="#505a5c" /><rect width="10" height="10" x="80" y="140" fill="#fffdf4" /><rect width="10" height="10" x="90" y="140" fill="#fff0be" /><rect width="10" height="10" x="100" y="140" fill="#caeff9" /><rect width="10" height="10" x="110" y="140" fill="#fffdf4" /><rect width="20" height="10" x="120" y="140" fill="#caeff9" /><rect width="10" height="10" x="140" y="140" fill="#f9f6d1" /><rect width="10" height="10" x="150" y="140" fill="#f5fcff" /><rect width="20" height="10" x="160" y="140" fill="#caeff9" /><rect width="10" height="10" x="180" y="140" fill="#f9f6d1" /><rect width="20" height="10" x="190" y="140" fill="#caeff9" /><rect width="10" height="10" x="210" y="140" fill="#fffdf4" /><rect width="10" height="10" x="220" y="140" fill="#fff0be" /><rect width="10" height="10" x="230" y="140" fill="#caeff9" /><rect width="10" height="10" x="240" y="140" fill="#fffdf4" /><rect width="40" height="10" x="250" y="140" fill="#505a5c" /><rect width="50" height="10" x="30" y="150" fill="#505a5c" /><rect width="10" height="10" x="80" y="150" fill="#fffdf4" /><rect width="20" height="10" x="90" y="150" fill="#d56333" /><rect width="10" height="10" x="110" y="150" fill="#fffdf4" /><rect width="90" height="10" x="120" y="150" fill="#d56333" /><rect width="10" height="10" x="210" y="150" fill="#fffdf4" /><rect width="20" height="10" x="220" y="150" fill="#d56333" /><rect width="10" height="10" x="240" y="150" fill="#fffdf4" /><rect width="50" height="10" x="250" y="150" fill="#505a5c" /><rect width="10" height="10" x="30" y="160" fill="#f5fcff" /><rect width="10" height="10" x="40" y="160" fill="#caeff9" /><rect width="10" height="10" x="50" y="160" fill="#d56333" /><rect width="10" height="10" x="60" y="160" fill="#f5fcff" /><rect width="10" height="10" x="70" y="160" fill="#caeff9" /><rect width="10" height="10" x="80" y="160" fill="#fffdf4" /><rect width="20" height="10" x="90" y="160" fill="#fff0be" /><rect width="10" height="10" x="110" y="160" fill="#fffdf4" /><rect width="20" height="10" x="120" y="160" fill="#fff0be" /><rect width="10" height="10" x="140" y="160" fill="#f9f6d1" /><rect width="30" height="10" x="150" y="160" fill="#fff0be" /><rect width="10" height="10" x="180" y="160" fill="#f9f6d1" /><rect width="20" height="10" x="190" y="160" fill="#fff0be" /><rect width="10" height="10" x="210" y="160" fill="#fffdf4" /><rect width="20" height="10" x="220" y="160" fill="#fff0be" /><rect width="10" height="10" x="240" y="160" fill="#fffdf4" /><rect width="10" height="10" x="250" y="160" fill="#f5fcff" /><rect width="10" height="10" x="260" y="160" fill="#caeff9" /><rect width="10" height="10" x="270" y="160" fill="#d56333" /><rect width="10" height="10" x="280" y="160" fill="#f5fcff" /><rect width="10" height="10" x="290" y="160" fill="#caeff9" /><rect width="50" height="10" x="30" y="170" fill="#505a5c" /><rect width="10" height="10" x="80" y="170" fill="#fffdf4" /><rect width="10" height="10" x="90" y="170" fill="#fff0be" /><rect width="10" height="10" x="100" y="170" fill="#f5fcff" /><rect width="10" height="10" x="110" y="170" fill="#fffdf4" /><rect width="10" height="10" x="120" y="170" fill="#cfc2ab" /><rect width="30" height="10" x="130" y="170" fill="#adc8cc" /><rect width="10" height="10" x="160" y="170" fill="#ffe939" /><rect width="30" height="10" x="170" y="170" fill="#adc8cc" /><rect width="10" height="10" x="200" y="170" fill="#cfc2ab" /><rect width="10" height="10" x="210" y="170" fill="#fffdf4" /><rect width="10" height="10" x="220" y="170" fill="#fff0be" /><rect width="10" height="10" x="230" y="170" fill="#f5fcff" /><rect width="10" height="10" x="240" y="170" fill="#fffdf4" /><rect width="50" height="10" x="250" y="170" fill="#505a5c" /><rect width="10" height="10" x="30" y="180" fill="#fff0be" /><rect width="10" height="10" x="40" y="180" fill="#f5fcff" /><rect width="10" height="10" x="50" y="180" fill="#caeff9" /><rect width="10" height="10" x="60" y="180" fill="#fff0be" /><rect width="10" height="10" x="70" y="180" fill="#f5fcff" /><rect width="10" height="10" x="80" y="180" fill="#fffdf4" /><rect width="10" height="10" x="90" y="180" fill="#fff0be" /><rect width="10" height="10" x="100" y="180" fill="#caeff9" /><rect width="10" height="10" x="110" y="180" fill="#fffdf4" /><rect width="10" height="10" x="120" y="180" fill="#ffe939" /><rect width="10" height="10" x="130" y="180" fill="#7e5243" /><rect width="10" height="10" x="140" y="180" fill="#ffc925" /><rect width="30" height="10" x="150" y="180" fill="#7e5243" /><rect width="10" height="10" x="180" y="180" fill="#ffc925" /><rect width="10" height="10" x="190" y="180" fill="#7e5243" /><rect width="10" height="10" x="200" y="180" fill="#ffe939" /><rect width="10" height="10" x="210" y="180" fill="#fffdf4" /><rect width="10" height="10" x="220" y="180" fill="#fff0be" /><rect width="10" height="10" x="230" y="180" fill="#caeff9" /><rect width="10" height="10" x="240" y="180" fill="#fffdf4" /><rect width="10" height="10" x="250" y="180" fill="#f5fcff" /><rect width="10" height="10" x="260" y="180" fill="#fff0be" /><rect width="10" height="10" x="270" y="180" fill="#f5fcff" /><rect width="10" height="10" x="280" y="180" fill="#caeff9" /><rect width="10" height="10" x="290" y="180" fill="#fff0be" /><rect width="10" height="10" x="30" y="190" fill="#fff0be" /><rect width="20" height="10" x="40" y="190" fill="#caeff9" /><rect width="10" height="10" x="60" y="190" fill="#fff0be" /><rect width="10" height="10" x="70" y="190" fill="#caeff9" /><rect width="10" height="10" x="80" y="190" fill="#fffdf4" /><rect width="10" height="10" x="90" y="190" fill="#fff0be" /><rect width="10" height="10" x="100" y="190" fill="#caeff9" /><rect width="10" height="10" x="110" y="190" fill="#fffdf4" /><rect width="10" height="10" x="120" y="190" fill="#cfc2ab" /><rect width="10" height="10" x="130" y="190" fill="#ffc925" /><rect width="10" height="10" x="140" y="190" fill="#7e5243" /><rect width="30" height="10" x="150" y="190" fill="#ffc925" /><rect width="10" height="10" x="180" y="190" fill="#7e5243" /><rect width="10" height="10" x="190" y="190" fill="#ffc925" /><rect width="10" height="10" x="200" y="190" fill="#cfc2ab" /><rect width="10" height="10" x="210" y="190" fill="#fffdf4" /><rect width="10" height="10" x="220" y="190" fill="#fff0be" /><rect width="10" height="10" x="230" y="190" fill="#caeff9" /><rect width="10" height="10" x="240" y="190" fill="#fffdf4" /><rect width="10" height="10" x="250" y="190" fill="#caeff9" /><rect width="10" height="10" x="260" y="190" fill="#fff0be" /><rect width="20" height="10" x="270" y="190" fill="#caeff9" /><rect width="10" height="10" x="290" y="190" fill="#fff0be" /><rect width="50" height="10" x="30" y="200" fill="#fff0be" /><rect width="10" height="10" x="80" y="200" fill="#eff2fa" /><rect width="20" height="10" x="90" y="200" fill="#fff0be" /><rect width="10" height="10" x="110" y="200" fill="#eff2fa" /><rect width="10" height="10" x="120" y="200" fill="#cfc2ab" /><rect width="10" height="10" x="130" y="200" fill="#7e5243" /><rect width="10" height="10" x="140" y="200" fill="#ffc925" /><rect width="30" height="10" x="150" y="200" fill="#7e5243" /><rect width="10" height="10" x="180" y="200" fill="#ffc925" /><rect width="10" height="10" x="190" y="200" fill="#7e5243" /><rect width="10" height="10" x="200" y="200" fill="#cfc2ab" /><rect width="10" height="10" x="210" y="200" fill="#eff2fa" /><rect width="20" height="10" x="220" y="200" fill="#fff0be" /><rect width="10" height="10" x="240" y="200" fill="#eff2fa" /><rect width="50" height="10" x="250" y="200" fill="#fff0be" /><rect width="60" height="10" x="100" y="110" fill="#000000" /><rect width="60" height="10" x="170" y="110" fill="#000000" /><rect width="10" height="10" x="100" y="120" fill="#000000" /><rect width="20" height="10" x="110" y="120" fill="#ffffff" /><rect width="20" height="10" x="130" y="120" fill="#ff0e0e" /><rect width="10" height="10" x="150" y="120" fill="#000000" /><rect width="10" height="10" x="170" y="120" fill="#000000" /><rect width="20" height="10" x="180" y="120" fill="#ffffff" /><rect width="20" height="10" x="200" y="120" fill="#ff0e0e" /><rect width="10" height="10" x="220" y="120" fill="#000000" /><rect width="40" height="10" x="70" y="130" fill="#000000" /><rect width="20" height="10" x="110" y="130" fill="#ffffff" /><rect width="20" height="10" x="130" y="130" fill="#ff0e0e" /><rect width="30" height="10" x="150" y="130" fill="#000000" /><rect width="20" height="10" x="180" y="130" fill="#ffffff" /><rect width="20" height="10" x="200" y="130" fill="#ff0e0e" /><rect width="10" height="10" x="220" y="130" fill="#000000" /><rect width="10" height="10" x="70" y="140" fill="#000000" /><rect width="10" height="10" x="100" y="140" fill="#000000" /><rect width="20" height="10" x="110" y="140" fill="#ffffff" /><rect width="20" height="10" x="130" y="140" fill="#ff0e0e" /><rect width="10" height="10" x="150" y="140" fill="#000000" /><rect width="10" height="10" x="170" y="140" fill="#000000" /><rect width="20" height="10" x="180" y="140" fill="#ffffff" /><rect width="20" height="10" x="200" y="140" fill="#ff0e0e" /><rect width="10" height="10" x="220" y="140" fill="#000000" /><rect width="10" height="10" x="70" y="150" fill="#000000" /><rect width="10" height="10" x="100" y="150" fill="#000000" /><rect width="20" height="10" x="110" y="150" fill="#ffffff" /><rect width="20" height="10" x="130" y="150" fill="#ff0e0e" /><rect width="10" height="10" x="150" y="150" fill="#000000" /><rect width="10" height="10" x="170" y="150" fill="#000000" /><rect width="20" height="10" x="180" y="150" fill="#ffffff" /><rect width="20" height="10" x="200" y="150" fill="#ff0e0e" /><rect width="10" height="10" x="220" y="150" fill="#000000" /><rect width="60" height="10" x="100" y="160" fill="#000000" /><rect width="60" height="10" x="170" y="160" fill="#000000" /></svg>