<svg viewBox="0 0 320 320" xmlns="http://www.w3.org/2000/svg" shape-rendering="crispEdges"><rect width="100%" height="100%" fill="#e1d7d5" /><rect width="140" height="10" x="90" y="210" fill="#fd8b5b" /><rect width="140" height="10" x="90" y="220" fill="#fd8b5b" /><rect width="140" height="10" x="90" y="230" fill="#fd8b5b" /><rect width="140" height="10" x="90" y="240" fill="#fd8b5b" /><rect width="20" height="10" x="90" y="250" fill="#fd8b5b" /><rect width="110" height="10" x="120" y="250" fill="#fd8b5b" /><rect width="20" height="10" x="90" y="260" fill="#fd8b5b" /><rect width="110" height="10" x="120" y="260" fill="#fd8b5b" /><rect width="20" height="10" x="90" y="270" fill="#fd8b5b" /><rect width="110" height="10" x="120" y="270" fill="#fd8b5b" /><rect width="20" height="10" x="90" y="280" fill="#fd8b5b" /><rect width="110" height="10" x="120" y="280" fill="#fd8b5b" /><rect width="20" height="10" x="90" y="290" fill="#fd8b5b" /><rect width="110" height="10" x="120" y="290" fill="#fd8b5b" /><rect width="20" height="10" x="90" y="300" fill="#fd8b5b" /><rect width="110" height="10" x="120" y="300" fill="#fd8b5b" /><rect width="20" height="10" x="90" y="310" fill="#fd8b5b" /><rect width="110" height="10" x="120" y="310" fill="#fd8b5b" /><rect width="10" height="10" x="140" y="240" fill="#867c1d" /><rect width="10" height="10" x="150" y="250" fill="#f9f5cb" /><rect width="20" height="10" x="160" y="250" fill="#867c1d" /><rect width="10" height="10" x="180" y="250" fill="#000000" /><rect width="10" height="10" x="190" y="250" fill="#867c1d" /><rect width="10" height="10" x="140" y="260" fill="#867c1d" /><rect width="10" height="10" x="160" y="260" fill="#ffffff" /><rect width="20" height="10" x="170" y="260" fill="#f9f5cb" /><rect width="10" height="10" x="190" y="260" fill="#ffffff" /><rect width="10" height="10" x="170" y="270" fill="#f9f5cb" /><rect width="10" height="10" x="110" y="20" fill="#ff1a0b" /><rect width="10" height="10" x="210" y="20" fill="#ff1a0b" /><rect width="20" height="10" x="110" y="30" fill="#ff1a0b" /><rect width="20" height="10" x="200" y="30" fill="#ff1a0b" /><rect width="20" height="10" x="120" y="40" fill="#ff1a0b" /><rect width="20" height="10" x="190" y="40" fill="#ff1a0b" /><rect width="60" height="10" x="100" y="50" fill="#000000" /><rect width="50" height="10" x="170" y="50" fill="#000000" /><rect width="10" height="10" x="90" y="60" fill="#000000" /><rect width="60" height="10" x="100" y="60" fill="#1f1d29" /><rect width="10" height="10" x="160" y="60" fill="#000000" /><rect width="50" height="10" x="170" y="60" fill="#1f1d29" /><rect width="10" height="10" x="220" y="60" fill="#000000" /><rect width="10" height="10" x="80" y="70" fill="#000000" /><rect width="10" height="10" x="90" y="70" fill="#1f1d29" /><rect width="60" height="10" x="100" y="70" fill="#000000" /><rect width="10" height="10" x="160" y="70" fill="#1f1d29" /><rect width="50" height="10" x="170" y="70" fill="#000000" /><rect width="10" height="10" x="220" y="70" fill="#1f1d29" /><rect width="10" height="10" x="230" y="70" fill="#000000" /><rect width="10" height="10" x="70" y="80" fill="#000000" /><rect width="10" height="10" x="80" y="80" fill="#1f1d29" /><rect width="10" height="10" x="90" y="80" fill="#000000" /><rect width="10" height="10" x="100" y="80" fill="#1f1d29" /><rect width="10" height="10" x="110" y="80" fill="#000000" /><rect width="40" height="10" x="120" y="80" fill="#1f1d29" /><rect width="10" height="10" x="160" y="80" fill="#000000" /><rect width="40" height="10" x="170" y="80" fill="#1f1d29" /><rect width="20" height="10" x="210" y="80" fill="#000000" /><rect width="10" height="10" x="230" y="80" fill="#1f1d29" /><rect width="10" height="10" x="240" y="80" fill="#000000" /><rect width="10" height="10" x="70" y="90" fill="#000000" /><rect width="10" height="10" x="80" y="90" fill="#1f1d29" /><rect width="10" height="10" x="90" y="90" fill="#000000" /><rect width="10" height="10" x="100" y="90" fill="#1f1d29" /><rect width="20" height="10" x="110" y="90" fill="#000000" /><rect width="70" height="10" x="130" y="90" fill="#ff1a0b" /><rect width="30" height="10" x="200" y="90" fill="#000000" /><rect width="10" height="10" x="230" y="90" fill="#1f1d29" /><rect width="10" height="10" x="240" y="90" fill="#000000" /><rect width="10" height="10" x="70" y="100" fill="#000000" /><rect width="10" height="10" x="80" y="100" fill="#1f1d29" /><rect width="10" height="10" x="90" y="100" fill="#000000" /><rect width="10" height="10" x="100" y="100" fill="#1f1d29" /><rect width="10" height="10" x="110" y="100" fill="#ff1a0b" /><rect width="30" height="10" x="120" y="100" fill="#000000" /><rect width="30" height="10" x="150" y="100" fill="#d22209" /><rect width="30" height="10" x="180" y="100" fill="#000000" /><rect width="10" height="10" x="210" y="100" fill="#ff1a0b" /><rect width="10" height="10" x="220" y="100" fill="#000000" /><rect width="10" height="10" x="230" y="100" fill="#1f1d29" /><rect width="10" height="10" x="240" y="100" fill="#000000" /><rect width="10" height="10" x="70" y="110" fill="#000000" /><rect width="10" height="10" x="80" y="110" fill="#1f1d29" /><rect width="10" height="10" x="90" y="110" fill="#000000" /><rect width="10" height="10" x="100" y="110" fill="#1f1d29" /><rect width="30" height="10" x="110" y="110" fill="#ff1a0b" /><rect width="20" height="10" x="140" y="110" fill="#000000" /><rect width="10" height="10" x="160" y="110" fill="#ff1a0b" /><rect width="20" height="10" x="170" y="110" fill="#000000" /><rect width="30" height="10" x="190" y="110" fill="#ff1a0b" /><rect width="10" height="10" x="220" y="110" fill="#000000" /><rect width="10" height="10" x="230" y="110" fill="#1f1d29" /><rect width="10" height="10" x="240" y="110" fill="#000000" /><rect width="10" height="10" x="60" y="120" fill="#000000" /><rect width="10" height="10" x="70" y="120" fill="#1f1d29" /><rect width="10" height="10" x="80" y="120" fill="#000000" /><rect width="10" height="10" x="90" y="120" fill="#1f1d29" /><rect width="10" height="10" x="100" y="120" fill="#ff1a0b" /><rect width="20" height="10" x="110" y="120" fill="#ffffff" /><rect width="20" height="10" x="130" y="120" fill="#000000" /><rect width="10" height="10" x="150" y="120" fill="#ffffff" /><rect width="10" height="10" x="160" y="120" fill="#ff1a0b" /><rect width="10" height="10" x="170" y="120" fill="#ffffff" /><rect width="20" height="10" x="180" y="120" fill="#000000" /><rect width="20" height="10" x="200" y="120" fill="#ffffff" /><rect width="10" height="10" x="220" y="120" fill="#1f1d29" /><rect width="10" height="10" x="230" y="120" fill="#000000" /><rect width="10" height="10" x="240" y="120" fill="#1f1d29" /><rect width="10" height="10" x="250" y="120" fill="#000000" /><rect width="10" height="10" x="60" y="130" fill="#000000" /><rect width="10" height="10" x="70" y="130" fill="#1f1d29" /><rect width="10" height="10" x="80" y="130" fill="#000000" /><rect width="10" height="10" x="90" y="130" fill="#1f1d29" /><rect width="10" height="10" x="100" y="130" fill="#ff1a0b" /><rect width="20" height="10" x="110" y="130" fill="#ffffff" /><rect width="20" height="10" x="130" y="130" fill="#000000" /><rect width="10" height="10" x="150" y="130" fill="#ffffff" /><rect width="10" height="10" x="160" y="130" fill="#ff1a0b" /><rect width="10" height="10" x="170" y="130" fill="#ffffff" /><rect width="20" height="10" x="180" y="130" fill="#000000" /><rect width="20" height="10" x="200" y="130" fill="#ffffff" /><rect width="10" height="10" x="220" y="130" fill="#1f1d29" /><rect width="10" height="10" x="230" y="130" fill="#000000" /><rect width="10" height="10" x="240" y="130" fill="#1f1d29" /><rect width="10" height="10" x="250" y="130" fill="#000000" /><rect width="10" height="10" x="60" y="140" fill="#000000" /><rect width="10" height="10" x="70" y="140" fill="#1f1d29" /><rect width="10" height="10" x="80" y="140" fill="#000000" /><rect width="10" height="10" x="90" y="140" fill="#1f1d29" /><rect width="10" height="10" x="100" y="140" fill="#d22209" /><rect width="10" height="10" x="110" y="140" fill="#ff1a0b" /><rect width="40" height="10" x="120" y="140" fill="#ffffff" /><rect width="10" height="10" x="160" y="140" fill="#ff1a0b" /><rect width="40" height="10" x="170" y="140" fill="#ffffff" /><rect width="10" height="10" x="210" y="140" fill="#ff1a0b" /><rect width="10" height="10" x="220" y="140" fill="#1f1d29" /><rect width="10" height="10" x="230" y="140" fill="#000000" /><rect width="10" height="10" x="240" y="140" fill="#1f1d29" /><rect width="10" height="10" x="250" y="140" fill="#000000" /><rect width="10" height="10" x="60" y="150" fill="#000000" /><rect width="10" height="10" x="70" y="150" fill="#1f1d29" /><rect width="10" height="10" x="80" y="150" fill="#000000" /><rect width="10" height="10" x="90" y="150" fill="#1f1d29" /><rect width="10" height="10" x="100" y="150" fill="#d22209" /><rect width="30" height="10" x="110" y="150" fill="#ff1a0b" /><rect width="10" height="10" x="140" y="150" fill="#d22209" /><rect width="30" height="10" x="150" y="150" fill="#ff1a0b" /><rect width="10" height="10" x="180" y="150" fill="#d22209" /><rect width="20" height="10" x="190" y="150" fill="#ff1a0b" /><rect width="10" height="10" x="210" y="150" fill="#d22209" /><rect width="10" height="10" x="220" y="150" fill="#1f1d29" /><rect width="10" height="10" x="230" y="150" fill="#000000" /><rect width="10" height="10" x="240" y="150" fill="#1f1d29" /><rect width="10" height="10" x="250" y="150" fill="#000000" /><rect width="10" height="10" x="60" y="160" fill="#000000" /><rect width="10" height="10" x="70" y="160" fill="#1f1d29" /><rect width="10" height="10" x="80" y="160" fill="#000000" /><rect width="10" height="10" x="90" y="160" fill="#1f1d29" /><rect width="10" height="10" x="100" y="160" fill="#ff1a0b" /><rect width="30" height="10" x="110" y="160" fill="#d22209" /><rect width="50" height="10" x="140" y="160" fill="#ff1a0b" /><rect width="20" height="10" x="190" y="160" fill="#d22209" /><rect width="10" height="10" x="210" y="160" fill="#ff1a0b" /><rect width="10" height="10" x="220" y="160" fill="#1f1d29" /><rect width="10" height="10" x="230" y="160" fill="#000000" /><rect width="10" height="10" x="240" y="160" fill="#1f1d29" /><rect width="10" height="10" x="250" y="160" fill="#000000" /><rect width="10" height="10" x="50" y="170" fill="#000000" /><rect width="10" height="10" x="60" y="170" fill="#1f1d29" /><rect width="10" height="10" x="70" y="170" fill="#000000" /><rect width="10" height="10" x="80" y="170" fill="#1f1d29" /><rect width="10" height="10" x="90" y="170" fill="#000000" /><rect width="10" height="10" x="100" y="170" fill="#ff1a0b" /><rect width="10" height="10" x="110" y="170" fill="#000000" /><rect width="20" height="10" x="120" y="170" fill="#ff1a0b" /><rect width="20" height="10" x="140" y="170" fill="#d22209" /><rect width="10" height="10" x="160" y="170" fill="#ff1a0b" /><rect width="20" height="10" x="170" y="170" fill="#d22209" /><rect width="10" height="10" x="190" y="170" fill="#ff1a0b" /><rect width="10" height="10" x="200" y="170" fill="#000000" /><rect width="10" height="10" x="210" y="170" fill="#ff1a0b" /><rect width="10" height="10" x="220" y="170" fill="#000000" /><rect width="10" height="10" x="230" y="170" fill="#1f1d29" /><rect width="10" height="10" x="240" y="170" fill="#000000" /><rect width="10" height="10" x="50" y="180" fill="#000000" /><rect width="10" height="10" x="60" y="180" fill="#1f1d29" /><rect width="10" height="10" x="70" y="180" fill="#000000" /><rect width="10" height="10" x="80" y="180" fill="#1f1d29" /><rect width="10" height="10" x="90" y="180" fill="#000000" /><rect width="10" height="10" x="100" y="180" fill="#ff1a0b" /><rect width="10" height="10" x="110" y="180" fill="#000000" /><rect width="10" height="10" x="120" y="180" fill="#ffffff" /><rect width="10" height="10" x="130" y="180" fill="#000000" /><rect width="10" height="10" x="140" y="180" fill="#dcd8d3" /><rect width="10" height="10" x="150" y="180" fill="#000000" /><rect width="10" height="10" x="160" y="180" fill="#dcd8d3" /><rect width="10" height="10" x="170" y="180" fill="#000000" /><rect width="10" height="10" x="180" y="180" fill="#dcd8d3" /><rect width="10" height="10" x="190" y="180" fill="#ffffff" /><rect width="10" height="10" x="200" y="180" fill="#000000" /><rect width="10" height="10" x="210" y="180" fill="#ff1a0b" /><rect width="10" height="10" x="220" y="180" fill="#000000" /><rect width="10" height="10" x="230" y="180" fill="#1f1d29" /><rect width="10" height="10" x="240" y="180" fill="#000000" /><rect width="10" height="10" x="50" y="190" fill="#000000" /><rect width="10" height="10" x="60" y="190" fill="#1f1d29" /><rect width="10" height="10" x="70" y="190" fill="#000000" /><rect width="10" height="10" x="80" y="190" fill="#1f1d29" /><rect width="10" height="10" x="90" y="190" fill="#000000" /><rect width="10" height="10" x="100" y="190" fill="#d22209" /><rect width="20" height="10" x="110" y="190" fill="#ffffff" /><rect width="10" height="10" x="130" y="190" fill="#dcd8d3" /><rect width="10" height="10" x="140" y="190" fill="#000000" /><rect width="10" height="10" x="150" y="190" fill="#dcd8d3" /><rect width="10" height="10" x="160" y="190" fill="#000000" /><rect width="10" height="10" x="170" y="190" fill="#dcd8d3" /><rect width="10" height="10" x="180" y="190" fill="#000000" /><rect width="20" height="10" x="190" y="190" fill="#ffffff" /><rect width="10" height="10" x="210" y="190" fill="#d22209" /><rect width="10" height="10" x="220" y="190" fill="#000000" /><rect width="10" height="10" x="230" y="190" fill="#1f1d29" /><rect width="10" height="10" x="240" y="190" fill="#000000" /><rect width="10" height="10" x="50" y="200" fill="#000000" /><rect width="10" height="10" x="60" y="200" fill="#1f1d29" /><rect width="10" height="10" x="70" y="200" fill="#000000" /><rect width="10" height="10" x="80" y="200" fill="#1f1d29" /><rect width="10" height="10" x="90" y="200" fill="#000000" /><rect width="10" height="10" x="100" y="200" fill="#ff1a0b" /><rect width="10" height="10" x="110" y="200" fill="#ffffff" /><rect width="10" height="10" x="120" y="200" fill="#000000" /><rect width="10" height="10" x="130" y="200" fill="#dcd8d3" /><rect width="40" height="10" x="140" y="200" fill="#d22209" /><rect width="10" height="10" x="180" y="200" fill="#dcd8d3" /><rect width="10" height="10" x="190" y="200" fill="#000000" /><rect width="10" height="10" x="200" y="200" fill="#ffffff" /><rect width="10" height="10" x="210" y="200" fill="#ff1a0b" /><rect width="10" height="10" x="220" y="200" fill="#000000" /><rect width="10" height="10" x="230" y="200" fill="#1f1d29" /><rect width="10" height="10" x="240" y="200" fill="#000000" /><rect width="10" height="10" x="50" y="210" fill="#000000" /><rect width="10" height="10" x="60" y="210" fill="#1f1d29" /><rect width="10" height="10" x="70" y="210" fill="#000000" /><rect width="10" height="10" x="80" y="210" fill="#1f1d29" /><rect width="10" height="10" x="90" y="210" fill="#000000" /><rect width="10" height="10" x="110" y="210" fill="#ff1a0b" /><rect width="20" height="10" x="120" y="210" fill="#d22209" /><rect width="40" height="10" x="140" y="210" fill="#ff1a0b" /><rect width="20" height="10" x="180" y="210" fill="#d22209" /><rect width="10" height="10" x="200" y="210" fill="#ff1a0b" /><rect width="10" height="10" x="220" y="210" fill="#000000" /><rect width="10" height="10" x="230" y="210" fill="#1f1d29" /><rect width="10" height="10" x="240" y="210" fill="#000000" /><rect width="10" height="10" x="40" y="220" fill="#000000" /><rect width="10" height="10" x="60" y="220" fill="#000000" /><rect width="10" height="10" x="80" y="220" fill="#000000" /><rect width="10" height="10" x="210" y="220" fill="#000000" /><rect width="10" height="10" x="230" y="220" fill="#000000" /><rect width="60" height="10" x="100" y="110" fill="#ffc110" /><rect width="60" height="10" x="170" y="110" fill="#f98f30" /><rect width="10" height="10" x="100" y="120" fill="#ffc110" /><rect width="20" height="10" x="110" y="120" fill="#ffffff" /><rect width="20" height="10" x="130" y="120" fill="#000000" /><rect width="10" height="10" x="150" y="120" fill="#ffc110" /><rect width="10" height="10" x="170" y="120" fill="#f98f30" /><rect width="20" height="10" x="180" y="120" fill="#ffffff" /><rect width="20" height="10" x="200" y="120" fill="#000000" /><rect width="10" height="10" x="220" y="120" fill="#f98f30" /><rect width="30" height="10" x="70" y="130" fill="#f78a18" /><rect width="10" height="10" x="100" y="130" fill="#ffc110" /><rect width="20" height="10" x="110" y="130" fill="#ffffff" /><rect width="20" height="10" x="130" y="130" fill="#000000" /><rect width="10" height="10" x="150" y="130" fill="#ffc110" /><rect width="10" height="10" x="160" y="130" fill="#f78a18" /><rect width="10" height="10" x="170" y="130" fill="#f98f30" /><rect width="20" height="10" x="180" y="130" fill="#ffffff" /><rect width="20" height="10" x="200" y="130" fill="#000000" /><rect width="10" height="10" x="220" y="130" fill="#f98f30" /><rect width="10" height="10" x="70" y="140" fill="#ffc110" /><rect width="10" height="10" x="100" y="140" fill="#ffc110" /><rect width="20" height="10" x="110" y="140" fill="#ffffff" /><rect width="20" height="10" x="130" y="140" fill="#000000" /><rect width="10" height="10" x="150" y="140" fill="#ffc110" /><rect width="10" height="10" x="170" y="140" fill="#f98f30" /><rect width="20" height="10" x="180" y="140" fill="#ffffff" /><rect width="20" height="10" x="200" y="140" fill="#000000" /><rect width="10" height="10" x="220" y="140" fill="#f98f30" /><rect width="10" height="10" x="70" y="150" fill="#ffc110" /><rect width="10" height="10" x="100" y="150" fill="#ffc110" /><rect width="20" height="10" x="110" y="150" fill="#ffffff" /><rect width="20" height="10" x="130" y="150" fill="#000000" /><rect width="10" height="10" x="150" y="150" fill="#ffc110" /><rect width="10" height="10" x="170" y="150" fill="#f98f30" /><rect width="20" height="10" x="180" y="150" fill="#ffffff" /><rect width="20" height="10" x="200" y="150" fill="#000000" /><rect width="10" height="10" x="220" y="150" fill="#f98f30" /><rect width="60" height="10" x="100" y="160" fill="#ffc110" /><rect width="60" height="10" x="170" y="160" fill="#f98f30" /></svg>